<?xml version="1.0" encoding="UTF-8"?><svg id="Layer_1" xmlns="http://www.w3.org/2000/svg" viewBox="0 0 328.37 375.28"><path d="M134.95,54.97l26.39,14.66c1.77,.98,3.92,.98,5.7,0l26.39-14.66c1.86-1.03,3.02-3,3.02-5.13V20.52c0-2.13-1.15-4.09-3.02-5.13L167.04,.74c-1.77-.98-3.92-.98-5.7,0l-26.39,14.66c-1.86,1.03-3.02,3-3.02,5.13v29.32c0,2.13,1.15,4.09,3.02,5.13Zm8.71-30.99l20.52-11.4,20.52,11.4v22.42l-20.52,11.4-20.52-11.4V23.97Z"/><path d="M193.42,320.31l-26.39-14.66c-1.77-.98-3.92-.98-5.7,0l-26.39,14.66c-1.86,1.03-3.02,3-3.02,5.13v29.32c0,2.13,1.15,4.09,3.02,5.13l26.39,14.66c1.77,.98,3.92,.98,5.7,0l26.39-14.66c1.86-1.03,3.02-3,3.02-5.13v-29.32c0-2.13-1.15-4.09-3.02-5.13Z"/><path d="M61.49,244.08l-26.39-14.66c-1.77-.98-3.92-.98-5.7,0l-26.39,14.66c-1.86,1.03-3.02,3-3.02,5.13v29.32c0,2.13,1.15,4.09,3.02,5.13l26.39,14.66c1.77,.98,3.92,.98,5.7,0l26.39-14.66c1.86-1.03,3.02-3,3.02-5.13v-29.32c0-2.13-1.15-4.09-3.02-5.13Zm-8.71,30.99l-20.52,11.4-20.52-11.4v-22.42l20.52-11.4,20.52,11.4v22.42Z"/><path d="M325.35,244.08l-26.39-14.66c-1.77-.98-3.92-.98-5.7,0l-26.39,14.66c-1.86,1.03-3.02,3-3.02,5.13v29.32c0,2.13,1.15,4.09,3.02,5.13l26.39,14.66c1.77,.98,3.92,.98,5.7,0l26.39-14.66c1.86-1.03,3.02-3,3.02-5.13v-29.32c0-2.13-1.15-4.09-3.02-5.13Zm-8.71,30.99l-20.52,11.4-20.52-11.4v-22.42l20.52-11.4,20.52,11.4v22.42Z"/><path d="M125.16,62.04c-2.81-2.92-4.52-6.72-4.85-10.75l-49.98,29.43c3.01,2.68,5.01,6.31,5.65,10.28l49.18-28.96Z"/><path d="M61.49,88.69l-26.39-14.66c-1.77-.98-3.92-.98-5.7,0L3.02,88.69c-1.86,1.03-3.02,3-3.02,5.13v29.32c0,2.13,1.15,4.09,3.02,5.13l26.39,14.66c1.77,.98,3.92,.98,5.7,0l26.39-14.66c1.86-1.03,3.02-3,3.02-5.13v-29.32c0-2.13-1.15-4.09-3.02-5.13Z"/><path d="M325.35,88.69l-26.39-14.66c-1.77-.98-3.92-.98-5.7,0l-26.39,14.66c-1.86,1.03-3.02,3-3.02,5.13v29.32c0,2.13,1.15,4.09,3.02,5.13l26.39,14.66c1.77,.98,3.92,.98,5.7,0l26.39-14.66c1.86-1.03,3.02-3,3.02-5.13v-29.32c0-2.13-1.15-4.09-3.02-5.13Z"/><path d="M216.96,214.03v-52.77c0-2.12-1.14-4.07-2.99-5.11l-46.91-26.39c-1.79-1-3.96-1-5.75,0l-46.91,26.39c-1.85,1.04-2.99,2.99-2.99,5.11v52.77c0,2.12,1.14,4.07,2.99,5.11l46.91,26.39c1.79,1.01,3.96,1.01,5.75,0l46.91-26.39c1.85-1.04,2.99-2.99,2.99-5.11Z"/><path d="M258.04,80.72l-49.98-29.43c-.33,4.04-2.04,7.83-4.85,10.75l49.18,28.96h0c.65-3.98,2.65-7.61,5.65-10.29h0Z"/><path d="M301.98,218v-63.64c-3.79,1.38-7.94,1.38-11.73,0v63.64c3.79-1.34,7.93-1.34,11.73,0Z"/><path d="M253.02,283.91l-49.81,29.33c2.81,2.92,4.52,6.72,4.85,10.75l52.16-30.71c-3.41-2.2-5.96-5.51-7.2-9.37h0Z"/><path d="M68.15,293.28l52.16,30.71c.33-4.04,2.04-7.83,4.85-10.75l-49.81-29.33c-1.24,3.86-3.79,7.17-7.2,9.37h0Z"/><path d="M38.12,218v-63.64c-3.79,1.38-7.94,1.38-11.73,0v63.64c3.79-1.34,7.93-1.34,11.73,0Z"/><path d="M170.05,118.31v-37.26c-3.79,1.38-7.94,1.38-11.73,0v37.26c3.79-1.35,7.93-1.35,11.73,0Z"/><path d="M158.32,256.96v37.26h0c3.79-1.35,7.93-1.35,11.73,0v-37.26c-3.79,1.38-7.94,1.38-11.73,0h0Z"/><path d="M100.5,219.23l-29.31,17.69c2.83,2.9,4.57,6.69,4.93,10.72l31.45-18.98c-3.37-2.23-5.87-5.56-7.07-9.43h0Z"/><path d="M252.68,127.38l-31.89,19.25c3.37,2.23,5.87,5.56,7.07,9.42l31.27-18.87h0c-3.21-2.43-5.49-5.89-6.46-9.8h0Z"/><path d="M108.15,146.24l-32.31-19.61h0c-.8,3.94-2.93,7.49-6.04,10.05l30.91,18.76h0c1.34-3.84,3.97-7.09,7.44-9.2h0Z"/><path d="M221.05,228.49l31.21,18.95h0c.4-4.03,2.18-7.8,5.04-10.66l-29.34-17.81c-1.14,3.87-3.58,7.24-6.91,9.52h0Z"/></svg>