<?xml version="1.0" encoding="utf-8"?>
<!-- Generator: Adobe Illustrator 24.3.0, SVG Export Plug-In . SVG Version: 6.00 Build 0)  -->
<svg version="1.1" id="Layer_1" xmlns="http://www.w3.org/2000/svg" xmlns:xlink="http://www.w3.org/1999/xlink" x="0px" y="0px"
	 viewBox="0 0 1000 300" style="enable-background:new 0 0 1000 300;" xml:space="preserve">
<style type="text/css">
	.st0{fill:#FFFFFF;}
	.st1{opacity:0.5;fill:#FFFFFF;}
	.st2{opacity:0.2;fill:#FFFFFF;}
	.st3{opacity:0.7;fill:#FFFFFF;}
	.st4{opacity:0.2;}
	.st5{opacity:0.7;}
	.st6{opacity:0.5;}
	.st7{fill:none;}
	.st8{fill:#003764;}
	.st9{fill:#009ADE;}
	.st10{fill:#B1E8FC;}
	.st11{fill:#086CB7;}
</style>
<polygon class="st0" points="418.8,33.1 401,33.1 401,91.2 444.5,91.2 444.5,76.3 418.8,76.3 "/>
<polygon class="st0" points="452.1,91.2 470.2,91.2 470.2,69.1 493.4,69.1 493.4,55.4 470.2,55.4 470.2,48 497,48 497,33.1 
	452.1,33.1 "/>
<polygon class="st0" points="510.7,91.7 543.1,91.7 543.1,87.8 515,87.8 515,62.9 541.7,62.9 541.7,59 515,59 515,36.9 543.1,36.9 
	543.1,33.1 510.7,33.1 "/>
<path class="st0" d="M595.9,71.3c0,4.3,0.2,8.9,0.5,13.7h-0.5l-35.3-51.8h-4.1v58.3h3.8V53.5c0-3.1-0.2-7.7-0.5-13.9h0.2l35.3,52.1
	h4.3h0.2V33.1h-4.1V71.3z"/>
<polygon class="st0" points="616.6,91.7 649,91.7 649,87.8 620.9,87.8 620.9,62.9 647.5,62.9 647.5,59 620.9,59 620.9,36.9 
	649,36.9 649,33.1 616.6,33.1 "/>
<path class="st0" d="M695.1,59.3c2.2-2.6,3.1-6,3.1-10.1c0-5.5-1.9-9.4-5.3-12.2c-3.6-2.6-9.1-4.1-16.3-4.1h-14.2v58.8h4.1V66
	l14.6,0.2l15.6,25.4h5L685.7,65C689.8,64.1,692.9,61.9,695.1,59.3z M677.8,62.6h-11.3h-0.2V36.9h9.6c6.2,0,10.6,1,13.4,3.1
	c2.6,1.9,4.1,5.3,4.1,9.6s-1.4,7.4-4.1,9.6C686.9,61.7,682.8,62.6,677.8,62.6z"/>
<path class="st0" d="M734.9,65.3h17.3v19.9c-3.8,1.4-8.4,2.2-13.7,2.2c-8.4,0-14.6-2.2-18.7-6.5c-4.3-4.3-6.5-10.8-6.5-19.4
	c0-7.9,2.2-14.2,6.7-18.7c4.3-4.8,10.6-7,18.2-7c5.3,0,10.6,1.2,15.6,3.6l1.7-3.6c-5-2.2-10.8-3.6-17-3.6c-6,0-11,1.2-15.6,3.6
	s-7.9,6-10.6,10.6c-2.4,4.6-3.6,9.6-3.6,15.4c0,9.4,2.4,16.6,7.2,21.6c4.8,5,12,7.7,21.1,7.7c7,0,13.4-1,19-3.6V61.4h-21.4
	L734.9,65.3z"/>
<polygon class="st0" points="801.7,33.1 784.4,64.8 767.1,33.1 762.3,33.1 782,69.1 782,91.2 786.3,91.2 786.3,68.6 806,33.1 "/>
<g>
	<g>
		<path class="st0" d="M349.2,230.5v3.5c0,16.9,7.4,25.5,22.8,25.5c14,0,21-9.9,21-20.2c0-14.6-7.4-21-19.8-24.7l-15.2-5.3
			c-20.2-7.8-29-18.3-29-38.1c0-25.3,17.1-39.3,43.2-39.3c35.6,0,39.3,22.2,39.3,36.6v3.1h-22.2v-2.9c0-12.6-5.6-20-19.5-20
			c-9.5,0-18.7,5.3-18.7,20c0,11.9,6,17.9,20.8,23.5l15,5.4c19.6,7,28.2,17.7,28.2,36.8c0,29.6-17.9,41.8-45.9,41.8
			c-34.4,0-42.2-23-42.2-42.4v-3.3H349.2z"/>
		<path class="st0" d="M433,134.7h75.1v18.7h-52.9v38.5H505v18.7h-49.8v44.3h54.5v18.7H433V134.7z"/>
		<path class="st0" d="M560.6,134.7H589l36.6,138.9h-23.1l-8.6-34h-40.7l-8.9,34h-23.1L560.6,134.7z M590.2,221.8l-15.9-68.5h-0.4
			l-16.5,68.5H590.2z"/>
		<path class="st0" d="M639.2,134.7h44c26.6,0,38.3,16.7,38.3,40.5c0,24.9-14.6,41-40.7,41h-19.5v57.4h-22.2V134.7z M661.4,199.4
			h15.8c11.9,0,22.2-6.4,22.2-23.9c0-15-6-24.1-23.7-24.1h-14.2V199.4z"/>
		<path class="st0" d="M755.5,134.7h28.4l36.6,138.9h-23.1l-8.6-34h-40.7l-8.9,34H716L755.5,134.7z M785.1,221.8l-15.9-68.5h-0.4
			l-16.5,68.5H785.1z"/>
		<path class="st0" d="M842.3,153.3h-33.1v-18.7h87.7v18.7h-32.5v120.2h-22.2V153.3z"/>
		<path class="st0" d="M913.5,134.7h22.2v55.6h40.8v-55.6h22.2v138.9h-22.2V209h-40.8v64.6h-22.2V134.7z"/>
	</g>
</g>
<polygon class="st0" points="338.6,56.1 326.6,56.1 326.6,91.2 361.9,91.2 361.9,79.7 338.6,79.7 "/>
<polygon class="st0" points="326.6,50.1 338.4,50.1 338.4,44.4 373.7,44.4 373.7,79.7 367.9,79.7 367.9,91.2 385.4,91.2 385.4,32.6 
	326.6,32.6 "/>
<path class="st0" d="M113.9,129.5c20.6-14.1,41.7-28,82.9-28c3.4,0,6.6,0.1,9.7,0.3c15.1-10,32.1-18.7,61.8-18.7
	c1.8,0,3.5,0,5.2,0.1c-24.1-46-72.3-77.4-127.8-77.4c-56.5,0-105.4,32.5-129,79.8C57.7,94.2,68.4,123.7,113.9,129.5z"/>
<path class="st1" d="M113.9,129.5c-45.5-5.7-56.2-35.2-97.3-44C6.9,104.9,1.3,126.8,1.3,150c0,2.3,0.1,4.6,0.2,6.9
	c7.9,1.4,16.8,2.3,26.8,2.3C71.3,159.2,92.4,144.2,113.9,129.5z"/>
<path class="st1" d="M206.5,101.8c40.7,2.3,60.2,19.2,82.6,34c-1.8-18.8-7.3-36.6-15.7-52.6c-1.7-0.1-3.4-0.1-5.2-0.1
	C238.6,83.1,221.7,91.8,206.5,101.8z"/>
<path class="st2" d="M196.8,101.5c-41.3,0-62.3,13.8-82.9,28c-21.5,14.7-42.6,29.8-85.5,29.8c-10,0-18.9-0.8-26.8-2.3
	c0.3,7.4,1.2,14.6,2.7,21.6c9.1-1.5,19.1-2.3,30.3-2.3c45.3,0,71.1,13.4,94.2,28.6c30.8-13.6,44.4-39,95-39c29.8,0,46.8,8.8,62,18.9
	c2.8-11.1,4.2-22.8,4.2-34.7c0-4.8-0.2-9.5-0.7-14.2c-22.4-14.9-41.9-31.7-82.6-34C203.4,101.6,200.2,101.5,196.8,101.5z"/>
<path class="st1" d="M128.7,204.9c30.5,20.1,56.2,43.4,116,43.4c2.3,0,4.4,0,6.6-0.1c16.4-17.6,28.4-39.3,34.3-63.4
	c-15.2-10-32.2-18.9-62-18.9C173,165.9,159.5,191.3,128.7,204.9z"/>
<path class="st3" d="M128.7,204.9c-23.1-15.2-48.9-28.6-94.2-28.6c-11.2,0-21.2,0.8-30.3,2.3c5.8,28.7,20,54.3,40.1,74.1
	c13.2-7.5,28.8-13.3,53-13.3c56.2,0,66.8,31.3,105.8,43c18.4-8,34.8-19.7,48.2-34.2c-2.2,0.1-4.3,0.1-6.6,0.1
	C184.9,248.3,159.1,225,128.7,204.9z"/>
<path class="st2" d="M44.3,252.6c26.1,25.7,61.8,41.6,101.4,41.6c20.4,0,39.8-4.3,57.4-11.9c-39.1-11.7-49.7-43-105.8-43
	C73.1,239.4,57.4,245.1,44.3,252.6z"/>
<polygon class="st0" points="418.8,33.1 401,33.1 401,91.2 444.5,91.2 444.5,76.3 418.8,76.3 "/>
<polygon class="st0" points="452.1,91.2 470.2,91.2 470.2,69.1 493.4,69.1 493.4,55.4 470.2,55.4 470.2,48 497,48 497,33.1 
	452.1,33.1 "/>
<polygon class="st0" points="510.7,91.7 543.1,91.7 543.1,87.8 515,87.8 515,62.9 541.7,62.9 541.7,59 515,59 515,36.9 543.1,36.9 
	543.1,33.1 510.7,33.1 "/>
<path class="st0" d="M595.9,71.3c0,4.3,0.2,8.9,0.5,13.7h-0.5l-35.3-51.8h-4.1v58.3h3.8V53.5c0-3.1-0.2-7.7-0.5-13.9h0.2l35.3,52.1
	h4.3h0.2V33.1h-4.1V71.3z"/>
<polygon class="st0" points="616.6,91.7 649,91.7 649,87.8 620.9,87.8 620.9,62.9 647.5,62.9 647.5,59 620.9,59 620.9,36.9 
	649,36.9 649,33.1 616.6,33.1 "/>
<path class="st0" d="M695.1,59.3c2.2-2.6,3.1-6,3.1-10.1c0-5.5-1.9-9.4-5.3-12.2c-3.6-2.6-9.1-4.1-16.3-4.1h-14.2v58.8h4.1V66
	l14.6,0.2l15.6,25.4h5L685.7,65C689.8,64.1,692.9,61.9,695.1,59.3z M677.8,62.6h-11.3h-0.2V36.9h9.6c6.2,0,10.6,1,13.4,3.1
	c2.6,1.9,4.1,5.3,4.1,9.6s-1.4,7.4-4.1,9.6C686.9,61.7,682.8,62.6,677.8,62.6z"/>
<path class="st0" d="M734.9,65.3h17.3v19.9c-3.8,1.4-8.4,2.2-13.7,2.2c-8.4,0-14.6-2.2-18.7-6.5c-4.3-4.3-6.5-10.8-6.5-19.4
	c0-7.9,2.2-14.2,6.7-18.7c4.3-4.8,10.6-7,18.2-7c5.3,0,10.6,1.2,15.6,3.6l1.7-3.6c-5-2.2-10.8-3.6-17-3.6c-6,0-11,1.2-15.6,3.6
	s-7.9,6-10.6,10.6c-2.4,4.6-3.6,9.6-3.6,15.4c0,9.4,2.4,16.6,7.2,21.6c4.8,5,12,7.7,21.1,7.7c7,0,13.4-1,19-3.6V61.4h-21.4
	L734.9,65.3z"/>
<polygon class="st0" points="801.7,33.1 784.4,64.8 767.1,33.1 762.3,33.1 782,69.1 782,91.2 786.3,91.2 786.3,68.6 806,33.1 "/>
<path class="st0" d="M349.2,230.5v3.5c0,16.9,7.4,25.5,22.8,25.5c14,0,21-9.9,21-20.2c0-14.6-7.4-21-19.8-24.7l-15.2-5.3
	c-20.2-7.8-29-18.3-29-38.1c0-25.3,17.1-39.3,43.2-39.3c35.6,0,39.3,22.2,39.3,36.6v3.1h-22.2v-2.9c0-12.6-5.6-20-19.5-20
	c-9.5,0-18.7,5.3-18.7,20c0,11.9,6,17.9,20.8,23.5l15,5.4c19.6,7,28.2,17.7,28.2,36.8c0,29.6-17.9,41.8-45.9,41.8
	c-34.4,0-42.2-23-42.2-42.4v-3.3H349.2z"/>
<path class="st0" d="M433,134.7h75.1v18.7h-52.9v38.5H505v18.7h-49.8v44.3h54.5v18.7H433V134.7z"/>
<path class="st0" d="M560.6,134.7H589l36.6,138.9h-23.1l-8.6-34h-40.7l-8.9,34h-23.1L560.6,134.7z M590.2,221.8l-15.9-68.5h-0.4
	l-16.5,68.5H590.2z"/>
<path class="st0" d="M639.2,134.7h44c26.6,0,38.3,16.7,38.3,40.5c0,24.9-14.6,41-40.7,41h-19.5v57.4h-22.2V134.7z M661.4,199.4h15.8
	c11.9,0,22.2-6.4,22.2-23.9c0-15-6-24.1-23.7-24.1h-14.2V199.4z"/>
<path class="st0" d="M755.5,134.7h28.4l36.6,138.9h-23.1l-8.6-34h-40.7l-8.9,34H716L755.5,134.7z M785.1,221.8l-15.9-68.5h-0.4
	l-16.5,68.5H785.1z"/>
<path class="st0" d="M842.3,153.3h-33.1v-18.7h87.7v18.7h-32.5v120.2h-22.2V153.3z"/>
<path class="st0" d="M913.5,134.7h22.2v55.6h40.8v-55.6h22.2v138.9h-22.2V209h-40.8v64.6h-22.2V134.7z"/>
<polygon class="st0" points="338.6,56.1 326.6,56.1 326.6,91.2 361.9,91.2 361.9,79.7 338.6,79.7 "/>
<polygon class="st0" points="326.6,50.1 338.4,50.1 338.4,44.4 373.7,44.4 373.7,79.7 367.9,79.7 367.9,91.2 385.4,91.2 385.4,32.6 
	326.6,32.6 "/>
<g>
	<path class="st0" d="M105.9,123c0.3,0.1,0.7,0.1,1,0.2c0.9,0.2,1.7,0.3,2.6,0.5c0.6,0.1,1.2,0.2,1.8,0.3c0.4,0.1,0.9,0.1,1.3,0.2
		c1.1-0.8,2.2-1.5,3.3-2.3c0.1-0.1,0.2-0.2,0.4-0.2c0.4-0.3,0.9-0.6,1.3-0.9c0.2-0.1,0.4-0.3,0.6-0.4c0.4-0.3,0.8-0.5,1.2-0.8
		c0.3-0.2,0.5-0.3,0.8-0.5c0.4-0.2,0.8-0.5,1.1-0.7c0.3-0.2,0.6-0.4,0.8-0.5c0.4-0.2,0.7-0.5,1.1-0.7c0.3-0.2,0.6-0.4,0.9-0.6
		c0.4-0.2,0.7-0.4,1.1-0.7c0.3-0.2,0.6-0.4,1-0.6c0.4-0.2,0.7-0.4,1.1-0.6c0.3-0.2,0.7-0.4,1-0.6c0.4-0.2,0.7-0.4,1.1-0.6
		c0.3-0.2,0.7-0.4,1-0.6c0.4-0.2,0.7-0.4,1.1-0.6c0.4-0.2,0.7-0.4,1.1-0.6c0.4-0.2,0.7-0.4,1.1-0.6c0.4-0.2,0.7-0.4,1.1-0.6
		c0.4-0.2,0.7-0.4,1.1-0.6c0.4-0.2,0.8-0.4,1.2-0.6c0.4-0.2,0.8-0.4,1.1-0.6c0.4-0.2,0.8-0.4,1.2-0.6c0.4-0.2,0.8-0.4,1.2-0.5
		c0.4-0.2,0.8-0.4,1.2-0.6c0.4-0.2,0.8-0.3,1.2-0.5c0.4-0.2,0.8-0.4,1.3-0.5c0.4-0.2,0.8-0.3,1.2-0.5c0.4-0.2,0.9-0.3,1.3-0.5
		c0.4-0.2,0.8-0.3,1.2-0.5c0.4-0.2,0.9-0.3,1.4-0.5c0.4-0.2,0.8-0.3,1.3-0.5c0.5-0.2,0.9-0.3,1.4-0.5c0.4-0.1,0.9-0.3,1.3-0.4
		c0.5-0.2,1-0.3,1.4-0.5c0.4-0.1,0.9-0.3,1.3-0.4c0.5-0.1,1-0.3,1.5-0.4c0.5-0.1,0.9-0.3,1.4-0.4c0.5-0.1,1-0.3,1.5-0.4
		c0.5-0.1,0.9-0.2,1.4-0.4c0.5-0.1,1.1-0.2,1.6-0.4c0.5-0.1,1-0.2,1.4-0.3c0.5-0.1,1.1-0.2,1.7-0.3c0.5-0.1,1-0.2,1.5-0.3
		c0.6-0.1,1.1-0.2,1.7-0.3c0.5-0.1,1-0.2,1.5-0.3c0.6-0.1,1.2-0.2,1.8-0.3c0.5-0.1,1-0.2,1.5-0.2c0.6-0.1,1.2-0.2,1.9-0.2
		c0.5-0.1,1-0.1,1.5-0.2c0.6-0.1,1.3-0.1,2-0.2c0.5-0.1,1-0.1,1.6-0.2c0.7-0.1,1.4-0.1,2.1-0.2c0.5,0,1-0.1,1.6-0.1
		c0.7-0.1,1.5-0.1,2.3-0.1c0.5,0,1-0.1,1.5-0.1c0.8,0,1.7-0.1,2.6-0.1c0.4,0,0.9,0,1.3,0c1.3,0,2.6,0,4,0c0.7,0,1.5,0,2.2,0
		c0.3,0,0.5,0,0.8,0c0.5,0,1,0,1.5,0c0.3,0,0.6,0,1,0c0.5,0,0.9,0,1.4,0.1c0.3,0,0.7,0,1,0c0.2,0,0.3,0,0.5,0
		c0.9-0.6,1.8-1.2,2.8-1.8c0,0,0.1-0.1,0.1-0.1c0.4-0.3,0.9-0.5,1.3-0.8c0.1-0.1,0.2-0.1,0.3-0.2c0.4-0.2,0.7-0.4,1.1-0.7
		c0.2-0.1,0.3-0.2,0.5-0.3c0.3-0.2,0.7-0.4,1-0.6c0.2-0.1,0.4-0.2,0.5-0.3c0.3-0.2,0.6-0.4,1-0.5c0.2-0.1,0.4-0.2,0.6-0.3
		c0.3-0.2,0.6-0.3,0.9-0.5c0.2-0.1,0.4-0.2,0.7-0.4c0.3-0.2,0.6-0.3,0.9-0.5c0.2-0.1,0.5-0.2,0.7-0.4c0.3-0.2,0.6-0.3,0.9-0.5
		c0.2-0.1,0.5-0.2,0.7-0.4c0.3-0.1,0.6-0.3,0.9-0.4c0.3-0.1,0.5-0.2,0.8-0.4c0.3-0.1,0.6-0.3,0.9-0.4c0.3-0.1,0.5-0.2,0.8-0.4
		c0.3-0.1,0.6-0.3,0.9-0.4c0.3-0.1,0.5-0.2,0.8-0.3c0.3-0.1,0.6-0.3,1-0.4c0.3-0.1,0.6-0.2,0.8-0.3c0.3-0.1,0.7-0.3,1-0.4
		c0.3-0.1,0.6-0.2,0.9-0.3c0.3-0.1,0.7-0.3,1-0.4c0.3-0.1,0.6-0.2,0.9-0.3c0.3-0.1,0.7-0.2,1-0.4c0.3-0.1,0.6-0.2,0.9-0.3
		c0.4-0.1,0.7-0.2,1.1-0.3c0.3-0.1,0.6-0.2,0.9-0.3c0.4-0.1,0.7-0.2,1.1-0.3c0.3-0.1,0.6-0.2,1-0.3c0.4-0.1,0.7-0.2,1.1-0.3
		c0.3-0.1,0.7-0.2,1-0.3c0.4-0.1,0.8-0.2,1.1-0.3c0.3-0.1,0.7-0.2,1-0.2c0.4-0.1,0.8-0.2,1.2-0.3c0.3-0.1,0.7-0.2,1-0.2
		c0.4-0.1,0.8-0.2,1.2-0.2c0.4-0.1,0.7-0.1,1.1-0.2c0.4-0.1,0.8-0.2,1.3-0.2c0.4-0.1,0.7-0.1,1.1-0.2c0.4-0.1,0.9-0.1,1.3-0.2
		c0.4-0.1,0.7-0.1,1.1-0.2c0.4-0.1,0.9-0.1,1.3-0.2c0.4-0.1,0.8-0.1,1.1-0.2c0.5-0.1,0.9-0.1,1.4-0.2c0.4,0,0.8-0.1,1.2-0.1
		c0.5,0,1-0.1,1.5-0.1c0.4,0,0.8-0.1,1.2-0.1c0.5,0,1-0.1,1.5-0.1c0.4,0,0.8-0.1,1.2-0.1c0.5,0,1.1-0.1,1.7-0.1c0.4,0,0.7,0,1.1-0.1
		c0.6,0,1.3,0,1.9-0.1c0.3,0,0.6,0,1,0c1,0,1.9,0,2.9,0c0.5,0,1.3,0,2.3,0c-24.9-43.2-71.6-72.3-125-72.3C91,5.7,43.5,36.1,19,80.9
		c19.4,4.4,32.3,13.2,44.8,21.7C76.1,111.1,87.9,119.2,105.9,123z"/>
	<path class="st0" d="M31.9,154.2c0.4,0,0.7,0,1.1,0c0.8,0,1.5,0,2.3-0.1c0.4,0,0.9,0,1.3-0.1c0.7,0,1.4-0.1,2.1-0.1
		c0.4,0,0.9-0.1,1.3-0.1c0.7,0,1.3-0.1,2-0.2c0.4,0,0.8-0.1,1.2-0.1c0.7-0.1,1.4-0.1,2-0.2c0.4,0,0.7-0.1,1.1-0.1
		c0.9-0.1,1.7-0.2,2.6-0.3c0.1,0,0.3,0,0.4-0.1c1-0.1,1.9-0.3,2.9-0.4c0.3,0,0.6-0.1,0.9-0.2c0.6-0.1,1.3-0.2,1.9-0.3
		c0.4-0.1,0.7-0.1,1.1-0.2c0.6-0.1,1.1-0.2,1.7-0.3c0.4-0.1,0.7-0.2,1.1-0.2c0.5-0.1,1.1-0.2,1.6-0.4c0.4-0.1,0.7-0.2,1.1-0.3
		c0.5-0.1,1.1-0.3,1.6-0.4c0.3-0.1,0.6-0.2,0.9-0.2c0.6-0.2,1.3-0.4,1.9-0.5c0.2-0.1,0.4-0.1,0.6-0.2c0.8-0.2,1.6-0.5,2.4-0.8
		c0.2-0.1,0.5-0.2,0.7-0.2c0.6-0.2,1.1-0.4,1.6-0.6c0.3-0.1,0.6-0.2,0.9-0.3c0.5-0.2,1-0.3,1.4-0.5c0.3-0.1,0.6-0.2,0.9-0.4
		c0.5-0.2,0.9-0.4,1.4-0.5c0.3-0.1,0.6-0.2,0.9-0.4c0.5-0.2,0.9-0.4,1.4-0.6c0.3-0.1,0.6-0.2,0.8-0.4c0.5-0.2,1-0.5,1.6-0.7
		c0.2-0.1,0.4-0.2,0.6-0.3c0.7-0.3,1.4-0.7,2.1-1c0.2-0.1,0.4-0.2,0.6-0.3c0.5-0.3,1-0.5,1.5-0.8c0.3-0.1,0.5-0.3,0.8-0.4
		c0.4-0.2,0.8-0.4,1.3-0.7c0.3-0.1,0.5-0.3,0.8-0.4c0.4-0.2,0.8-0.4,1.2-0.7c0.3-0.1,0.5-0.3,0.8-0.4c0.4-0.2,0.8-0.5,1.2-0.7
		c0.2-0.1,0.5-0.3,0.7-0.4c0.5-0.3,0.9-0.5,1.4-0.8c0.2-0.1,0.4-0.2,0.6-0.3c0.6-0.4,1.3-0.8,1.9-1.2c0.1-0.1,0.3-0.2,0.4-0.3
		c0.5-0.3,1-0.6,1.5-0.9c0.2-0.1,0.5-0.3,0.7-0.4c0.4-0.3,0.8-0.5,1.2-0.8c0.2-0.2,0.5-0.3,0.7-0.5c0.2-0.1,0.4-0.3,0.6-0.4
		c0,0,0,0,0,0c-18.6-4.5-31.8-13-44.5-21.3c-12.8-8.3-24.9-16.1-42.3-20.1C5.9,108.8,1.3,128.9,1.3,150c0,0.5,0,1.1,0,1.6
		c8,1.3,18.8,2.6,27,2.6C29.5,154.2,30.7,154.2,31.9,154.2z"/>
	<path class="st0" d="M273.3,88.2c-1.6-0.1-3.2-0.1-5-0.1c-1.2,0-2.3,0-3.4,0c-0.3,0-0.6,0-0.9,0c-0.9,0-1.9,0.1-2.8,0.1
		c-0.2,0-0.4,0-0.6,0c-1.1,0.1-2.1,0.1-3.1,0.2c-0.3,0-0.5,0-0.8,0.1c-0.8,0.1-1.6,0.2-2.4,0.2c-0.2,0-0.5,0.1-0.7,0.1
		c-1,0.1-1.9,0.2-2.9,0.4c-0.2,0-0.4,0.1-0.5,0.1c-0.8,0.1-1.6,0.2-2.3,0.4c-0.2,0-0.5,0.1-0.7,0.1c-0.9,0.2-1.8,0.3-2.7,0.5
		c0,0-0.1,0-0.1,0c-0.8,0.2-1.7,0.4-2.5,0.6c-0.2,0.1-0.5,0.1-0.7,0.2c-0.7,0.2-1.4,0.4-2.1,0.6c-0.1,0-0.3,0.1-0.4,0.1
		c-0.8,0.2-1.6,0.5-2.4,0.7c-0.2,0.1-0.4,0.1-0.6,0.2c-0.6,0.2-1.2,0.4-1.8,0.6c-0.2,0.1-0.4,0.1-0.5,0.2c-0.7,0.3-1.5,0.5-2.2,0.8
		c-0.2,0.1-0.3,0.1-0.4,0.2c-0.6,0.2-1.2,0.5-1.7,0.7c-0.2,0.1-0.4,0.2-0.6,0.2c-0.7,0.3-1.4,0.6-2,0.9c-0.1,0-0.1,0.1-0.2,0.1
		c-0.6,0.3-1.2,0.6-1.8,0.9c-0.2,0.1-0.4,0.2-0.6,0.3c-0.6,0.3-1.1,0.5-1.6,0.8c0,0-0.1,0-0.1,0c26.2,4.2,43.1,14.9,59,25.7
		c2.5,1.7,5,3.4,7.5,5c-2.1-14.5-6.4-28.3-12.4-41.1C275.1,88.1,274.2,88.1,273.3,88.2L273.3,88.2z"/>
	<path class="st0" d="M278.4,134.5c-1-0.7-2.1-1.4-3.1-2.1c-18.1-12-39.1-23.9-69-25.6l0,0c-2.6-0.2-5-0.2-7.2-0.3
		c-0.7,0-1.5,0-2.2,0c-39.9,0-60,13.3-79.2,26.5l-1.8,1.2l-0.7,0.5h0c-21.3,14.6-43.3,29.6-86.8,29.6c-9.5,0-18.2-0.7-26.5-2.1
		c0.5,5.6,1.5,11.5,1.5,11.5c9.7-1.6,20.1-2.4,31.1-2.4c1.5,0,2.9,0,4.4,0c0.5,0,1,0,1.4,0c1,0,1.9,0,2.8,0.1c0.6,0,1.1,0.1,1.7,0.1
		c0.8,0,1.7,0.1,2.5,0.1c0.6,0,1.2,0.1,1.7,0.1c0.8,0.1,1.5,0.1,2.3,0.2c0.6,0,1.2,0.1,1.8,0.2c0.7,0.1,1.5,0.1,2.2,0.2
		c0.6,0.1,1.2,0.1,1.8,0.2c0.7,0.1,1.4,0.2,2.1,0.2c0.6,0.1,1.2,0.2,1.7,0.2c0.7,0.1,1.3,0.2,2,0.3c0.6,0.1,1.1,0.2,1.7,0.3
		c0.6,0.1,1.3,0.2,1.9,0.3c0.6,0.1,1.1,0.2,1.7,0.3c0.6,0.1,1.2,0.2,1.8,0.3c0.6,0.1,1.1,0.2,1.7,0.3c0.6,0.1,1.2,0.2,1.8,0.4
		c0.5,0.1,1.1,0.2,1.6,0.4c0.6,0.1,1.2,0.3,1.7,0.4c0.5,0.1,1.1,0.3,1.6,0.4c0.6,0.1,1.1,0.3,1.7,0.4c0.5,0.1,1,0.3,1.5,0.4
		c0.5,0.1,1.1,0.3,1.6,0.4c0.5,0.1,1,0.3,1.5,0.4c0.5,0.2,1.1,0.3,1.6,0.5c0.5,0.2,1,0.3,1.5,0.5c0.5,0.2,1,0.3,1.5,0.5
		c0.5,0.2,1,0.3,1.4,0.5c0.5,0.2,1,0.3,1.5,0.5c0.5,0.2,0.9,0.3,1.4,0.5c0.5,0.2,1,0.4,1.5,0.5c0.5,0.2,0.9,0.3,1.4,0.5
		c0.5,0.2,0.9,0.4,1.4,0.6c0.4,0.2,0.9,0.4,1.3,0.5c0.5,0.2,0.9,0.4,1.4,0.6c0.4,0.2,0.9,0.4,1.3,0.5c0.5,0.2,0.9,0.4,1.4,0.6
		c0.4,0.2,0.8,0.4,1.2,0.6c0.4,0.2,0.9,0.4,1.3,0.6c0.4,0.2,0.8,0.4,1.2,0.6c0.4,0.2,0.9,0.4,1.3,0.6c0.4,0.2,0.8,0.4,1.2,0.6
		c0.4,0.2,0.9,0.4,1.3,0.7c0.4,0.2,0.8,0.4,1.1,0.6c0.4,0.2,0.9,0.5,1.3,0.7c0.4,0.2,0.7,0.4,1.1,0.6c0.4,0.2,0.9,0.5,1.3,0.7
		c0.3,0.2,0.7,0.4,1,0.6c0.5,0.3,0.9,0.5,1.4,0.8c0.3,0.2,0.6,0.3,0.9,0.5c0.6,0.3,1.2,0.7,1.8,1c0.2,0.1,0.4,0.2,0.6,0.3
		c0.7,0.4,1.4,0.8,2,1.2c0.3,0.2,0.5,0.3,0.8,0.5c0.4,0.3,0.9,0.6,1.3,0.8c0.3,0.2,0.6,0.4,0.8,0.5c0.4,0.3,0.8,0.5,1.3,0.8
		c0.3,0.2,0.6,0.4,0.8,0.5c0.3,0.2,0.7,0.4,1,0.7c0.2-0.1,0.4-0.2,0.6-0.3c0.4-0.2,0.9-0.4,1.3-0.7c0.6-0.3,1.2-0.6,1.9-1
		c0.4-0.2,0.9-0.5,1.3-0.7c0.6-0.3,1.2-0.6,1.8-1c0.4-0.2,0.9-0.5,1.3-0.8c0.6-0.3,1.1-0.7,1.7-1c0.4-0.3,0.8-0.5,1.3-0.8
		c0.6-0.4,1.1-0.7,1.7-1.1c0.4-0.3,0.8-0.5,1.2-0.8c0.6-0.4,1.2-0.8,1.8-1.2c0.4-0.2,0.7-0.5,1.1-0.7c0.7-0.4,1.3-0.9,2-1.3
		c0.3-0.2,0.6-0.4,0.9-0.6c0.9-0.6,1.9-1.3,2.8-1.9c17.6-12.1,35.9-24.6,72-24.6c31.1,0,49,9.4,63.2,18.7c2-9.5,3.1-19.4,3.1-29.5
		c0-2.6-0.1-5.2-0.2-7.8c-1.1-0.7-2.2-1.5-3.3-2.3C283.6,138.1,281,136.3,278.4,134.5z"/>
	<path class="st0" d="M157.3,193.7c-0.9,0.6-1.8,1.2-2.6,1.8c-0.2,0.2-0.5,0.3-0.7,0.5c-0.8,0.5-1.5,1-2.3,1.5
		c-0.2,0.1-0.4,0.3-0.7,0.4c-0.9,0.6-1.9,1.3-2.9,1.9c-0.1,0.1-0.3,0.2-0.4,0.3c-0.8,0.5-1.6,1-2.5,1.6c-0.3,0.2-0.6,0.3-0.8,0.5
		c-0.8,0.5-1.6,1-2.5,1.5c-0.2,0.1-0.4,0.2-0.6,0.3c-0.9,0.5-1.8,1-2.7,1.5c1.3,0.9,2.5,1.7,3.8,2.6c19,13,37.2,25.5,64.8,31.5
		c10.8,2.3,23.1,3.7,37.5,3.7c1.1,0,4.8-0.3,7.6-0.5c1.5-0.1,2.9-0.2,4.1-0.3c12.5-15,22-32.5,27.7-51.7
		c-15.1-9.8-33.5-19.8-60.4-19.8C190.6,170.9,174.4,182,157.3,193.7z"/>
	<path class="st0" d="M136.7,216.4c-3.5-2.4-7.2-4.9-10.8-7.3c-21.3-14.1-46-27.8-91.4-27.8c-10.3,0-20.1,0.7-29.2,2.2
		c5.9,25,18.4,47.5,35.4,65.6c0.4-0.2,0.8-0.4,1.1-0.6l0-0.1c11.4-6.5,27.9-13.9,55.4-13.9c15.1,0,27.1,2.2,37.3,5.6
		c15.9,5.2,28.3,13.2,40.6,21.1c11.1,7.2,21.7,14,34.4,18.3c13.6-6.7,26.1-15.6,36.9-26.1c-0.5,0-1.1,0-1.6,0
		C190.6,253.3,163.2,234.5,136.7,216.4z"/>
	<path class="st0" d="M135,250.8c-10.6-3.9-22.8-6.4-37.7-6.4c-16.9,0-33.4,4-49,12c25.7,23.5,59.9,37.9,97.4,37.9
		c17.7,0,34.6-3.2,50.3-9c-12.9-4.8-22.8-11.5-32.3-18.1C154.6,261,145.9,255.1,135,250.8z"/>
</g>
</svg>
