<?xml version="1.0" encoding="utf-8"?>
<!-- Generator: Adobe Illustrator 25.1.0, SVG Export Plug-In . SVG Version: 6.00 Build 0)  -->
<svg version="1.1" xmlns="http://www.w3.org/2000/svg" xmlns:xlink="http://www.w3.org/1999/xlink" x="0px" y="0px"
	 viewBox="0 0 1000 450" style="enable-background:new 0 0 1000 450;" xml:space="preserve">
<style type="text/css">
	.st0{fill:none;}
	.st1{fill:#050505;}
	.st2{fill:#ED4024;}
	.st3{fill:#BA1C0C;}
	.st4{fill:#515151;}
	.st5{fill:#666666;}
	.st6{fill:#60605E;}
	.st7{fill:#9B9B9B;}
	.st8{fill:#FFCC04;}
	.st9{fill:#EF8B22;}
	.st10{fill:#CECDCC;}
	.st11{fill:#EFEFEF;}
	.st12{fill:#FFFFFF;}
	.st13{fill:#DB6414;}
	.st14{fill:#009ADE;}
	.st15{fill:#003764;}
	.st16{opacity:0.8;fill:#050505;}
	.st17{opacity:0.8;fill:#FFFFFF;}
</style>
<g id="Layer_2">
</g>
<g id="Layer_1">
	<polygon class="st0" points="519.7,396.1 532.9,404.7 555.6,393 555.6,308.4 519.7,308.4 	"/>
	<polygon class="st0" points="412,365.3 442.4,357.8 442.4,308.4 412,308.4 	"/>
	<polygon class="st0" points="714.1,231.1 742.6,238.2 750.2,233.5 750.2,140.3 714.1,140.3 	"/>
	<polygon class="st0" points="902.6,352.9 933.1,345.7 933.1,308.4 902.6,308.4 	"/>
	<polygon class="st12" points="412.2,195.2 456.6,195.2 456.6,171.6 412.2,171.6 412.2,141.6 460.5,141.6 460.5,118 387.1,118 
		387.1,256.9 387.1,257 412.2,257 	"/>
	<path class="st12" d="M503,256.9h56.9v-23.4h-44.4V118h-25.1v126.3c0,1.1,0.2,2.5,0.7,4c0.5,1.5,1.2,2.8,2.3,4.2
		c1.1,1.3,2.4,2.4,3.9,3.3C498.7,256.6,500.7,257.1,503,256.9z"/>
	<path class="st12" d="M658.2,233.4h-48.3v-38.2h44.4v-23.6h-44.4v-30h48.3V118h-73.4v126.2c0,1.1,0.2,2.4,0.6,4
		c0.5,1.4,1.2,2.8,2.3,4.1c1.1,1.3,2.4,2.4,3.9,3.3c1.5,0.9,3.5,1.4,5.9,1.4h60.8V233.4z"/>
	<path class="st12" d="M763.5,118l-74.4,1v137.9h20.7l2-6l29.4,9c1.3,0.2,2.4,0.4,3.5,0.4c3.7,0,6.6-0.7,8.4-1.8l16.9-10.3
		c1.7-1.1,3-2.5,4-4.3c1-1.8,1.5-3.8,1.5-6V129c0-2.6-1-5-3-7.5C770.3,119.2,767.4,118,763.5,118z M750.2,233.5l-7.6,4.6l-28.5-7.1
		v-90.7h36.1V233.5z"/>
	<path class="st12" d="M891.8,228.9v-57.3h-44.6v22h19.5v31l-20.4,11.5l-13-8.5v-87.1h33.5v17.2h22.6l2-39.6h-70.6
		c-2.4-0.2-4.3,0.2-5.9,1.1s-2.8,2-3.9,3.3c-1.1,1.3-1.8,2.7-2.3,4.2c-0.4,1.5-0.7,2.8-0.7,4v100.7c0,2.2,0.5,4.2,1.5,6
		c1,1.9,2.3,3.3,4,4.3l26.4,17.4c1.5,0.9,3.4,1.4,5.9,1.4c1.8,0,3.7-0.5,5.6-1.4l34.1-19.5C889.4,237.5,891.4,233.9,891.8,228.9z"/>
	<path class="st12" d="M998.4,141.6V118H925v126.2c0,1.1,0.2,2.4,0.6,4c0.5,1.4,1.2,2.8,2.3,4.1c1.1,1.3,2.4,2.4,3.9,3.3
		c1.5,0.9,3.5,1.4,5.9,1.4h60.8v-23.6h-48.3v-38.2h44.4v-23.6h-44.4v-30H998.4z"/>
	<path class="st12" d="M464.8,290.5c-1-1.3-2.4-2.4-3.9-3.3c-1.6-0.9-3.5-1.4-5.9-1.4l-68.3,1v139H412v-35.5l43-9.2
		c4.6-0.8,7.9-2.6,9.8-5.3c2-2.7,2.9-5.2,2.9-7.5v-69.7c0-1.2-0.2-2.5-0.7-3.9C466.6,293.2,465.8,291.8,464.8,290.5z M442.4,357.8
		l-30.4,7.5v-56.9h30.4V357.8z"/>
	<path class="st12" d="M581,298.6c0-1.2-0.2-2.5-0.7-3.9c-0.5-1.4-1.2-2.8-2.3-4.1c-1-1.3-2.4-2.4-3.9-3.3c-1.6-0.9-3.5-1.4-5.9-1.4
		h-61c-2.4,0-4.3,0.5-5.9,1.4c-1.6,0.9-2.9,2-3.9,3.3c-1,1.3-1.8,2.7-2.3,4.1c-0.5,1.4-0.7,2.7-0.7,3.9v101.3c0,2.2,0.5,4.3,1.5,6.1
		c1,1.8,2.3,3.3,4,4.3l26.7,17.5c1.4,0.9,3.4,1.4,5.9,1.4c1.8,0,3.7-0.5,5.7-1.4l35.1-18.6c1.8-1,3.6-2.6,5.3-4.5
		c1.7-2,2.5-4.3,2.4-7.1V298.6z M555.6,393l-22.8,11.8l-13.2-8.6v-87.7h35.9V393z"/>
	<path class="st12" d="M746.2,285.8h-25.3v109.9l-15.1,9l-15.1-9V285.8h-25.3v109.9l-15.1,9l-15.1-9V285.8h-25.3v113.6
		c0,2.2,0.5,4.3,1.5,6.1c1,1.8,2.3,3.3,4,4.3l28.7,17.9c1.3,0.9,3.4,1.4,6.3,1.4c1.6,0,3.3-0.5,5.3-1.4l22.8-13.2l21.2,13.2
		c1.3,0.9,3.4,1.4,6.3,1.4c1.6,0,3.3-0.5,5.3-1.4l27.5-15.9c1.8-1,3.6-2.6,5.3-4.5c1.7-2,2.5-4.3,2.4-7.1V285.8z"/>
	<path class="st12" d="M776.2,413c0,1.2,0.2,2.5,0.7,3.9c0.5,1.4,1.2,2.8,2.3,4.1c1,1.3,2.4,2.4,3.9,3.3c1.6,0.9,3.5,1.4,5.9,1.4
		h61.2V402h-48.7v-38.5h44.8v-23.7h-44.8v-30.2h48.7v-23.7h-74V413z"/>
	<path class="st12" d="M955.4,290.5c-1-1.3-2.4-2.4-3.9-3.3c-1.6-0.9-3.5-1.4-5.9-1.4l-68.3,1v139h25.3v-51.5l10.3-2.3l20.1,24.2
		l1,29.6h23.4l-1-34.3c-0.3-4.8-2-9-5.3-12.6l-12.4-13.1l6.9-1.6c4.4-1,7.7-2.9,9.7-5.7c2-2.7,3-5.2,3-7.5v-52.4
		c0-1.2-0.2-2.5-0.7-3.9C957.2,293.2,956.5,291.8,955.4,290.5z M933.1,345.7l-30.4,7.3v-44.6h30.4V345.7z"/>
	<polygon class="st17" points="422.3,68.2 399.1,68.2 399.1,44.9 387.3,44.9 387.3,79.8 422.3,79.8 	"/>
	<polygon class="st12" points="398.9,33.3 434,33.3 434,68.2 428.2,68.2 428.2,79.8 445.6,79.8 445.6,21.5 387.3,21.5 387.3,39 
		398.9,39 	"/>
	<polygon class="st12" points="504.4,65.1 478.9,65.1 478.9,22.1 461.2,22.1 461.2,79.8 504.4,79.8 	"/>
	<polygon class="st12" points="529.9,57.8 552.9,57.8 552.9,44.1 529.9,44.1 529.9,36.9 556.7,36.9 556.7,22.1 512.1,22.1 
		512.1,79.8 529.9,79.8 	"/>
	<polygon class="st12" points="602.5,76.5 574.5,76.5 574.5,51.5 601,51.5 601,47.7 574.5,47.7 574.5,25.7 602.5,25.7 602.5,22 
		570.3,22 570.3,80.1 602.5,80.1 	"/>
	<path class="st12" d="M619.8,42.3c0-3.2-0.2-7.7-0.5-13.9h0.2l35,51.7h4.2h0.2V22h-4.1v38c0,4.2,0.2,8.7,0.5,13.6H655L620,22h-4.1
		v58h3.9V42.3z"/>
	<polygon class="st12" points="707.7,76.5 679.7,76.5 679.7,51.5 706.2,51.5 706.2,47.7 679.7,47.7 679.7,25.7 707.7,25.7 707.7,22 
		675.4,22 675.4,80.1 707.7,80.1 	"/>
	<path class="st12" d="M725.2,54.8l14.6,0.2L755,80.3h5l-16-26.5c4.2-1.1,7.4-3,9.5-5.7s3.2-6,3.2-9.9c0-5.4-1.8-9.3-5.3-12.1
		c-3.6-2.7-9-4.1-16.3-4.1h-14v58.2h4.1V54.8z M725,25.7h9.6c6.2,0,10.5,0.9,13.3,3c2.7,2,4.1,5.3,4.1,9.6c0,4.2-1.4,7.4-4.1,9.6
		c-2.7,2.3-6.6,3.3-11.6,3.3h-11.2H725V25.7z"/>
	<path class="st12" d="M795.1,79.5c6.9,0,13.3-1.1,18.8-3.5V50.2h-21.2l0.3,3.8h17.2v19.7c-3.8,1.5-8.3,2.3-13.6,2.3
		c-8.3,0-14.5-2.1-18.7-6.5c-4.2-4.4-6.3-10.7-6.3-19.3c0-7.8,2.3-14,6.6-18.7c4.4-4.7,10.4-6.9,18.1-6.9c5.3,0,10.5,1.2,15.5,3.5
		l1.7-3.6c-5.1-2.3-10.7-3.5-17-3.5c-5.9,0-11,1.2-15.5,3.6s-8,5.9-10.4,10.4s-3.6,9.5-3.6,15.4c0,9.3,2.4,16.4,7.2,21.5
		C779,77,786.1,79.5,795.1,79.5z"/>
	<polygon class="st12" points="839.9,79.7 844.1,79.7 844.1,57.4 863.7,22 859.3,22 842.1,53.6 824.9,22 820.3,22 839.9,57.8 	"/>
	<path class="st12" d="M300.5,205.4c-0.6-0.5-1.2-1-1.7-1.5l-0.6-0.5c-17.9-14.8-35.5-18.9-43.2-20c0.1-4.1,0.5-8,1.1-11.5
		c3.2,1.1,7.5,2.5,11.4,2.5c0.1,0,0.3,0,0.4,0l5.3-0.1L270,170c-0.5-0.6-1-1.3-1.4-2c-0.7-1.6-5.7-12.9-7.5-17.4
		c-1-4.6-1.6-7.9-1.8-9.8l0-0.2c0-0.2,0-0.4,0-0.6c0.3-7.7-0.8-17.4-3.2-26.5c-1.3-5.2-2.9-10-4.8-14.2c0.1-0.5,0.2-1,0.2-1.5
		c0-0.2,0-0.3,0-0.5l0-0.2c0-0.4,0-0.8,0-1.1c-0.2-5.9-1.2-12.9-2.7-19.1c-3.6-14.4-9.7-26.1-18.3-34.8c0.7-2.1,0.4-4.3-0.8-6
		c-2.9-4.5-8.7-7.9-12.8-9.5c-0.8-0.3-1.6-0.5-2.4-0.5c-1.5,0-2.9,0.5-4,1.3c-1.2-0.6-2.4-1.2-3.6-1.8c0.5-1.3,0.6-2.7,0.2-4.2
		c-0.4-1.9-1.6-3.5-3.3-4.3c-12.3-7.2-25.2-10.8-38.2-10.8c-13.1,0-26,3.6-38.4,10.9c-1.7,1.1-2.7,2.5-3.1,4.3
		c-0.3,1.4-0.2,2.8,0.2,4.2c-1.2,0.6-2.5,1.2-3.7,1.9c-1.1-0.9-2.5-1.4-4-1.4c-0.8,0-1.6,0.2-2.3,0.4c-4.1,1.6-9.9,5-12.8,9.5
		l-0.1,0.1c-1.1,1.8-1.3,3.9-0.7,5.9C92.2,50.9,85.9,62.9,82.6,77c-0.9,3.9-2.4,11.5-2.7,18.6c-0.1,0.4-0.1,0.7-0.1,1.1
		c-5.4,10.1-10.9,26.8-10.4,36.8c0.3,9.9-0.8,17.6-3.4,22.9c-0.8,1.6-2.1,3.7-3.3,5.6l1.4,1l0.2,0.4l0.2,0.3l-2-1.4
		c-2.2,3.2-3.5,4.4-3.8,4.6c0,0,0.1,0,0.1,0l0.8,5.2c0.3,0,0.7,0,1.1,0c1.7,0,4.1-0.1,6.6-0.3l4.4-0.5c0.6,4.7,1.3,8.7,2.3,12.2
		c-7.3,1-25.3,5-43.3,20l-0.6,0.5c-0.6,0.5-1.2,0.9-1.7,1.5c-1.2,1.1-2.4,2.2-3.8,3.5C-4.3,237,1.8,265,2.8,268.6
		c0.1,0.4,0.2,0.9,0.3,1.3c0.8,3.8,2.1,7.6,3.8,11.3c0.2,0.4,0.4,0.8,0.6,1.3l0.2,0.4c1.8,3.6,4.1,7.2,6.8,10.7
		c7.3,9.6,17.9,18.8,31.4,27.5c3.2,21,10.8,42.8,22.5,64.8c0.9,1.8,2.6,3.1,4.6,3.6c0.6,0.2,1.2,0.2,1.8,0.2c1.4,0,2.8-0.4,3.9-1.2
		c0.1-0.1,12.4-7.8,36-12c0.3,1.1,0.6,2.2,0.8,3.3l0.4,2.2c0.2,1.4,0.4,2.7,0.6,4.1c0.2,1.3,0.4,2.6,0.6,4c0,0,0.1,0.3,0.1,0.4l0,0
		c-0.1,0.7-0.1,1.3-0.2,2c-2.1,0.1-4,0.2-6,0.4c-6.8,0.4-12.5,1-18,1.7c-6,0.8-13,1.8-19.4,4c-5.1,1.8-12,4.9-13.8,11.6
		c-0.6,2.5-0.4,5.2,0.6,7.8c1.4,3.7,5.1,6.5,9.3,7.4c-0.4,2.6,0,5.3,1.4,7.6c2.3,3.9,6.3,6.2,11.1,6.2c2.6,0,5.3-0.7,7.6-2
		c0.4-0.2,0.8-0.5,1.2-0.7c0.4,1,0.9,1.9,1.6,2.7c2.1,2.7,5.4,4.2,9.1,4.2c1.2,0,2.4-0.2,3.6-0.5c1.3-0.3,2.6-1,3.9-1.8l0.1-0.1
		c2-1.6,3-3.5,3.9-5.2c0.6-1.1,1.1-2.1,1.8-2.9l0.1-0.1c0.3-0.3,0.6-0.8,1.4-2c1.6-2.3,4.3-6.2,7.1-9.6c3.7-4.6,7.3-7.7,9.1-9.1
		c1.1-0.9,1.5-1.3,1.8-2c0.9-2,1.1-5.2,1.1-10.2c0-0.7,0-1.4,0-2.1c0.7-0.7,1.2-1.5,1.5-2.4c1-2.9,2.6-5.5,4.6-7.8
		c0.4,0.3,0.8,0.7,1.2,1c5.3,4.6,11.5,9.1,18.5,13.6l0.1,0.1c4.8,3,9.8,5.8,13.8,5.8c0.7,0,1.3-0.1,1.9-0.2c2.1-0.5,4.6-1.8,6-5.1
		c3.7,1.6,7.2,3,10.5,4.1c0.2,1.5,0.4,2.5,0.8,3.4c0.3,0.7,0.7,1.1,1.8,2c1.7,1.5,5.4,4.6,9.1,9.2c2.8,3.3,5.4,7.2,7,9.5
		c0.8,1.2,1.1,1.7,1.4,2l0.1,0.1c0.7,0.8,1.3,1.8,1.8,2.9c0.9,1.7,1.9,3.6,3.9,5.2l0.1,0.1c1.2,0.9,2.6,1.5,3.9,1.8
		c1.2,0.3,2.4,0.5,3.6,0.5c3.7,0,7-1.5,9.2-4.2c0.6-0.8,1.1-1.7,1.5-2.7c0.3,0.3,0.7,0.5,1.1,0.7c2.4,1.3,5,2,7.6,2
		c4.8,0,8.9-2.3,11.1-6.2c1.4-2.3,1.8-5,1.4-7.7c4.2-0.9,7.8-3.7,9.3-7.4c1-2.6,1.2-5.3,0.6-7.8c-1.7-6.7-8.7-9.8-13.8-11.6
		c-5.3-1.8-11-2.8-16.3-3.6c0-0.1,0.1-0.2,0.1-0.3c0.6-1.6,0.7-3.4,0.2-5.1c8.9,1.4,17,2.1,24.4,2.1c46.3,0,50.6-26.7,50.8-27.9
		c0.4-2.5-0.6-5-2.6-6.6c-0.1-0.1-12.1-10.1-22.1-31.3c-1.1-2.3-2.1-4.7-3.1-7.2c11.8-8,21.1-16.4,27.7-25.1
		c2.7-3.5,4.9-7.1,6.8-10.8l0.2-0.4c0.2-0.4,0.4-0.8,0.6-1.3c1.7-3.7,3-7.5,3.8-11.3c0.1-0.4,0.2-0.9,0.3-1.3
		c0.9-3.6,7-31.6-21.6-59.7C303,207.6,301.8,206.5,300.5,205.4z M323.3,268c-0.1,0.4-0.2,0.9-0.3,1.3c-0.8,3.6-2,7.2-3.6,10.7
		c-0.2,0.5-0.4,0.9-0.6,1.3l-0.1,0.3c-1.8,3.5-4,6.9-6.5,10.3c-6.8,8.9-16.5,17.5-28.8,25.7c1.3,3.4,2.6,6.5,3.9,9.3
		c10.3,22,22.7,32.2,22.8,32.3c1.2,1,1.9,2.6,1.6,4.1c-0.1,1-4.1,25.5-48.1,25.5c0,0,0,0,0,0c-9,0-19.2-1-30.3-3.1
		c1.4,1.2,2.5,2.5,3.1,3.9c0.5,1.3,0.6,2.7,0.1,4c-0.7,1.8-2.3,2.8-4.1,3.2c1,0.1,2,0.2,3,0.4c6.1,0.8,12.8,1.8,18.8,3.8
		c4.7,1.7,10.6,4.4,12,9.7c0.5,2,0.3,4.2-0.5,6.1c-1.5,4-6.1,6.3-10.4,6c0.1,0.3,0.3,0.6,0.4,0.9c1,2.6,0.9,5.4-0.5,7.8
		c-3.1,5.4-10,6-15.1,3.2c-1.9-1-2.6-2.8-3.5-4.6c-0.1-0.1-0.3-0.5-0.4-0.8c-0.5-0.4-1.2-0.8-1.7-1.2c1.4,3.1,1.7,6.4-0.5,9.2
		c-2.4,3.1-6.4,3.7-10,2.8c-1-0.3-2-0.8-2.9-1.4c-2.7-2.2-3.2-5.4-5.4-7.8c-0.6-0.8-4.5-6.8-8.4-11.5c-5.2-6.5-10.4-10.1-10.5-10.5
		c-0.4-0.9-0.7-2.5-0.8-4.3c-5.1-1.5-10.1-3.6-14.8-5.8c-0.4,2.9-1.7,5.5-4.9,6.3c-3.7,1-10.6-3.3-13.7-5.2
		c-6.3-4-12.5-8.4-18.2-13.3c-1-0.9-2-1.8-3.1-2.7c-3.1,2.8-5.6,6.4-7.1,10.6c-0.3,0.8-0.9,1.5-1.6,2c-0.2,4.3,0,10.4-1,12.5
		c-0.1,0.4-5.2,4-10.5,10.5c-4,4.7-7.8,10.8-8.4,11.5c-2.2,2.4-2.7,5.6-5.4,7.8c-0.9,0.6-1.9,1.2-2.9,1.4c-3.6,0.9-7.6,0.3-10-2.8
		c-2.3-2.8-2-6.1-0.6-9.2c-0.5,0.4-1.2,0.8-1.7,1.2c-0.1,0.3-0.3,0.6-0.4,0.8c-0.9,1.8-1.5,3.6-3.5,4.6c-5.1,2.8-12,2.2-15.1-3.2
		c-1.4-2.4-1.5-5.2-0.5-7.8c0.1-0.3,0.3-0.6,0.4-0.9c-4.2,0.3-8.8-2-10.4-6c-0.8-1.9-1-4.1-0.5-6.1c1.4-5.4,7.3-8.1,12-9.7
		c6-2,12.7-3.1,18.8-3.8c5.9-0.8,11.8-1.3,17.8-1.7c2.2-0.1,4.4-0.3,6.7-0.4c0.5,0,1-0.1,1.5-0.1c0.1-0.5,0.1-1,0.3-1.4
		c0.2-1.1,0.3-2.2,0.4-3.2c0-0.3-0.1-0.5-0.1-0.8c-0.4-2.7-0.9-5.4-1.3-8.1c-0.1-0.8-0.3-1.5-0.4-2.3c-0.4-2-0.9-3.9-1.6-5.8
		c-25.9,4.1-39.2,12.6-39.4,12.7c-0.7,0.5-1.6,0.7-2.5,0.7c-0.4,0-0.8,0-1.1-0.1c-1.2-0.3-2.3-1.1-2.9-2.2
		c-11.8-22.3-19.3-44.1-22.4-65.1c0,0,0,0,0,0c-13.8-8.7-24.4-18-31.7-27.5c-2.6-3.4-4.7-6.8-6.5-10.3l-0.1-0.3
		c-0.2-0.4-0.4-0.9-0.6-1.3c-1.6-3.5-2.9-7.1-3.6-10.7c-0.1-0.4-0.2-0.9-0.3-1.3c-0.7-2.7-7.1-29.8,20.9-57.1
		c1.3-1.3,2.5-2.4,3.7-3.4c0.6-0.5,1.1-0.9,1.7-1.4l0.6-0.5c21.5-17.8,42.8-19.6,45-19.7c0-0.2,0-0.5,0-0.7
		c-1.7-5.1-2.6-10.6-3.3-16.7c-0.3,0-0.6,0-0.9,0l-5.7,2l-0.5-1.3c-2.8,0.2-5.6,0.4-7.2,0.3c1.2-0.4,3.1-2.8,5-5.5l0-0.1l-0.1,0
		c0,0,0.1-0.1,0.3-0.2c1.4-2,2.7-4.2,3.5-5.9c3.5-7,4-16.5,3.7-24.2c-0.4-9.3,4.8-25.8,10.4-36c0-0.5,0-0.9,0.1-1.4
		c0.2-6,1.4-12.8,2.6-18.4c3.1-13.1,9.2-25.6,18.9-34.8c-0.2-0.4-0.4-0.7-0.5-0.9c-0.6-1.4-0.5-2.9,0.3-4.2
		c2.4-3.7,7.6-6.9,11.5-8.4c1.8-0.7,3.8,0.1,4.8,1.8c2.6-1.5,5.2-2.8,7.9-4c-0.3-0.5-0.6-1.1-0.9-1.6c-0.5-1-0.6-2-0.4-3.2
		c0.3-1.2,0.9-1.9,1.9-2.6c23.9-14,49.9-14,73.8,0c1,0.5,1.7,1.4,1.9,2.6c0.3,1.2,0.1,2.2-0.4,3.2c-0.3,0.5-0.6,1.1-0.9,1.6
		c2.7,1.2,5.3,2.5,7.8,3.9c0.9-1.7,3.1-2.4,4.9-1.7c4,1.5,9.1,4.7,11.5,8.4c0.9,1.3,0.9,2.8,0.3,4.2c-0.1,0.2-0.3,0.5-0.5,0.9
		c9.7,9.2,15.6,21.7,18.9,34.8c1.4,5.7,2.5,12.6,2.7,18.7c0,0.3,0,0.6,0,0.9c0,0.2,0,0.5,0,0.7c0,0.6-0.1,1.2-0.3,1.7
		c2.1,4.5,3.8,9.5,5.1,14.7c2.3,9,3.4,18.4,3.1,25.7c0,0.4,0,0.7,0,1.1c0.3,2.3,1.1,6.2,1.9,10.4c1.8,4.8,4.5,9.7,7.1,13.6l0.6,0.9
		v3.5c0.5,0.7,1,1.5,1.7,2.3c-4.5,0.1-9.9-1.9-13-3.1l-0.8-0.1c-1.2,5.7-1.7,11.7-1.7,17.3c4.5,0.4,24.3,3.1,44.2,19.7l0.6,0.5
		c0.6,0.4,1.1,0.9,1.7,1.4c1.2,1,2.3,2.1,3.7,3.4C330.4,238.2,324,265.4,323.3,268z"/>
	<path class="st12" d="M279.4,320.2c-1.2,0.8-2.5,1.5-3.7,2.3c-7.8,4.6-16.2,9.1-25.9,13.5c-5.2,3.7-5.9,6.1-6,6.7
		c-0.1,0.8,0.3,1.4,1.1,2.5c0.4,0.4,0.7,0.9,1,1.5c0.2,0.2,0.5,0.7,0.8,1c2.7,3.4,6.7,8.5,4.5,13.1c-0.9,1.8-2.9,3.9-7.5,3.9
		c-2.1,0-4.7-0.4-8-1.2c-6.3-1.6-10.7-4.6-13.1-8.8c-0.5-0.9-0.9-1.9-1.2-3c-1.3,3-2.7,6.1-4,9.2c1.4,1.5,2.9,2.9,4.4,4.2
		c0.9,0.8,1.8,1.5,2.7,2.3c2.9,2.6,6.5,6.4,4.7,10.6c-0.3,0.9-1,1.7-1.7,2.3c74.9,15.9,79.7-17.4,79.7-17.4s-16-12.8-27.5-41.7
		C279.6,320.8,279.5,320.5,279.4,320.2z"/>
	<path class="st12" d="M112.4,362.8c-1.6-3.9-3.3-7.8-5.1-11.7c-0.3,1.2-0.8,2.3-1.3,3.3c-2.4,4.3-6.8,7.3-13.1,8.8
		c-1.7,0.4-3.2,0.7-4.6,0.9c-1.2,0.2-2.4,0.3-3.4,0.3c-4.7,0-6.7-2.1-7.5-3.9c-0.8-1.7-0.8-3.5-0.3-5.2c0.9-2.9,3.1-5.8,4.8-7.9
		c0.3-0.3,0.6-0.8,0.8-1c0.3-0.6,0.7-1,1-1.5c0.9-1.1,1.2-1.7,1.1-2.5c-0.1-0.6-0.8-3-6-6.7c-3.7-1.7-7.3-3.4-10.7-5.1
		c-5.3-2.7-10.2-5.4-14.9-8.1c3.1,18.2,9.8,38.2,21.3,59.9c0,0,13.6-8.9,40.4-13.3c-0.7-1.8-1.4-3.6-2.2-5.4
		C112.7,363.6,112.6,363.2,112.4,362.8z"/>
	<path class="st12" d="M307.7,283.2c-0.1-2.4-0.1-5.6-0.2-7.8c0-5.9-1.4-8.4-5.2-1.1c-10.3,20-18.1,25.9-12.8-4l0.5-3.3
		c-2.2,5.7-5.5,16.3-3.7,22.5c2.9,10.1,12.8-4.9,17.9-13.8c-0.2,4.9-0.2,13.7,3.2,13.7c0.4,0,0.7,0,1-0.1c0.6-0.8,1.1-1.5,1.7-2.3
		c0.5-0.8,1.1-1.6,1.6-2.4c1-1.6,1.9-3.2,2.8-4.9c0.3-0.5,0.5-1,0.7-1.5c1.1-2.4,2-4.8,2.7-7.3c0.2-0.8,0.4-1.7,0.6-2.5
		C314.6,278.5,308.3,292.4,307.7,283.2z"/>
	<path class="st12" d="M278,315.7l0.4-0.7c2.1-3.8,2.7-7.3-2.5-3.5c-16,12-24.6,14.3-8.1-7.3l1.8-2.4c-3.9,3.5-10.7,10.7-12,16.1
		c-2.2,8.9,11.1,0.9,18.3-4c-0.8,1.2-1.7,3-2.5,4.6C274.9,317.7,276.5,316.7,278,315.7z"/>
	<path class="st12" d="M297.4,217.7c1.6,4.5,2.6,9,2.2,12c-2.2-0.9-6.4-4.4-9-6.4c-4.9-4.1-7.3-3.8-4.1,3.6
		c8.6,19.9,8.1,29.3-11.9,6.6l-2.2-2.5c3,5.2,9.3,14.4,15.4,17c9.9,4.2,4.6-12.7,1-22c3.7,3.3,10.6,8.9,13.1,6.2
		c1.4-1.5,1.1-5.5,0.2-9.6c-0.4-1.5-0.8-3-1.3-4.5c-0.5-1.4-1-2.7-1.4-3.9c-1.1-1.1-2.3-2.2-3.5-3.3c-0.7-0.6-1.5-1.2-2.2-1.8
		c0.5,1,1.1,2.1,1.6,3.3C296,214,296.7,215.8,297.4,217.7z"/>
	<path class="st12" d="M239.5,309.7c14.9-21.4,24.2-24.1,23.1-38.2s-14.6-14.6-14.6-14.6c0.5,10.2-0.9,21-2.7,30.1
		c-1.2,6.7-2.9,13.2-4.9,19.7C239.9,308.6,239.5,309.7,239.5,309.7z"/>
	<path class="st12" d="M24.4,275.6c5.1,8.9,15.1,23.9,17.9,13.8c1.8-6.2-1.5-16.8-3.7-22.5l0.5,3.3c5.4,30-2.5,24.1-12.8,4
		c-3.8-7.3-5.2-4.8-5.2,1.1c0,2.2,0,5.4-0.2,7.8c-0.6,9.2-7-4.8-11-14.8c0.2,0.8,0.4,1.7,0.6,2.5c0.7,2.5,1.6,4.9,2.7,7.3
		c0.2,0.5,0.5,1,0.7,1.5c0.8,1.7,1.8,3.3,2.8,4.9c0.5,0.8,1,1.6,1.6,2.4s1.1,1.6,1.7,2.3c0.3,0.1,0.7,0.1,1,0.1
		C24.7,289.3,24.6,280.5,24.4,275.6z"/>
	<path class="st12" d="M52.8,313.9c7.2,4.9,20.6,12.9,18.3,4c-1.4-5.4-8.1-12.6-12-16.1l1.8,2.4c16.5,21.6,8,19.3-8.1,7.3
		c-5.2-3.9-4.6-0.4-2.5,3.5l0.4,0.7c1.5,1,3.1,1.9,4.6,2.8C54.5,316.9,53.5,315.2,52.8,313.9z"/>
	<path class="st12" d="M26.7,222.5c-1,4.2-1.3,8.1,0.2,9.6c2.5,2.6,9.3-3,13.1-6.2c-3.6,9.3-9,26.2,1,22c6.2-2.6,12.5-11.8,15.4-17
		l-2.2,2.5c-20,22.7-20.5,13.3-11.9-6.6c3.2-7.5,0.8-7.7-4.1-3.6c-2.6,2.1-6.8,5.5-9,6.4c-0.4-3,0.6-7.5,2.2-12
		c0.6-1.8,1.4-3.7,2.2-5.4c0.5-1.1,1-2.3,1.6-3.3c-0.7,0.6-1.5,1.2-2.2,1.8c-1.2,1.1-2.4,2.2-3.5,3.3c-0.5,1.2-1,2.5-1.4,3.9
		C27.5,219.5,27.1,221,26.7,222.5z"/>
	<path class="st12" d="M80.6,256.9c0,0-13.5,0.5-14.6,14.6c-1.1,14.1,8.2,16.8,23.1,38.2C89.2,309.7,79.5,281.7,80.6,256.9z"/>
	<path class="st12" d="M129.7,397.3l-1.5-0.4l-5.3-1.4c-0.5-0.1-0.9-0.3-1.3-0.5c-0.3,1.1-0.7,2.1-1,2.7c1.3,0.5,2.3,1.3,3.2,2
		c-0.9-0.2-2.1-0.4-3.6-0.5c0.7,0,1.4,0,2.3,0.1c-4.6-1.3-9.2-1-14-0.9c-10.4,0.4-30.4,1.1-39,9.3c-1.7,1.3-2.9,2.7-3.3,4.2
		c0,0,0-0.1-0.1-0.1c-0.3,1-0.3,2.2,0.3,3.5c1,2.3,3.8,3.6,6.3,3.5c1.2,0,2.3-0.3,3.1-1c2-1.7,2.9-4.5,4.4-4.9
		c1.8-0.5,3.5-0.9,5-1.3c9.4-2.3,14.8-3.4,17.4-3.9c1-0.2,1.5-0.3,1.8-0.3l0,0.1c-1.7,0.7-15.6,7.1-23.3,12.3
		c-3.5,2.4-4.8,4.9-4.9,7.1c0-0.1-0.1-0.1-0.1-0.2c-0.4,4.5,5,7.6,10.4,4.6c0.1-0.1,0.2-0.2,0.3-0.3c0.8-0.7,1.4-2.8,2.3-4.1
		c0.2-0.3,0.4-0.5,0.7-0.7c8.6-5.5,21.9-13.5,23.9-14.7c-1.8,1.9-9.8,10.1-14.5,15.9c-0.7,0.9-1.3,1.8-1.7,2.6c0,0,0-0.1,0-0.1
		c-0.8,1.6-0.9,3-0.5,4.1c0,0.1,0,0.1,0.1,0.2c0,0.1,0.1,0.2,0.1,0.3c0.1,0.1,0.1,0.3,0.2,0.4c0,0,0,0,0,0c0.9,1.3,2.8,2,5.1,1.7
		c0.3,0,0.5-0.1,0.8-0.2c0,0,0,0,0.1,0c1-0.2,1.7-0.8,2.3-1.5c0.2-0.3,0.4-0.6,0.6-1c0.2-0.3,0.4-0.7,0.6-1.1c0.7-1.4,1.5-3,2.9-4.5
		c0.2-0.2,0.3-0.4,0.5-0.6c2.6-3.2,6.6-10.1,11.9-14.8c0.4-0.3,0.8-0.7,1.2-1c1.8-1.4,3-2.6,3.9-3.8c0.2-0.3,0.4-0.5,0.6-0.8
		c0.9-1.3,1.2-2.4,1.3-3.5c0.1-0.4,0.1-0.8,0.1-1.2s0-0.7,0-1.1c0-0.4,0-0.7,0.1-1.1c0.1-1,0.3-2.1,0.4-3.3c0,0,0,0,0,0
		C129.8,397.3,129.8,397.3,129.7,397.3z"/>
	<path class="st12" d="M206.2,399.4c0.1,0,0.1,0,0.2,0c-0.6,0.1-1.1,0.2-1.6,0.3c0.9-0.8,1.9-1.5,3.2-2c-0.3-0.6-0.6-1.5-0.9-2.5
		c-0.3,0.2-0.6,0.3-1,0.4l-5.5,1.5l-1.3,0.3c-0.1,0-0.2,0-0.4,0.1c0,0,0,0,0,0c0.1,1.2,0.3,2.3,0.4,3.3c0,0.4,0.1,0.7,0.1,1.1
		c0,0.4,0,0.7,0,1.1s0,0.8,0.1,1.2c0.1,1,0.5,2.2,1.3,3.5c0.2,0.3,0.4,0.5,0.6,0.8c0.9,1.1,2.1,2.4,3.9,3.8c0.4,0.3,0.8,0.6,1.2,1
		c5.3,4.7,9.3,11.5,11.9,14.8c0.2,0.2,0.4,0.4,0.5,0.6c1.4,1.5,2.2,3.1,2.9,4.5c0.2,0.4,0.4,0.8,0.6,1.1c0.2,0.3,0.4,0.7,0.6,1
		c0.6,0.7,1.3,1.3,2.3,1.5c0,0,0,0,0.1,0c0.3,0.1,0.5,0.1,0.8,0.2c2.3,0.3,4.1-0.3,5.1-1.7c0,0,0,0,0,0c0.1-0.1,0.1-0.2,0.2-0.4
		c0.1-0.1,0.1-0.2,0.1-0.3c0-0.1,0.1-0.1,0.1-0.2c0.4-1.1,0.2-2.5-0.5-4.1c0,0,0,0.1,0,0.1c-0.4-0.8-0.9-1.7-1.7-2.6
		c-4.6-5.6-12.3-13.6-14.3-15.7c2.7,1.5,15.5,9.2,23.7,14.6c1.5,1.2,2.2,4.5,3.3,5.1c5.4,2.9,10.8-0.1,10.4-4.6c0,0,0,0,0,0
		c-0.1-2.1-1.5-4.6-4.8-6.9c-7.7-5.3-21.6-11.6-23.3-12.3l0-0.1c0.2,0,0.8,0.1,1.8,0.3c2.6,0.5,8,1.6,17.4,3.9
		c1.6,0.4,3.2,0.8,5,1.3c1.4,0.4,2.3,3.2,4.4,4.9c0.8,0.7,1.9,1,3.1,1c2.5,0.1,5.3-1.2,6.3-3.5c0.5-1.3,0.5-2.4,0.3-3.5
		c0,0,0,0.1-0.1,0.1c-0.4-1.6-1.6-3.1-3.5-4.4c-8.7-8.1-28.5-8.7-38.8-9.2C215.4,398.3,210.8,398.1,206.2,399.4z"/>
	<path class="st12" d="M206.7,380.8c1.3-7.6,3.1-12.7,13.1-35.2c0.8-2.7,2.2-6.1,2.7-7c0-0.1,0.1-0.2,0.1-0.3
		c10.2-18.9,7.5-14.4,14.3-34.1c0.1-0.3,0.2-0.6,0.3-0.9c0,0.3-0.1,0.5-0.1,0.8c7.2-23.3,8.8-47.5,5.4-70.7
		c-3.6,3.1-24.2,20.3-50.8,30.6c0.9,0.5,1.6,1.3,2,2.3c0.6,1.7,0.2,3.7-1.2,4.9l-2.5,2.3c-0.7,4.6-4.2,8.4-6.5,10.5
		c-2.6,2.5-3.1,2.6-5.1,0.1l-2,1.7c0,0-4,3.4-4,3.4l-0.4,0.3c0.5,0.3,0.7,1,0.7,2.4c0,0.6,0,1.1-0.1,1.7c-0.6,4.6-3.6,8.6-5.6,10.7
		c-2.4,2.6-2.7,2.6-4.7,0c-0.4-0.5-0.9-1-1.4-1.7c-0.7-0.9-1.3-1.9-1.9-3.1c-2.8,2-5.3,3.7-7.8,5.2c-0.7,0.4-1.5,0.7-2.3,0.7
		c-1.2,0-2.3-0.4-3.2-1.3c-1.5-1.5-1.7-3.8-0.7-5.5c1.7-2.8,3.7-5.7,6-8.9c2-2.8,4.1-5.5,6.3-8.2c-0.1,0-0.8,0-0.8,0
		c-1.1,0-2.2-0.1-3.3-0.1c-0.7,0.9-1.4,1.8-2.1,2.4c-0.4,0.4-0.7,0.8-1,1c-1.3,1.2-2,1.2-3.4-0.2c-0.3-0.2-0.5-0.5-0.8-0.9
		c-0.8-0.8-1.7-1.8-2.6-2.9l-4.2-0.2c-1.8-0.1-3.4-1.3-4-3c-0.6-1.7-0.2-3.6,1.2-4.8l7.3-6.8c-29.5-9.8-53.1-29.3-57.2-32.8
		c-3.5,23.6-1.7,48.2,5.9,71.9c5.3,14.8,5.1,13.5,14.3,33.3c0.5,1.2,2.3,5.1,2.9,7.8c9.7,21.9,11.4,26.9,12.7,34.4
		c1.7,9.6,1.7,10.6,1.7,10.6l6.8,1.8c2.8-8.1,8.7-14,15.9-17.6c-4.6,0.4-9.2,0.9-13.6,1.4c8.1-3.1,17.8-5,27.6-5.4
		c3-0.3,6.1-0.3,9.2,0.1c8.2,0.5,16,2,22.7,4.8c4.2,1.8,4.9,1.5,8.2,4.6c-3.2-1.3-5.5-1.9-8.7-2.9c-2.5-0.8-5.2-1.4-7.8-1.9
		c6.3,3.6,11.4,9.2,14.1,17l6.8-1.8C205,391.4,205,390.4,206.7,380.8z M203.3,322.3c0.1,0.3,0.4,0.6,0.6,1c0.5-0.4,1.2-1,1.4-1.3
		c2.3-2.4,4.7-5.4,6-8.6c1.7-1.2,2.9-1.2,2.4,1.9c-0.9,5.4-4.7,9.9-7.3,12.4c-2.6,2.6-2.8,2.7-4.6,0c-1.5-2.4-3.7-7-2.4-12.4
		c0.4-1.4,0.8-2.2,1.3-2.4C200.5,316.2,201.5,319.5,203.3,322.3z M223.6,266.5c-0.8,5.1-5.1,9.3-7.9,11.8c-2.9,2.4-3.3,2.6-5.2,0
		c-1.9-2.3-4.6-6.7-3.3-11.8c0.4-1.3,0.8-2,1.3-2.3c-0.1,3.1,1.4,6,3.3,8.4c0.1,0.1,0.8,0.9,1,1.2c0.5-0.1,1.7-1.2,1.9-1.4
		c2.4-2,5.1-4.9,6.5-7.9C222.8,263.7,223.9,263.8,223.6,266.5z M196.8,299.9c0.5-0.3,1.4-1.2,1.7-1.4c2.4-2.4,5-5.5,6.1-8.8
		c1.4-0.8,2.4-0.4,2.2,2.3c-0.5,5.4-4.6,10-7.2,12.4c-2.7,2.6-3.1,2.6-5,0c-1.8-2.4-4.5-7-3.5-12.4c0.4-1.5,0.9-2.3,1.4-2.6
		c-0.1,3.3,1.3,6.7,3.3,9.3C196,298.9,196.6,299.7,196.8,299.9z M185.8,336.3c0.3-1.7,0.8-2.4,1.3-2.6c-0.1,3.3,0.9,6.7,2.7,9.5
		c0.1,0.3,0.3,0.6,0.5,0.9c0.4-0.4,0.8-0.9,1-1.2c2.2-2.4,4.2-5.2,5.2-8.4c1.5-1.2,2.7-1.2,2.3,1.9c-0.6,5.4-4.2,9.9-6.4,12.3
		c-2.4,2.6-2.7,2.6-4-0.1C187,346.1,184.8,341.6,185.8,336.3z M171,315.3c0.3-1.8,0.9-2.6,1.5-2.6c0.1,3.5,1.5,6.7,3.6,9.5
		c0.3,0.3,0.6,0.8,0.9,1.2c0.4-0.4,0.9-1,1.2-1.3c2.3-2.4,4.4-5.6,5.2-9c1.2-0.6,2-0.3,1.9,2.3c-0.3,5.4-3.7,9.9-6,12.4
		c-2.3,2.6-2.7,2.7-4.5-0.1C173,325.3,170.3,320.7,171,315.3z M162.3,343.1c0.1,0.3,0.5,0.6,0.8,1c0.4-0.3,0.8-0.8,0.9-1
		c2-2.7,3.7-5.8,4.4-9.1c1-0.5,1.8-0.1,1.8,2.4c-0.1,5.4-3.1,9.9-5,12.3c-2,2.6-2.3,2.6-4.1-0.1c-1.8-2.4-4.5-6.9-4.1-12.3
		c0.1-2.2,0.8-2.8,1.5-2.6C158.8,337.2,160.3,340.4,162.3,343.1z M150.4,322.1c1.2-1.4,2.2-3.1,2.9-4.7c0.6-1.4,1.2-2.9,1.3-4.5
		c0.9-0.3,1.5,0.4,1.7,2.6c0.3,5.4-2.7,10-4.6,12.4c-2,2.6-2.3,2.7-4.6,0c-2.2-2.4-5.2-7-5.2-12.4c0.1-2.4,0.8-2.9,1.8-2.6
		c0.6,3.3,2.6,6.5,4.7,9.2c0.1,0.1,0.6,0.8,1,1.2C149.7,323,150.2,322.3,150.4,322.1z M141.1,336.4c0.6,5.4-1.8,9.9-3.5,12.3
		c-1.8,2.6-1.9,2.6-4.1,0.1c-2.2-2.4-5.4-6.9-5.6-12.3c-0.1-2.7,0.8-2.9,1.9-2.2c0.9,3.2,2.7,6.3,4.9,8.8c0.1,0.1,0.5,0.6,0.9,1
		c0.3-0.4,0.5-0.8,0.6-1c1.9-2.8,3.2-6,3.3-9.3C140.4,333.7,140.9,334.4,141.1,336.4z M134.4,304.4c-2,2.6-2.3,2.6-5,0
		c-2.4-2.4-6.1-7-6.4-12.4c-0.1-2.4,0.8-2.9,1.9-2.4c0.9,3.5,3.2,6.7,5.6,9.1c0.3,0.3,1,1.2,1.4,1.4c0.4-0.3,1-1,1.2-1.3
		c2-2.7,3.8-5.9,4-9.3c0.8,0,1.3,0.8,1.5,2.6C139.3,297.4,136.4,302,134.4,304.4z M108.6,264.2c1.2,3.2,3.7,6,6.1,8.2
		c0.3,0.3,1.3,1.2,1.8,1.4c0.4-0.3,1-1,1.3-1.3c2-2.3,3.7-5.2,3.8-8.4c0.6,0.3,1.2,0.9,1.4,2.4c0.9,5.1-2,9.3-4.1,11.8
		c-2.2,2.4-2.4,2.6-5.4,0c-2.6-2.3-6.8-6.7-7.2-11.8C106.3,264.1,107.2,263.7,108.6,264.2z M119.9,328c-2.3-2.4-6-7-6.5-12.4
		c-0.4-2.8,0.6-3.1,2-2.2c1,3.3,3.3,6.4,5.6,8.8c0.3,0.3,0.9,0.9,1.3,1.3c0.3-0.4,0.6-0.9,0.8-1.2c1.9-2.8,3.2-6.1,3.2-9.5
		c0.6,0.1,1.2,0.9,1.4,2.6c0.8,5.4-1.7,10-3.3,12.4C122.6,330.4,122.3,330.5,119.9,328z"/>
	<path class="st12" d="M181.8,247.4l-0.7,0.6c-1.5,2.5-3.3,5-5.3,7.8c-0.9,1.2-1.7,2.3-2.6,3.5c5.5-2.9,12.7-6.9,20.1-11.7
		c6.2-4.1,11.7-8.3,16.3-12.4c-9,6.3-15.8,9.5-16.2,9.8l-8.5,4l2.7-6.3C184.3,245.4,182,247.3,181.8,247.4z"/>
	<path class="st12" d="M134.9,241.3l-0.4,3.6c-0.1,0.6-0.3,1.2-0.6,1.6c0.5,0.4,1.1,0.7,1.6,1.1c6.2,4.1,12.3,7.6,17.4,10.3
		c1.3-1.1,2.5-2.1,3.7-3.1l-3.5-5.1l0,0.1l-5.1-0.8C147.3,249,142.4,248,134.9,241.3z"/>
	<path class="st12" d="M162.1,297.4c0.4,0.5,0.7,1,1.1,1.4c0.1,0.3,0.8,1,1.2,1.3c0.5-0.4,1.2-1.2,1.4-1.4c2-2.3,4-5,4.8-8
		c-0.8,0.6-1.5,1.2-2.3,1.9C166.3,294.2,164.2,295.8,162.1,297.4z"/>
	<path class="st12" d="M89,230.9c0.5,0.4,1,0.8,1.5,1.2c30,24.9,56.1,31.3,56.1,31.3l0,0c0,0,0,0,0,0c1.1-1,2.2-2,3.4-3
		c-13.9-7.5-34.5-20.4-45.2-35.7c-0.8-0.7-1.5-1.3-2.2-2c-2.5,1.8-5.2,3.5-7.8,5C92.6,228.9,90.7,230,89,230.9L89,230.9L89,230.9
		C89,230.9,89,230.9,89,230.9z"/>
	<path class="st12" d="M240.6,230.2l-0.4-1.4l-0.1,0c-0.2,0-0.5-0.1-0.7-0.1c-1.3-0.4-2.8-0.9-4.3-1.5c-3.1-1.2-6.5-2.9-9.4-4.9
		c-11.3,18.3-37.5,33.5-51.6,40.7c0.6,0,1.2,0,1.8,0l2,0.1l1.4,0l4.1,0.1c0,0,23.8-6.3,52.3-28.9C237.3,233,238.9,231.6,240.6,230.2
		z"/>
	<path class="st12" d="M81,190.4c0,2.9-0.2,6.2-0.5,10.2c-0.1,1.2-1.1,4.1-1,5c0,0.4,0.1,0.5,0.5,0.1l11.3-12
		c0.1,1.2,0.1,2.4,0.1,3.7c0,9.2-2.2,20.9-2.4,27.4c0,0,0,0,0,0c0,0,0,0.1,0,0.1c0,0,8.8-2.7,14.1-6.9c3.3,3.9,6.8,7.7,10.1,11.1
		c2.7,2.8,5.2,5.3,7.6,7.5c0.1,0.1,0.1,0.1,0.2,0.2c0,0,0,0,0,0c4.5,4.2,8,7.1,9.4,7.7c0,0,0.1,0.1,0.1,0.1c0,0,0,0,0,0
		c0.3,0.1,0.5,0.1,0.5-0.1l1.3-11.1c9.9,11.1,16.4,12.2,16.4,12.2l-2.4-12l13.3,19.1c2.3-1.8,4.7-3.7,7.5-5.7c3-2.2,5.8-4.1,8.4-5.7
		c0.6-0.4,1.3-0.6,1.9-0.6l4.2-5.5l-1.3,6.3c0.2,0.2,0.4,0.3,0.6,0.5c0.3,0.3,0.6,0.7,0.8,1.1c3.3-2.7,9.8-8.4,15.7-14.3l-5.5,13.1
		c0,0,17.5-8.2,33.5-24.6c5,4.7,15.1,7.8,15.1,7.8c-0.1-3.1-3.5-33.4-3.2-34.4l12,14.9c0,0,0,0,0,0l0.1,0.2c0,0-0.9-7.7-1-17.4
		c-1.3-11.1,2-30.2,3.1-35.5c0.5,3.4,0.7,6.9,0.6,10.4c0,0,0.1,0,0.1,0.1c0,0,0,0.1,0,0.1c0.9,0.4,10.4,3.8,10.4,3.7
		c-3.1-4.6-10.5-17-10-27.3c0-0.8,0-1.7,0-2.6c0,0.8,0,1.6,0,2.4c0-0.1-0.1-0.1-0.1-0.2c-0.3-0.4-0.6-0.9-0.9-1.3
		c-3.4-4.5-8.4-5.7-13.9,2c-1.8,2.5-4,4.8-6.3,6.9c3.7,31.1,1.2,74.9-17.5,61.5c-10.9-7.8-16.1-25.5-17.2-44.2
		c-2.6,1.6-6.1,2.3-8.6,2.9c-10.2,2.4-13.1,11.1-19.8,17.7l-2.9,2.7l-2.7-2.8c-5.8-6.1-12.5-16.8-21.6-17.7
		c-2.2-0.2-4.5-0.5-6.6-0.9c-1.3,18.1-6.5,34.9-17.1,42.4c-19.5,14.1-21.4-34.4-17-65.6c-3.1-3.2-6-7.1-8.5-11.5
		c-8.5-15-12.1-8.1-14.9,7.1c-0.7,3.8-1.4,8.2-2,12.8l-0.1-0.1c0.2-1.2,0.5-2.5,0.6-3.9c-2.2,16-9.5,19.6-9.5,19.6l0.5-0.2
		c-0.3,0.2-0.5,0.3-0.5,0.3l10.1-3.6c0.3-3.2,0.6-6.5,1.5-10.6C78.2,172.5,81,177.8,81,190.4z M185.7,210.3c0.3-1.7,0.8-2.4,1.3-2.5
		c0,3.1,1,6.2,2.7,8.9c0.1,0.1,0.4,0.5,0.5,0.9c0.4-0.4,0.9-0.9,1-1.2c2-2.2,3.9-4.9,5-7.7c1.7-1.4,3.1-1.8,2.7,1.5
		c-0.6,5.4-4.2,9.9-6.4,12.3c-2.4,2.6-2.7,2.7-4.1,0C186.8,220.2,184.7,215.7,185.7,210.3z M156.9,219.2c0.2-2.1,0.7-2.7,1.5-2.5
		c0.4,3.2,1.9,6.2,3.7,8.7c0.1,0.1,0.5,0.6,0.8,1c0.4-0.4,0.8-0.9,0.9-1c2-2.4,3.6-5.3,4.3-8.4c1.1-0.7,2-0.5,2,2.2
		c-0.1,5.4-3.1,9.9-5,12.3c-2,2.6-2.3,2.6-4.1,0C159.2,229,156.5,224.5,156.9,219.2z M130.2,208.3c0.9,3.1,2.7,5.9,4.7,8.3
		c0.1,0.3,0.6,0.8,0.9,1c0.3-0.4,0.5-0.8,0.6-1c1.7-2.7,3.1-5.7,3.3-8.8c0.7-0.1,1.3,0.6,1.5,2.6c0.6,5.4-1.8,9.9-3.5,12.3
		c-1.8,2.6-1.9,2.6-4.1,0c-2.2-2.4-5.4-6.9-5.6-12.3C127.8,207.4,128.8,207.3,130.2,208.3z"/>
	<path class="st12" d="M123.2,124.3c-1.8,0.9-1.9,4.5-0.3,8.2c1.7,3.7,4.5,6,6.3,5.2c1.8-0.8,1.9-4.5,0.3-8.2
		C127.8,125.9,125,123.6,123.2,124.3z"/>
	<path class="st12" d="M207.7,124.3c-1.8-0.8-4.6,1.5-6.3,5.2c-1.7,3.7-1.5,7.4,0.3,8.2c1.8,0.8,4.6-1.5,6.3-5.2
		C209.6,128.8,209.5,125.2,207.7,124.3z"/>
	<path class="st12" d="M91.9,90.2c0.3-0.3,0.8-0.4,1.3-0.3c13.3-4.8,30.5-8.3,49-10c-0.3-3.6-0.6-7.4-1-11.2l-3.1-2.4V48.8
		c-1.1-4.6-2.3-8.5-3.8-11.1c-1.3-2.4-2.7-4.8-4-7.2c-0.8,0.4-1.7,0.7-2.5,1.1c0,0,0,0,0,0c-2,1-4,2-5.9,3.1c3,8,9.8,26.1,8.2,27
		l-0.7,0.4l-3.4-7.9c-3-7.3-7.6-17.9-8.8-20.7c0-0.1-0.1-0.1-0.1-0.1l-0.2-0.4c-0.1,0-0.1,0-0.1,0.1c-0.3-0.2-0.6-0.2-0.9-0.1
		c-0.3,0.2-0.5,0.4-0.6,0.7c-5.7,2.7-8,6.2-8,6.2c4.1,8.9,8.6,17.4,13.1,26.2c-3.1-2.4-10.2-13.3-14.1-19.9
		C95.3,57.1,90.4,71.7,88.2,82.6c0,0-0.1,0-0.1,0c-0.8,3.8-1.2,7.2-1.5,9.8c1.6-0.7,3.3-1.4,5.1-2C91.8,90.3,91.8,90.2,91.9,90.2z"
		/>
	<path class="st12" d="M197.2,37.7c-0.6,1.1-1.1,2.5-1.6,4.1c-0.7,2.3-1.2,4.9-1.6,6.8c-0.6,3-1.3,6-2,9c0,0.2-0.1,0.3-0.1,0.5v1.2
		V62v4.4l-1.5,1.1c-0.4,4.1-0.8,8.2-1,12.3c21.4,1.9,41.3,6.5,55.2,12.5c0-0.4-0.1-0.9-0.1-1.3c0-0.1,0-0.1,0-0.2
		c0-0.4-0.1-0.8-0.1-1.2c0-0.1,0-0.2,0-0.3c-0.1-0.4-0.1-0.9-0.2-1.3c0-0.1,0-0.2,0-0.2c-0.1-0.5-0.1-1-0.2-1.5c0,0,0-0.1,0-0.1
		c-0.2-1.2-0.4-2.5-0.7-3.8c0,0,0,0,0,0c-2.2-10.9-7-25.3-17.7-35.8c-4.2,7.9-12.6,22.3-15,20.9c4.8-9.1,9.5-18,13.8-27.3
		c0,0-2.2-3.4-7.8-6.1c0,0,0,0,0,0c0.3-0.5,0-1.2-0.6-1.3c-0.5-0.3-1,0-1.3,0.5c-6.7,15.4-6,13.9-8.7,20.3l-3.8,8.8
		c-2.8-2,4.3-19.6,7.6-27.6c-2.7-1.5-5.4-2.9-8.3-4.2C199.9,32.9,198.5,35.3,197.2,37.7C197.2,37.6,197.2,37.7,197.2,37.7z"/>
	<path class="st12" d="M191.1,41.8c0.7-2.6,1.5-4.8,2.4-6.3c6.9-12.3,6.9-12.3,6.9-12.3c-0.8-0.4-1.5-0.9-2.3-1.3l-0.1,0.1
		c-7.5,9.8-9.7,13.4-10.8,19.8H191.1z"/>
	<path class="st12" d="M139.8,41.8h3.2c-1.1-6.3-3.2-10-10.7-19.6c-0.6,0.4-1.2,0.6-1.8,1c0,0,0,0,6.9,12.3
		C138.3,37.1,139.1,39.2,139.8,41.8z"/>
	<path class="st12" d="M144.7,79.6c0.6-0.1,1.3-0.1,1.9-0.1c-0.3-2.4-0.5-4.8-0.8-7.2l-1-0.8l-0.8-0.6
		C144.3,74,144.6,76.9,144.7,79.6z"/>
	<path class="st12" d="M186.9,70.1l-2.6,1.9c-0.2,2.5-0.5,4.9-0.8,7.4c0.9,0.1,1.8,0.1,2.6,0.2C186.4,76.5,186.6,73.3,186.9,70.1z"
		/>
	<path class="st12" d="M244.8,96.8c-2.2-1-4.4-2-6.7-2.9c0,0,0,0,0.1-0.1c-0.2-0.1-0.3-0.1-0.5-0.2l-4.1,3.1
		c-3.1,1.9-7,3.4-11.4,4.7c-10.9,3.2-24.4,4.6-33.4,5.1c-3.8,0.2-7.1,0.2-10.2,0.2c-4.6-0.1-8.8-0.3-14.2-0.3c0,0,0,0-0.1,0
		l-4.6,0.4c-0.9,0-1.9,0.1-2.9,0.1c-10.6,0.2-25-1.2-35.1-2.9c-0.2,0-0.5-0.1-0.7-0.1c-11.2-1.9-18.5-3.8-27.7-10.2
		c-0.1,0-0.1,0.1-0.2,0.1c0,0,0,0,0.1,0.1c-2.3,0.9-4.5,1.9-6.7,2.9C94.3,117.2,237,117.2,244.8,96.8z"/>
	<path class="st12" d="M164.4,106.5c9.3,0.1,30.6-2.3,40-4c11-1.9,20.5-3.9,29.4-10.4c-32.2-11.6-75.1-13.9-111.4-6.7
		c-8.4,1.5-16,3.3-21.6,5.3c-0.3,0.1-0.5,0.3-0.6,0.5C99,91.7,98,92,97,92.4c17.6,11.5,42.4,11.8,62.6,13.6l4.6,0.5
		C164.2,106.5,164.3,106.5,164.4,106.5L164.4,106.5C164.3,106.5,164.3,106.5,164.4,106.5z"/>
	<path class="st12" d="M195,157c-2.9-2.1-8.3-0.3-11-1.8c-4-2.2-6.3-9-10.1-15.1c-6.4-10.2-10-10.2-16.3,0
		c-5.9,9.5-10.6,14.7-13.7,16.5c-1,0.6-6.6,0.7-8.9,1.7c2.3,0,4.7,0.6,6.2,1.1c8.2,0.9,13.2,3.1,19.1,8.4c1.2-0.3,2.2-2.3,5.4-6.8
		c3.5,4.9,4.4,6.8,5.7,6.8c6-4.8,12.8-8.7,20.4-10.1C192.9,157.4,194,157.1,195,157z M158.7,150.8c-2-1.5,1.4-4.9,3.1-7.9
		C163.9,140.7,160.7,152.2,158.7,150.8z M172.7,150.8c-2,1.4-5.4-10.1-3.1-7.9C171.3,146,174.8,149.3,172.7,150.8z"/>
	<path class="st12" d="M188.2,160.7c-6.1,2.7-9.7,4.7-13.7,8.2c-3.2,3.5-5.8,7.3-8.7,10.4c-3.1-3.2-5.8-7.3-9.2-10.9
		c-5.1-4.8-9-6.3-16.4-8.3c-2.5,0.3-0.9,2,1.3,2.7c0.1,0,0.1,0,0.2,0c11,1,18.2,12.7,24.2,18.9c6.3-5.8,9.9-15.7,21.8-18.6
		c0.5-0.1,1-0.2,1.5-0.4c1.4-0.7,2-1.6,1.3-2.2C190.1,160.5,189.3,160.6,188.2,160.7z"/>
	<path class="st12" d="M147.7,73.7l-0.2-0.1c0,2-0.1,4-0.2,5.9c1-0.1,2.1-0.1,3.1-0.2c3.6-0.2,7.1-0.3,10.7-0.4c0.2,0,0.3,0,0.5,0
		c1.4,0,2.8,0,4.2,0c0.1,0,0.1,0,0.2,0c5.7,0,11.4,0.3,17,0.6c-0.1-1.9-0.1-3.8-0.3-5.8c0-0.2,0-0.3,0-0.5l-3.8,2.8h-28.1
		L147.7,73.7z"/>
	<path class="st12" d="M141.7,29.2c2.8,4.6,3.9,7.9,4.4,12.6h0.2h2.2h6.2l3.2-4h7h7l3.2,4h8.9c0.8-6.5,2.6-10.4,8.5-18.8
		c0.4-0.2,0.8-0.5,1.1-1c0.2-0.3,0.3-0.6,0.3-0.9c0.2-0.3,0.5-0.7,0.7-1c-0.4-0.2-0.8-0.4-1.3-0.6c-0.2-0.2-0.3-0.3-0.5-0.5
		c-1.6-0.6-3.2-1.2-4.9-1.8c-9.1-3.3-18.4-4.6-27.7-3.9c-4.1,0.2-8.2,0.8-12.2,1.9c-1.6,0.5-10.2,2.2-11.3,4.5
		c-0.4,0.2-0.8,0.3-1.1,0.5c1.2,1.6,2.2,3,3.1,4.3C139.6,26.2,140.7,27.8,141.7,29.2z"/>
	<path class="st12" d="M177.9,279.8l12.2-11.2c0.3-0.3,0.4-0.7,0.3-1.1c-0.1-0.4-0.5-0.6-0.9-0.7l-13.8-0.4c-1.6,0-3.3-0.1-4.9-0.1
		c0,0,0,0,0,0c-0.8,0-1.6,0-2.4,0c-1.5,0-2.9,0-4.4,0c-0.3,0-0.6,0-0.9,0c1.5-1.8,2.8-3.3,4-4.8c1.5-1.9,3.1-3.9,4.9-6.4l0.4-0.6
		c0.2-0.3,0.4-0.5,0.6-0.8c2.1-2.9,3.9-5.6,5.5-8.2c0.2-0.4,0.2-0.9-0.1-1.2c-0.3-0.3-0.8-0.4-1.2-0.1c-2.6,1.6-5.3,3.4-8.2,5.5
		c-2,1.5-4.1,3-6.3,4.7l-0.6,0.4c-0.3,0.2-0.6,0.5-0.9,0.7c-2.3,1.8-4.8,3.9-7.5,6.2c-2.7,2.3-5.1,4.4-7.2,6.4l-7.9,7.3
		c-0.3,0.3-0.4,0.7-0.3,1.1c0.1,0.4,0.5,0.6,0.9,0.7l11.2,0.6c2.1,0.1,4.1,0.2,6.2,0.2l0.7,0c1.5,0.1,3,0.1,4.5,0.1
		c0.8,0,1.5,0,2.3,0c0.2,0,0.5,0,0.7,0l-2.5,2.9c-0.7,0.9-1.4,1.7-2.1,2.6c-2.2,2.7-4.3,5.4-6.3,8.2c-2.3,3.1-4.2,5.9-5.9,8.7
		c-0.2,0.4-0.2,0.9,0.1,1.2c0.2,0.2,0.4,0.3,0.7,0.3c0.2,0,0.4,0,0.5-0.1c2.7-1.7,5.6-3.6,8.7-5.9c2.7-2,5.5-4.1,8.2-6.3
		c0.9-0.7,1.7-1.4,2.6-2.1l5.3-4.5L177.9,279.8z M167.5,286.1c-0.8,0.7-1.7,1.4-2.6,2.1c-2.7,2.1-5.4,4.2-8.1,6.2
		c-1.6,1.2-3.2,2.3-4.7,3.3c1-1.5,2.1-3.1,3.3-4.7c2-2.7,4.1-5.4,6.2-8.1c0.7-0.9,1.4-1.7,2.1-2.5l3.9-4.6c0.3-0.3,0.3-0.7,0.1-1.1
		c-0.2-0.4-0.5-0.6-0.9-0.6c0,0,0,0,0,0c-0.9,0-1.9,0-2.8,0c-0.8,0-1.5,0-2.3,0c-1.5,0-3,0-4.5-0.1l-0.7,0c-2-0.1-4.1-0.1-6.1-0.2
		l-8.8-0.5l6.2-5.7c2.1-2,4.5-4.1,7.2-6.4c2.7-2.3,5.1-4.3,7.4-6.2c0.3-0.2,0.6-0.5,0.9-0.7l0.6-0.5c2.2-1.7,4.2-3.2,6.2-4.7
		c1.5-1.1,2.8-2,4.2-2.9c-0.9,1.3-1.9,2.7-2.9,4.2c-0.2,0.3-0.4,0.5-0.6,0.8l-0.4,0.6c-1.8,2.5-3.4,4.5-4.9,6.3
		c-1.5,1.9-3.2,4-5.3,6.4c-0.3,0.3-0.3,0.7-0.1,1.1c0.2,0.4,0.5,0.6,0.9,0.6c0,0,0,0,0,0l0.9,0c0.7,0,1.5,0,2.2,0c1.5,0,2.9,0,4.4,0
		c0.8,0,1.6,0,2.4,0c1.6,0,3.2,0.1,4.9,0.1l11.3,0.3l-10.4,9.5l-3.8,3.4l-3.9,3.3L167.5,286.1z"/>
	<path class="st12" d="M174.7,51.1h10.9v-1.3h-12c0.1,0.1,0.2,0.1,0.2,0.2C174.1,50.4,174.4,50.7,174.7,51.1z"/>
	<path class="st12" d="M156.2,49.8h-9.5v1.3h8.3c0.3-0.4,0.6-0.7,0.9-1.1C156.1,50,156.2,49.9,156.2,49.8z"/>
	<path class="st12" d="M176.4,54h9.2v-1.3h-9.8c0.1,0.2,0.2,0.4,0.3,0.6C176.2,53.5,176.3,53.7,176.4,54z"/>
	<path class="st12" d="M154,52.7h-7.3V54h6.6c0.1-0.2,0.2-0.5,0.3-0.7C153.8,53.1,153.9,52.9,154,52.7z"/>
	<path class="st12" d="M177.4,58.9c0,0.2,0,0.4,0,0.6l0,0.1h8.2v-1.3h-8.2l0,0.1C177.4,58.6,177.4,58.8,177.4,58.9z"/>
	<path class="st12" d="M152.3,58.9c0-0.2,0-0.3,0-0.5l0-0.1h-5.6v1.3h5.6l0-0.1C152.3,59.4,152.3,59.1,152.3,58.9z"/>
	<path class="st12" d="M146.8,62.5h6.1c-0.1-0.3-0.2-0.7-0.3-1c0-0.1,0-0.2-0.1-0.3h-5.8V62.5z"/>
	<path class="st12" d="M176.9,62.5h8.6v-1.3h-8.3c0,0.1,0,0.2-0.1,0.3C177.1,61.8,177,62.1,176.9,62.5z"/>
	<path class="st12" d="M152.8,55.5h-6.1v1.3h5.8c0-0.1,0-0.2,0-0.3C152.6,56.2,152.7,55.8,152.8,55.5z"/>
	<path class="st12" d="M177.2,56.8h8.3v-1.3h-8.6c0.1,0.3,0.2,0.7,0.3,1C177.2,56.6,177.2,56.7,177.2,56.8z"/>
	<path class="st12" d="M155.2,66.9h-2.8v1.3h4c-0.1-0.1-0.2-0.1-0.2-0.2C155.8,67.6,155.5,67.2,155.2,66.9z"/>
	<path class="st12" d="M173.4,68.1h4v-1.3h-2.8c-0.3,0.4-0.6,0.7-1,1.1C173.5,68,173.4,68.1,173.4,68.1z"/>
	<path class="st12" d="M153.4,64h-4.8v1.3h5.5c-0.1-0.2-0.2-0.4-0.3-0.6C153.6,64.5,153.5,64.3,153.4,64z"/>
	<path class="st12" d="M175.7,65.3h5.5V64h-4.8c-0.1,0.2-0.2,0.5-0.3,0.7C175.9,64.9,175.8,65.1,175.7,65.3z"/>
	<path class="st12" d="M155.4,59.5c0,0.5,0.1,1,0.2,1.3c0.1,0.3,0.2,0.7,0.3,1.1c0.2,0.5,0.4,0.9,0.6,1.3c0.2,0.4,0.4,0.7,0.7,1.1
		c0.3,0.5,0.7,0.9,1.2,1.3c0.4,0.4,0.9,0.8,1.4,1.1c3.1,2.1,7.4,2.1,10.5,0c0.5-0.3,0.9-0.7,1.4-1.1c0.4-0.4,0.8-0.9,1.2-1.3
		c0.3-0.4,0.5-0.7,0.7-1.1c0.2-0.4,0.4-0.9,0.6-1.3c0.1-0.4,0.2-0.8,0.3-1.1c0.1-0.4,0.1-0.8,0.2-1.3l0-0.2c0-0.1,0-0.3,0-0.4
		c0-0.1,0-0.2,0-0.3l0-0.2c0-0.5-0.1-0.9-0.2-1.3c-0.1-0.4-0.2-0.7-0.3-1.1c-0.1-0.4-0.3-0.9-0.6-1.3c-0.2-0.4-0.4-0.8-0.6-1.1
		c-0.3-0.5-0.7-0.9-1.1-1.3c-0.4-0.4-0.8-0.8-1.3-1.1c-1.6-1.1-3.5-1.7-5.4-1.7s-3.8,0.6-5.4,1.7c-0.5,0.3-0.9,0.7-1.3,1.1
		c-0.4,0.4-0.8,0.9-1.1,1.3c-0.2,0.3-0.4,0.7-0.6,1.1c-0.2,0.5-0.4,0.9-0.6,1.3c-0.1,0.4-0.2,0.7-0.3,1.1c-0.1,0.4-0.1,0.8-0.2,1.3
		l0,0.2c0,0.1,0,0.2,0,0.3c0,0.1,0,0.3,0,0.4L155.4,59.5z M164.9,50.9c4.5,0,8.1,3.6,8.1,8.1s-3.6,8.1-8.1,8.1s-8.1-3.6-8.1-8.1
		S160.4,50.9,164.9,50.9z"/>
	<circle class="st12" cx="164.9" cy="58.9" r="6.6"/>
	<path class="st12" d="M233.4,112.6c-3.1-3.2-6.8-4.5-10.8-4.5c-6.7,0-13.7,3.7-18.2,8.7c-4.1,4.6-7.2,10.9-8.5,17.4h-0.1h0
		c-0.5-13.6-18.1-16.8-31.7-17.1c-16.1-0.2-27.3,12.4-28.1,19.5h-0.1h-0.1c-0.9-7.6-4.2-15-9-20.2c-4.4-5-11.5-8.7-18.2-8.7
		c-4,0-7.8,1.3-10.8,4.5c-3.1,3.3-4.2,6.7-4.2,10.4c-0.1,2.8,0.4,5.8,0.9,9c1.9-8.7,4-17.8,12.2-17.8c0.4,0,0.8,0,1.2,0
		c-5.3,6.9-6.9,14.1-6.3,20.6c0,0,0,0,0,0.1c-0.3-0.1-0.5-0.1-0.8,0c-1,0.1-1.7,1.2-1.4,2c3.2,11.1,10.9,24.8,24.7,21
		c1.6-0.5,3-1.1,4.1-1.9c0.1,0,0.1-0.1,0.1-0.1c1.7-0.6,3.3-1.6,4.3-3.1c0.1,0,1.3-2.6,2.1-4.2h0.1h0l-0.1,0.2
		c0.1,1.9,0.2,3.9,0.2,5.8c1.3-0.3,2.6-0.5,3.7-0.7c0.9-0.1,2.6-0.3,3.6-0.5c4.1-2.7,9.6-11,12-15c2.6-4,6.3-9.5,11.5-9.5
		c5.2,0,9,5.5,11.4,9.6c1.8,2.9,3.3,6.1,5,9.1c0.8,1.3,2.2,3.8,3.6,4.5c0.6,0.3,3.1,0.1,3.8,0.1c2.5,0,5,0.3,7.1,1.5
		c0-1,0.1-2.1,0.1-3.1h0h0.6c0.6,1.3,1.2,2.4,1.3,2.4c1.4,1.9,3.6,3.2,6,3.7c0.1,0,0.2,0,0.2,0.1c0.8,0.4,1.7,0.8,2.8,1.1
		c13.8,3.8,21.5-9.9,24.7-21c0.3-0.9-0.4-1.9-1.4-2c-0.4-0.1-0.9,0-1.2,0.1c0.6-6.4-1-13.7-6.3-20.5c0.4,0,0.8,0,1,0
		c8.3,0,10.3,9.1,12.2,17.8C238,124.6,238.9,118.5,233.4,112.6z M132.9,145.9c-0.8,1.9-1.8,4.2-2.2,5c-1.7,2.1-4.7,3.3-8.5,3.3
		c-2.1,0-4-0.4-5.6-1c-5.6-2.3-10.4-8.2-12.2-15c-2.1-7.7-0.3-15.9,5.1-22.9l2.6-3.3l-4.1-0.4c-0.5,0-0.9-0.1-1.4-0.1
		c-3.5,0-6,1.3-7.9,3.2c0.3-0.3,0.5-0.6,0.8-0.9c2.4-2.4,5.5-3.7,9.1-3.7c5.6,0,12.2,3.2,16.4,7.9
		C131.6,125.4,134.9,136.9,132.9,145.9z M226.6,138.2c-1.8,6.8-6.7,12.7-12.2,15.1c-1.7,0.6-3.6,1-5.6,1c-2.6,0-4.8-0.5-6.5-1.5
		c-0.8-0.7-1.6-1.6-2.4-2.6c-0.5-1-1.3-2.7-1.9-4.2c-1.8-8.8,1.4-20.4,8.1-27.8c4.2-4.7,10.8-7.9,16.4-7.9c3.7,0,6.8,1.3,9.1,3.7
		c0.3,0.3,0.5,0.6,0.8,0.9c-1.9-1.9-4.5-3.2-7.9-3.2c-0.4,0-0.9,0-1.3,0l-4.2,0.4l2.6,3.3C226.8,122.4,228.6,130.5,226.6,138.2z"/>
</g>
</svg>
