<?xml version="1.0" encoding="UTF-8"?>
<svg id="Logo" xmlns="http://www.w3.org/2000/svg" viewBox="0 0 884.3276298 737.007874">
  <defs>
    <style>
      .cls-1 {
        fill: #213861;
      }

      .cls-2 {
        fill: #abff5c;
      }

      .cls-3 {
        fill: #25c243;
      }
    </style>
  </defs>
  <path class="cls-3" d="M752.4379057,97.2846337c0-4.8245504-3.9110517-8.7356658-8.7356021-8.7356658h-82.9995017c-4.8245504,0-8.7356658,3.9111154-8.7356658,8.7356658v70.945105l100.4707696,77.2897524V97.2846337Z"/>
  <path class="cls-2" d="M516.300088,357.8676559c-5.9954885-16.957664-24.6025109-25.8442623-41.5597924-19.8487738-19.3516781,6.8419981-28.1935321,30.1085522-16.3998255,48.6047336,5.1758764,8.1174034,14.0160732,13.5817598,23.5972289,14.5226023,15.8511017,1.5564916,29.5085827-7.836827,34.362389-21.5672247h166.3945639l50.955788,39.2092478c-.060424-.0478675-.1126895-.1034474-.1738783-.1505501l-281.1881159-216.3657849c-.0817764-.0629098-.1684606-.1157489-.2510655-.1769378l202.4414312,155.7726877h-138.1787233ZM485.5941158,379.5789932c-5.9954247,0-10.8559873-4.8602439-10.8559873-10.8556686s4.8605626-10.8556686,10.8559873-10.8556686c5.9954885,0,10.8560511,4.8602439,10.8560511,10.8556686-.0057365,5.9929389-4.8634946,10.8502509-10.8560511,10.8556686Z"/>
  <path class="cls-2" d="M290.2909388,472.2713839c2.0353582,2.0359956,4.7961231,3.1802273,7.6750589,3.1806097h77.8502679c5.9954885,16.957664,24.603212,25.8442623,41.5597924,19.8491563,19.3579882-6.8439103,28.1992048-30.1221922,16.3894362-48.6207319-5.1806568-8.1149176-14.0237856-13.5757047-23.6058973-14.5100458-15.8429431-1.5447638-29.490481,7.8456229-34.3433312,21.5702842h-73.3551175l-55.699072-43.2364947c-2.0352945-2.0360593-4.7961231-3.1802273-7.6749952-3.1809921h-73.5093007l103.9981162-80.0238747,51.7608677,52.0143553c2.0352945,2.0360593,4.7957406,3.1802273,7.6746765,3.1806097h86.8452215c6.5930359,0,11.8137205-5.8773812,10.7074131-12.6785867-.8681807-5.3375807-5.8804407-9.0327505-11.2881974-9.0327505h-81.7689682l-46.5895804-46.8275159,46.1316201-35.4970599h78.4022424c5.9954247,16.9577277,24.6024471,25.8442623,41.5597924,19.8488376,19.3516781-6.8419981,28.1934684-30.1085522,16.3998255-48.6047336-5.1759402-8.1174034-14.016137-13.5818236-23.5972289-14.5226023-15.8511017-1.5564916-29.5085827,7.836827-34.362389,21.5672247h-50.1864019l71.1844427-54.774674c-.1409256.101599-.2866316.1930636-.4250714.2995705l-281.1865862,216.3657211c-3.34378,2.5729916-5.5287322,6.3034087-6.2225884,10.3968159h89.9765614l55.6993907,43.2368771ZM406.5229389,453.7406564c5.9954247,0,10.8559873,4.8602439,10.8559873,10.8556686s-4.8605626,10.8556686-10.8559873,10.8556686-10.8560511-4.8602439-10.8560511-10.8556686c.0058002-5.9929389,4.8627934-10.8502509,10.8560511-10.8556686ZM442.1571001,256.7470734c5.9954247,0,10.8560511,4.8601802,10.8560511,10.8556686,0,5.9954247-4.8606263,10.8556049-10.8560511,10.8556049s-10.8559873-4.8601802-10.8559873-10.8556049c.0057365-5.9933214,4.8634308-10.8502509,10.8559873-10.8556686Z"/>
  <path class="cls-2" d="M573.7932046,420.9933346c-19.3490648,6.8407233-28.190154,30.1002025-16.4062631,48.5947904,5.1726258,8.118232,14.0094445,13.5854566,23.5890067,14.5308883,15.854671,1.5647776,29.5211392-7.8303257,34.3776862-21.5655675h124.6055044v-21.7113373h-124.6055044c-5.9954247-16.957664-24.6031483-25.8442623-41.5604298-19.8487738ZM584.6463237,462.5534457c-5.9954247,0-10.8552862-4.8602439-10.8552862-10.8556686s4.8598615-10.8556686,10.8552862-10.8556686,10.8559873,4.8602439,10.8559873,10.8556686c-.0057365,5.9932576-4.8620286,10.8502509-10.8559873,10.8556686Z"/>
  <path class="cls-2" d="M599.4511596,530.6198061c-10.7496717,6.52286-16.814635,19.2236277-15.129583,31.6841654,2.8812304,21.3051325,24.0924125,33.4557103,43.2066013,26.6976557,9.2740003-3.2788943,16.5698796-10.5740724,19.8491563-19.8487738h92.5818046v-21.7113373h-92.5818046c-6.7585645-19.116101-29.5444037-27.975738-47.9261746-16.82171ZM616.6699597,569.1528533c-5.9954247,0-10.8552862-4.8602439-10.8552862-10.8556686s4.8598615-10.8556686,10.8552862-10.8556686c5.9954885,0,10.8560511,4.8602439,10.8560511,10.8556686-.0058002,5.9932576-4.8620286,10.8502509-10.8560511,10.8556686Z"/>
  <path class="cls-2" d="M625.6580934,655.046843c-3.2785756-9.274319-10.5737537-16.5698796-19.8484552-19.8487738-19.1149537-6.7580546-40.3250522,5.3925232-43.2066013,26.697592-1.6852432,12.4604102,4.3796564,25.1611779,15.1292643,31.6840379,18.3820896,11.154283,41.1672276,2.294646,47.9257922-16.8215187h77.8514152c2.8774699,0,5.6371512-1.1430844,7.671872-3.1778052l28.7777582-28.7781407v-30.7004907l-40.9458642,40.9450993h-73.3551813ZM594.9521849,676.7581803c-5.9954247,0-10.8559873-4.8602439-10.8559873-10.8556686s4.8605626-10.8556686,10.8559873-10.8556686c5.9932576.0054178,10.8502509,4.862411,10.8559873,10.8556686,0,5.9954247-4.8605626,10.8556686-10.8559873,10.8556686Z"/>
  <path class="cls-2" d="M216.0554665,676.7581803c5.9954247,16.957664,24.6028296,25.8442623,41.5601111,19.8488376,19.5779494-6.9218623,28.3978137-30.6538342,15.9787697-49.250531-3.9374394-5.8959928-9.907305-10.3425745-16.6746655-12.4565859-17.577966-5.4911265-35.1371292,4.0086989-40.8642153,20.1469421h-71.6932026v-91.7976312h119.8485805c5.9954885,16.957664,24.6025109,25.8442623,41.5601748,19.8487738,19.3504671-6.8413607,28.191365-30.1046004,16.4025025-48.5999532-5.174283-8.1178496-14.0128226-13.5836082-23.5931497-14.5266178-15.8526951-1.5603159-29.5143829,7.8337675-34.3695277,21.5664599h-119.8485805v-109.857077c-.0003187.0418124-.0072024.0826687-.0072024.1245448v282.2113084c0,.0481225.00682.0945878.0072024.1426465v-37.401117h71.6932026ZM246.7620761,655.046843c5.9954885,0,10.8556686,4.8602439,10.8556686,10.8556686-.0054178,5.9932576-4.8627297,10.8502509-10.8556686,10.8556686-5.9954247,0-10.8556049-4.8602439-10.8556049-10.8556686s4.8601802-10.8556686,10.8556049-10.8556686ZM294.9171353,541.5378746c5.9954247,0,10.8556686,4.8602439,10.8556686,10.8556686s-4.8602439,10.8556686-10.8556686,10.8556686-10.8556686-4.8602439-10.8556686-10.8556686c.0054178-5.9932576,4.862411-10.8502509,10.8556686-10.8556686Z"/>
  <path class="cls-3" d="M515.6980788,664.3669262c11.8093862-27.2495027,13.3619261-61.3315065,4.4868644-98.5599563-6.6024692-27.7010255-16.5497382-47.3712681-16.9709853-48.1946407-2.0587502-4.0350229-6.6903645-6.0422724-11.0425496-4.7857337-.888577.2563558-22.0432868,6.4469475-46.7724459,20.5681891-33.2348568,18.9782348-57.0452269,43.4136237-68.853912,70.6635088-11.8101511,27.2495027-13.3616074,61.3315065-4.4868644,98.5599563,2.5740751,10.7977942,5.6439712,20.2980021,8.4703866,28.0131524h13.5039352l43.4166831-100.1776367c2.0752584-4.7896855,7.6408314-6.9895525,12.4315367-4.9138479,4.7879008,2.0756409,6.9877678,7.6415325,4.9124456,12.4311543l-40.1583126,92.6603303,39.3822339.0000637c29.4392353-18.3019705,50.7529725-41.048483,61.6809842-66.2645397Z"/>
  <path class="cls-1" d="M246.7620761,676.7581803c5.9929389-.0054178,10.8502509-4.862411,10.8556686-10.8556686,0-5.9954247-4.8601802-10.8556686-10.8556686-10.8556686-5.9954247,0-10.8556049,4.8602439-10.8556049,10.8556686s4.8601802,10.8556686,10.8556049,10.8556686Z"/>
  <path class="cls-1" d="M485.5941158,357.8676559c-5.9954247,0-10.8559873,4.8602439-10.8559873,10.8556686s4.8605626,10.8556686,10.8559873,10.8556686c5.9925565-.0054178,10.8503146-4.8627297,10.8560511-10.8556686,0-5.9954247-4.8605626-10.8556686-10.8560511-10.8556686Z"/>
  <path class="cls-1" d="M294.9171353,563.2492119c5.9954247,0,10.8556686-4.8602439,10.8556686-10.8556686s-4.8602439-10.8556686-10.8556686-10.8556686c-5.9932576.0054178-10.8502509,4.862411-10.8556686,10.8556686,0,5.9954247,4.8602439,10.8556686,10.8556686,10.8556686Z"/>
  <path class="cls-1" d="M454.7931734,637.9710718c2.0753222-4.7896218-.1245448-10.3555134-4.9124456-12.4311543-4.7907053-2.0757046-10.3562783.1241624-12.4315367,4.9138479l-43.4166831,100.1776367-.0095608.0219897h20.6024166l.009497-.0219897,40.1583126-92.6603303Z"/>
  <path class="cls-1" d="M616.6699597,547.441516c-5.9954247,0-10.8552862,4.8602439-10.8552862,10.8556686s4.8598615,10.8556686,10.8552862,10.8556686c5.9940225-.0054178,10.8502509-4.862411,10.8560511-10.8556686,0-5.9954247-4.8605626-10.8556686-10.8560511-10.8556686Z"/>
  <path class="cls-1" d="M594.9521849,655.046843c-5.9954247,0-10.8559873,4.8602439-10.8559873,10.8556686s4.8605626,10.8556686,10.8559873,10.8556686,10.8559873-4.8602439,10.8559873-10.8556686c-.0057365-5.9932576-4.8627297-10.8502509-10.8559873-10.8556686Z"/>
  <path class="cls-1" d="M584.6463237,440.8421084c-5.9954247,0-10.8552862,4.8602439-10.8552862,10.8556686s4.8598615,10.8556686,10.8552862,10.8556686c5.9939587-.0054178,10.8502509-4.862411,10.8559873-10.8556686,0-5.9954247-4.8605626-10.8556686-10.8559873-10.8556686Z"/>
  <path class="cls-1" d="M406.5229389,475.4519936c5.9954247,0,10.8559873-4.8602439,10.8559873-10.8556686s-4.8605626-10.8556686-10.8559873-10.8556686c-5.9932576.0054178-10.8502509,4.8627297-10.8560511,10.8556686,0,5.9954247,4.8606263,10.8556686,10.8560511,10.8556686Z"/>
  <path class="cls-1" d="M736.3669703,420.8785417l-2.7165304-2.0903007-50.955788-39.2092478h-166.3945639c-4.8538063,13.7303978-18.5112874,23.1237164-34.362389,21.5672247-9.5811557-.9408425-18.4213525-6.4051989-23.5972289-14.5226023-11.7937066-18.4961814-2.9518526-41.7627355,16.3998255-48.6047336,16.9572815-5.9954885,35.5643039,2.8911099,41.5597924,19.8487738h138.1787233l-202.4414312-155.7726877-4.657747-3.58401c-3.0748677-2.3659693-7.3571956-2.3659693-10.4320632.0000637l-4.4983373,3.4613773-71.1844427,54.774674h50.1864019c4.8538063-13.7303978,18.5112874-23.1237164,34.362389-21.5672247,9.5810919.9407787,18.4212887,6.4051989,23.5972289,14.5226023,11.7936429,18.4961814,2.9518526,41.7627355-16.3998255,48.6047336-16.9573453,5.9954247-35.5643677-2.8911099-41.5597924-19.8488376h-78.4022424l-46.1316201,35.4970599,46.5895804,46.8275159h81.7689682c5.4077567,0,10.4200167,3.6951698,11.2881974,9.0327505,1.1063073,6.8012055-4.1143772,12.6785867-10.7074131,12.6785867h-86.8452215c-2.8789359-.0003824-5.639382-1.1445504-7.6746765-3.1806097l-51.7608677-52.0143553-103.9981162,80.0238747h73.5093007c2.8788721.0007649,5.6397007,1.1449328,7.6749952,3.1809921l55.699072,43.2364947h73.3551175c4.8528502-13.7246613,18.5003881-23.1150479,34.3433312-21.5702842,9.5821117.9343411,18.4252405,6.3951282,23.6058973,14.5100458,11.8097687,18.4985397,2.968552,41.7768216-16.3894362,48.6207319-16.9565804,5.995106-35.5643039-2.8914923-41.5597924-19.8491563h-77.8502679c-2.8789359-.0003824-5.6397007-1.1446141-7.6750589-3.1806097l-55.6993907-43.2368771h-90.2292842v112.5033677h119.8485805c4.8551448-13.7326923,18.5168326-23.1267758,34.3695277-21.5664599,9.5803271.9430096,18.4188667,6.4087682,23.5931497,14.5266178,11.7888625,18.4953528,2.9479645,41.7585925-16.4025025,48.5999532-16.957664,5.9954885-35.5646864-2.8911099-41.5601748-19.8487738h-119.8485805v91.7976312h71.6932026c5.7270861-16.1382431,23.2862493-25.6380686,40.8642153-20.1469421,6.7673604,2.1140114,12.7372261,6.5605931,16.6746655,12.4565859,12.419044,18.5966968,3.5991797,42.3286687-15.9787697,49.250531-16.9572815,5.9954247-35.5646864-2.8911736-41.5601111-19.8488376h-71.6932026v45.4909855c0,4.6414937,3.7626687,8.4042262,8.4042262,8.4042262h227.7699861c-.0026133-.0071387-.0052903-.014851-.0079036-.0219897-2.8264154-7.7151504-5.8963115-17.2153583-8.4703866-28.0131524-8.874743-37.2284497-7.3232867-71.3104535,4.4868644-98.5599563,11.8086851-27.2498852,35.6190552-51.685274,68.853912-70.6635088,24.7291591-14.1212416,45.8838689-20.3118333,46.7724459-20.5681891,4.3521851-1.2565387,8.9837994.7507108,11.0425496,4.7857337.4212471.8233726,10.3685161,20.4936152,16.9709853,48.1946407,8.8750617,37.2284497,7.3225219,71.3104535-4.4868644,98.5599563-10.9280117,25.2160567-32.2417488,47.9625692-61.6809842,66.2645397-.0116641.0072662-.0230733.0146598-.0347374.021926h277.5794391c4.6414937,0,8.4042262-3.7627325,8.4042262-8.4042262v-77.4538151l-.0068837.0068837-28.7777582,28.7781407c-2.0347208,2.0347208-4.7944021,3.1778052-7.671872,3.1778052h-77.8514152c-6.7585645,19.1161647-29.5437025,27.9758017-47.9257922,16.8215187-10.7496079-6.52286-16.8145075-19.2236277-15.1292643-31.6840379,2.8815491-21.3050687,24.0916476-33.4556466,43.2066013-26.697592,9.2747015,3.2788943,16.5698796,10.5744548,19.8484552,19.8487738h73.3551813l40.9458642-40.9450993.0068837-.0068837v-44.9420066h-92.5886884c-3.2792767,9.2747015-10.5751559,16.5698796-19.8491563,19.8487738-19.1141888,6.7580546-40.3253709-5.3925232-43.2066013-26.6976557-1.685052-12.4605377,4.3799113-25.1613054,15.129583-31.6841654,18.3817709-11.1540281,41.1676101-2.294391,47.9261746,16.82171h92.5886884v-84.8880704h-124.6123882c-4.8565471,13.7352419-18.5230152,23.1303452-34.3776862,21.5655675-9.5795622-.9454316-18.4163809-6.4126563-23.5890067-14.5308883-11.7838909-18.4945879-2.9428017-41.754067,16.4062631-48.5947904,16.9572815-5.9954885,35.5650051,2.8911099,41.5604298,19.8487738h124.6123882v-12.6530277c0-2.8633837-1.3297104-5.564362-3.5990523-7.310539Z"/>
  <path class="cls-1" d="M442.1571001,278.4583469c5.9954247,0,10.8560511-4.8601802,10.8560511-10.8556049,0-5.9954885-4.8606263-10.8556686-10.8560511-10.8556686-5.9925565.0054178-10.8502509,4.8623473-10.8559873,10.8556686,0,5.9954247,4.8605626,10.8556049,10.8559873,10.8556049Z"/>
  <path class="cls-1" d="M868.1447015,334.5322006l-115.7067958-89.0127094-100.4707696-77.2897524L463.5802761,23.3056448c-12.6258751-9.7129667-30.2074742-9.7129667-42.833413-.0000637L117.2945431,256.7470734l-28.2226606,21.7112735-72.8889349,56.0723878c-3.8239851,2.9417182-4.5391299,8.4264709-1.5973479,12.2503922l47.1071362,61.232967,1.9983899,2.5976583c2.9419094,3.8243038,8.4272357,4.5392573,12.2511571,1.596838l6.3489179-4.8854206,134.829653-103.7478155,60.8576753-46.8282807,164.1850724-126.3362568,295.5996859,227.4568394,28.2158405,21.7113373,42.4069394,32.6311267c3.8238576,2.9424193,9.3091202,2.2274657,12.2510933-1.5967743l49.1048888-63.8308165c2.9417819-3.8239213,2.2265734-9.3086103-1.5973479-12.2503285Z"/>
</svg>