<?xml version="1.0" encoding="UTF-8"?>
<svg id="Layer_1" data-name="Layer 1" xmlns="http://www.w3.org/2000/svg" viewBox="0 0 413.143 500">
  <path d="M413.143,250.999c0-113.904-92.668-206.572-206.572-206.572S0,137.095,0,250.999c0,64.237,29.479,121.711,75.612,159.627l12.198-26.597c-36.59-32.701-59.678-80.211-59.678-133.029,0-98.392,80.048-178.44,178.44-178.44s178.44,80.048,178.44,178.44c0,52.819-23.088,100.329-59.677,133.029l12.197,26.597c46.132-37.916,75.612-95.39,75.612-159.627Z"/>
  <g>
    <g>
      <polygon points="113.416 251.571 113.416 179.652 299.726 179.652 299.726 251.926 286.388 250 286.388 192.991 126.754 192.991 126.754 251.571 113.416 251.571"/>
      <polygon points="232.098 275.455 178.208 275.455 143.215 142.847 156.242 139.942 188.485 262.117 222.029 262.117 256.357 141.489 269.596 143.701 232.098 275.455"/>
      <polygon points="142.602 422.374 177.433 262.115 231.984 262.115 264.011 421.01 251.278 425.35 221.068 275.453 188.186 275.453 155.778 424.543 142.602 422.374"/>
    </g>
    <rect x="195.485" y="181.173" width="6.668" height="96.718" transform="translate(-96.624 159.337) rotate(-35.736)"/>
    <polygon points="252.306 426.044 182.972 274.476 189.035 271.702 258.509 423.575 252.306 426.044"/>
    <rect x="163.773" y="226.197" width="98.296" height="6.669" transform="translate(-98.52 261.541) rotate(-53.018)"/>
    <polygon points="148.13 421.117 219.991 271.645 226.002 274.533 154.431 423.404 148.13 421.117"/>
    <path d="M145.237,147.258c-10.394,0-18.851-8.457-18.851-18.851s8.457-18.849,18.851-18.849,18.851,8.455,18.851,18.849-8.457,18.851-18.851,18.851ZM145.237,116.226c-6.718,0-12.182,5.464-12.182,12.18s5.464,12.182,12.182,12.182,12.182-5.464,12.182-12.182-5.464-12.18-12.182-12.18Z"/>
    <path d="M264.635,147.258c-10.394,0-18.851-8.457-18.851-18.851s8.457-18.849,18.851-18.849,18.851,8.455,18.851,18.849-8.457,18.851-18.851,18.851ZM264.635,116.226c-6.718,0-12.182,5.464-12.182,12.18s5.464,12.182,12.182,12.182,12.182-5.464,12.182-12.182-5.464-12.18-12.182-12.18Z"/>
    <path d="M120.313,283.822c-10.394,0-18.851-8.455-18.851-18.849s8.457-18.851,18.851-18.851,18.851,8.457,18.851,18.851-8.457,18.849-18.851,18.849ZM120.313,252.79c-6.718,0-12.182,5.464-12.182,12.182s5.464,12.18,12.182,12.18,12.182-5.464,12.182-12.18-5.464-12.182-12.182-12.182Z"/>
    <path d="M293.057,283.822c-10.394,0-18.851-8.455-18.851-18.849s8.457-18.851,18.851-18.851,18.851,8.457,18.851,18.851-8.457,18.849-18.851,18.849ZM293.057,252.79c-6.718,0-12.182,5.464-12.182,12.182s5.464,12.18,12.182,12.18,12.182-5.464,12.182-12.18-5.464-12.182-12.182-12.182Z"/>
    <path d="M147.452,455.573c-10.394,0-18.851-8.455-18.851-18.849s8.457-18.849,18.851-18.849,18.848,8.455,18.848,18.849-8.454,18.849-18.848,18.849ZM147.452,424.543c-6.718,0-12.182,5.464-12.182,12.18s5.464,12.18,12.182,12.18,12.179-5.464,12.179-12.18-5.464-12.18-12.179-12.18Z"/>
    <path d="M262.688,455.573c-10.394,0-18.851-8.455-18.851-18.849s8.457-18.849,18.851-18.849,18.848,8.455,18.848,18.849-8.454,18.849-18.848,18.849ZM262.688,424.543c-6.718,0-12.182,5.464-12.182,12.18s5.464,12.18,12.182,12.18,12.179-5.464,12.179-12.18-5.464-12.18-12.179-12.18Z"/>
  </g>
</svg>