<svg id="Layer_1" data-name="Layer 1" xmlns="http://www.w3.org/2000/svg" viewBox="0 0 398 113.52"><defs><style>.cls-1{fill:#727272;}.cls-2{fill:#959595;}.cls-3{fill:#878787;}.cls-4{fill:#9d9d9d;}.cls-5{fill:#9b9b9b;}.cls-6{fill:#b5b5b5;}.cls-7{fill:#8c8c8c;}.cls-8{fill:#7d7d7d;}.cls-9{fill:#919191;}.cls-10{fill:#a9a9a9;}.cls-11{fill:#9e9e9e;}.cls-12{fill:#7b7b7b;}.cls-13{fill:#7a7a7a;}.cls-14{fill:#929292;}.cls-15{fill:#a4a4a4;}.cls-16{fill:#aaa;}.cls-17{fill:#565656;}.cls-18{fill:#7e7e7e;}.cls-19{fill:#b2b2b2;}.cls-20{fill:#9f9f9f;}.cls-21{fill:#898989;}.cls-22{fill:#b7b7b7;}.cls-23{fill:#939393;}.cls-24{fill:#a5a5a5;}.cls-25{fill:#454545;}.cls-26{fill:#8d8d8d;}.cls-27{fill:#868686;}.cls-28{fill:#a1a1a1;}.cls-29{fill:#acacac;}.cls-30{fill:#979797;}.cls-31{fill:#a6a6a6;}.cls-32{fill:#ababab;}.cls-33{fill:#a0a0a0;}.cls-34{fill:#838383;}.cls-35{fill:#909090;}.cls-36{fill:#8b8b8b;}.cls-37{fill:#969696;}.cls-38{fill:#b0b0b0;}.cls-39{fill:#767676;}.cls-40{fill:#858585;}.cls-41{fill:#9c9c9c;}.cls-42{fill:#484848;}.cls-43{fill:#949494;}.cls-44{fill:#6a6a6a;}.cls-45{fill:#b1b1b1;}.cls-46{fill:#999;}.cls-47{fill:#9a9a9a;}.cls-48{fill:#6c6c6c;}.cls-49{fill:#717171;}.cls-50{fill:#8a8a8a;}.cls-51{fill:#b8b8b8;}.cls-52{fill:#7f7f7f;}.cls-53{fill:#989898;}.cls-54{fill:#707070;}.cls-55{fill:#818181;}.cls-56{fill:#adadad;}.cls-57{fill:#a3a3a3;}.cls-58{fill:#6b6b6b;}.cls-59{fill:#333;}.cls-60{fill:#757575;}.cls-61{fill:#a7a7a7;}.cls-62{fill:#616161;}.cls-63{fill:#b9b9b9;}.cls-64{fill:#828282;}.cls-65{fill:#6e6e6e;}.cls-66{fill:#777;}.cls-67{fill:#bfbfbf;}.cls-68{fill:gray;}.cls-69{fill:#8e8e8e;}.cls-70{fill:#8f8f8f;}.cls-71{fill:#505050;}.cls-72{fill:#737373;}.cls-73{fill:#b4b4b4;}.cls-74{fill:#bdbdbd;}.cls-75{fill:#6f6f6f;}.cls-76{fill:#747474;}.cls-77{fill:#5b5b5b;}.cls-78{fill:#6d6d6d;}.cls-79{fill:#b3b3b3;}.cls-80{fill:#a2a2a2;}.cls-81{fill:#bcbcbc;}.cls-82{fill:#aeaeae;}.cls-83{fill:#787878;}.cls-84{fill:#a8a8a8;}.cls-85{fill:#bebebe;}.cls-86{fill:#b6b6b6;}.cls-87{fill:#848484;}.cls-88{fill:#afafaf;}.cls-89{fill:#626262;}.cls-90{fill:#c6c6c6;}.cls-91{fill:#676767;}.cls-92{fill:#646464;}.cls-93{fill:silver;}.cls-94{fill:#888;}.cls-95{fill:#696969;}.cls-96{fill:#bababa;}.cls-97{fill:#797979;}.cls-98{fill:#1a1a1a;}.cls-99{fill:#606060;}.cls-100{fill:#5d5d5d;}.cls-101{fill:#666;}</style></defs><polygon points="150.36 21.85 150.36 11.02 144.9 11.02 144.9 27.21 161.09 27.21 161.09 21.85 150.36 21.85"/><polygon points="171.92 0.19 144.9 0.19 144.9 8.24 150.26 8.24 150.26 5.56 166.55 5.56 166.55 21.85 163.87 21.85 163.87 27.21 171.92 27.21 171.92 0.19"/><path d="M180.11,66.22h8.24V86.05h11.78v6.81h-20V66.22Z" transform="translate(-1 -65.74)"/><path d="M203.68,66.22h20.7V73H211.92v3.35h10.64V82.7H211.92V92.86h-8.24Z" transform="translate(-1 -65.74)"/><path d="M245.55,93.05H230.61V66.12h14.94v1.73h-13V78h12.27v1.73H232.52v11.5h13Z" transform="translate(-1 -65.74)"/><path d="M271.62,93.05H269.7L253.51,69.19h-.19c.19,2.87.19,5,.19,6.42V93.05h-1.73V66.12h1.92L269.89,90h.1c-.1-2.2-.19-4.31-.19-6.32V66.12h1.82V93.05Z" transform="translate(-1 -65.74)"/><path d="M294.23,93.05h-15V66.12h15v1.73h-13V78h12.27v1.73H281.2v11.5h13Z" transform="translate(-1 -65.74)"/><path d="M302.38,81.36V93.05h-1.92V66.12H307c3.35,0,5.84.58,7.47,1.82a6.5,6.5,0,0,1,2.4,5.56,7.32,7.32,0,0,1-1.44,4.6A8,8,0,0,1,311,80.78l7.38,12.27h-2.3l-7-11.69Zm0-1.63h5.17a8.18,8.18,0,0,0,5.37-1.53,5.55,5.55,0,0,0,1.91-4.51,5.32,5.32,0,0,0-1.82-4.5c-1.24-1-3.26-1.44-6.13-1.44h-4.5Z" transform="translate(-1 -65.74)"/><path d="M333.61,79.25h9.87v12a22.85,22.85,0,0,1-8.72,1.63c-4.21,0-7.47-1.15-9.67-3.55s-3.36-5.65-3.36-10a15.27,15.27,0,0,1,1.63-7.1,11.58,11.58,0,0,1,4.79-4.79,14.78,14.78,0,0,1,7.19-1.72,18.82,18.82,0,0,1,7.86,1.63L342.43,69a17,17,0,0,0-7.19-1.63c-3.54,0-6.32,1-8.33,3.26a12.26,12.26,0,0,0-3.07,8.62c0,3.93,1,6.9,3,8.91s4.79,3,8.63,3a16.86,16.86,0,0,0,6.22-1v-9.3h-8V79.25Z" transform="translate(-1 -65.74)"/><path d="M356.42,80.78l7.95-14.66h2l-9,16.39V92.86h-1.92V82.7l-9.1-16.58h2.2Z" transform="translate(-1 -65.74)"/><path d="M152,155.24V157c0,8.42,3.68,12.68,11.32,12.68,7,0,10.45-4.94,10.45-10.07,0-7.26-3.67-10.45-9.87-12.29l-7.55-2.61c-10.06-3.87-14.41-9.1-14.41-19,0-12.58,8.51-19.55,21.48-19.55,17.71,0,19.55,11,19.55,18.2v1.55h-11v-1.46c0-6.29-2.8-10-9.67-10-4.74,0-9.29,2.61-9.29,10,0,5.91,3,8.91,10.35,11.71l7.45,2.71c9.78,3.49,14,8.81,14,18.29,0,14.71-8.91,20.81-22.84,20.81-17.13,0-21-11.42-21-21.1v-1.64Z" transform="translate(-1 -65.74)"/><path d="M192,142.08c0-24.68,7-35.91,22.84-35.91s22.84,11.23,22.84,35.91-7,35.9-22.84,35.9S192,166.75,192,142.08Zm34.64-.29c0-23.23-5.22-27.29-11.8-27.29S203,118.56,203,141.79c0,23.8,5.23,27.87,11.81,27.87S226.65,165.59,226.65,141.79Z" transform="translate(-1 -65.74)"/><path d="M281.62,168.59h-.19c-3,6.39-7,9.39-15.1,9.39-15.1,0-20.52-11.23-20.52-35.9s7-35.91,22.94-35.91c17.32,0,20.23,13.65,20.23,19.94v1.26H278.52v-1.65c0-5.13-2.12-11.22-9.67-11.22-7.84,0-12,5.22-12,27.29,0,22.25,3.67,27.87,11.13,27.87,8.42.09,11.51-6,11.51-21.1H267.88v-8.32h22.06v36.38h-8.32Z" transform="translate(-1 -65.74)"/><path d="M299.43,107.53h13.44l20,51.48h.19V107.53h10.45v69.09H330.1l-20-52.83h-.19v52.83H299.43Z" transform="translate(-1 -65.74)"/><path d="M353.32,142.08c0-24.68,7-35.91,22.84-35.91S399,117.4,399,142.08,392,178,376.16,178,353.32,166.75,353.32,142.08Zm34.65-.29c0-23.23-5.23-27.29-11.81-27.29s-11.8,4.06-11.8,27.29c0,23.8,5.22,27.87,11.8,27.87S388,165.59,388,141.79Z" transform="translate(-1 -65.74)"/><path class="cls-1" d="M75.16,77.84c.59,1,1.24,2.07,1.77,3.16,4.36-.09,8.73,0,13.1-.06-.28-.5-.58-1-.85-1.5-1.74-2.92-3.39-5.9-5.11-8.83H71c.85,1.5,1.71,3,2.55,4.49C74.14,76,74.62,76.93,75.16,77.84Z" transform="translate(-1 -65.74)"/><polygon class="cls-2" points="44.92 5.1 44.94 5.23 45.03 5.02 44.92 5.1"/><polygon class="cls-3" points="52.77 5.49 52.74 5.35 52.64 5.55 52.77 5.49"/><polygon class="cls-4" points="52.46 5.89 52.59 5.84 52.59 5.7 52.48 5.76 52.46 5.89"/><polygon class="cls-5" points="54.63 5.93 54.65 6.07 54.75 5.87 54.63 5.93"/><polygon class="cls-6" points="52.31 6.22 52.43 6.15 52.41 6.01 52.3 6.09 52.31 6.22"/><polygon class="cls-7" points="44.27 6.25 44.24 6.37 44.38 6.21 44.27 6.25"/><path class="cls-8" d="M45.22,72.2a.68.68,0,0,0-.3.5A.39.39,0,0,0,45.22,72.2Z" transform="translate(-1 -65.74)"/><polygon class="cls-9" points="52.09 6.67 52.08 6.52 51.97 6.72 52.09 6.67"/><polygon class="cls-10" points="51.92 7 51.92 6.86 51.79 7.05 51.92 7"/><polygon class="cls-11" points="43.76 7.09 43.76 7.23 43.89 7.04 43.76 7.09"/><path class="cls-12" d="M52.44,73.32a.44.44,0,0,0,.32-.46C52.56,72.9,52.46,73.05,52.44,73.32Z" transform="translate(-1 -65.74)"/><polygon class="cls-7" points="43.6 7.42 43.58 7.54 43.72 7.37 43.6 7.42"/><path class="cls-13" d="M44.56,73.37a.66.66,0,0,0-.31.49A.39.39,0,0,0,44.56,73.37Z" transform="translate(-1 -65.74)"/><polygon class="cls-14" points="51.42 7.85 51.43 7.72 51.29 7.89 51.42 7.85"/><polygon class="cls-15" points="53.46 7.93 53.47 8.06 53.59 7.87 53.46 7.93"/><polygon class="cls-16" points="51.13 8.23 51.26 8.17 51.24 8.03 51.14 8.1 51.13 8.23"/><polygon class="cls-11" points="43.09 8.26 43.09 8.4 43.22 8.21 43.09 8.26"/><path class="cls-17" d="M55.65,71.81a2.56,2.56,0,0,0-.4.59c-.18.45-.52.75-.66,1.21l-.12.19,0,.11a1.67,1.67,0,0,0-.33.54l0,.12-.11.07,0,.14-.11.2c-.09.12-.18.25-.26.38l0,.07-.1.18-.1.22A6.37,6.37,0,0,0,52.62,77a8.69,8.69,0,0,0-.55,1l-.11.21-.24.36-.06.1,0,.07-.09.11-.14.32-.1.2c-.15.21-.27.42-.4.64l-.11.2,0,.14-.15.15,0,.11c.07.29,0,.45-.28.5l0,.07-.12.19,0,.15-.15.16,0,.11.07.16a9.12,9.12,0,0,0,1.48.06h8a19.43,19.43,0,0,1,2.16,0v.39a.86.86,0,0,0,.36-.55l.12-.2.05-.13.12-.2.05-.15,0-.11c4.84-.07,9.7,0,14.54,0-.53-1.09-1.18-2.11-1.77-3.16s-1-1.86-1.6-2.74c-.84-1.5-1.7-3-2.55-4.49H56.35a3.37,3.37,0,0,0-.6,1Z" transform="translate(-1 -65.74)"/><path class="cls-18" d="M51.77,74.49c.24-.1.35-.25.32-.46C51.89,74.07,51.78,74.23,51.77,74.49Z" transform="translate(-1 -65.74)"/><polygon class="cls-19" points="53.09 8.71 52.96 8.76 52.96 8.9 53.07 8.84 53.09 8.71"/><path class="cls-1" d="M43.88,74.56a.56.56,0,0,0-.3.49A.39.39,0,0,0,43.88,74.56Z" transform="translate(-1 -65.74)"/><polygon class="cls-20" points="50.75 9.02 50.76 8.88 50.62 9.06 50.75 9.02"/><polygon class="cls-15" points="52.79 9.1 52.81 9.24 52.92 9.04 52.79 9.1"/><polygon class="cls-6" points="50.47 9.4 50.59 9.34 50.58 9.19 50.46 9.27 50.47 9.4"/><polygon class="cls-2" points="42.41 9.44 42.43 9.58 42.53 9.38 42.41 9.44"/><polygon class="cls-21" points="50.25 9.84 50.23 9.7 50.13 9.9 50.25 9.84"/><polygon class="cls-10" points="52.29 9.94 52.31 10.09 52.41 9.87 52.29 9.94"/><polygon class="cls-16" points="50.08 10.19 50.08 10.04 49.95 10.24 50.08 10.19"/><polygon class="cls-11" points="42.04 10.21 41.91 10.28 41.93 10.42 42.03 10.34 42.04 10.21"/><polygon class="cls-22" points="49.8 10.57 49.92 10.5 49.9 10.36 49.79 10.44 49.8 10.57"/><polygon class="cls-23" points="49.59 11.01 49.56 10.87 49.47 11.07 49.59 11.01"/><polygon class="cls-11" points="41.37 11.39 41.24 11.45 41.26 11.59 41.36 11.51 41.37 11.39"/><polygon class="cls-23" points="48.92 12.18 48.89 12.04 48.8 12.24 48.92 12.18"/><polygon class="cls-24" points="50.95 12.29 50.96 12.43 51.07 12.22 50.95 12.29"/><path class="cls-25" d="M45.24,72.11l0,.09a.39.39,0,0,1-.3.5l0,.08-.13.19,0,.14-.14.17,0,.09a.39.39,0,0,1-.31.49l0,.09-.13.19-.05.14-.14.17,0,.11a.39.39,0,0,1-.3.49l0,.07-.1.2-.25.37,0,.07L43,76v.13l-.1.08c-.2.31-.38.64-.56,1v.13l-.1.08c-.16.24-.3.5-.45.76l-.11.21,0,.12-.1.07,0,.14-.12.18-.21.33-.11.19-.05.14-.14.18-.23.4,0,.06-.1.19-.12.2-.05.14-.14.19c-.07.13-.15.25-.23.38l0,.09,0,.07,0,.1c-.11.17-.21.35-.32.53a15.16,15.16,0,0,1,2-.07h5.19a.51.51,0,0,1,.54.24h.12a10.6,10.6,0,0,0,.54-1l.13-.18v-.13a.41.41,0,0,1,.33-.45l0-.08.13-.19,0-.14.11-.2a3.73,3.73,0,0,0,.4-.63V79l.09-.08c.09-.13.19-.25.28-.37s.21-.39.3-.6l.09-.21a3.62,3.62,0,0,0,.58-1l.09-.21.24-.29v-.13l.11-.08L51,76l.13-.19.05-.14.1-.2a3.15,3.15,0,0,1,.24-.3V75l.12-.08,0-.13.13-.18,0-.13c0-.26.12-.42.32-.46l0-.06v-.13l.1-.08,0-.13.14-.17v-.14c0-.27.12-.42.32-.46l0-.07.13-.19,0-.14.11-.2a3,3,0,0,1,.23-.3v-.14l.11-.08.05-.12,0-.12.11-.06,0-.15.1-.2.37-.48c-2.61,0-5.39,0-8,0l-.1.13-.09.21a4.93,4.93,0,0,0-.55,1Z" transform="translate(-1 -65.74)"/><polygon class="cls-20" points="40.7 12.56 40.58 12.62 40.58 12.75 40.68 12.68 40.7 12.56"/><path class="cls-26" d="M29.18,81.89h6.36a6.57,6.57,0,0,1,1.77.1c.55-1.07,1.21-2.09,1.78-3.15.47-.77.91-1.53,1.35-2.32,1.16-2,2.26-4,3.45-5.91H33.08c-1,1.84-2.1,3.65-3.14,5.48-.46.77-.9,1.55-1.35,2.34-.67,1.12-1.3,2.26-2,3.39A24.05,24.05,0,0,0,29.18,81.89Z" transform="translate(-1 -65.74)"/><polygon class="cls-27" points="40.42 12.95 40.41 13.07 40.53 12.89 40.42 12.95"/><polygon class="cls-28" points="48.13 13.42 48.25 13.35 48.22 13.21 48.13 13.3 48.13 13.42"/><polygon class="cls-29" points="40.09 13.46 40.09 13.59 40.2 13.4 40.09 13.46"/><polygon class="cls-20" points="50.28 13.46 50.3 13.59 50.4 13.39 50.28 13.46"/><path class="cls-7" d="M90,80.94c-4.37.07-8.74,0-13.1.06-4.84.07-9.7,0-14.54,0l0,.11H89.26c2.89-.07,5.81,0,8.71,0l-.86-1.48c-1.74-3-3.46-6-5.22-9H84.07c1.72,2.93,3.37,5.91,5.11,8.83C89.45,80,89.75,80.44,90,80.94Z" transform="translate(-1 -65.74)"/><polygon class="cls-30" points="39.92 13.78 39.9 13.91 40.04 13.73 39.92 13.78"/><polygon class="cls-2" points="47.74 14.19 47.73 14.05 47.62 14.26 47.74 14.19"/><polygon class="cls-31" points="49.78 14.29 49.79 14.43 49.9 14.23 49.78 14.29"/><polygon class="cls-32" points="47.57 14.53 47.57 14.39 47.44 14.59 47.57 14.53"/><polygon class="cls-33" points="39.41 14.62 39.41 14.76 39.54 14.56 39.41 14.62"/><path class="cls-34" d="M48.08,80.85q.27,0,.33-.45A.41.41,0,0,0,48.08,80.85Z" transform="translate(-1 -65.74)"/><polygon class="cls-35" points="39.24 14.95 39.23 15.09 39.37 14.9 39.24 14.95"/><path class="cls-36" d="M50.55,80.57a.72.72,0,0,0-.28.5C50.52,81,50.62,80.86,50.55,80.57Z" transform="translate(-1 -65.74)"/><polygon class="cls-37" points="47.07 15.37 47.08 15.24 46.95 15.42 47.07 15.37"/><polygon class="cls-31" points="49.11 15.46 49.12 15.6 49.24 15.4 49.11 15.46"/><polygon class="cls-20" points="61.3 15.7 61.29 15.57 61.17 15.76 61.3 15.7"/><polygon class="cls-38" points="61.13 16.04 61.12 15.89 61 16.09 61.13 16.04"/><path class="cls-13" d="M29,94.13a2.8,2.8,0,0,1,1,.09l.09.35c2.36-4.19,4.86-8.4,7.25-12.58a6.57,6.57,0,0,0-1.77-.1H29.18a24.05,24.05,0,0,1-2.55-.07c-1,1.5-1.81,3.08-2.71,4.62-1.5,2.57-3,5.2-4.48,7.74C22.63,94.1,25.82,94.17,29,94.13Z" transform="translate(-1 -65.74)"/><path class="cls-39" d="M50,81.91l-.07-.16a.63.63,0,0,0-.29.49A.72.72,0,0,0,50,81.91Z" transform="translate(-1 -65.74)"/><path d="M46.75,81.93H41.56a15.16,15.16,0,0,0-2,.07,4.48,4.48,0,0,0-.35.65v.12l-.1.08c-.61,1-1.18,2-1.72,3l0,.13-.1.08a7.18,7.18,0,0,0-.56,1v.12l-.1.08a4.73,4.73,0,0,0-.55,1l-.15.16,0,.09a.44.44,0,0,1-.3.52l0,.06-.11.21a7,7,0,0,0-.55,1l0,.13-.11.06,0,.15-.15.16,0,.1a.42.42,0,0,1-.3.51l-.05.06-.09.21a3.36,3.36,0,0,0-.56,1l-.14.17v.08a.48.48,0,0,1-.32.52l0,.06v.13l-.11.07,0,.14-.15.17,0,.09a.37.37,0,0,1-.32.47A2.28,2.28,0,0,1,32,95v.13l-.11.08-.05.12v.13l-.11.08a5.82,5.82,0,0,0-.56,1v.12l-.1.08a6.26,6.26,0,0,0-.56,1v.12l-.1.08a3.46,3.46,0,0,1-.22.31l-.1.19,0,.14,0,.13-.13,0,0,.15-.12.19-.23.36-.07.12c-.24.45-.56.87-.76,1.34V101l-.1.08c-.07.1-.13.21-.2.32a3.06,3.06,0,0,0,.37.63l.1.08v.13a4,4,0,0,1,.2.35l.11.15a13,13,0,0,0,.74,1.31l.11.07v.13c.14.35.38.64.55,1l.13.19,0,.15.13,0,0,.13,0,.13L31,106v.14a3.77,3.77,0,0,1,.39.64l.11.07v.13a2.44,2.44,0,0,1,.22.31l.11.19,0,.15.12,0,0,.13,0,.13.12.07v.14a2.92,2.92,0,0,1,.38.64l.12.06v.13l.17.36.12,0,0,.11,0,.15.11.07,0,.12c.35.74.85,1.41,1.22,2.15l.12.06v.14c.06.11.12.23.19.34l.12.15.06.15.1.07V113a7.25,7.25,0,0,0,.57,1l.12.2,0,.13.12.07v.14a1.7,1.7,0,0,1,.23.3l.1.2a7.54,7.54,0,0,0,.57,1l.11.19,0,.15.13,0,0,.13,0,.15.12,0,0,.14c.07.09.14.2.21.31l.11.19,0,.15.12.05v.13c.06.13.12.25.19.37l.1,0,0,.09.05.15.13.19.05.14.12.07v.13l.22.3.1.2a5.25,5.25,0,0,0,.57,1l.12.2,0,.15.12,0,0,.13.18.36.11,0,0,.1,0,.16.14.18,0,.14.12.06,0,.14.18.35.09.05,0,.09a6,6,0,0,0,.58,1l.1.2a4.14,4.14,0,0,0,.39.68l.1.15a11.48,11.48,0,0,0,.75,1.32l.09.07,0,.12c.49.9,1,1.79,1.55,2.67l.11.17a11.4,11.4,0,0,0,.74,1.32l.12.19,0,.13.11.08v.13l.21.28.31.14c.45-.81,1-1.61,1.39-2.43l.09-.19a2.86,2.86,0,0,0,.4-.64v-.13l.1-.07.06-.14.12-.16c.32-.49.57-1,.88-1.51v-.14l.12-.06,0-.14.13-.17v-.11a.38.38,0,0,1,.33-.46l0-.1v-.35l0-.14-.13-.06V124l-.22-.3-.1-.2c-.15-.34-.38-.64-.56-1l-.1-.08v-.12a2.67,2.67,0,0,0-.39-.65l-.12-.19,0-.14-.12-.06v-.13c-.14-.35-.39-.64-.55-1l-.13-.2,0-.13-.13-.06v-.14l-.22-.3-.1-.2a2.12,2.12,0,0,0-.27-.49l-.08-.13-.21-.36-.13-.19,0-.15-.14,0v-.14c-.07-.11-.13-.22-.2-.32l-.13-.18,0-.15-.12,0,0-.13,0-.14-.13-.06v-.14a3.46,3.46,0,0,1-.22-.31L44.6,116l0-.15-.12,0,0-.13,0-.14-.12-.06v-.14L44,115,44,114.9v-.12a2.92,2.92,0,0,0-.4-.65l-.08-.2a1.72,1.72,0,0,0-.25-.46l-.12-.2,0-.15-.13-.05,0-.13,0-.13-.13-.07v-.14a2,2,0,0,1-.21-.3l-.11-.2a2.59,2.59,0,0,0-.4-.65l-.11-.19,0-.15-.11,0,0-.13,0-.14-.13-.06v-.14a2,2,0,0,1-.21-.3l-.12-.2,0-.15-.13,0,0-.13,0-.14-.12-.06v-.14a1.69,1.69,0,0,1-.21-.31l-.12-.19,0-.15-.13,0,0-.13,0-.13-.13-.07v-.14a1.69,1.69,0,0,1-.21-.31l-.11-.19a2.92,2.92,0,0,0-.4-.65l-.1-.19-.05-.15-.11-.06,0-.12,0-.13-.13-.07v-.14a2.26,2.26,0,0,1-.23-.31l-.11-.19,0-.15-.12,0,0-.13v-.09a.41.41,0,0,1-.34-.44v-.12l-.13-.19a3.71,3.71,0,0,0-.56-1l-.11-.21,0-.12-.12-.08v-.14a1.39,1.39,0,0,1-.23-.31l-.11-.19,0-.14-.12-.06,0-.13,0-.12-.12-.08v-.14a.89.89,0,0,1-.28-.5,1.41,1.41,0,0,0,.26-.48l0-.13.13-.06,0-.14.12-.2a1.6,1.6,0,0,1,.22-.31v-.13l.12-.08,0-.12,0-.13.11-.06,0-.14.12-.2a3,3,0,0,0,.39-.64l.1-.2a3.46,3.46,0,0,1,.22-.31v-.13l.12-.08,0-.12,0-.13.13-.06,0-.14.12-.19a1.77,1.77,0,0,1,.21-.32v-.13l.12-.07,0-.13,0-.14.13,0,0-.15.12-.2a1.29,1.29,0,0,1,.22-.3v-.14l.12-.07,0-.13,0-.13.11-.06.05-.15.11-.19a2.65,2.65,0,0,0,.4-.64l.09-.22a5.09,5.09,0,0,0,.57-1v-.13l.09-.09a4.2,4.2,0,0,0,.57-1v-.12l.09-.09c.07-.1.15-.19.23-.29v-.14l.11-.08.07-.11.1-.22a4,4,0,0,0,.57-.95l.1-.22a3.87,3.87,0,0,0,.57-1v-.12l.09-.08a3.8,3.8,0,0,0,.57-1l.1-.2.23-.3v-.14l.12-.08.06-.11.1-.22a3.69,3.69,0,0,0,.57-1l.1-.21a3.75,3.75,0,0,0,.57-1v-.13l.09-.08a3.4,3.4,0,0,1,.23-.3V83.7l.12-.08.05-.11,0-.13.11-.07,0-.14.11-.2a2.31,2.31,0,0,0,.41-.65v-.15A.51.51,0,0,0,46.75,81.93Z" transform="translate(-1 -65.74)"/><polygon class="cls-40" points="46.29 16.59 46.4 16.55 46.41 16.42 46.29 16.44 46.29 16.59"/><polygon class="cls-11" points="48.44 16.64 48.46 16.78 48.57 16.57 48.44 16.64"/><polygon class="cls-41" points="60.62 16.88 60.63 16.75 60.49 16.93 60.62 16.88"/><polygon class="cls-23" points="38.19 16.91 38.06 16.97 38.08 17.11 38.18 17.03 38.19 16.91"/><polygon class="cls-22" points="60.34 17.27 60.47 17.2 60.45 17.05 60.33 17.13 60.34 17.27"/><polygon class="cls-12" points="45.9 17.38 45.88 17.23 45.77 17.43 45.9 17.38"/><path d="M96.28,91.79q-2.34-4.14-4.72-8.25a3.66,3.66,0,0,1-.18-.46c2.58,0,5.19,0,7.77,0a4.43,4.43,0,0,0-.52,0q-17.55,0-35.1,0a2.51,2.51,0,0,0-.26.45l-.09.18A2.18,2.18,0,0,1,63,84v.14l-.14.06,0,.14,0,.13-.12.06,0,.15-.11.18a1.73,1.73,0,0,1-.22.31v.14l-.14.06,0,.14v.13l-.13.06,0,.15-.11.19a2.65,2.65,0,0,0-.4.64v.12l-.09.08c-.18.36-.43.62-.57,1l-.1.18a1.73,1.73,0,0,1-.22.31v.15l-.14,0,0,.14,0,.13-.12.06,0,.15L60,89.2a2.1,2.1,0,0,1-.22.3v.15l-.14,0,0,.14V90l-.13,0,0,.15-.11.19a2.37,2.37,0,0,0-.4.64v.13l-.1.08-.21.3v.14l-.13,0,0,.14V92l-.13.06,0,.14-.11.2a1.6,1.6,0,0,1-.22.31v.14l-.13.06,0,.13v.14l-.13,0,0,.15-.11.19a2.32,2.32,0,0,1-.22.3V94l-.14,0,0,.14v.14l-.13,0,0,.15-.11.19a17.16,17.16,0,0,0-.9,1.48v.13l-.11.07c-.16.35-.42.62-.56,1v.13l-.11.07c-.17.36-.41.61-.56,1l-.1.2c-.21.37-.42.63-.58,1l-.09.18a1.39,1.39,0,0,1-.23.31v.15l-.14,0,0,.14,0,.13-.12.06,0,.15-.11.19a1.66,1.66,0,0,1-.22.3v.15l-.14,0,0,.15,0,.12-.12.06,0,.15-.11.19a2.54,2.54,0,0,0-.4.64V103l-.1.08c-.17.35-.42.61-.57,1l-.09.19a3.46,3.46,0,0,1-.22.31v.14l-.14.05,0,.14-.13.2c-.17.35-.42.62-.56,1v.13l-.11.08c-.18.36-.41.61-.56,1l-.1.2-.22.3v.14l-.13,0,0,.14-.13.2c-.16.35-.42.62-.56,1v.13l-.11.07c-.17.36-.42.61-.56,1v.13l-.11.08a10.92,10.92,0,0,0-.56,1l-.1.2a3.25,3.25,0,0,1-.23.29v.15l-.14.05,0,.14,0,.13-.12.06,0,.15-.1.19a1.7,1.7,0,0,1-.23.3v.15l-.14,0,0,.15,0,.13-.13.05a.58.58,0,0,0,.19.49l.1.18c.41.74.81,1.45,1.24,2.15l.1.08v.12c.14.35.38.62.56,1l.1.08V118c.26.51.77,1.31,1.07,1.81l.1.2c.15.36.4.61.57,1l.12.2,0,.14.13.06v.14a8.77,8.77,0,0,1,.57,1c.23,0,.28-.5.49-.65l0-.15.15,0,0-.14.13-.2c.29-.44.59-1.07.89-1.47v-.15l.14-.05,0-.15,0-.13.12,0,0-.15.1-.19.23-.3,0-.15.15-.05,0-.14.12-.2c.16-.21.19-.45.39-.63l0-.15.15-.06,0-.13.12-.21c.44-.73,1-1.57,1.4-2.3v-.14l.12-.06,0-.14.11-.2.22-.29v-.15l.14-.06,0-.14.12-.2.21-.3v-.14l.13,0,0-.15,0-.14.13,0,0-.15.12-.2.21-.3v-.15l.14,0v-.28l.13-.06a2.52,2.52,0,0,1,.38-.63v-.15l.14-.06,0-.14v-.13l.13-.05,0-.15.11-.19a2.42,2.42,0,0,0,.4-.65V109l.09-.08.22-.3v-.14l.14,0v-.15l0-.14.13,0,0-.15.12-.2a3.25,3.25,0,0,1,.23-.29l0-.15.14,0,0-.15V107l.13,0,0-.15.12-.2a3.25,3.25,0,0,1,.23-.29l0-.15.14-.06,0-.14.12-.2.21-.3v-.14l.13-.05,0-.15,0-.14.14,0,0-.15.12-.2c.19-.26.34-.55.56-.8v-.14l.13-.06,0-.14,0-.13.13-.05,0-.15.12-.19a1.69,1.69,0,0,1,.21-.31v-.14l.13-.06,0-.14,0-.13.13-.06,0-.14.1-.2a2.5,2.5,0,0,0,.41-.64V101l.1-.08a2.28,2.28,0,0,1,.21-.3v-.14l.13-.06,0-.14,0-.13.13,0,0-.15.11-.19a1.6,1.6,0,0,1,.22-.31v-.14l.13-.06,0-.14,0-.13.12-.06,0-.14.11-.2A2.2,2.2,0,0,0,65,97.9v-.13l.11-.07c.18-.35.42-.63.57-1l.1-.21.22-.29v-.14l.13-.06,0-.14,0-.13.12-.06,0-.14.11-.19a1.6,1.6,0,0,1,.22-.31v-.14l.13-.06,0-.14.12-.2c.17-.35.42-.62.57-1l.1-.2c.29-.43.64-1.12.92-1.52,5.11,0,10.23,0,15.34,0q9.87,0,19.75,0a4.07,4.07,0,0,0,.5,0L104,91.6a1,1,0,0,1-.71.18C101,91.78,98.62,91.76,96.28,91.79Z" transform="translate(-1 -65.74)"/><path class="cls-42" d="M101.17,86.66l0-.14-.12-.19c-.19-.32-.36-.65-.56-1l-.09-.08,0-.12L100,84.5l-.13-.18-.06-.15-.1-.17a8.4,8.4,0,0,1-.51-.93c-2.58,0-5.19,0-7.77,0a3.66,3.66,0,0,0,.18.46q2.37,4.11,4.72,8.25c2.34,0,4.69,0,7,0a1,1,0,0,0,.71-.18,1.12,1.12,0,0,0-.23-.39l-.12-.2-.06-.15-.11-.17-.38-.66-.13-.19,0-.14-.11-.19c-.2-.32-.35-.66-.57-1l-.1-.2c-.15-.2-.25-.43-.39-.64l-.11-.21-.09-.19,0-.07-.25-.38Z" transform="translate(-1 -65.74)"/><polygon class="cls-2" points="45.59 17.77 45.73 17.72 45.73 17.57 45.62 17.64 45.59 17.77"/><polygon class="cls-43" points="60.13 17.71 60.11 17.57 59.99 17.77 60.13 17.71"/><polygon class="cls-23" points="47.77 17.81 47.79 17.96 47.89 17.75 47.77 17.81"/><polygon class="cls-44" points="62.17 17.81 62.18 17.93 62.27 17.75 62.17 17.81"/><polygon class="cls-19" points="45.44 18.1 45.57 18.03 45.55 17.88 45.44 17.96 45.44 18.1"/><polygon class="cls-29" points="59.95 18.05 59.95 17.91 59.82 18.1 59.95 18.05"/><path class="cls-13" d="M60.47,84.36c.24-.1.35-.25.33-.46A.45.45,0,0,0,60.47,84.36Z" transform="translate(-1 -65.74)"/><polygon class="cls-29" points="61.95 18.24 61.83 18.3 61.83 18.44 61.96 18.39 61.95 18.24"/><polygon class="cls-45" points="98.76 18.32 98.66 18.26 98.76 18.43 98.76 18.32"/><polygon class="cls-27" points="45.11 18.61 45.23 18.54 45.21 18.4 45.12 18.48 45.11 18.61"/><polygon class="cls-46" points="61.8 18.58 61.67 18.63 61.66 18.77 61.78 18.71 61.8 18.58"/><polygon class="cls-35" points="98.94 18.63 98.82 18.58 98.95 18.76 98.94 18.63"/><polygon class="cls-2" points="59.45 18.89 59.46 18.75 59.33 18.94 59.45 18.89"/><polygon class="cls-44" points="61.5 18.97 61.51 19.1 61.62 18.92 61.5 18.97"/><polygon class="cls-29" points="61.29 19.41 61.16 19.48 61.15 19.61 61.29 19.56 61.29 19.41"/><polygon class="cls-33" points="99.44 19.62 99.46 19.48 99.33 19.42 99.35 19.54 99.44 19.62"/><polygon class="cls-3" points="44.57 19.71 44.54 19.57 44.44 19.78 44.57 19.71"/><polygon class="cls-20" points="46.71 19.77 46.59 19.82 46.62 19.96 46.73 19.91 46.71 19.77"/><polygon class="cls-47" points="61.13 19.75 61 19.8 60.99 19.94 61.12 19.88 61.13 19.75"/><polygon class="cls-2" points="58.8 20.04 58.76 19.89 58.68 20.11 58.8 20.04"/><polygon class="cls-2" points="36.36 20.09 36.23 20.15 36.24 20.29 36.34 20.21 36.36 20.09"/><polygon class="cls-48" points="60.83 20.15 60.84 20.28 60.95 20.09 60.83 20.15"/><path class="cls-49" d="M59.3,86.36c.24-.09.35-.24.32-.45A.42.42,0,0,0,59.3,86.36Z" transform="translate(-1 -65.74)"/><polygon class="cls-33" points="100.12 20.65 100 20.59 100.12 20.78 100.12 20.65"/><polygon class="cls-50" points="43.9 20.88 43.87 20.73 43.77 20.95 43.9 20.88"/><polygon class="cls-50" points="58.28 20.89 58.29 20.77 58.16 20.95 58.28 20.89"/><polygon class="cls-20" points="46.05 20.92 45.93 20.99 45.95 21.13 46.04 21.05 46.05 20.92"/><polygon class="cls-27" points="60.44 20.92 60.32 20.99 60.34 21.12 60.43 21.05 60.44 20.92"/><polygon class="cls-21" points="100.29 20.98 100.17 20.93 100.29 21.11 100.29 20.98"/><polygon class="cls-19" points="43.6 21.28 43.73 21.21 43.71 21.06 43.59 21.14 43.6 21.28"/><polygon class="cls-28" points="57.98 21.28 58.12 21.23 58.11 21.09 58 21.16 57.98 21.28"/><polygon class="cls-7" points="35.68 21.26 35.55 21.32 35.57 21.46 35.67 21.38 35.68 21.26"/><polygon class="cls-51" points="57.82 21.62 57.96 21.55 57.94 21.41 57.83 21.48 57.82 21.62"/><polygon class="cls-52" points="43.39 21.72 43.37 21.58 43.27 21.79 43.39 21.72"/><polygon class="cls-53" points="100.79 21.82 100.67 21.76 100.78 21.96 100.79 21.82"/><polygon class="cls-2" points="57.62 22.05 57.6 21.91 57.5 22.12 57.62 22.05"/><polygon class="cls-54" points="59.66 22.16 59.67 22.29 59.77 22.1 59.66 22.16"/><polygon class="cls-55" points="34.9 22.48 34.87 22.6 35.02 22.44 34.9 22.48"/><polygon class="cls-56" points="59.45 22.59 59.32 22.65 59.31 22.79 59.45 22.74 59.45 22.59"/><polygon class="cls-57" points="101.29 22.67 101.17 22.6 101.28 22.8 101.29 22.67"/><path class="cls-58" d="M35.85,88.43a.63.63,0,0,0-.3.52A.44.44,0,0,0,35.85,88.43Z" transform="translate(-1 -65.74)"/><polygon class="cls-50" points="42.6 22.96 42.73 22.89 42.7 22.75 42.61 22.83 42.6 22.96"/><path class="cls-59" d="M59.47,82h-8A9.12,9.12,0,0,1,50,81.91a.72.72,0,0,1-.36.33l0,.07-.11.21a4.06,4.06,0,0,0-.57,1l-.1.21a3.71,3.71,0,0,0-.56.94,3.86,3.86,0,0,0-.52.87l0,.15-.11,0a4.06,4.06,0,0,0-.57,1v.13l-.09.08c-.4.57-.74,1.19-1.08,1.79-.19.42-.5.75-.66,1.18V90l-.09.08a4.67,4.67,0,0,0-.57,1l-.1.21c-.09.12-.17.25-.25.38l0,.06-.1.19V92l-.1.08c-.45.6-.72,1.29-1.14,1.9a1.79,1.79,0,0,0,.94.16c3.67,0,7.34,0,11,0a.86.86,0,0,1,.34-.32l.06-.06.11-.21,0-.13.14-.18v-.14c0-.26.13-.42.32-.46l0-.06.12-.2,0-.13.11-.2a2.37,2.37,0,0,1,.23-.3v-.14l.11-.08.06-.12.12-.19,0-.14.11-.2a1.7,1.7,0,0,1,.23-.3V90.4l.11-.08.07-.12.1-.21.27-.35c.11-.2.21-.4.3-.61l.09-.21a3.37,3.37,0,0,0,.58-1l.1-.21.22-.3v-.13l.11-.08L59,87l0-.12.11-.07,0-.15.13-.17v-.15a.42.42,0,0,1,.32-.45l.06-.06.08-.22a2.87,2.87,0,0,0,.57-.95l.13-.19v-.13a.45.45,0,0,1,.33-.46l0-.06.14-.2,0-.13.12-.21a3.25,3.25,0,0,1,.23-.29v-.14l.12-.08,0-.12.14-.18V82A19.43,19.43,0,0,0,59.47,82Z" transform="translate(-1 -65.74)"/><polygon class="cls-5" points="59.29 22.93 59.16 22.98 59.15 23.12 59.27 23.07 59.29 22.93"/><polygon class="cls-30" points="56.95 23.22 56.92 23.08 56.83 23.29 56.95 23.22"/><polygon class="cls-30" points="34.38 23.33 34.4 23.48 34.51 23.27 34.38 23.33"/><polygon class="cls-49" points="58.99 23.32 59 23.46 59.11 23.27 58.99 23.32"/><polygon class="cls-56" points="58.78 23.77 58.65 23.82 58.64 23.96 58.78 23.91 58.78 23.77"/><polygon class="cls-24" points="101.95 23.83 101.84 23.77 101.95 23.96 101.95 23.83"/><polygon class="cls-7" points="42.06 24.06 42.03 23.91 41.93 24.13 42.06 24.06"/><polygon class="cls-28" points="44.21 24.11 44.08 24.17 44.11 24.31 44.2 24.23 44.21 24.11"/><polygon class="cls-5" points="58.62 24.11 58.49 24.15 58.48 24.29 58.61 24.24 58.62 24.11"/><polygon class="cls-14" points="102.12 24.16 102 24.11 102.13 24.29 102.12 24.16"/><polygon class="cls-30" points="56.28 24.39 56.26 24.25 56.16 24.46 56.28 24.39"/><polygon class="cls-30" points="33.85 24.44 33.72 24.5 33.72 24.64 33.83 24.57 33.85 24.44"/><polygon class="cls-60" points="58.32 24.5 58.33 24.64 58.44 24.44 58.32 24.5"/><polygon class="cls-51" points="55.99 24.8 56.12 24.73 56.09 24.58 55.98 24.66 55.99 24.8"/><polygon class="cls-61" points="102.61 25.01 102.51 24.95 102.62 25.13 102.61 25.01"/><path class="cls-62" d="M34.51,90.78a.61.61,0,0,0-.3.51A.42.42,0,0,0,34.51,90.78Z" transform="translate(-1 -65.74)"/><polygon class="cls-41" points="41.39 25.23 41.36 25.08 41.26 25.3 41.39 25.23"/><polygon class="cls-26" points="55.77 25.24 55.76 25.1 55.65 25.3 55.77 25.24"/><polygon class="cls-47" points="43.42 25.34 43.44 25.48 43.54 25.28 43.42 25.34"/><polygon class="cls-7" points="57.93 25.27 57.81 25.34 57.83 25.48 57.92 25.4 57.93 25.27"/><polygon class="cls-50" points="102.8 25.34 102.68 25.28 102.8 25.47 102.8 25.34"/><polygon class="cls-6" points="41.09 25.63 41.22 25.56 41.19 25.41 41.08 25.49 41.09 25.63"/><polygon class="cls-28" points="55.6 25.58 55.6 25.44 55.48 25.63 55.6 25.58"/><polygon class="cls-26" points="33.04 25.68 33.07 25.82 33.16 25.61 33.04 25.68"/><polygon class="cls-63" points="55.32 25.97 55.45 25.9 55.42 25.75 55.31 25.83 55.32 25.97"/><polygon class="cls-38" points="57.62 25.78 57.48 25.83 57.48 25.97 57.61 25.92 57.62 25.78"/><polygon class="cls-7" points="40.76 26.14 40.89 26.07 40.86 25.93 40.77 26.01 40.76 26.14"/><polygon class="cls-61" points="43.05 26.11 42.91 26.18 42.94 26.32 43.04 26.24 43.05 26.11"/><polygon class="cls-11" points="57.45 26.11 57.32 26.16 57.31 26.3 57.44 26.25 57.45 26.11"/><polygon class="cls-53" points="55.11 26.41 55.09 26.27 54.98 26.47 55.11 26.41"/><polygon class="cls-60" points="57.15 26.5 57.16 26.64 57.27 26.45 57.15 26.5"/><polygon class="cls-56" points="54.94 26.75 54.93 26.6 54.81 26.8 54.94 26.75"/><polygon class="cls-40" points="32.39 26.83 32.37 26.96 32.51 26.79 32.39 26.83"/><path class="cls-64" d="M55.45,93.06c.25-.1.35-.26.32-.46C55.58,92.64,55.47,92.8,55.45,93.06Z" transform="translate(-1 -65.74)"/><polygon class="cls-38" points="56.94 26.95 56.81 27.01 56.81 27.15 56.94 27.09 56.94 26.95"/><path class="cls-65" d="M33.36,92.78a.63.63,0,0,0-.32.52A.48.48,0,0,0,33.36,92.78Z" transform="translate(-1 -65.74)"/><polygon class="cls-7" points="40.09 27.31 40.22 27.24 40.19 27.09 40.1 27.18 40.09 27.31"/><polygon class="cls-11" points="56.78 27.29 56.65 27.33 56.64 27.47 56.77 27.42 56.78 27.29"/><polygon class="cls-46" points="54.43 27.59 54.44 27.46 54.3 27.64 54.43 27.59"/><polygon class="cls-46" points="32 27.62 31.88 27.68 31.89 27.82 32 27.75 32 27.62"/><polygon class="cls-66" points="56.48 27.68 56.49 27.81 56.6 27.62 56.48 27.68"/><polygon class="cls-18" points="66.65 27.74 66.64 27.61 66.54 27.81 66.65 27.74"/><polygon class="cls-56" points="54.27 27.91 54.26 27.77 54.15 27.98 54.27 27.91"/><polygon class="cls-27" points="31.72 28 31.7 28.13 31.85 27.96 31.72 28"/><path class="cls-12" d="M103.81,93.85a3,3,0,0,1,1.68.24.62.62,0,0,0-.23-.38c-2.62,0-5.24,0-7.86,0l.18.19C99.65,93.8,101.74,93.89,103.81,93.85Z" transform="translate(-1 -65.74)"/><path class="cls-55" d="M54.75,94.1l0,.13a.38.38,0,0,0,.32-.45A.86.86,0,0,0,54.75,94.1Z" transform="translate(-1 -65.74)"/><polygon class="cls-38" points="56.27 28.12 56.14 28.18 56.13 28.32 56.27 28.26 56.27 28.12"/><path class="cls-62" d="M32.68,94a.63.63,0,0,0-.32.47A.37.37,0,0,0,32.68,94Z" transform="translate(-1 -65.74)"/><polygon class="cls-27" points="39.55 28.41 39.52 28.26 39.42 28.48 39.55 28.41"/><polygon class="cls-47" points="41.73 28.46 41.59 28.5 41.6 28.66 41.7 28.58 41.73 28.46"/><polygon class="cls-20" points="56.11 28.46 55.98 28.5 55.97 28.64 56.1 28.59 56.11 28.46"/><polygon class="cls-41" points="53.76 28.77 53.77 28.63 53.62 28.81 53.76 28.77"/><polygon class="cls-50" points="68.31 28.62 68.19 28.68 68.2 28.82 68.3 28.74 68.31 28.62"/><polygon class="cls-44" points="55.81 28.85 55.82 28.98 55.93 28.79 55.81 28.85"/><polygon class="cls-2" points="65.98 28.93 65.97 28.79 65.85 28.98 65.98 28.93"/><polygon class="cls-22" points="53.47 29.15 53.61 29.08 53.59 28.93 53.47 29.01 53.47 29.15"/><polygon class="cls-10" points="104.98 29.02 104.86 28.96 104.97 29.16 104.98 29.02"/><polygon class="cls-1" points="39.04 29.26 39.02 29.12 38.92 29.32 39.04 29.26"/><polygon class="cls-32" points="65.69 29.32 65.82 29.26 65.82 29.12 65.69 29.18 65.69 29.32"/><polygon class="cls-67" points="31 29.29 30.89 29.37 30.89 29.5 31 29.42 31 29.29"/><polygon class="cls-35" points="38.73 29.65 38.87 29.6 38.88 29.46 38.76 29.52 38.73 29.65"/><polygon class="cls-35" points="53.14 29.65 53.27 29.58 53.24 29.44 53.15 29.53 53.14 29.65"/><polygon class="cls-47" points="30.84 29.63 30.7 29.68 30.72 29.83 30.82 29.75 30.84 29.63"/><polygon class="cls-26" points="41.03 29.63 40.91 29.69 40.93 29.84 41.02 29.75 41.03 29.63"/><polygon class="cls-44" points="65.48 29.76 65.47 29.63 65.36 29.82 65.48 29.76"/><polygon class="cls-45" points="38.58 29.99 38.71 29.93 38.7 29.78 38.58 29.85 38.58 29.99"/><polygon class="cls-26" points="67.64 29.79 67.52 29.86 67.53 30 67.63 29.92 67.64 29.79"/><polygon class="cls-2" points="65.17 30.15 65.31 30.1 65.31 29.96 65.19 30.02 65.17 30.15"/><polygon class="cls-16" points="105.64 30.19 105.53 30.13 105.63 30.32 105.64 30.19"/><polygon class="cls-68" points="38.37 30.43 38.36 30.29 38.24 30.49 38.37 30.43"/><polygon class="cls-29" points="65.02 30.49 65.15 30.43 65.15 30.29 65.02 30.35 65.02 30.49"/><polygon class="cls-22" points="67.32 30.3 67.18 30.36 67.19 30.51 67.32 30.44 67.32 30.3"/><polygon class="cls-2" points="54.92 30.46 54.8 30.53 54.81 30.66 54.92 30.59 54.92 30.46"/><polygon class="cls-28" points="38.06 30.82 38.19 30.78 38.21 30.64 38.08 30.69 38.06 30.82"/><polygon class="cls-35" points="52.47 30.82 52.6 30.75 52.57 30.61 52.48 30.7 52.47 30.82"/><polygon class="cls-61" points="67.17 30.63 67.02 30.68 67.02 30.82 67.14 30.76 67.17 30.63"/><polygon class="cls-15" points="16.98 30.85 16.98 30.97 17.09 30.8 16.98 30.85"/><polygon class="cls-7" points="30.16 30.8 30.03 30.86 30.05 31 30.15 30.92 30.16 30.8"/><polygon class="cls-52" points="64.81 30.92 64.8 30.79 64.7 30.99 64.81 30.92"/><polygon class="cls-45" points="37.9 31.16 38.04 31.1 38.03 30.95 37.91 31.02 37.9 31.16"/><polygon class="cls-56" points="106.3 31.37 106.2 31.31 106.3 31.48 106.3 31.37"/><polygon class="cls-68" points="37.7 31.61 37.69 31.47 37.57 31.66 37.7 31.61"/><polygon class="cls-22" points="66.64 31.46 66.51 31.53 66.52 31.68 66.65 31.61 66.64 31.46"/><polygon class="cls-5" points="39.87 31.64 39.73 31.7 39.76 31.85 39.86 31.77 39.87 31.64"/><polygon class="cls-2" points="54.25 31.63 54.13 31.7 54.14 31.83 54.25 31.76 54.25 31.63"/><polygon class="cls-31" points="27.32 31.93 27.31 31.81 27.22 31.99 27.32 31.93"/><polygon class="cls-28" points="37.38 31.99 37.52 31.95 37.54 31.81 37.41 31.86 37.38 31.99"/><polygon class="cls-14" points="51.8 31.99 51.93 31.92 51.9 31.77 51.81 31.86 51.8 31.99"/><polygon class="cls-47" points="66.35 31.86 66.36 32 66.49 31.8 66.35 31.86"/><polygon class="cls-69" points="29.49 31.97 29.36 32.03 29.38 32.17 29.48 32.09 29.49 31.97"/><polygon class="cls-30" points="64.02 32.16 64.14 32.1 64.13 31.96 64.02 32.03 64.02 32.16"/><polygon class="cls-45" points="37.23 32.33 37.37 32.26 37.35 32.11 37.24 32.19 37.23 32.33"/><polygon class="cls-57" points="106.98 32.53 106.87 32.48 106.99 32.65 106.98 32.53"/><polygon class="cls-64" points="37.03 32.77 37.01 32.63 36.91 32.83 37.03 32.77"/><polygon class="cls-61" points="29.01 32.81 28.87 32.85 28.86 33 28.99 32.94 29.01 32.81"/><polygon class="cls-5" points="39.2 32.8 39.07 32.87 39.09 33.01 39.19 32.93 39.2 32.8"/><polygon class="cls-52" points="53.46 32.87 53.48 33.01 53.58 32.81 53.46 32.87"/><polygon class="cls-48" points="63.64 32.94 63.63 32.81 63.52 33 63.64 32.94"/><polygon class="cls-56" points="26.65 33.1 26.64 32.98 26.55 33.15 26.65 33.1"/><polygon class="cls-4" points="51.17 33.16 51.27 33.08 51.23 32.95 51.11 33.02 51.17 33.16"/><polygon class="cls-70" points="65.8 32.97 65.68 33.03 65.69 33.17 65.79 33.1 65.8 32.97"/><path class="cls-71" d="M100.33,104.09c.43-.92,1.08-1.75,1.47-2.68a18.62,18.62,0,0,0-1-1.86l-.26-.36c-.92-1.79-2-3.49-2.94-5.29l-.18-.19c-9,0-18.1,0-27.12,0a3.45,3.45,0,0,0,1.4.14H83.9c.25,0,.5,0,.65.21.94,1.59,1.82,3.23,2.77,4.82.23.4.44.8.67,1.2a9.72,9.72,0,0,1,.76,1.33c-.39.85-1,1.62-1.37,2.47,3.86,0,7.72,0,11.59,0a.71.71,0,0,1,.41.08l.08.31,0,.13.13.17,0,.17.14,0A7.87,7.87,0,0,0,100.33,104.09Z" transform="translate(-1 -65.74)"/><polygon class="cls-64" points="28.7 33.2 28.71 33.34 28.83 33.14 28.7 33.2"/><polygon class="cls-30" points="63.33 33.33 63.47 33.28 63.48 33.15 63.35 33.2 63.33 33.33"/><path class="cls-72" d="M51.77,99.42c.24-.1.35-.25.32-.47A.47.47,0,0,0,51.77,99.42Z" transform="translate(-1 -65.74)"/><polygon class="cls-38" points="107.46 33.39 107.38 33.33 107.47 33.49 107.46 33.39"/><polygon class="cls-60" points="36.53 33.61 36.52 33.47 36.41 33.67 36.53 33.61"/><polygon class="cls-29" points="63.18 33.67 63.31 33.61 63.31 33.47 63.18 33.53 63.18 33.67"/><polygon class="cls-2" points="36.22 34 36.35 33.95 36.37 33.82 36.25 33.87 36.22 34"/><polygon class="cls-14" points="50.75 33.95 50.76 33.81 50.63 34 50.75 33.95"/><path class="cls-59" d="M66,104c3.36,0,6.74,0,10.1,0,.2,0,.41,0,.61,0,3.56,0,7.12,0,10.68,0,.4-.85,1-1.62,1.37-2.47a9.72,9.72,0,0,0-.76-1.33c-.23-.4-.44-.8-.67-1.2-.95-1.59-1.83-3.23-2.77-4.82-.15-.26-.4-.17-.65-.21H71.68a3.45,3.45,0,0,1-1.4-.14,3.25,3.25,0,0,0-.54,0,1.89,1.89,0,0,0-.43.65v.12l-.1.08a5.2,5.2,0,0,0-.56,1v.12l-.1.09a2.73,2.73,0,0,1-.21.3v.14l-.13.07,0,.12,0,.13-.12.06a2.17,2.17,0,0,1-.38.64v.14l-.13.07,0,.13-.13.2a5.2,5.2,0,0,0-.56,1v.12l-.1.08a5.2,5.2,0,0,0-.56,1V100l-.1.07a2.11,2.11,0,0,1-.21.31v.14l-.12.08,0,.11,0,.13-.11.07a2.81,2.81,0,0,1-.39.64v.14l-.12.08,0,.11-.11.21a4,4,0,0,0-.56,1v.13l-.11.06,0,.11c-.07.19-.13.39-.19.59C64.63,104,65.31,104,66,104Z" transform="translate(-1 -65.74)"/><polygon class="cls-43" points="38.52 33.98 38.4 34.05 38.42 34.19 38.52 34.1 38.52 33.98"/><polygon class="cls-44" points="52.8 34.04 52.81 34.16 52.9 33.98 52.8 34.04"/><polygon class="cls-65" points="62.97 34.11 62.96 33.98 62.85 34.17 62.97 34.11"/><polygon class="cls-73" points="36.07 34.34 36.2 34.27 36.18 34.12 36.06 34.2 36.07 34.34"/><polygon class="cls-35" points="65.13 34.14 65.01 34.21 65.02 34.34 65.13 34.27 65.13 34.14"/><polygon class="cls-30" points="62.66 34.5 62.8 34.45 62.8 34.32 62.68 34.37 62.66 34.5"/><polygon class="cls-29" points="52.58 34.48 52.46 34.54 52.45 34.67 52.59 34.62 52.58 34.48"/><polygon class="cls-34" points="35.86 34.78 35.85 34.65 35.73 34.84 35.86 34.78"/><polygon class="cls-29" points="62.5 34.84 62.63 34.78 62.64 34.64 62.51 34.7 62.5 34.84"/><polygon class="cls-22" points="64.81 34.65 64.67 34.71 64.69 34.87 64.81 34.79 64.81 34.65"/><polygon class="cls-5" points="52.43 34.81 52.3 34.87 52.29 35 52.41 34.95 52.43 34.81"/><polygon class="cls-15" points="35.55 35.17 35.69 35.12 35.7 34.98 35.57 35.04 35.55 35.17"/><polygon class="cls-30" points="49.96 35.17 50.09 35.1 50.06 34.96 49.97 35.05 49.96 35.17"/><polygon class="cls-61" points="64.65 34.98 64.51 35.03 64.52 35.18 64.63 35.11 64.65 34.98"/><polygon class="cls-35" points="27.65 35.15 27.52 35.21 27.54 35.35 27.64 35.27 27.65 35.15"/><polygon class="cls-65" points="52.13 35.21 52.14 35.34 52.25 35.15 52.13 35.21"/><polygon class="cls-21" points="62.19 35.34 62.3 35.27 62.29 35.14 62.19 35.22 62.19 35.34"/><polygon class="cls-38" points="51.92 35.65 51.79 35.71 51.78 35.84 51.92 35.79 51.92 35.65"/><polygon class="cls-24" points="108.82 35.71 108.72 35.66 108.81 35.83 108.82 35.71"/><polygon class="cls-74" points="64.13 35.82 64 35.89 64.02 36.04 64.14 35.96 64.13 35.82"/><polygon class="cls-5" points="51.76 35.99 51.63 36.04 51.62 36.17 51.74 36.12 51.76 35.99"/><polygon class="cls-49" points="61.8 36.12 61.78 35.98 61.68 36.18 61.8 36.12"/><polygon class="cls-73" points="35.68 36.37 35.7 36.22 35.57 36.15 35.56 36.29 35.68 36.37"/><polygon class="cls-30" points="49.32 36.34 49.43 36.27 49.39 36.13 49.27 36.21 49.32 36.34"/><polygon class="cls-11" points="63.84 36.21 63.86 36.36 63.97 36.15 63.84 36.21"/><polygon class="cls-35" points="27.71 36.31 27.69 36.45 27.82 36.51 27.81 36.39 27.71 36.31"/><polygon class="cls-75" points="51.46 36.38 51.47 36.51 51.58 36.32 51.46 36.38"/><polygon class="cls-41" points="61.49 36.51 61.62 36.46 61.64 36.33 61.51 36.38 61.49 36.51"/><polygon class="cls-15" points="35.86 36.68 35.85 36.53 35.71 36.49 35.74 36.62 35.86 36.68"/><polygon class="cls-74" points="49.13 36.68 49.26 36.6 49.23 36.45 49.12 36.54 49.13 36.68"/><polygon class="cls-38" points="61.33 36.85 61.46 36.79 61.47 36.65 61.34 36.71 61.33 36.85"/><polygon class="cls-12" points="36.02 36.88 35.9 36.82 36.02 37.01 36.02 36.88"/><polygon class="cls-20" points="109.49 36.88 109.39 36.83 109.49 36.99 109.49 36.88"/><polygon class="cls-7" points="48.92 37.12 48.89 36.98 48.8 37.18 48.92 37.12"/><polygon class="cls-3" points="51.07 37.16 50.95 37.22 50.96 37.36 51.06 37.28 51.07 37.16"/><polygon class="cls-76" points="61.13 37.29 61.12 37.16 61.01 37.35 61.13 37.29"/><polygon class="cls-73" points="36.35 37.54 36.37 37.39 36.24 37.32 36.23 37.46 36.35 37.54"/><polygon class="cls-43" points="63.3 37.32 63.17 37.38 63.17 37.52 63.29 37.45 63.3 37.32"/><polygon class="cls-11" points="38.58 37.48 38.56 37.62 38.69 37.69 38.69 37.56 38.58 37.48"/><polygon class="cls-41" points="60.82 37.68 60.95 37.64 60.97 37.5 60.84 37.55 60.82 37.68"/><path class="cls-77" d="M15.07,121c1.38-2.51,2.85-5,4.25-7.49.16-.27.27-.54.58-.68-1.39-2.45-2.78-4.92-4.15-7.39l-.07-.13c-.38-.57-.63-1.23-1-1.78-.42.54-.74,1.26-1.12,1.84-1.69,3-3.45,6-5.13,9,1.74,3,3.56,6.07,5.3,9.12A20.14,20.14,0,0,1,15.07,121Z" transform="translate(-1 -65.74)"/><polygon class="cls-37" points="36.53 37.72 36.4 37.66 36.51 37.87 36.53 37.72"/><path class="cls-44" d="M99,103.9c-3.87,0-7.73,0-11.59,0-3.56,0-7.12,0-10.68,0-.2,0-.41,0-.61,0-3.36.07-6.74,0-10.1,0-.68,0-1.36,0-2,0,.06-.2.12-.4.19-.59-.27.2-.32.46-.5.72H99a.49.49,0,0,1,.49.22l-.08-.31A.71.71,0,0,0,99,103.9Z" transform="translate(-1 -65.74)"/><polygon class="cls-38" points="60.67 38.02 60.8 37.96 60.79 37.82 60.66 37.88 60.67 38.02"/><polygon class="cls-30" points="48.12 38.35 48.25 38.29 48.23 38.15 48.13 38.23 48.12 38.35"/><polygon class="cls-9" points="28.87 38.32 28.86 38.46 28.99 38.52 28.98 38.4 28.87 38.32"/><polygon class="cls-49" points="50.28 38.39 50.3 38.52 50.4 38.33 50.28 38.39"/><path class="cls-78" d="M110.19,104.63c.23-.39.46-.77.71-1.15-.13-.26-.26-.51-.41-.75l-.1-.16c-.19-.34-.39-.67-.58-1l-.09-.17c-.39-.67-.77-1.34-1.15-2l-.1-.15-.09-.16-.39-.68-.12-.18c-.17-.34-.38-.66-.57-1l-.1-.17c-.19-.33-.36-.67-.57-1l-.1-.19c-.19-.32-.36-.66-.57-1l-.1-.2a5.51,5.51,0,0,0-.37-.61,3,3,0,0,0-1.68-.24c-2.07,0-4.16,0-6.23.05.9,1.8,2,3.5,2.94,5.29l.26.36a18.62,18.62,0,0,1,1,1.86c-.39.93-1,1.76-1.47,2.68a7.87,7.87,0,0,1-.53.72l0,.12c1.64,2.8,3.31,5.7,4.94,8.53l.39-.07C106.8,110.5,108.52,107.54,110.19,104.63Z" transform="translate(-1 -65.74)"/><polygon class="cls-11" points="39.26 38.64 39.23 38.79 39.36 38.85 39.35 38.73 39.26 38.64"/><polygon class="cls-28" points="98.49 38.81 98.61 38.86 98.48 38.68 98.49 38.81"/><polygon class="cls-21" points="37.2 38.89 37.07 38.83 37.2 39.02 37.2 38.89"/><polygon class="cls-38" points="50.08 38.83 49.95 38.89 49.94 39.02 50.08 38.97 50.08 38.83"/><polygon class="cls-35" points="60.12 38.97 60.11 38.82 59.99 39.02 60.12 38.97"/><polygon class="cls-19" points="98.66 39.02 98.65 39.14 98.77 39.19 98.8 39.07 98.66 39.02"/><path class="cls-48" d="M38.55,105.32a.47.47,0,0,0-.34-.44A.41.41,0,0,0,38.55,105.32Z" transform="translate(-1 -65.74)"/><polygon class="cls-11" points="49.78 39.22 49.79 39.36 49.92 39.16 49.78 39.22"/><polygon class="cls-45" points="59.81 39.35 59.95 39.31 59.97 39.17 59.83 39.21 59.81 39.35"/><polygon class="cls-37" points="47.46 39.53 47.58 39.45 47.55 39.31 47.46 39.4 47.46 39.53"/><polygon class="cls-27" points="29.54 39.64 29.67 39.69 29.54 39.5 29.54 39.64"/><path d="M43.74,94.12A1.79,1.79,0,0,1,42.8,94v0l-.06.21,0,.13-.1.07a4.77,4.77,0,0,0-.56,1v.12l-.1.09a15.31,15.31,0,0,0-1.06,1.79v.13l-.1.09-.23.33a3.69,3.69,0,0,0-.33.62v.13l-.1.08a4.49,4.49,0,0,0-.57,1v.12l-.1.09c-.33.35-.44.8-.73,1.17a.53.53,0,0,0,0,.67c.32.47.56,1,.89,1.45l.11.08v.12a4.86,4.86,0,0,0,.57,1l.09.08v.13a5.21,5.21,0,0,0,.47.83l.1.13.1.21.07.11.11.09v.14a1.29,1.29,0,0,1,.22.3l.1.08v.12a4.74,4.74,0,0,0,.57,1l.1.08v.12a4.86,4.86,0,0,0,.57,1l.1.08v.13a16.32,16.32,0,0,0,1.06,1.8l.1.21,0,.06a.56.56,0,0,1,.35.64l.15.17.14,0,0-.16.12-.2a2.37,2.37,0,0,1,.23-.3V111l.12-.08.06-.11.1-.21a4.06,4.06,0,0,0,.57-1v-.12l.09-.09a4.06,4.06,0,0,0,.57-1v-.12l.1-.08a1.66,1.66,0,0,1,.22-.3v-.15l.12-.07,0-.12.14-.19,0-.14.12-.2a2.1,2.1,0,0,1,.22-.3v-.14l.12-.08.06-.12.1-.21a2.38,2.38,0,0,0,.39-.6,1.55,1.55,0,0,0,.19-.36v-.12l.09-.09a3.44,3.44,0,0,0,.57-1V104l.1-.09a3.87,3.87,0,0,0,.57-1l.09-.2a2.43,2.43,0,0,1,.24-.3v-.14l.11-.09.09-.11,0-.13.12-.08a3.58,3.58,0,0,0,.57-1v-.13l.09-.08a3.75,3.75,0,0,0,.57-1l.13-.19v-.13a.47.47,0,0,1,.32-.47l.08-.06-.06-.13.12-.08a3.53,3.53,0,0,0,.57-1V97.6l.09-.09a3.53,3.53,0,0,0,.57-1v-.13l.09-.08a3.75,3.75,0,0,0,.57-1v-.13l.09-.08.23-.3v-.14l.12-.07,0-.12.15-.19v-.13l0-.13C51.08,94.14,47.41,94.09,43.74,94.12Z" transform="translate(-1 -65.74)"/><polygon class="cls-67" points="59.65 39.69 59.79 39.64 59.79 39.5 59.66 39.55 59.65 39.69"/><polygon class="cls-28" points="27.5 39.73 27.39 39.67 27.48 39.87 27.5 39.73"/><polygon class="cls-11" points="37.7 39.85 37.7 39.72 37.56 39.67 37.58 39.8 37.7 39.85"/><polygon class="cls-24" points="29.69 39.84 29.71 39.98 29.85 40.02 29.82 39.89 29.69 39.84"/><polygon class="cls-2" points="39.9 39.96 40.03 40.02 39.93 39.81 39.9 39.96"/><polygon class="cls-13" points="37.87 40.06 37.74 40 37.85 40.2 37.87 40.06"/><polygon class="cls-43" points="59.45 40.14 59.44 39.99 59.32 40.2 59.45 40.14"/><polygon class="cls-63" points="29.88 40.15 29.88 40.29 30 40.36 30 40.23 29.88 40.15"/><polygon class="cls-29" points="40.1 40.13 40.06 40.29 40.2 40.36 40.2 40.22 40.1 40.13"/><polygon class="cls-43" points="49.23 40.33 49.11 40.4 49.12 40.54 49.23 40.46 49.23 40.33"/><polygon class="cls-67" points="59.17 40.54 59.29 40.47 59.29 40.33 59.15 40.39 59.17 40.54"/><polygon class="cls-19" points="27.99 40.56 27.87 40.51 27.99 40.7 27.99 40.56"/><polygon class="cls-38" points="38.2 40.71 38.2 40.57 38.08 40.5 38.07 40.64 38.2 40.71"/><polygon class="cls-30" points="46.91 40.63 46.88 40.48 46.78 40.7 46.91 40.63"/><polygon class="cls-79" points="97.44 40.71 97.45 40.57 97.32 40.5 97.31 40.64 97.44 40.71"/><polygon class="cls-7" points="40.42 40.66 40.41 40.8 40.53 40.86 40.52 40.74 40.42 40.66"/><polygon class="cls-80" points="28.16 40.9 28.04 40.84 28.15 41.03 28.16 40.9"/><polygon class="cls-69" points="38.37 41.02 38.36 40.89 38.23 40.84 38.26 40.97 38.37 41.02"/><polygon class="cls-74" points="46.61 41.03 46.74 40.96 46.73 40.81 46.6 40.89 46.61 41.03"/><polygon class="cls-64" points="58.95 40.97 58.94 40.83 58.82 41.03 58.95 40.97"/><polygon class="cls-24" points="97.62 41.02 97.6 40.88 97.47 40.84 97.49 40.98 97.62 41.02"/><polygon class="cls-81" points="30.39 41 30.38 41.13 30.5 41.2 30.5 41.07 30.39 41"/><polygon class="cls-44" points="38.54 41.23 38.42 41.17 38.52 41.36 38.54 41.23"/><polygon class="cls-82" points="58.65 41.36 58.78 41.32 58.79 41.18 58.66 41.22 58.65 41.36"/><polygon class="cls-9" points="97.78 41.23 97.64 41.17 97.77 41.38 97.78 41.23"/><polygon class="cls-55" points="46.4 41.48 46.39 41.34 46.27 41.53 46.4 41.48"/><polygon class="cls-83" points="30.71 41.64 30.83 41.7 30.72 41.51 30.71 41.64"/><polygon class="cls-8" points="48.44 41.58 48.46 41.71 48.56 41.51 48.44 41.58"/><polygon class="cls-67" points="58.5 41.71 58.62 41.64 58.63 41.51 58.48 41.56 58.5 41.71"/><polygon class="cls-10" points="28.66 41.74 28.55 41.68 28.66 41.87 28.66 41.74"/><polygon class="cls-84" points="46.23 41.82 46.23 41.67 46.09 41.86 46.23 41.82"/><polygon class="cls-24" points="30.86 41.85 30.88 41.99 31.02 42.03 30.99 41.9 30.86 41.85"/><polygon class="cls-30" points="41.09 41.83 41.08 41.97 41.2 42.04 41.2 41.91 41.09 41.83"/><polygon class="cls-83" points="60.49 41.91 60.51 42.04 60.6 41.84 60.49 41.91"/><polygon class="cls-12" points="39.04 42.07 38.92 42.01 39.02 42.21 39.04 42.07"/><polygon class="cls-74" points="45.94 42.2 46.08 42.13 46.05 41.98 45.93 42.05 45.94 42.2"/><polygon class="cls-29" points="48.24 42.01 48.11 42.07 48.1 42.2 48.23 42.15 48.24 42.01"/><polygon class="cls-34" points="58.28 42.14 58.27 42 58.16 42.2 58.28 42.14"/><polygon class="cls-85" points="31.05 42.17 31.17 42.37 31.16 42.24 31.05 42.17"/><polygon class="cls-43" points="47.94 42.4 47.95 42.54 48.08 42.34 47.94 42.4"/><polygon class="cls-82" points="57.97 42.53 58.11 42.49 58.13 42.35 57.99 42.4 57.97 42.53"/><polygon class="cls-86" points="29.15 42.58 29.05 42.52 29.15 42.7 29.15 42.58"/><polygon class="cls-38" points="39.37 42.72 39.38 42.57 39.24 42.51 39.24 42.65 39.37 42.72"/><polygon class="cls-35" points="45.61 42.7 45.74 42.64 45.72 42.5 45.62 42.58 45.61 42.7"/><polygon class="cls-67" points="57.82 42.87 57.95 42.82 57.96 42.68 57.82 42.73 57.82 42.87"/><polygon class="cls-80" points="29.33 42.9 29.21 42.85 29.33 43.04 29.33 42.9"/><polygon class="cls-11" points="39.55 43.03 39.53 42.89 39.4 42.85 39.42 42.98 39.55 43.03"/><polygon class="cls-24" points="31.55 43.01 31.54 43.15 31.68 43.21 31.66 43.07 31.55 43.01"/><polygon class="cls-53" points="41.77 42.99 41.74 43.14 41.88 43.21 41.87 43.08 41.77 42.99"/><polygon class="cls-83" points="59.82 43.08 59.84 43.21 59.94 43.02 59.82 43.08"/><polygon class="cls-12" points="39.71 43.24 39.58 43.18 39.7 43.38 39.71 43.24"/><polygon class="cls-87" points="57.5 43.38 57.62 43.31 57.6 43.17 57.51 43.25 57.5 43.38"/><polygon class="cls-23" points="98.94 43.38 98.95 43.24 98.82 43.18 98.83 43.31 98.94 43.38"/><polygon class="cls-65" points="31.85 43.56 32 43.7 31.97 43.59 31.85 43.56"/><polygon class="cls-2" points="47.39 43.51 47.27 43.58 47.28 43.72 47.39 43.64 47.39 43.51"/><polygon class="cls-38" points="40.04 43.88 40.04 43.74 39.91 43.68 39.92 43.82 40.04 43.88"/><polygon class="cls-35" points="44.94 43.88 45.07 43.81 45.04 43.66 44.95 43.75 44.94 43.88"/><polygon class="cls-21" points="32.04 43.85 32.05 43.98 32.17 44.04 32.15 43.92 32.04 43.85"/><polygon class="cls-80" points="30 44.08 29.88 44.02 29.99 44.21 30 44.08"/><polygon class="cls-28" points="40.22 44.2 40.2 44.07 40.07 44.02 40.09 44.15 40.22 44.2"/><polygon class="cls-78" points="57.11 44.15 57.1 44.02 56.99 44.21 57.11 44.15"/><polygon class="cls-8" points="40.38 44.41 40.25 44.35 40.37 44.55 40.38 44.41"/><polygon class="cls-5" points="56.81 44.54 56.94 44.49 56.95 44.36 56.82 44.41 56.81 44.54"/><polygon class="cls-23" points="99.61 44.55 99.62 44.41 99.49 44.35 99.5 44.48 99.61 44.55"/><polygon class="cls-53" points="46.72 44.69 46.6 44.75 46.61 44.89 46.72 44.81 46.72 44.69"/><polygon class="cls-67" points="56.65 44.89 56.78 44.82 56.78 44.69 56.64 44.74 56.65 44.89"/><polygon class="cls-45" points="40.71 45.05 40.71 44.91 40.58 44.85 40.58 44.99 40.71 45.05"/><polygon class="cls-47" points="44.4 44.97 44.37 44.83 44.27 45.05 44.4 44.97"/><polygon class="cls-69" points="42.92 45.15 43.04 45.21 42.94 45.01 42.92 45.15"/><polygon class="cls-5" points="30.67 45.35 30.66 45.23 30.55 45.19 30.55 45.33 30.67 45.35"/><polygon class="cls-35" points="40.88 45.38 40.87 45.24 40.74 45.19 40.77 45.32 40.88 45.38"/><polygon class="cls-74" points="44.1 45.38 44.24 45.31 44.21 45.15 44.09 45.23 44.1 45.38"/><path class="cls-12" d="M44.07,111c0,.21.21.49.35.64A.56.56,0,0,0,44.07,111Z" transform="translate(-1 -65.74)"/><polygon class="cls-75" points="41.05 45.58 40.92 45.52 41.03 45.72 41.05 45.58"/><polygon class="cls-82" points="56.13 45.72 56.27 45.67 56.27 45.52 56.15 45.58 56.13 45.72"/><polygon class="cls-21" points="100.28 45.73 100.29 45.59 100.17 45.52 100.18 45.65 100.28 45.73"/><polygon class="cls-35" points="43.89 45.83 43.87 45.68 43.75 45.88 43.89 45.83"/><polygon class="cls-68" points="45.93 45.93 45.95 46.06 46.05 45.86 45.93 45.93"/><polygon class="cls-67" points="55.97 46.05 56.1 46 56.12 45.86 55.98 45.91 55.97 46.05"/><polygon class="cls-29" points="31.17 46.09 31.06 46.03 31.16 46.22 31.17 46.09"/><polygon class="cls-38" points="43.62 46.21 43.74 46.19 43.71 46.04 43.57 46.09 43.62 46.21"/><polygon class="cls-31" points="33.39 46.19 33.38 46.33 33.52 46.39 33.51 46.25 33.39 46.19"/><polygon class="cls-52" points="57.98 46.26 58 46.4 58.1 46.19 57.98 46.26"/><polygon class="cls-18" points="41.55 46.42 41.43 46.36 41.54 46.56 41.55 46.42"/><polygon class="cls-88" points="45.72 46.36 45.6 46.42 45.59 46.55 45.73 46.5 45.72 46.36"/><polygon class="cls-21" points="55.77 46.5 55.76 46.35 55.64 46.55 55.77 46.5"/><polygon class="cls-53" points="45.57 46.7 45.44 46.75 45.43 46.89 45.55 46.83 45.57 46.7"/><polygon class="cls-45" points="55.46 46.88 55.6 46.84 55.61 46.7 55.48 46.75 55.46 46.88"/><polygon class="cls-79" points="41.88 47.08 41.89 46.93 41.75 46.87 41.76 47 41.88 47.08"/><polygon class="cls-50" points="33.89 47.03 33.89 47.16 34.01 47.22 33.99 47.1 33.89 47.03"/><polygon class="cls-44" points="45.27 47.09 45.28 47.22 45.38 47.03 45.27 47.09"/><polygon class="cls-67" points="55.3 47.22 55.44 47.17 55.44 47.03 55.31 47.08 55.3 47.22"/><polygon class="cls-28" points="42.06 47.38 42.04 47.24 41.91 47.2 41.93 47.33 42.06 47.38"/><polygon class="cls-68" points="57.31 47.43 57.33 47.57 57.43 47.36 57.31 47.43"/><polygon class="cls-64" points="42.22 47.59 42.09 47.53 42.21 47.73 42.22 47.59"/><polygon class="cls-88" points="45.05 47.53 44.93 47.59 44.92 47.73 45.06 47.67 45.05 47.53"/><polygon class="cls-50" points="55.1 47.67 55.09 47.53 54.97 47.73 55.1 47.67"/><polygon class="cls-2" points="101.45 47.73 101.46 47.59 101.33 47.53 101.34 47.66 101.45 47.73"/><polygon class="cls-35" points="19.46 47.93 19.34 47.85 19.45 48.06 19.46 47.93"/><polygon class="cls-53" points="44.9 47.88 44.76 47.92 44.75 48.05 44.88 48.01 44.9 47.88"/><polygon class="cls-85" points="54.81 48.07 54.94 48 54.94 47.87 54.8 47.92 54.81 48.07"/><polygon class="cls-68" points="101.62 47.92 101.49 47.87 101.64 48.04 101.62 47.92"/><polygon class="cls-15" points="21.5 48.33 21.61 48.39 21.51 48.21 21.5 48.33"/><polygon class="cls-7" points="34.55 48.34 34.69 48.39 34.57 48.2 34.55 48.34"/><polygon class="cls-39" points="42.55 48.27 42.46 48.2 42.54 48.39 42.55 48.27"/><path class="cls-58" d="M103,114.36a.63.63,0,0,0-.32-.49A.41.41,0,0,0,103,114.36Z" transform="translate(-1 -65.74)"/><polygon class="cls-31" points="32.51 48.44 32.41 48.38 32.5 48.55 32.51 48.44"/><polygon class="cls-83" points="54.6 48.5 54.59 48.37 54.48 48.56 54.6 48.5"/><polygon class="cls-31" points="34.73 48.52 34.72 48.66 34.84 48.73 34.85 48.59 34.73 48.52"/><polygon class="cls-75" points="44.93 48.67 45.04 48.73 44.94 48.54 44.93 48.67"/><polygon class="cls-41" points="54.31 48.9 54.44 48.84 54.44 48.7 54.32 48.76 54.31 48.9"/><polygon class="cls-5" points="20.13 49.11 20.02 49.04 20.11 49.23 20.13 49.11"/><polygon class="cls-55" points="35.05 49.16 35.17 49.23 35.07 49.03 35.05 49.16"/><polygon class="cls-87" points="43.04 49.24 43.06 49.11 42.94 49.04 42.95 49.16 43.04 49.24"/><polygon class="cls-39" points="102.29 49.09 102.17 49.05 102.31 49.21 102.29 49.09"/><polygon class="cls-82" points="33.01 49.27 32.9 49.21 33 49.4 33.01 49.27"/><polygon class="cls-55" points="56.24 49.37 56.14 49.45 56.16 49.58 56.24 49.49 56.24 49.37"/><path class="cls-89" d="M103.64,115.55a.6.6,0,0,0-.31-.5A.42.42,0,0,0,103.64,115.55Z" transform="translate(-1 -65.74)"/><polygon class="cls-90" points="43.38 49.74 43.38 49.6 43.25 49.55 43.26 49.68 43.38 49.74"/><polygon class="cls-4" points="43.56 50.06 43.55 49.92 43.41 49.88 43.44 50.01 43.56 50.06"/><polygon class="cls-26" points="102.79 50.07 102.81 49.95 102.7 49.88 102.68 50.02 102.79 50.07"/><polygon class="cls-10" points="20.78 50.28 20.68 50.22 20.79 50.4 20.78 50.28"/><polygon class="cls-55" points="35.73 50.34 35.85 50.4 35.73 50.21 35.73 50.34"/><polygon class="cls-75" points="43.72 50.27 43.6 50.21 43.71 50.4 43.72 50.27"/><polygon class="cls-79" points="91.64 50.17 91.61 50.33 91.74 50.4 91.75 50.26 91.64 50.17"/><path class="cls-29" d="M118.07,116c-.81,1.42-1.64,2.83-2.47,4.24-.36.69-.76,1.34-1.16,2-.75,1.36-1.56,2.68-2.32,4,1.65,2.85,3.31,5.7,4.94,8.56a3.4,3.4,0,0,0,.49-.76l5.09-8.79a3.2,3.2,0,0,0,.37-.74Q120.55,120.22,118.07,116Z" transform="translate(-1 -65.74)"/><path class="cls-82" d="M9.38,130.75,12.09,126c.16-.26.32-.52.5-.77l-5-8.63a2.4,2.4,0,0,0-.37-.53c-2.06,3.49-4.06,7-6.1,10.54A.87.87,0,0,0,1,127c1.77,3.07,3.57,6.14,5.32,9.22a2.17,2.17,0,0,1,.37-.8C7.6,133.87,8.46,132.29,9.38,130.75Z" transform="translate(-1 -65.74)"/><polygon class="cls-28" points="33.69 50.44 33.57 50.38 33.67 50.58 33.69 50.44"/><polygon class="cls-14" points="20.96 50.61 20.84 50.55 20.95 50.73 20.96 50.61"/><polygon class="cls-28" points="35.88 50.55 35.9 50.69 36.03 50.73 36.01 50.6 35.88 50.55"/><polygon class="cls-56" points="44.06 50.91 44.06 50.77 43.93 50.71 43.93 50.85 44.06 50.91"/><polygon class="cls-64" points="91.95 50.85 92.08 50.9 91.96 50.71 91.95 50.85"/><polygon class="cls-74" points="36.06 50.88 36.2 51.07 36.18 50.94 36.06 50.88"/><polygon class="cls-70" points="46.28 50.87 46.27 51.01 46.38 51.07 46.38 50.95 46.28 50.87"/><polygon class="cls-43" points="44.23 51.23 44.22 51.1 44.09 51.05 44.11 51.18 44.23 51.23"/><polygon class="cls-70" points="103.46 51.1 103.34 51.04 103.47 51.23 103.46 51.1"/><polygon class="cls-14" points="52.93 51.35 52.91 51.2 52.8 51.41 52.93 51.35"/><polygon class="cls-4" points="23.34 51.51 23.45 51.57 23.34 51.39 23.34 51.51"/><polygon class="cls-55" points="36.4 51.52 36.52 51.58 36.41 51.38 36.4 51.52"/><polygon class="cls-49" points="44.38 51.44 44.27 51.38 44.4 51.56 44.38 51.44"/><polygon class="cls-28" points="34.36 51.61 34.23 51.55 34.35 51.74 34.36 51.61"/><polygon class="cls-74" points="52.64 51.75 52.76 51.68 52.77 51.55 52.62 51.6 52.64 51.75"/><polygon class="cls-40" points="92.46 51.54 92.46 51.68 92.58 51.74 92.56 51.62 92.46 51.54"/><polygon class="cls-41" points="21.63 51.78 21.52 51.72 21.62 51.91 21.63 51.78"/><polygon class="cls-15" points="36.55 51.72 36.56 51.86 36.69 51.91 36.68 51.77 36.55 51.72"/><polygon class="cls-88" points="44.73 52.08 44.73 51.94 44.6 51.88 44.6 52.02 44.73 52.08"/><polygon class="cls-74" points="54.79 51.9 54.65 51.91 54.63 52.06 54.76 52.03 54.79 51.9"/><path class="cls-91" d="M21.36,112l.05.07c.38.62.7,1.27,1.1,1.88l.1.18,1.73,3,.11.18a2.87,2.87,0,0,0,.32.53c.7,1.29,1.48,2.56,2.19,3.85a4.83,4.83,0,0,1,.39-.87c.53-.9,1-1.83,1.57-2.73,0-.09.11-.17.17-.26a16.29,16.29,0,0,1,1.31-2.14c.64-.07,1.31,0,2,0a7.12,7.12,0,0,1,2,.13c-.13-.21-.23-.44-.37-.66l-.1-.18c-.14-.21-.26-.44-.4-.66l-.09-.18c-.2-.36-.41-.7-.62-1.06l-.06-.12-.06-.1-.07-.12a7,7,0,0,0-.44-.75l-.1-.19a6.61,6.61,0,0,1-.39-.68l-.12,0v-.14l-.08-.19,0-.1c-.15-.23-.28-.46-.43-.69l-.11-.19-.07-.18-.07-.12c-.08-.13-.16-.25-.23-.38l-.12-.16-.06-.14-.12-.19-.06-.15-.1-.18a4,4,0,0,1-.2-.35l-.14-.16-.05-.14-.11-.19c-.13-.22-.25-.44-.4-.65l-.11-.19-.05-.14-.12-.2a7.31,7.31,0,0,0-.39-.64l-.09-.19-.08-.14-1.65-2.86a5.86,5.86,0,0,1-.54-1c.11-.23.26-.45.37-.68.36-.6.69-1.22,1.06-1.82l.09-.17a11.1,11.1,0,0,0,.58-1l.09-.18c.15-.24.3-.48.44-.72l0-.06c.2-.36.39-.73.62-1.07l.08-.13a8.16,8.16,0,0,1,.58-1L30,94.22a2.8,2.8,0,0,0-1-.09c-3.19,0-6.38,0-9.57.05-.46.81-.91,1.58-1.35,2.36l-.11.17c-.65,1.11-1.26,2.2-1.91,3.32-.25.47-.55.9-.8,1.38,1.82,3.17,3.67,6.38,5.52,9.54C21,111.31,21.17,111.65,21.36,112Z" transform="translate(-1 -65.74)"/><polygon class="cls-2" points="46.95 52.04 46.93 52.18 47.05 52.25 47.05 52.12 46.95 52.04"/><polygon class="cls-92" points="36.88 52.27 37.01 52.41 36.98 52.31 36.88 52.27"/><polygon class="cls-7" points="44.89 52.27 44.76 52.22 44.89 52.41 44.89 52.27"/><polygon class="cls-2" points="54.47 52.27 54.48 52.41 54.6 52.22 54.47 52.27"/><polygon class="cls-35" points="104.13 52.27 104.02 52.21 104.14 52.4 104.13 52.27"/><polygon class="cls-79" points="34.86 52.55 34.84 52.44 34.73 52.4 34.73 52.54 34.86 52.55"/><polygon class="cls-14" points="52.26 52.52 52.25 52.38 52.13 52.58 52.26 52.52"/><polygon class="cls-40" points="37.07 52.69 37.2 52.74 37.06 52.55 37.07 52.69"/><polygon class="cls-28" points="35.02 52.77 34.89 52.72 35.02 52.91 35.02 52.77"/><polygon class="cls-85" points="51.97 52.92 52.09 52.85 52.1 52.72 51.95 52.77 51.97 52.92"/><polygon class="cls-70" points="93.14 52.71 93.12 52.85 93.25 52.91 93.24 52.79 93.14 52.71"/><polygon class="cls-93" points="37.24 52.88 37.36 53.08 37.36 52.95 37.24 52.88"/><polygon class="cls-74" points="54.09 53.04 53.96 53.11 53.96 53.25 54.1 53.19 54.09 53.04"/><polygon class="cls-2" points="22.46 53.28 22.35 53.22 22.46 53.41 22.46 53.28"/><polygon class="cls-65" points="51.76 53.35 51.74 53.22 51.64 53.41 51.76 53.35"/><polygon class="cls-2" points="91.25 53.28 91.14 53.23 91.25 53.4 91.25 53.28"/><polygon class="cls-39" points="37.57 53.52 37.68 53.58 37.58 53.38 37.57 53.52"/><polygon class="cls-18" points="45.57 53.46 45.45 53.39 45.55 53.59 45.57 53.46"/><polygon class="cls-37" points="53.8 53.44 53.81 53.59 53.93 53.39 53.8 53.44"/><polygon class="cls-84" points="35.52 53.62 35.41 53.56 35.52 53.75 35.52 53.62"/><polygon class="cls-33" points="51.45 53.75 51.59 53.7 51.59 53.56 51.47 53.62 51.45 53.75"/><polygon class="cls-53" points="35.7 53.95 35.57 53.89 35.68 54.09 35.7 53.95"/><polygon class="cls-67" points="45.9 54.09 45.9 53.95 45.77 53.89 45.77 54.03 45.9 54.09"/><polygon class="cls-67" points="51.3 54.09 51.42 54.03 51.43 53.89 51.29 53.94 51.3 54.09"/><polygon class="cls-52" points="48.11 54.19 48.22 54.25 48.12 54.05 48.11 54.19"/><polygon class="cls-24" points="91.76 54.12 91.64 54.06 91.75 54.26 91.76 54.12"/><polygon class="cls-11" points="46.06 54.28 45.93 54.23 46.06 54.42 46.06 54.28"/><polygon class="cls-4" points="105.28 54.3 105.2 54.24 105.3 54.4 105.28 54.3"/><polygon class="cls-11" points="23.14 54.47 23.03 54.4 23.12 54.6 23.14 54.47"/><polygon class="cls-27" points="38.24 54.7 38.37 54.75 38.25 54.56 38.24 54.7"/><polygon class="cls-39" points="53.13 54.63 53.14 54.76 53.24 54.56 53.13 54.63"/><polygon class="cls-28" points="36.2 54.79 36.08 54.73 36.18 54.93 36.2 54.79"/><polygon class="cls-15" points="38.4 54.9 38.41 55.04 38.54 55.09 38.52 54.95 38.4 54.9"/><polygon class="cls-20" points="94.46 55.19 94.59 55.25 94.48 55.04 94.46 55.19"/><polygon class="cls-30" points="48.78 55.37 48.91 55.42 48.79 55.23 48.78 55.37"/><polygon class="cls-24" points="92.41 55.43 92.43 55.29 92.31 55.23 92.32 55.35 92.41 55.43"/><path d="M100.63,121.15c.93-1.58,1.87-3.16,2.79-4.75a2.39,2.39,0,0,0,.26-.64l0-.14-.06-.07a.42.42,0,0,1-.31-.5l0-.1-.13-.17a1.65,1.65,0,0,0-.21-.42.41.41,0,0,1-.32-.49v-.09l-.15-.17,0-.14-.11-.07v-.13c-.32-.61-.69-1.22-1-1.81l-.1-.07v-.13c-.17-.33-.37-.65-.56-1l-.11-.07v-.13c-.15-.34-.37-.65-.55-1l-.11-.07v-.13c-.21-.47-.53-.89-.76-1.35l-.06-.1-.23-.36-.13-.2,0-.15-.13,0,0-.14,0-.13-.13-.07v-.15l-.25-.26c-11.84,0-23.67,0-35.52,0-.24.49-.71,1.13-.95,1.63l-.09.2a7.44,7.44,0,0,0-.57,1l-.1.2a9.31,9.31,0,0,0-.73,1.27.32.32,0,0,0-.15.33,7.32,7.32,0,0,0-.86,1.38l-.1.21a7.82,7.82,0,0,0-.57,1l-.1.21a.67.67,0,0,0-.22.42c-.32.25-.61,1.16-.87,1.38v.12l-.08.08c-.17.16-.24.32-.19.47,3.28,0,6.58,0,9.86,0,5.06-.08,10.16,0,15.23-.05,3.41,0,6.82,0,10.22,0,.2,0,.32,0,.36.17l.11.09v.14a1,1,0,0,1,.22.31l.12.19c.07.11.13.23.2.35l.12.15.06.14.1.08,0,.12a6.16,6.16,0,0,0,.56,1l.1.08v.13c.4.71.79,1.44,1.23,2.13l.11.21a3.79,3.79,0,0,1,.2.34l.13.16,0,.14.11.2c.17.33.37.65.57,1l.1.08V123c.17.33.36.65.56,1l.1.09v.12a10.28,10.28,0,0,0,.57,1l.1.22a5.38,5.38,0,0,0,.52-.66C99.23,123.48,100,122.36,100.63,121.15Z" transform="translate(-1 -65.74)"/><polygon class="cls-44" points="38.72 55.44 38.86 55.59 38.83 55.48 38.72 55.44"/><polygon class="cls-43" points="46.74 55.59 46.73 55.46 46.61 55.4 46.62 55.53 46.74 55.59"/><polygon class="cls-35" points="105.97 55.45 105.86 55.4 105.98 55.58 105.97 55.45"/><polygon class="cls-19" points="23.8 55.73 23.71 55.59 23.7 55.71 23.8 55.73"/><polygon class="cls-56" points="48.94 55.56 48.95 55.7 49.07 55.76 49.07 55.62 48.94 55.56"/><polygon class="cls-43" points="50.42 55.7 50.41 55.56 50.28 55.76 50.42 55.7"/><polygon class="cls-27" points="38.91 55.87 39.04 55.92 38.9 55.74 38.91 55.87"/><polygon class="cls-66" points="46.9 55.79 46.78 55.73 46.9 55.92 46.9 55.79"/><polygon class="cls-20" points="23.97 55.96 23.85 55.9 23.96 56.09 23.97 55.96"/><polygon class="cls-28" points="36.87 55.96 36.74 55.9 36.85 56.1 36.87 55.96"/><polygon class="cls-85" points="50.13 56.1 50.25 56.03 50.26 55.9 50.11 55.95 50.13 56.1"/><polygon class="cls-94" points="94.96 56.03 95.08 56.09 94.97 55.89 94.96 56.03"/><polygon class="cls-15" points="39.07 56.06 39.07 56.2 39.21 56.26 39.19 56.12 39.07 56.06"/><polygon class="cls-74" points="52.25 56.22 52.13 56.29 52.12 56.43 52.26 56.37 52.25 56.22"/><path class="cls-50" d="M115.6,120.19c.83-1.41,1.66-2.82,2.47-4.24l-7.17-12.47c-.25.38-.48.76-.71,1.15-1.67,2.91-3.39,5.87-5.1,8.76l-.39.07c1.29,2.1,2.48,4.27,3.74,6.39.39.72.83,1.42,1.23,2.14.81,1.42,1.64,2.82,2.45,4.25.76-1.36,1.57-2.68,2.32-4C114.84,121.53,115.24,120.88,115.6,120.19Z" transform="translate(-1 -65.74)"/><polygon class="cls-11" points="93.09 56.45 92.96 56.4 93.1 56.59 93.09 56.45"/><polygon class="cls-58" points="39.39 56.61 39.51 56.75 39.48 56.66 39.39 56.61"/><polygon class="cls-21" points="47.4 56.77 47.41 56.63 47.29 56.57 47.3 56.69 47.4 56.77"/><polygon class="cls-30" points="52.09 56.57 51.96 56.62 51.96 56.76 52.08 56.7 52.09 56.57"/><polygon class="cls-94" points="106.64 56.63 106.54 56.57 106.64 56.75 106.64 56.63"/><polygon class="cls-11" points="26.52 57.03 26.64 57.09 26.53 56.9 26.52 57.03"/><polygon class="cls-95" points="51.79 56.96 51.8 57.09 51.91 56.91 51.79 56.96"/><polygon class="cls-33" points="24.64 57.14 24.54 57.08 24.63 57.26 24.64 57.14"/><polygon class="cls-80" points="37.53 57.13 37.41 57.06 37.52 57.27 37.53 57.13"/><polygon class="cls-23" points="95.65 57.06 95.63 57.2 95.76 57.26 95.75 57.14 95.65 57.06"/><polygon class="cls-24" points="93.59 57.3 93.47 57.24 93.59 57.43 93.59 57.3"/><polygon class="cls-74" points="51.58 57.4 51.46 57.46 51.45 57.6 51.59 57.55 51.58 57.4"/><polygon class="cls-30" points="93.76 57.63 93.64 57.57 93.77 57.75 93.76 57.63"/><polygon class="cls-13" points="40.08 57.87 40.19 57.93 40.09 57.74 40.08 57.87"/><polygon class="cls-83" points="48.08 57.81 47.97 57.74 48.06 57.94 48.08 57.81"/><polygon class="cls-11" points="51.43 57.74 51.29 57.79 51.29 57.93 51.41 57.87 51.43 57.74"/><polygon class="cls-16" points="38.03 58.11 38.04 57.98 37.93 57.93 37.92 58.07 38.03 58.11"/><polygon class="cls-29" points="27.22 58.19 27.29 58.25 27.21 58.1 27.22 58.19"/><polygon class="cls-95" points="51.12 58.13 51.13 58.27 51.24 58.08 51.12 58.13"/><polygon class="cls-96" points="48.41 58.44 48.4 58.31 48.28 58.24 48.28 58.38 48.41 58.44"/><polygon class="cls-23" points="96.32 58.22 96.3 58.37 96.43 58.43 96.42 58.31 96.32 58.22"/><polygon class="cls-31" points="94.26 58.47 94.14 58.41 94.26 58.6 94.26 58.47"/><polygon class="cls-37" points="25.47 58.78 25.48 58.64 25.36 58.58 25.38 58.7 25.47 58.78"/><path class="cls-28" d="M49.57,124.35l-.13,0v.35C49.62,124.65,49.66,124.55,49.57,124.35Z" transform="translate(-1 -65.74)"/><polygon class="cls-74" points="50.91 58.56 50.78 58.64 50.78 58.77 50.92 58.71 50.91 58.56"/><polygon class="cls-23" points="107.81 58.64 107.7 58.59 107.82 58.75 107.81 58.64"/><polygon class="cls-9" points="94.42 58.8 94.31 58.74 94.43 58.92 94.42 58.8"/><polygon class="cls-34" points="50.62 58.97 50.63 59.11 50.75 58.91 50.62 58.97"/><polygon class="cls-15" points="38.7 59.14 38.59 59.08 38.7 59.27 38.7 59.14"/><path class="cls-95" d="M49.09,125.23c.16,0,.27-.2.33-.46A.38.38,0,0,0,49.09,125.23Z" transform="translate(-1 -65.74)"/><polygon class="cls-7" points="13.64 59.38 13.74 59.43 13.64 59.27 13.64 59.38"/><polygon class="cls-74" points="50.42 59.41 50.29 59.47 50.28 59.6 50.42 59.56 50.42 59.41"/><polygon class="cls-28" points="96.98 59.54 97.1 59.62 97 59.4 96.98 59.54"/><polygon class="cls-83" points="48.07 59.72 48.08 59.6 47.95 59.77 48.07 59.72"/><polygon class="cls-11" points="94.94 59.64 94.81 59.58 94.92 59.78 94.94 59.64"/><polygon class="cls-53" points="26.15 59.81 26.03 59.75 26.14 59.95 26.15 59.81"/><polygon class="cls-11" points="50.26 59.75 50.12 59.8 50.11 59.94 50.24 59.88 50.26 59.75"/><polygon class="cls-28" points="47.79 60.11 47.91 60.05 47.91 59.91 47.79 59.97 47.79 60.11"/><polygon class="cls-34" points="26.32 60.14 26.19 60.09 26.32 60.27 26.32 60.14"/><polygon class="cls-50" points="41.42 60.08 41.41 60.22 41.54 60.28 41.52 60.15 41.42 60.08"/><polygon class="cls-75" points="49.95 60.14 49.96 60.27 50.07 60.08 49.95 60.14"/><polygon class="cls-31" points="39.37 60.32 39.26 60.26 39.36 60.44 39.37 60.32"/><polygon class="cls-33" points="97.5 60.37 97.58 60.43 97.5 60.27 97.5 60.37"/><polygon class="cls-10" points="95.43 60.62 95.44 60.5 95.34 60.44 95.33 60.58 95.43 60.62"/><path class="cls-97" d="M50.75,126.29a1.27,1.27,0,0,0-.32.63A.48.48,0,0,0,50.75,126.29Z" transform="translate(-1 -65.74)"/><path class="cls-98" d="M19.32,113.46c-1.4,2.51-2.87,5-4.25,7.49a20.14,20.14,0,0,0-1.38,2.44c.31.54.63,1.08,1,1.61l.1.17c.29.49.55,1,.86,1.48,1.44,2.48,2.9,5,4.35,7.44a1.83,1.83,0,0,1,.18-.73c.46-.87.94-1.72,1.47-2.54.69-1.24,1.37-2.5,2.12-3.7l.09-.11c.64-1.15,1.27-2.31,2-3.43l.24.07a6.84,6.84,0,0,0-.37-.65l-.09-.18c-.21-.32-.37-.67-.58-1l-.11-.19-.05-.17-.11,0,0-.12c-.24-.31-.35-.69-.59-1l-.09-.2-.24-.37-.06-.11a2.49,2.49,0,0,0-.27-.51l-.11-.19-.07-.16-.08-.15c-.2-.33-.37-.68-.58-1l-.1-.19c-.19-.33-.37-.67-.57-1l-.11-.18-.05-.15-.11-.19c-.18-.33-.36-.66-.57-1l-.09-.19c-.19-.33-.37-.67-.57-1l-.11-.21-.14-.29-.08-.13,0-.07L20,113l-.12-.22C19.59,112.92,19.48,113.19,19.32,113.46Z" transform="translate(-1 -65.74)"/><polygon class="cls-50" points="109.16 60.98 109.05 60.93 109.15 61.1 109.16 60.98"/><polygon class="cls-53" points="26.9 61.27 26.81 61.16 26.82 61.2 26.9 61.27"/><polygon class="cls-37" points="49.28 61.31 49.29 61.46 49.41 61.26 49.28 61.31"/><polygon class="cls-5" points="40.04 61.48 39.94 61.43 40.03 61.61 40.04 61.48"/><polygon class="cls-87" points="27.15 61.65 27.04 61.59 27.16 61.78 27.15 61.65"/><polygon class="cls-69" points="46.62 62.12 46.74 62.06 46.73 61.92 46.63 61.99 46.62 62.12"/><polygon class="cls-70" points="98.67 62.39 98.75 62.44 98.66 62.29 98.67 62.39"/><polygon class="cls-50" points="48.73 62.42 48.61 62.49 48.62 62.63 48.72 62.55 48.73 62.42"/><path class="cls-92" d="M109.48,130.84c-1,1.81-2.1,3.59-3.13,5.4a9,9,0,0,1-1,1.56c1.62,2.82,3.26,5.63,4.88,8.45,0,.12.1.16.21.13,1.81-3.19,3.67-6.36,5.5-9.53-1.65-2.91-3.35-5.81-5-8.71A16.2,16.2,0,0,1,109.48,130.84Z" transform="translate(-1 -65.74)"/><polygon class="cls-37" points="40.71 62.65 40.59 62.59 40.71 62.77 40.71 62.65"/><polygon class="cls-26" points="27.83 62.82 27.7 62.74 27.81 62.96 27.83 62.82"/><polygon class="cls-65" points="46.23 62.89 46.23 62.77 46.13 62.95 46.23 62.89"/><polygon class="cls-1" points="43.1 63.06 43.2 63.12 43.09 62.95 43.1 63.06"/><polygon class="cls-5" points="30.2 63.39 30.31 63.45 30.2 63.27 30.2 63.39"/><polygon class="cls-80" points="48.24 63.26 48.11 63.32 48.12 63.47 48.23 63.4 48.24 63.26"/><polygon class="cls-61" points="41.21 63.49 41.1 63.44 41.21 63.61 41.21 63.49"/><polygon class="cls-46" points="99.33 63.55 99.42 63.61 99.33 63.44 99.33 63.55"/><path class="cls-99" d="M32.36,115.66c-.65,0-1.32,0-2,0a16.29,16.29,0,0,0-1.31,2.14c-.06.09-.12.17-.17.26-.54.9-1,1.83-1.57,2.73a4.83,4.83,0,0,0-.39.87c.2.31.38.63.57,1l.11.19c.14.24.27.48.4.72l.17.29.08.14c.22.35.4.71.61,1.07l0,.07c.77,1.29,1.51,2.59,2.26,3.89l.11.18.07.13c.46.81.94,1.63,1.41,2.43a1.8,1.8,0,0,0,.37.53c3.57,0,7.13,0,10.69,0a2.62,2.62,0,0,0-.31-.6l-.09-.17c-.18-.34-.39-.67-.58-1l-.09-.17c-.18-.29-.33-.6-.52-.88l0-.12-.11-.18c-.13-.22-.25-.44-.39-.66l-.11-.18-.08-.18-.06-.11c-.17-.22-.28-.47-.43-.69l-.09-.18c-.2-.33-.37-.67-.58-1l-.1-.19c-.12-.23-.25-.45-.38-.67l-.12-.17L39.7,125l-.11-.19c-.17-.33-.36-.65-.56-1l-.11,0v-.14c-.14-.22-.26-.45-.41-.67l-.1-.2-.1-.18,0-.08c-.14-.24-.28-.48-.43-.7l-.11-.2-.08-.18-.06-.11c-.14-.23-.27-.46-.42-.68l-.11-.2-.07-.16-.07-.15-.25-.33-.11-.2,0-.14-.11-.19L36.2,119l-.12-.16-.06-.15-.13-.19,0-.17h-.13v-.15l-.2-.34-.13-.17,0-.14-.12-.19a5.54,5.54,0,0,0-.56-1l-.1-.2-.2-.33A7.12,7.12,0,0,0,32.36,115.66Z" transform="translate(-1 -65.74)"/><polygon class="cls-52" points="48.08 63.6 47.95 63.65 47.93 63.77 48.05 63.72 48.08 63.6"/><polygon class="cls-47" points="28.48 64.13 28.5 64 28.38 63.93 28.39 64.05 28.48 64.13"/><polygon class="cls-69" points="43.93 64.57 44.06 64.63 43.94 64.43 43.93 64.57"/><polygon class="cls-61" points="41.87 64.67 41.78 64.61 41.87 64.78 41.87 64.67"/><polygon class="cls-29" points="44.11 64.75 44.1 64.89 44.22 64.96 44.22 64.83 44.11 64.75"/><path class="cls-98" d="M109.48,130.84a16.2,16.2,0,0,0,1.42-2.7c-.23-.45-.49-.87-.75-1.3l-.1-.18c-.19-.35-.4-.69-.59-1l0-.08-.32-.55-.1-.15-.11-.18-.06-.16-.12-.17c-.2-.35-.4-.7-.59-1l0-.06q-.22-.36-.42-.72l-.11-.18c-.12-.23-.26-.46-.39-.68l-.1-.16-.07-.15-.12-.18c-.11-.24-.25-.46-.38-.69l-.09-.15-.09-.16-.1-.16-.6-1-.06-.1c-.14-.23-.27-.47-.4-.7L105,118l-.09-.19,0-.07c-.15-.24-.28-.48-.42-.72l-.12-.19-.09-.18-.05-.1-.42-.69-.11,0a2.39,2.39,0,0,1-.26.64c-.92,1.59-1.86,3.17-2.79,4.75-.63,1.21-1.4,2.33-2,3.55a5.38,5.38,0,0,1-.52.66c.15.2.26.44.4.65l.08.15c.14.23.27.46.4.69l.12.17.06.17.08.14c.15.23.28.46.42.7l.09.15a8.45,8.45,0,0,0,.59,1l.08.17c.23.39.46.78.68,1.17,1.39,2.41,2.81,4.89,4.22,7.28a9,9,0,0,0,1-1.56C107.38,134.43,108.45,132.65,109.48,130.84Z" transform="translate(-1 -65.74)"/><polygon class="cls-47" points="29.18 65.29 29.16 65.16 29.05 65.13 29.06 65.28 29.18 65.29"/><path class="cls-60" d="M45.74,131.34v-.22l-.31-.14C45.38,131.16,45.48,131.28,45.74,131.34Z" transform="translate(-1 -65.74)"/><polygon class="cls-35" points="29.33 65.5 29.2 65.44 29.32 65.63 29.33 65.5"/><polygon class="cls-30" points="46.9 65.61 46.77 65.66 46.78 65.81 46.89 65.73 46.9 65.61"/><polygon class="cls-28" points="42.55 65.84 42.45 65.78 42.54 65.95 42.55 65.84"/><path class="cls-99" d="M88.58,124.35c-.32.61-.68,1.21-1,1.82-.54,1-1.17,2-1.73,3s-1,1.66-1.46,2.56-1,1.71-1.49,2.54h8.7a10.32,10.32,0,0,0,1.47,0,16.29,16.29,0,0,0,1.18-2c.83-1.41,1.66-2.83,2.5-4.24a3.71,3.71,0,0,0,.24-.63c-.2-.32-.36-.66-.56-1l-.1,0v-.14c-.17-.2-.27-.45-.42-.66l-.1-.2-.39-.66-.12-.18,0-.14-.12-.19-.37-.66-.13-.18,0-.14-.12-.19c-.12-.22-.24-.44-.37-.66l-.14-.18,0-.16-.09-.15c-.15-.21-.26-.45-.41-.66l-.09-.08V121l-.39-.67-.12-.17,0-.14-.11-.19c-.12-.23-.25-.44-.39-.66l-.11-.18a.78.78,0,0,0-.2-.37c-.39.76-.86,1.49-1.29,2.24C90,122,89.28,123.18,88.58,124.35Z" transform="translate(-1 -65.74)"/><polygon class="cls-5" points="30 66.68 29.89 66.61 29.99 66.81 30 66.68"/><polygon class="cls-69" points="46.23 66.78 46.1 66.83 46.1 66.97 46.21 66.9 46.23 66.78"/><path class="cls-100" d="M46.89,133.12a.64.64,0,0,0-.3.5C46.82,133.56,46.92,133.4,46.89,133.12Z" transform="translate(-1 -65.74)"/><polygon class="cls-87" points="45.44 68 45.42 68.13 45.56 67.96 45.44 68"/><polygon class="cls-14" points="30.83 68.18 30.72 68.11 30.83 68.31 30.83 68.18"/><polygon class="cls-32" points="44.94 68.86 44.95 68.98 45.05 68.79 44.94 68.86"/><polygon class="cls-27" points="42.55 69.26 42.55 69.12 42.43 69.31 42.55 69.26"/><polygon class="cls-28" points="42.37 69.58 42.38 69.46 42.26 69.64 42.37 69.58"/><polygon class="cls-38" points="44.34 70 44.27 70.14 44.36 70.11 44.34 70"/><polygon class="cls-8" points="19.99 70.25 20.1 70.31 20 70.13 19.99 70.25"/><polygon class="cls-69" points="41.88 70.42 41.88 70.29 41.77 70.49 41.88 70.42"/><polygon class="cls-20" points="43.59 71.19 43.6 71.32 43.7 71.13 43.59 71.19"/><polygon class="cls-68" points="41.21 71.6 41.21 71.48 41.09 71.66 41.21 71.6"/><polygon class="cls-36" points="40.53 72.77 40.55 72.65 40.42 72.83 40.53 72.77"/><path class="cls-78" d="M48.63,147.57c-.92-1.74-2-3.38-2.94-5.13-.76-1.13-1.34-2.42-2.16-3.51-1.65,2.81-3.27,5.66-4.9,8.49a1.5,1.5,0,0,0,.75.17C42.46,147.57,45.54,147.59,48.63,147.57Z" transform="translate(-1 -65.74)"/><polygon class="cls-7" points="39.86 73.93 39.87 73.83 39.77 73.99 39.86 73.93"/><path class="cls-28" d="M16.18,140.09l.17-.19c.71-1.28,1.45-2.54,2.15-3.82l.21-.27c-1-1.64-1.89-3.29-2.85-4.93-1.09-1.88-2.17-3.78-3.27-5.66-.18.25-.34.51-.5.77l-2.71,4.76c-.92,1.54-1.78,3.12-2.69,4.67a2.17,2.17,0,0,0-.37.8c.69,1.18,1.37,2.36,2,3.54q2,3.47,4,6.93c.76-1.09,1.31-2.31,2-3.43S15.61,141.16,16.18,140.09Z" transform="translate(-1 -65.74)"/><polygon class="cls-30" points="39.19 75.1 39.19 74.99 39.1 75.16 39.19 75.1"/><path class="cls-98" d="M23.81,127l-.09.11c-.75,1.2-1.43,2.46-2.12,3.7-.53.82-1,1.67-1.47,2.54a1.83,1.83,0,0,0-.18.73l.08.16,0,.08c.34.5.58,1,.93,1.54l.1.18c.2.35.41.7.6,1,.85,1.44,1.69,2.9,2.54,4.33s1.6,2.78,2.43,4.15H37.36c.72-1.14,1.38-2.34,2-3.51.25-.38.44-.79.69-1.17l.09-.18c.2-.32.38-.66.58-1l.1-.15c.14-.24.28-.49.43-.73l0-.08.08-.19.13-.18.08-.17.09-.13.08-.16.16-.25.06-.1.08-.18.11-.18c.14-.25.27-.5.42-.74l0-.06.11-.19.11-.2.06-.15.12-.13.2-.37.12-.18,0-.15.12-.19a5.26,5.26,0,0,0,.38-.65h-12l-.06-.16-.11-.2-.09-.18-.05-.09c-.2-.34-.38-.7-.59-1l-.1-.2c-.2-.32-.36-.66-.57-1l-.11-.2,0-.14h-.12v-.16c-.19-.33-.36-.67-.57-1l-.09-.08v-.12c-.2-.32-.36-.66-.57-1l-.11-.22-.13-.29-.08-.12,0-.08-.06-.1c-.08-.12-.15-.25-.23-.38l-.12-.19L27.9,127l-.08-.07v0l0-.08-.06-.1-.23-.39-.12-.17-.05-.15-.13-.19-.05-.13-.11-.2c-.18-.33-.37-.65-.56-1l-.1-.08v-.13l-.08-.15L26.2,124l-.2-.37-.24-.07C25.08,124.7,24.45,125.86,23.81,127Z" transform="translate(-1 -65.74)"/><path class="cls-59" d="M48.63,147.57l.09,0c4.59-.05,9.19,0,13.77,0h.33c.21,0,.41,0,.62-.07.16-.23.3-.47.47-.7s.52-.09.75-.11c3.74,0,7.49,0,11.24,0,.61-.92,1.15-1.87,1.69-2.83l.07,0a12.91,12.91,0,0,1,.76-1.42c.77-1.3,1.52-2.61,2.3-3.9a1.39,1.39,0,0,0,.19-.82,8.65,8.65,0,0,0-.87-1.38c-.31-.7-.81-1.35-1.09-2a2.46,2.46,0,0,1,.77-.08c1.06,0,2.12,0,3.18,0,.54-.83,1-1.69,1.49-2.54s1-1.69,1.46-2.56,1.19-1.94,1.73-3c.32-.61.68-1.21,1-1.82.7-1.17,1.41-2.33,2.07-3.52.43-.75.9-1.48,1.29-2.24-.12-.31-.36-.54-.5-.85-3.35,0-6.7,0-10,0-.22,0-.59,0-.72.18-.56.75-1,1.62-1.44,2.41-.69,1.16-1.39,2.31-2,3.49-.38.59-.72,1.2-1,1.82a11.91,11.91,0,0,0-1,1.84c.24.6.64,1.15.93,1.72.4.75.82,1.49,1.28,2.2.5,1,1.06,1.85,1.54,2.81a9.12,9.12,0,0,1-1.48.05c-1.84,0-3.68,0-5.52,0a4.78,4.78,0,0,0-.84.08l-.79.11a18,18,0,0,0-1.58,2.6l-.1,0c-.69,1.44-1.6,2.77-2.38,4.16-.37.69-.8,1.35-1.16,2.05a14.71,14.71,0,0,1-1.17,2.13,14.36,14.36,0,0,1-.78,1.24.45.45,0,0,1-.74-.06c-.68-1.16-1.38-2.32-2-3.51l-.09,0c-.32-.74-.77-1.39-1.13-2.11-.9-1.44-1.7-2.94-2.59-4.39-.36-.65-.73-1.3-1.1-1.94-.1-.14-.25-.38-.45-.35q-4,0-8,0a.57.57,0,0,1-.57-.24l-.3.53-.09.19c-.22.33-.37.69-.61,1l0,.11-.09,0c-.18.34-.38.66-.57,1l-.1.19c-.15.23-.29.48-.43.72l0,0c-.22.37-.41.74-.61,1.11.82,1.09,1.4,2.38,2.16,3.51C46.59,144.19,47.71,145.83,48.63,147.57Z" transform="translate(-1 -65.74)"/><path d="M46.91,134.24q4,0,8,0c.2,0,.35.21.45.35.37.64.74,1.29,1.1,1.94.89,1.45,1.69,2.95,2.59,4.39.36.72.81,1.37,1.13,2.11l.09,0c.64,1.19,1.34,2.35,2,3.51a.45.45,0,0,0,.74.06,14.36,14.36,0,0,0,.78-1.24A14.71,14.71,0,0,0,65,143.28c.36-.7.79-1.36,1.16-2.05.78-1.39,1.69-2.72,2.38-4.16l.1,0a18,18,0,0,1,1.58-2.6l.79-.11a4.78,4.78,0,0,1,.84-.08c1.84,0,3.68,0,5.52,0a9.12,9.12,0,0,0,1.48-.05c-.48-1-1-1.86-1.54-2.81-.46-.71-.88-1.45-1.28-2.2-.29-.57-.69-1.12-.93-1.72a11.91,11.91,0,0,1,1-1.84c.33-.62.67-1.23,1-1.82.65-1.18,1.35-2.33,2-3.49.48-.79.88-1.66,1.44-2.41.13-.22.5-.16.72-.18,3.35,0,6.7,0,10,0l-.07-.08c-4.22,0-8.44,0-12.66,0H55.79l0,.13-.13,0,0,.16-.12.19c-.16.21-.2.45-.4.63l0,.15L55,119l0,.14-.12.19c-.19.37-.4.62-.57,1l-.1.2c-.26.36-.66,1.16-.89,1.46v.15l-.14.06,0,.14,0,.13-.12.06-.05.14-.11.19a1.66,1.66,0,0,1-.22.3v.15l-.14.06,0,.14,0,.13-.12.06,0,.15-.11.18a1.66,1.66,0,0,1-.22.3v.15l-.14.06,0,.14-.12.2a2.73,2.73,0,0,1-.21.3v.15l-.14,0,0,.15,0,.13-.13.06,0,.14L51,126a1.08,1.08,0,0,1-.21.28.48.48,0,0,1-.32.63l0,.08-.12.19a9.38,9.38,0,0,0-.56,1v.13l-.1.07-.22.35-.07.14-.09.15v.13l-.11.07,0,.14,0,.12-.12,0c-.34.61-.71,1.22-1,1.83v.13l-.11.07a10.59,10.59,0,0,0-.55,1l0,.12-.11.07,0,.15-.14.15,0,.11c0,.28-.07.44-.3.5l0,.07-.15.18-.08.13A.57.57,0,0,0,46.91,134.24Z" transform="translate(-1 -65.74)"/><path class="cls-78" d="M86.07,146.7a1.79,1.79,0,0,0-.37-.9c-.29-.47-.56-1-.86-1.42l-.24-.33c-1.17-2.14-2.39-4.25-3.59-6.37l-.1,0a1.39,1.39,0,0,1-.19.82c-.78,1.29-1.53,2.6-2.3,3.9a12.91,12.91,0,0,0-.76,1.42l-.07,0c-.54,1-1.08,1.91-1.69,2.83C79.29,146.69,82.69,146.77,86.07,146.7Z" transform="translate(-1 -65.74)"/><path class="cls-54" d="M66.71,154.25c.4.75.89,1.46,1.27,2.22a3.91,3.91,0,0,0,.58.91c.39.05.78.07,1.17.11l.16-.12.06,0a18.83,18.83,0,0,1,1.5-2.75,12.56,12.56,0,0,1,.85-1.52c1.07-1.83,2.11-3.69,3.22-5.49a3.8,3.8,0,0,0,.38-.82c-3.75,0-7.5,0-11.24,0-.23,0-.57,0-.75.11s-.31.47-.47.7c-.21,0-.41.06-.62.07.38.53.67,1.09,1,1.65C64.78,150.93,65.8,152.56,66.71,154.25Z" transform="translate(-1 -65.74)"/><path class="cls-49" d="M57.62,156.12c.36-.77.85-1.49,1.28-2.22s.91-1.56,1.34-2.36c.73-1.32,1.57-2.58,2.25-3.93-4.58,0-9.18-.07-13.77,0a16.57,16.57,0,0,0,1.36,2.52c.67,1.22,1.47,2.38,2.08,3.64a15,15,0,0,1,1.15,2c.46.76.95,1.53,1.36,2.32a11.36,11.36,0,0,1,.86,1.57l.07,0c.28-.52.6-1,.88-1.54C56.83,157.43,57.25,156.79,57.62,156.12Z" transform="translate(-1 -65.74)"/><path class="cls-23" d="M106.58,144c-.77-1.34-1.54-2.69-2.32-4-.75,1.3-1.62,2.56-2.27,3.92a8.16,8.16,0,0,1-.62,1,12.24,12.24,0,0,1-.93,1.61c-.16.25-.38.18-.64.21H89.92c-1.21,0-2.43,0-3.65,0a18.09,18.09,0,0,1,.92,1.67,17.31,17.31,0,0,1-1,1.79c-.55.95-1.11,1.88-1.65,2.84l-1.2,2c-.4.74-.87,1.42-1.22,2.18a9.33,9.33,0,0,0,1.75.08c6.7,0,13.41,0,20.11,0,.62-1.08,1.25-2.15,1.86-3.23s1.11-1.9,1.65-2.85,1.06-1.84,1.6-2.76c0-.17-.16-.34-.23-.5C108.12,146.7,107.37,145.36,106.58,144Z" transform="translate(-1 -65.74)"/><path class="cls-68" d="M18.73,157.72l.24,0c7.36,0,14.72,0,22.08,0-.51-.89-1-1.78-1.54-2.66l-2.59-4.5c-.4-.71-.84-1.41-1.22-2.14.16-.29.34-.57.5-.87H25.65a.39.39,0,0,1-.24-.12c-.68-1.26-1.42-2.49-2.14-3.74s-1.36-2.37-2.05-3.55c-.84-1.46-1.67-2.92-2.51-4.37l-.21.27c-.7,1.28-1.44,2.54-2.15,3.82l-.17.19c-.57,1.07-1.19,2.12-1.78,3.17s-1.26,2.34-2,3.43l.22.4,1.77,3.06c.79,1.39,1.6,2.77,2.4,4.15C17.42,155.45,18.09,156.57,18.73,157.72Z" transform="translate(-1 -65.74)"/><path class="cls-101" d="M94.25,132.21a16.29,16.29,0,0,1-1.18,2,10.32,10.32,0,0,1-1.47,0H82.9c-1.06,0-2.12,0-3.18,0a2.46,2.46,0,0,0-.77.08c.28.7.78,1.35,1.09,2a8.65,8.65,0,0,1,.87,1.38l.1,0c1.2,2.12,2.42,4.23,3.59,6.37l.24.33c.3.46.57,1,.86,1.42a1.79,1.79,0,0,1,.37.9c-3.38.07-6.78,0-10.17.05a3.8,3.8,0,0,1-.38.82c-1.11,1.8-2.15,3.66-3.22,5.49a12.56,12.56,0,0,0-.85,1.52,18.83,18.83,0,0,0-1.5,2.75l.9,0H82.1l.05-.09c.35-.76.82-1.44,1.22-2.18l1.2-2c.54-1,1.1-1.89,1.65-2.84a17.31,17.31,0,0,0,1-1.79,18.09,18.09,0,0,0-.92-1.67c1.22-.05,2.44,0,3.65,0H99.8c.26,0,.48,0,.64-.21a12.24,12.24,0,0,0,.93-1.61,8.16,8.16,0,0,0,.62-1c.65-1.36,1.52-2.62,2.27-3.92-.26-.52-.56-1-.85-1.52-2.14-3.71-4.29-7.43-6.42-11.15a3.71,3.71,0,0,1-.24.63C95.91,129.38,95.08,130.8,94.25,132.21Z" transform="translate(-1 -65.74)"/><path class="cls-32" d="M83.9,157.37a9.33,9.33,0,0,1-1.75-.08l-.05.09C81,159.2,80,161,78.89,162.86c-1.26,2.28-2.64,4.49-3.89,6.77,1,0,1.92,0,2.88,0h16.4a22.4,22.4,0,0,1,2.59.07q3.59-6.18,7.14-12.36C97.31,157.39,90.6,157.37,83.9,157.37Z" transform="translate(-1 -65.74)"/><path class="cls-101" d="M54.28,159.78a4,4,0,0,0,1.25-.11,11.36,11.36,0,0,0-.86-1.57c-.41-.79-.9-1.56-1.36-2.32a15,15,0,0,0-1.15-2c-.61-1.26-1.41-2.42-2.08-3.64a16.57,16.57,0,0,1-1.36-2.52l-.09,0c-3.09,0-6.17,0-9.25,0a1.5,1.5,0,0,1-.75-.17c-.19.35-.39.7-.59,1.05.9,1.61,1.88,3.24,2.8,4.85.42.74.85,1.47,1.27,2.2l1.24,2.15c.41.72.83,1.43,1.24,2.14.44,0,.88,0,1.32,0Z" transform="translate(-1 -65.74)"/><path class="cls-59" d="M25.84,168.84h21.6c-1.73-3-3.48-6-5.22-9.06a7.58,7.58,0,0,0-.83,0h-21l5.35,9Z" transform="translate(-1 -65.74)"/><path class="cls-4" d="M70.85,157.38l-.9,0-.06,0-.16.12c-.24.45-.49.88-.74,1.32-.64,1.18-1.39,2.29-2,3.48-1.06,1.85-2.17,3.67-3.22,5.52-.34.61-.72,1.19-1,1.83,4,.09,8.09,0,12.14.07l.09-.08c1.25-2.28,2.63-4.49,3.89-6.77C80,161,81,159.2,82.1,157.38Z" transform="translate(-1 -65.74)"/><path class="cls-11" d="M62.06,170.77a7.46,7.46,0,0,0,.61-1.06,8,8,0,0,1-1.3-.1c-.41-.61-.74-1.27-1.1-1.91-.65-1.08-1.25-2.18-1.93-3.25-.44-.89-1-1.71-1.44-2.59-.46-.72-.87-1.47-1.3-2.21l-.07,0a4,4,0,0,1-1.25.11H45.91c-.44,0-.88,0-1.32,0Q45.8,161.93,47,164c1.3,2.28,2.63,4.55,3.94,6.83,3.44,0,6.89,0,10.34,0C61.53,170.85,61.88,170.92,62.06,170.77Z" transform="translate(-1 -65.74)"/><path class="cls-68" d="M67,162.29c.6-1.19,1.35-2.3,2-3.48.25-.44.5-.87.74-1.32-.39,0-.78-.06-1.17-.11a3.91,3.91,0,0,1-.58-.91c-.38-.76-.87-1.47-1.27-2.22-.91-1.69-1.93-3.32-2.89-5-.33-.56-.62-1.12-1-1.65h-.33c-.68,1.35-1.52,2.61-2.25,3.93-.43.8-1,1.52-1.34,2.36s-.92,1.45-1.28,2.22-.79,1.31-1.14,2c-.28.52-.6,1-.88,1.54.43.74.84,1.49,1.3,2.21.45.88,1,1.7,1.44,2.59.68,1.07,1.28,2.17,1.93,3.25.36.64.69,1.3,1.1,1.91a8,8,0,0,0,1.3.1l.1-.07c.29-.64.67-1.22,1-1.83C64.83,166,65.94,164.14,67,162.29Z" transform="translate(-1 -65.74)"/><path class="cls-29" d="M74,171.33c.32-.53.64-1.06.91-1.62-4-.12-8.1,0-12.14-.07l-.1.07a7.46,7.46,0,0,1-.61,1.06c-.18.15-.53.08-.75.11-3.45,0-6.9,0-10.34,0,1.61,2.79,3.21,5.59,4.84,8.37a4.36,4.36,0,0,0,.81,0H69.5a15.38,15.38,0,0,1,.83-1.55C71.55,175.57,72.79,173.46,74,171.33Z" transform="translate(-1 -65.74)"/><path class="cls-63" d="M94.28,169.66H77.88c-1,0-1.92,0-2.88,0l-.09.08c-.27.56-.59,1.09-.91,1.62-1.21,2.13-2.45,4.24-3.67,6.37a15.38,15.38,0,0,0-.83,1.55c7.08,0,14.17,0,21.26,0,.21,0,.63.08.71-.17,1.8-3.12,3.61-6.23,5.4-9.36A22.4,22.4,0,0,0,94.28,169.66Z" transform="translate(-1 -65.74)"/><path class="cls-63" d="M48.42,170.89H26.7c1.58,2.79,3.19,5.59,4.82,8.35,6.34,0,12.73,0,19.08,0,.94,0,1.89,0,2.83,0-1.45-2.6-3-5.18-4.46-7.77C48.83,171.29,48.71,170.83,48.42,170.89Z" transform="translate(-1 -65.74)"/></svg>