<svg id="Layer_1" data-name="Layer 1" xmlns="http://www.w3.org/2000/svg" viewBox="0 0 393.14 124.76"><defs><style>.cls-1,.cls-2{fill:#010101;}.cls-2{opacity:0.3;}</style></defs><polygon class="cls-1" points="153.5 26.46 153.5 16.5 148.48 16.5 148.48 31.4 163.38 31.4 163.38 26.46 153.5 26.46"/><polygon class="cls-1" points="173.34 6.54 148.48 6.54 148.48 13.95 153.42 13.95 153.42 11.48 168.4 11.48 168.4 26.46 165.93 26.46 165.93 31.4 173.34 31.4 173.34 6.54"/><path class="cls-1" d="M182.46,66H190V84.28h10.84v6.26H182.46V66Z" transform="translate(-2.51 -59.23)"/><path class="cls-1" d="M204.14,66h19v6.25H211.73v3.09h9.78V81.2h-9.78v9.34h-7.59Z" transform="translate(-2.51 -59.23)"/><path class="cls-1" d="M242.66,90.72H228.91V66h13.75v1.58h-12v9.35H242v1.58H230.68V89h12Z" transform="translate(-2.51 -59.23)"/><path class="cls-1" d="M266.64,90.72h-1.76l-14.9-22h-.18c.18,2.64.18,4.58.18,5.9v16h-1.59V66h1.77l14.89,22h.09c-.09-2-.18-4-.18-5.82V66h1.68V90.72Z" transform="translate(-2.51 -59.23)"/><path class="cls-1" d="M287.44,90.72H273.69V66h13.75v1.58h-12v9.35h11.29v1.58H275.45V89h12Z" transform="translate(-2.51 -59.23)"/><path class="cls-1" d="M294.93,80V90.72h-1.76V66h6c3.09,0,5.38.53,6.88,1.67a6,6,0,0,1,2.2,5.12A6.76,6.76,0,0,1,306.92,77a7.39,7.39,0,0,1-4.05,2.46l6.78,11.29h-2.11L301.1,80Zm0-1.5h4.76a7.5,7.5,0,0,0,4.94-1.41,5.09,5.09,0,0,0,1.76-4.14,4.92,4.92,0,0,0-1.67-4.14c-1.15-.88-3-1.32-5.64-1.32h-4.15Z" transform="translate(-2.51 -59.23)"/><path class="cls-1" d="M323.67,78h9.08V89a21,21,0,0,1-8,1.5c-3.88,0-6.88-1.06-8.91-3.26s-3.08-5.2-3.08-9.17a13.94,13.94,0,0,1,1.5-6.52,10.57,10.57,0,0,1,4.4-4.41,13.57,13.57,0,0,1,6.61-1.58,17.33,17.33,0,0,1,7.23,1.49l-.7,1.5a15.75,15.75,0,0,0-6.61-1.5,9.83,9.83,0,0,0-7.67,3A11.34,11.34,0,0,0,314.68,78c0,3.62.88,6.35,2.73,8.2S321.82,89,325.34,89a15.47,15.47,0,0,0,5.73-1V79.43h-7.31V78Z" transform="translate(-2.51 -59.23)"/><path class="cls-1" d="M344.65,79.43,352,66h1.85L345.53,81v9.52h-1.77V81.2L335.39,66h2Z" transform="translate(-2.51 -59.23)"/><path class="cls-1" d="M148.73,104h10.15V129.5h18.69V104h10.15V167.6H177.57V138H158.88V167.6H148.73Z" transform="translate(-2.51 -59.23)"/><path class="cls-1" d="M204,119.7l8.27,36h.18l7.66-36h10.06L217,169.38c-3.74,13.08-6.85,14.77-16.73,14.59a27.54,27.54,0,0,1-3.83-.35V176a18.42,18.42,0,0,0,3.11.36c3.3,0,5.44-.71,6.5-3.74l1.25-3.92-13.62-49Z" transform="translate(-2.51 -59.23)"/><path class="cls-1" d="M235.52,119.7h9.08v5.88h.17c2-4.27,5.52-7.12,10.77-7.12,11,0,15.4,9.35,15.4,25.81,0,20.12-8.19,24.57-14.77,24.57-5.17,0-9.08-2.58-10.86-6.85h-.18v21.27h-9.61Zm17.26,41.49c5.52,0,8-4.1,8-17.36,0-10.86-1.43-17.72-8.1-17.72s-8.1,6.77-8.1,17C244.6,154.6,246,161.19,252.78,161.19Z" transform="translate(-2.51 -59.23)"/><path class="cls-1" d="M278.33,104H288v20.83l.26.18A13.85,13.85,0,0,1,300,118.46c7.3,0,11.93,3.29,11.93,13V167.6h-9.61V134.75c0-6.23-1.87-8.64-6.68-8.64-3.92,0-7.65,3.12-7.65,9.35V167.6h-9.62Z" transform="translate(-2.51 -59.23)"/><path class="cls-1" d="M352.57,157.63c0,1.78,1.07,3.38,2.49,3.38a3.94,3.94,0,0,0,1.6-.27V167a11.31,11.31,0,0,1-4.71,1.16c-4.28,0-7.84-1.69-8.1-6.32h-.18c-2.58,4.72-6.32,7-11.93,7-7.66,0-12.46-4.27-12.46-13.44,0-10.68,4.63-12.91,11.12-15l7.48-2.05c3.47-1,5.61-2,5.61-6.14,0-4.36-1.51-7.12-6.59-7.12-6.41,0-7.3,4.53-7.3,9.16h-9.08c0-10.14,4.19-15.75,16.83-15.75,8.45,0,15.22,3.29,15.22,11.75Zm-9.08-15.31c-2.49,2-7.83,3.11-10.68,4.45s-3.92,4.18-3.92,7.74c0,4,2,7.21,6,7.21,5.79,0,8.64-4.36,8.64-11.39Z" transform="translate(-2.51 -59.23)"/><path class="cls-1" d="M370.64,144.9v2.76c0,6.41.8,14.6,8,14.6,6.85,0,7.65-7.84,7.65-10.69h9.08c0,10.6-6.41,17.27-16.82,17.27-7.83,0-17.54-2.31-17.54-24.48,0-12.55,2.67-25.9,17.72-25.9,13.35,0,16.91,8,16.91,21.36v5.08Zm15.4-6.59v-2.58c0-6.06-2-10.68-7.39-10.68-6.14,0-8,6-8,12.28v1Z" transform="translate(-2.51 -59.23)"/><path class="cls-1" d="M103.32,125.41a9,9,0,0,1-3.42-5.92H90.24c0,2.8,0,5.61,0,8.41a2,2,0,0,0,1.16,2c2.34,1.34,4.65,2.71,7,4.06Z" transform="translate(-2.51 -59.23)"/><path class="cls-1" d="M91.12,107.42a2,2,0,0,0-.84,1.46c-.07,2.74,0,5.47,0,8.21H99.9a9,9,0,0,1,3.37-5.89l-4.75-8.09C96.05,104.54,93.58,106,91.12,107.42Z" transform="translate(-2.51 -59.23)"/><path class="cls-1" d="M127.28,109.05a1.76,1.76,0,0,0-1-1.74q-8.37-4.78-16.68-9.66a1.46,1.46,0,0,0-1.72,0l-7.3,4.23,4.75,8.08a9,9,0,1,1,.06,16.64l-5,8.58c2.42,1.41,4.84,2.79,7.25,4.21a1.8,1.8,0,0,0,2.1,0q8.18-4.83,16.42-9.55a1.86,1.86,0,0,0,1.08-1.83Q127.22,118.56,127.28,109.05Z" transform="translate(-2.51 -59.23)"/><path class="cls-1" d="M42.76,147.72a9,9,0,0,1,3.4.67L51,140c-2.34-1.36-4.7-2.71-7-4.08a1.71,1.71,0,0,0-2,0c-2.39,1.4-4.79,2.77-7.18,4.16l4.67,8.3A9,9,0,0,1,42.76,147.72Z" transform="translate(-2.51 -59.23)"/><path class="cls-1" d="M61.34,157.93H51.68a9,9,0,1,1-14.34-8.39l-4.66-8.28-7.29,4.22a1.62,1.62,0,0,0-.94,1.61q0,9.65,0,19.28a1.74,1.74,0,0,0,1,1.72q8.24,4.72,16.42,9.53a1.77,1.77,0,0,0,2.1,0q8.13-4.78,16.3-9.47a1.9,1.9,0,0,0,1.09-1.94C61.32,163.43,61.34,160.68,61.34,157.93Z" transform="translate(-2.51 -59.23)"/><path class="cls-1" d="M51.68,155.53h9.67c0-2.79,0-5.58,0-8.36a1.71,1.71,0,0,0-1-1.71c-2.44-1.4-4.87-2.83-7.31-4.24l-4.81,8.37A9,9,0,0,1,51.68,155.53Z" transform="translate(-2.51 -59.23)"/><path class="cls-1" d="M104.35,145.57c-2.46-1.46-4.95-2.87-7.42-4.31l-4.82,8.35a9,9,0,1,1-14.43,8.32H68.34c0,2.81,0,5.63,0,8.45a1.59,1.59,0,0,0,.91,1.62q8.35,4.8,16.65,9.68a1.59,1.59,0,0,0,1.87,0c5.5-3.22,11-6.39,16.52-9.64a2.22,2.22,0,0,0,1-1.56q.09-9.72,0-19.42A2,2,0,0,0,104.35,145.57Z" transform="translate(-2.51 -59.23)"/><path class="cls-1" d="M86.6,147.72a8.89,8.89,0,0,1,3.43.68l4.82-8.34c-2.39-1.38-4.76-2.79-7.16-4.15a2,2,0,0,0-1.71,0c-2.51,1.42-5,2.9-7.48,4.34l4.69,8.17A9.05,9.05,0,0,1,86.6,147.72Z" transform="translate(-2.51 -59.23)"/><path class="cls-1" d="M68.37,147.09c-.06,2.81,0,5.62,0,8.44h9.35a9,9,0,0,1,3.43-5.94l-4.69-8.16c-2.4,1.4-4.83,2.77-7.22,4.19A2,2,0,0,0,68.37,147.09Z" transform="translate(-2.51 -59.23)"/><path class="cls-1" d="M31.34,134l7.19-4.16a1.62,1.62,0,0,0,.93-1.62c0-2.9,0-5.8,0-8.7H30.05a8.92,8.92,0,0,1-3.5,6Z" transform="translate(-2.51 -59.23)"/><path class="cls-1" d="M26.6,111.14a9,9,0,0,1,3.45,6h9.39c0-2.73,0-5.46,0-8.19a2,2,0,0,0-.83-1.47c-2.45-1.45-4.93-2.85-7.4-4.29Z" transform="translate(-2.51 -59.23)"/><path class="cls-1" d="M24.46,126.65a9,9,0,1,1-3.33-17.37,9.1,9.1,0,0,1,3.39.66l4.57-8c-2.48-1.43-4.94-2.89-7.43-4.31a1.7,1.7,0,0,0-1.43,0q-8.43,4.8-16.79,9.73a2,2,0,0,0-.88,1.48q-.09,9.7,0,19.43a2,2,0,0,0,.83,1.49q8.34,5,16.78,9.75a1.85,1.85,0,0,0,1.56,0c2.51-1.43,5-2.88,7.52-4.33Z" transform="translate(-2.51 -59.23)"/><path class="cls-1" d="M42.76,89.46a8.91,8.91,0,0,1-3.39-.67l-4.72,8.26c2.39,1.4,4.8,2.77,7.19,4.17a1.79,1.79,0,0,0,2.1,0c2.34-1.38,4.69-2.73,7-4.09l-4.81-8.37A9,9,0,0,1,42.76,89.46Z" transform="translate(-2.51 -59.23)"/><path class="cls-1" d="M61.37,90c0-2.77,0-5.55,0-8.32H51.68a9,9,0,0,1-3.44,5.93L53.05,96c2.44-1.42,4.87-2.85,7.32-4.25A1.74,1.74,0,0,0,61.37,90Z" transform="translate(-2.51 -59.23)"/><path class="cls-1" d="M25.52,91.76c2.36,1.35,4.7,2.73,7.05,4.09l4.72-8.25a9,9,0,1,1,14.39-8.35h9.67c0-2.77,0-5.53,0-8.29a1.83,1.83,0,0,0-1-1.86q-8.25-4.71-16.43-9.54a1.73,1.73,0,0,0-2,0q-8.19,4.8-16.43,9.53a1.82,1.82,0,0,0-1,1.84q0,9.51,0,19A1.84,1.84,0,0,0,25.52,91.76Z" transform="translate(-2.51 -59.23)"/><path class="cls-1" d="M77.68,81.65H68.33c0,2.78,0,5.56,0,8.35a1.62,1.62,0,0,0,.9,1.63C71.62,93,74,94.41,76.39,95.8l4.72-8.22A9,9,0,0,1,77.68,81.65Z" transform="translate(-2.51 -59.23)"/><path class="cls-1" d="M87.74,101.3,95,97.08l-4.89-8.32a9,9,0,0,1-6.9,0L78.47,97c2.47,1.44,4.94,2.86,7.4,4.3A1.61,1.61,0,0,0,87.74,101.3Z" transform="translate(-2.51 -59.23)"/><path class="cls-1" d="M68.34,79.25h9.34a9,9,0,1,1,14.48,8.28l4.89,8.34c2.41-1.4,4.81-2.8,7.2-4.22a2.2,2.2,0,0,0,1-1.55q.09-9.7,0-19.41a2,2,0,0,0-.87-1.47q-8.28-4.91-16.65-9.66a2.15,2.15,0,0,0-1.82,0c-5.55,3.15-11,6.38-16.56,9.56a1.68,1.68,0,0,0-1,1.71C68.36,73.65,68.34,76.45,68.34,79.25Z" transform="translate(-2.51 -59.23)"/><path class="cls-1" d="M73.9,117.09h9.38c0-2.64,0-5.28,0-7.91a1.92,1.92,0,0,0-1.09-2c-2.42-1.38-4.81-2.79-7.21-4.18l-4.62,8A9,9,0,0,1,73.9,117.09Z" transform="translate(-2.51 -59.23)"/><path class="cls-1" d="M75,134.14c2.43-1.41,4.85-2.83,7.29-4.23a1.72,1.72,0,0,0,1-1.72c0-2.9,0-5.8,0-8.7H73.9a9,9,0,0,1-3.77,6.18Z" transform="translate(-2.51 -59.23)"/><path class="cls-1" d="M56.06,119.49H46.4c0,2.84,0,5.69,0,8.53A1.9,1.9,0,0,0,47.49,130c2.33,1.32,4.63,2.69,6.95,4l5-8.64A9,9,0,0,1,56.06,119.49Z" transform="translate(-2.51 -59.23)"/><path class="cls-1" d="M68,126.77a9,9,0,0,1-6.53-.18l-4.95,8.6c2.42,1.41,4.86,2.81,7.27,4.23a1.79,1.79,0,0,0,2.09,0c2.34-1.38,4.7-2.72,7.05-4.09Z" transform="translate(-2.51 -59.23)"/><path class="cls-1" d="M61.2,110.12a8.87,8.87,0,0,1,3.78-.84,9,9,0,0,1,3.3.63l4.64-8.07c-2.34-1.36-4.69-2.7-7-4.07a1.79,1.79,0,0,0-2.09,0c-2.42,1.43-4.86,2.82-7.29,4.23Z" transform="translate(-2.51 -59.23)"/><path class="cls-1" d="M46.4,109.15c0,2.64,0,5.29,0,7.94h9.66a9,9,0,0,1,3.11-5.68l-4.72-8.21c-2.32,1.34-4.62,2.7-6.94,4A1.88,1.88,0,0,0,46.4,109.15Z" transform="translate(-2.51 -59.23)"/><path class="cls-2" d="M108.82,109.28a9,9,0,0,0-3.48.7l-4.75-8.08-3.54-6-4.89-8.34a9,9,0,1,0-14.48-8.28h-26A9,9,0,1,0,37.29,87.6l-4.72,8.25-3.48,6.09-4.57,8a9,9,0,1,0-3.39,17.36,9,9,0,0,0,3.33-.65l4.79,8.53,3.43,6.08,4.66,8.28a9,9,0,1,0,14.34,8.39h26a9,9,0,1,0,14.43-8.32l4.82-8.35,3.5-6.06,5-8.58a9,9,0,1,0,3.42-17.34ZM86.6,89.46a9,9,0,0,0,3.49-.7L95,97.08l3.54,6,4.75,8.09a9,9,0,0,0-3.37,5.89h-26a9,9,0,0,0-3.52-6l4.62-8,3.47-6,4.72-8.21A9,9,0,0,0,86.6,89.46ZM51.68,81.65h26a9,9,0,0,0,3.43,5.93L76.39,95.8l-3.47,6-4.64,8.07a9,9,0,0,0-3.3-.63,8.87,8.87,0,0,0-3.78.84L56.52,102l-3.47-6-4.81-8.37A9,9,0,0,0,51.68,81.65ZM31.17,103.14l3.48-6.09,4.72-8.26a8.94,8.94,0,0,0,6.79,0L51,97.16l3.48,6,4.72,8.21a9,9,0,0,0-3.11,5.68h-26a9,9,0,0,0-3.45-6Zm11.59,44.58a9,9,0,0,0-3.33.64l-4.67-8.3L31.34,134l-4.79-8.5a8.92,8.92,0,0,0,3.5-6h26a9,9,0,0,0,3.34,5.86l-5,8.64L51,140l-4.81,8.37A9,9,0,0,0,42.76,147.72Zm34.92,7.81h-26a9,9,0,0,0-3.44-5.94l4.81-8.37,3.47-6,4.95-8.6a9,9,0,0,0,6.53.18l4.93,8.58,3.49,6.08,4.69,8.16A9,9,0,0,0,77.68,155.53ZM98.35,134l-3.5,6.06L90,148.4a8.89,8.89,0,0,0-3.43-.68,9.05,9.05,0,0,0-3.41.67l-4.69-8.17L75,134.14l-4.88-8.47a9,9,0,0,0,3.77-6.18h26a9,9,0,0,0,3.42,5.92Z" transform="translate(-2.51 -59.23)"/></svg>