<?xml version="1.0" encoding="UTF-8" standalone="no"?>
<svg
   xml:space="preserve"
   viewBox="0 0 112.3 114.2"
   y="0px"
   x="0px"
   id="Layer_1"
   version="1.1"
   sodipodi:docname="powsysbl-icon-black.svg"
   width="112.3"
   height="114.2"
   inkscape:export-filename="/Users/johnmertic/Code/lfenergy-artwork/projects/powsysbl/icon/black/powsysbl-icon-black.png"
   inkscape:export-xdpi="377.10001"
   inkscape:export-ydpi="377.10001"
   inkscape:version="1.1.2 (b8e25be8, 2022-02-05)"
   xmlns:inkscape="http://www.inkscape.org/namespaces/inkscape"
   xmlns:sodipodi="http://sodipodi.sourceforge.net/DTD/sodipodi-0.dtd"
   xmlns="http://www.w3.org/2000/svg"
   xmlns:svg="http://www.w3.org/2000/svg"
   xmlns:rdf="http://www.w3.org/1999/02/22-rdf-syntax-ns#"
   xmlns:cc="http://creativecommons.org/ns#"
   xmlns:dc="http://purl.org/dc/elements/1.1/"><sodipodi:namedview
   id="namedview3573"
   pagecolor="#ffffff"
   bordercolor="#666666"
   borderopacity="1.0"
   inkscape:pageshadow="2"
   inkscape:pageopacity="0.0"
   inkscape:pagecheckerboard="0"
   showgrid="false"
   inkscape:zoom="2.29643"
   inkscape:cx="175.05433"
   inkscape:cy="52.690481"
   inkscape:window-width="1542"
   inkscape:window-height="480"
   inkscape:window-x="58"
   inkscape:window-y="25"
   inkscape:window-maximized="0"
   inkscape:current-layer="Layer_1" /><metadata
   id="metadata1870"><rdf:RDF><cc:Work
       rdf:about=""><dc:format>image/svg+xml</dc:format><dc:type
         rdf:resource="http://purl.org/dc/dcmitype/StillImage" /><dc:title /></cc:Work></rdf:RDF></metadata><defs
   id="defs1868"><filter
     id="filter1874"
     style="color-interpolation-filters:sRGB"
     x="0"
     y="0"
     width="1"
     height="1"><feColorMatrix
       id="feColorMatrix1872"
       values="0.21 0.72 0.072 0 0 0.21 0.72 0.072 0 0 0.21 0.72 0.072 0 0 0 0 0 1 0 " /></filter><filter
     id="filter1878"
     style="color-interpolation-filters:sRGB"
     x="0"
     y="0"
     width="1"
     height="1"><feColorMatrix
       id="feColorMatrix1876"
       values="0.21 0.72 0.072 0 0 0.21 0.72 0.072 0 0 0.21 0.72 0.072 0 0 0 0 0 1 0 " /></filter><filter
     id="filter1882"
     style="color-interpolation-filters:sRGB"
     x="0"
     y="0"
     width="1"
     height="1"><feColorMatrix
       id="feColorMatrix1880"
       values="0.21 0.72 0.072 0 0 0.21 0.72 0.072 0 0 0.21 0.72 0.072 0 0 0 0 0 1 0 " /></filter><filter
     id="filter1886"
     style="color-interpolation-filters:sRGB"
     x="0"
     y="0"
     width="1"
     height="1"><feColorMatrix
       id="feColorMatrix1884"
       values="0.21 0.72 0.072 0 0 0.21 0.72 0.072 0 0 0.21 0.72 0.072 0 0 0 0 0 1 0 " /></filter><filter
     id="filter1890"
     style="color-interpolation-filters:sRGB"
     x="0"
     y="0"
     width="1"
     height="1"><feColorMatrix
       id="feColorMatrix1888"
       values="0.21 0.72 0.072 0 0 0.21 0.72 0.072 0 0 0.21 0.72 0.072 0 0 0 0 0 1 0 " /></filter><filter
     id="filter1894"
     style="color-interpolation-filters:sRGB"
     x="0"
     y="0"
     width="1"
     height="1"><feColorMatrix
       id="feColorMatrix1892"
       values="0.21 0.72 0.072 0 0 0.21 0.72 0.072 0 0 0.21 0.72 0.072 0 0 0 0 0 1 0 " /></filter><filter
     id="filter1898"
     style="color-interpolation-filters:sRGB"
     x="0"
     y="0"
     width="1"
     height="1"><feColorMatrix
       id="feColorMatrix1896"
       values="0.21 0.72 0.072 0 0 0.21 0.72 0.072 0 0 0.21 0.72 0.072 0 0 0 0 0 1 0 " /></filter><filter
     id="filter1902"
     style="color-interpolation-filters:sRGB"
     x="0"
     y="0"
     width="1"
     height="1"><feColorMatrix
       id="feColorMatrix1900"
       values="0.21 0.72 0.072 0 0 0.21 0.72 0.072 0 0 0.21 0.72 0.072 0 0 0 0 0 1 0 " /></filter><filter
     id="filter1906"
     style="color-interpolation-filters:sRGB"
     x="0"
     y="0"
     width="1"
     height="1"><feColorMatrix
       id="feColorMatrix1904"
       values="0.21 0.72 0.072 0 0 0.21 0.72 0.072 0 0 0.21 0.72 0.072 0 0 0 0 0 1 0 " /></filter></defs>
<style
   id="style1781"
   type="text/css">
	.st0{fill:#FFB259;}
	.st1{fill:#6F2277;}
	.st2{fill:#FD495C;}
	.st3{fill:#009ADE;}
	.st4{fill:#003764;}
</style>
<g
   style="filter:url(#filter1906)"
   id="g1825">
	<polygon
   id="polygon1783"
   points="78.6,45.7 56.2,57.1 33.7,45.7 56.2,34.3 "
   class="st0" />
	<polygon
   id="polygon1785"
   points="56.2,79.9 33.7,68.5 33.7,45.7 56.2,57.1 "
   class="st1" />
	<polygon
   id="polygon1787"
   points="56.2,79.9 56.2,57.1 78.6,45.7 78.6,68.5 "
   class="st2" />
	<polygon
   id="polygon1789"
   points="112.3,62.8 89.9,74.2 67.4,62.8 89.9,51.4 "
   class="st0" />
	<polygon
   id="polygon1791"
   points="89.9,97.1 67.4,85.6 67.4,62.8 89.9,74.2 "
   class="st1" />
	<polygon
   id="polygon1793"
   points="89.9,97.1 89.9,74.2 112.3,62.8 112.3,85.6 "
   class="st2" />
	<polygon
   id="polygon1795"
   points="44.9,62.8 22.5,74.2 0,62.8 22.5,51.4 "
   class="st0" />
	<polygon
   id="polygon1797"
   points="22.5,97.1 0,85.6 0,62.8 22.5,74.2 "
   class="st1" />
	<polygon
   id="polygon1799"
   points="22.5,97.1 22.5,74.2 44.9,62.8 44.9,85.6 "
   class="st2" />
	<polygon
   id="polygon1801"
   points="78.6,79.9 56.2,91.3 33.7,79.9 56.2,68.5 "
   class="st0" />
	<polygon
   id="polygon1803"
   points="56.2,114.2 33.7,102.8 33.7,79.9 56.2,91.3 "
   class="st1" />
	<polygon
   id="polygon1805"
   points="56.2,114.2 56.2,91.3 78.6,79.9 78.6,102.8 "
   class="st2" />
	<polygon
   id="polygon1807"
   points="78.6,11.4 56.2,22.8 33.7,11.4 56.2,0 "
   class="st0" />
	<polygon
   id="polygon1809"
   points="56.2,45.7 33.7,34.3 33.7,11.4 56.2,22.8 "
   class="st1" />
	<polygon
   id="polygon1811"
   points="56.2,45.7 56.2,22.8 78.6,11.4 78.6,34.3 "
   class="st2" />
	<polygon
   id="polygon1813"
   points="112.3,28.5 89.9,40 67.4,28.5 89.9,17.1 "
   class="st0" />
	<polygon
   id="polygon1815"
   points="89.9,62.8 67.4,51.4 67.4,28.5 89.9,40 "
   class="st1" />
	<polygon
   id="polygon1817"
   points="89.9,62.8 89.9,40 112.3,28.5 112.3,51.4 "
   class="st2" />
	<polygon
   id="polygon1819"
   points="44.9,28.5 22.5,40 0,28.5 22.5,17.1 "
   class="st0" />
	<polygon
   id="polygon1821"
   points="22.5,62.8 0,51.4 0,28.5 22.5,40 "
   class="st1" />
	<polygon
   id="polygon1823"
   points="22.5,62.8 22.5,40 44.9,28.5 44.9,51.4 "
   class="st2" />
</g>








</svg>
