<?xml version="1.0" encoding="UTF-8" standalone="no"?>
<svg
   xmlns:dc="http://purl.org/dc/elements/1.1/"
   xmlns:cc="http://creativecommons.org/ns#"
   xmlns:rdf="http://www.w3.org/1999/02/22-rdf-syntax-ns#"
   xmlns:svg="http://www.w3.org/2000/svg"
   xmlns="http://www.w3.org/2000/svg"
   xml:space="preserve"
   style="enable-background:new 0 0 606.8 86;"
   viewBox="0 0 606.8 86"
   y="0px"
   x="0px"
   id="Layer_1"
   version="1.1"><metadata
   id="metadata75"><rdf:RDF><cc:Work
       rdf:about=""><dc:format>image/svg+xml</dc:format><dc:type
         rdf:resource="http://purl.org/dc/dcmitype/StillImage" /><dc:title></dc:title></cc:Work></rdf:RDF></metadata><defs
   id="defs73"><filter
     id="filter79"
     style="color-interpolation-filters:sRGB;"><feColorMatrix
       id="feColorMatrix77"
       values="0.21 0.72 0.072 0 0 0.21 0.72 0.072 0 0 0.21 0.72 0.072 0 0 0 0 0 1 0 " /></filter></defs>
<style
   id="style10"
   type="text/css">
	.st0{fill:#009ADE;}
	.st1{fill:#003764;}
	.st2{fill:#004987;}
	.st3{fill:#0082CA;}
	.st4{fill:#3A8DDE;}
</style>
<g
   style="filter:url(#filter79)"
   id="g68">
	<polygon
   id="polygon12"
   points="107.7,17.3 107.7,8.7 103.4,8.7 103.4,21.6 116.2,21.6 116.2,17.3  "
   class="st0" />
	<polygon
   id="polygon14"
   points="124.8,0.1 103.4,0.1 103.4,6.6 107.7,6.6 107.7,4.4 120.5,4.4 120.5,17.3 118.4,17.3 118.4,21.6    124.8,21.6  "
   class="st1" />
	<g
   id="g20">
		<path
   id="path16"
   d="M130.5,0.4h6.5v15.8h9.4v5.4h-15.9V0.4z"
   class="st1" />
		<path
   id="path18"
   d="M149.2,0.4h16.4v5.4h-9.9v2.6h8.5v5h-8.5v8.1h-6.5V0.4z"
   class="st1" />
	</g>
	<path
   id="path22"
   d="M182.5,21.7h-11.8V0.3h11.8v1.4h-10.3v8.1h9.8v1.4h-9.8v9.2h10.3V21.7z"
   class="st0" />
	<path
   id="path24"
   d="M203.1,21.7h-1.5l-12.8-19h-0.1c0.1,2.3,0.2,4,0.2,5.1v13.9h-1.5V0.3h1.5l12.8,18.9h0.1   c-0.1-1.8-0.1-3.4-0.1-5V0.3h1.5V21.7z"
   class="st0" />
	<path
   id="path26"
   d="M221.1,21.7h-11.8V0.3h11.8v1.4h-10.3v8.1h9.8v1.4h-9.8v9.2h10.3V21.7z"
   class="st0" />
	<path
   id="path28"
   d="M227.5,12.4v9.3H226V0.3h5.2c2.7,0,4.7,0.5,6,1.5c1.3,1,1.9,2.5,1.9,4.4c0,1.4-0.4,2.6-1.1,3.6   c-0.8,1-1.9,1.7-3.5,2.1l5.9,9.7h-1.8l-5.6-9.3H227.5z M227.5,11.1h4.1c1.8,0,3.2-0.4,4.3-1.2c1-0.8,1.5-2,1.5-3.6   c0-1.6-0.5-2.8-1.5-3.6c-1-0.7-2.6-1.1-4.8-1.1h-3.6V11.1z"
   class="st0" />
	<path
   id="path30"
   d="M252.4,10.7h7.8v9.5c-2,0.9-4.4,1.3-6.9,1.3c-3.3,0-5.9-0.9-7.7-2.8c-1.8-1.9-2.7-4.5-2.7-7.9   c0-2.1,0.4-4,1.3-5.6c0.9-1.6,2.1-2.9,3.8-3.8c1.6-0.9,3.5-1.3,5.7-1.3c2.3,0,4.4,0.4,6.2,1.3l-0.6,1.3c-1.8-0.8-3.7-1.3-5.7-1.3   c-2.8,0-5,0.9-6.6,2.6s-2.5,4-2.5,6.9c0,3.1,0.8,5.5,2.3,7.1c1.6,1.6,3.8,2.4,6.9,2.4c2,0,3.6-0.3,5-0.8v-7.3h-6.3V10.7z"
   class="st0" />
	<path
   id="path32"
   d="M270.5,12l6.3-11.6h1.6l-7.2,13v8.2h-1.5v-8.1l-7.2-13.1h1.7L270.5,12z"
   class="st0" />
	<polygon
   id="polygon34"
   points="362.3,62.5 339,62.5 339,80.6 365.8,80.6 365.8,86 332.2,86 332.2,35.3 365.4,35.3 365.4,40.7    339,40.7 339,57.1 362.3,57.1  "
   class="st2" />
	<polygon
   id="polygon36"
   points="319.5,62.5 296.3,62.5 296.3,80.6 323.1,80.6 323.1,86 289.4,86 289.4,35.3 322.7,35.3 322.7,40.7    296.3,40.7 296.3,57.1 319.5,57.1  "
   class="st2" />
	<path
   id="path38"
   d="M383.8,35.3L400,76.5h0.2l16.2-41.2h8.8V86h-6.9V65.9l0.7-20.6l-0.2,0L402.4,86h-4.6l-16.4-40.6l-0.2,0   l0.7,20.5V86h-6.9V35.3H383.8z"
   class="st2" />
	<path
   id="path40"
   d="M464.5,62.5h-23.2v18.1H468V86h-33.7V35.3h33.3v5.4h-26.4v16.4h23.2V62.5z"
   class="st2" />
	<path
   id="path42"
   d="M516.9,40.7h-16.3V86h-6.9V40.7h-16.3v-5.4h39.4V40.7z"
   class="st2" />
	<path
   id="path44"
   d="M556.3,62.5h-23.2v18.1h26.8V86h-33.7V35.3h33.3v5.4h-26.4v16.4h23.2V62.5z"
   class="st2" />
	<path
   id="path46"
   d="M576,64v22h-6.9V35.3h18.4c5.6,0,9.8,1.2,12.7,3.7c2.9,2.5,4.4,6,4.4,10.7c0,2.6-0.7,4.9-2,6.8   c-1.4,1.9-3.3,3.5-5.9,4.6c2.8,0.9,4.8,2.4,6,4.4c1.2,2,1.8,4.5,1.8,7.5v4.8c0,1.6,0.2,3,0.5,4.3c0.3,1.3,1,2.3,1.8,3.1V86h-7.1   c-0.9-0.8-1.5-2-1.7-3.5c-0.3-1.5-0.4-3.1-0.4-4.7v-4.6c0-2.7-0.8-5-2.4-6.6c-1.6-1.7-3.8-2.5-6.4-2.5H576z M576,58.6h10.8   c3.9,0,6.7-0.7,8.4-2.2c1.7-1.5,2.6-3.7,2.6-6.7c0-2.9-0.8-5.1-2.5-6.6c-1.7-1.6-4.2-2.3-7.8-2.3H576V58.6z"
   class="st2" />
	<rect
   id="rect48"
   height="20.1"
   width="39.7"
   class="st2"
   y="65.4" />
	<rect
   id="rect50"
   height="20.1"
   width="39.7"
   class="st2"
   y="65.4"
   x="46.5" />
	<rect
   id="rect52"
   height="20.1"
   width="39.7"
   class="st3"
   y="32.7"
   x="46.5" />
	<rect
   id="rect54"
   height="20.1"
   width="39.7"
   class="st3"
   y="32.7" />
	<path
   id="path56"
   d="M143.1,65c0,6-1.9,11-5.6,15c-3.7,4-8.6,6-14.5,6c-5.8,0-10.4-2-14-6c-3.6-4-5.4-9-5.4-15v-8.8   c0-6,1.8-11,5.4-15c3.6-4,8.3-6,14-6c6,0,10.8,2,14.5,6c3.7,4,5.6,9,5.6,15V65z M136.4,56.2c0-4.5-1.2-8.2-3.7-11.1   c-2.4-2.9-5.7-4.3-9.8-4.3c-3.9,0-7,1.4-9.3,4.3c-2.3,2.9-3.5,6.6-3.5,11.1V65c0,4.6,1.2,8.3,3.5,11.2s5.4,4.3,9.3,4.3   c4.1,0,7.4-1.4,9.8-4.3c2.4-2.9,3.6-6.6,3.6-11.2V56.2z"
   class="st4" />
	<path
   id="path58"
   d="M159.2,65.7V86h-6.9V35.3h19.4c5.4,0,9.6,1.4,12.6,4.2c3,2.8,4.5,6.5,4.5,11c0,4.6-1.5,8.3-4.5,11.1   c-3,2.8-7.2,4.1-12.6,4.1H159.2z M159.2,60.3h12.5c3.4,0,6-0.9,7.7-2.8c1.7-1.8,2.5-4.2,2.5-7s-0.9-5.1-2.6-7   c-1.7-1.9-4.3-2.8-7.7-2.8h-12.5V60.3z"
   class="st4" />
	<path
   id="path60"
   d="M228.1,62.5h-23.2v18.1h26.8V86H198V35.3h33.3v5.4h-26.4v16.4h23.2V62.5z"
   class="st4" />
	<path
   id="path62"
   d="M279.2,86h-6.9l-24.4-39.2l-0.2,0.1V86h-6.9V35.3h6.9l24.4,39.2l0.2-0.1V35.3h6.9V86z"
   class="st4" />
	<rect
   id="rect64"
   height="20.1"
   width="39.7"
   class="st4" />
	<rect
   id="rect66"
   height="20.1"
   width="39.7"
   class="st4"
   x="46.5" />
</g>
</svg>
