<?xml version="1.0" encoding="UTF-8"?><svg id="Layer_1" xmlns="http://www.w3.org/2000/svg" viewBox="0 0 1966.09798 533.08128"><defs><style>.cls-1{fill:none;}.cls-2{fill:#fff;}</style></defs><path class="cls-2" d="M633.67871,428.06874v-20.62793c-4,8.4502-8.83008,14.5-14.49219,18.14258-6.16699,3.97656-14.3291,5.96484-24.4873,5.96484-19.16016,0-32.81836-7.45605-40.98047-22.36816-8-14.24707-11.99512-37.52734-11.99512-69.83594,0-31.81152,4.72168-55.13086,14.16602-69.96094,9.44434-14.82617,24.35547-22.24316,44.73535-22.24316,19.38477,0,33.63281,6.54785,42.74609,19.63379,6.12793,8.94727,9.19629,19.4707,9.19629,31.5625v3.23145h-26.8418v-4.22559c0-7.78516-1.73926-14.24707-5.21875-19.38477-4.31055-6.29492-10.85352-9.44336-19.63379-9.44336-10.77246,0-18.39062,4.55859-22.86426,13.66797-5.30469,10.60547-7.95312,29.41211-7.95312,56.41602,0,27.33789,2.39941,46.39355,7.20703,57.16211,4.13965,9.61133,11.26562,14.41406,21.37402,14.41406,10.76758,0,18.39062-4.13867,22.86426-12.42578,4.47363-8.2832,6.70996-22.20117,6.70996-41.75293h-29.82324v-21.37402h56.66504v93.44727h-21.37402Z"/><path class="cls-2" d="M679.40527,428.06874v-177.44922h62.62891c13.4209,0,24.02246,3.47949,31.81152,10.4375,8.78027,7.79102,13.17285,19.55273,13.17285,35.29102,0,11.76758-2.48535,21.45898-7.45605,29.07812-5.30469,8.12012-12.6748,12.92383-22.11914,14.41504v.49707c17.72656,1.8252,27.00391,13.91797,27.83496,36.28516.16309,8.44922.49707,20.46484.99414,36.03711.33008,6.79492,3.14551,11.92871,8.4502,15.4082h-32.06055c-2.32227-2.81543-3.89453-8.03516-4.72168-15.65723-.16699-1.98828-.58301-13.17188-1.24316-33.55176-.33398-9.94141-2.36035-17.0625-6.08887-21.37305-3.72754-4.30664-10.31348-6.46191-19.75781-6.46191h-23.11328v77.04395h-28.33203ZM707.7373,329.65077h22.61621c8.94727,0,15.90625-2.56641,20.87695-7.70312,4.96973-5.13477,7.45508-12.17773,7.45508-21.125,0-19.21875-8.94629-28.83008-26.84082-28.83008h-24.10742v57.6582Z"/><path class="cls-2" d="M811.61914,428.06874v-177.44922h28.33203v177.44922h-28.33203Z"/><path class="cls-2" d="M868.03125,428.06874v-177.44922h50.45117c25.67969,0,43.07715,8.20117,52.19141,24.60449,6.95898,12.59277,10.4375,33.9668,10.4375,64.12012,0,30.15723-3.47852,51.53125-10.4375,64.12012-9.11426,16.40332-26.51172,24.60449-52.19141,24.60449h-50.45117ZM896.36328,271.99256v134.70312h23.3623c11.92871,0,20.37891-4.72266,25.34961-14.16602,5.13379-10.10449,7.7041-27.83594,7.7041-53.18555,0-25.01562-2.44629-42.49805-7.33105-52.43945-4.88965-9.94141-13.46387-14.91211-25.72266-14.91211h-23.3623Z"/><path class="cls-2" d="M1057.41016,428.06874l-41.75293-177.44922h30.07227l30.07129,141.66113h.49707l31.81152-141.66113h30.07227l-44.73535,177.44922h-36.03613Z"/><path class="cls-2" d="M1125.25879,428.06874l50.45117-177.44922h36.28516l46.72266,177.44922h-29.57422l-10.93555-43.49219h-51.94238l-11.43262,43.49219h-29.57422ZM1171.48438,361.96034h42.00195l-20.37988-87.48145h-.49707l-21.125,87.48145Z"/><path class="cls-2" d="M1271.14453,428.06874v-177.44922h34.74316l51.74512,132.2168v-132.2168h26.84082v177.44922h-34.74316l-51.74512-135.69629v135.69629h-26.84082Z"/><path class="cls-2" d="M1442.875,428.06874v-153.58984h-42.25v-23.85938h112.08594v23.85938h-41.50391v153.58984h-28.33203Z"/><path class="cls-2" d="M1498.29785,428.06874l50.45117-177.44922h36.28516l46.72266,177.44922h-29.57422l-10.93555-43.49219h-51.94238l-11.43262,43.49219h-29.57422ZM1544.52344,361.96034h42.00195l-20.37988-87.48145h-.49707l-21.125,87.48145Z"/><path class="cls-2" d="M1731.91406,428.06874v-20.62793c-4,8.4502-8.83008,14.5-14.49219,18.14258-6.16699,3.97656-14.3291,5.96484-24.4873,5.96484-19.16016,0-32.81836-7.45605-40.98047-22.36816-8-14.24707-11.99512-37.52734-11.99512-69.83594,0-31.81152,4.72168-55.13086,14.16602-69.96094,9.44434-14.82617,24.35547-22.24316,44.73535-22.24316,19.38477,0,33.63281,6.54785,42.74609,19.63379,6.12793,8.94727,9.19629,19.4707,9.19629,31.5625v3.23145h-26.8418v-4.22559c0-7.78516-1.73926-14.24707-5.21875-19.38477-4.31055-6.29492-10.85352-9.44336-19.63379-9.44336-10.77246,0-18.39062,4.55859-22.86426,13.66797-5.30469,10.60547-7.95312,29.41211-7.95312,56.41602,0,27.33789,2.39941,46.39355,7.20703,57.16211,4.13965,9.61133,11.26562,14.41406,21.37402,14.41406,10.76758,0,18.39062-4.13867,22.86426-12.42578,4.47363-8.2832,6.70996-22.20117,6.70996-41.75293h-29.82324v-21.37402h56.66504v93.44727h-21.37402Z"/><path class="cls-2" d="M1777.63965,428.06874v-177.44922h95.93164v23.85938h-67.59961v49.20801h63.62402v23.8584h-63.62402v56.66406h69.58789v23.85938h-97.91992Z"/><polygon class="cls-1" points="245.3996 341.98509 281.65039 341.98509 250.27362 308.78056 245.3996 341.98509"/><path class="cls-1" d="M377.06073,310.2844c6.35718-14.42468,9.93176-30.37872,9.99121-47.19818,0-16.48755-3.41541-32.18121-9.56628-46.4209-27.02039-8.37012-47.95679-30.49158-54.68677-58.19543-15.92938-8.09692-33.94885-12.66571-53.02899-12.66571-23.26849,0-44.96246,6.78955-63.20764,18.49396-6.94336,21.40784-22.53998,38.89294-42.68091,48.34064-7.30121,15.28448-11.39355,32.39087-11.39355,50.44745,0,18.67755,4.41022,36.35065,12.22693,52.04749,19.23309,9.28973,34.20801,25.96136,41.29968,46.33881,1.53131.99872,3.07843,1.97479,4.65747,2.90283l16.60229-16.45001,8.5296-58.94562v-38.53558h-61.38269c-2.7417,0-5.33099-1.21851-7.00647-3.50323-2.89398-3.80786-1.9801-9.2912,1.82776-12.03284l94.73956-69.1507c3.04626-2.28473,7.46338-2.13245,10.50964.30457l.15234-.30457,94.73956,68.99841c2.13239,1.67542,3.50323,4.26477,3.50323,7.00641,0,4.87408-3.96014,8.68195-8.68195,8.68195h-61.38269v38.84015l8.22498,56.81329,12.97382,12.6521c9.09265-23.37341,28.70245-41.45819,53.03986-48.46527Z"/><polygon class="cls-1" points="252.86298 230.79557 272.81616 230.79557 252.86298 211.60398 252.86298 230.79557"/><path class="cls-1" d="M363.59558,392.55345c0,20.86719,15.68835,36.70776,35.64154,36.70776,19.64856,0,35.64154-15.8407,35.64154-36.70776,0-5.94019-2.13239-13.70831-5.7879-21.47632-3.19861-7.3111-7.46344-13.70831-11.57593-17.97308-.7616.91388-1.82776,2.13239-2.89398,3.8078-.45691.7616-1.06616,1.52319-1.52313,2.28473-.91388,1.37085-1.82776,2.58936-2.43701,3.50323-.91394,1.21857-2.43707,1.9801-3.80786,1.9801s-2.89398-.60925-3.80786-1.82776c-.60925-.7616-1.37085-1.82776-2.13239-2.74164-3.96021-4.87408-8.37732-10.66205-12.18518-14.46991-5.48334,5.48334-11.57593,13.09906-16.44995,21.47638-5.17871,8.83423-8.37732,17.97308-8.68188,25.43646ZM386.89966,366.05076c1.37079-2.13239,3.8078-1.9801,5.02637,0,3.35089,5.48328,9.2912,15.23145,12.64209,20.5625,1.21851,1.97998,3.65558,2.13232,5.02637.15222l5.17871-7.46338c1.37079-1.9801,3.65552-1.82776,4.5694.45697,5.17871,11.88055,2.89398,26.95966-5.63562,34.57538-4.26483,3.50317-8.68195,5.33105-13.8606,5.33105-12.79443,0-22.99951-10.35742-23.30414-28.02588,0-7.76807,3.50323-14.62225,10.35742-25.58887Z"/><polygon class="cls-1" points="257.43237 191.95542 285.61053 219.06736 285.61053 195.30632 269.16058 183.27348 257.43237 191.95542"/><polygon class="cls-1" points="302.82208 233.23258 337.70209 233.38493 302.82208 207.94841 302.82208 233.23258"/><polygon class="cls-1" points="235.65143 207.79612 200.77142 233.23258 235.65143 233.23258 235.65143 207.79612"/><path class="cls-1" d="M367.54694,327.72038c-12.86646,6.84473-23.2998,17.66766-29.64154,30.81262-3.20178,6.6366-5.34363,13.86774-6.25085,21.46655-.31891,2.6712-.50195,5.38275-.50195,8.13678,0,37.6217,30.61517,68.38916,68.38916,68.38916,37.62164,0,68.38916-30.76746,68.38916-68.38916s-30.61523-68.38916-68.38916-68.38916c-3.70038,0-7.32874.30487-10.86963.87292-7.52301,1.20679-14.63293,3.64648-21.12518,7.10028ZM406.7005,351.88554l.15228-.30463c1.37085-1.9801,3.19861-4.56946,4.87408-6.09259,3.35089-3.19861,8.5296-3.19861,11.88049,0,5.48334,5.17865,10.66205,13.25134,14.62219,21.62866,3.96021,8.37726,6.70184,17.6684,6.70184,25.58881,0,26.04578-20.10547,46.45581-45.38965,46.45581-25.58887,0-45.38971-20.41003-45.38971-46.45581,0-10.0528,4.11249-21.01941,9.59583-30.46289,5.48334-9.59583,12.48975-18.43005,19.03931-24.52264,3.35089-3.19861,8.37726-3.04626,11.72815,0,3.80786,3.65558,8.37732,9.2912,12.18518,14.16528Z"/><path class="cls-1" d="M196.37701,153.48258c.97662-4.59631,1.50049-9.35406,1.50049-14.22797,0-37.62164-30.61523-68.38916-68.38916-68.38916-37.6217,0-68.38922,30.61517-68.38922,68.38916s30.76752,68.5415,68.38922,68.5415c7.73743,0,15.16583-1.3161,22.10095-3.70264,22.53571-7.75494,39.76978-26.99573,44.78772-50.6109ZM93.99908,120.21531h34.42303c7.3111,0,13.25134-5.94025,13.25134-13.25134,0-3.50323-2.89398-6.24487-6.24487-6.24487-3.50323,0-6.24493,2.74164-6.24493,6.24487,0,3.80786-3.19855,7.00647-7.00641,7.00647s-7.00647-3.19861-7.00647-7.00647c0-11.11896,8.98651-20.25781,20.25781-20.25781s20.25781,9.13885,20.25781,20.25781c0,15.0791-12.18518,27.26428-27.26428,27.26428h-34.42303c-3.96021,0-7.00647-3.19861-7.00647-7.00647s3.19861-7.00647,7.00647-7.00647ZM122.63416,173.52537c0-3.80786,3.19861-7.00647,7.00647-7.00647s7.00647,3.19861,7.00647,7.00647c0,3.50323,2.74164,6.24487,6.24487,6.24487s6.24487-2.74164,6.24487-6.24487c0-7.3111-5.94025-13.25134-13.25134-13.25134h-43.40961c-3.96014,0-7.00647-3.19861-7.00647-7.00647s3.19861-7.00647,7.00647-7.00647h43.25732c15.0791,0,27.26428,12.18512,27.26428,27.26428,0,11.11896-8.83423,20.25781-20.10553,20.25781s-20.25781-9.13885-20.25781-20.25781Z"/><path class="cls-1" d="M152.03687,323.58519c-7.06201-2.47498-14.64484-3.83801-22.54852-3.83801-37.77399,0-68.38922,30.91986-68.38922,68.5415s30.61523,68.38916,68.38922,68.38916,68.38916-30.9198,68.38916-68.5415c0-5.13275-.58844-10.13104-1.66858-14.94788-5.18042-23.10205-22.08752-41.86353-44.17206-49.60327ZM78.00604,368.64012l1.37085,2.43701c1.37079,2.58936,4.26477,7.00647,9.13885,8.22498,1.06622.30463,1.82776.45697,2.89398.30463,1.82776-.30463,3.04626-1.37079,5.02637-3.35089s4.41711-4.56946,8.22498-5.78796c1.67548-.60925,4.26477-1.52313,7.46338-.60925,3.50323.91388,5.78796,3.50323,7.61572,5.78796,1.82782,2.13239,3.04633,3.50323,5.02637,3.80786.15234,0,.91388.15228,1.67548,0,2.28473-.30463,3.65558-1.67548,5.48334-3.50323,1.98004-1.9801,4.11249-4.11249,7.46338-5.33099,3.80786-1.21857,7.15875-.30463,8.37732,0,3.65552,1.06616,5.94025,3.50323,7.92035,5.63562,1.98004,1.9801,3.04626,3.04626,4.72174,3.35089.76154.15234,1.37079,0,2.28467-.30463,4.56946-1.06616,7.92035-5.02637,9.90045-8.07269l1.52313-2.43701,5.48334,4.26483-1.52313,2.43701c-2.7417,4.26483-7.3111,9.59583-14.01294,11.11902-1.21851.30457-2.43701.60913-4.26477.45691-4.26483-.45691-6.70184-3.19861-8.83429-5.33099-1.52313-1.67548-2.89398-3.19867-4.87402-3.65558-.7616-.30463-2.74164-.76154-4.72174-.15228-1.82776.60919-3.19861,1.98004-4.72174,3.50323-2.13245,2.28467-4.87408,5.02637-9.2912,5.48328-1.52313.15234-2.58936,0-3.35089,0-4.41711-.7616-7.00647-3.65552-8.98657-6.09253-1.52313-1.82782-2.74164-3.19861-4.41711-3.65558-1.37085-.45691-2.58936,0-3.96021.45697-2.28467.7616-3.8078,2.28473-5.48328,4.11249-2.13239,2.13239-4.56946,4.87408-8.83423,5.33099-.60925.15222-1.06622.15222-1.52313.15222-1.52319,0-2.7417-.30457-3.80786-.60913-7.15881-1.98022-11.42358-8.07275-13.40369-11.72827l-1.37085-2.43701,5.78796-3.80786ZM178.22894,403.06321c-2.7417,4.26477-7.3111,9.5957-14.01294,11.1189-1.21851.30469-2.43701.60925-4.26483.45703-4.26477-.45703-6.70184-3.19873-8.83423-5.33105-1.52313-1.67554-2.89398-3.19861-4.87402-3.65552-.7616-.30469-2.7417-.7616-4.7218-.15234-1.82776.60925-3.19855,1.97998-4.72174,3.50317-2.13239,2.28467-4.87402,5.02637-9.29114,5.4834-1.52313.15234-2.58936,0-3.35095,0-4.41711-.7616-7.00641-3.65552-8.98651-6.09253-1.52313-1.82788-2.7417-3.19873-4.41711-3.65564-1.37085-.45691-2.58936,0-3.96021.45691-2.28473.76172-3.80786,2.28479-5.48328,4.11255-2.13245,2.13232-4.56946,4.87402-8.83429,5.33105-.76154.15222-1.21851.15222-1.67542.15222-1.52319,0-2.7417-.30457-3.80786-.60925-7.15881-1.9801-11.42358-8.07263-13.40369-11.72827l-1.37085-2.43701,5.78796-3.80786,1.37085,2.43701c1.37079,2.58936,4.26477,7.00659,9.13885,8.2251,1.06622.30457,1.82776.45691,2.89398.30457,1.82776-.30457,3.04626-1.37073,5.02637-3.35095,1.9801-1.97998,4.41711-4.56934,8.22498-5.78784,1.67548-.60938,4.26477-1.52319,7.46338-.60938,3.50323.91394,5.78796,3.5033,7.61572,5.78809,1.82782,2.13232,3.04633,3.50317,5.17871,3.80786.15228,0,.7616.15234,1.67548,0,2.28467-.30469,3.65552-1.67554,5.48328-3.5033,1.82782-1.9801,4.11249-4.11243,7.46344-5.33093,3.80786-1.21863,7.15875-.30469,8.37726,0,3.65558,1.06616,5.94031,3.50317,7.92035,5.6355,1.9801,1.98022,3.04633,3.04639,4.72174,3.35095.7616.15234,1.21857,0,2.28473-.30457,4.56946-1.06616,7.92035-5.02637,9.90045-8.07275l1.52313-2.43701,5.48334,4.26489-1.52313,2.43701Z"/><polygon class="cls-1" points="253.01526 250.59648 253.01526 269.02647 271.14069 250.59648 253.01526 250.59648"/><path class="cls-1" d="M240.37317,377.01738c3.96021,1.06622,8.07269,1.82776,12.18518,2.43701l24.82727-20.10547h-34.4231l-2.58936,17.66846Z"/><polygon class="cls-1" points="290.94159 326.6013 286.8291 298.57548 264.43884 298.57548 290.94159 326.6013"/><polygon class="cls-1" points="285.6106 281.36393 285.6106 260.49687 264.89581 281.36393 285.6106 281.36393"/><path class="cls-1" d="M279.06104,380.21598c6.5495-.60925,12.94672-1.67548,19.19165-3.19861l-1.67548-11.11896-17.51617,14.31757Z"/><path class="cls-1" d="M469.91101,139.25462c0-37.62164-30.61523-68.38916-68.38922-68.38916s-68.3891,30.76752-68.3891,68.38916c0,2.94177.20825,5.83527.57141,8.68182.96246,7.54382,3.14789,14.71472,6.37347,21.29645,6.06543,12.37616,15.7652,22.66382,27.70685,29.47089,6.4209,3.6601,13.48633,6.30914,20.98907,7.73016,4.13214.78259,8.38953,1.20984,12.74835,1.20984,37.62164,0,68.38916-30.76752,68.38916-68.38916ZM373.14337,181.44572h-2.99835c-6.85413,0-12.48975-5.63562-12.48975-12.48981v-37.62164c0-6.85413,5.63562-12.48975,12.48975-12.48975h3.19861v-9.44354c0-15.53607,12.64209-28.17816,28.17816-28.17816s28.17816,12.64209,28.17816,28.17816v9.44354h3.19861c6.85419,0,12.48981,5.63562,12.33746,12.48975v37.62164c0,6.85419-5.63562,12.48981-12.48975,12.48981h-59.60291Z"/><path class="cls-1" d="M1107.56836,118.6743c0-6.70544-1.84399-11.7345-6.03491-14.91956s-10.72876-4.69379-20.28381-4.69379h-14.91956v39.56195h17.09875c7.54358,0,13.57849-1.50873,17.76929-5.02905,4.19092-3.52039,6.37024-8.21417,6.37024-14.91956Z"/><path class="cls-1" d="M401.52179,93.71263c-8.68188,0-15.68835,7.00647-15.68835,15.68835v9.44354h31.37677v-9.44354c0-8.68188-7.00647-15.68835-15.68842-15.68835Z"/><polygon class="cls-2" points="566.44153 128.7324 548.33691 128.7324 548.33691 182.37571 601.98022 182.37571 601.98022 164.60636 566.44153 164.60636 566.44153 128.7324"/><polygon class="cls-2" points="548.33691 119.51249 566.10626 119.51249 566.10626 110.62779 620.08484 110.62779 620.08484 164.60636 611.2002 164.60636 611.2002 182.37571 637.85419 182.37571 637.85419 92.85844 548.33691 92.85844 548.33691 119.51249"/><polygon class="cls-2" points="688.98297 93.86424 661.65845 93.86424 661.82599 182.04045 728.04199 182.04045 728.04199 159.57731 688.98297 159.57731 688.98297 93.86424"/><polygon class="cls-2" points="739.60883 182.04045 766.93341 182.04045 766.93341 148.34574 802.13678 148.34574 802.13678 127.39134 766.93341 127.39134 766.93341 116.32737 808.17175 116.32737 808.17175 93.86424 739.60883 93.86424 739.60883 182.04045"/><polygon class="cls-2" points="828.79083 182.71098 878.24329 182.71098 878.24329 176.67613 835.16095 176.67613 835.16095 138.6229 875.72876 138.6229 875.72876 132.92332 835.16095 132.92332 835.16095 99.22862 878.24329 99.22862 878.24329 93.52897 828.79083 93.52897 828.79083 182.71098"/><path class="cls-2" d="M958.54053,93.52897v58.00183c0,6.70544.33527,13.57849.67059,20.95441h-.33533l-53.64325-78.95624h-6.37012v89.18201h5.69958v-57.66656c0-4.86139,0-11.73444-.67053-21.28967h.67053l53.64331,78.95624h6.37012l-.00006-89.18201h-6.03485Z"/><polygon class="cls-2" points="989.88837 182.71098 1039.34082 182.71098 1039.34082 176.67613 996.25848 176.67613 996.25848 138.6229 1036.82617 138.6229 1036.82617 132.92332 996.25848 132.92332 996.25848 99.22862 1039.34082 99.22862 1039.34082 93.52897 989.88837 93.52897 989.88837 182.71098"/><path class="cls-2" d="M1109.58008,133.25859c3.18494-4.19092,4.69373-9.21997,4.69373-15.25482,0-8.21417-2.34692-14.24902-7.87891-18.43988-5.53186-4.19092-13.74609-6.03491-24.80994-6.03491h-21.625v89.18201h6.37012v-38.72375h22.46313l23.13367,38.72375h7.54358l-24.47473-40.56775c6.70544-1.84399,11.39929-4.69379,14.58435-8.88464ZM1083.42883,138.6229h-17.09875v-39.56195h14.91956c9.55505,0,16.0929,1.50873,20.28381,4.69379s6.03491,8.21411,6.03491,14.91956-2.17932,11.39917-6.37024,14.91956c-4.1908,3.52032-10.22571,5.02905-17.76929,5.02905Z"/><path class="cls-2" d="M1169.76099,137.11418h.33545v5.02905h26.31885v30.50964c-5.69971,2.17926-12.40503,3.52032-20.61914,3.52032-12.57275,0-22.12793-3.18506-28.49805-9.89044-6.70544-6.70544-9.89062-16.42828-9.89062-29.50385,0-11.7345,3.52039-21.12207,10.22583-28.49799,6.70532-7.20831,15.92529-10.7287,27.65979-10.7287,8.21423,0,16.26062,1.84399,23.8042,5.36432l2.51453-5.36432c-7.54358-3.52032-16.42822-5.36432-25.9834-5.36432-8.88477,0-16.76355,1.84399-23.8042,5.69958-7.04077,3.85565-12.06982,8.8847-15.92542,15.92535-3.52039,6.70544-5.36438,14.58429-5.36438,23.46899,0,14.24896,3.68799,25.14526,11.06396,33.02411,7.20825,7.87891,18.10449,11.7345,32.01831,11.7345,10.72864,0,20.28394-1.84399,28.83325-5.36432v-39.72955h-32.68896v.1676Z"/><polygon class="cls-2" points="1271.51562 93.52897 1245.19702 142.14323 1219.21362 93.69664 1211.83765 93.69664 1242.01196 148.51341 1242.01196 182.04045 1248.38208 182.04045 1248.38208 147.84281 1278.22119 93.52897 1271.51562 93.52897"/><path class="cls-2" d="M397.46716,469.11521c.69159.01746,1.37878.05249,2.07458.05249s1.383-.03503,2.07458-.05249c-.69159.01733-1.37878.05237-2.07458.05237s-1.383-.03503-2.07458-.05237Z"/><path class="cls-2" d="M129.48834,58.22337c-44.75238,0-81.03131,36.27893-81.03131,81.03125,0-44.78046,36.40314-81.03125,81.03131-81.03125Z"/><path class="cls-2" d="M93.99908,134.22825h34.42303c15.0791,0,27.26428-12.18518,27.26428-27.26428,0-11.11896-8.98657-20.25781-20.25781-20.25781s-20.25781,9.13885-20.25781,20.25781c0,3.80786,3.19861,7.00647,7.00647,7.00647s7.00641-3.19861,7.00641-7.00647c0-3.50323,2.7417-6.24487,6.24493-6.24487,3.35089,0,6.24487,2.74164,6.24487,6.24487,0,7.3111-5.94025,13.25134-13.25134,13.25134h-34.42303c-3.80786,0-7.00647,3.19861-7.00647,7.00647s3.04626,7.00647,7.00647,7.00647Z"/><path class="cls-2" d="M162.9975,173.52537c0-15.07916-12.18518-27.26428-27.26428-27.26428h-43.25732c-3.80786,0-7.00647,3.19861-7.00647,7.00647s3.04633,7.00647,7.00647,7.00647h43.40961c7.3111,0,13.25134,5.94025,13.25134,13.25134,0,3.50323-2.74164,6.24487-6.24487,6.24487s-6.24487-2.74164-6.24487-6.24487c0-3.80786-3.19861-7.00647-7.00647-7.00647s-7.00647,3.19861-7.00647,7.00647c0,11.11896,8.98657,20.25781,20.25781,20.25781s20.10553-9.13885,20.10553-20.25781Z"/><path class="cls-2" d="M48.45703,388.13633c0,44.75232,36.27893,81.03137,81.03131,81.03137-44.78046,0-81.03131-36.40332-81.03131-81.03137Z"/><path class="cls-2" d="M129.48834,307.10508c-44.75238,0-81.03131,36.27893-81.03131,81.03125,0-44.62811,36.25085-81.03125,81.03131-81.03125Z"/><path class="cls-2" d="M482.5531,139.25462c0-44.78046-36.25085-81.03125-81.03131-81.03125s-81.03125,36.25079-81.03125,81.03125c0,.76562.03656,1.52222.05762,2.28271-15.68158-6.56976-32.88879-10.20306-50.9306-10.20306-21.35028,0-41.5097,5.06757-59.35242,14.05566.15167-2.02753.25446-4.06873.25446-6.13531.15228-44.78046-36.25085-81.03125-81.03125-81.03125-44.62817,0-81.03131,36.25079-81.03131,81.03125s36.25085,81.03125,81.03131,81.03125c5.41418,0,10.69983-.54095,15.81567-1.55182-5.00793,13.94763-7.74304,28.98065-7.74304,44.6568,0,15.91901,2.81476,31.17755,7.97192,45.30688-5.1864-1.04028-10.55011-1.59265-16.04456-1.59265-44.78046,0-81.03131,36.40314-81.03131,81.03125s36.25085,81.03137,81.03131,81.03137,81.03125-36.25098,81.03125-81.03125v-.00012c0-.01758-.00134-.03479-.00134-.05237-.00146-2.26392-.11798-4.49951-.30115-6.71613,17.85449,9.00323,38.03107,14.07965,59.40045,14.07965,17.29559,0,33.80975-3.32629,48.94482-9.36597-.01709.68506-.05188,1.36572-.05188,2.05481,0,44.08459,35.13959,79.87634,78.95667,80.97888.69159.01733,1.37878.05237,2.07458.05237s1.383-.03503,2.07458-.05237c43.81702-1.10254,78.95667-36.89429,78.95667-80.97888,0-44.78046-36.25085-81.03125-81.03125-81.03125-1.79877,0-3.57794.07941-5.34735.19458,4.83875-13.737,7.47974-28.51208,7.47974-43.90881,0-15.22101-2.5871-29.83484-7.3299-43.43854,2.36658.20752,4.75671.33356,7.17755.33356,44.78046,0,81.03131-36.25079,81.03131-81.03125ZM129.48834,207.79612c-37.6217,0-68.38922-30.76752-68.38922-68.5415s30.76752-68.38916,68.38922-68.38916c37.77393,0,68.38916,30.76752,68.38916,68.38916,0,4.8739-.52386,9.63165-1.50049,14.22797-5.01794,23.61517-22.25201,42.85596-44.78772,50.6109-6.93512,2.38654-14.36353,3.70264-22.10095,3.70264ZM129.48834,456.67784c-37.77399,0-68.38922-30.76746-68.38922-68.38916s30.61523-68.5415,68.38922-68.5415c7.90369,0,15.48651,1.36304,22.54852,3.83801,22.08453,7.73975,38.99164,26.50122,44.17206,49.60327,1.08014,4.81683,1.66858,9.81512,1.66858,14.94788,0,37.6217-30.61523,68.5415-68.38916,68.5415ZM252.55835,379.45439c-4.11249-.60925-8.22498-1.37079-12.18518-2.43701l2.58936-17.66846h34.4231l-24.82727,20.10547ZM285.6106,281.36393h-20.71478l20.71478-20.86707v20.86707ZM286.8291,298.57548l4.11249,28.02582-26.50275-28.02582h22.39026ZM253.01526,269.02647v-18.42999h18.12543l-18.12543,18.42999ZM285.61053,219.06736l-28.17816-27.11194,11.72821-8.68195,16.44995,12.03284v23.76105ZM272.81616,230.79557h-19.95319v-19.19159l19.95319,19.19159ZM281.65039,341.98509h-36.25079l4.87402-33.20453,31.37677,33.20453ZM279.06104,380.21598l17.51617-14.31757,1.67548,11.11896c-6.24493,1.52313-12.64215,2.58936-19.19165,3.19861ZM311.04706,346.09758l-8.22498-56.81329v-38.84015h61.38269c4.7218,0,8.68195-3.80786,8.68195-8.68195,0-2.74164-1.37085-5.33099-3.50323-7.00641l-94.73956-68.99841-.15234.30457c-3.04626-2.43701-7.46338-2.58929-10.50964-.30457l-94.73956,69.1507c-3.80786,2.74164-4.72174,8.22498-1.82776,12.03284,1.67548,2.28473,4.26477,3.50323,7.00647,3.50323h61.38269v38.53558l-8.5296,58.94562-16.60229,16.45001c-1.57904-.92804-3.12616-1.90411-4.65747-2.90283-7.09167-20.37744-22.06659-37.04907-41.29968-46.33881-7.81671-15.69684-12.22693-33.36993-12.22693-52.04749,0-18.05658,4.09235-35.16296,11.39355-50.44745,20.14093-9.44769,35.73755-26.9328,42.68091-48.34064,18.24518-11.70441,39.93915-18.49396,63.20764-18.49396,19.08014,0,37.09961,4.56879,53.02899,12.66571,6.72998,27.70386,27.66638,49.82532,54.68677,58.19543,6.15088,14.23969,9.56628,29.93335,9.56628,46.4209-.05945,16.81946-3.63403,32.7735-9.99121,47.19818-24.3374,7.00708-43.9472,25.09186-53.03986,48.46527l-12.97382-12.6521ZM302.82208,233.23258v-25.28418l34.88,25.43652-34.88-.15234ZM235.65143,207.79612v25.43646h-34.88l34.88-25.43646ZM399.54175,319.74717c37.77393,0,68.38916,30.76752,68.38916,68.38916s-30.76752,68.38916-68.38916,68.38916c-37.77399,0-68.38916-30.76746-68.38916-68.38916,0-2.75403.18304-5.46558.50195-8.13678.90723-7.59882,3.04907-14.82996,6.25085-21.46655,6.34174-13.14496,16.77509-23.9679,29.64154-30.81262,6.49225-3.4538,13.60217-5.89349,21.12518-7.10028,3.54089-.56805,7.16925-.87292,10.86963-.87292ZM388.7735,206.43394c-7.50275-1.42102-14.56818-4.07007-20.98907-7.73016-11.94165-6.80707-21.64142-17.09473-27.70685-29.47089-3.22559-6.58173-5.41101-13.75262-6.37347-21.29645-.36316-2.84656-.57141-5.74005-.57141-8.68182,0-37.62164,30.61517-68.38916,68.3891-68.38916s68.38922,30.76752,68.38922,68.38916-30.76752,68.38916-68.38916,68.38916c-4.35883,0-8.61621-.42725-12.74835-1.20984Z"/><path class="cls-2" d="M399.84637,419.66551c5.17865,0,9.59576-1.82788,13.8606-5.33105,8.5296-7.61572,10.81433-22.69482,5.63562-34.57538-.91388-2.28473-3.19861-2.43707-4.5694-.45697l-5.17871,7.46338c-1.37079,1.9801-3.80786,1.82776-5.02637-.15222-3.35089-5.33105-9.2912-15.07922-12.64209-20.5625-1.21857-1.9801-3.65558-2.13239-5.02637,0-6.85419,10.96661-10.35742,17.8208-10.35742,25.58887.30463,17.66846,10.5097,28.02588,23.30414,28.02588Z"/><path class="cls-2" d="M382.78717,337.72026c-6.54956,6.09259-13.55597,14.92682-19.03931,24.52264-5.48334,9.44348-9.59583,20.4101-9.59583,30.46289,0,26.04578,19.80084,46.45581,45.38971,46.45581,25.28418,0,45.38965-20.41003,45.38965-46.45581,0-7.92041-2.74164-17.21155-6.70184-25.58881-3.96014-8.37732-9.13885-16.45001-14.62219-21.62866-3.35089-3.19861-8.5296-3.19861-11.88049,0-1.67548,1.52313-3.50323,4.11249-4.87408,6.09259l-.15228.30463c-3.80786-4.87408-8.37732-10.5097-12.18518-14.16528-3.35089-3.04626-8.37726-3.19861-11.72815,0ZM400.9126,360.11051c.76154.91388,1.52313,1.98004,2.13239,2.74164.91388,1.21851,2.43701,1.82776,3.80786,1.82776s2.89392-.76154,3.80786-1.9801c.60925-.91388,1.52313-2.13239,2.43701-3.50323.45697-.76154,1.06622-1.52313,1.52313-2.28473,1.06622-1.67542,2.13239-2.89392,2.89398-3.8078,4.11249,4.26477,8.37732,10.66199,11.57593,17.97308,3.65552,7.76801,5.7879,15.53613,5.7879,21.47632,0,20.86707-15.99298,36.70776-35.64154,36.70776-19.95319,0-35.64154-15.84058-35.64154-36.70776.30457-7.46338,3.50317-16.60223,8.68188-25.43646,4.87402-8.37732,10.96661-15.99304,16.44995-21.47638,3.80786,3.80786,8.22498,9.59583,12.18518,14.46991Z"/><path class="cls-2" d="M86.99261,386.61326c1.06616.30457,2.28467.60913,3.80786.60913.45691,0,.91388,0,1.52313-.15222,4.26477-.45691,6.70184-3.19861,8.83423-5.33099,1.67548-1.82776,3.19861-3.35089,5.48328-4.11249,1.37085-.45697,2.58936-.91388,3.96021-.45697,1.67548.45697,2.89398,1.82776,4.41711,3.65558,1.9801,2.43701,4.56946,5.33093,8.98657,6.09253.76154,0,1.82776.15234,3.35089,0,4.41711-.45691,7.15875-3.19861,9.2912-5.48328,1.52313-1.52319,2.89398-2.89404,4.72174-3.50323,1.9801-.60925,3.96014-.15234,4.72174.15228,1.98004.45691,3.35089,1.9801,4.87402,3.65558,2.13245,2.13239,4.56946,4.87408,8.83429,5.33099,1.82776.15222,3.04626-.15234,4.26477-.45691,6.70184-1.52319,11.27124-6.85419,14.01294-11.11902l1.52313-2.43701-5.48334-4.26483-1.52313,2.43701c-1.9801,3.04633-5.33099,7.00653-9.90045,8.07269-.91388.30463-1.52313.45697-2.28467.30463-1.67548-.30463-2.7417-1.37079-4.72174-3.35089-1.9801-2.13239-4.26483-4.56946-7.92035-5.63562-1.21857-.30463-4.56946-1.21857-8.37732,0-3.35089,1.21851-5.48334,3.35089-7.46338,5.33099-1.82776,1.82776-3.19861,3.19861-5.48334,3.50323-.7616.15228-1.52313,0-1.67548,0-1.98004-.30463-3.19855-1.67548-5.02637-3.80786-1.82776-2.28473-4.11249-4.87408-7.61572-5.78796-3.19861-.91388-5.7879,0-7.46338.60925-3.80786,1.21851-6.24487,3.80786-8.22498,5.78796s-3.19861,3.04626-5.02637,3.35089c-1.06622.15234-1.82776,0-2.89398-.30463-4.87408-1.21851-7.76807-5.63562-9.13885-8.22498l-1.37085-2.43701-5.78796,3.80786,1.37085,2.43701c1.9801,3.65552,6.24487,9.74805,13.40369,11.72827Z"/><path class="cls-2" d="M172.74561,398.79832c-1.9801,3.04639-5.33099,7.00659-9.90045,8.07275-1.06616.30457-1.52313.45691-2.28473.30457-1.67542-.30457-2.74164-1.37073-4.72174-3.35095-1.98004-2.13232-4.26477-4.56934-7.92035-5.6355-1.21851-.30469-4.5694-1.21863-8.37726,0-3.35095,1.21851-5.63562,3.35083-7.46344,5.33093-1.82776,1.82776-3.19861,3.19861-5.48328,3.5033-.91388.15234-1.52319,0-1.67548,0-2.13239-.30469-3.35089-1.67554-5.17871-3.80786-1.82776-2.28479-4.11249-4.87415-7.61572-5.78809-3.19861-.91382-5.7879,0-7.46338.60938-3.80786,1.21851-6.24487,3.80786-8.22498,5.78784-1.9801,1.98022-3.19861,3.04639-5.02637,3.35095-1.06622.15234-1.82776,0-2.89398-.30457-4.87408-1.21851-7.76807-5.63574-9.13885-8.2251l-1.37085-2.43701-5.78796,3.80786,1.37085,2.43701c1.9801,3.65564,6.24487,9.74817,13.40369,11.72827,1.06616.30469,2.28467.60925,3.80786.60925.45691,0,.91388,0,1.67542-.15222,4.26483-.45703,6.70184-3.19873,8.83429-5.33105,1.67542-1.82776,3.19855-3.35083,5.48328-4.11255,1.37085-.45691,2.58936-.91382,3.96021-.45691,1.67542.45691,2.89398,1.82776,4.41711,3.65564,1.9801,2.43701,4.5694,5.33093,8.98651,6.09253.7616,0,1.82782.15234,3.35095,0,4.41711-.45703,7.15875-3.19873,9.29114-5.4834,1.52319-1.52319,2.89398-2.89392,4.72174-3.50317,1.9801-.60925,3.96021-.15234,4.7218.15234,1.98004.45691,3.35089,1.97998,4.87402,3.65552,2.13239,2.13232,4.56946,4.87402,8.83423,5.33105,1.82782.15222,3.04633-.15234,4.26483-.45703,6.70184-1.52319,11.27124-6.85413,14.01294-11.1189l1.52313-2.43701-5.48334-4.26489-1.52313,2.43701Z"/><path class="cls-2" d="M445.23602,168.95591v-37.62164c.15234-6.85413-5.48328-12.48975-12.33746-12.48975h-3.19861v-9.44354c0-15.53607-12.64209-28.17816-28.17816-28.17816s-28.17816,12.64209-28.17816,28.17816v9.44354h-3.19861c-6.85413,0-12.48975,5.63562-12.48975,12.48975v37.62164c0,6.85419,5.63562,12.48981,12.48975,12.48981h62.60126c6.85413,0,12.48975-5.63562,12.48975-12.48981ZM417.21021,118.84452h-31.37677v-9.44354c0-8.68188,7.00647-15.68835,15.68835-15.68835s15.68842,7.00647,15.68842,15.68835v9.44354Z"/></svg>