<?xml version="1.0" encoding="UTF-8" standalone="no"?>
<svg
   xmlns:dc="http://purl.org/dc/elements/1.1/"
   xmlns:cc="http://creativecommons.org/ns#"
   xmlns:rdf="http://www.w3.org/1999/02/22-rdf-syntax-ns#"
   xmlns:svg="http://www.w3.org/2000/svg"
   xmlns="http://www.w3.org/2000/svg"
   xmlns:sodipodi="http://sodipodi.sourceforge.net/DTD/sodipodi-0.dtd"
   xmlns:inkscape="http://www.inkscape.org/namespaces/inkscape"
   id="Layer_1"
   data-name="Layer 1"
   viewBox="0 0 124.77136 118.74227"
   version="1.1"
   sodipodi:docname="hyphae-icon-white.svg"
   width="124.77136"
   height="118.74227"
   inkscape:version="1.0.2 (e86c8708, 2021-01-15)">
  <metadata
     id="metadata99">
    <rdf:RDF>
      <cc:Work
         rdf:about="">
        <dc:format>image/svg+xml</dc:format>
        <dc:type
           rdf:resource="http://purl.org/dc/dcmitype/StillImage" />
        <dc:title></dc:title>
      </cc:Work>
    </rdf:RDF>
  </metadata>
  <sodipodi:namedview
     pagecolor="#ffffff"
     bordercolor="#666666"
     borderopacity="1"
     objecttolerance="10"
     gridtolerance="10"
     guidetolerance="10"
     inkscape:pageopacity="0"
     inkscape:pageshadow="2"
     inkscape:window-width="1540"
     inkscape:window-height="768"
     id="namedview97"
     showgrid="false"
     inkscape:zoom="1.9026301"
     inkscape:cx="196.565"
     inkscape:cy="62.368299"
     inkscape:window-x="871"
     inkscape:window-y="305"
     inkscape:window-maximized="0"
     inkscape:current-layer="Layer_1" />
  <defs
     id="defs12">
    <style
       id="style10">.cls-1,.cls-2{fill:#fff;}.cls-2{opacity:0.3;}</style>
  </defs>
  <path
     class="cls-1"
     d="m 100.805,66.168299 a 9,9 0 0 1 -3.42,-5.92 h -9.66 c 0,2.8 0,5.61 0,8.41 a 2,2 0 0 0 1.16,2 c 2.34,1.34 4.65,2.71 7,4.06 z"
     id="path46" />
  <path
     class="cls-1"
     d="m 88.605,48.178299 a 2,2 0 0 0 -0.84,1.46 c -0.07,2.74 0,5.47 0,8.21 h 9.62 a 9,9 0 0 1 3.37,-5.89 l -4.75,-8.09 c -2.47,1.43 -4.94,2.89 -7.4,4.31 z"
     id="path48" />
  <path
     class="cls-1"
     d="m 124.765,49.808299 a 1.76,1.76 0 0 0 -1,-1.74 q -8.37,-4.78 -16.68,-9.66 a 1.46,1.46 0 0 0 -1.72,0 l -7.3,4.23 4.75,8.08 a 9,9 0 1 1 0.06,16.64 l -5,8.58 c 2.42,1.41 4.84,2.79 7.25,4.21 a 1.8,1.8 0 0 0 2.1,0 q 8.18,-4.83 16.42,-9.55 a 1.86,1.86 0 0 0 1.08,-1.83 q -0.02,-9.45 0.04,-18.96 z"
     id="path50" />
  <path
     class="cls-1"
     d="m 40.245,88.478299 a 9,9 0 0 1 3.4,0.67 l 4.84,-8.39 c -2.34,-1.36 -4.7,-2.71 -7,-4.08 a 1.71,1.71 0 0 0 -2,0 c -2.39,1.4 -4.79,2.77 -7.18,4.16 l 4.67,8.3 a 9,9 0 0 1 3.27,-0.66 z"
     id="path52" />
  <path
     class="cls-1"
     d="m 58.825,98.688299 h -9.66 a 9,9 0 1 1 -14.34,-8.39 l -4.66,-8.28 -7.29,4.22 a 1.62,1.62 0 0 0 -0.94,1.61 q 0,9.65 0,19.280001 a 1.74,1.74 0 0 0 1,1.72 q 8.24,4.72 16.42,9.53 a 1.77,1.77 0 0 0 2.1,0 q 8.13,-4.78 16.3,-9.47 a 1.9,1.9 0 0 0 1.09,-1.94 c -0.04,-2.78 -0.02,-5.53 -0.02,-8.280001 z"
     id="path54" />
  <path
     class="cls-1"
     d="m 49.165,96.288299 h 9.67 c 0,-2.79 0,-5.58 0,-8.36 a 1.71,1.71 0 0 0 -1,-1.71 c -2.44,-1.4 -4.87,-2.83 -7.31,-4.24 l -4.81,8.37 a 9,9 0 0 1 3.45,5.94 z"
     id="path56" />
  <path
     class="cls-1"
     d="m 101.835,86.328299 c -2.46,-1.46 -4.95,-2.87 -7.42,-4.31 l -4.82,8.35 a 9,9 0 1 1 -14.43,8.32 h -9.34 c 0,2.810001 0,5.630001 0,8.450001 a 1.59,1.59 0 0 0 0.91,1.62 q 8.35,4.8 16.65,9.68 a 1.59,1.59 0 0 0 1.87,0 c 5.5,-3.22 11,-6.39 16.52,-9.64 a 2.22,2.22 0 0 0 1,-1.56 q 0.09,-9.720001 0,-19.420001 a 2,2 0 0 0 -0.94,-1.49 z"
     id="path58" />
  <path
     class="cls-1"
     d="m 84.085,88.478299 a 8.89,8.89 0 0 1 3.43,0.68 l 4.82,-8.34 c -2.39,-1.38 -4.76,-2.79 -7.16,-4.15 a 2,2 0 0 0 -1.71,0 c -2.51,1.42 -5,2.9 -7.48,4.34 l 4.69,8.17 a 9.05,9.05 0 0 1 3.41,-0.7 z"
     id="path60" />
  <path
     class="cls-1"
     d="m 65.855,87.848299 c -0.06,2.81 0,5.62 0,8.44 h 9.35 a 9,9 0 0 1 3.43,-5.94 l -4.69,-8.16 c -2.4,1.4 -4.83,2.77 -7.22,4.19 a 2,2 0 0 0 -0.87,1.47 z"
     id="path62" />
  <path
     class="cls-1"
     d="m 28.825,74.758299 7.19,-4.16 a 1.62,1.62 0 0 0 0.93,-1.62 c 0,-2.9 0,-5.8 0,-8.7 h -9.41 a 8.92,8.92 0 0 1 -3.5,6 z"
     id="path64" />
  <path
     class="cls-1"
     d="m 24.085,51.898299 a 9,9 0 0 1 3.45,6 h 9.39 c 0,-2.73 0,-5.46 0,-8.19 a 2,2 0 0 0 -0.83,-1.47 c -2.45,-1.45 -4.93,-2.85 -7.4,-4.29 z"
     id="path66" />
  <path
     class="cls-1"
     d="m 21.945,67.408299 a 9,9 0 1 1 -3.33,-17.37 9.1,9.1 0 0 1 3.39,0.66 l 4.57,-8 c -2.48,-1.43 -4.94,-2.89 -7.43,-4.31 a 1.7,1.7 0 0 0 -1.43,0 q -8.43,4.8 -16.79,9.73 a 2,2 0 0 0 -0.88,1.48 q -0.09,9.7 0,19.43 a 2,2 0 0 0 0.83,1.49 q 8.34,5 16.78,9.75 a 1.85,1.85 0 0 0 1.56,0 c 2.51,-1.43 5,-2.88 7.52,-4.33 z"
     id="path68" />
  <path
     class="cls-1"
     d="m 40.245,30.218299 a 8.91,8.91 0 0 1 -3.39,-0.67 l -4.72,8.26 c 2.39,1.4 4.8,2.77 7.19,4.17 a 1.79,1.79 0 0 0 2.1,0 c 2.34,-1.38 4.69,-2.73 7,-4.09 l -4.81,-8.37 a 9,9 0 0 1 -3.37,0.7 z"
     id="path70" />
  <path
     class="cls-1"
     d="m 58.855,30.758299 c 0,-2.77 0,-5.55 0,-8.32 h -9.69 a 9,9 0 0 1 -3.44,5.93 l 4.81,8.39 c 2.44,-1.42 4.87,-2.85 7.32,-4.25 a 1.74,1.74 0 0 0 1,-1.75 z"
     id="path72" />
  <path
     class="cls-1"
     d="m 23.005,32.518299 c 2.36,1.35 4.7,2.73 7.05,4.09 l 4.72,-8.25 a 9,9 0 1 1 14.39,-8.35 h 9.67 c 0,-2.77 0,-5.53 0,-8.29 a 1.83,1.83 0 0 0 -1,-1.8600001 q -8.25,-4.71 -16.43,-9.54 a 1.73,1.73 0 0 0 -2,0 q -8.19,4.8 -16.43,9.53 a 1.82,1.82 0 0 0 -1,1.8400001 q 0,9.51 0,19 a 1.84,1.84 0 0 0 1.03,1.83 z"
     id="path74" />
  <path
     class="cls-1"
     d="m 75.165,22.408299 h -9.35 c 0,2.78 0,5.56 0,8.35 a 1.62,1.62 0 0 0 0.9,1.63 c 2.39,1.37 4.77,2.78 7.16,4.17 l 4.72,-8.22 a 9,9 0 0 1 -3.43,-5.93 z"
     id="path76" />
  <path
     class="cls-1"
     d="m 85.225,42.058299 7.26,-4.22 -4.89,-8.32 a 9,9 0 0 1 -6.9,0 l -4.74,8.24 c 2.47,1.44 4.94,2.86 7.4,4.3 a 1.61,1.61 0 0 0 1.87,0 z"
     id="path78" />
  <path
     class="cls-1"
     d="m 65.825,20.008299 h 9.34 a 9,9 0 1 1 14.48,8.28 l 4.89,8.34 c 2.41,-1.4 4.81,-2.8 7.2,-4.22 a 2.2,2.2 0 0 0 1,-1.55 q 0.09,-9.7 0,-19.41 a 2,2 0 0 0 -0.87,-1.4700001 q -8.28,-4.91 -16.65,-9.66 a 2.15,2.15 0 0 0 -1.82,0 c -5.55,3.15 -11,6.38 -16.56,9.56 a 1.68,1.68 0 0 0 -1,1.7100001 c 0.01,2.82 -0.01,5.62 -0.01,8.42 z"
     id="path80" />
  <path
     class="cls-1"
     d="m 71.385,57.848299 h 9.38 c 0,-2.64 0,-5.28 0,-7.91 a 1.92,1.92 0 0 0 -1.09,-2 c -2.42,-1.38 -4.81,-2.79 -7.21,-4.18 l -4.62,8 a 9,9 0 0 1 3.54,6.09 z"
     id="path82" />
  <path
     class="cls-1"
     d="m 72.485,74.898299 c 2.43,-1.41 4.85,-2.83 7.29,-4.23 a 1.72,1.72 0 0 0 1,-1.72 c 0,-2.9 0,-5.8 0,-8.7 h -9.39 a 9,9 0 0 1 -3.77,6.18 z"
     id="path84" />
  <path
     class="cls-1"
     d="m 53.545,60.248299 h -9.66 c 0,2.84 0,5.69 0,8.53 a 1.9,1.9 0 0 0 1.09,1.98 c 2.33,1.32 4.63,2.69 6.95,4 l 5,-8.64 a 9,9 0 0 1 -3.38,-5.87 z"
     id="path86" />
  <path
     class="cls-1"
     d="m 65.485,67.528299 a 9,9 0 0 1 -6.53,-0.18 l -4.95,8.6 c 2.42,1.41 4.86,2.81 7.27,4.23 a 1.79,1.79 0 0 0 2.09,0 c 2.34,-1.38 4.7,-2.72 7.05,-4.09 z"
     id="path88" />
  <path
     class="cls-1"
     d="m 58.685,50.878299 a 8.87,8.87 0 0 1 3.78,-0.84 9,9 0 0 1 3.3,0.63 l 4.64,-8.07 c -2.34,-1.36 -4.69,-2.7 -7,-4.07 a 1.79,1.79 0 0 0 -2.09,0 c -2.42,1.43 -4.86,2.82 -7.29,4.23 z"
     id="path90" />
  <path
     class="cls-1"
     d="m 43.885,49.908299 c 0,2.64 0,5.29 0,7.94 h 9.66 a 9,9 0 0 1 3.11,-5.68 l -4.72,-8.21 c -2.32,1.34 -4.62,2.7 -6.94,4 a 1.88,1.88 0 0 0 -1.11,1.95 z"
     id="path92" />
  <path
     class="cls-2"
     d="m 106.305,50.038299 a 9,9 0 0 0 -3.48,0.7 l -4.75,-8.08 -3.54,-6 -4.89,-8.34 a 9,9 0 1 0 -14.48,-8.28 h -26 a 9,9 0 1 0 -14.39,8.32 l -4.72,8.25 -3.48,6.09 -4.57,8 a 9,9 0 1 0 -3.39,17.36 9,9 0 0 0 3.33,-0.65 l 4.79,8.53 3.43,6.08 4.66,8.28 a 9,9 0 1 0 14.34,8.39 h 26 a 9,9 0 1 0 14.43,-8.32 l 4.82,-8.35 3.5,-6.06 5,-8.58 a 9,9 0 1 0 3.42,-17.34 z m -22.22,-19.82 a 9,9 0 0 0 3.49,-0.7 l 4.91,8.32 3.54,6 4.75,8.09 a 9,9 0 0 0 -3.37,5.89 h -26 a 9,9 0 0 0 -3.52,-6 l 4.62,-8 3.47,-6 4.72,-8.21 a 9,9 0 0 0 3.39,0.61 z m -34.92,-7.81 h 26 a 9,9 0 0 0 3.43,5.93 l -4.72,8.22 -3.47,6 -4.64,8.07 a 9,9 0 0 0 -3.3,-0.63 8.87,8.87 0 0 0 -3.78,0.84 l -4.68,-8.08 -3.47,-6 -4.81,-8.37 a 9,9 0 0 0 3.44,-5.98 z m -20.51,21.49 3.48,-6.09 4.72,-8.26 a 8.94,8.94 0 0 0 6.79,0 l 4.84,8.37 3.48,6 4.72,8.21 a 9,9 0 0 0 -3.11,5.68 h -26 a 9,9 0 0 0 -3.45,-6 z m 11.59,44.58 a 9,9 0 0 0 -3.33,0.64 l -4.67,-8.3 -3.42,-6.06 -4.79,-8.5 a 8.92,8.92 0 0 0 3.5,-6 h 26 a 9,9 0 0 0 3.34,5.86 l -5,8.64 -3.39,6 -4.81,8.37 a 9,9 0 0 0 -3.43,-0.65 z m 34.92,7.81 h -26 a 9,9 0 0 0 -3.44,-5.94 l 4.81,-8.37 3.47,-6 4.95,-8.6 a 9,9 0 0 0 6.53,0.18 l 4.93,8.58 3.49,6.08 4.69,8.16 a 9,9 0 0 0 -3.43,5.91 z m 20.67,-21.53 -3.5,6.06 -4.85,8.34 a 8.89,8.89 0 0 0 -3.43,-0.68 9.05,9.05 0 0 0 -3.41,0.67 l -4.69,-8.17 -3.47,-6.08 -4.88,-8.47 a 9,9 0 0 0 3.77,-6.18 h 26 a 9,9 0 0 0 3.42,5.92 z"
     id="path94" />
</svg>
