<?xml version="1.0" encoding="UTF-8" standalone="no"?>
<!-- Generator: Adobe Illustrator 24.3.0, SVG Export Plug-In . SVG Version: 6.00 Build 0)  -->

<svg
   version="1.1"
   id="Layer_1"
   x="0px"
   y="0px"
   viewBox="0 0 289 289"
   xml:space="preserve"
   sodipodi:docname="seapath-icon-knockout-black.svg"
   width="289"
   height="289"
   inkscape:export-filename="/Users/johnmertic/Code/lfenergy-artwork/projects/seapath/icon/knockout-black/seapath-icon-knockout-black.png"
   inkscape:export-xdpi="377.10001"
   inkscape:export-ydpi="377.10001"
   inkscape:version="1.1.2 (b8e25be8, 2022-02-05)"
   xmlns:inkscape="http://www.inkscape.org/namespaces/inkscape"
   xmlns:sodipodi="http://sodipodi.sourceforge.net/DTD/sodipodi-0.dtd"
   xmlns="http://www.w3.org/2000/svg"
   xmlns:svg="http://www.w3.org/2000/svg"><defs
   id="defs209" /><sodipodi:namedview
   id="namedview207"
   pagecolor="#ffffff"
   bordercolor="#666666"
   borderopacity="1.0"
   inkscape:pageshadow="2"
   inkscape:pageopacity="0.0"
   inkscape:pagecheckerboard="0"
   showgrid="false"
   inkscape:zoom="0.85839035"
   inkscape:cx="544.62401"
   inkscape:cy="154.94116"
   inkscape:window-width="1395"
   inkscape:window-height="480"
   inkscape:window-x="58"
   inkscape:window-y="25"
   inkscape:window-maximized="0"
   inkscape:current-layer="Layer_1" />
<style
   type="text/css"
   id="style154">
	.st0{fill:#FFFFFF;}
	.st1{opacity:0.5;fill:#FFFFFF;}
	.st2{opacity:0.2;fill:#FFFFFF;}
	.st3{opacity:0.7;fill:#FFFFFF;}
	.st4{opacity:0.2;}
	.st5{opacity:0.7;}
	.st6{opacity:0.5;}
	.st7{fill:none;}
	.st8{fill:#003764;}
	.st9{fill:#009ADE;}
	.st10{fill:#B1E8FC;}
	.st11{fill:#086CB7;}
</style>

















<g
   id="g204"
   transform="translate(-1.3,-5.3)">
	<path
   d="m 105.9,123 c 0.3,0.1 0.7,0.1 1,0.2 0.9,0.2 1.7,0.3 2.6,0.5 0.6,0.1 1.2,0.2 1.8,0.3 0.4,0.1 0.9,0.1 1.3,0.2 1.1,-0.8 2.2,-1.5 3.3,-2.3 0.1,-0.1 0.2,-0.2 0.4,-0.2 0.4,-0.3 0.9,-0.6 1.3,-0.9 0.2,-0.1 0.4,-0.3 0.6,-0.4 0.4,-0.3 0.8,-0.5 1.2,-0.8 0.3,-0.2 0.5,-0.3 0.8,-0.5 0.4,-0.2 0.8,-0.5 1.1,-0.7 0.3,-0.2 0.6,-0.4 0.8,-0.5 0.4,-0.2 0.7,-0.5 1.1,-0.7 0.3,-0.2 0.6,-0.4 0.9,-0.6 0.4,-0.2 0.7,-0.4 1.1,-0.7 0.3,-0.2 0.6,-0.4 1,-0.6 0.4,-0.2 0.7,-0.4 1.1,-0.6 0.3,-0.2 0.7,-0.4 1,-0.6 0.4,-0.2 0.7,-0.4 1.1,-0.6 0.3,-0.2 0.7,-0.4 1,-0.6 0.4,-0.2 0.7,-0.4 1.1,-0.6 0.4,-0.2 0.7,-0.4 1.1,-0.6 0.4,-0.2 0.7,-0.4 1.1,-0.6 0.4,-0.2 0.7,-0.4 1.1,-0.6 0.4,-0.2 0.7,-0.4 1.1,-0.6 0.4,-0.2 0.8,-0.4 1.2,-0.6 0.4,-0.2 0.8,-0.4 1.1,-0.6 0.4,-0.2 0.8,-0.4 1.2,-0.6 0.4,-0.2 0.8,-0.4 1.2,-0.5 0.4,-0.2 0.8,-0.4 1.2,-0.6 0.4,-0.2 0.8,-0.3 1.2,-0.5 0.4,-0.2 0.8,-0.4 1.3,-0.5 0.4,-0.2 0.8,-0.3 1.2,-0.5 0.4,-0.2 0.9,-0.3 1.3,-0.5 0.4,-0.2 0.8,-0.3 1.2,-0.5 0.4,-0.2 0.9,-0.3 1.4,-0.5 0.4,-0.2 0.8,-0.3 1.3,-0.5 0.5,-0.2 0.9,-0.3 1.4,-0.5 0.4,-0.1 0.9,-0.3 1.3,-0.4 0.5,-0.2 1,-0.3 1.4,-0.5 0.4,-0.1 0.9,-0.3 1.3,-0.4 0.5,-0.1 1,-0.3 1.5,-0.4 0.5,-0.1 0.9,-0.3 1.4,-0.4 0.5,-0.1 1,-0.3 1.5,-0.4 0.5,-0.1 0.9,-0.2 1.4,-0.4 0.5,-0.1 1.1,-0.2 1.6,-0.4 0.5,-0.1 1,-0.2 1.4,-0.3 0.5,-0.1 1.1,-0.2 1.7,-0.3 0.5,-0.1 1,-0.2 1.5,-0.3 0.6,-0.1 1.1,-0.2 1.7,-0.3 0.5,-0.1 1,-0.2 1.5,-0.3 0.6,-0.1 1.2,-0.2 1.8,-0.3 0.5,-0.1 1,-0.2 1.5,-0.2 0.6,-0.1 1.2,-0.2 1.9,-0.2 0.5,-0.1 1,-0.1 1.5,-0.2 0.6,-0.1 1.3,-0.1 2,-0.2 0.5,-0.1 1,-0.1 1.6,-0.2 0.7,-0.1 1.4,-0.1 2.1,-0.2 0.5,0 1,-0.1 1.6,-0.1 0.7,-0.1 1.5,-0.1 2.3,-0.1 0.5,0 1,-0.1 1.5,-0.1 0.8,0 1.7,-0.1 2.6,-0.1 0.4,0 0.9,0 1.3,0 1.3,0 2.6,0 4,0 0.7,0 1.5,0 2.2,0 0.3,0 0.5,0 0.8,0 0.5,0 1,0 1.5,0 0.3,0 0.6,0 1,0 0.5,0 0.9,0 1.4,0.1 0.3,0 0.7,0 1,0 0.2,0 0.3,0 0.5,0 0.9,-0.6 1.8,-1.2 2.8,-1.8 0,0 0.1,-0.1 0.1,-0.1 0.4,-0.3 0.9,-0.5 1.3,-0.8 0.1,-0.1 0.2,-0.1 0.3,-0.2 0.4,-0.2 0.7,-0.4 1.1,-0.7 0.2,-0.1 0.3,-0.2 0.5,-0.3 0.3,-0.2 0.7,-0.4 1,-0.6 0.2,-0.1 0.4,-0.2 0.5,-0.3 0.3,-0.2 0.6,-0.4 1,-0.5 0.2,-0.1 0.4,-0.2 0.6,-0.3 0.3,-0.2 0.6,-0.3 0.9,-0.5 0.2,-0.1 0.4,-0.2 0.7,-0.4 0.3,-0.2 0.6,-0.3 0.9,-0.5 0.2,-0.1 0.5,-0.2 0.7,-0.4 0.3,-0.2 0.6,-0.3 0.9,-0.5 0.2,-0.1 0.5,-0.2 0.7,-0.4 0.3,-0.1 0.6,-0.3 0.9,-0.4 0.3,-0.1 0.5,-0.2 0.8,-0.4 0.3,-0.1 0.6,-0.3 0.9,-0.4 0.3,-0.1 0.5,-0.2 0.8,-0.4 0.3,-0.1 0.6,-0.3 0.9,-0.4 0.3,-0.1 0.5,-0.2 0.8,-0.3 0.3,-0.1 0.6,-0.3 1,-0.4 0.3,-0.1 0.6,-0.2 0.8,-0.3 0.3,-0.1 0.7,-0.3 1,-0.4 0.3,-0.1 0.6,-0.2 0.9,-0.3 0.3,-0.1 0.7,-0.3 1,-0.4 0.3,-0.1 0.6,-0.2 0.9,-0.3 0.3,-0.1 0.7,-0.2 1,-0.4 0.3,-0.1 0.6,-0.2 0.9,-0.3 0.4,-0.1 0.7,-0.2 1.1,-0.3 0.3,-0.1 0.6,-0.2 0.9,-0.3 0.4,-0.1 0.7,-0.2 1.1,-0.3 0.3,-0.1 0.6,-0.2 1,-0.3 0.4,-0.1 0.7,-0.2 1.1,-0.3 0.3,-0.1 0.7,-0.2 1,-0.3 0.4,-0.1 0.8,-0.2 1.1,-0.3 0.3,-0.1 0.7,-0.2 1,-0.2 0.4,-0.1 0.8,-0.2 1.2,-0.3 0.3,-0.1 0.7,-0.2 1,-0.2 0.4,-0.1 0.8,-0.2 1.2,-0.2 0.4,-0.1 0.7,-0.1 1.1,-0.2 0.4,-0.1 0.8,-0.2 1.3,-0.2 0.4,-0.1 0.7,-0.1 1.1,-0.2 0.4,-0.1 0.9,-0.1 1.3,-0.2 0.4,-0.1 0.7,-0.1 1.1,-0.2 0.4,-0.1 0.9,-0.1 1.3,-0.2 0.4,-0.1 0.8,-0.1 1.1,-0.2 0.5,-0.1 0.9,-0.1 1.4,-0.2 0.4,0 0.8,-0.1 1.2,-0.1 0.5,0 1,-0.1 1.5,-0.1 0.4,0 0.8,-0.1 1.2,-0.1 0.5,0 1,-0.1 1.5,-0.1 0.4,0 0.8,-0.1 1.2,-0.1 0.5,0 1.1,-0.1 1.7,-0.1 0.4,0 0.7,0 1.1,-0.1 0.6,0 1.3,0 1.9,-0.1 0.3,0 0.6,0 1,0 1,0 1.9,0 2.9,0 0.5,0 1.3,0 2.3,0 C 246,34.4 199.3,5.3 145.9,5.3 91,5.7 43.5,36.1 19,80.9 c 19.4,4.4 32.3,13.2 44.8,21.7 12.3,8.5 24.1,16.6 42.1,20.4 z"
   id="path190" />
	<path
   d="m 31.9,154.2 c 0.4,0 0.7,0 1.1,0 0.8,0 1.5,0 2.3,-0.1 0.4,0 0.9,0 1.3,-0.1 0.7,0 1.4,-0.1 2.1,-0.1 0.4,0 0.9,-0.1 1.3,-0.1 0.7,0 1.3,-0.1 2,-0.2 0.4,0 0.8,-0.1 1.2,-0.1 0.7,-0.1 1.4,-0.1 2,-0.2 0.4,0 0.7,-0.1 1.1,-0.1 0.9,-0.1 1.7,-0.2 2.6,-0.3 0.1,0 0.3,0 0.4,-0.1 1,-0.1 1.9,-0.3 2.9,-0.4 0.3,0 0.6,-0.1 0.9,-0.2 0.6,-0.1 1.3,-0.2 1.9,-0.3 0.4,-0.1 0.7,-0.1 1.1,-0.2 0.6,-0.1 1.1,-0.2 1.7,-0.3 0.4,-0.1 0.7,-0.2 1.1,-0.2 0.5,-0.1 1.1,-0.2 1.6,-0.4 0.4,-0.1 0.7,-0.2 1.1,-0.3 0.5,-0.1 1.1,-0.3 1.6,-0.4 0.3,-0.1 0.6,-0.2 0.9,-0.2 0.6,-0.2 1.3,-0.4 1.9,-0.5 0.2,-0.1 0.4,-0.1 0.6,-0.2 0.8,-0.2 1.6,-0.5 2.4,-0.8 0.2,-0.1 0.5,-0.2 0.7,-0.2 0.6,-0.2 1.1,-0.4 1.6,-0.6 0.3,-0.1 0.6,-0.2 0.9,-0.3 0.5,-0.2 1,-0.3 1.4,-0.5 0.3,-0.1 0.6,-0.2 0.9,-0.4 0.5,-0.2 0.9,-0.4 1.4,-0.5 0.3,-0.1 0.6,-0.2 0.9,-0.4 0.5,-0.2 0.9,-0.4 1.4,-0.6 0.3,-0.1 0.6,-0.2 0.8,-0.4 0.5,-0.2 1,-0.5 1.6,-0.7 0.2,-0.1 0.4,-0.2 0.6,-0.3 0.7,-0.3 1.4,-0.7 2.1,-1 0.2,-0.1 0.4,-0.2 0.6,-0.3 0.5,-0.3 1,-0.5 1.5,-0.8 0.3,-0.1 0.5,-0.3 0.8,-0.4 0.4,-0.2 0.8,-0.4 1.3,-0.7 0.3,-0.1 0.5,-0.3 0.8,-0.4 0.4,-0.2 0.8,-0.4 1.2,-0.7 0.3,-0.1 0.5,-0.3 0.8,-0.4 0.4,-0.2 0.8,-0.5 1.2,-0.7 0.2,-0.1 0.5,-0.3 0.7,-0.4 0.5,-0.3 0.9,-0.5 1.4,-0.8 0.2,-0.1 0.4,-0.2 0.6,-0.3 0.6,-0.4 1.3,-0.8 1.9,-1.2 0.1,-0.1 0.3,-0.2 0.4,-0.3 0.5,-0.3 1,-0.6 1.5,-0.9 0.2,-0.1 0.5,-0.3 0.7,-0.4 0.4,-0.3 0.8,-0.5 1.2,-0.8 0.2,-0.2 0.5,-0.3 0.7,-0.5 0.2,-0.1 0.4,-0.3 0.6,-0.4 0,0 0,0 0,0 C 82.6,127.6 69.4,119.1 56.7,110.8 43.9,102.5 31.8,94.7 14.4,90.7 5.9,108.8 1.3,128.9 1.3,150 c 0,0.5 0,1.1 0,1.6 8,1.3 18.8,2.6 27,2.6 1.2,0 2.4,0 3.6,0 z"
   id="path192" />
	<path
   d="m 273.3,88.2 c -1.6,-0.1 -3.2,-0.1 -5,-0.1 -1.2,0 -2.3,0 -3.4,0 -0.3,0 -0.6,0 -0.9,0 -0.9,0 -1.9,0.1 -2.8,0.1 -0.2,0 -0.4,0 -0.6,0 -1.1,0.1 -2.1,0.1 -3.1,0.2 -0.3,0 -0.5,0 -0.8,0.1 -0.8,0.1 -1.6,0.2 -2.4,0.2 -0.2,0 -0.5,0.1 -0.7,0.1 -1,0.1 -1.9,0.2 -2.9,0.4 -0.2,0 -0.4,0.1 -0.5,0.1 -0.8,0.1 -1.6,0.2 -2.3,0.4 -0.2,0 -0.5,0.1 -0.7,0.1 -0.9,0.2 -1.8,0.3 -2.7,0.5 0,0 -0.1,0 -0.1,0 -0.8,0.2 -1.7,0.4 -2.5,0.6 -0.2,0.1 -0.5,0.1 -0.7,0.2 -0.7,0.2 -1.4,0.4 -2.1,0.6 -0.1,0 -0.3,0.1 -0.4,0.1 -0.8,0.2 -1.6,0.5 -2.4,0.7 -0.2,0.1 -0.4,0.1 -0.6,0.2 -0.6,0.2 -1.2,0.4 -1.8,0.6 -0.2,0.1 -0.4,0.1 -0.5,0.2 -0.7,0.3 -1.5,0.5 -2.2,0.8 -0.2,0.1 -0.3,0.1 -0.4,0.2 -0.6,0.2 -1.2,0.5 -1.7,0.7 -0.2,0.1 -0.4,0.2 -0.6,0.2 -0.7,0.3 -1.4,0.6 -2,0.9 -0.1,0 -0.1,0.1 -0.2,0.1 -0.6,0.3 -1.2,0.6 -1.8,0.9 -0.2,0.1 -0.4,0.2 -0.6,0.3 -0.6,0.3 -1.1,0.5 -1.6,0.8 0,0 -0.1,0 -0.1,0 26.2,4.2 43.1,14.9 59,25.7 2.5,1.7 5,3.4 7.5,5 -2.1,-14.5 -6.4,-28.3 -12.4,-41.1 -1.2,0.1 -2.1,0.1 -3,0.2 z"
   id="path194" />
	<path
   d="m 278.4,134.5 c -1,-0.7 -2.1,-1.4 -3.1,-2.1 -18.1,-12 -39.1,-23.9 -69,-25.6 v 0 c -2.6,-0.2 -5,-0.2 -7.2,-0.3 -0.7,0 -1.5,0 -2.2,0 -39.9,0 -60,13.3 -79.2,26.5 l -1.8,1.2 -0.7,0.5 v 0 c -21.3,14.6 -43.3,29.6 -86.8,29.6 -9.5,0 -18.2,-0.7 -26.5,-2.1 0.5,5.6 1.5,11.5 1.5,11.5 9.7,-1.6 20.1,-2.4 31.1,-2.4 1.5,0 2.9,0 4.4,0 0.5,0 1,0 1.4,0 1,0 1.9,0 2.8,0.1 0.6,0 1.1,0.1 1.7,0.1 0.8,0 1.7,0.1 2.5,0.1 0.6,0 1.2,0.1 1.7,0.1 0.8,0.1 1.5,0.1 2.3,0.2 0.6,0 1.2,0.1 1.8,0.2 0.7,0.1 1.5,0.1 2.2,0.2 0.6,0.1 1.2,0.1 1.8,0.2 0.7,0.1 1.4,0.2 2.1,0.2 0.6,0.1 1.2,0.2 1.7,0.2 0.7,0.1 1.3,0.2 2,0.3 0.6,0.1 1.1,0.2 1.7,0.3 0.6,0.1 1.3,0.2 1.9,0.3 0.6,0.1 1.1,0.2 1.7,0.3 0.6,0.1 1.2,0.2 1.8,0.3 0.6,0.1 1.1,0.2 1.7,0.3 0.6,0.1 1.2,0.2 1.8,0.4 0.5,0.1 1.1,0.2 1.6,0.4 0.6,0.1 1.2,0.3 1.7,0.4 0.5,0.1 1.1,0.3 1.6,0.4 0.6,0.1 1.1,0.3 1.7,0.4 0.5,0.1 1,0.3 1.5,0.4 0.5,0.1 1.1,0.3 1.6,0.4 0.5,0.1 1,0.3 1.5,0.4 0.5,0.2 1.1,0.3 1.6,0.5 0.5,0.2 1,0.3 1.5,0.5 0.5,0.2 1,0.3 1.5,0.5 0.5,0.2 1,0.3 1.4,0.5 0.5,0.2 1,0.3 1.5,0.5 0.5,0.2 0.9,0.3 1.4,0.5 0.5,0.2 1,0.4 1.5,0.5 0.5,0.2 0.9,0.3 1.4,0.5 0.5,0.2 0.9,0.4 1.4,0.6 0.4,0.2 0.9,0.4 1.3,0.5 0.5,0.2 0.9,0.4 1.4,0.6 0.4,0.2 0.9,0.4 1.3,0.5 0.5,0.2 0.9,0.4 1.4,0.6 0.4,0.2 0.8,0.4 1.2,0.6 0.4,0.2 0.9,0.4 1.3,0.6 0.4,0.2 0.8,0.4 1.2,0.6 0.4,0.2 0.9,0.4 1.3,0.6 0.4,0.2 0.8,0.4 1.2,0.6 0.4,0.2 0.9,0.4 1.3,0.7 0.4,0.2 0.8,0.4 1.1,0.6 0.4,0.2 0.9,0.5 1.3,0.7 0.4,0.2 0.7,0.4 1.1,0.6 0.4,0.2 0.9,0.5 1.3,0.7 0.3,0.2 0.7,0.4 1,0.6 0.5,0.3 0.9,0.5 1.4,0.8 0.3,0.2 0.6,0.3 0.9,0.5 0.6,0.3 1.2,0.7 1.8,1 0.2,0.1 0.4,0.2 0.6,0.3 0.7,0.4 1.4,0.8 2,1.2 0.3,0.2 0.5,0.3 0.8,0.5 0.4,0.3 0.9,0.6 1.3,0.8 0.3,0.2 0.6,0.4 0.8,0.5 0.4,0.3 0.8,0.5 1.3,0.8 0.3,0.2 0.6,0.4 0.8,0.5 0.3,0.2 0.7,0.4 1,0.7 0.2,-0.1 0.4,-0.2 0.6,-0.3 0.4,-0.2 0.9,-0.4 1.3,-0.7 0.6,-0.3 1.2,-0.6 1.9,-1 0.4,-0.2 0.9,-0.5 1.3,-0.7 0.6,-0.3 1.2,-0.6 1.8,-1 0.4,-0.2 0.9,-0.5 1.3,-0.8 0.6,-0.3 1.1,-0.7 1.7,-1 0.4,-0.3 0.8,-0.5 1.3,-0.8 0.6,-0.4 1.1,-0.7 1.7,-1.1 0.4,-0.3 0.8,-0.5 1.2,-0.8 0.6,-0.4 1.2,-0.8 1.8,-1.2 0.4,-0.2 0.7,-0.5 1.1,-0.7 0.7,-0.4 1.3,-0.9 2,-1.3 0.3,-0.2 0.6,-0.4 0.9,-0.6 0.9,-0.6 1.9,-1.3 2.8,-1.9 17.6,-12.1 35.9,-24.6 72,-24.6 31.1,0 49,9.4 63.2,18.7 2,-9.5 3.1,-19.4 3.1,-29.5 0,-2.6 -0.1,-5.2 -0.2,-7.8 -1.1,-0.7 -2.2,-1.5 -3.3,-2.3 -3.2,-1.7 -5.8,-3.5 -8.4,-5.3 z"
   id="path196" />
	<path
   d="m 157.3,193.7 c -0.9,0.6 -1.8,1.2 -2.6,1.8 -0.2,0.2 -0.5,0.3 -0.7,0.5 -0.8,0.5 -1.5,1 -2.3,1.5 -0.2,0.1 -0.4,0.3 -0.7,0.4 -0.9,0.6 -1.9,1.3 -2.9,1.9 -0.1,0.1 -0.3,0.2 -0.4,0.3 -0.8,0.5 -1.6,1 -2.5,1.6 -0.3,0.2 -0.6,0.3 -0.8,0.5 -0.8,0.5 -1.6,1 -2.5,1.5 -0.2,0.1 -0.4,0.2 -0.6,0.3 -0.9,0.5 -1.8,1 -2.7,1.5 1.3,0.9 2.5,1.7 3.8,2.6 19,13 37.2,25.5 64.8,31.5 10.8,2.3 23.1,3.7 37.5,3.7 1.1,0 4.8,-0.3 7.6,-0.5 1.5,-0.1 2.9,-0.2 4.1,-0.3 12.5,-15 22,-32.5 27.7,-51.7 C 269,181 250.6,171 223.7,171 c -33.1,-0.1 -49.3,11 -66.4,22.7 z"
   id="path198" />
	<path
   d="m 136.7,216.4 c -3.5,-2.4 -7.2,-4.9 -10.8,-7.3 -21.3,-14.1 -46,-27.8 -91.4,-27.8 -10.3,0 -20.1,0.7 -29.2,2.2 5.9,25 18.4,47.5 35.4,65.6 0.4,-0.2 0.8,-0.4 1.1,-0.6 v -0.1 c 11.4,-6.5 27.9,-13.9 55.4,-13.9 15.1,0 27.1,2.2 37.3,5.6 15.9,5.2 28.3,13.2 40.6,21.1 11.1,7.2 21.7,14 34.4,18.3 13.6,-6.7 26.1,-15.6 36.9,-26.1 -0.5,0 -1.1,0 -1.6,0 -54.2,-0.1 -81.6,-18.9 -108.1,-37 z"
   id="path200" />
	<path
   d="m 135,250.8 c -10.6,-3.9 -22.8,-6.4 -37.7,-6.4 -16.9,0 -33.4,4 -49,12 25.7,23.5 59.9,37.9 97.4,37.9 17.7,0 34.6,-3.2 50.3,-9 -12.9,-4.8 -22.8,-11.5 -32.3,-18.1 -9.1,-6.2 -17.8,-12.1 -28.7,-16.4 z"
   id="path202" />
</g>
</svg>
