<?xml version="1.0" encoding="UTF-8"?><svg id="Layer_1" xmlns="http://www.w3.org/2000/svg" viewBox="0 0 370 130"><g><polygon points="201.47013 15.69087 193.94589 15.69087 193.94589 40.2972 212.34979 40.2972 212.34979 33.9931 201.47013 33.9931 201.47013 15.69087"/><polygon points="215.60353 40.2972 223.22946 40.2972 223.22946 30.94273 233.09232 30.94273 233.09232 25.14702 223.22946 25.14702 223.22946 21.99497 234.61751 21.99497 234.61751 15.69087 215.60353 15.69087 215.60353 40.2972"/><polygon points="240.41321 40.50056 254.13988 40.50056 254.13988 38.8737 242.24343 38.8737 242.24343 28.29907 253.5298 28.29907 253.5298 26.67221 242.24343 26.67221 242.24343 17.31774 254.13988 17.31774 254.13988 15.69087 240.41321 15.69087 240.41321 40.50056"/><path d="M276.50927,31.85784c0,1.83022,.10169,3.76213,.20335,5.79571h-.20335l-14.94682-21.96267h-1.72854v24.70801h1.62687V24.33359c0-1.32183-.10169-3.25373-.20335-5.89739h.10169l14.9468,22.06435h1.93191V15.69087h-1.72856V31.85784Z"/><polygon points="285.25367 40.50056 298.98034 40.50056 298.98034 38.8737 287.08388 38.8737 287.08388 28.29907 298.37026 28.29907 298.37026 26.67221 287.08388 26.67221 287.08388 17.31774 298.98034 17.31774 298.98034 15.69087 285.25367 15.69087 285.25367 40.50056"/><path d="M318.5027,26.77389c.91511-1.11847,1.32182-2.54198,1.32182-4.27052,0-2.33862-.81342-3.96548-2.23695-5.18563-1.52519-1.11847-3.86379-1.72854-6.91416-1.72854h-5.99906v24.91137h1.72856v-10.87966l6.20243,.10168,6.60914,10.77798h2.13527l-6.81251-11.28637c1.72856-.40672,3.05037-1.32183,3.96548-2.4403Zm-7.32087,1.42351h-4.88061v-10.87966h4.06716c2.64366,0,4.47387,.40672,5.69403,1.32183,1.11848,.81343,1.72856,2.23694,1.72856,4.06716s-.61008,3.15205-1.72856,4.06716c-1.01679,1.01679-2.74532,1.42351-4.88058,1.42351Z"/><path d="M335.38143,29.31586h7.3209v8.43936c-1.62687,.61007-3.55877,.91511-5.79572,.91511-3.55877,0-6.20243-.91511-7.93095-2.74533-1.83021-1.83022-2.74535-4.57556-2.74535-8.236,0-3.35541,.91511-5.99906,2.847-7.93097,1.83021-2.03358,4.47387-2.94869,7.72761-2.94869,2.23695,0,4.47387,.5084,6.60914,1.52519l.71177-1.52519c-2.13527-.91511-4.57556-1.52519-7.21922-1.52519-2.54198,0-4.67724,.5084-6.60914,1.52519-1.9319,1.01679-3.3554,2.54198-4.47387,4.47388-1.01679,1.9319-1.52519,4.06716-1.52519,6.50746,0,3.96548,1.01679,7.01585,3.05037,9.15112,2.03358,2.13526,5.08395,3.25373,8.94774,3.25373,2.94869,0,5.69403-.40672,8.03264-1.52519v-10.98134h-9.04943l.10169,1.62687Z"/><polygon points="363.64822 15.69087 356.32732 29.11251 349.00641 15.69087 346.97283 15.69087 355.31053 30.94273 355.31053 40.2972 357.14074 40.2972 357.14074 30.73937 365.47843 15.69087 363.64822 15.69087"/><g><path d="M168.02659,99.32593v1.48427c0,7.16784,3.13214,10.79509,9.64126,10.79509,5.93383,0,8.90021-4.20363,8.90021-8.57193,0-6.17977-3.13105-8.89912-8.40509-10.46357l-6.42787-2.22532c-8.56977-3.2979-12.27828-7.74638-12.27828-16.15147,0-10.71275,7.25126-16.64767,18.29445-16.64767,15.07997,0,16.6455,9.39533,16.6455,15.49275v1.31959h-9.39424v-1.23725c0-5.35638-2.39-8.48743-8.24041-8.48743-4.03787,0-7.91105,2.22532-7.91105,8.48743,0,5.02702,2.55468,7.5817,8.81679,9.9717l6.34553,2.30766c8.32383,2.96637,11.94892,7.49936,11.94892,15.57509,0,12.52421-7.58062,17.71591-19.4472,17.71591-14.58594,0-17.88275-9.72252-17.88275-17.96293v-1.40193h9.39424Z"/><path d="M216.56332,58.70025h12.03126l15.49275,58.83779h-9.80594l-3.62617-14.42018h-17.22296l-3.79085,14.42018h-9.80702l16.72892-58.83779Zm12.52638,36.91826l-6.75722-29.0072h-.16576l-7.00424,29.0072h13.92723Z"/><path d="M250.65388,58.70025h14.66828l10.3834,43.59206h.16468l10.21872-43.59206h14.33784v58.83779h-8.89912v-48.9506h-.16468l-11.86658,48.9506h-7.91105l-11.86658-48.9506h-.16576v48.9506h-8.89912V58.70025Z"/></g><polygon points="167.50934 25.45206 162.42538 25.45206 162.42538 40.2972 177.3722 40.2972 177.3722 35.41661 167.50934 35.41661 167.50934 25.45206"/><polygon points="162.42538 22.91009 167.40765 22.91009 167.40765 20.46979 182.35447 20.46979 182.35447 35.41661 179.91418 35.41661 179.91418 40.2972 187.33675 40.2972 187.33675 15.48751 162.42538 15.48751 162.42538 22.91009"/></g><path d="M60.96181,65.22638v-.47632c-.00363,.0782-.00588,.15733-.00588,.23816s.00225,.15997,.00588,.23816Z"/><polygon points="70.5883 14.29634 118.95414 14.29634 118.95414 115.70366 70.5883 115.70366 70.5883 125.33015 128.58063 125.33015 128.58063 4.66985 70.5883 4.66985 70.5883 14.29634"/><polygon points="104.35915 101.10867 104.35915 28.89131 70.5883 28.89131 70.5883 38.51781 94.73266 38.51781 94.73266 91.48218 70.5883 91.48218 70.5883 101.10867 104.35915 101.10867"/><rect x="70.5883" y="53.11281" width="9.54934" height="23.77437"/><path d="M60.96181,115.60558c-5.44143-.4217-10.72371-1.70455-15.75062-3.83072-6.04479-2.55672-11.47561-6.21894-16.1416-10.88497-4.66602-4.66599-8.32823-10.09682-10.88497-16.14161-2.6449-6.25327-3.98597-12.90147-3.98597-19.76001s1.34107-13.50673,3.98597-19.75998c2.55673-6.04479,6.21894-11.47563,10.88497-16.1416,4.66599-4.66602,10.0968-8.32827,16.1416-10.88497,5.02691-2.12621,10.3092-3.40907,15.75062-3.83077V4.67021C29.44569,6.734,4.52157,32.95019,4.52157,64.98827s24.92413,58.25431,56.44024,60.3181v-9.70079Z"/><path d="M38.75813,38.77509c-7.00177,7.00177-10.85787,16.31122-10.85787,26.21314s3.8561,19.21137,10.85787,26.21314c6.04782,6.04782,13.81774,9.74618,22.20368,10.64237v-9.75161c-5.79547-.84487-11.14453-3.517-15.36099-7.73348-5.17404-5.17404-8.02351-12.05328-8.02351-19.37043s2.84947-14.19639,8.02351-19.37043c4.21646-4.21648,9.56552-6.88861,15.36099-7.73348v-9.75161c-8.38595,.89619-16.15587,4.59456-22.20368,10.64237Z"/><path d="M55.28929,55.30625c-2.62365,2.62367-4.01041,5.9716-4.01041,9.68197s1.38676,7.05831,4.01041,9.68197c1.6379,1.6379,3.5581,2.79365,5.67252,3.43098v-12.87479c-.00363-.0782-.00588-.15733-.00588-.23816s.00225-.15997,.00588-.23816v-12.87479c-2.11442,.63733-4.03462,1.79308-5.67252,3.43098Z"/></svg>