<?xml version="1.0" encoding="utf-8"?>
<!-- Generator: Adobe Illustrator 25.2.2, SVG Export Plug-In . SVG Version: 6.00 Build 0)  -->
<svg version="1.1" id="Layer_1" xmlns="http://www.w3.org/2000/svg" xmlns:xlink="http://www.w3.org/1999/xlink" x="0px" y="0px"
	 viewBox="0 0 356 172" style="enable-background:new 0 0 356 172;" xml:space="preserve">
<style type="text/css">
	.st0{fill:none;stroke:#003E69;stroke-width:1.0129;stroke-miterlimit:10;}
	.st1{fill:#1D98D5;}
	.st2{fill:#183A64;}
</style>
<g>
	<g>
		<rect x="5.1" y="97.4" width="345.7" height="1"/>
	</g>
	<g>
		<g>
			<path d="M22.5,135.3c0,2.1-0.8,3.7-2.3,5c-1.5,1.2-3.6,1.8-6.1,1.8c-3.1,0-5.4-0.3-7-1v-1.7c1.8,0.8,4.1,1.1,6.9,1.1
				c2,0,3.7-0.5,4.9-1.4s1.8-2.2,1.8-3.7c0-0.9-0.2-1.7-0.6-2.3c-0.4-0.6-1-1.2-1.9-1.7c-0.9-0.5-2.2-1.1-4-1.7
				c-2.6-0.9-4.3-1.8-5.3-2.8s-1.5-2.4-1.5-4.1c0-1.9,0.7-3.4,2.2-4.6c1.5-1.2,3.3-1.8,5.6-1.8c2.3,0,4.5,0.4,6.6,1.3l-0.6,1.5
				c-2.1-0.9-4.1-1.3-5.9-1.3c-1.8,0-3.3,0.4-4.4,1.3c-1.1,0.9-1.6,2-1.6,3.5c0,0.9,0.2,1.7,0.5,2.3c0.3,0.6,0.9,1.1,1.6,1.6
				c0.8,0.5,2.1,1,3.9,1.7c1.9,0.7,3.4,1.3,4.4,2s1.7,1.3,2.1,2.2C22.2,133.2,22.5,134.1,22.5,135.3z"/>
		</g>
		<g>
			<path d="M35.6,141.7h-1.8v-23.3h-8.1v-1.6h18v1.6h-8.1V141.7z"/>
		</g>
		<g>
			<path d="M50.6,130.8v10.9h-1.7v-25h5.9c3.1,0,5.4,0.6,6.9,1.7c1.5,1.1,2.2,2.9,2.2,5.2c0,1.7-0.4,3.1-1.3,4.2
				c-0.9,1.2-2.2,2-4,2.5l6.8,11.4h-2.1l-6.4-10.9H50.6z M50.6,129.3h4.8c2.1,0,3.7-0.5,4.9-1.4c1.2-0.9,1.7-2.3,1.7-4.2
				c0-1.9-0.6-3.3-1.7-4.1c-1.1-0.9-3-1.3-5.6-1.3h-4.1V129.3z"/>
		</g>
		<g>
			<path d="M83.1,132.9H72.9l-3.5,8.8h-1.9l10-25.1h1.1l9.8,25.1h-2L83.1,132.9z M73.5,131.3h8.9l-3.4-9c-0.3-0.7-0.6-1.7-1-2.9
				c-0.3,1.1-0.6,2.1-1,3L73.5,131.3z"/>
		</g>
		<g>
			<path d="M99.9,141.7h-1.8v-23.3h-8.1v-1.6h18v1.6h-8.1V141.7z"/>
		</g>
		<g>
			<path d="M126.8,141.7h-13.6v-25h13.6v1.6h-11.9v9.4h11.2v1.6h-11.2v10.7h11.9V141.7z"/>
		</g>
		<g>
			<path d="M143.7,129.1h9.2v11.4c-2.4,1-5.1,1.5-8.1,1.5c-3.9,0-7-1.1-9.1-3.3c-2.1-2.2-3.2-5.4-3.2-9.5c0-2.5,0.5-4.8,1.6-6.8
				c1-2,2.5-3.5,4.5-4.6c1.9-1.1,4.2-1.6,6.7-1.6c2.7,0,5.2,0.5,7.3,1.5l-0.7,1.6c-2.2-1-4.4-1.5-6.7-1.5c-3.3,0-5.9,1-7.8,3
				s-2.9,4.8-2.9,8.2c0,3.8,0.9,6.6,2.7,8.5c1.8,1.9,4.5,2.8,8.1,2.8c2.3,0,4.3-0.3,5.9-1v-8.8h-7.4V129.1z"/>
		</g>
		<g>
			<path d="M160.5,141.7v-25h1.7v25H160.5z"/>
		</g>
		<g>
			<path d="M181.4,118c-3.1,0-5.6,1-7.4,3c-1.8,2-2.7,4.7-2.7,8.2c0,3.6,0.8,6.3,2.5,8.3s4.1,3,7.3,3c2.1,0,4-0.3,5.8-0.8v1.5
				c-1.7,0.6-3.7,0.9-6.2,0.9c-3.5,0-6.3-1.1-8.3-3.4s-3-5.4-3-9.5c0-2.5,0.5-4.8,1.4-6.7c1-1.9,2.3-3.4,4.1-4.5
				c1.8-1.1,3.9-1.6,6.3-1.6c2.4,0,4.6,0.5,6.5,1.4l-0.7,1.6C185.3,118.4,183.4,118,181.4,118z"/>
		</g>
		<g>
			<path d="M215.3,141.7l-9.3-23.1h-0.1c0.1,1.4,0.1,2.9,0.1,4.3v18.7h-1.7v-25h2.7l8.8,22h0.1l8.8-22h2.6v25h-1.8v-18.9
				c0-1.3,0.1-2.7,0.2-4.1h-0.1l-9.3,23H215.3z"/>
		</g>
		<g>
			<path d="M249.6,141.7h-13.6v-25h13.6v1.6h-11.9v9.4h11.2v1.6h-11.2v10.7h11.9V141.7z"/>
		</g>
		<g>
			<path d="M267.6,141.7l-9.3-23.1h-0.1c0.1,1.4,0.1,2.9,0.1,4.3v18.7h-1.7v-25h2.7l8.8,22h0.1l8.8-22h2.6v25H278v-18.9
				c0-1.3,0.1-2.7,0.2-4.1h-0.1l-9.3,23H267.6z"/>
		</g>
		<g>
			<path d="M288.2,116.8h6.8c3.1,0,5.4,0.5,6.8,1.6c1.4,1,2.2,2.6,2.2,4.7c0,1.4-0.4,2.6-1.3,3.6c-0.9,1-2.2,1.6-3.9,1.9v0.1
				c2,0.3,3.5,0.9,4.4,1.9s1.4,2.3,1.4,4c0,2.3-0.8,4.1-2.3,5.3s-3.7,1.9-6.5,1.9h-7.7V116.8z M289.9,127.9h5.5
				c2.3,0,4.1-0.4,5.1-1.2c1.1-0.8,1.6-2,1.6-3.7s-0.6-2.9-1.8-3.6c-1.2-0.8-3-1.1-5.4-1.1h-5V127.9z M289.9,129.4v10.8h5.9
				c4.6,0,6.9-1.9,6.9-5.6c0-3.4-2.4-5.1-7.3-5.1H289.9z"/>
		</g>
		<g>
			<path d="M325.2,141.7h-13.6v-25h13.6v1.6h-11.9v9.4h11.2v1.6h-11.2v10.7h11.9V141.7z"/>
		</g>
		<g>
			<path d="M334,130.8v10.9h-1.7v-25h5.9c3.1,0,5.4,0.6,6.9,1.7c1.5,1.1,2.2,2.9,2.2,5.2c0,1.7-0.4,3.1-1.3,4.2
				c-0.9,1.2-2.2,2-4,2.5l6.8,11.4h-2.1l-6.4-10.9H334z M334,129.3h4.8c2.1,0,3.7-0.5,4.9-1.4s1.7-2.3,1.7-4.2
				c0-1.9-0.6-3.3-1.7-4.1s-3-1.3-5.6-1.3H334V129.3z"/>
		</g>
	</g>
	<g>
		<g>
			<polygon points="13.6,69.3 13.6,52.4 5.1,52.4 5.1,77.8 30.5,77.8 30.5,69.3 			"/>
		</g>
		<g>
			<polygon points="47.5,35.4 5.1,35.4 5.1,48.1 13.6,48.1 13.6,44 39,44 39,69.3 34.8,69.3 34.8,77.8 47.5,77.8 			"/>
		</g>
		<g>
			<polygon points="58.7,36 71.6,36 71.6,67.1 90.1,67.1 90.1,77.8 58.7,77.8 			"/>
		</g>
		<g>
			<polygon points="95.7,36 128,36 128,46.7 108.5,46.7 108.5,51.9 125.2,51.9 125.2,61.9 108.5,61.9 108.5,77.8 95.6,77.8 95.6,36 
							"/>
		</g>
		<g>
			<polygon points="161.3,78 137.9,78 137.9,35.8 161.3,35.8 161.3,38.6 140.9,38.6 140.9,54.5 160.2,54.5 160.2,57.3 140.9,57.3 
				140.9,75.4 161.3,75.4 			"/>
		</g>
		<g>
			<path d="M202.1,78h-3l-25.3-37.5h-0.2c0.2,4.4,0.3,7.8,0.3,10.1V78H171V35.8h3l25.3,37.4h0.2c-0.2-3.5-0.3-6.8-0.3-9.9V35.8h2.9
				L202.1,78L202.1,78z"/>
		</g>
		<g>
			<polygon points="237.7,78 214.3,78 214.3,35.8 237.7,35.8 237.7,38.6 217.3,38.6 217.3,54.5 236.5,54.5 236.5,57.3 217.3,57.3 
				217.3,75.4 237.7,75.4 			"/>
		</g>
		<g>
			<path d="M250.3,59.7v18.4h-3V35.8h10.2c5.3,0,9.2,1,11.8,2.9c2.6,1.9,3.8,4.8,3.8,8.7c0,2.8-0.7,5.2-2.3,7.2
				c-1.5,1.9-3.8,3.4-6.9,4.2L275.6,78H272l-11.1-18.4L250.3,59.7L250.3,59.7z M250.3,57.1h8.1c3.6,0,6.4-0.8,8.4-2.4
				c2-1.6,3-3.9,3-7c0-3.2-1-5.5-2.9-7c-1.9-1.5-5.1-2.2-9.6-2.2h-7L250.3,57.1L250.3,57.1z"/>
		</g>
		<g>
			<path d="M299.4,56.3h15.4v18.8c-4,1.7-8.6,2.6-13.7,2.6c-6.6,0-11.7-1.8-15.2-5.5c-3.5-3.7-5.3-8.9-5.3-15.6
				c0-4.2,0.9-7.9,2.6-11.2c1.8-3.2,4.3-5.8,7.5-7.5s7-2.7,11.2-2.7c4.6,0,8.7,0.9,12.3,2.5l-1.2,2.6c-3.6-1.7-7.4-2.5-11.3-2.5
				c-5.5,0-9.9,1.7-13.1,5s-4.8,7.9-4.8,13.6c0,6.2,1.5,10.9,4.6,14c3.1,3.1,7.6,4.7,13.6,4.7c3.9,0,7.1-0.5,9.8-1.6V59h-12.5
				L299.4,56.3C299.4,56.3,299.4,56.3,299.4,56.3z"/>
		</g>
		<g>
			<polygon points="335.2,58.8 347.7,35.8 350.9,35.8 336.7,61.6 336.7,77.8 333.6,77.8 333.6,61.8 319.4,35.8 322.8,35.8 			"/>
		</g>
	</g>
</g>
</svg>
