<?xml version="1.0" encoding="UTF-8" standalone="no"?>
<svg
   xmlns:dc="http://purl.org/dc/elements/1.1/"
   xmlns:cc="http://creativecommons.org/ns#"
   xmlns:rdf="http://www.w3.org/1999/02/22-rdf-syntax-ns#"
   xmlns:svg="http://www.w3.org/2000/svg"
   xmlns="http://www.w3.org/2000/svg"
   xmlns:sodipodi="http://sodipodi.sourceforge.net/DTD/sodipodi-0.dtd"
   xmlns:inkscape="http://www.inkscape.org/namespaces/inkscape"
   version="1.1"
   x="0px"
   y="0px"
   viewBox="0 0 325.57108 437.29999"
   xml:space="preserve"
   id="svg1000"
   sodipodi:docname="fledgepower-icon-white.svg"
   inkscape:version="1.0.2 (e86c8708, 2021-01-15)"
   width="325.57108"
   height="437.29999"><metadata
   id="metadata1006"><rdf:RDF><cc:Work
       rdf:about=""><dc:format>image/svg+xml</dc:format><dc:type
         rdf:resource="http://purl.org/dc/dcmitype/StillImage" /><dc:title /></cc:Work></rdf:RDF></metadata><defs
   id="defs1004">
	
	
	
	
	
	
	
	
	
	
	
	
	
	
	
	
	
	
	
	
	
	
	
	
	
	
	
	
	
	
	
	
	
	
	
	
	
	
	
	
	
	
	
	
	
	
	
	
	
	
	
	
	
	
	
	
	
	
	
	
	
	
	
	
	
	
	
	
	
	
	
	
	
	
	
	
	
</defs><sodipodi:namedview
   pagecolor="#ffffff"
   bordercolor="#666666"
   borderopacity="1"
   objecttolerance="10"
   gridtolerance="10"
   guidetolerance="10"
   inkscape:pageopacity="0"
   inkscape:pageshadow="2"
   inkscape:window-width="1706"
   inkscape:window-height="892"
   id="namedview1002"
   showgrid="false"
   inkscape:zoom="1.096"
   inkscape:cx="493.39685"
   inkscape:cy="218.7"
   inkscape:window-x="719"
   inkscape:window-y="463"
   inkscape:window-maximized="0"
   inkscape:current-layer="svg1000"
   inkscape:document-rotation="0" />
<style
   type="text/css"
   id="style842">
	.st0{fill:none;}
	.st1{fill:#050505;}
	.st2{fill:#ED4024;}
	.st3{fill:#BA1C0C;}
	.st4{fill:#515151;}
	.st5{fill:#666666;}
	.st6{fill:#60605E;}
	.st7{fill:#9B9B9B;}
	.st8{fill:#FFCC04;}
	.st9{fill:#EF8B22;}
	.st10{fill:#CECDCC;}
	.st11{fill:#EFEFEF;}
	.st12{fill:#FFFFFF;}
	.st13{fill:#DB6414;}
	.st14{fill:#009ADE;}
	.st15{fill:#003764;}
	.st16{opacity:0.8;fill:#050505;}
	.st17{opacity:0.8;fill:#FFFFFF;}
</style>
<g
   id="Layer_2"
   transform="translate(-1.5849036,-6.3)"
   inkscape:export-xdpi="380.79999"
   inkscape:export-ydpi="380.79999">
</g>
<path
   class="st12"
   d="m 298.9151,199.1 c -0.6,-0.5 -1.2,-1 -1.7,-1.5 l -0.6,-0.5 c -17.9,-14.8 -35.5,-18.9 -43.2,-20 0.1,-4.1 0.5,-8 1.1,-11.5 3.2,1.1 7.5,2.5 11.4,2.5 0.1,0 0.3,0 0.4,0 l 5.3,-0.1 -3.2,-4.3 c -0.5,-0.6 -1,-1.3 -1.4,-2 -0.7,-1.6 -5.7,-12.9 -7.5,-17.4 -1,-4.6 -1.6,-7.9 -1.8,-9.8 v -0.2 c 0,-0.2 0,-0.4 0,-0.6 0.3,-7.7 -0.8,-17.4 -3.2,-26.5 -1.3,-5.2 -2.9,-10 -4.8,-14.2 0.1,-0.5 0.2,-1 0.2,-1.5 0,-0.2 0,-0.3 0,-0.5 v -0.2 c 0,-0.4 0,-0.8 0,-1.1 -0.2,-5.9 -1.2,-12.9 -2.7,-19.1 -3.6,-14.4 -9.7,-26.1 -18.3,-34.8 0.7,-2.1 0.4,-4.3 -0.8,-6 -2.9,-4.5 -8.7,-7.9 -12.8,-9.5 -0.8,-0.3 -1.6,-0.5 -2.4,-0.5 -1.5,0 -2.9,0.5 -4,1.3 -1.2,-0.6 -2.4,-1.2 -3.6,-1.8 0.5,-1.3 0.6,-2.7 0.2,-4.2 -0.4,-1.9 -1.6,-3.5 -3.3,-4.3 -12.3,-7.2 -25.2,-10.8 -38.2,-10.8 -13.1,0 -26,3.6 -38.4,10.9 -1.7,1.1 -2.7,2.5 -3.1,4.3 -0.3,1.4 -0.2,2.8 0.2,4.2 -1.2,0.6 -2.5,1.2 -3.7,1.9 -1.1,-0.9 -2.5,-1.4 -4,-1.4 -0.8,0 -1.6,0.2 -2.3,0.4 -4.1,1.6 -9.9,5 -12.800004,9.5 l -0.1,0.1 c -1.1,1.8 -1.3,3.9 -0.7,5.9 -8.5,8.8 -14.8,20.8 -18.1,34.9 -0.9,3.9 -2.4,11.5 -2.7,18.6 -0.1,0.4 -0.1,0.7 -0.1,1.1 -5.4,10.1 -10.9,26.8 -10.4,36.8 0.3,9.9 -0.8,17.6 -3.4,22.9 -0.8,1.6 -2.1,3.7 -3.3,5.6 l 1.4,1 0.2,0.4 0.2,0.3 -2,-1.4 c -2.2,3.2 -3.5,4.4 -3.8,4.6 0,0 0.1,0 0.1,0 l 0.8,5.2 c 0.3,0 0.7,0 1.1,0 1.7,0 4.1,-0.1 6.6,-0.3 l 4.4,-0.5 c 0.6,4.7 1.3,8.7 2.3,12.2 -7.3,1 -25.3,5 -43.3,20 l -0.6,0.5 c -0.6,0.5 -1.2,0.9 -1.7,1.5 -1.2,1.1 -2.4,2.2 -3.8,3.5 -28.8999996,28 -22.79999961,56 -21.7999996,59.6 0.1,0.4 0.2,0.9 0.3,1.3 0.8,3.8 2.1,7.6 3.8,11.3 0.2,0.4 0.4,0.8 0.6,1.3 l 0.2,0.4 c 1.8,3.6 4.0999996,7.2 6.7999996,10.7 7.3,9.6 17.9,18.8 31.4,27.5 3.2,21 10.8,42.8 22.5,64.8 0.9,1.8 2.6,3.1 4.6,3.6 0.6,0.2 1.2,0.2 1.8,0.2 1.4,0 2.8,-0.4 3.9,-1.2 0.1,-0.1 12.4,-7.8 36.000004,-12 0.3,1.1 0.6,2.2 0.8,3.3 l 0.4,2.2 c 0.2,1.4 0.4,2.7 0.6,4.1 0.2,1.3 0.4,2.6 0.6,4 0,0 0.1,0.3 0.1,0.4 v 0 c -0.1,0.7 -0.1,1.3 -0.2,2 -2.1,0.1 -4,0.2 -6,0.4 -6.8,0.4 -12.500004,1 -18.000004,1.7 -6,0.8 -13,1.8 -19.4,4 -5.1,1.8 -12,4.9 -13.8,11.6 -0.6,2.5 -0.4,5.2 0.6,7.8 1.4,3.7 5.1,6.5 9.3,7.4 -0.4,2.6 0,5.3 1.4,7.6 2.3,3.9 6.3,6.2 11.1,6.2 2.6,0 5.3,-0.7 7.6,-2 0.4,-0.2 0.8,-0.5 1.2,-0.7 0.4,1 0.9,1.9 1.6,2.7 2.1,2.7 5.4,4.2 9.100004,4.2 1.2,0 2.4,-0.2 3.6,-0.5 1.3,-0.3 2.6,-1 3.9,-1.8 l 0.1,-0.1 c 2,-1.6 3,-3.5 3.9,-5.2 0.6,-1.1 1.1,-2.1 1.8,-2.9 l 0.1,-0.1 c 0.3,-0.3 0.6,-0.8 1.4,-2 1.6,-2.3 4.3,-6.2 7.1,-9.6 3.7,-4.6 7.3,-7.7 9.1,-9.1 1.1,-0.9 1.5,-1.3 1.8,-2 0.9,-2 1.1,-5.2 1.1,-10.2 0,-0.7 0,-1.4 0,-2.1 0.7,-0.7 1.2,-1.5 1.5,-2.4 1,-2.9 2.6,-5.5 4.6,-7.8 0.4,0.3 0.8,0.7 1.2,1 5.3,4.6 11.5,9.1 18.5,13.6 l 0.1,0.1 c 4.8,3 9.8,5.8 13.8,5.8 0.7,0 1.3,-0.1 1.9,-0.2 2.1,-0.5 4.6,-1.8 6,-5.1 3.7,1.6 7.2,3 10.5,4.1 0.2,1.5 0.4,2.5 0.8,3.4 0.3,0.7 0.7,1.1 1.8,2 1.7,1.5 5.4,4.6 9.1,9.2 2.8,3.3 5.4,7.2 7,9.5 0.8,1.2 1.1,1.7 1.4,2 l 0.1,0.1 c 0.7,0.8 1.3,1.8 1.8,2.9 0.9,1.7 1.9,3.6 3.9,5.2 l 0.1,0.1 c 1.2,0.9 2.6,1.5 3.9,1.8 1.2,0.3 2.4,0.5 3.6,0.5 3.7,0 7,-1.5 9.2,-4.2 0.6,-0.8 1.1,-1.7 1.5,-2.7 0.3,0.3 0.7,0.5 1.1,0.7 2.4,1.3 5,2 7.6,2 4.8,0 8.9,-2.3 11.1,-6.2 1.4,-2.3 1.8,-5 1.4,-7.7 4.2,-0.9 7.8,-3.7 9.3,-7.4 1,-2.6 1.2,-5.3 0.6,-7.8 -1.7,-6.7 -8.7,-9.8 -13.8,-11.6 -5.3,-1.8 -11,-2.8 -16.3,-3.6 0,-0.1 0.1,-0.2 0.1,-0.3 0.6,-1.6 0.7,-3.4 0.2,-5.1 8.9,1.4 17,2.1 24.4,2.1 46.3,0 50.6,-26.7 50.8,-27.9 0.4,-2.5 -0.6,-5 -2.6,-6.6 -0.1,-0.1 -12.1,-10.1 -22.1,-31.3 -1.1,-2.3 -2.1,-4.7 -3.1,-7.2 11.8,-8 21.1,-16.4 27.7,-25.1 2.7,-3.5 4.9,-7.1 6.8,-10.8 l 0.2,-0.4 c 0.2,-0.4 0.4,-0.8 0.6,-1.3 1.7,-3.7 3,-7.5 3.8,-11.3 0.1,-0.4 0.2,-0.9 0.3,-1.3 0.9,-3.6 7,-31.6 -21.6,-59.7 -1.4,-1.3 -2.6,-2.4 -3.9,-3.5 z m 22.8,62.6 c -0.1,0.4 -0.2,0.9 -0.3,1.3 -0.8,3.6 -2,7.2 -3.6,10.7 -0.2,0.5 -0.4,0.9 -0.6,1.3 l -0.1,0.3 c -1.8,3.5 -4,6.9 -6.5,10.3 -6.8,8.9 -16.5,17.5 -28.8,25.7 1.3,3.4 2.6,6.5 3.9,9.3 10.3,22 22.7,32.2 22.8,32.3 1.2,1 1.9,2.6 1.6,4.1 -0.1,1 -4.1,25.5 -48.1,25.5 0,0 0,0 0,0 -9,0 -19.2,-1 -30.3,-3.1 1.4,1.2 2.5,2.5 3.1,3.9 0.5,1.3 0.6,2.7 0.1,4 -0.7,1.8 -2.3,2.8 -4.1,3.2 1,0.1 2,0.2 3,0.4 6.1,0.8 12.8,1.8 18.8,3.8 4.7,1.7 10.6,4.4 12,9.7 0.5,2 0.3,4.2 -0.5,6.1 -1.5,4 -6.1,6.3 -10.4,6 0.1,0.3 0.3,0.6 0.4,0.9 1,2.6 0.9,5.4 -0.5,7.8 -3.1,5.4 -10,6 -15.1,3.2 -1.9,-1 -2.6,-2.8 -3.5,-4.6 -0.1,-0.1 -0.3,-0.5 -0.4,-0.8 -0.5,-0.4 -1.2,-0.8 -1.7,-1.2 1.4,3.1 1.7,6.4 -0.5,9.2 -2.4,3.1 -6.4,3.7 -10,2.8 -1,-0.3 -2,-0.8 -2.9,-1.4 -2.7,-2.2 -3.2,-5.4 -5.4,-7.8 -0.6,-0.8 -4.5,-6.8 -8.4,-11.5 -5.2,-6.5 -10.4,-10.1 -10.5,-10.5 -0.4,-0.9 -0.7,-2.5 -0.8,-4.3 -5.1,-1.5 -10.1,-3.6 -14.8,-5.8 -0.4,2.9 -1.7,5.5 -4.9,6.3 -3.7,1 -10.6,-3.3 -13.7,-5.2 -6.3,-4 -12.5,-8.4 -18.2,-13.3 -1,-0.9 -2,-1.8 -3.1,-2.7 -3.1,2.8 -5.6,6.4 -7.1,10.6 -0.3,0.8 -0.9,1.5 -1.6,2 -0.2,4.3 0,10.4 -1,12.5 -0.1,0.4 -5.2,4 -10.5,10.5 -4,4.7 -7.8,10.8 -8.4,11.5 -2.2,2.4 -2.7,5.6 -5.4,7.8 -0.9,0.6 -1.9,1.2 -2.9,1.4 -3.600004,0.9 -7.600004,0.3 -10.000004,-2.8 -2.3,-2.8 -2,-6.1 -0.6,-9.2 -0.5,0.4 -1.2,0.8 -1.7,1.2 -0.1,0.3 -0.3,0.6 -0.4,0.8 -0.9,1.8 -1.5,3.6 -3.5,4.6 -5.1,2.8 -12,2.2 -15.1,-3.2 -1.4,-2.4 -1.5,-5.2 -0.5,-7.8 0.1,-0.3 0.3,-0.6 0.4,-0.9 -4.2,0.3 -8.8,-2 -10.4,-6 -0.8,-1.9 -1,-4.1 -0.5,-6.1 1.4,-5.4 7.3,-8.1 12,-9.7 6,-2 12.7,-3.1 18.8,-3.8 5.9,-0.8 11.800004,-1.3 17.800004,-1.7 2.2,-0.1 4.4,-0.3 6.7,-0.4 0.5,0 1,-0.1 1.5,-0.1 0.1,-0.5 0.1,-1 0.3,-1.4 0.2,-1.1 0.3,-2.2 0.4,-3.2 0,-0.3 -0.1,-0.5 -0.1,-0.8 -0.4,-2.7 -0.9,-5.4 -1.3,-8.1 -0.1,-0.8 -0.3,-1.5 -0.4,-2.3 -0.4,-2 -0.9,-3.9 -1.6,-5.8 -25.900004,4.1 -39.200004,12.6 -39.400004,12.7 -0.7,0.5 -1.6,0.7 -2.5,0.7 -0.4,0 -0.8,0 -1.1,-0.1 -1.2,-0.3 -2.3,-1.1 -2.9,-2.2 -11.8,-22.3 -19.3,-44.1 -22.4,-65.1 0,0 0,0 0,0 -13.8,-8.7 -24.4,-18 -31.7,-27.5 -2.6,-3.4 -4.6999996,-6.8 -6.4999996,-10.3 l -0.1,-0.3 c -0.2,-0.4 -0.4,-0.9 -0.6,-1.3 -1.6,-3.5 -2.9,-7.1 -3.6,-10.7 -0.1,-0.4 -0.2,-0.9 -0.3,-1.3 -0.7,-2.7 -7.1,-29.8 20.8999996,-57.1 1.3,-1.3 2.5,-2.4 3.7,-3.4 0.6,-0.5 1.1,-0.9 1.7,-1.4 l 0.6,-0.5 c 21.5,-17.8 42.8,-19.6 45,-19.7 0,-0.2 0,-0.5 0,-0.7 -1.7,-5.1 -2.6,-10.6 -3.3,-16.7 -0.3,0 -0.6,0 -0.9,0 l -5.7,2 -0.5,-1.3 c -2.8,0.2 -5.6,0.4 -7.2,0.3 1.2,-0.4 3.1,-2.8 5,-5.5 v -0.1 h -0.1 c 0,0 0.1,-0.1 0.3,-0.2 1.4,-2 2.7,-4.2 3.5,-5.9 3.5,-7 4,-16.5 3.7,-24.2 -0.4,-9.3 4.8,-25.8 10.4,-36 0,-0.5 0,-0.9 0.1,-1.4 0.2,-6 1.4,-12.8 2.6,-18.4 3.1,-13.1 9.2,-25.6 18.900004,-34.8 -0.2,-0.4 -0.4,-0.7 -0.5,-0.9 -0.6,-1.4 -0.5,-2.9 0.3,-4.2 2.4,-3.7 7.6,-6.9 11.5,-8.4 1.8,-0.7 3.8,0.1 4.8,1.8 2.6,-1.5 5.2,-2.8 7.9,-4 -0.3,-0.5 -0.6,-1.1 -0.9,-1.6 -0.5,-1 -0.6,-2 -0.4,-3.2 0.3,-1.2 0.9,-1.9 1.9,-2.6 23.9,-14 49.9,-14 73.8,0 1,0.5 1.7,1.4 1.9,2.6 0.3,1.2 0.1,2.2 -0.4,3.2 -0.3,0.5 -0.6,1.1 -0.9,1.6 2.7,1.2 5.3,2.5 7.8,3.9 0.9,-1.7 3.1,-2.4 4.9,-1.7 4,1.5 9.1,4.7 11.5,8.4 0.9,1.3 0.9,2.8 0.3,4.2 -0.1,0.2 -0.3,0.5 -0.5,0.9 9.7,9.2 15.6,21.7 18.9,34.8 1.4,5.7 2.5,12.6 2.7,18.7 0,0.3 0,0.6 0,0.9 0,0.2 0,0.5 0,0.7 0,0.6 -0.1,1.2 -0.3,1.7 2.1,4.5 3.8,9.5 5.1,14.7 2.3,9 3.4,18.4 3.1,25.7 0,0.4 0,0.7 0,1.1 0.3,2.3 1.1,6.2 1.9,10.4 1.8,4.8 4.5,9.7 7.1,13.6 l 0.6,0.9 v 3.5 c 0.5,0.7 1,1.5 1.7,2.3 -4.5,0.1 -9.9,-1.9 -13,-3.1 l -0.8,-0.1 c -1.2,5.7 -1.7,11.7 -1.7,17.3 4.5,0.4 24.3,3.1 44.2,19.7 l 0.6,0.5 c 0.6,0.4 1.1,0.9 1.7,1.4 1.2,1 2.3,2.1 3.7,3.4 28.1,27 21.7,54.2 21,56.8 z"
   id="path895"
   inkscape:export-xdpi="380.79999"
   inkscape:export-ydpi="380.79999" /><path
   class="st12"
   d="m 277.8151,313.9 c -1.2,0.8 -2.5,1.5 -3.7,2.3 -7.8,4.6 -16.2,9.1 -25.9,13.5 -5.2,3.7 -5.9,6.1 -6,6.7 -0.1,0.8 0.3,1.4 1.1,2.5 0.4,0.4 0.7,0.9 1,1.5 0.2,0.2 0.5,0.7 0.8,1 2.7,3.4 6.7,8.5 4.5,13.1 -0.9,1.8 -2.9,3.9 -7.5,3.9 -2.1,0 -4.7,-0.4 -8,-1.2 -6.3,-1.6 -10.7,-4.6 -13.1,-8.8 -0.5,-0.9 -0.9,-1.9 -1.2,-3 -1.3,3 -2.7,6.1 -4,9.2 1.4,1.5 2.9,2.9 4.4,4.2 0.9,0.8 1.8,1.5 2.7,2.3 2.9,2.6 6.5,6.4 4.7,10.6 -0.3,0.9 -1,1.7 -1.7,2.3 74.9,15.9 79.7,-17.4 79.7,-17.4 0,0 -16,-12.8 -27.5,-41.7 -0.1,-0.4 -0.2,-0.7 -0.3,-1 z"
   id="path897"
   inkscape:export-xdpi="380.79999"
   inkscape:export-ydpi="380.79999" /><path
   class="st12"
   d="m 110.8151,356.5 c -1.6,-3.9 -3.3,-7.8 -5.1,-11.7 -0.3,1.2 -0.8,2.3 -1.3,3.3 -2.4,4.3 -6.800004,7.3 -13.100004,8.8 -1.7,0.4 -3.2,0.7 -4.6,0.9 -1.2,0.2 -2.4,0.3 -3.4,0.3 -4.7,0 -6.7,-2.1 -7.5,-3.9 -0.8,-1.7 -0.8,-3.5 -0.3,-5.2 0.9,-2.9 3.1,-5.8 4.8,-7.9 0.3,-0.3 0.6,-0.8 0.8,-1 0.3,-0.6 0.7,-1 1,-1.5 0.9,-1.1 1.2,-1.7 1.1,-2.5 -0.1,-0.6 -0.8,-3 -6,-6.7 -3.7,-1.7 -7.3,-3.4 -10.7,-5.1 -5.3,-2.7 -10.2,-5.4 -14.9,-8.1 3.1,18.2 9.8,38.2 21.3,59.9 0,0 13.6,-8.9 40.400004,-13.3 -0.7,-1.8 -1.4,-3.6 -2.2,-5.4 0,-0.1 -0.1,-0.5 -0.3,-0.9 z"
   id="path899"
   inkscape:export-xdpi="380.79999"
   inkscape:export-ydpi="380.79999" /><path
   class="st12"
   d="m 306.1151,276.9 c -0.1,-2.4 -0.1,-5.6 -0.2,-7.8 0,-5.9 -1.4,-8.4 -5.2,-1.1 -10.3,20 -18.1,25.9 -12.8,-4 l 0.5,-3.3 c -2.2,5.7 -5.5,16.3 -3.7,22.5 2.9,10.1 12.8,-4.9 17.9,-13.8 -0.2,4.9 -0.2,13.7 3.2,13.7 0.4,0 0.7,0 1,-0.1 0.6,-0.8 1.1,-1.5 1.7,-2.3 0.5,-0.8 1.1,-1.6 1.6,-2.4 1,-1.6 1.9,-3.2 2.8,-4.9 0.3,-0.5 0.5,-1 0.7,-1.5 1.1,-2.4 2,-4.8 2.7,-7.3 0.2,-0.8 0.4,-1.7 0.6,-2.5 -3.9,10.1 -10.2,24 -10.8,14.8 z"
   id="path901"
   inkscape:export-xdpi="380.79999"
   inkscape:export-ydpi="380.79999" /><path
   class="st12"
   d="m 276.4151,309.4 0.4,-0.7 c 2.1,-3.8 2.7,-7.3 -2.5,-3.5 -16,12 -24.6,14.3 -8.1,-7.3 l 1.8,-2.4 c -3.9,3.5 -10.7,10.7 -12,16.1 -2.2,8.9 11.1,0.9 18.3,-4 -0.8,1.2 -1.7,3 -2.5,4.6 1.5,-0.8 3.1,-1.8 4.6,-2.8 z"
   id="path903"
   inkscape:export-xdpi="380.79999"
   inkscape:export-ydpi="380.79999" /><path
   class="st12"
   d="m 295.8151,211.4 c 1.6,4.5 2.6,9 2.2,12 -2.2,-0.9 -6.4,-4.4 -9,-6.4 -4.9,-4.1 -7.3,-3.8 -4.1,3.6 8.6,19.9 8.1,29.3 -11.9,6.6 l -2.2,-2.5 c 3,5.2 9.3,14.4 15.4,17 9.9,4.2 4.6,-12.7 1,-22 3.7,3.3 10.6,8.9 13.1,6.2 1.4,-1.5 1.1,-5.5 0.2,-9.6 -0.4,-1.5 -0.8,-3 -1.3,-4.5 -0.5,-1.4 -1,-2.7 -1.4,-3.9 -1.1,-1.1 -2.3,-2.2 -3.5,-3.3 -0.7,-0.6 -1.5,-1.2 -2.2,-1.8 0.5,1 1.1,2.1 1.6,3.3 0.7,1.6 1.4,3.4 2.1,5.3 z"
   id="path905"
   inkscape:export-xdpi="380.79999"
   inkscape:export-ydpi="380.79999" /><path
   class="st12"
   d="m 237.9151,303.4 c 14.9,-21.4 24.2,-24.1 23.1,-38.2 -1.1,-14.1 -14.6,-14.6 -14.6,-14.6 0.5,10.2 -0.9,21 -2.7,30.1 -1.2,6.7 -2.9,13.2 -4.9,19.7 -0.5,1.9 -0.9,3 -0.9,3 z"
   id="path907"
   inkscape:export-xdpi="380.79999"
   inkscape:export-ydpi="380.79999" /><path
   class="st12"
   d="m 22.815096,269.3 c 5.1,8.9 15.1,23.9 17.9,13.8 1.8,-6.2 -1.5,-16.8 -3.7,-22.5 l 0.5,3.3 c 5.4,30 -2.5,24.1 -12.8,4 -3.8,-7.3 -5.2,-4.8 -5.2,1.1 0,2.2 0,5.4 -0.2,7.8 -0.6,9.2 -7,-4.8 -10.9999996,-14.8 0.2,0.8 0.4,1.7 0.6,2.5 0.7,2.5 1.5999996,4.9 2.6999996,7.3 0.2,0.5 0.5,1 0.7,1.5 0.8,1.7 1.8,3.3 2.8,4.9 0.5,0.8 1,1.6 1.6,2.4 0.6,0.8 1.1,1.6 1.7,2.3 0.3,0.1 0.7,0.1 1,0.1 3.7,0 3.6,-8.8 3.4,-13.7 z"
   id="path909"
   inkscape:export-xdpi="380.79999"
   inkscape:export-ydpi="380.79999" /><path
   class="st12"
   d="m 51.215096,307.6 c 7.2,4.9 20.6,12.9 18.3,4 -1.4,-5.4 -8.1,-12.6 -12,-16.1 l 1.8,2.4 c 16.5,21.6 8,19.3 -8.1,7.3 -5.2,-3.9 -4.6,-0.4 -2.5,3.5 l 0.4,0.7 c 1.5,1 3.1,1.9 4.6,2.8 -0.8,-1.6 -1.8,-3.3 -2.5,-4.6 z"
   id="path911"
   inkscape:export-xdpi="380.79999"
   inkscape:export-ydpi="380.79999" /><path
   class="st12"
   d="m 25.115096,216.2 c -1,4.2 -1.3,8.1 0.2,9.6 2.5,2.6 9.3,-3 13.1,-6.2 -3.6,9.3 -9,26.2 1,22 6.2,-2.6 12.5,-11.8 15.4,-17 l -2.2,2.5 c -20,22.7 -20.5,13.3 -11.9,-6.6 3.2,-7.5 0.8,-7.7 -4.1,-3.6 -2.6,2.1 -6.8,5.5 -9,6.4 -0.4,-3 0.6,-7.5 2.2,-12 0.6,-1.8 1.4,-3.7 2.2,-5.4 0.5,-1.1 1,-2.3 1.6,-3.3 -0.7,0.6 -1.5,1.2 -2.2,1.8 -1.2,1.1 -2.4,2.2 -3.5,3.3 -0.5,1.2 -1,2.5 -1.4,3.9 -0.6,1.6 -1,3.1 -1.4,4.6 z"
   id="path913"
   inkscape:export-xdpi="380.79999"
   inkscape:export-ydpi="380.79999" /><path
   class="st12"
   d="m 79.015096,250.6 c 0,0 -13.5,0.5 -14.6,14.6 -1.1,14.1 8.2,16.8 23.1,38.2 0.1,0 -9.6,-28 -8.5,-52.8 z"
   id="path915"
   inkscape:export-xdpi="380.79999"
   inkscape:export-ydpi="380.79999" /><path
   class="st12"
   d="m 128.1151,391 -1.5,-0.4 -5.3,-1.4 c -0.5,-0.1 -0.9,-0.3 -1.3,-0.5 -0.3,1.1 -0.7,2.1 -1,2.7 1.3,0.5 2.3,1.3 3.2,2 -0.9,-0.2 -2.1,-0.4 -3.6,-0.5 0.7,0 1.4,0 2.3,0.1 -4.6,-1.3 -9.2,-1 -14,-0.9 -10.400004,0.4 -30.400004,1.1 -39.000004,9.3 -1.7,1.3 -2.9,2.7 -3.3,4.2 0,0 0,-0.1 -0.1,-0.1 -0.3,1 -0.3,2.2 0.3,3.5 1,2.3 3.8,3.6 6.3,3.5 1.2,0 2.3,-0.3 3.1,-1 2,-1.7 2.9,-4.5 4.4,-4.9 1.8,-0.5 3.5,-0.9 5,-1.3 9.4,-2.3 14.8,-3.4 17.400004,-3.9 1,-0.2 1.5,-0.3 1.8,-0.3 v 0.1 c -1.7,0.7 -15.600004,7.1 -23.300004,12.3 -3.5,2.4 -4.8,4.9 -4.9,7.1 0,-0.1 -0.1,-0.1 -0.1,-0.2 -0.4,4.5 5,7.6 10.4,4.6 0.1,-0.1 0.2,-0.2 0.3,-0.3 0.8,-0.7 1.4,-2.8 2.3,-4.1 0.2,-0.3 0.4,-0.5 0.7,-0.7 8.6,-5.5 21.900004,-13.5 23.900004,-14.7 -1.8,1.9 -9.8,10.1 -14.500004,15.9 -0.7,0.9 -1.3,1.8 -1.7,2.6 0,0 0,-0.1 0,-0.1 -0.8,1.6 -0.9,3 -0.5,4.1 0,0.1 0,0.1 0.1,0.2 0,0.1 0.1,0.2 0.1,0.3 0.1,0.1 0.1,0.3 0.2,0.4 0,0 0,0 0,0 0.9,1.3 2.8,2 5.100004,1.7 0.3,0 0.5,-0.1 0.8,-0.2 0,0 0,0 0.1,0 1,-0.2 1.7,-0.8 2.3,-1.5 0.2,-0.3 0.4,-0.6 0.6,-1 0.2,-0.3 0.4,-0.7 0.6,-1.1 0.7,-1.4 1.5,-3 2.9,-4.5 0.2,-0.2 0.3,-0.4 0.5,-0.6 2.6,-3.2 6.6,-10.1 11.9,-14.8 0.4,-0.3 0.8,-0.7 1.2,-1 1.8,-1.4 3,-2.6 3.9,-3.8 0.2,-0.3 0.4,-0.5 0.6,-0.8 0.9,-1.3 1.2,-2.4 1.3,-3.5 0.1,-0.4 0.1,-0.8 0.1,-1.2 0,-0.4 0,-0.7 0,-1.1 0,-0.4 0,-0.7 0.1,-1.1 0.1,-1 0.3,-2.1 0.4,-3.3 0,0 0,0 0,0 0,0.2 0,0.2 -0.1,0.2 z"
   id="path917"
   inkscape:export-xdpi="380.79999"
   inkscape:export-ydpi="380.79999" /><path
   class="st12"
   d="m 204.6151,393.1 c 0.1,0 0.1,0 0.2,0 -0.6,0.1 -1.1,0.2 -1.6,0.3 0.9,-0.8 1.9,-1.5 3.2,-2 -0.3,-0.6 -0.6,-1.5 -0.9,-2.5 -0.3,0.2 -0.6,0.3 -1,0.4 l -5.5,1.5 -1.3,0.3 c -0.1,0 -0.2,0 -0.4,0.1 0,0 0,0 0,0 0.1,1.2 0.3,2.3 0.4,3.3 0,0.4 0.1,0.7 0.1,1.1 0,0.4 0,0.7 0,1.1 0,0.4 0,0.8 0.1,1.2 0.1,1 0.5,2.2 1.3,3.5 0.2,0.3 0.4,0.5 0.6,0.8 0.9,1.1 2.1,2.4 3.9,3.8 0.4,0.3 0.8,0.6 1.2,1 5.3,4.7 9.3,11.5 11.9,14.8 0.2,0.2 0.4,0.4 0.5,0.6 1.4,1.5 2.2,3.1 2.9,4.5 0.2,0.4 0.4,0.8 0.6,1.1 0.2,0.3 0.4,0.7 0.6,1 0.6,0.7 1.3,1.3 2.3,1.5 0,0 0,0 0.1,0 0.3,0.1 0.5,0.1 0.8,0.2 2.3,0.3 4.1,-0.3 5.1,-1.7 0,0 0,0 0,0 0.1,-0.1 0.1,-0.2 0.2,-0.4 0.1,-0.1 0.1,-0.2 0.1,-0.3 0,-0.1 0.1,-0.1 0.1,-0.2 0.4,-1.1 0.2,-2.5 -0.5,-4.1 0,0 0,0.1 0,0.1 -0.4,-0.8 -0.9,-1.7 -1.7,-2.6 -4.6,-5.6 -12.3,-13.6 -14.3,-15.7 2.7,1.5 15.5,9.2 23.7,14.6 1.5,1.2 2.2,4.5 3.3,5.1 5.4,2.9 10.8,-0.1 10.4,-4.6 0,0 0,0 0,0 -0.1,-2.1 -1.5,-4.6 -4.8,-6.9 -7.7,-5.3 -21.6,-11.6 -23.3,-12.3 v -0.1 c 0.2,0 0.8,0.1 1.8,0.3 2.6,0.5 8,1.6 17.4,3.9 1.6,0.4 3.2,0.8 5,1.3 1.4,0.4 2.3,3.2 4.4,4.9 0.8,0.7 1.9,1 3.1,1 2.5,0.1 5.3,-1.2 6.3,-3.5 0.5,-1.3 0.5,-2.4 0.3,-3.5 0,0 0,0.1 -0.1,0.1 -0.4,-1.6 -1.6,-3.1 -3.5,-4.4 -8.7,-8.1 -28.5,-8.7 -38.8,-9.2 -5,-0.5 -9.6,-0.7 -14.2,0.6 z"
   id="path919"
   inkscape:export-xdpi="380.79999"
   inkscape:export-ydpi="380.79999" /><path
   class="st12"
   d="m 205.1151,374.5 c 1.3,-7.6 3.1,-12.7 13.1,-35.2 0.8,-2.7 2.2,-6.1 2.7,-7 0,-0.1 0.1,-0.2 0.1,-0.3 10.2,-18.9 7.5,-14.4 14.3,-34.1 0.1,-0.3 0.2,-0.6 0.3,-0.9 0,0.3 -0.1,0.5 -0.1,0.8 7.2,-23.3 8.8,-47.5 5.4,-70.7 -3.6,3.1 -24.2,20.3 -50.8,30.6 0.9,0.5 1.6,1.3 2,2.3 0.6,1.7 0.2,3.7 -1.2,4.9 l -2.5,2.3 c -0.7,4.6 -4.2,8.4 -6.5,10.5 -2.6,2.5 -3.1,2.6 -5.1,0.1 l -2,1.7 c 0,0 -4,3.4 -4,3.4 l -0.4,0.3 c 0.5,0.3 0.7,1 0.7,2.4 0,0.6 0,1.1 -0.1,1.7 -0.6,4.6 -3.6,8.6 -5.6,10.7 -2.4,2.6 -2.7,2.6 -4.7,0 -0.4,-0.5 -0.9,-1 -1.4,-1.7 -0.7,-0.9 -1.3,-1.9 -1.9,-3.1 -2.8,2 -5.3,3.7 -7.8,5.2 -0.7,0.4 -1.5,0.7 -2.3,0.7 -1.2,0 -2.3,-0.4 -3.2,-1.3 -1.5,-1.5 -1.7,-3.8 -0.7,-5.5 1.7,-2.8 3.7,-5.7 6,-8.9 2,-2.8 4.1,-5.5 6.3,-8.2 -0.1,0 -0.8,0 -0.8,0 -1.1,0 -2.2,-0.1 -3.3,-0.1 -0.7,0.9 -1.4,1.8 -2.1,2.4 -0.4,0.4 -0.7,0.8 -1,1 -1.3,1.2 -2,1.2 -3.4,-0.2 -0.3,-0.2 -0.5,-0.5 -0.8,-0.9 -0.8,-0.8 -1.7,-1.8 -2.6,-2.9 l -4.2,-0.2 c -1.8,-0.1 -3.4,-1.3 -4,-3 -0.6,-1.7 -0.2,-3.6 1.2,-4.8 l 7.3,-6.8 c -29.5,-9.8 -53.100004,-29.3 -57.200004,-32.8 -3.5,23.6 -1.7,48.2 5.9,71.9 5.3,14.8 5.1,13.5 14.300004,33.3 0.5,1.2 2.3,5.1 2.9,7.8 9.7,21.9 11.4,26.9 12.7,34.4 1.7,9.6 1.7,10.6 1.7,10.6 l 6.8,1.8 c 2.8,-8.1 8.7,-14 15.9,-17.6 -4.6,0.4 -9.2,0.9 -13.6,1.4 8.1,-3.1 17.8,-5 27.6,-5.4 3,-0.3 6.1,-0.3 9.2,0.1 8.2,0.5 16,2 22.7,4.8 4.2,1.8 4.9,1.5 8.2,4.6 -3.2,-1.3 -5.5,-1.9 -8.7,-2.9 -2.5,-0.8 -5.2,-1.4 -7.8,-1.9 6.3,3.6 11.4,9.2 14.1,17 l 6.8,-1.8 c -0.1,0.1 -0.1,-0.9 1.6,-10.5 z m -3.4,-58.5 c 0.1,0.3 0.4,0.6 0.6,1 0.5,-0.4 1.2,-1 1.4,-1.3 2.3,-2.4 4.7,-5.4 6,-8.6 1.7,-1.2 2.9,-1.2 2.4,1.9 -0.9,5.4 -4.7,9.9 -7.3,12.4 -2.6,2.6 -2.8,2.7 -4.6,0 -1.5,-2.4 -3.7,-7 -2.4,-12.4 0.4,-1.4 0.8,-2.2 1.3,-2.4 -0.2,3.3 0.8,6.6 2.6,9.4 z m 20.3,-55.8 c -0.8,5.1 -5.1,9.3 -7.9,11.8 -2.9,2.4 -3.3,2.6 -5.2,0 -1.9,-2.3 -4.6,-6.7 -3.3,-11.8 0.4,-1.3 0.8,-2 1.3,-2.3 -0.1,3.1 1.4,6 3.3,8.4 0.1,0.1 0.8,0.9 1,1.2 0.5,-0.1 1.7,-1.2 1.9,-1.4 2.4,-2 5.1,-4.9 6.5,-7.9 1.6,-0.8 2.7,-0.7 2.4,2 z m -26.8,33.4 c 0.5,-0.3 1.4,-1.2 1.7,-1.4 2.4,-2.4 5,-5.5 6.1,-8.8 1.4,-0.8 2.4,-0.4 2.2,2.3 -0.5,5.4 -4.6,10 -7.2,12.4 -2.7,2.6 -3.1,2.6 -5,0 -1.8,-2.4 -4.5,-7 -3.5,-12.4 0.4,-1.5 0.9,-2.3 1.4,-2.6 -0.1,3.3 1.3,6.7 3.3,9.3 0.2,0.2 0.8,1 1,1.2 z m -11,36.4 c 0.3,-1.7 0.8,-2.4 1.3,-2.6 -0.1,3.3 0.9,6.7 2.7,9.5 0.1,0.3 0.3,0.6 0.5,0.9 0.4,-0.4 0.8,-0.9 1,-1.2 2.2,-2.4 4.2,-5.2 5.2,-8.4 1.5,-1.2 2.7,-1.2 2.3,1.9 -0.6,5.4 -4.2,9.9 -6.4,12.3 -2.4,2.6 -2.7,2.6 -4,-0.1 -1.4,-2.5 -3.6,-7 -2.6,-12.3 z m -14.8,-21 c 0.3,-1.8 0.9,-2.6 1.5,-2.6 0.1,3.5 1.5,6.7 3.6,9.5 0.3,0.3 0.6,0.8 0.9,1.2 0.4,-0.4 0.9,-1 1.2,-1.3 2.3,-2.4 4.4,-5.6 5.2,-9 1.2,-0.6 2,-0.3 1.9,2.3 -0.3,5.4 -3.7,9.9 -6,12.4 -2.3,2.6 -2.7,2.7 -4.5,-0.1 -1.8,-2.4 -4.5,-7 -3.8,-12.4 z m -8.7,27.8 c 0.1,0.3 0.5,0.6 0.8,1 0.4,-0.3 0.8,-0.8 0.9,-1 2,-2.7 3.7,-5.8 4.4,-9.1 1,-0.5 1.8,-0.1 1.8,2.4 -0.1,5.4 -3.1,9.9 -5,12.3 -2,2.6 -2.3,2.6 -4.1,-0.1 -1.8,-2.4 -4.5,-6.9 -4.1,-12.3 0.1,-2.2 0.8,-2.8 1.5,-2.6 0.3,3.5 1.8,6.7 3.8,9.4 z m -11.9,-21 c 1.2,-1.4 2.2,-3.1 2.9,-4.7 0.6,-1.4 1.2,-2.9 1.3,-4.5 0.9,-0.3 1.5,0.4 1.7,2.6 0.3,5.4 -2.7,10 -4.6,12.4 -2,2.6 -2.3,2.7 -4.6,0 -2.2,-2.4 -5.2,-7 -5.2,-12.4 0.1,-2.4 0.8,-2.9 1.8,-2.6 0.6,3.3 2.6,6.5 4.7,9.2 0.1,0.1 0.6,0.8 1,1.2 0.3,-0.3 0.8,-1 1,-1.2 z m -9.3,14.3 c 0.6,5.4 -1.8,9.9 -3.5,12.3 -1.8,2.6 -1.9,2.6 -4.1,0.1 -2.2,-2.4 -5.4,-6.9 -5.6,-12.3 -0.1,-2.7 0.8,-2.9 1.9,-2.2 0.9,3.2 2.7,6.3 4.9,8.8 0.1,0.1 0.5,0.6 0.9,1 0.3,-0.4 0.5,-0.8 0.6,-1 1.9,-2.8 3.2,-6 3.3,-9.3 0.9,-0.1 1.4,0.6 1.6,2.6 z m -6.7,-32 c -2,2.6 -2.3,2.6 -5,0 -2.4,-2.4 -6.1,-7 -6.4,-12.4 -0.1,-2.4 0.8,-2.9 1.9,-2.4 0.9,3.5 3.2,6.7 5.6,9.1 0.3,0.3 1,1.2 1.4,1.4 0.4,-0.3 1,-1 1.2,-1.3 2,-2.7 3.8,-5.9 4,-9.3 0.8,0 1.3,0.8 1.5,2.6 0.7,5.3 -2.2,9.9 -4.2,12.3 z m -25.8,-40.2 c 1.2,3.2 3.7,6 6.1,8.2 0.3,0.3 1.3,1.2 1.8,1.4 0.4,-0.3 1,-1 1.3,-1.3 2,-2.3 3.7,-5.2 3.8,-8.4 0.6,0.3 1.2,0.9 1.4,2.4 0.9,5.1 -2,9.3 -4.1,11.8 -2.2,2.4 -2.4,2.6 -5.4,0 -2.6,-2.3 -6.8,-6.7 -7.2,-11.8 0,-2.4 0.9,-2.8 2.3,-2.3 z m 11.3,63.8 c -2.3,-2.4 -6,-7 -6.5,-12.4 -0.4,-2.8 0.6,-3.1 2,-2.2 1,3.3 3.3,6.4 5.6,8.8 0.3,0.3 0.9,0.9 1.3,1.3 0.3,-0.4 0.6,-0.9 0.8,-1.2 1.9,-2.8 3.2,-6.1 3.2,-9.5 0.6,0.1 1.2,0.9 1.4,2.6 0.8,5.4 -1.7,10 -3.3,12.4 -1.8,2.6 -2.1,2.7 -4.5,0.2 z"
   id="path921"
   inkscape:export-xdpi="380.79999"
   inkscape:export-ydpi="380.79999" /><path
   class="st12"
   d="m 180.2151,241.1 -0.7,0.6 c -1.5,2.5 -3.3,5 -5.3,7.8 -0.9,1.2 -1.7,2.3 -2.6,3.5 5.5,-2.9 12.7,-6.9 20.1,-11.7 6.2,-4.1 11.7,-8.3 16.3,-12.4 -9,6.3 -15.8,9.5 -16.2,9.8 l -8.5,4 2.7,-6.3 c -3.3,2.7 -5.6,4.6 -5.8,4.7 z"
   id="path923"
   inkscape:export-xdpi="380.79999"
   inkscape:export-ydpi="380.79999" /><path
   class="st12"
   d="m 133.3151,235 -0.4,3.6 c -0.1,0.6 -0.3,1.2 -0.6,1.6 0.5,0.4 1.1,0.7 1.6,1.1 6.2,4.1 12.3,7.6 17.4,10.3 1.3,-1.1 2.5,-2.1 3.7,-3.1 l -3.5,-5.1 v 0.1 l -5.1,-0.8 c -0.7,0 -5.6,-1 -13.1,-7.7 z"
   id="path925"
   inkscape:export-xdpi="380.79999"
   inkscape:export-ydpi="380.79999" /><path
   class="st12"
   d="m 160.5151,291.1 c 0.4,0.5 0.7,1 1.1,1.4 0.1,0.3 0.8,1 1.2,1.3 0.5,-0.4 1.2,-1.2 1.4,-1.4 2,-2.3 4,-5 4.8,-8 -0.8,0.6 -1.5,1.2 -2.3,1.9 -2,1.6 -4.1,3.2 -6.2,4.8 z"
   id="path927"
   inkscape:export-xdpi="380.79999"
   inkscape:export-ydpi="380.79999" /><path
   class="st12"
   d="m 87.415096,224.6 c 0.5,0.4 1,0.8 1.5,1.2 30.000004,24.9 56.100004,31.3 56.100004,31.3 v 0 c 0,0 0,0 0,0 1.1,-1 2.2,-2 3.4,-3 -13.9,-7.5 -34.5,-20.4 -45.2,-35.7 -0.8,-0.7 -1.5,-1.3 -2.2,-2 -2.500004,1.8 -5.200004,3.5 -7.800004,5 -2.2,1.2 -4.1,2.3 -5.8,3.2 v 0 0 c 0,0 0,0 0,0 z"
   id="path929"
   inkscape:export-xdpi="380.79999"
   inkscape:export-ydpi="380.79999" /><path
   class="st12"
   d="m 239.0151,223.9 -0.4,-1.4 h -0.1 c -0.2,0 -0.5,-0.1 -0.7,-0.1 -1.3,-0.4 -2.8,-0.9 -4.3,-1.5 -3.1,-1.2 -6.5,-2.9 -9.4,-4.9 -11.3,18.3 -37.5,33.5 -51.6,40.7 0.6,0 1.2,0 1.8,0 l 2,0.1 h 1.4 l 4.1,0.1 c 0,0 23.8,-6.3 52.3,-28.9 1.6,-1.3 3.2,-2.7 4.9,-4.1 z"
   id="path931"
   inkscape:export-xdpi="380.79999"
   inkscape:export-ydpi="380.79999" /><path
   class="st12"
   d="m 79.415096,184.1 c 0,2.9 -0.2,6.2 -0.5,10.2 -0.1,1.2 -1.1,4.1 -1,5 0,0.4 0.1,0.5 0.5,0.1 l 11.3,-12 c 0.1,1.2 0.1,2.4 0.1,3.7 0,9.2 -2.2,20.9 -2.4,27.4 0,0 0,0 0,0 0,0 0,0.1 0,0.1 0,0 8.8,-2.7 14.100004,-6.9 3.3,3.9 6.8,7.7 10.1,11.1 2.7,2.8 5.2,5.3 7.6,7.5 0.1,0.1 0.1,0.1 0.2,0.2 0,0 0,0 0,0 4.5,4.2 8,7.1 9.4,7.7 0,0 0.1,0.1 0.1,0.1 0,0 0,0 0,0 0.3,0.1 0.5,0.1 0.5,-0.1 l 1.3,-11.1 c 9.9,11.1 16.4,12.2 16.4,12.2 l -2.4,-12 13.3,19.1 c 2.3,-1.8 4.7,-3.7 7.5,-5.7 3,-2.2 5.8,-4.1 8.4,-5.7 0.6,-0.4 1.3,-0.6 1.9,-0.6 l 4.2,-5.5 -1.3,6.3 c 0.2,0.2 0.4,0.3 0.6,0.5 0.3,0.3 0.6,0.7 0.8,1.1 3.3,-2.7 9.8,-8.4 15.7,-14.3 l -5.5,13.1 c 0,0 17.5,-8.2 33.5,-24.6 5,4.7 15.1,7.8 15.1,7.8 -0.1,-3.1 -3.5,-33.4 -3.2,-34.4 l 12,14.9 c 0,0 0,0 0,0 l 0.1,0.2 c 0,0 -0.9,-7.7 -1,-17.4 -1.3,-11.1 2,-30.2 3.1,-35.5 0.5,3.4 0.7,6.9 0.6,10.4 0,0 0.1,0 0.1,0.1 0,0 0,0.1 0,0.1 0.9,0.4 10.4,3.8 10.4,3.7 -3.1,-4.6 -10.5,-17 -10,-27.3 0,-0.8 0,-1.7 0,-2.6 0,0.8 0,1.6 0,2.4 0,-0.1 -0.1,-0.1 -0.1,-0.2 -0.3,-0.4 -0.6,-0.9 -0.9,-1.3 -3.4,-4.5 -8.4,-5.7 -13.9,2 -1.8,2.5 -4,4.8 -6.3,6.9 3.7,31.1 1.2,74.9 -17.5,61.5 -10.9,-7.8 -16.1,-25.5 -17.2,-44.2 -2.6,1.6 -6.1,2.3 -8.6,2.9 -10.2,2.4 -13.1,11.1 -19.8,17.7 l -2.9,2.7 -2.7,-2.8 c -5.8,-6.1 -12.5,-16.8 -21.6,-17.7 -2.2,-0.2 -4.5,-0.5 -6.6,-0.9 -1.3,18.1 -6.5,34.9 -17.1,42.4 -19.500004,14.1 -21.400004,-34.4 -17.000004,-65.6 -3.1,-3.2 -6,-7.1 -8.5,-11.5 -8.5,-15 -12.1,-8.1 -14.9,7.1 -0.7,3.8 -1.4,8.2 -2,12.8 l -0.1,-0.1 c 0.2,-1.2 0.5,-2.5 0.6,-3.9 -2.2,16 -9.5,19.6 -9.5,19.6 l 0.5,-0.2 c -0.3,0.2 -0.5,0.3 -0.5,0.3 l 10.1,-3.6 c 0.3,-3.2 0.6,-6.5 1.5,-10.6 0.6,19.5 3.4,24.8 3.4,37.4 z M 184.1151,204 c 0.3,-1.7 0.8,-2.4 1.3,-2.5 0,3.1 1,6.2 2.7,8.9 0.1,0.1 0.4,0.5 0.5,0.9 0.4,-0.4 0.9,-0.9 1,-1.2 2,-2.2 3.9,-4.9 5,-7.7 1.7,-1.4 3.1,-1.8 2.7,1.5 -0.6,5.4 -4.2,9.9 -6.4,12.3 -2.4,2.6 -2.7,2.7 -4.1,0 -1.6,-2.3 -3.7,-6.8 -2.7,-12.2 z m -28.8,8.9 c 0.2,-2.1 0.7,-2.7 1.5,-2.5 0.4,3.2 1.9,6.2 3.7,8.7 0.1,0.1 0.5,0.6 0.8,1 0.4,-0.4 0.8,-0.9 0.9,-1 2,-2.4 3.6,-5.3 4.3,-8.4 1.1,-0.7 2,-0.5 2,2.2 -0.1,5.4 -3.1,9.9 -5,12.3 -2,2.6 -2.3,2.6 -4.1,0 -1.8,-2.5 -4.5,-7 -4.1,-12.3 z m -26.7,-10.9 c 0.9,3.1 2.7,5.9 4.7,8.3 0.1,0.3 0.6,0.8 0.9,1 0.3,-0.4 0.5,-0.8 0.6,-1 1.7,-2.7 3.1,-5.7 3.3,-8.8 0.7,-0.1 1.3,0.6 1.5,2.6 0.6,5.4 -1.8,9.9 -3.5,12.3 -1.8,2.6 -1.9,2.6 -4.1,0 -2.2,-2.4 -5.4,-6.9 -5.6,-12.3 -0.2,-3 0.8,-3.1 2.2,-2.1 z"
   id="path933"
   inkscape:export-xdpi="380.79999"
   inkscape:export-ydpi="380.79999" /><path
   class="st12"
   d="m 121.6151,118 c -1.8,0.9 -1.9,4.5 -0.3,8.2 1.7,3.7 4.5,6 6.3,5.2 1.8,-0.8 1.9,-4.5 0.3,-8.2 -1.7,-3.6 -4.5,-5.9 -6.3,-5.2 z"
   id="path935"
   inkscape:export-xdpi="380.79999"
   inkscape:export-ydpi="380.79999" /><path
   class="st12"
   d="m 206.1151,118 c -1.8,-0.8 -4.6,1.5 -6.3,5.2 -1.7,3.7 -1.5,7.4 0.3,8.2 1.8,0.8 4.6,-1.5 6.3,-5.2 1.6,-3.7 1.5,-7.3 -0.3,-8.2 z"
   id="path937"
   inkscape:export-xdpi="380.79999"
   inkscape:export-ydpi="380.79999" /><path
   class="st12"
   d="m 90.315096,83.9 c 0.3,-0.3 0.8,-0.4 1.3,-0.3 13.300004,-4.8 30.500004,-8.3 49.000004,-10 -0.3,-3.6 -0.6,-7.4 -1,-11.2 l -3.1,-2.4 V 42.5 c -1.1,-4.6 -2.3,-8.5 -3.8,-11.1 -1.3,-2.4 -2.7,-4.8 -4,-7.2 -0.8,0.4 -1.7,0.7 -2.5,1.1 0,0 0,0 0,0 -2,1 -4,2 -5.9,3.1 3,8 9.8,26.1 8.2,27 l -0.7,0.4 -3.4,-7.9 c -3,-7.3 -7.6,-17.9 -8.8,-20.7 0,-0.1 -0.1,-0.1 -0.1,-0.1 l -0.2,-0.4 c -0.1,0 -0.1,0 -0.1,0.1 -0.3,-0.2 -0.6,-0.2 -0.9,-0.1 -0.3,0.2 -0.5,0.4 -0.6,0.7 -5.7,2.7 -8,6.2 -8,6.2 4.1,8.9 8.6,17.4 13.1,26.2 -3.1,-2.4 -10.2,-13.3 -14.1,-19.9 -11.000004,10.9 -15.900004,25.5 -18.100004,36.4 0,0 -0.1,0 -0.1,0 -0.8,3.8 -1.2,7.2 -1.5,9.8 1.6,-0.7 3.3,-1.4 5.1,-2 0.1,-0.1 0.1,-0.2 0.2,-0.2 z"
   id="path939"
   inkscape:export-xdpi="380.79999"
   inkscape:export-ydpi="380.79999" /><path
   class="st12"
   d="m 195.6151,31.4 c -0.6,1.1 -1.1,2.5 -1.6,4.1 -0.7,2.3 -1.2,4.9 -1.6,6.8 -0.6,3 -1.3,6 -2,9 0,0.2 -0.1,0.3 -0.1,0.5 v 1.2 2.7 4.4 l -1.5,1.1 c -0.4,4.1 -0.8,8.2 -1,12.3 21.4,1.9 41.3,6.5 55.2,12.5 0,-0.4 -0.1,-0.9 -0.1,-1.3 0,-0.1 0,-0.1 0,-0.2 0,-0.4 -0.1,-0.8 -0.1,-1.2 0,-0.1 0,-0.2 0,-0.3 -0.1,-0.4 -0.1,-0.9 -0.2,-1.3 0,-0.1 0,-0.2 0,-0.2 -0.1,-0.5 -0.1,-1 -0.2,-1.5 0,0 0,-0.1 0,-0.1 -0.2,-1.2 -0.4,-2.5 -0.7,-3.8 0,0 0,0 0,0 -2.2,-10.9 -7,-25.3 -17.7,-35.8 -4.2,7.9 -12.6,22.3 -15,20.9 4.8,-9.1 9.5,-18 13.8,-27.3 0,0 -2.2,-3.4 -7.8,-6.1 0,0 0,0 0,0 0.3,-0.5 0,-1.2 -0.6,-1.3 -0.5,-0.3 -1,0 -1.3,0.5 -6.7,15.4 -6,13.9 -8.7,20.3 l -3.8,8.8 c -2.8,-2 4.3,-19.6 7.6,-27.6 -2.7,-1.5 -5.4,-2.9 -8.3,-4.2 -1.6,2.3 -3,4.7 -4.3,7.1 0,-0.1 0,0 0,0 z"
   id="path941"
   inkscape:export-xdpi="380.79999"
   inkscape:export-ydpi="380.79999" /><path
   class="st12"
   d="m 189.5151,35.5 c 0.7,-2.6 1.5,-4.8 2.4,-6.3 6.9,-12.3 6.9,-12.3 6.9,-12.3 -0.8,-0.4 -1.5,-0.9 -2.3,-1.3 l -0.1,0.1 c -7.5,9.8 -9.7,13.4 -10.8,19.8 z"
   id="path943"
   inkscape:export-xdpi="380.79999"
   inkscape:export-ydpi="380.79999" /><path
   class="st12"
   d="m 138.2151,35.5 h 3.2 c -1.1,-6.3 -3.2,-10 -10.7,-19.6 -0.6,0.4 -1.2,0.6 -1.8,1 0,0 0,0 6.9,12.3 0.9,1.6 1.7,3.7 2.4,6.3 z"
   id="path945"
   inkscape:export-xdpi="380.79999"
   inkscape:export-ydpi="380.79999" /><path
   class="st12"
   d="m 143.1151,73.3 c 0.6,-0.1 1.3,-0.1 1.9,-0.1 -0.3,-2.4 -0.5,-4.8 -0.8,-7.2 l -1,-0.8 -0.8,-0.6 c 0.3,3.1 0.6,6 0.7,8.7 z"
   id="path947"
   inkscape:export-xdpi="380.79999"
   inkscape:export-ydpi="380.79999" /><path
   class="st12"
   d="m 185.3151,63.8 -2.6,1.9 c -0.2,2.5 -0.5,4.9 -0.8,7.4 0.9,0.1 1.8,0.1 2.6,0.2 0.3,-3.1 0.5,-6.3 0.8,-9.5 z"
   id="path949"
   inkscape:export-xdpi="380.79999"
   inkscape:export-ydpi="380.79999" /><path
   class="st12"
   d="m 243.2151,90.5 c -2.2,-1 -4.4,-2 -6.7,-2.9 0,0 0,0 0.1,-0.1 -0.2,-0.1 -0.3,-0.1 -0.5,-0.2 l -4.1,3.1 c -3.1,1.9 -7,3.4 -11.4,4.7 -10.9,3.2 -24.4,4.6 -33.4,5.1 -3.8,0.2 -7.1,0.2 -10.2,0.2 -4.6,-0.1 -8.8,-0.3 -14.2,-0.3 0,0 0,0 -0.1,0 l -4.6,0.4 c -0.9,0 -1.9,0.1 -2.9,0.1 -10.6,0.2 -25,-1.2 -35.1,-2.9 -0.2,0 -0.5,-0.1 -0.7,-0.1 -11.2,-1.9 -18.5,-3.8 -27.700004,-10.2 -0.1,0 -0.1,0.1 -0.2,0.1 0,0 0,0 0.1,0.1 -2.3,0.9 -4.5,1.9 -6.7,2.9 7.8,20.4 150.500004,20.4 158.300004,0 z"
   id="path951"
   inkscape:export-xdpi="380.79999"
   inkscape:export-ydpi="380.79999" /><path
   class="st12"
   d="m 162.8151,100.2 c 9.3,0.1 30.6,-2.3 40,-4 11,-1.9 20.5,-3.9 29.4,-10.4 -32.2,-11.6 -75.1,-13.9 -111.4,-6.7 -8.4,1.5 -16,3.3 -21.600004,5.3 -0.3,0.1 -0.5,0.3 -0.6,0.5 -1.2,0.5 -2.2,0.8 -3.2,1.2 C 113.0151,97.6 137.8151,97.9 158.0151,99.7 l 4.6,0.5 c 0,0 0.1,0 0.2,0 v 0 c -0.1,0 -0.1,0 0,0 z"
   id="path953"
   inkscape:export-xdpi="380.79999"
   inkscape:export-ydpi="380.79999" /><path
   class="st12"
   d="m 193.4151,150.7 c -2.9,-2.1 -8.3,-0.3 -11,-1.8 -4,-2.2 -6.3,-9 -10.1,-15.1 -6.4,-10.2 -10,-10.2 -16.3,0 -5.9,9.5 -10.6,14.7 -13.7,16.5 -1,0.6 -6.6,0.7 -8.9,1.7 2.3,0 4.7,0.6 6.2,1.1 8.2,0.9 13.2,3.1 19.1,8.4 1.2,-0.3 2.2,-2.3 5.4,-6.8 3.5,4.9 4.4,6.8 5.7,6.8 6,-4.8 12.8,-8.7 20.4,-10.1 1.1,-0.3 2.2,-0.6 3.2,-0.7 z m -36.3,-6.2 c -2,-1.5 1.4,-4.9 3.1,-7.9 2.1,-2.2 -1.1,9.3 -3.1,7.9 z m 14,0 c -2,1.4 -5.4,-10.1 -3.1,-7.9 1.7,3.1 5.2,6.4 3.1,7.9 z"
   id="path955"
   inkscape:export-xdpi="380.79999"
   inkscape:export-ydpi="380.79999" /><path
   class="st12"
   d="m 186.6151,154.4 c -6.1,2.7 -9.7,4.7 -13.7,8.2 -3.2,3.5 -5.8,7.3 -8.7,10.4 -3.1,-3.2 -5.8,-7.3 -9.2,-10.9 -5.1,-4.8 -9,-6.3 -16.4,-8.3 -2.5,0.3 -0.9,2 1.3,2.7 0.1,0 0.1,0 0.2,0 11,1 18.2,12.7 24.2,18.9 6.3,-5.8 9.9,-15.7 21.8,-18.6 0.5,-0.1 1,-0.2 1.5,-0.4 1.4,-0.7 2,-1.6 1.3,-2.2 -0.4,0 -1.2,0.1 -2.3,0.2 z"
   id="path957"
   inkscape:export-xdpi="380.79999"
   inkscape:export-ydpi="380.79999" /><path
   class="st12"
   d="m 146.1151,67.4 -0.2,-0.1 c 0,2 -0.1,4 -0.2,5.9 1,-0.1 2.1,-0.1 3.1,-0.2 3.6,-0.2 7.1,-0.3 10.7,-0.4 0.2,0 0.3,0 0.5,0 1.4,0 2.8,0 4.2,0 0.1,0 0.1,0 0.2,0 5.7,0 11.4,0.3 17,0.6 -0.1,-1.9 -0.1,-3.8 -0.3,-5.8 0,-0.2 0,-0.3 0,-0.5 l -3.8,2.8 h -28.1 z"
   id="path959"
   inkscape:export-xdpi="380.79999"
   inkscape:export-ydpi="380.79999" /><path
   class="st12"
   d="m 140.1151,22.9 c 2.8,4.6 3.9,7.9 4.4,12.6 h 0.2 2.2 6.2 l 3.2,-4 h 7 7 l 3.2,4 h 8.9 c 0.8,-6.5 2.6,-10.4 8.5,-18.8 0.4,-0.2 0.8,-0.5 1.1,-1 0.2,-0.3 0.3,-0.6 0.3,-0.9 0.2,-0.3 0.5,-0.7 0.7,-1 -0.4,-0.2 -0.8,-0.4 -1.3,-0.6 -0.2,-0.2 -0.3,-0.3 -0.5,-0.5 -1.6,-0.6 -3.2,-1.2 -4.9,-1.8 -9.1,-3.3 -18.4,-4.6 -27.7,-3.9 -4.1,0.2 -8.2,0.8 -12.2,1.9 -1.6,0.5 -10.2,2.2 -11.3,4.5 -0.4,0.2 -0.8,0.3 -1.1,0.5 1.2,1.6 2.2,3 3.1,4.3 0.9,1.7 2,3.3 3,4.7 z"
   id="path961"
   inkscape:export-xdpi="380.79999"
   inkscape:export-ydpi="380.79999" /><path
   class="st12"
   d="m 176.3151,273.5 12.2,-11.2 c 0.3,-0.3 0.4,-0.7 0.3,-1.1 -0.1,-0.4 -0.5,-0.6 -0.9,-0.7 l -13.8,-0.4 c -1.6,0 -3.3,-0.1 -4.9,-0.1 0,0 0,0 0,0 -0.8,0 -1.6,0 -2.4,0 -1.5,0 -2.9,0 -4.4,0 -0.3,0 -0.6,0 -0.9,0 1.5,-1.8 2.8,-3.3 4,-4.8 1.5,-1.9 3.1,-3.9 4.9,-6.4 l 0.4,-0.6 c 0.2,-0.3 0.4,-0.5 0.6,-0.8 2.1,-2.9 3.9,-5.6 5.5,-8.2 0.2,-0.4 0.2,-0.9 -0.1,-1.2 -0.3,-0.3 -0.8,-0.4 -1.2,-0.1 -2.6,1.6 -5.3,3.4 -8.2,5.5 -2,1.5 -4.1,3 -6.3,4.7 l -0.6,0.4 c -0.3,0.2 -0.6,0.5 -0.9,0.7 -2.3,1.8 -4.8,3.9 -7.5,6.2 -2.7,2.3 -5.1,4.4 -7.2,6.4 l -7.9,7.3 c -0.3,0.3 -0.4,0.7 -0.3,1.1 0.1,0.4 0.5,0.6 0.9,0.7 l 11.2,0.6 c 2.1,0.1 4.1,0.2 6.2,0.2 h 0.7 c 1.5,0.1 3,0.1 4.5,0.1 0.8,0 1.5,0 2.3,0 0.2,0 0.5,0 0.7,0 l -2.5,2.9 c -0.7,0.9 -1.4,1.7 -2.1,2.6 -2.2,2.7 -4.3,5.4 -6.3,8.2 -2.3,3.1 -4.2,5.9 -5.9,8.7 -0.2,0.4 -0.2,0.9 0.1,1.2 0.2,0.2 0.4,0.3 0.7,0.3 0.2,0 0.4,0 0.5,-0.1 2.7,-1.7 5.6,-3.6 8.7,-5.9 2.7,-2 5.5,-4.1 8.2,-6.3 0.9,-0.7 1.7,-1.4 2.6,-2.1 l 5.3,-4.5 z m -10.4,6.3 c -0.8,0.7 -1.7,1.4 -2.6,2.1 -2.7,2.1 -5.4,4.2 -8.1,6.2 -1.6,1.2 -3.2,2.3 -4.7,3.3 1,-1.5 2.1,-3.1 3.3,-4.7 2,-2.7 4.1,-5.4 6.2,-8.1 0.7,-0.9 1.4,-1.7 2.1,-2.5 l 3.9,-4.6 c 0.3,-0.3 0.3,-0.7 0.1,-1.1 -0.2,-0.4 -0.5,-0.6 -0.9,-0.6 0,0 0,0 0,0 -0.9,0 -1.9,0 -2.8,0 -0.8,0 -1.5,0 -2.3,0 -1.5,0 -3,0 -4.5,-0.1 h -0.7 c -2,-0.1 -4.1,-0.1 -6.1,-0.2 l -8.8,-0.5 6.2,-5.7 c 2.1,-2 4.5,-4.1 7.2,-6.4 2.7,-2.3 5.1,-4.3 7.4,-6.2 0.3,-0.2 0.6,-0.5 0.9,-0.7 l 0.6,-0.5 c 2.2,-1.7 4.2,-3.2 6.2,-4.7 1.5,-1.1 2.8,-2 4.2,-2.9 -0.9,1.3 -1.9,2.7 -2.9,4.2 -0.2,0.3 -0.4,0.5 -0.6,0.8 l -0.4,0.6 c -1.8,2.5 -3.4,4.5 -4.9,6.3 -1.5,1.9 -3.2,4 -5.3,6.4 -0.3,0.3 -0.3,0.7 -0.1,1.1 0.2,0.4 0.5,0.6 0.9,0.6 0,0 0,0 0,0 h 0.9 c 0.7,0 1.5,0 2.2,0 1.5,0 2.9,0 4.4,0 0.8,0 1.6,0 2.4,0 1.6,0 3.2,0.1 4.9,0.1 l 11.3,0.3 -10.4,9.5 -3.8,3.4 -3.9,3.3 z"
   id="path963"
   inkscape:export-xdpi="380.79999"
   inkscape:export-ydpi="380.79999" /><path
   class="st12"
   d="m 173.1151,44.8 h 10.9 v -1.3 h -12 c 0.1,0.1 0.2,0.1 0.2,0.2 0.3,0.4 0.6,0.7 0.9,1.1 z"
   id="path965"
   inkscape:export-xdpi="380.79999"
   inkscape:export-ydpi="380.79999" /><path
   class="st12"
   d="m 154.6151,43.5 h -9.5 v 1.3 h 8.3 c 0.3,-0.4 0.6,-0.7 0.9,-1.1 0.2,0 0.3,-0.1 0.3,-0.2 z"
   id="path967"
   inkscape:export-xdpi="380.79999"
   inkscape:export-ydpi="380.79999" /><path
   class="st12"
   d="m 174.8151,47.7 h 9.2 v -1.3 h -9.8 c 0.1,0.2 0.2,0.4 0.3,0.6 0.1,0.2 0.2,0.4 0.3,0.7 z"
   id="path969"
   inkscape:export-xdpi="380.79999"
   inkscape:export-ydpi="380.79999" /><path
   class="st12"
   d="m 152.4151,46.4 h -7.3 v 1.3 h 6.6 c 0.1,-0.2 0.2,-0.5 0.3,-0.7 0.2,-0.2 0.3,-0.4 0.4,-0.6 z"
   id="path971"
   inkscape:export-xdpi="380.79999"
   inkscape:export-ydpi="380.79999" /><path
   class="st12"
   d="m 175.8151,52.6 c 0,0.2 0,0.4 0,0.6 v 0.1 h 8.2 V 52 h -8.2 v 0.1 c 0,0.2 0,0.4 0,0.5 z"
   id="path973"
   inkscape:export-xdpi="380.79999"
   inkscape:export-ydpi="380.79999" /><path
   class="st12"
   d="m 150.7151,52.6 c 0,-0.2 0,-0.3 0,-0.5 V 52 h -5.6 v 1.3 h 5.6 v -0.1 c 0,-0.1 0,-0.4 0,-0.6 z"
   id="path975"
   inkscape:export-xdpi="380.79999"
   inkscape:export-ydpi="380.79999" /><path
   class="st12"
   d="m 145.2151,56.2 h 6.1 c -0.1,-0.3 -0.2,-0.7 -0.3,-1 0,-0.1 0,-0.2 -0.1,-0.3 h -5.8 v 1.3 z"
   id="path977"
   inkscape:export-xdpi="380.79999"
   inkscape:export-ydpi="380.79999" /><path
   class="st12"
   d="m 175.3151,56.2 h 8.6 v -1.3 h -8.3 c 0,0.1 0,0.2 -0.1,0.3 0,0.3 -0.1,0.6 -0.2,1 z"
   id="path979"
   inkscape:export-xdpi="380.79999"
   inkscape:export-ydpi="380.79999" /><path
   class="st12"
   d="m 151.2151,49.2 h -6.1 v 1.3 h 5.8 c 0,-0.1 0,-0.2 0,-0.3 0.1,-0.3 0.2,-0.7 0.3,-1 z"
   id="path981"
   inkscape:export-xdpi="380.79999"
   inkscape:export-ydpi="380.79999" /><path
   class="st12"
   d="m 175.6151,50.5 h 8.3 v -1.3 h -8.6 c 0.1,0.3 0.2,0.7 0.3,1 0,0.1 0,0.2 0,0.3 z"
   id="path983"
   inkscape:export-xdpi="380.79999"
   inkscape:export-ydpi="380.79999" /><path
   class="st12"
   d="m 153.6151,60.6 h -2.8 v 1.3 h 4 c -0.1,-0.1 -0.2,-0.1 -0.2,-0.2 -0.4,-0.4 -0.7,-0.8 -1,-1.1 z"
   id="path985"
   inkscape:export-xdpi="380.79999"
   inkscape:export-ydpi="380.79999" /><path
   class="st12"
   d="m 171.8151,61.8 h 4 v -1.3 h -2.8 c -0.3,0.4 -0.6,0.7 -1,1.1 -0.1,0.1 -0.2,0.2 -0.2,0.2 z"
   id="path987"
   inkscape:export-xdpi="380.79999"
   inkscape:export-ydpi="380.79999" /><path
   class="st12"
   d="m 151.8151,57.7 h -4.8 V 59 h 5.5 c -0.1,-0.2 -0.2,-0.4 -0.3,-0.6 -0.2,-0.2 -0.3,-0.4 -0.4,-0.7 z"
   id="path989"
   inkscape:export-xdpi="380.79999"
   inkscape:export-ydpi="380.79999" /><path
   class="st12"
   d="m 174.1151,59 h 5.5 v -1.3 h -4.8 c -0.1,0.2 -0.2,0.5 -0.3,0.7 -0.2,0.2 -0.3,0.4 -0.4,0.6 z"
   id="path991"
   inkscape:export-xdpi="380.79999"
   inkscape:export-ydpi="380.79999" /><path
   class="st12"
   d="m 153.8151,53.2 c 0,0.5 0.1,1 0.2,1.3 0.1,0.3 0.2,0.7 0.3,1.1 0.2,0.5 0.4,0.9 0.6,1.3 0.2,0.4 0.4,0.7 0.7,1.1 0.3,0.5 0.7,0.9 1.2,1.3 0.4,0.4 0.9,0.8 1.4,1.1 3.1,2.1 7.4,2.1 10.5,0 0.5,-0.3 0.9,-0.7 1.4,-1.1 0.4,-0.4 0.8,-0.9 1.2,-1.3 0.3,-0.4 0.5,-0.7 0.7,-1.1 0.2,-0.4 0.4,-0.9 0.6,-1.3 0.1,-0.4 0.2,-0.8 0.3,-1.1 0.1,-0.4 0.1,-0.8 0.2,-1.3 V 53 c 0,-0.1 0,-0.3 0,-0.4 0,-0.1 0,-0.2 0,-0.3 v -0.2 c 0,-0.5 -0.1,-0.9 -0.2,-1.3 -0.1,-0.4 -0.2,-0.7 -0.3,-1.1 -0.1,-0.4 -0.3,-0.9 -0.6,-1.3 -0.2,-0.4 -0.4,-0.8 -0.6,-1.1 -0.3,-0.5 -0.7,-0.9 -1.1,-1.3 -0.4,-0.4 -0.8,-0.8 -1.3,-1.1 -1.6,-1.1 -3.5,-1.7 -5.4,-1.7 -1.9,0 -3.8,0.6 -5.4,1.7 -0.5,0.3 -0.9,0.7 -1.3,1.1 -0.4,0.4 -0.8,0.9 -1.1,1.3 -0.2,0.3 -0.4,0.7 -0.6,1.1 -0.2,0.5 -0.4,0.9 -0.6,1.3 -0.1,0.4 -0.2,0.7 -0.3,1.1 -0.1,0.4 -0.1,0.8 -0.2,1.3 v 0.2 c 0,0.1 0,0.2 0,0.3 0,0.1 0,0.3 0,0.4 z m 9.5,-8.6 c 4.5,0 8.1,3.6 8.1,8.1 0,4.5 -3.6,8.1 -8.1,8.1 -4.5,0 -8.1,-3.6 -8.1,-8.1 0,-4.5 3.6,-8.1 8.1,-8.1 z"
   id="path993"
   inkscape:export-xdpi="380.79999"
   inkscape:export-ydpi="380.79999" /><circle
   class="st12"
   cx="163.31509"
   cy="52.600002"
   r="6.5999999"
   id="circle995"
   inkscape:export-xdpi="380.79999"
   inkscape:export-ydpi="380.79999" /><path
   class="st12"
   d="m 231.8151,106.3 c -3.1,-3.2 -6.8,-4.5 -10.8,-4.5 -6.7,0 -13.7,3.7 -18.2,8.7 -4.1,4.6 -7.2,10.9 -8.5,17.4 h -0.1 v 0 c -0.5,-13.6 -18.1,-16.8 -31.7,-17.1 -16.1,-0.2 -27.3,12.4 -28.1,19.5 h -0.1 -0.1 c -0.9,-7.6 -4.2,-15 -9,-20.2 -4.4,-5 -11.5,-8.7 -18.2,-8.7 -4,0 -7.800004,1.3 -10.800004,4.5 -3.1,3.3 -4.2,6.7 -4.2,10.4 -0.1,2.8 0.4,5.8 0.9,9 1.9,-8.7 4,-17.8 12.200004,-17.8 0.4,0 0.8,0 1.2,0 -5.3,6.9 -6.900004,14.1 -6.3,20.6 0,0 0,0 0,0.1 -0.300004,-0.1 -0.500004,-0.1 -0.800004,0 -1,0.1 -1.7,1.2 -1.4,2 3.200004,11.1 10.900004,24.8 24.700004,21 1.6,-0.5 3,-1.1 4.1,-1.9 0.1,0 0.1,-0.1 0.1,-0.1 1.7,-0.6 3.3,-1.6 4.3,-3.1 0.1,0 1.3,-2.6 2.1,-4.2 h 0.1 v 0 l -0.1,0.2 c 0.1,1.9 0.2,3.9 0.2,5.8 1.3,-0.3 2.6,-0.5 3.7,-0.7 0.9,-0.1 2.6,-0.3 3.6,-0.5 4.1,-2.7 9.6,-11 12,-15 2.6,-4 6.3,-9.5 11.5,-9.5 5.2,0 9,5.5 11.4,9.6 1.8,2.9 3.3,6.1 5,9.1 0.8,1.3 2.2,3.8 3.6,4.5 0.6,0.3 3.1,0.1 3.8,0.1 2.5,0 5,0.3 7.1,1.5 0,-1 0.1,-2.1 0.1,-3.1 v 0 h 0.6 c 0.6,1.3 1.2,2.4 1.3,2.4 1.4,1.9 3.6,3.2 6,3.7 0.1,0 0.2,0 0.2,0.1 0.8,0.4 1.7,0.8 2.8,1.1 13.8,3.8 21.5,-9.9 24.7,-21 0.3,-0.9 -0.4,-1.9 -1.4,-2 -0.4,-0.1 -0.9,0 -1.2,0.1 0.6,-6.4 -1,-13.7 -6.3,-20.5 0.4,0 0.8,0 1,0 8.3,0 10.3,9.1 12.2,17.8 1.4,-7.3 2.3,-13.4 -3.2,-19.3 z m -100.5,33.3 c -0.8,1.9 -1.8,4.2 -2.2,5 -1.7,2.1 -4.7,3.3 -8.5,3.3 -2.1,0 -4,-0.4 -5.6,-1 -5.6,-2.3 -10.4,-8.2 -12.2,-15 -2.1,-7.7 -0.3,-15.9 5.1,-22.9 l 2.6,-3.3 -4.1,-0.4 c -0.5,0 -0.9,-0.1 -1.4,-0.1 -3.5,0 -6.000004,1.3 -7.900004,3.2 0.3,-0.3 0.5,-0.6 0.8,-0.9 2.400004,-2.4 5.500004,-3.7 9.100004,-3.7 5.6,0 12.2,3.2 16.4,7.9 6.6,7.4 9.9,18.9 7.9,27.9 z m 93.7,-7.7 c -1.8,6.8 -6.7,12.7 -12.2,15.1 -1.7,0.6 -3.6,1 -5.6,1 -2.6,0 -4.8,-0.5 -6.5,-1.5 -0.8,-0.7 -1.6,-1.6 -2.4,-2.6 -0.5,-1 -1.3,-2.7 -1.9,-4.2 -1.8,-8.8 1.4,-20.4 8.1,-27.8 4.2,-4.7 10.8,-7.9 16.4,-7.9 3.7,0 6.8,1.3 9.1,3.7 0.3,0.3 0.5,0.6 0.8,0.9 -1.9,-1.9 -4.5,-3.2 -7.9,-3.2 -0.4,0 -0.9,0 -1.3,0 l -4.2,0.4 2.6,3.3 c 5.2,7 7,15.1 5,22.8 z"
   id="path997"
   inkscape:export-xdpi="380.79999"
   inkscape:export-ydpi="380.79999" />
</svg>
