<?xml version="1.0" encoding="UTF-8" standalone="no"?>
<!-- Generator: Adobe Illustrator 22.0.1, SVG Export Plug-In . SVG Version: 6.00 Build 0)  -->

<svg
   version="1.1"
   id="Layer_1"
   x="0px"
   y="0px"
   viewBox="0 0 112.3 114.2"
   xml:space="preserve"
   sodipodi:docname="powsysbl-icon-color.svg"
   width="112.3"
   height="114.2"
   inkscape:export-filename="/Users/johnmertic/Code/lfenergy-artwork/projects/powsysbl/icon/color/powsysbl-icon-color.png"
   inkscape:export-xdpi="377.10001"
   inkscape:export-ydpi="377.10001"
   inkscape:version="1.1.2 (b8e25be8, 2022-02-05)"
   xmlns:inkscape="http://www.inkscape.org/namespaces/inkscape"
   xmlns:sodipodi="http://sodipodi.sourceforge.net/DTD/sodipodi-0.dtd"
   xmlns="http://www.w3.org/2000/svg"
   xmlns:svg="http://www.w3.org/2000/svg"><defs
   id="defs3662" /><sodipodi:namedview
   id="namedview3660"
   pagecolor="#ffffff"
   bordercolor="#666666"
   borderopacity="1.0"
   inkscape:pageshadow="2"
   inkscape:pageopacity="0.0"
   inkscape:pagecheckerboard="0"
   showgrid="false"
   inkscape:zoom="1.754102"
   inkscape:cx="271.36392"
   inkscape:cy="62.140057"
   inkscape:window-width="1460"
   inkscape:window-height="480"
   inkscape:window-x="58"
   inkscape:window-y="25"
   inkscape:window-maximized="0"
   inkscape:current-layer="Layer_1" />
<style
   type="text/css"
   id="style3575">
	.st0{fill:#FFB259;}
	.st1{fill:#6F2277;}
	.st2{fill:#FD495C;}
	.st3{fill:#009ADE;}
	.st4{fill:#003764;}
</style>
<g
   id="g3619">
	<polygon
   class="st0"
   points="78.6,45.7 56.2,57.1 33.7,45.7 56.2,34.3 "
   id="polygon3577" />
	<polygon
   class="st1"
   points="56.2,79.9 33.7,68.5 33.7,45.7 56.2,57.1 "
   id="polygon3579" />
	<polygon
   class="st2"
   points="56.2,79.9 56.2,57.1 78.6,45.7 78.6,68.5 "
   id="polygon3581" />
	<polygon
   class="st0"
   points="112.3,62.8 89.9,74.2 67.4,62.8 89.9,51.4 "
   id="polygon3583" />
	<polygon
   class="st1"
   points="89.9,97.1 67.4,85.6 67.4,62.8 89.9,74.2 "
   id="polygon3585" />
	<polygon
   class="st2"
   points="89.9,97.1 89.9,74.2 112.3,62.8 112.3,85.6 "
   id="polygon3587" />
	<polygon
   class="st0"
   points="44.9,62.8 22.5,74.2 0,62.8 22.5,51.4 "
   id="polygon3589" />
	<polygon
   class="st1"
   points="22.5,97.1 0,85.6 0,62.8 22.5,74.2 "
   id="polygon3591" />
	<polygon
   class="st2"
   points="22.5,97.1 22.5,74.2 44.9,62.8 44.9,85.6 "
   id="polygon3593" />
	<polygon
   class="st0"
   points="78.6,79.9 56.2,91.3 33.7,79.9 56.2,68.5 "
   id="polygon3595" />
	<polygon
   class="st1"
   points="56.2,114.2 33.7,102.8 33.7,79.9 56.2,91.3 "
   id="polygon3597" />
	<polygon
   class="st2"
   points="56.2,114.2 56.2,91.3 78.6,79.9 78.6,102.8 "
   id="polygon3599" />
	<polygon
   class="st0"
   points="78.6,11.4 56.2,22.8 33.7,11.4 56.2,0 "
   id="polygon3601" />
	<polygon
   class="st1"
   points="56.2,45.7 33.7,34.3 33.7,11.4 56.2,22.8 "
   id="polygon3603" />
	<polygon
   class="st2"
   points="56.2,45.7 56.2,22.8 78.6,11.4 78.6,34.3 "
   id="polygon3605" />
	<polygon
   class="st0"
   points="112.3,28.5 89.9,40 67.4,28.5 89.9,17.1 "
   id="polygon3607" />
	<polygon
   class="st1"
   points="89.9,62.8 67.4,51.4 67.4,28.5 89.9,40 "
   id="polygon3609" />
	<polygon
   class="st2"
   points="89.9,62.8 89.9,40 112.3,28.5 112.3,51.4 "
   id="polygon3611" />
	<polygon
   class="st0"
   points="44.9,28.5 22.5,40 0,28.5 22.5,17.1 "
   id="polygon3613" />
	<polygon
   class="st1"
   points="22.5,62.8 0,51.4 0,28.5 22.5,40 "
   id="polygon3615" />
	<polygon
   class="st2"
   points="22.5,62.8 22.5,40 44.9,28.5 44.9,51.4 "
   id="polygon3617" />
</g>








</svg>
