<?xml version="1.0" encoding="utf-8"?>
<!-- Generator: Adobe Illustrator 25.2.2, SVG Export Plug-In . SVG Version: 6.00 Build 0)  -->
<svg version="1.1" id="Layer_1" xmlns="http://www.w3.org/2000/svg" xmlns:xlink="http://www.w3.org/1999/xlink" x="0px" y="0px"
	 viewBox="0 0 356 172" style="enable-background:new 0 0 356 172;" xml:space="preserve">
<style type="text/css">
	.st0{fill:none;stroke:#003E69;stroke-width:1.0129;stroke-miterlimit:10;}
	.st1{fill:#1D98D5;}
	.st2{fill:#183A64;}
</style>
<g>
	<g>
		<rect x="5.1" y="97.4" width="345.7" height="1"/>
	</g>
	<g>
		<g>
			<path d="M19.6,128.9h10v12.3c-2.6,1.1-5.6,1.7-8.8,1.7c-4.3,0-7.5-1.2-9.8-3.6c-2.3-2.4-3.4-5.8-3.4-10.2c0-2.8,0.6-5.2,1.7-7.3
				c1.1-2.1,2.7-3.8,4.8-4.9s4.5-1.7,7.2-1.7c2.9,0,5.6,0.5,7.9,1.6l-0.8,1.7c-2.3-1.1-4.8-1.6-7.3-1.6c-3.6,0-6.4,1.1-8.5,3.3
				c-2.1,2.2-3.1,5.2-3.1,8.9c0,4.1,1,7.1,3,9.2s4.9,3.1,8.8,3.1c2.5,0,4.6-0.4,6.3-1.1v-9.5h-8V128.9z"/>
		</g>
		<g>
			<path d="M52.7,142.6H37.9v-27h14.8v1.7H39.8v10.2h12.2v1.7H39.8v11.6h12.9V142.6z"/>
		</g>
		<g>
			<path d="M80,142.6h-1.9l-16-24h-0.1c0.1,2.9,0.2,5,0.2,6.5v17.5h-1.8v-27h1.9l16,24h0.1c-0.1-2.2-0.2-4.3-0.2-6.3v-17.6H80V142.6
				z"/>
		</g>
		<g>
			<path d="M103.9,142.6H89.1v-27h14.8v1.7H91v10.2h12.2v1.7H91v11.6h12.9V142.6z"/>
		</g>
		<g>
			<path d="M113.4,130.8v11.8h-1.9v-27h6.4c3.4,0,5.8,0.6,7.4,1.9c1.6,1.2,2.4,3.1,2.4,5.6c0,1.8-0.5,3.3-1.4,4.6
				c-1,1.2-2.4,2.1-4.4,2.7l7.3,12.3h-2.3l-7-11.8H113.4z M113.4,129.2h5.2c2.3,0,4.1-0.5,5.3-1.5c1.3-1,1.9-2.5,1.9-4.5
				c0-2.1-0.6-3.6-1.8-4.5s-3.2-1.4-6-1.4h-4.5V129.2z"/>
		</g>
		<g>
			<path d="M148.6,133h-11l-3.8,9.5h-2.1l10.9-27.2h1.2l10.7,27.2h-2.1L148.6,133z M138.3,131.3h9.7l-3.7-9.7
				c-0.3-0.8-0.7-1.8-1.1-3.2c-0.3,1.2-0.7,2.3-1.1,3.2L138.3,131.3z"/>
		</g>
		<g>
			<path d="M159.8,142.6v-27h1.9v25.3h12.9v1.8H159.8z"/>
		</g>
		<g>
			<path d="M204,142.6l-10.1-25h-0.1c0.1,1.5,0.1,3.1,0.1,4.7v20.3h-1.8v-27h2.9l9.6,23.8h0.1l9.6-23.8h2.8v27h-1.9v-20.5
				c0-1.4,0.1-2.9,0.2-4.4h-0.1l-10.1,24.9H204z"/>
		</g>
		<g>
			<path d="M241.1,142.6h-14.8v-27h14.8v1.7h-12.9v10.2h12.2v1.7h-12.2v11.6h12.9V142.6z"/>
		</g>
		<g>
			<path d="M260.7,142.6l-10.1-25h-0.1c0.1,1.5,0.1,3.1,0.1,4.7v20.3h-1.8v-27h2.9l9.6,23.8h0.1l9.6-23.8h2.8v27h-1.9v-20.5
				c0-1.4,0.1-2.9,0.2-4.4H272l-10.1,24.9H260.7z"/>
		</g>
		<g>
			<path d="M283,115.5h7.4c3.3,0,5.8,0.6,7.4,1.7c1.6,1.1,2.3,2.8,2.3,5.1c0,1.6-0.5,2.9-1.4,3.9c-1,1-2.4,1.7-4.2,2v0.1
				c2.2,0.3,3.7,1,4.8,2c1,1,1.5,2.5,1.5,4.4c0,2.5-0.8,4.4-2.5,5.8c-1.7,1.3-4,2-7,2H283V115.5z M284.9,127.6h6
				c2.5,0,4.4-0.4,5.5-1.3c1.2-0.8,1.7-2.2,1.7-4c0-1.8-0.7-3.1-2-3.9c-1.3-0.8-3.2-1.2-5.8-1.2h-5.5V127.6z M284.9,129.2v11.7h6.4
				c5,0,7.5-2,7.5-6.1c0-3.7-2.6-5.6-7.9-5.6H284.9z"/>
		</g>
		<g>
			<path d="M323,142.6h-14.8v-27H323v1.7h-12.9v10.2h12.2v1.7h-12.2v11.6H323V142.6z"/>
		</g>
		<g>
			<path d="M332.6,130.8v11.8h-1.9v-27h6.4c3.4,0,5.8,0.6,7.4,1.9c1.6,1.2,2.4,3.1,2.4,5.6c0,1.8-0.5,3.3-1.4,4.6
				c-1,1.2-2.4,2.1-4.4,2.7l7.3,12.3h-2.3l-7-11.8H332.6z M332.6,129.2h5.2c2.3,0,4.1-0.5,5.3-1.5c1.3-1,1.9-2.5,1.9-4.5
				c0-2.1-0.6-3.6-1.8-4.5s-3.2-1.4-6-1.4h-4.5V129.2z"/>
		</g>
	</g>
	<g>
		<g>
			<polygon points="13.6,69.3 13.6,52.4 5.1,52.4 5.1,77.8 30.5,77.8 30.5,69.3 			"/>
		</g>
		<g>
			<polygon points="47.5,35.4 5.1,35.4 5.1,48.1 13.6,48.1 13.6,44 39,44 39,69.3 34.8,69.3 34.8,77.8 47.5,77.8 			"/>
		</g>
		<g>
			<polygon points="58.7,36 71.6,36 71.6,67.1 90.1,67.1 90.1,77.8 58.7,77.8 			"/>
		</g>
		<g>
			<polygon points="95.7,36 128,36 128,46.7 108.5,46.7 108.5,51.9 125.2,51.9 125.2,61.9 108.5,61.9 108.5,77.8 95.6,77.8 95.6,36 
							"/>
		</g>
		<g>
			<polygon points="161.3,78 137.9,78 137.9,35.8 161.3,35.8 161.3,38.6 140.9,38.6 140.9,54.5 160.2,54.5 160.2,57.3 140.9,57.3 
				140.9,75.4 161.3,75.4 			"/>
		</g>
		<g>
			<path d="M202.1,78h-3l-25.3-37.5h-0.2c0.2,4.4,0.3,7.8,0.3,10.1V78H171V35.8h3l25.3,37.4h0.2c-0.2-3.5-0.3-6.8-0.3-9.9V35.8h2.9
				L202.1,78L202.1,78z"/>
		</g>
		<g>
			<polygon points="237.7,78 214.3,78 214.3,35.8 237.7,35.8 237.7,38.6 217.3,38.6 217.3,54.5 236.5,54.5 236.5,57.3 217.3,57.3 
				217.3,75.4 237.7,75.4 			"/>
		</g>
		<g>
			<path d="M250.3,59.7v18.4h-3V35.8h10.2c5.3,0,9.2,1,11.8,2.9c2.6,1.9,3.8,4.8,3.8,8.7c0,2.8-0.7,5.2-2.3,7.2
				c-1.5,1.9-3.8,3.4-6.9,4.2L275.6,78H272l-11.1-18.4L250.3,59.7L250.3,59.7z M250.3,57.1h8.1c3.6,0,6.4-0.8,8.4-2.4
				c2-1.6,3-3.9,3-7c0-3.2-1-5.5-2.9-7c-1.9-1.5-5.1-2.2-9.6-2.2h-7L250.3,57.1L250.3,57.1z"/>
		</g>
		<g>
			<path d="M299.4,56.3h15.4v18.8c-4,1.7-8.6,2.6-13.7,2.6c-6.6,0-11.7-1.8-15.2-5.5c-3.5-3.7-5.3-8.9-5.3-15.6
				c0-4.2,0.9-7.9,2.6-11.2c1.8-3.2,4.3-5.8,7.5-7.5s7-2.7,11.2-2.7c4.6,0,8.7,0.9,12.3,2.5l-1.2,2.6c-3.6-1.7-7.4-2.5-11.3-2.5
				c-5.5,0-9.9,1.7-13.1,5s-4.8,7.9-4.8,13.6c0,6.2,1.5,10.9,4.6,14c3.1,3.1,7.6,4.7,13.6,4.7c3.9,0,7.1-0.5,9.8-1.6V59h-12.5
				L299.4,56.3C299.4,56.3,299.4,56.3,299.4,56.3z"/>
		</g>
		<g>
			<polygon points="335.2,58.8 347.7,35.8 350.9,35.8 336.7,61.6 336.7,77.8 333.6,77.8 333.6,61.8 319.4,35.8 322.8,35.8 			"/>
		</g>
	</g>
</g>
</svg>
