<?xml version="1.0" encoding="utf-8"?>
<!-- Generator: Adobe Illustrator 26.0.1, SVG Export Plug-In . SVG Version: 6.00 Build 0)  -->
<svg version="1.1" id="Layer_1" xmlns="http://www.w3.org/2000/svg" xmlns:xlink="http://www.w3.org/1999/xlink" x="0px" y="0px"
	 viewBox="0 0 1000.0001831 293.5350037" style="enable-background:new 0 0 1000.0001831 293.5350037;" xml:space="preserve">
<style type="text/css">
	.st0{opacity:0.8;fill:#FFFFFF;}
	.st1{fill:#FFFFFF;}
	.st2{opacity:0.8;}
	.st3{fill:#254C84;}
	.st4{fill:#0C2351;}
	.st5{fill:#BAF419;}
	.st6{fill:#00CE7C;}
	.st7{fill:none;}
	.st8{fill:#2F96D0;}
	.st9{fill:#1B3964;}
	.st10{fill:none;stroke:#2F96D0;stroke-width:0;stroke-linecap:round;stroke-linejoin:round;}
</style>
<g>
	<polygon class="st0" points="229.9322662,124.5230026 221.1637421,146.7673798 292.3886719,146.7673798 146.1943665,0.5731357 
		146.1943665,124.5230026 	"/>
	<polygon class="st0" points="116.9741898,29.7931919 0,146.7673798 70.2879868,146.7673798 	"/>
	<polygon class="st1" points="174.8191528,264.336853 292.3886719,146.7673798 221.1637421,146.7673798 	"/>
	<polygon class="st1" points="146.1943665,166.3898163 62.4563942,166.3898163 70.2879868,146.7673798 0,146.7673798 
		146.1943665,292.961853 146.1943665,167.3587646 	"/>
	<g>
		<polygon class="st1" points="385.657135,64.1691818 359.9719543,64.1691818 359.9719543,38.2544022 346.8996582,38.2544022 
			346.8996582,77.0118027 385.657135,77.0118027 		"/>
		<polygon class="st1" points="359.7425232,25.1822414 398.7296448,25.1822414 398.7296448,64.1693039 392.3078003,64.1693039 
			392.3078003,77.0119247 411.5722656,77.0119247 411.5722656,12.3396215 346.8999023,12.3396215 346.8999023,31.6040325 
			359.7425232,31.6040325 		"/>
		<polygon class="st1" points="476.7032471,60.5003471 448.4949951,60.5003471 448.4949951,13.02777 428.7723694,13.02777 
			428.7723694,76.7825012 476.7032471,76.7825012 		"/>
		<polygon class="st1" points="504.9112244,52.4730797 530.3677979,52.4730797 530.3677979,37.3371925 504.9112244,37.3371925 
			504.9112244,29.3108883 534.7249146,29.3108883 534.7249146,13.02777 485.1885681,13.02777 485.1885681,76.7825012 
			504.9112244,76.7825012 		"/>
		<polygon class="st1" points="585.4077759,72.8841248 554.2182617,72.8841248 554.2182617,45.3638611 583.5726318,45.3638611 
			583.5726318,41.2353363 554.2182617,41.2353363 554.2182617,16.9260311 585.4077759,16.9260311 585.4077759,12.7984676 
			549.6315918,12.7984676 549.6315918,77.2412262 585.4077759,77.2412262 		"/>
		<path class="st1" d="M604.4425659,35.502533c0-3.4404984,0-8.4856319-0.458252-15.3656673h0.458252l38.7574463,57.1043625
			h4.586792V12.7984676h-4.3571167v41.9684753c0,4.8153496,0.2286377,9.8613281,0.458252,15.1360016h-0.2296143
			l-38.7574463-57.1044769h-4.586731v64.4427567h4.128418V35.502533z"/>
		<polygon class="st1" points="701.9096069,72.8841248 670.7200928,72.8841248 670.7200928,45.3638611 700.0744629,45.3638611 
			700.0744629,41.2353363 670.7200928,41.2353363 670.7200928,16.9260311 701.9096069,16.9260311 701.9096069,12.7984676 
			666.1333618,12.7984676 666.1333618,77.2412262 701.9096069,77.2412262 		"/>
		<path class="st1" d="M759.7021484,77.2411041l-17.6589355-29.3543129
			c4.8153687-1.3758163,8.2558594-3.4405022,10.5492554-6.4219131c2.293396-2.9811707,3.4395142-6.6503716,3.4395142-11.0074787
			c0-5.9635468-1.8340454-10.3205338-5.7329102-13.3018246c-3.8988037-2.9812927-9.8613281-4.3571072-17.8885498-4.3571072
			h-15.5942993v64.4426346h4.586792V49.2626038h16.0534668l16.7414551,27.9785004H759.7021484z M733.7873535,45.3637428h-12.3843384
			V16.6973305h10.7788696c6.8800659,0,11.6964111,1.1461506,14.6776733,3.4395351
			c2.9812622,2.2932663,4.3571167,5.9624653,4.3571167,10.7788982c0,4.8163147-1.6054688,8.2558479-4.586731,10.7788963
			C743.6486816,44.216629,739.2905884,45.3637428,733.7873535,45.3637428z"/>
		<path class="st1" d="M798.9177246,76.7825012c7.7976074,0,14.6776123-1.3758163,20.869751-3.8988647V44.2171097h-23.3917847
			v3.6691971h19.03479v22.2457047c-4.12854,1.6053543-8.9448242,2.5230484-14.9073486,2.5230484
			c-9.1734619,0-16.0535278-2.2935028-20.6402588-7.1098175c-4.8153076-4.8163147-7.1087036-11.9250488-7.1087036-21.3281326
			c0-8.4855156,2.5220337-15.3655491,7.3383789-20.6402264s11.4667358-7.7976046,19.9523315-7.7976046
			c5.9625244,0,11.6954346,1.3768969,17.199646,3.8987417l1.835022-3.8987417
			c-5.5042114-2.521966-11.9260254-3.8977804-18.8050537-3.8977804c-6.421814,0-12.1547241,1.3758144-17.2006836,4.1274433
			c-5.0450439,2.7516289-8.7141724,6.4217911-11.4668579,11.4668045
			c-2.5219116,4.8163147-3.8987427,10.5492363-3.8987427,16.9710274c0,10.3195686,2.7526245,18.1172943,8.0272217,23.8500938
			C781.0300903,74.0308762,788.8276978,76.7825012,798.9177246,76.7825012z"/>
		<polygon class="st1" points="848.4542236,76.7825012 853.0408936,76.7825012 853.0408936,52.0149536 874.5986938,12.7982264 
			869.7823486,12.7982264 850.7476196,47.8864288 831.9424438,12.7982264 826.6677246,12.7982264 848.4542236,52.4731979 		"/>
		<polygon class="st0" points="373.3025818,202.2251129 432.5928345,202.2251129 432.5928345,179.9912109 373.3025818,179.9912109 
			373.3025818,134.1339722 436.2984924,134.1339722 436.2984924,111.9000626 346.8999023,111.9000626 346.8999023,277.2654724 
			438.1513062,277.2654724 438.1513062,255.0315704 373.3025818,255.0315704 		"/>
		<polygon class="st0" points="499.752594,243.9146118 499.2893982,243.9146118 471.2654724,111.9000626 443.2415771,111.9000626 
			482.1507874,277.2654724 515.7332153,277.2654724 557.4216309,111.9000626 529.3977661,111.9000626 		"/>
		<path class="st1" d="M606.5189209,149.4198761c-39.1408691,0-46.0889893,34.7401581-46.0889893,67.3963776
			c0,57.6689758,25.2446899,63.6907349,45.6257324,63.6907349c27.0975342,0,43.7729492-17.3702087,43.7729492-44.9300385
			h-23.6235352c0,7.4103394-2.0844116,27.7922821-19.9177856,27.7922821c-18.7598267,0-20.8442383-21.3073273-20.8442383-37.9828796
			v-7.1795959h65.0803223V205.004425C650.5233765,170.2640228,641.2592773,149.4198761,606.5189209,149.4198761z
			 M625.5103149,201.0672913h-40.0672607v-2.547821c0-16.2121429,4.8636475-31.9611053,20.8442383-31.9611053
			c14.1277466,0,19.2230225,12.0433044,19.2230225,27.7932281V201.0672913z"/>
		<path class="st1" d="M696.6103516,172.1166077h-0.4632568v-19.4546204h-25.0130615v124.603241h25.0130615v-74.5762177
			c0-23.1602631,13.6646118-28.2554474,25.0130615-28.2554474c4.1688843,0,8.5693359,0.9253998,10.4221802,1.3888092V150.345993
			c-1.6212769-0.4622192-3.2424316-0.9263611-6.0216675-0.9263611
			C711.4328613,149.419632,702.1688232,158.2214355,696.6103516,172.1166077z"/>
		<path class="st1" d="M785.3102417,149.4198761c-39.1398315,0-46.0888672,34.7401581-46.0888672,67.3963776
			c0,57.6689758,25.2456055,63.6907349,45.6266479,63.6907349c27.0974731,0,43.7728882-17.3702087,43.7728882-44.9300385
			h-23.6234741c0,7.4103394-2.0844116,27.7922821-19.9187622,27.7922821c-18.7598267,0-20.8432617-21.3073273-20.8432617-37.9828796
			v-7.1795959h65.0802612V205.004425C829.3156738,170.2640228,820.0516357,149.4198761,785.3102417,149.4198761z
			 M804.3026733,201.0672913h-40.0672607v-2.547821c0-16.2121429,4.8626709-31.9611053,20.8432617-31.9611053
			c14.1287231,0,19.223999,12.0433044,19.223999,27.7932281V201.0672913z"/>
		<path class="st1" d="M902.9628906,206.6259003l-15.9805298-5.5583649
			c-13.201416-4.6320038-17.6027832-8.5693665-17.6027832-18.2967834c0-11.5800171,7.8745117-16.2121429,17.833374-16.2121429
			c12.9707642,0,16.4448242,9.2632904,16.4448242,19.2231445v3.2424774h23.6234131v-5.5585938
			c0-15.5172577-7.1796875-34.0464783-38.9102783-34.0464783c-25.7078857,0-42.6138306,10.8852386-42.6138306,34.278183
			c0,19.9177856,7.8734131,29.4135132,26.6333008,35.8984528l20.382019,7.1795959
			c8.8008423,3.0107727,13.6635742,9.032547,13.6635742,18.2965546c0,11.3484344-6.7165527,18.2977448-20.380127,18.2977448
			c-14.3602295,0-19.4555664-7.8756714-19.4555664-22.2348633v-3.9373627h-22.2328491v4.6320038
			c0,24.0878296,9.4957275,38.6777649,40.9936523,38.6777649c25.2437134,0,44.6983643-11.3474731,44.6983643-37.9828796
			C930.0594482,222.8382721,921.4911499,212.8791351,902.9628906,206.6259003z"/>
		<path class="st1" d="M1000.0001831,171.1912079v-18.5292206h-20.380127v-35.4351578h-25.0131226v35.4351578h-17.1384888
			v18.5292206h17.1384888v77.3554077c0,25.4761505,8.3377686,30.108139,25.2446899,30.108139
			c7.8735352,0,14.8226318-0.6948853,20.1485596-2.0844116v-18.5282593
			c-2.3150635,0.4634094-5.3259277,0.6948853-9.0316162,0.6948853c-8.5692139,0-11.3485107-3.4748993-11.3485107-13.2023315
			v-74.3434296H1000.0001831z"/>
	</g>
</g>
</svg>
