<?xml version="1.0" encoding="UTF-8" standalone="no"?>
<svg
   xmlns:dc="http://purl.org/dc/elements/1.1/"
   xmlns:cc="http://creativecommons.org/ns#"
   xmlns:rdf="http://www.w3.org/1999/02/22-rdf-syntax-ns#"
   xmlns:svg="http://www.w3.org/2000/svg"
   xmlns="http://www.w3.org/2000/svg"
   xmlns:sodipodi="http://sodipodi.sourceforge.net/DTD/sodipodi-0.dtd"
   xmlns:inkscape="http://www.inkscape.org/namespaces/inkscape"
   version="1.1"
   x="0px"
   y="0px"
   viewBox="0 0 325.5675 437.29999"
   xml:space="preserve"
   id="svg834"
   sodipodi:docname="fledgepower-icon-black.svg"
   width="325.5675"
   height="437.29999"
   inkscape:version="1.0.2 (e86c8708, 2021-01-15)"><metadata
   id="metadata840"><rdf:RDF><cc:Work
       rdf:about=""><dc:format>image/svg+xml</dc:format><dc:type
         rdf:resource="http://purl.org/dc/dcmitype/StillImage" /><dc:title></dc:title></cc:Work></rdf:RDF></metadata><defs
   id="defs838" /><sodipodi:namedview
   pagecolor="#ffffff"
   bordercolor="#666666"
   borderopacity="1"
   objecttolerance="10"
   gridtolerance="10"
   guidetolerance="10"
   inkscape:pageopacity="0"
   inkscape:pageshadow="2"
   inkscape:window-width="1587"
   inkscape:window-height="846"
   id="namedview836"
   showgrid="false"
   inkscape:zoom="1.096"
   inkscape:cx="498.4151"
   inkscape:cy="218.7"
   inkscape:window-x="197"
   inkscape:window-y="358"
   inkscape:window-maximized="0"
   inkscape:current-layer="Layer_1" />
<style
   type="text/css"
   id="style742">
	.st0{fill:none;}
	.st1{fill:#050505;}
	.st2{fill:#ED4024;}
	.st3{fill:#BA1C0C;}
	.st4{fill:#515151;}
	.st5{fill:#666666;}
	.st6{fill:#60605E;}
	.st7{fill:#9B9B9B;}
	.st8{fill:#FFCC04;}
	.st9{fill:#EF8B22;}
	.st10{fill:#CECDCC;}
	.st11{fill:#EFEFEF;}
	.st12{fill:#FFFFFF;}
	.st13{fill:#DB6414;}
	.st14{fill:#009ADE;}
	.st15{fill:#003764;}
	.st16{opacity:0.8;fill:#050505;}
	.st17{opacity:0.8;fill:#FFFFFF;}
</style>
<g
   id="Layer_2"
   transform="translate(-1.5849036,-6.3)">
</g>
<g
   id="Layer_1"
   transform="translate(-1.5849036,-6.3)">
	
	
	
	
	
	
	
	
	
	
	
	
	
	
	
	
	
	
	
	
	
	<path
   class="st1"
   d="m 304.3,208.9 c -1.4,-1.4 -2.6,-2.5 -3.8,-3.5 -0.6,-0.5 -1.2,-1 -1.7,-1.5 l -0.6,-0.5 c -17.9,-14.8 -35.5,-18.9 -43.2,-20 0.1,-4.1 0.5,-8 1.1,-11.5 3.2,1.1 7.5,2.5 11.4,2.5 0.1,0 0.3,0 0.4,0 l 5.3,-0.1 -3.2,-4.3 c -0.5,-0.6 -1,-1.3 -1.4,-2 -0.7,-1.6 -5.7,-12.9 -7.5,-17.4 -1,-4.6 -1.6,-7.9 -1.8,-9.8 v -0.2 c 0,-0.2 0,-0.4 0,-0.6 0.3,-7.7 -0.8,-17.4 -3.2,-26.5 -1.3,-5.2 -2.9,-10 -4.8,-14.2 0.1,-0.5 0.2,-1 0.2,-1.5 0,-0.2 0,-0.3 0,-0.5 v -0.2 c 0,-0.4 0,-0.8 0,-1.1 -0.2,-5.9 -1.2,-12.9 -2.7,-19.1 -3.6,-14.4 -9.7,-26.1 -18.3,-34.8 0.7,-2.1 0.4,-4.3 -0.8,-6 -2.9,-4.5 -8.7,-7.9 -12.8,-9.5 -0.8,-0.3 -1.6,-0.5 -2.4,-0.5 -1.5,0 -2.9,0.5 -4,1.3 -1.2,-0.6 -2.4,-1.2 -3.6,-1.8 0.5,-1.3 0.6,-2.7 0.2,-4.2 -0.4,-1.9 -1.6,-3.5 -3.3,-4.3 C 191.5,9.9 178.6,6.3 165.6,6.3 c -13.1,0 -26,3.6 -38.4,10.9 -1.7,1.1 -2.7,2.5 -3.1,4.3 -0.3,1.4 -0.2,2.8 0.2,4.2 -1.2,0.6 -2.5,1.2 -3.7,1.9 -1.1,-0.9 -2.5,-1.4 -4,-1.4 -0.8,0 -1.6,0.2 -2.3,0.4 -4.1,1.6 -9.9,5 -12.8,9.5 l -0.1,0.1 c -1.1,1.8 -1.3,3.9 -0.7,5.9 -8.5,8.8 -14.8,20.8 -18.1,34.9 -0.9,3.9 -2.4,11.5 -2.7,18.6 -0.1,0.4 -0.1,0.7 -0.1,1.1 -5.4,10.1 -10.9,26.8 -10.4,36.8 0.3,9.9 -0.8,17.6 -3.4,22.9 -0.8,1.6 -2.1,3.7 -3.3,5.6 l 1.4,1 0.2,0.4 0.2,0.3 -2,-1.4 c -2.2,3.2 -3.5,4.4 -3.8,4.6 0,0 0.1,0 0.1,0 l 0.8,5.2 c 0.3,0 0.7,0 1.1,0 1.7,0 4.1,-0.1 6.6,-0.3 l 4.4,-0.5 c 0.6,4.7 1.3,8.7 2.3,12.2 -7.3,1 -25.3,5 -43.3,20 l -0.6,0.5 c -0.6,0.5 -1.2,0.9 -1.7,1.5 -1.2,1.1 -2.4,2.2 -3.8,3.5 -28.9,28 -22.8,56 -21.8,59.6 0.1,0.4 0.2,0.9 0.3,1.3 0.8,3.8 2.1,7.6 3.8,11.3 0.2,0.4 0.4,0.8 0.6,1.3 l 0.2,0.4 c 1.8,3.6 4.1,7.2 6.8,10.7 7.3,9.6 17.9,18.8 31.4,27.5 3.2,21 10.8,42.8 22.5,64.8 0.9,1.8 2.6,3.1 4.6,3.6 0.6,0.2 1.2,0.2 1.8,0.2 1.4,0 2.8,-0.4 3.9,-1.2 0.1,-0.1 12.4,-7.8 36,-12 0.3,1.1 0.6,2.2 0.8,3.3 l 0.4,2.2 c 0.2,1.4 0.4,2.7 0.6,4.1 0.2,1.3 0.4,2.6 0.6,4 0,0 0.1,0.3 0.1,0.4 v 0 c -0.1,0.7 -0.1,1.3 -0.2,2 -2.1,0.1 -4,0.2 -6,0.4 -6.8,0.4 -12.5,1 -18,1.7 -6,0.8 -13,1.8 -19.4,4 -5.1,1.8 -12,4.9 -13.8,11.6 -0.6,2.5 -0.4,5.2 0.6,7.8 1.4,3.7 5.1,6.5 9.3,7.4 -0.4,2.6 0,5.3 1.4,7.6 2.3,3.9 6.3,6.2 11.1,6.2 2.6,0 5.3,-0.7 7.6,-2 0.4,-0.2 0.8,-0.5 1.2,-0.7 0.4,1 0.9,1.9 1.6,2.7 2.1,2.7 5.4,4.2 9.1,4.2 1.2,0 2.4,-0.2 3.6,-0.5 1.3,-0.3 2.6,-1 3.9,-1.8 l 0.1,-0.1 c 2,-1.6 3,-3.5 3.9,-5.2 0.6,-1.1 1.1,-2.1 1.8,-2.9 l 0.1,-0.1 c 0.3,-0.3 0.6,-0.8 1.4,-2 1.6,-2.3 4.3,-6.2 7.1,-9.6 3.7,-4.6 7.3,-7.7 9.1,-9.1 1.1,-0.9 1.5,-1.3 1.8,-2 0.9,-2 1.1,-5.2 1.1,-10.2 0,-0.7 0,-1.4 0,-2.1 0.7,-0.7 1.2,-1.5 1.5,-2.4 1,-2.9 2.6,-5.5 4.6,-7.8 0.4,0.3 0.8,0.7 1.2,1 5.3,4.6 11.5,9.1 18.5,13.6 l 0.1,0.1 c 4.8,3 9.8,5.8 13.8,5.8 0.7,0 1.3,-0.1 1.9,-0.2 2.1,-0.5 4.6,-1.8 6,-5.1 3.7,1.6 7.2,3 10.5,4.1 0.2,1.5 0.4,2.5 0.8,3.4 0.3,0.7 0.7,1.1 1.8,2 1.7,1.5 5.4,4.6 9.1,9.2 2.8,3.3 5.4,7.2 7,9.5 0.8,1.2 1.1,1.7 1.4,2 l 0.1,0.1 c 0.7,0.8 1.3,1.8 1.8,2.9 0.9,1.7 1.9,3.6 3.9,5.2 l 0.1,0.1 c 1.2,0.9 2.6,1.5 3.9,1.8 1.2,0.3 2.4,0.5 3.6,0.5 3.7,0 7,-1.5 9.2,-4.2 0.6,-0.8 1.1,-1.7 1.5,-2.7 0.3,0.3 0.7,0.5 1.1,0.7 2.4,1.3 5,2 7.6,2 4.8,0 8.9,-2.3 11.1,-6.2 1.4,-2.3 1.8,-5 1.4,-7.7 4.2,-0.9 7.8,-3.7 9.3,-7.4 1,-2.6 1.2,-5.3 0.6,-7.8 -1.7,-6.7 -8.7,-9.8 -13.8,-11.6 -5.3,-1.8 -11,-2.8 -16.3,-3.6 0,-0.1 0.1,-0.2 0.1,-0.3 0.6,-1.6 0.7,-3.4 0.2,-5.1 8.9,1.4 17,2.1 24.4,2.1 46.3,0 50.6,-26.7 50.8,-27.9 0.4,-2.5 -0.6,-5 -2.6,-6.6 -0.1,-0.1 -12.1,-10.1 -22.1,-31.3 -1.1,-2.3 -2.1,-4.7 -3.1,-7.2 11.8,-8 21.1,-16.4 27.7,-25.1 2.7,-3.5 4.9,-7.1 6.8,-10.8 l 0.2,-0.4 c 0.2,-0.4 0.4,-0.8 0.6,-1.3 1.7,-3.7 3,-7.5 3.8,-11.3 0.1,-0.4 0.2,-0.9 0.3,-1.3 0.9,-3.6 7,-31.6 -21.7,-59.7 z m -29.7,24.5 c 20,22.7 20.5,13.3 11.9,-6.6 -3.2,-7.5 -0.8,-7.7 4.1,-3.6 2.6,2.1 6.8,5.5 9,6.4 0.4,-3 -0.6,-7.5 -2.2,-12 -0.6,-1.8 -1.4,-3.7 -2.2,-5.4 -0.5,-1.1 -1,-2.3 -1.6,-3.3 0.7,0.6 1.5,1.2 2.2,1.8 1.2,1.1 2.4,2.2 3.5,3.3 0.5,1.2 1,2.5 1.4,3.9 0.5,1.5 0.9,3 1.3,4.5 1,4.2 1.3,8.1 -0.2,9.6 -2.5,2.6 -9.3,-3 -13.1,-6.2 3.6,9.3 9,26.2 -1,22 -6.2,-2.6 -12.5,-11.8 -15.4,-17 z m -4.9,68.5 -1.8,2.4 c -16.5,21.6 -8,19.3 8.1,7.3 5.2,-3.9 4.6,-0.4 2.5,3.5 l -0.4,0.7 c -1.5,1 -3.1,1.9 -4.6,2.8 0.8,-1.6 1.8,-3.4 2.5,-4.6 -7.2,4.9 -20.6,12.9 -18.3,4 1.3,-5.4 8,-12.6 12,-16.1 z m -7.1,-30.4 c 1.1,14.1 -8.2,16.8 -23.1,38.2 0,0 0.4,-1.1 1,-3 2.1,-6.5 3.7,-13 4.9,-19.7 1.8,-9.1 3.2,-19.9 2.7,-30.1 0,0 13.5,0.5 14.5,14.6 z M 209.4,34.8 c -3.2,8 -10.3,25.6 -7.6,27.6 l 3.8,-8.8 c 2.6,-6.5 2,-4.9 8.7,-20.3 0.3,-0.5 0.8,-0.8 1.3,-0.5 0.6,0.1 0.9,0.8 0.6,1.3 0,0 0,0 0,0 5.6,2.7 7.8,6.1 7.8,6.1 -4.3,9.3 -9,18.2 -13.8,27.3 2.4,1.4 10.8,-13 15,-20.9 10.7,10.6 15.5,25 17.7,35.8 0,0 0,0 0,0 0.3,1.3 0.5,2.6 0.7,3.8 0,0 0,0.1 0,0.1 0.1,0.5 0.2,1 0.2,1.5 0,0.1 0,0.2 0,0.2 0.1,0.4 0.1,0.9 0.2,1.3 0,0.1 0,0.2 0,0.3 0.1,0.4 0.1,0.8 0.1,1.2 0,0.1 0,0.1 0,0.2 0.1,0.5 0.1,0.9 0.1,1.3 -13.8,-6.1 -33.7,-10.6 -55.2,-12.5 0.3,-4.1 0.6,-8.3 1,-12.3 l 1.5,-1.1 V 62 59.3 58.1 c 0,-0.2 0.1,-0.3 0.1,-0.5 0.7,-3 1.5,-6.1 2,-9 0.4,-1.9 0.9,-4.5 1.6,-6.8 0.5,-1.5 1,-2.9 1.6,-4.1 0,0 0,0 0,-0.1 1.3,-2.3 2.6,-4.7 4,-7 3.2,1.2 6,2.6 8.6,4.2 z m -26.7,38.4 c 0,0.2 0,0.3 0,0.5 0.1,1.9 0.1,3.8 0.3,5.8 -5.6,-0.4 -11.2,-0.6 -17,-0.6 -0.1,0 -0.1,0 -0.2,0 -1.4,0 -2.8,0 -4.2,0 -0.2,0 -0.3,0 -0.5,0 -3.6,0.1 -7.2,0.2 -10.7,0.4 -1,0.1 -2.1,0.1 -3.1,0.2 0.1,-2 0.2,-4 0.2,-5.9 l 0.2,0.1 3.2,2.4 H 179 Z m -36.8,-0.9 c 0.2,2.4 0.5,4.8 0.8,7.2 -0.6,0 -1.3,0.1 -1.9,0.1 -0.2,-2.7 -0.4,-5.7 -0.7,-8.7 l 0.8,0.6 z m 27.6,-22.5 h 12 v 1.3 h -10.9 c 0.2,0.2 0.4,0.5 0.5,0.7 0.2,0.3 0.4,0.6 0.5,0.9 h 9.8 V 54 h -9.2 c 0.2,0.4 0.3,0.7 0.4,1.1 0,0.2 0.1,0.3 0.1,0.5 h 8.6 v 1.3 H 177 c 0.1,0.5 0.1,0.9 0.2,1.5 v 0.1 h 8.2 v 1.3 h -8.2 v 0.1 c 0,0.5 -0.1,1 -0.2,1.5 h 8.3 v 1.3 h -8.6 c 0,0.2 -0.1,0.3 -0.1,0.5 -0.1,0.4 -0.3,0.7 -0.4,1.1 h 4.8 v 1.3 h -5.5 c -0.2,0.3 -0.4,0.6 -0.6,0.9 -0.2,0.2 -0.4,0.5 -0.5,0.7 h 2.8 v 1.3 h -4 c -0.5,0.5 -1,0.9 -1.6,1.3 -2.1,1.4 -4.4,2.1 -6.9,2.1 -2.5,0 -4.8,-0.7 -6.9,-2.1 -0.6,-0.4 -1.1,-0.8 -1.6,-1.3 h -4 v -1.3 h 2.8 c -0.2,-0.2 -0.4,-0.5 -0.5,-0.7 -0.2,-0.3 -0.4,-0.6 -0.6,-0.9 h -5.5 V 64 h 4.8 c -0.2,-0.4 -0.3,-0.7 -0.4,-1.1 -0.1,-0.2 -0.1,-0.3 -0.1,-0.5 h -6.1 v -1.3 h 5.8 c -0.1,-0.5 -0.1,-0.9 -0.2,-1.5 v -0.1 h -5.6 v -1.3 h 5.6 v -0.1 c 0,-0.5 0.1,-1 0.2,-1.5 h -5.8 v -1.3 h 6.1 c 0,-0.2 0.1,-0.3 0.1,-0.5 0.1,-0.4 0.3,-0.7 0.4,-1.1 h -6.6 v -1.3 h 7.3 c 0.2,-0.3 0.3,-0.6 0.5,-0.9 0.2,-0.2 0.4,-0.5 0.5,-0.7 h -8.3 v -1.3 h 9.5 c 0.5,-0.4 1,-0.9 1.5,-1.2 2.1,-1.5 4.6,-2.2 7.1,-2.2 2.5,0 5,0.8 7.1,2.2 0.7,0.7 1.2,1.1 1.7,1.5 z m 10.8,22.2 2.6,-1.9 c -0.3,3.3 -0.5,6.5 -0.7,9.5 -0.9,-0.1 -1.8,-0.1 -2.6,-0.2 0.2,-2.5 0.5,-4.9 0.7,-7.4 z m 13.8,-50.1 c 0.8,0.4 1.5,0.9 2.3,1.3 0,0 0,0 -6.9,12.3 -0.9,1.6 -1.7,3.7 -2.4,6.3 h -4 c 1.1,-6.4 3.3,-10 10.8,-19.8 z m -61.3,-2 c 1.1,-2.3 9.7,-4 11.3,-4.5 4,-1.1 8.1,-1.7 12.2,-1.9 9.3,-0.7 18.6,0.5 27.7,3.9 1.7,0.5 3.3,1.1 4.9,1.8 0.2,0.1 0.4,0.3 0.5,0.5 0.4,0.2 0.8,0.4 1.3,0.6 -0.3,0.3 -0.5,0.7 -0.7,1 0,0.3 -0.1,0.6 -0.3,0.9 -0.3,0.5 -0.6,0.8 -1.1,1 -5.9,8.3 -7.7,12.2 -8.5,18.8 h -8.9 L 172,38 h -7 -7 l -3.2,4 h -6.2 -2.2 -0.2 c -0.6,-4.7 -1.7,-8 -4.4,-12.6 -1,-1.5 -2,-3.1 -2.9,-4.5 -0.9,-1.3 -1.9,-2.7 -3.1,-4.3 0.2,-0.4 0.6,-0.5 1,-0.7 z m -4.5,2.3 c 7.5,9.7 9.7,13.3 10.7,19.6 h -3.2 c -0.7,-2.6 -1.5,-4.8 -2.4,-6.3 -6.9,-12.3 -6.9,-12.3 -6.9,-12.3 0.7,-0.4 1.2,-0.6 1.8,-1 z M 88.1,82.6 c 0.1,0 0.1,0 0,0 2.2,-10.9 7.1,-25.5 18,-36.2 3.9,6.6 11,17.5 14.1,19.9 -4.5,-8.7 -9,-17.3 -13.1,-26.2 0,0 2.3,-3.5 8,-6.2 0.1,-0.3 0.3,-0.6 0.6,-0.7 0.3,-0.2 0.6,-0.1 0.9,0.1 0.1,0 0.1,0 0.1,-0.1 l 0.2,0.4 c 0,0 0.1,0.1 0.1,0.1 1.2,2.8 5.8,13.3 8.8,20.7 l 3.4,7.9 0.7,-0.4 c 1.6,-1 -5.2,-19 -8.2,-27 1.9,-1.1 3.9,-2.2 5.9,-3.1 0,0 0,0 0,0 0.8,-0.4 1.7,-0.8 2.5,-1.1 1.3,2.4 2.7,4.8 4,7.2 1.5,2.6 2.7,6.5 3.8,11.1 v 17.5 l 3.1,2.4 c 0.4,3.8 0.8,7.6 1,11.2 -18.4,1.7 -35.7,5.2 -49,10 -0.5,-0.1 -1,0 -1.3,0.3 0,0.1 -0.1,0.1 -0.1,0.2 -1.8,0.7 -3.4,1.3 -5.1,2 0.4,-2.8 0.9,-6.2 1.6,-10 z m 5.1,11.3 c 0,0 0,0 0,0 0,-0.1 0.1,-0.1 0.2,-0.1 9.1,6.4 16.5,8.2 27.7,10.2 0.2,0 0.4,0.1 0.7,0.1 10.1,1.7 24.4,3.1 35.1,2.9 1,0 2,0 2.9,-0.1 l 4.6,-0.4 c 0,0 -0.1,0 -0.1,0 l -4.6,-0.5 c -20.1,-1.8 -45,-2.2 -62.6,-13.6 1,-0.4 2.1,-0.7 3.1,-1.1 0.1,-0.2 0.4,-0.4 0.6,-0.5 5.6,-2 13.2,-3.9 21.6,-5.3 36.3,-7.1 79.2,-4.9 111.4,6.7 -8.9,6.5 -18.4,8.5 -29.4,10.4 -9.4,1.7 -30.7,4.1 -40,4 5.4,0.1 9.6,0.3 14.2,0.3 3.1,0 6.4,0 10.2,-0.2 9,-0.5 22.5,-2 33.4,-5.1 4.3,-1.3 8.3,-2.8 11.4,-4.7 l 4.1,-3.1 c 0.2,0.1 0.3,0.1 0.5,0.2 0,0 0,0 -0.1,0.1 2.3,0.9 4.5,1.9 6.7,2.9 -7.8,20.3 -150.5,20.3 -158.3,0 2.2,-1.2 4.4,-2.2 6.7,-3.1 z m 136.6,40.7 c 0.4,-0.2 0.8,-0.2 1.2,-0.1 1,0.1 1.7,1.2 1.4,2 -3.2,11.1 -10.9,24.8 -24.7,21 -1.1,-0.3 -2,-0.7 -2.8,-1.1 -0.1,0 -0.2,0 -0.2,-0.1 -2.4,-0.5 -4.6,-1.8 -6,-3.7 -0.1,0 -0.6,-1.2 -1.3,-2.4 h -0.6 v 0 c 0,1 -0.1,2.1 -0.1,3.1 -2,-1.2 -4.5,-1.5 -7.1,-1.5 -0.8,0 -3.2,0.1 -3.8,-0.1 -1.4,-0.6 -2.8,-3.2 -3.6,-4.5 -1.7,-2.9 -3.2,-6.1 -5,-9.1 -2.4,-4.1 -6.1,-9.6 -11.4,-9.6 -5.2,0 -9,5.5 -11.5,9.5 -2.4,4 -7.9,12.3 -12,15 -1,0.3 -2.7,0.4 -3.6,0.5 -1.1,0.2 -2.5,0.4 -3.7,0.7 0,-2 -0.1,-3.9 -0.2,-5.8 l 0.1,-0.2 v 0 h -0.1 c -0.8,1.7 -1.9,4.2 -2.1,4.2 -1,1.5 -2.6,2.5 -4.3,3.1 0,0 -0.1,0.1 -0.1,0.1 -1.1,0.8 -2.4,1.4 -4.1,1.9 -13.8,3.8 -21.5,-9.9 -24.7,-21 -0.3,-0.9 0.4,-1.9 1.4,-2 0.3,-0.1 0.6,-0.1 0.8,0 0,0 0,0 0,-0.1 -0.6,-6.5 1,-13.7 6.3,-20.6 -0.4,0 -0.8,0 -1.2,0 -8.2,0 -10.3,9.1 -12.2,17.8 -0.5,-3.2 -1,-6.2 -0.9,-9 0,-3.7 1.2,-7 4.2,-10.4 2.9,-3.2 6.8,-4.5 10.8,-4.5 6.7,0 13.8,3.7 18.2,8.7 4.7,5.3 8.1,12.7 9,20.2 h 0.1 0.1 c 0.9,-7.2 12,-19.7 28.1,-19.5 13.7,0.2 31.2,3.5 31.7,17.1 v 0 h 0.1 c 1.3,-6.5 4.4,-12.8 8.5,-17.4 4.5,-5 11.5,-8.7 18.2,-8.7 4,0 7.7,1.3 10.8,4.5 5.5,5.9 4.6,12 3.3,19.3 -1.9,-8.7 -3.8,-17.8 -12.2,-17.8 -0.3,0 -0.6,0 -1,0 5.1,6.8 6.8,14.1 6.2,20.5 z m -58.4,33.2 c -1.3,0 -2.2,-1.9 -5.7,-6.8 -3.2,4.5 -4.2,6.5 -5.4,6.8 -5.9,-5.3 -10.9,-7.6 -19.1,-8.4 -1.5,-0.5 -3.9,-1 -6.2,-1.1 2.3,-0.9 7.9,-1.1 8.9,-1.7 3.1,-1.8 7.8,-7 13.7,-16.5 6.3,-10.2 9.9,-10.2 16.3,0 3.8,6.1 6.1,12.9 10.1,15.1 2.7,1.5 8.1,-0.3 11,1.8 -1,0.1 -2.1,0.4 -3.3,0.7 -7.6,1.4 -14.3,5.2 -20.3,10.1 z m 17.7,-4.9 c -0.5,0.1 -1,0.2 -1.5,0.4 -11.9,2.8 -15.5,12.8 -21.8,18.6 -6,-6.3 -13.2,-17.9 -24.2,-18.9 -0.1,0 -0.1,0 -0.2,0 -2.2,-0.7 -3.8,-2.4 -1.3,-2.7 7.4,2 11.3,3.5 16.4,8.3 3.4,3.6 6.1,7.7 9.2,10.9 2.9,-3.1 5.5,-7 8.7,-10.4 4,-3.5 7.6,-5.6 13.7,-8.2 1.1,-0.2 2,-0.3 2.2,0 0.8,0.3 0.2,1.2 -1.2,2 z m -123,4 c 0,0 0.2,-0.1 0.5,-0.3 l -0.5,0.2 c 0,0 7.3,-3.6 9.5,-19.6 -0.2,1.4 -0.4,2.7 -0.6,3.9 l 0.1,0.1 c 0.7,-4.7 1.3,-9 2,-12.8 2.8,-15.3 6.4,-22.2 14.9,-7.1 2.5,4.4 5.4,8.2 8.5,11.5 -4.4,31.1 -2.5,79.6 17,65.6 10.5,-7.6 15.7,-24.3 17.1,-42.4 2.1,0.5 4.5,0.7 6.6,0.9 9.1,0.9 15.9,11.5 21.6,17.7 l 2.7,2.8 2.9,-2.7 c 6.8,-6.5 9.6,-15.2 19.8,-17.7 2.4,-0.5 6,-1.3 8.6,-2.9 1.1,18.7 6.3,36.4 17.2,44.2 18.6,13.4 21.2,-30.4 17.5,-61.5 2.3,-2.1 4.5,-4.3 6.3,-6.9 5.5,-7.7 10.4,-6.5 13.9,-2 0.3,0.4 0.6,0.8 0.9,1.3 0,0.1 0.1,0.1 0.1,0.2 0,-0.8 0,-1.6 0,-2.4 0,0.9 0,1.8 0,2.6 -0.5,10.2 6.9,22.7 10,27.3 0,0.1 -9.5,-3.3 -10.4,-3.7 0,0 0,-0.1 0,-0.1 0,0 -0.1,0 -0.1,-0.1 0.1,-3.6 -0.1,-7 -0.6,-10.4 -1.1,5.3 -4.4,24.4 -3.1,35.5 0.1,9.7 1,17.4 1,17.4 l -0.1,-0.2 c 0,0 0,0 0,0 l -12,-14.9 c -0.3,1 3.1,31.3 3.2,34.4 0,0 -10.1,-3.1 -15.1,-7.8 -16,16.4 -33.5,24.6 -33.5,24.6 l 5.5,-13.1 c -5.9,5.9 -12.5,11.5 -15.7,14.3 -0.2,-0.4 -0.5,-0.7 -0.8,-1.1 -0.2,-0.2 -0.4,-0.4 -0.6,-0.5 l 1.3,-6.3 -4.2,5.5 c -0.7,0.1 -1.3,0.3 -1.9,0.6 -2.7,1.6 -5.4,3.5 -8.4,5.7 -2.7,2 -5.2,3.9 -7.5,5.7 l -13.3,-19.1 2.4,12 c 0,0 -6.5,-1 -16.4,-12.2 l -1.3,11.1 c 0,0.2 -0.2,0.2 -0.5,0.1 0,0 0,0 0,0 0,0 -0.1,0 -0.1,-0.1 -1.4,-0.6 -4.9,-3.5 -9.4,-7.7 0,0 0,0 0,0 -0.1,-0.1 -0.1,-0.1 -0.2,-0.2 -2.3,-2.2 -4.9,-4.7 -7.6,-7.5 -3.3,-3.4 -6.7,-7.2 -10.1,-11.1 -5.2,4.2 -14.1,6.9 -14.1,6.9 0,0 0,-0.1 0,-0.1 0,0 0,0 0,0 0.2,-6.5 2.4,-18.1 2.4,-27.4 0,-1.3 0,-2.5 -0.1,-3.7 l -11.3,12 c -0.4,0.4 -0.5,0.2 -0.5,-0.1 -0.1,-0.9 0.9,-3.8 1,-5 0.4,-4 0.5,-7.3 0.5,-10.2 0,-12.6 -2.8,-18 -3.2,-37.7 -0.9,4.1 -1.3,7.4 -1.5,10.6 z m 102.7,120.8 c -0.9,0.7 -1.7,1.4 -2.6,2.1 -2.7,2.2 -5.4,4.3 -8.2,6.3 -3.1,2.3 -5.9,4.2 -8.7,5.9 -0.2,0.1 -0.3,0.1 -0.5,0.1 -0.3,0 -0.5,-0.1 -0.7,-0.3 -0.3,-0.3 -0.4,-0.8 -0.1,-1.2 1.7,-2.7 3.6,-5.6 5.9,-8.7 2,-2.7 4.1,-5.5 6.3,-8.2 0.7,-0.9 1.4,-1.7 2.1,-2.6 l 2.5,-2.9 c -0.2,0 -0.5,0 -0.7,0 -0.8,0 -1.6,0 -2.4,0 -1.5,0 -3,0 -4.5,-0.1 h -0.6 c -2,-0.1 -4.1,-0.1 -6.2,-0.2 l -11.2,-0.6 c -0.4,0 -0.8,-0.3 -0.9,-0.7 -0.1,-0.4 0,-0.8 0.3,-1.1 l 7.9,-7.3 c 2.1,-2 4.5,-4.1 7.2,-6.4 2.7,-2.3 5.1,-4.4 7.5,-6.2 0.3,-0.2 0.6,-0.5 0.9,-0.7 l 0.6,-0.4 c 2.2,-1.7 4.2,-3.3 6.3,-4.7 2.9,-2.1 5.6,-3.9 8.2,-5.5 0.4,-0.2 0.9,-0.2 1.2,0.1 0.3,0.3 0.4,0.8 0.1,1.2 -1.6,2.6 -3.4,5.3 -5.5,8.2 -0.2,0.3 -0.4,0.5 -0.6,0.8 l -0.4,0.6 c -1.8,2.5 -3.4,4.5 -4.9,6.4 -1.2,1.5 -2.5,3.1 -4,4.8 0.3,0 0.6,0 0.9,0 1.5,0 2.9,0 4.4,0 0.8,0 1.6,0 2.4,0 0,0 0,0 0,0 1.6,0 3.3,0.1 4.9,0.1 l 13.8,0.4 c 0.4,0 0.8,0.3 0.9,0.7 0.1,0.4 0,0.8 -0.3,1.1 l -12.2,11.2 -3.8,3.4 z m 1.9,2.9 c -0.9,3 -2.8,5.7 -4.8,8 -0.3,0.3 -0.9,1 -1.4,1.4 -0.4,-0.3 -1,-1 -1.2,-1.3 -0.4,-0.4 -0.8,-0.9 -1.1,-1.4 2.1,-1.6 4.2,-3.2 6.3,-4.8 0.7,-0.6 1.4,-1.2 2.2,-1.9 z M 89,230.9 c 0,0 0,0 0,0 1.7,-0.9 3.7,-2 5.8,-3.2 2.6,-1.5 5.3,-3.2 7.8,-5 0.7,0.6 1.4,1.3 2.2,2 10.7,15.3 31.3,28.2 45.2,35.7 -1.2,1 -2.3,2 -3.4,3 0,0 0,0 0,0 v 0 c 0,0 -26.1,-6.4 -56.1,-31.3 -0.7,-0.5 -1.1,-0.9 -1.5,-1.2 0,0 0,0 0,0 v 0 c 0,0 0,0 0,0 z m 64.1,18.9 3.5,5.1 c -1.2,1 -2.4,2 -3.7,3.1 -5.1,-2.7 -11.2,-6.2 -17.4,-10.3 -0.5,-0.4 -1.1,-0.7 -1.6,-1.1 0.3,-0.5 0.5,-1 0.6,-1.6 l 0.4,-3.6 c 7.5,6.8 12.5,7.7 13.1,7.8 l 5.1,0.8 z m 40.2,-4.9 c 0.5,-0.2 7.3,-3.4 16.2,-9.8 -4.6,4.1 -10,8.2 -16.3,12.4 -7.3,4.8 -14.5,8.8 -20.1,11.7 0.8,-1.1 1.7,-2.3 2.6,-3.5 2,-2.8 3.8,-5.3 5.3,-7.8 l 0.7,-0.6 c 0.2,-0.2 2.5,-2 5.7,-4.9 l -2.7,6.3 z m -10,18.3 -4.1,-0.1 h -1.4 l -2,-0.1 c -0.6,0 -1.2,0 -1.8,0 14.1,-7.2 40.3,-22.4 51.6,-40.7 2.9,2 6.3,3.7 9.4,4.9 1.5,0.6 3,1.1 4.3,1.5 0.2,0.1 0.5,0.1 0.7,0.1 h 0.1 l 0.4,1.4 c 0,0 -1.8,1.6 -5,4.1 -28.4,22.6 -52.1,28.9 -52.2,28.9 z m -117.2,8.3 c 1.1,-14.1 14.6,-14.6 14.6,-14.6 -1.1,24.8 8.6,52.8 8.6,52.8 C 74.3,288.2 65,285.5 66.1,271.5 Z m -23.8,17.9 c -2.9,10.1 -12.8,-4.9 -17.9,-13.8 0.2,4.9 0.2,13.7 -3.2,13.7 -0.4,0 -0.7,0 -1,-0.1 -0.6,-0.8 -1.1,-1.5 -1.7,-2.3 -0.6,-0.8 -1.1,-1.6 -1.6,-2.4 -1,-1.6 -1.9,-3.2 -2.8,-4.9 -0.3,-0.5 -0.5,-1 -0.7,-1.5 -1.1,-2.4 -2,-4.8 -2.7,-7.3 -0.2,-0.8 -0.4,-1.7 -0.6,-2.5 4,10.1 10.4,24 11,14.8 0.1,-2.4 0.1,-5.6 0.2,-7.8 0,-5.9 1.4,-8.4 5.2,-1.1 10.3,20 18.1,25.9 12.8,-4 l -0.5,-3.3 c 2,5.7 5.3,16.3 3.5,22.5 z m -1.4,-41.5 c -9.9,4.2 -4.6,-12.7 -1,-22 -3.7,3.3 -10.6,8.9 -13.1,6.2 -1.4,-1.5 -1.1,-5.5 -0.2,-9.6 0.4,-1.5 0.8,-3 1.3,-4.5 0.5,-1.4 1,-2.7 1.4,-3.9 1.1,-1.1 2.3,-2.2 3.5,-3.3 0.7,-0.6 1.5,-1.2 2.2,-1.8 -0.5,1 -1.1,2.1 -1.6,3.3 -0.8,1.7 -1.5,3.6 -2.2,5.4 -1.6,4.5 -2.6,9 -2.2,12 2.2,-0.9 6.4,-4.4 9,-6.4 4.9,-4.1 7.3,-3.8 4.1,3.6 -8.6,19.9 -8.1,29.3 11.9,6.6 l 2.2,-2.5 c -2.8,5.1 -9.1,14.3 -15.3,16.9 z m 9.4,67.2 c -2.1,-3.8 -2.7,-7.3 2.5,-3.5 16,12 24.6,14.3 8.1,-7.3 l -1.8,-2.4 c 3.9,3.5 10.7,10.7 12,16.1 2.2,8.9 -11.1,0.9 -18.3,-4 0.8,1.2 1.7,3 2.5,4.6 -1.5,-0.9 -3.1,-1.9 -4.6,-2.8 z m 24.4,67.5 C 63.2,360.9 56.5,340.9 53.4,322.7 c 4.7,2.8 9.6,5.5 14.9,8.1 3.4,1.7 6.9,3.4 10.7,5.1 5.2,3.7 5.9,6.1 6,6.7 0.1,0.8 -0.3,1.4 -1.1,2.5 -0.4,0.4 -0.7,0.9 -1,1.5 -0.2,0.2 -0.5,0.7 -0.8,1 -1.7,2.1 -3.9,4.9 -4.8,7.9 -0.5,1.7 -0.6,3.5 0.3,5.2 0.9,1.8 2.9,3.9 7.5,3.9 1,0 2.1,-0.1 3.4,-0.3 1.4,-0.2 2.9,-0.5 4.6,-0.9 6.3,-1.6 10.7,-4.6 13.1,-8.8 0.6,-1 1,-2.2 1.3,-3.3 1.7,3.9 3.4,7.7 5.1,11.7 0.1,0.4 0.3,0.7 0.4,1.1 0.8,1.8 1.5,3.6 2.2,5.4 -26.9,4.2 -40.5,13.1 -40.5,13.1 z m 54.8,18 c 0,0.4 -0.1,0.7 -0.1,1.1 0,0.4 0,0.7 0,1.1 0,0.4 0,0.8 -0.1,1.2 -0.1,1 -0.5,2.2 -1.3,3.5 -0.2,0.3 -0.4,0.5 -0.6,0.8 -0.9,1.1 -2.1,2.4 -3.9,3.8 -0.4,0.3 -0.8,0.6 -1.2,1 -5.3,4.7 -9.3,11.5 -11.9,14.8 -0.2,0.2 -0.4,0.4 -0.5,0.6 -1.4,1.5 -2.2,3.1 -2.9,4.5 -0.2,0.4 -0.4,0.8 -0.6,1.1 -0.2,0.3 -0.4,0.7 -0.6,1 -0.6,0.7 -1.3,1.3 -2.3,1.5 0,0 0,0 -0.1,0 -0.3,0.1 -0.5,0.1 -0.8,0.2 -2.3,0.3 -4.1,-0.3 -5.1,-1.7 0,0 0,0 0,0 -0.1,-0.1 -0.1,-0.2 -0.2,-0.4 -0.1,-0.1 -0.1,-0.2 -0.1,-0.3 0,-0.1 -0.1,-0.1 -0.1,-0.2 -0.4,-1.1 -0.2,-2.5 0.5,-4.1 0,0 0,0.1 0,0.1 0.4,-0.8 0.9,-1.7 1.7,-2.6 4.7,-5.7 12.6,-14 14.5,-15.9 -2,1.2 -15.3,9.2 -23.9,14.7 -0.2,0.2 -0.5,0.4 -0.7,0.7 -0.9,1.3 -1.5,3.4 -2.3,4.1 -0.1,0.1 -0.2,0.2 -0.3,0.3 -5.4,2.9 -10.8,-0.1 -10.4,-4.6 0,0.1 0.1,0.1 0.1,0.2 0,-2.2 1.4,-4.8 4.9,-7.1 7.7,-5.3 21.6,-11.6 23.3,-12.3 v -0.1 c -0.2,0 -0.8,0.1 -1.8,0.3 -2.6,0.5 -8,1.6 -17.4,3.9 -1.6,0.4 -3.2,0.8 -5,1.3 -1.4,0.4 -2.3,3.2 -4.4,4.9 -0.8,0.7 -1.9,1 -3.1,1 -2.5,0.1 -5.3,-1.2 -6.3,-3.5 -0.5,-1.3 -0.5,-2.4 -0.3,-3.5 0,0 0,0.1 0.1,0.1 0.4,-1.6 1.5,-3 3.3,-4.2 8.6,-8.3 28.7,-8.9 39,-9.3 4.7,-0.1 9.3,-0.4 14,0.9 -0.9,0 -1.7,-0.1 -2.3,-0.1 1.5,0.1 2.7,0.3 3.6,0.5 -0.9,-0.8 -1.9,-1.5 -3.2,-2 0.3,-0.6 0.7,-1.6 1,-2.7 0.4,0.3 0.8,0.4 1.3,0.5 l 5.3,1.4 1.5,0.4 c 0,0 0.1,0 0.1,0 0,0 0,0 0,0 -0.2,1 -0.3,2.1 -0.4,3.1 z m 54.6,-24.3 c 2.7,0.5 5.3,1.1 7.8,1.9 3.2,1 5.5,1.7 8.7,2.9 -3.3,-3.1 -4,-2.8 -8.2,-4.6 -6.7,-2.8 -14.6,-4.4 -22.7,-4.8 -3,-0.4 -6.1,-0.4 -9.2,-0.1 -9.8,0.4 -19.6,2.3 -27.6,5.4 4.4,-0.5 8.9,-1 13.6,-1.4 -7.2,3.6 -13.1,9.6 -15.9,17.6 l -6.8,-1.8 c 0,0 0,-1 -1.7,-10.6 -1.3,-7.6 -2.9,-12.5 -12.7,-34.4 -0.6,-2.7 -2.4,-6.7 -2.9,-7.8 -9.2,-19.8 -9,-18.5 -14.3,-33.3 -7.6,-23.7 -9.4,-48.3 -5.9,-71.9 4.1,3.5 27.7,23.1 57.2,32.8 l -7.3,6.8 c -1.3,1.2 -1.8,3.1 -1.2,4.8 0.6,1.7 2.2,2.9 4,3 l 4.2,0.2 c 0.9,1.2 1.8,2.2 2.6,2.9 0.3,0.3 0.6,0.6 0.8,0.9 1.4,1.3 2,1.4 3.4,0.2 0.3,-0.3 0.6,-0.6 1,-1 0.6,-0.7 1.4,-1.5 2.1,-2.4 1.1,0 2.2,0.1 3.3,0.1 0,0 0.7,0 0.8,0 -2.2,2.7 -4.3,5.4 -6.3,8.2 -2.3,3.2 -4.3,6.1 -6,8.9 -1.1,1.8 -0.8,4.1 0.7,5.5 0.9,0.9 2,1.3 3.2,1.3 0.8,0 1.6,-0.2 2.3,-0.7 2.5,-1.5 5,-3.2 7.8,-5.2 0.6,1.1 1.2,2.2 1.9,3.1 0.5,0.6 0.9,1.2 1.4,1.7 2,2.6 2.3,2.6 4.7,0 2.1,-2.2 5,-6.1 5.6,-10.7 0.1,-0.6 0.1,-1.1 0.1,-1.7 0,-1.4 -0.3,-2.1 -0.7,-2.4 l 0.4,-0.3 c 0,0 4,-3.4 4,-3.4 l 2,-1.7 c 2.1,2.4 2.5,2.4 5.1,-0.1 2.3,-2.1 5.9,-5.9 6.5,-10.5 l 2.5,-2.3 c 1.4,-1.2 1.8,-3.2 1.2,-4.9 -0.4,-1 -1.1,-1.8 -2,-2.3 26.6,-10.3 47.1,-27.4 50.8,-30.6 3.4,23.2 1.8,47.4 -5.4,70.7 0,-0.3 0.1,-0.5 0.1,-0.8 -0.1,0.3 -0.2,0.6 -0.3,0.9 -6.8,19.6 -4.1,15.2 -14.3,34.1 0,0.1 -0.1,0.2 -0.1,0.3 -0.5,0.9 -1.9,4.4 -2.7,7 -10,22.5 -11.8,27.6 -13.1,35.2 -1.7,9.6 -1.7,10.6 -1.7,10.6 l -6.8,1.8 c -2.6,-7.9 -7.7,-13.5 -14,-17.1 z m 74.8,31.3 c 1.8,1.3 3.1,2.8 3.5,4.4 0,0 0,-0.1 0.1,-0.1 0.3,1 0.3,2.2 -0.3,3.5 -1,2.3 -3.8,3.6 -6.3,3.5 -1.2,0 -2.3,-0.3 -3.1,-1 -2,-1.7 -2.9,-4.5 -4.4,-4.9 -1.8,-0.5 -3.5,-0.9 -5,-1.3 -9.4,-2.3 -14.8,-3.4 -17.4,-3.9 -1,-0.2 -1.5,-0.3 -1.8,-0.3 v 0.1 c 1.7,0.7 15.6,7.1 23.3,12.3 3.4,2.3 4.8,4.8 4.8,6.9 0,0 0,0 0,0 0.4,4.5 -5,7.6 -10.4,4.6 -1.2,-0.6 -1.8,-4 -3.3,-5.1 -8.2,-5.4 -21,-13.1 -23.7,-14.6 2.1,2.1 9.8,10.1 14.3,15.7 0.7,0.9 1.3,1.8 1.7,2.6 0,0 0,-0.1 0,-0.1 0.8,1.6 0.9,3 0.5,4.1 0,0.1 -0.1,0.1 -0.1,0.2 0,0.1 -0.1,0.2 -0.1,0.3 -0.1,0.1 -0.1,0.3 -0.2,0.4 0,0 0,0 0,0 -0.9,1.3 -2.8,2 -5.1,1.7 -0.3,0 -0.5,-0.1 -0.8,-0.2 0,0 0,0 -0.1,0 -1,-0.2 -1.7,-0.8 -2.3,-1.5 -0.2,-0.3 -0.4,-0.6 -0.6,-1 -0.2,-0.3 -0.4,-0.7 -0.6,-1.1 -0.7,-1.4 -1.5,-3 -2.9,-4.5 -0.2,-0.2 -0.3,-0.4 -0.5,-0.6 -2.6,-3.2 -6.6,-10.1 -11.9,-14.8 -0.4,-0.3 -0.8,-0.7 -1.2,-1 -1.8,-1.4 -3,-2.6 -3.9,-3.8 -0.2,-0.3 -0.4,-0.5 -0.6,-0.8 -0.9,-1.3 -1.2,-2.4 -1.3,-3.5 -0.1,-0.4 -0.1,-0.8 -0.1,-1.2 0,-0.4 0,-0.7 0,-1.1 0,-0.4 0,-0.7 -0.1,-1.1 -0.1,-1 -0.3,-2.1 -0.4,-3.3 0,0 0,0 0,0 0.1,0 0.2,0 0.4,-0.1 l 1.3,-0.3 5.5,-1.5 c 0.4,-0.1 0.7,-0.3 1,-0.4 0.3,1 0.6,1.9 0.9,2.5 -1.3,0.5 -2.3,1.3 -3.2,2 0.5,-0.1 1,-0.2 1.6,-0.3 -0.1,0 -0.1,0 -0.2,0 4.6,-1.3 9.2,-1 14,-0.9 10.5,0.8 30.3,1.4 39,9.5 z m 48.3,-44.8 c 0,0 -4.7,33.3 -79.7,17.4 0.8,-0.6 1.4,-1.4 1.7,-2.3 1.8,-4.2 -1.8,-8.1 -4.7,-10.6 -0.9,-0.8 -1.8,-1.5 -2.7,-2.3 -1.5,-1.4 -3,-2.8 -4.4,-4.2 1.3,-3.1 2.7,-6.1 4,-9.2 0.3,1 0.7,2 1.2,3 2.4,4.3 6.8,7.3 13.1,8.8 3.3,0.8 5.9,1.2 8,1.2 4.7,0 6.7,-2.1 7.5,-3.9 2.2,-4.6 -1.8,-9.7 -4.5,-13.1 -0.3,-0.3 -0.6,-0.8 -0.8,-1 -0.3,-0.6 -0.7,-1 -1,-1.5 -0.9,-1.1 -1.2,-1.7 -1.1,-2.5 0.1,-0.6 0.8,-3 6,-6.7 9.6,-4.4 18.1,-8.8 25.9,-13.5 1.2,-0.7 2.5,-1.5 3.7,-2.3 0.1,0.3 0.2,0.6 0.4,0.9 11.4,29 27.4,41.8 27.4,41.8 z M 318,270.9 c -0.7,2.5 -1.6,4.9 -2.7,7.3 -0.2,0.5 -0.5,1 -0.7,1.5 -0.8,1.7 -1.8,3.3 -2.8,4.9 -0.5,0.8 -1,1.6 -1.6,2.4 -0.5,0.8 -1.1,1.6 -1.7,2.3 -0.3,0.1 -0.7,0.1 -1,0.1 -3.5,0 -3.4,-8.9 -3.2,-13.7 -5.1,8.9 -15.1,23.9 -17.9,13.8 -1.8,-6.2 1.5,-16.8 3.7,-22.5 l -0.5,3.3 c -5.4,30 2.5,24.1 12.8,4 3.8,-7.3 5.2,-4.8 5.2,1.1 0,2.2 0,5.4 0.2,7.8 0.6,9.2 7,-4.8 11,-14.8 -0.3,0.8 -0.5,1.7 -0.8,2.5 z"
   id="path787"
   inkscape:export-xdpi="380.79999"
   inkscape:export-ydpi="380.79999" />
	<path
   class="st1"
   d="m 231.6,114 c -2.3,-2.4 -5.4,-3.7 -9.1,-3.7 -5.6,0 -12.2,3.2 -16.4,7.9 -6.7,7.4 -9.9,19 -8.1,27.8 0.6,1.5 1.4,3.2 1.9,4.2 0.8,1 1.6,1.9 2.4,2.6 1.6,1 3.9,1.5 6.5,1.5 2.1,0 4,-0.4 5.6,-1 5.5,-2.4 10.4,-8.3 12.2,-15.1 2.1,-7.7 0.3,-15.8 -5.1,-22.8 l -2.6,-3.3 4.2,-0.4 c 0.4,0 0.9,0 1.3,0 3.5,0 6,1.3 7.9,3.2 -0.2,-0.3 -0.5,-0.7 -0.7,-0.9 z m -23.7,18.5 c -1.7,3.7 -4.5,6 -6.3,5.2 -1.8,-0.8 -1.9,-4.5 -0.3,-8.2 1.7,-3.7 4.5,-6 6.3,-5.2 1.9,0.9 2,4.5 0.3,8.2 z"
   id="path789"
   inkscape:export-xdpi="380.79999"
   inkscape:export-ydpi="380.79999" />
	<path
   class="st1"
   d="m 108.5,110 c -3.6,0 -6.7,1.3 -9.1,3.7 -0.3,0.3 -0.5,0.6 -0.8,0.9 1.9,-1.9 4.5,-3.2 7.9,-3.2 0.5,0 0.9,0.1 1.4,0.1 l 4.1,0.4 -2.6,3.3 c -5.4,7 -7.2,15.2 -5.1,22.9 1.8,6.8 6.5,12.7 12.2,15 1.7,0.6 3.6,1 5.6,1 3.7,0 6.8,-1.3 8.5,-3.3 0.4,-0.8 1.4,-3.1 2.2,-5 2.1,-9 -1.3,-20.5 -7.9,-27.9 -4.2,-4.7 -10.7,-7.9 -16.4,-7.9 z m 21,19.6 c 1.7,3.7 1.5,7.4 -0.3,8.2 -1.8,0.8 -4.6,-1.5 -6.3,-5.2 -1.7,-3.7 -1.5,-7.3 0.3,-8.2 1.8,-0.8 4.6,1.5 6.3,5.2 z"
   id="path791"
   inkscape:export-xdpi="380.79999"
   inkscape:export-ydpi="380.79999" />
	<path
   class="st1"
   d="m 119,278.3 c 2,-2.4 5,-6.7 4.1,-11.8 -0.3,-1.5 -0.8,-2.2 -1.4,-2.4 -0.1,3.2 -1.8,6.1 -3.8,8.4 -0.3,0.3 -0.9,1 -1.3,1.3 -0.5,-0.3 -1.5,-1.2 -1.8,-1.4 -2.4,-2.2 -5,-5 -6.1,-8.2 -1.4,-0.5 -2.3,-0.1 -2.2,2.3 0.4,5.1 4.6,9.5 7.2,11.8 2.9,2.6 3.1,2.4 5.3,0 z"
   id="path793"
   inkscape:export-xdpi="380.79999"
   inkscape:export-ydpi="380.79999" />
	<path
   class="st1"
   d="m 215.6,278.3 c 2.8,-2.4 7.2,-6.7 7.9,-11.8 0.4,-2.7 -0.8,-2.8 -2.4,-2 -1.4,3.1 -4.1,5.9 -6.5,7.9 -0.3,0.3 -1.4,1.3 -1.9,1.4 -0.3,-0.3 -0.9,-1 -1,-1.2 -1.9,-2.4 -3.5,-5.4 -3.3,-8.4 -0.5,0.3 -0.9,1 -1.3,2.3 -1.3,5.1 1.4,9.5 3.3,11.8 1.9,2.6 2.3,2.4 5.2,0 z"
   id="path795"
   inkscape:export-xdpi="380.79999"
   inkscape:export-ydpi="380.79999" />
	<path
   class="st1"
   d="m 123,292 c 0.3,5.4 4,10 6.4,12.4 2.7,2.6 2.9,2.6 5,0 2,-2.4 5,-7 4.2,-12.4 -0.3,-1.8 -0.8,-2.6 -1.5,-2.6 -0.1,3.5 -1.9,6.7 -4,9.3 -0.1,0.3 -0.8,1 -1.2,1.3 -0.4,-0.3 -1.2,-1.2 -1.4,-1.4 -2.4,-2.4 -4.7,-5.6 -5.6,-9.1 -1.2,-0.5 -2.1,0.1 -1.9,2.5 z"
   id="path797"
   inkscape:export-xdpi="380.79999"
   inkscape:export-ydpi="380.79999" />
	<path
   class="st1"
   d="m 199.6,304.4 c 2.6,-2.4 6.7,-7 7.2,-12.4 0.3,-2.7 -0.8,-3.1 -2.2,-2.3 -1.2,3.3 -3.7,6.4 -6.1,8.8 -0.3,0.3 -1.2,1.2 -1.7,1.4 -0.3,-0.3 -0.8,-1 -0.9,-1.2 -2,-2.7 -3.5,-6 -3.3,-9.3 -0.5,0.3 -1,1 -1.4,2.6 -1,5.4 1.7,10 3.5,12.4 1.9,2.6 2.2,2.6 4.9,0 z"
   id="path799"
   inkscape:export-xdpi="380.79999"
   inkscape:export-ydpi="380.79999" />
	<path
   class="st1"
   d="m 126.3,312.9 c 0,3.3 -1.3,6.7 -3.2,9.5 -0.1,0.3 -0.5,0.8 -0.8,1.2 -0.4,-0.4 -1,-1 -1.3,-1.3 -2.3,-2.4 -4.6,-5.5 -5.6,-8.8 -1.4,-0.9 -2.4,-0.6 -2,2.2 0.5,5.4 4.2,10 6.5,12.4 2.4,2.6 2.7,2.4 4.5,-0.1 1.7,-2.4 4.1,-7 3.3,-12.4 -0.3,-1.9 -0.8,-2.6 -1.4,-2.7 z"
   id="path801"
   inkscape:export-xdpi="380.79999"
   inkscape:export-ydpi="380.79999" />
	<path
   class="st1"
   d="m 154.6,312.9 c -0.1,1.5 -0.6,3.1 -1.3,4.5 -0.8,1.7 -1.8,3.3 -2.9,4.7 -0.1,0.3 -0.6,0.9 -1,1.2 -0.4,-0.4 -0.9,-1 -1,-1.2 -2.2,-2.7 -4.1,-5.9 -4.7,-9.2 -1,-0.4 -1.7,0.1 -1.8,2.6 0,5.4 3.1,10 5.2,12.4 2.3,2.7 2.6,2.6 4.6,0 1.9,-2.4 4.9,-7 4.6,-12.4 -0.2,-2.3 -0.8,-2.9 -1.7,-2.6 z"
   id="path803"
   inkscape:export-xdpi="380.79999"
   inkscape:export-ydpi="380.79999" />
	<path
   class="st1"
   d="m 183.4,313.1 c -0.9,3.3 -2.9,6.5 -5.2,9 -0.3,0.3 -0.8,0.9 -1.2,1.3 -0.3,-0.4 -0.6,-0.9 -0.9,-1.2 -2,-2.8 -3.5,-6 -3.6,-9.5 -0.6,0 -1.3,0.8 -1.5,2.6 -0.6,5.4 2,10 3.8,12.4 1.8,2.8 2.2,2.7 4.5,0.1 2.3,-2.6 5.8,-7 6,-12.4 0.1,-2.5 -0.8,-2.9 -1.9,-2.3 z"
   id="path805"
   inkscape:export-xdpi="380.79999"
   inkscape:export-ydpi="380.79999" />
	<path
   class="st1"
   d="m 213.8,315.4 c 0.5,-3.1 -0.8,-3.1 -2.4,-1.9 -1.3,3.2 -3.7,6.1 -6,8.6 -0.3,0.3 -0.9,0.9 -1.4,1.3 -0.3,-0.4 -0.5,-0.8 -0.6,-1 -1.8,-2.8 -2.8,-6.1 -2.6,-9.3 -0.5,0.3 -0.9,1 -1.3,2.4 -1.3,5.4 0.9,10 2.4,12.4 1.8,2.7 2,2.6 4.6,0 2.6,-2.6 6.4,-7.1 7.3,-12.5 z"
   id="path807"
   inkscape:export-xdpi="380.79999"
   inkscape:export-ydpi="380.79999" />
	<path
   class="st1"
   d="m 139.6,333.8 c -0.1,3.3 -1.4,6.5 -3.3,9.3 -0.1,0.3 -0.4,0.6 -0.6,1 -0.4,-0.4 -0.8,-0.9 -0.9,-1 -2.2,-2.6 -4,-5.6 -4.9,-8.8 -1.2,-0.8 -2,-0.5 -1.9,2.2 0.3,5.4 3.5,9.9 5.6,12.3 2.2,2.4 2.3,2.4 4.1,-0.1 1.7,-2.4 4.1,-6.9 3.5,-12.3 -0.3,-2 -0.8,-2.7 -1.6,-2.6 z"
   id="path809"
   inkscape:export-xdpi="380.79999"
   inkscape:export-ydpi="380.79999" />
	<path
   class="st1"
   d="m 168.3,334 c -0.6,3.3 -2.3,6.4 -4.4,9.1 -0.1,0.3 -0.5,0.8 -0.9,1 -0.3,-0.4 -0.6,-0.8 -0.8,-1 -1.9,-2.7 -3.5,-5.9 -3.8,-9.3 -0.8,-0.3 -1.4,0.4 -1.5,2.6 -0.4,5.4 2.3,9.9 4.1,12.3 1.8,2.7 2,2.7 4.1,0.1 1.9,-2.4 4.9,-6.9 5,-12.3 0,-2.7 -0.8,-3 -1.8,-2.5 z"
   id="path811"
   inkscape:export-xdpi="380.79999"
   inkscape:export-ydpi="380.79999" />
	<path
   class="st1"
   d="m 196.6,334.5 c -1,3.2 -3.1,6 -5.2,8.4 -0.3,0.3 -0.6,0.8 -1,1.2 -0.3,-0.3 -0.4,-0.6 -0.5,-0.9 -1.8,-2.8 -2.8,-6.1 -2.7,-9.5 -0.5,0.1 -1,0.9 -1.3,2.6 -1,5.4 1.2,9.9 2.7,12.3 1.3,2.7 1.5,2.7 4,0.1 2.2,-2.4 5.8,-6.9 6.4,-12.3 0.2,-3.1 -0.9,-3.1 -2.4,-1.9 z"
   id="path813"
   inkscape:export-xdpi="380.79999"
   inkscape:export-ydpi="380.79999" />
	<path
   class="st1"
   d="m 164.3,106.5 v 0 c 0,0 0,0 0,0 0,0 0,0 0,0 z"
   id="path815"
   inkscape:export-xdpi="380.79999"
   inkscape:export-ydpi="380.79999" />
	<path
   class="st1"
   d="m 161.7,142.9 c -1.7,3.1 -5.1,6.4 -3.1,7.9 2.1,1.4 5.3,-10.1 3.1,-7.9 z"
   id="path817"
   inkscape:export-xdpi="380.79999"
   inkscape:export-ydpi="380.79999" />
	<path
   class="st1"
   d="m 172.7,150.8 c 2,-1.5 -1.4,-4.9 -3.1,-7.9 -2.2,-2.2 1.1,9.3 3.1,7.9 z"
   id="path819"
   inkscape:export-xdpi="380.79999"
   inkscape:export-ydpi="380.79999" />
	<path
   class="st1"
   d="m 133.6,222.6 c 2.2,2.6 2.3,2.6 4.1,0 1.7,-2.4 4.1,-6.9 3.5,-12.3 -0.2,-2 -0.8,-2.7 -1.5,-2.6 -0.2,3.2 -1.5,6.2 -3.3,8.8 -0.1,0.3 -0.4,0.6 -0.6,1 -0.3,-0.3 -0.8,-0.8 -0.9,-1 -2,-2.4 -3.8,-5.2 -4.7,-8.3 -1.3,-1 -2.4,-0.9 -2.2,2 0.2,5.5 3.4,10 5.6,12.4 z"
   id="path821"
   inkscape:export-xdpi="380.79999"
   inkscape:export-ydpi="380.79999" />
	<path
   class="st1"
   d="m 165.1,231.5 c 1.9,-2.4 4.9,-6.9 5,-12.3 0,-2.7 -0.9,-3 -2,-2.2 -0.7,3 -2.3,5.9 -4.3,8.4 -0.1,0.1 -0.5,0.6 -0.9,1 -0.3,-0.4 -0.6,-0.9 -0.8,-1 -1.8,-2.5 -3.3,-5.5 -3.7,-8.7 -0.8,-0.2 -1.4,0.5 -1.5,2.5 -0.4,5.4 2.3,9.9 4.1,12.3 1.8,2.5 2,2.5 4.1,0 z"
   id="path823"
   inkscape:export-xdpi="380.79999"
   inkscape:export-ydpi="380.79999" />
	<path
   class="st1"
   d="m 192.5,222.6 c 2.2,-2.4 5.8,-6.9 6.4,-12.3 0.4,-3.3 -1,-3 -2.7,-1.5 -1.1,2.8 -3,5.4 -5,7.7 -0.1,0.3 -0.6,0.8 -1,1.2 -0.1,-0.4 -0.4,-0.8 -0.5,-0.9 -1.6,-2.8 -2.7,-5.8 -2.7,-8.9 -0.5,0.2 -1,0.9 -1.3,2.5 -1,5.4 1.2,9.9 2.7,12.3 1.4,2.6 1.6,2.5 4.1,-0.1 z"
   id="path825"
   inkscape:export-xdpi="380.79999"
   inkscape:export-ydpi="380.79999" />
	<path
   class="st1"
   d="m 187,268.8 -11.3,-0.3 c -1.6,0 -3.2,-0.1 -4.9,-0.1 -0.8,0 -1.6,0 -2.4,0 -1.5,0 -2.9,0 -4.4,0 -0.7,0 -1.5,0 -2.3,0 h -0.9 c 0,0 0,0 0,0 -0.4,0 -0.7,-0.2 -0.9,-0.6 -0.2,-0.4 -0.1,-0.8 0.1,-1.1 2.1,-2.5 3.8,-4.5 5.3,-6.4 1.5,-1.9 3,-3.9 4.9,-6.3 l 0.4,-0.6 c 0.2,-0.3 0.4,-0.5 0.6,-0.8 1.1,-1.5 2,-2.8 2.9,-4.2 -1.3,0.9 -2.7,1.9 -4.2,2.9 -2,1.5 -4,3 -6.2,4.7 l -0.6,0.5 c -0.3,0.2 -0.6,0.5 -0.9,0.7 -2.3,1.8 -4.7,3.8 -7.4,6.2 -2.7,2.3 -5,4.4 -7.2,6.4 l -6.2,5.7 8.8,0.4 c 2,0.1 4.1,0.2 6.1,0.2 h 0.7 c 1.5,0.1 3,0.1 4.4,0.1 0.8,0 1.6,0 2.4,0 0.9,0 1.9,0 2.8,0 0,0 0,0 0,0 0.4,0 0.7,0.2 0.9,0.6 0.2,0.4 0.1,0.8 -0.1,1.1 l -3.9,4.6 c -0.7,0.8 -1.4,1.7 -2.1,2.5 -2.1,2.7 -4.2,5.4 -6.2,8.1 -1.2,1.6 -2.3,3.2 -3.3,4.7 1.5,-1 3.1,-2.1 4.7,-3.3 2.7,-2 5.4,-4.1 8.1,-6.2 0.9,-0.7 1.7,-1.4 2.6,-2.1 l 1.4,-1.2 3.9,-3.3 3.8,-3.4 z"
   id="path827"
   inkscape:export-xdpi="380.79999"
   inkscape:export-ydpi="380.79999" />
	<path
   class="st1"
   d="m 157.8,48.6 c -0.5,0.4 -1,0.8 -1.5,1.2 -0.1,0.1 -0.2,0.1 -0.2,0.2 -0.3,0.3 -0.6,0.7 -0.9,1.1 -0.2,0.2 -0.4,0.5 -0.5,0.7 -0.2,0.3 -0.4,0.6 -0.5,0.9 -0.1,0.2 -0.2,0.4 -0.3,0.6 -0.1,0.2 -0.2,0.5 -0.3,0.7 -0.2,0.4 -0.3,0.7 -0.4,1.1 -0.1,0.2 -0.1,0.3 -0.1,0.5 -0.1,0.3 -0.2,0.7 -0.3,1 0,0.1 0,0.2 0,0.3 -0.1,0.5 -0.1,0.9 -0.2,1.5 v 0.1 0.1 c 0,0.2 0,0.3 0,0.5 0,0.2 0,0.4 0,0.6 v 0.1 0.1 c 0,0.5 0.1,1 0.2,1.5 0,0.1 0,0.2 0.1,0.3 0.1,0.3 0.2,0.6 0.3,1 0,0.2 0.1,0.3 0.1,0.5 0.1,0.4 0.3,0.7 0.4,1.1 0.1,0.2 0.2,0.5 0.3,0.7 0.1,0.2 0.2,0.4 0.3,0.6 0.2,0.3 0.4,0.6 0.6,0.9 0.2,0.2 0.4,0.5 0.5,0.7 0.3,0.4 0.6,0.7 1,1.1 0.1,0.1 0.2,0.1 0.2,0.2 0.5,0.5 1,0.9 1.6,1.3 2.1,1.4 4.4,2.1 6.9,2.1 2.5,0 4.8,-0.7 6.9,-2.1 0.6,-0.4 1.1,-0.8 1.6,-1.3 0.1,-0.1 0.2,-0.1 0.2,-0.2 0.3,-0.3 0.7,-0.7 1,-1.1 0.2,-0.2 0.4,-0.5 0.5,-0.7 0.2,-0.3 0.4,-0.6 0.6,-0.9 0.1,-0.2 0.2,-0.4 0.3,-0.6 0.1,-0.2 0.2,-0.5 0.3,-0.7 0.2,-0.4 0.3,-0.7 0.4,-1.1 0.1,-0.2 0.1,-0.3 0.1,-0.5 0.1,-0.3 0.2,-0.7 0.3,-1 0,-0.1 0,-0.2 0.1,-0.3 0.1,-0.5 0.1,-0.9 0.2,-1.5 v -0.1 -0.1 c 0,-0.2 0,-0.4 0,-0.6 0,-0.2 0,-0.3 0,-0.5 v -0.1 -0.1 c 0,-0.5 -0.1,-1 -0.2,-1.5 0,-0.1 0,-0.2 0,-0.3 -0.1,-0.3 -0.2,-0.7 -0.3,-1 0,-0.2 -0.1,-0.3 -0.1,-0.5 -0.1,-0.4 -0.3,-0.7 -0.4,-1.1 -0.1,-0.2 -0.2,-0.5 -0.3,-0.7 -0.1,-0.2 -0.2,-0.4 -0.3,-0.6 -0.2,-0.3 -0.3,-0.6 -0.5,-0.9 -0.2,-0.2 -0.4,-0.5 -0.5,-0.7 -0.3,-0.4 -0.6,-0.7 -0.9,-1.1 -0.1,-0.1 -0.2,-0.1 -0.2,-0.2 -0.5,-0.4 -1,-0.9 -1.5,-1.2 -2.1,-1.5 -4.6,-2.2 -7.1,-2.2 -2.5,0 -5.4,0.8 -7.5,2.2 z m 15.6,6 c 0.2,0.5 0.4,0.9 0.6,1.3 0.1,0.4 0.2,0.7 0.3,1.1 0.1,0.4 0.1,0.8 0.2,1.3 v 0.2 c 0,0.1 0,0.2 0,0.3 0,0.1 0,0.3 0,0.4 v 0.2 c 0,0.5 -0.1,1 -0.2,1.3 -0.1,0.3 -0.2,0.7 -0.3,1.1 -0.2,0.5 -0.4,0.9 -0.6,1.3 -0.2,0.4 -0.4,0.7 -0.7,1.1 -0.3,0.5 -0.7,0.9 -1.2,1.3 -0.4,0.4 -0.9,0.8 -1.4,1.1 -3.1,2.1 -7.4,2.1 -10.5,0 -0.5,-0.3 -0.9,-0.7 -1.4,-1.1 -0.4,-0.4 -0.8,-0.9 -1.2,-1.3 -0.3,-0.4 -0.5,-0.7 -0.7,-1.1 -0.2,-0.4 -0.4,-0.9 -0.6,-1.3 -0.1,-0.4 -0.2,-0.8 -0.3,-1.1 -0.1,-0.4 -0.1,-0.8 -0.2,-1.3 v -0.2 c 0,-0.1 0,-0.3 0,-0.4 0,-0.1 0,-0.2 0,-0.3 v -0.2 c 0,-0.5 0.1,-0.9 0.2,-1.3 0.1,-0.4 0.2,-0.7 0.3,-1.1 0.1,-0.4 0.3,-0.9 0.6,-1.3 0.2,-0.4 0.4,-0.8 0.6,-1.1 0.3,-0.5 0.7,-0.9 1.1,-1.3 0.4,-0.4 0.8,-0.8 1.3,-1.1 1.6,-1.1 3.5,-1.7 5.4,-1.7 1.9,0 3.8,0.6 5.4,1.7 0.5,0.3 0.9,0.7 1.3,1.1 0.4,0.4 0.8,0.9 1.1,1.3 0.5,0.4 0.7,0.7 0.9,1.1 z"
   id="path829"
   inkscape:export-xdpi="380.79999"
   inkscape:export-ydpi="380.79999" />
	<path
   class="st1"
   d="m 164.9,50.9 c -4.5,0 -8.1,3.6 -8.1,8.1 0,4.5 3.6,8.1 8.1,8.1 4.5,0 8.1,-3.6 8.1,-8.1 0,-4.5 -3.7,-8.1 -8.1,-8.1 z m 0,14.6 c -3.6,0 -6.6,-2.9 -6.6,-6.6 0,-3.6 2.9,-6.6 6.6,-6.6 3.7,0 6.6,2.9 6.6,6.6 -0.1,3.7 -3,6.6 -6.6,6.6 z"
   id="path831"
   inkscape:export-xdpi="380.79999"
   inkscape:export-ydpi="380.79999" />
</g>
</svg>
