<?xml version="1.0" encoding="utf-8"?>
<!-- Generator: Adobe Illustrator 28.3.0, SVG Export Plug-In . SVG Version: 6.00 Build 0)  -->
<svg version="1.1" id="Layer_1" xmlns="http://www.w3.org/2000/svg" xmlns:xlink="http://www.w3.org/1999/xlink" x="0px" y="0px"
	 width="554.6px" height="553.4px" viewBox="0 0 554.6 553.4" style="enable-background:new 0 0 554.6 553.4;" xml:space="preserve"
	>
<style type="text/css">
	.st0{fill:#133563;}
	.st1{fill:url(#SVGID_1_);}
	.st2{fill:url(#SVGID_00000163030413891048163380000009908866115808321457_);}
	.st3{fill:url(#SVGID_00000152240537613565651240000005027559367016773793_);}
	.st4{fill:url(#SVGID_00000062884830317830405150000018284852838421476739_);}
	.st5{fill:#4A92CC;}
	.st6{fill:#213861;}
	.st7{fill:#FFFFFF;}
	.st8{fill:url(#SVGID_00000046338204492291498180000014535779554301049263_);}
	.st9{fill:url(#SVGID_00000051379437413655634680000012186983089612455605_);}
	.st10{fill:url(#SVGID_00000111896401065156946340000000760067145877328273_);}
	.st11{fill:url(#SVGID_00000096781540475250984640000011933850040150620062_);}
</style>
<g>
	<g>
		<g>
			<path class="st0" d="M554.6,326.6v48.1c-42.9-19.9-96.1-67.8-149.4-103.7c-43.9-29.6-71.6-48.6-127.9-48.6
				c-28.1,0-49.1,4.7-68.6,13.2c-19.5,8.5-37.4,20.6-59.3,35.4C96.1,306.9,42.9,354.8,0,374.7v-48.1
				c42.2-34.9,41.5-43.9,100.8-113.1c34.7-40.5,64.7-70.2,93.1-89.8c28.4-19.6,55.2-29.2,83.3-29.2c56.3,0,107.1,38.1,176.5,119
				C513.1,282.7,512.4,291.6,554.6,326.6z"/>
			<path class="st0" d="M554.6,406.3V440c-30.5-9.3-53.9-20.2-69.9-28.5c-33.3-17.3-48.4-31.2-106.1-62.6
				c-13.9-7.6-31.3-16.8-56-22.7c-18.5-4.4-34.4-5.3-45.3-5.3c-10.9,0-26.7,0.9-45.3,5.3c-24.7,5.9-42.1,15.1-56,22.7
				c-57.6,31.5-72.8,45.3-106.1,62.6c-15.9,8.2-39.3,19.1-69.8,28.4v-33.7c14.5-5.3,33.2-13.4,53.6-25.7c4.9-2.9,13-8,43.1-30.5
				c46.5-34.7,45.7-36.5,67.4-51.1c24.3-16.4,42.1-28.2,68.7-36.3c9.3-2.9,26.7-5.9,44.4-6.1c16.5-0.2,33.4,2.3,44.5,6.1
				c26.3,8.9,44.4,19.8,68.7,36.3c21.7,14.6,21,16.4,67.4,51.1c30.2,22.5,38.3,27.6,43.2,30.5C521.4,392.9,540.1,400.9,554.6,406.3z
				"/>
			<path class="st0" d="M554.6,465.2v31.6c-16.2-1.6-38.2-4.7-63.8-11.3c-26.3-6.7-46.4-14.6-62.9-21.1
				c-31.8-12.5-37.6-17.5-75-31.7c-12.5-4.8-28.2-10.3-49.2-13.3c-10.8-1.5-19.9-1.9-26.4-2c-6.5,0-15.6,0.4-26.4,2
				c-21.1,3-36.7,8.5-49.2,13.3c-37.4,14.1-43.2,19.1-75,31.7c-16.4,6.5-36.6,14.4-62.9,21.1c-25.6,6.6-47.6,9.8-63.8,11.3v-31.6
				c11.2-1.5,25.1-4.1,40.7-8.7c26.1-7.7,44.7-17.3,65.5-28.2c17.6-9.2,15.2-9,65.9-38.7c33-19.4,44.9-25.8,62.5-30.9
				c8.7-2.6,25.7-5.3,42.6-5.3s34,2.7,42.7,5.3c17.6,5.1,29.5,11.6,62.5,30.9c50.7,29.7,48.2,29.5,65.9,38.7
				c20.9,10.9,39.4,20.5,65.5,28.2C529.5,461.1,543.4,463.7,554.6,465.2z"/>
			<path class="st0" d="M554.6,527.1v26.3c-74.6-4.1-115.9-10.5-140.3-15.9c-20.5-4.6-41.2-8.5-61.7-12.9
				c-12.3-2.6-25.1-5.4-42.8-7.8c-6.7-0.9-19.5-2.5-32.4-2.5c-12.8,0-25.7,1.6-32.4,2.5c-17.7,2.4-30.5,5.1-42.8,7.8
				c-20.6,4.5-41.2,8.4-61.8,12.9c-24.3,5.4-65.7,11.8-140.3,15.9v-26.3c46.8-2.6,82.4-12,107-20.5c35-12.2,65.1-25.4,65.1-25.4
				c25.4-11.2,41.1-19.6,67-25.8c7.9-1.9,23-4.4,38.1-4.4c15.1,0,30.3,2.5,38.1,4.4c25.9,6.2,41.6,14.7,67.1,25.8
				c0,0,30.1,13.3,65.1,25.4C472.2,515.2,507.8,524.5,554.6,527.1z"/>
		</g>
		<g>
			<path class="st0" d="M554.6,326.6v48.1c-42.9-19.9-96.1-67.8-149.4-103.7c-43.9-29.6-71.6-48.6-127.9-48.6
				c-28.1,0-49.1,4.7-68.6,13.2c-19.5,8.5-37.4,20.6-59.3,35.4C96.1,306.9,42.9,354.8,0,374.7v-48.1
				c42.2-34.9,41.5-43.9,100.8-113.1c34.7-40.5,64.7-70.2,93.1-89.8c28.4-19.6,55.2-29.2,83.3-29.2c56.3,0,107.1,38.1,176.5,119
				C513.1,282.7,512.4,291.6,554.6,326.6z"/>
			<path class="st0" d="M554.6,406.3V440c-30.5-9.3-53.9-20.2-69.9-28.5c-33.3-17.3-48.4-31.2-106.1-62.6
				c-13.9-7.6-31.3-16.8-56-22.7c-18.5-4.4-34.4-5.3-45.3-5.3c-10.9,0-26.7,0.9-45.3,5.3c-24.7,5.9-42.1,15.1-56,22.7
				c-57.6,31.5-72.8,45.3-106.1,62.6c-15.9,8.2-39.3,19.1-69.8,28.4v-33.7c14.5-5.3,33.2-13.4,53.6-25.7c4.9-2.9,13-8,43.1-30.5
				c46.5-34.7,45.7-36.5,67.4-51.1c24.3-16.4,42.1-28.2,68.7-36.3c9.3-2.9,26.7-5.9,44.4-6.1c16.5-0.2,33.4,2.3,44.5,6.1
				c26.3,8.9,44.4,19.8,68.7,36.3c21.7,14.6,21,16.4,67.4,51.1c30.2,22.5,38.3,27.6,43.2,30.5C521.4,392.9,540.1,400.9,554.6,406.3z
				"/>
			<path class="st0" d="M554.6,465.2v31.6c-16.2-1.6-38.2-4.7-63.8-11.3c-26.3-6.7-46.4-14.6-62.9-21.1
				c-31.8-12.5-37.6-17.5-75-31.7c-12.5-4.8-28.2-10.3-49.2-13.3c-10.8-1.5-19.9-1.9-26.4-2c-6.5,0-15.6,0.4-26.4,2
				c-21.1,3-36.7,8.5-49.2,13.3c-37.4,14.1-43.2,19.1-75,31.7c-16.4,6.5-36.6,14.4-62.9,21.1c-25.6,6.6-47.6,9.8-63.8,11.3v-31.6
				c11.2-1.5,25.1-4.1,40.7-8.7c26.1-7.7,44.7-17.3,65.5-28.2c17.6-9.2,15.2-9,65.9-38.7c33-19.4,44.9-25.8,62.5-30.9
				c8.7-2.6,25.7-5.3,42.6-5.3s34,2.7,42.7,5.3c17.6,5.1,29.5,11.6,62.5,30.9c50.7,29.7,48.2,29.5,65.9,38.7
				c20.9,10.9,39.4,20.5,65.5,28.2C529.5,461.1,543.4,463.7,554.6,465.2z"/>
			<path class="st0" d="M554.6,527.1v26.3c-74.6-4.1-115.9-10.5-140.3-15.9c-20.5-4.6-41.2-8.5-61.7-12.9
				c-12.3-2.6-25.1-5.4-42.8-7.8c-6.7-0.9-19.5-2.5-32.4-2.5c-12.8,0-25.7,1.6-32.4,2.5c-17.7,2.4-30.5,5.1-42.8,7.8
				c-20.6,4.5-41.2,8.4-61.8,12.9c-24.3,5.4-65.7,11.8-140.3,15.9v-26.3c46.8-2.6,82.4-12,107-20.5c35-12.2,65.1-25.4,65.1-25.4
				c25.4-11.2,41.1-19.6,67-25.8c7.9-1.9,23-4.4,38.1-4.4c15.1,0,30.3,2.5,38.1,4.4c25.9,6.2,41.6,14.7,67.1,25.8
				c0,0,30.1,13.3,65.1,25.4C472.2,515.2,507.8,524.5,554.6,527.1z"/>
		</g>
		<g>
			<path d="M554.6,326.6v48.1c-42.9-19.9-96.1-67.8-149.4-103.7c-43.9-29.6-71.6-48.6-127.9-48.6c-28.1,0-49.1,4.7-68.6,13.2
				c-19.5,8.5-37.4,20.6-59.3,35.4C96.1,306.9,42.9,354.8,0,374.7v-48.1c42.2-34.9,41.5-43.9,100.8-113.1
				c34.7-40.5,64.7-70.2,93.1-89.8c28.4-19.6,55.2-29.2,83.3-29.2c56.3,0,107.1,38.1,176.5,119C513.1,282.7,512.4,291.6,554.6,326.6
				z"/>
			<path d="M554.6,406.3V440c-30.5-9.3-53.9-20.2-69.9-28.5c-33.3-17.3-48.4-31.2-106.1-62.6c-13.9-7.6-31.3-16.8-56-22.7
				c-18.5-4.4-34.4-5.3-45.3-5.3c-10.9,0-26.7,0.9-45.3,5.3c-24.7,5.9-42.1,15.1-56,22.7c-57.6,31.5-72.8,45.3-106.1,62.6
				c-15.9,8.2-39.3,19.1-69.8,28.4v-33.7c14.5-5.3,33.2-13.4,53.6-25.7c4.9-2.9,13-8,43.1-30.5c46.5-34.7,45.7-36.5,67.4-51.1
				c24.3-16.4,42.1-28.2,68.7-36.3c9.3-2.9,26.7-5.9,44.4-6.1c16.5-0.2,33.4,2.3,44.5,6.1c26.3,8.9,44.4,19.8,68.7,36.3
				c21.7,14.6,21,16.4,67.4,51.1c30.2,22.5,38.3,27.6,43.2,30.5C521.4,392.9,540.1,400.9,554.6,406.3z"/>
			<path d="M554.6,465.2v31.6c-16.2-1.6-38.2-4.7-63.8-11.3c-26.3-6.7-46.4-14.6-62.9-21.1c-31.8-12.5-37.6-17.5-75-31.7
				c-12.5-4.8-28.2-10.3-49.2-13.3c-10.8-1.5-19.9-1.9-26.4-2c-6.5,0-15.6,0.4-26.4,2c-21.1,3-36.7,8.5-49.2,13.3
				c-37.4,14.1-43.2,19.1-75,31.7c-16.4,6.5-36.6,14.4-62.9,21.1c-25.6,6.6-47.6,9.8-63.8,11.3v-31.6c11.2-1.5,25.1-4.1,40.7-8.7
				c26.1-7.7,44.7-17.3,65.5-28.2c17.6-9.2,15.2-9,65.9-38.7c33-19.4,44.9-25.8,62.5-30.9c8.7-2.6,25.7-5.3,42.6-5.3
				s34,2.7,42.7,5.3c17.6,5.1,29.5,11.6,62.5,30.9c50.7,29.7,48.2,29.5,65.9,38.7c20.9,10.9,39.4,20.5,65.5,28.2
				C529.5,461.1,543.4,463.7,554.6,465.2z"/>
			<path d="M554.6,527.1v26.3c-74.6-4.1-115.9-10.5-140.3-15.9c-20.5-4.6-41.2-8.5-61.7-12.9c-12.3-2.6-25.1-5.4-42.8-7.8
				c-6.7-0.9-19.5-2.5-32.4-2.5c-12.8,0-25.7,1.6-32.4,2.5c-17.7,2.4-30.5,5.1-42.8,7.8c-20.6,4.5-41.2,8.4-61.8,12.9
				c-24.3,5.4-65.7,11.8-140.3,15.9v-26.3c46.8-2.6,82.4-12,107-20.5c35-12.2,65.1-25.4,65.1-25.4c25.4-11.2,41.1-19.6,67-25.8
				c7.9-1.9,23-4.4,38.1-4.4c15.1,0,30.3,2.5,38.1,4.4c25.9,6.2,41.6,14.7,67.1,25.8c0,0,30.1,13.3,65.1,25.4
				C472.2,515.2,507.8,524.5,554.6,527.1z"/>
		</g>
	</g>
	<path d="M25,252.7V25h504.5v227.7c6.7,6.5,14.6,13.4,25,21.7V0H0v274.5C10.5,266.1,18.3,259.3,25,252.7z"/>
</g>
</svg>
