<?xml version="1.0" encoding="utf-8"?>
<!-- Generator: Adobe Illustrator 27.2.0, SVG Export Plug-In . SVG Version: 6.00 Build 0)  -->
<svg version="1.1" id="Layer_1" xmlns="http://www.w3.org/2000/svg" xmlns:xlink="http://www.w3.org/1999/xlink" x="0px" y="0px"
	 viewBox="0 0 400 245" style="enable-background:new 0 0 400 245;" xml:space="preserve">
<style type="text/css">
	.st0{fill:#FFFFFF;}
</style>
<g>
	<g>
		<g>
			<polygon class="st0" points="152.6,91.5 152.6,82.8 148.2,82.8 148.2,95.7 161.1,95.7 161.1,91.5 			"/>
			<polygon class="st0" points="169.7,74.2 148.2,74.2 148.2,80.6 152.5,80.6 152.5,78.5 165.5,78.5 165.5,91.5 163.3,91.5 
				163.3,95.7 169.7,95.7 			"/>
			<g>
				<path class="st0" d="M175.5,74.4h6.6v15.8h9.4v5.4h-16L175.5,74.4L175.5,74.4z"/>
				<path class="st0" d="M194.3,74.4h16.5v5.4h-9.9v2.7h8.5v5h-8.5v8.1h-6.6V74.4z"/>
			</g>
			<path class="st0" d="M227.7,95.8h-11.9V74.4h11.9v1.4h-10.4v8.1h9.8v1.4h-9.8v9.2h10.4V95.8z"/>
			<path class="st0" d="M248.4,95.8h-1.5l-12.9-19h-0.2c0.2,2.3,0.2,4,0.2,5.1v13.9h-1.4V74.4h1.5l12.9,19h0.1
				c-0.1-1.8-0.2-3.4-0.2-5v-14h1.5L248.4,95.8L248.4,95.8z"/>
			<path class="st0" d="M266.5,95.8h-11.9V74.4h11.9v1.4h-10.4v8.1h9.8v1.4h-9.8v9.2h10.4V95.8z"/>
			<path class="st0" d="M273,86.5v9.3h-1.5V74.4h5.2c2.7,0,4.7,0.5,6,1.5c1.3,1,1.9,2.4,1.9,4.4c0,1.5-0.4,2.7-1.1,3.7
				c-0.8,1-1.9,1.7-3.5,2.1l5.9,9.8h-1.8l-5.6-9.3H273z M273,85.2h4.1c1.8,0,3.3-0.4,4.3-1.2c1-0.8,1.5-2,1.5-3.6
				c0-1.6-0.5-2.8-1.5-3.6c-1-0.8-2.6-1.1-4.9-1.1H273V85.2z"/>
			<path class="st0" d="M297.9,84.8h7.9v9.6c-2.1,0.8-4.4,1.3-7,1.3c-3.4,0-6-0.9-7.7-2.8c-1.8-1.9-2.7-4.5-2.7-7.9
				c0-2.1,0.5-4,1.3-5.7c0.9-1.7,2.1-2.9,3.8-3.8c1.7-0.9,3.6-1.4,5.7-1.4c2.3,0,4.4,0.5,6.3,1.3l-0.6,1.3c-1.8-0.8-3.7-1.3-5.7-1.3
				c-2.8,0-5,0.8-6.6,2.6s-2.4,4-2.4,6.9c0,3.1,0.8,5.5,2.4,7.1c1.5,1.6,3.8,2.4,6.9,2.4c2,0,3.6-0.3,5-0.8V86H298L297.9,84.8
				L297.9,84.8z"/>
			<path class="st0" d="M316.1,86l6.3-11.7h1.6l-7.2,13.1v8.3h-1.5v-8.1l-7.3-13.2h1.8L316.1,86z"/>
		</g>
	</g>
	<g>
		<path class="st0" d="M148.2,107.4h15.7c17.3,0,19.4,11.3,19.4,27.6s-2.2,27.6-19.4,27.6h-15.7V107.4z M157,155.8h7.3
			c7.3,0,10.3-4.8,10.3-20.9c0-15.5-2.6-20.9-10.3-20.9H157V155.8z"/>
		<path class="st0" d="M196.1,121l7.2,31.2h0.2l6.6-31.2h8.7L207.4,164c-3.2,11.3-5.9,12.8-14.5,12.7c-1.1,0-2.2-0.2-3.3-0.3v-6.6
			c0.9,0.2,1.8,0.3,2.7,0.3c2.9,0,4.7-0.6,5.6-3.2l1.1-3.4L187.2,121H196.1z"/>
		<path class="st0" d="M223.4,121h7.9v4.9h0.2c2.1-3.7,6-5.9,10.6-5.9c6.3,0,10.3,2.9,10.3,11.3v31.3h-8.3V134
			c0-5.4-1.6-7.5-5.8-7.5c-3.4,0-6.6,2.7-6.6,8.1v27.9h-8.3V121z"/>
		<path class="st0" d="M287.8,153.8c0,1.5,0.9,2.9,2.2,2.9c0.5,0,1.1-0.1,1.4-0.2v5.4c-1,0.5-2.5,1-4.1,1c-3.7,0-6.8-1.5-7-5.5h-0.2
			c-2.2,4.1-5.5,6.1-10.3,6.1c-6.6,0-10.8-3.7-10.8-11.7c0-9.3,4-11.2,9.6-13l6.5-1.8c3-0.8,4.9-1.7,4.9-5.3c0-3.8-1.3-6.2-5.7-6.2
			c-5.6,0-6.3,3.9-6.3,7.9H260c0-8.8,3.6-13.7,14.6-13.7c7.3,0,13.2,2.9,13.2,10.2V153.8z M279.9,140.6c-2.2,1.7-6.8,2.7-9.3,3.9
			c-2.4,1.2-3.4,3.6-3.4,6.7c0,3.5,1.7,6.3,5.2,6.3c5,0,7.5-3.8,7.5-9.9V140.6z"/>
		<path class="st0" d="M325.1,161.2c-1.8-1.3-3.2-3.3-4.1-6h-0.3c-0.9,2.7-2.3,4.7-4.1,6c-1.9,1.3-4.1,2-6.6,2
			c-4.4,0-7.8-1.4-10.3-4.3c-2.4-2.9-3.7-7.6-3.7-14.2c0-2.8,0.3-5.6,0.8-8.4c0.5-2.7,1.3-5.3,2.2-7.6c0.9-2.4,2-4.4,3.3-6h8.5
			c-2.1,3.1-3.7,6.6-4.8,10.5c-1.1,3.8-1.7,7.7-1.7,11.5c0,0.2,0,0.4,0,0.5c0,0.2,0,0.4,0,0.5c0,2.6,0.2,4.7,0.7,6.2
			c0.5,1.5,1.2,2.6,2.2,3.3c1,0.7,2.1,1,3.5,1c1.8,0,3.3-0.7,4.5-2.1c1.2-1.4,1.8-3.5,1.8-6.2V134h7.9v13.9c0,2.8,0.6,4.8,1.8,6.2
			c1.2,1.4,2.7,2.1,4.5,2.1c2.1,0,3.6-0.8,4.7-2.3s1.6-4.3,1.6-8.2c0-0.2,0-0.4,0-0.5c0-0.2,0-0.3,0-0.5c0-3.9-0.6-7.7-1.7-11.6
			s-2.7-7.3-4.9-10.5h8.6c1.2,1.6,2.3,3.6,3.2,6c0.9,2.4,1.7,4.9,2.2,7.7c0.5,2.8,0.8,5.5,0.8,8.4c0,4.4-0.6,8-1.7,10.7
			c-1.1,2.7-2.7,4.7-4.8,5.9s-4.6,1.8-7.5,1.8C329.1,163.1,326.9,162.5,325.1,161.2z"/>
		<path class="st0" d="M365.6,119.9c12.1,0,15.5,9,15.5,21.8c0,12.9-3.9,21.8-15.5,21.8c-11.5,0-15.4-9-15.4-21.8
			C350.1,128.8,353.5,119.9,365.6,119.9z M365.6,157.4c6.1,0,7.2-5.1,7.2-15.7c0-9.2-1.1-15.7-7.2-15.7c-6,0-7.1,6.5-7.1,15.7
			C358.5,152.3,359.5,157.4,365.6,157.4z"/>
	</g>
	<path class="st0" d="M69.3,158.4c2.1,2.6,4.1,5.3,6,8.1c2-2.7,4.1-5.4,6.2-8.1H69.3L69.3,158.4z"/>
	<path class="st0" d="M75.3,68.3c-2.6,0-4.6,2-4.6,4.6v37.8h1.4h6.5h1.4V72.9C79.9,70.3,77.9,68.3,75.3,68.3z"/>
	<path class="st0" d="M67.4,152.9h16.1c5.8-7.8,12.4-14.8,20.2-20.5H47.2C54.9,137.9,61.6,144.9,67.4,152.9z"/>
	<path class="st0" d="M121.5,117.7H29.1l0,0c-1.8,0-3.2,2-3.2,4.6c0,2.6,1.4,4.6,3.2,4.6h85.3c0,0,0.1,0,0.1,0c0.1,0,0.2,0,0.3,0v0
		h6.7c1.8,0,3.2-2,3.2-4.6C124.8,119.7,123.4,117.7,121.5,117.7z"/>
	<path class="st0" d="M117.6,146.5l-16.4,0v0c-0.6,0-1.2,0.3-1.6,1c-0.4,0.6-0.7,1.5-0.7,2.3c0,1.8,1,3.3,2.3,3.3h16.4
		c1.3,0,2.3-1.5,2.3-3.3c0-0.9-0.2-1.7-0.7-2.3C118.8,146.9,118.2,146.5,117.6,146.5z"/>
	<path class="st0" d="M56,157.7l-16.4,0v0c-1.3,0-2.3,1.5-2.3,3.3c0,1.8,1,3.3,2.3,3.3H56c0.6,0,1.2-0.3,1.6-1
		c0.4-0.6,0.7-1.5,0.7-2.3C58.3,159.2,57.3,157.7,56,157.7z"/>
	<path class="st0" d="M41.9,142c0-0.9-0.2-1.7-0.7-2.3s-1-1-1.6-1l-16.4,0v0c-1.3,0-2.3,1.5-2.3,3.3c0,1.8,1,3.3,2.3,3.3h16.4
		C40.8,145.3,41.9,143.8,41.9,142z"/>
</g>
</svg>
