<?xml version="1.0" encoding="UTF-8"?>
<svg id="Layer_1" data-name="Layer 1" xmlns="http://www.w3.org/2000/svg" viewBox="0 0 429.33 500">
  <defs>
    <style>
      .cls-1 {
        fill-rule: evenodd;
      }

      .cls-1, .cls-2 {
        fill: #fff;
      }
    </style>
  </defs>
  <g>
    <path class="cls-2" d="M208.99,323.04c-41.16,0-74.64-33.48-74.64-74.64s33.48-74.64,74.64-74.64,74.64,33.48,74.64,74.64-33.48,74.64-74.64,74.64ZM208.99,178.76c-38.4,0-69.64,31.24-69.64,69.64s31.24,69.64,69.64,69.64,69.64-31.24,69.64-69.64-31.24-69.64-69.64-69.64Z"/>
    <path class="cls-2" d="M151,293.82c0-9.63,6.16-19.5,15.22-22.59-3.66-3.08-5.78-7.7-5.78-12.33,0-8.86,7.13-15.99,15.8-15.99s15.99,7.13,15.99,15.99c0,4.62-2.12,9.25-5.78,12.33,3.27.96,6.16,2.89,8.67,5.39,2.7-5.59,8.28-9.25,14.45-9.25s11.94,3.66,14.64,9.25c2.31-2.5,5.39-4.43,8.67-5.39-.39-.39-.77-.77-1.16-1.16-2.89-2.89-4.62-6.93-4.62-11.17,0-8.86,7.13-15.99,15.8-15.99s15.99,7.13,15.99,15.99c0,4.82-2.12,9.25-5.78,12.33,8.86,3.08,15.22,11.56,15.22,21.19h-5.01c0-9.63-7.9-17.53-17.53-17.53h-5.78c-5.78,0-11.17,2.89-14.45,7.7v.58c0,5.01-2.12,9.25-5.78,12.33,8.86,3.08,15.22,11.75,15.22,21.38h-5.01c0-9.82-7.9-17.72-17.53-17.72h-5.78c-9.63,0-17.53,7.9-17.53,17.72h-4.82c0-9.63,6.16-18.3,15.22-21.38-3.66-2.89-5.78-7.51-5.78-12.33v-.58c-3.27-4.82-8.67-7.7-14.64-7.7h-5.59c-9.82,0-17.72,9.3-17.72,18.93h-4.82ZM209.56,272.2c-5.97,0-10.98,5.01-10.98,10.98s5.01,11.17,10.98,11.17,11.17-5.01,11.17-11.17-5.01-10.98-11.17-10.98ZM242.88,247.73c-5.97,0-10.98,5.01-10.98,11.17,0,2.89,1.16,5.78,3.27,7.7,1.93,2.12,4.62,3.27,7.7,3.27,6.16,0,11.17-5.01,11.17-10.98s-5.01-11.17-11.17-11.17ZM176.23,247.73c-5.97,0-10.98,5.01-10.98,11.17s5.01,10.98,10.98,10.98,11.17-5.01,11.17-10.98-5.01-11.17-11.17-11.17Z"/>
    <g>
      <path class="cls-2" d="M208.99,159.36c-1.8,0-3.25-1.46-3.25-3.25v-23.43c0-1.8,1.45-3.25,3.25-3.25s3.25,1.46,3.25,3.25v23.43c0,1.8-1.46,3.25-3.25,3.25Z"/>
      <path class="cls-2" d="M161.76,172.02c-1.12,0-2.22-.58-2.82-1.63l-11.7-20.26c-.9-1.55-.37-3.54,1.19-4.44,1.55-.9,3.54-.37,4.44,1.19l11.7,20.26c.9,1.55.37,3.54-1.19,4.44-.51.3-1.07.44-1.62.44Z"/>
      <path class="cls-2" d="M142.19,187.04c-.83,0-1.66-.32-2.3-.95l-28.82-28.82c-1.27-1.27-1.27-3.33,0-4.6,1.27-1.27,3.33-1.27,4.6,0l28.82,28.82c1.27,1.27,1.27,3.33,0,4.6-.63.63-1.47.95-2.3.95Z"/>
      <path class="cls-2" d="M127.17,206.6c-.55,0-1.11-.14-1.62-.44l-20.29-11.71c-1.55-.9-2.09-2.89-1.19-4.44.9-1.55,2.88-2.09,4.44-1.19l20.29,11.71c1.55.9,2.09,2.89,1.19,4.44-.6,1.04-1.69,1.63-2.82,1.63Z"/>
      <path class="cls-2" d="M117.74,229.39c-.28,0-.56-.04-.84-.11l-39.35-10.54c-1.73-.46-2.76-2.25-2.3-3.98.46-1.73,2.25-2.76,3.98-2.3l39.35,10.54c1.73.46,2.76,2.25,2.3,3.98-.39,1.45-1.7,2.41-3.14,2.41Z"/>
      <path class="cls-2" d="M114.52,253.84h-23.43c-1.8,0-3.25-1.46-3.25-3.25s1.46-3.25,3.25-3.25h23.43c1.8,0,3.25,1.46,3.25,3.25s-1.46,3.25-3.25,3.25Z"/>
      <path class="cls-2" d="M78.36,288.84c-1.44,0-2.75-.96-3.14-2.41-.46-1.73.56-3.52,2.3-3.98l39.37-10.55c1.73-.46,3.52.56,3.98,2.3.46,1.73-.56,3.52-2.3,3.98l-39.37,10.55c-.28.08-.56.11-.84.11Z"/>
      <path class="cls-2" d="M106.91,312.78c-1.12,0-2.22-.58-2.82-1.63-.9-1.55-.37-3.54,1.19-4.44l20.26-11.7c1.55-.9,3.54-.37,4.44,1.19.9,1.55.37,3.54-1.19,4.44l-20.26,11.7c-.51.3-1.07.44-1.62.44Z"/>
      <path class="cls-2" d="M113.37,349.46c-.83,0-1.66-.32-2.3-.95-1.27-1.27-1.27-3.33,0-4.6l28.82-28.82c1.27-1.27,3.33-1.27,4.6,0,1.27,1.27,1.27,3.33,0,4.6l-28.82,28.82c-.63.63-1.47.95-2.3.95Z"/>
      <path class="cls-2" d="M150.04,355.95c-.55,0-1.11-.14-1.62-.44-1.55-.9-2.09-2.89-1.19-4.44l11.71-20.29c.9-1.55,2.88-2.09,4.44-1.19,1.55.9,2.09,2.89,1.19,4.44l-11.71,20.29c-.6,1.04-1.69,1.63-2.82,1.63Z"/>
      <path class="cls-2" d="M174,384.45c-.28,0-.56-.04-.84-.11-1.73-.46-2.76-2.25-2.3-3.98l10.54-39.35c.46-1.73,2.25-2.76,3.98-2.3,1.73.46,2.76,2.25,2.3,3.98l-10.54,39.35c-.39,1.45-1.7,2.41-3.14,2.41Z"/>
      <path class="cls-2" d="M208.99,371.75c-1.8,0-3.25-1.46-3.25-3.25v-23.43c0-1.8,1.45-3.25,3.25-3.25s3.25,1.46,3.25,3.25v23.43c0,1.8-1.46,3.25-3.25,3.25Z"/>
      <path class="cls-2" d="M243.99,384.47c-1.44,0-2.75-.96-3.14-2.41l-10.55-39.37c-.46-1.73.56-3.52,2.3-3.98,1.73-.47,3.52.56,3.98,2.3l10.55,39.37c.46,1.73-.56,3.52-2.3,3.98-.28.08-.56.11-.84.11Z"/>
      <path class="cls-2" d="M267.93,355.92c-1.12,0-2.22-.58-2.82-1.63l-11.7-20.26c-.9-1.55-.37-3.54,1.19-4.44,1.55-.9,3.54-.37,4.44,1.19l11.7,20.26c.9,1.55.37,3.54-1.19,4.44-.51.3-1.07.44-1.62.44Z"/>
      <path class="cls-2" d="M304.62,349.46c-.83,0-1.66-.32-2.3-.95l-28.82-28.82c-1.27-1.27-1.27-3.33,0-4.6,1.27-1.27,3.33-1.27,4.6,0l28.82,28.82c1.27,1.27,1.27,3.33,0,4.6-.63.63-1.47.95-2.3.95Z"/>
      <path class="cls-2" d="M311.1,312.79c-.55,0-1.11-.14-1.62-.44l-20.29-11.71c-1.55-.9-2.09-2.89-1.19-4.44.9-1.55,2.89-2.09,4.44-1.19l20.29,11.71c1.55.9,2.09,2.89,1.19,4.44-.6,1.04-1.69,1.63-2.82,1.63Z"/>
      <path class="cls-2" d="M339.6,288.84c-.28,0-.56-.04-.84-.11l-39.35-10.54c-1.73-.46-2.76-2.25-2.3-3.98.46-1.73,2.25-2.76,3.98-2.3l39.35,10.54c1.73.46,2.76,2.25,2.3,3.98-.39,1.45-1.7,2.41-3.14,2.41Z"/>
      <path class="cls-2" d="M326.9,253.84h-23.43c-1.8,0-3.25-1.46-3.25-3.25s1.45-3.25,3.25-3.25h23.43c1.8,0,3.25,1.46,3.25,3.25s-1.45,3.25-3.25,3.25Z"/>
      <path class="cls-2" d="M300.25,229.39c-1.44,0-2.75-.96-3.14-2.41-.46-1.73.56-3.52,2.3-3.98l39.37-10.55c1.73-.46,3.52.56,3.98,2.3.46,1.73-.56,3.52-2.3,3.98l-39.37,10.55c-.28.08-.56.11-.84.11Z"/>
      <path class="cls-2" d="M290.81,206.6c-1.12,0-2.22-.58-2.82-1.63-.9-1.55-.37-3.54,1.19-4.44l20.26-11.7c1.55-.9,3.54-.37,4.44,1.19.9,1.55.37,3.54-1.19,4.44l-20.26,11.7c-.51.3-1.07.44-1.62.44Z"/>
      <path class="cls-2" d="M275.8,187.04c-.83,0-1.66-.32-2.3-.95-1.27-1.27-1.27-3.33,0-4.6l28.82-28.82c1.27-1.27,3.33-1.27,4.6,0,1.27,1.27,1.27,3.33,0,4.6l-28.82,28.82c-.63.63-1.47.95-2.3.95Z"/>
      <path class="cls-2" d="M256.23,172.02c-.55,0-1.11-.14-1.62-.44-1.55-.9-2.09-2.89-1.19-4.44l11.71-20.29c.9-1.55,2.88-2.09,4.44-1.19,1.55.9,2.09,2.89,1.19,4.44l-11.71,20.29c-.6,1.04-1.69,1.63-2.82,1.63Z"/>
      <path class="cls-2" d="M184.54,162.59c-1.44,0-2.75-.96-3.14-2.41l-10.55-39.37c-.46-1.73.56-3.52,2.3-3.98,1.73-.46,3.52.56,3.98,2.3l10.55,39.37c.46,1.73-.56,3.52-2.3,3.98-.28.08-.56.11-.84.11Z"/>
      <path class="cls-2" d="M233.45,162.59c-.28,0-.56-.04-.84-.11-1.73-.46-2.76-2.25-2.3-3.98l10.54-39.35c.46-1.73,2.25-2.76,3.98-2.3,1.73.46,2.76,2.25,2.3,3.98l-10.54,39.35c-.39,1.45-1.7,2.41-3.14,2.41Z"/>
    </g>
  </g>
  <g>
    <path class="cls-2" d="M400.33,241.91c-2.16-48.47-22.29-93.72-57.05-127.9-36.04-35.44-83.73-54.96-134.29-54.96-81.77,0-154.57,51.91-181.16,129.18l6.95,2.39c25.57-74.3,95.58-124.22,174.21-124.22,48.61,0,94.48,18.77,129.13,52.85,33.24,32.69,52.57,75.91,54.82,122.23l-23.37-23.37-5.2,5.2,32.47,32.47,32.47-32.47-5.2-5.2-23.79,23.79Z"/>
    <path class="cls-2" d="M17.65,259.27c2.16,48.47,22.29,93.72,57.05,127.9,36.04,35.44,83.73,54.96,134.29,54.96,81.77,0,154.57-51.91,181.16-129.18l-6.95-2.39c-25.57,74.3-95.58,124.22-174.21,124.22-48.61,0-94.47-18.77-129.13-52.85-33.24-32.69-52.57-75.9-54.82-122.23"/>
  </g>
  <path class="cls-1" d="M20.5,265.65c-2.98,0-2.55-.22-2.55-4.49l-1.19-.35c-6.07-1.78-11.51-7.3-11.51-13.76v-9.84h-2.49c-2.21,0-3.8-2.69-1.92-4.71.51-.5,1.19-.79,1.92-.79h0s6.03,0,6.03,0v-18.43c0-3.25,4.91-3.25,4.91,0v18.43h15.53v-18.43c0-3.25,4.92-3.25,4.92,0v18.43h6.03c2.4,0,3.69,2.94,1.94,4.69-1.09,1.09-2.65.81-4.44.81v9.84c0,3.91-2.08,7.56-4.94,10.11-2.52,2.25-4.69,3.09-7.77,4,0,4.04.44,4.49-2.35,4.49"/>
  <circle class="cls-2" cx="386.19" cy="307.71" r="13.37"/>
</svg>