<?xml version="1.0" encoding="utf-8"?>
<!-- Generator: Adobe Illustrator 25.4.1, SVG Export Plug-In . SVG Version: 6.00 Build 0)  -->
<svg version="1.1" id="Layer_1" xmlns="http://www.w3.org/2000/svg" xmlns:xlink="http://www.w3.org/1999/xlink" x="0px" y="0px"
	 viewBox="0 0 1000 165" style="enable-background:new 0 0 1000 165;" xml:space="preserve">
<style type="text/css">
	.st0{fill:#FFFFFF;}
	.st1{fill:none;}
	.st2{fill:#FCB739;}
	.st3{fill:#FF7D08;}
	.st4{fill:#FE4A5D;}
	.st5{fill:#003764;}
	.st6{fill:#009ADE;}
</style>
<g>
	<path class="st1" d="M48.6340332,45.2796211c-3.376709,3.3766479-5.236084,7.8743896-5.236084,12.664917
		c0,4.7904663,1.859375,9.2882118,5.2352295,12.6632118c3.3766479,3.376709,7.8743896,5.2360229,12.664917,5.2360229
		c1.1334229,0,2.2484741-0.1120605,3.3383179-0.3157959l2.2579956-0.5842285
		c2.6359863-0.8618774,5.0545654-2.3219604,7.0686035-4.3359985c3.3758545-3.375,5.2360229-7.8727455,5.2360229-12.6632118
		c0-4.7905273-1.8601685-9.288269-5.2360229-12.6641235c-3.3843384-3.3834229-7.8820801-5.2470093-12.664917-5.2470093
		c-1.3289185,0-2.6314087,0.157959-3.8983154,0.4380493l-1.4373169,0.3718872
		C53.2260742,41.6935005,50.7172852,43.1953316,48.6340332,45.2796211z"/>
	<path class="st1" d="M58.7789307,31.1383877l33.8881836-8.7678223
		c-8.4031372-7.3242188-19.3726807-11.7752075-31.3690186-11.7752075c-2.6121826,0-5.1732788,0.21875-7.6728516,0.6237793
		L58.7789307,31.1383877z"/>
	<path class="st1" d="M348.7453003,27.4319057c0-2.4035645-0.8012085-4.2730103-2.2700195-5.3412476
		c-1.602417-1.2017212-4.0059204-1.7358398-7.4776611-1.7358398h-5.3411865v14.2876568h0.1334839h6.2759399
		c2.8041382,0,5.0740967-0.5341187,6.4094238-1.8693848C347.9440918,31.57131,348.7453003,29.8354092,348.7453003,27.4319057z"/>
	<path class="st1" d="M75.8779297,35.6906319c1.5061646,0.9911499,2.9243774,2.1397095,4.229126,3.4440308
		C85.125,44.152607,87.8889771,50.8321724,87.8889771,57.9445381c0,4.376709-1.050354,8.5877113-3.0248413,12.3501015
		l23.7753296-6.1511841c0.3016357-1.9927406,0.4711304-3.9132118,0.4711304-5.734745
		c0-10.8114014-3.6113892-20.7924805-9.6848755-28.810545L75.8779297,35.6906319z"/>
	<polygon class="st1" points="450.5254517,85.0988998 441.3297119,123.1853256 459.6159058,123.1853256 450.7426758,85.0988998 	"/>
	<path class="st1" d="M507.451355,84.0177841h-7.8989868v26.7249756h8.7645874
		c6.598938,0,12.3339844-3.5693359,12.3339844-13.3082275C520.6509399,89.1027451,517.2971802,84.0177841,507.451355,84.0177841z"/>
	<path class="st1" d="M39.6454468,119.6802597l13.0379639-3.3733521l-6.9622192-26.9095459l-20.8128662,5.3845215
		C29.2935181,103.3305893,34.4796143,111.864769,39.6454468,119.6802597z"/>
	<path class="st1" d="M224.9024658,84.0177841h-10.4941406v25.102356h9.8458252
		c7.8989868,0,12.3356323-4.7608032,12.3356323-12.5512085C236.5897827,88.345787,233.0187378,84.0177841,224.9024658,84.0177841z"
		/>
	<path class="st1" d="M308.9268188,84.0177841h-10.1699829v58.645256h10.1699829
		c10.1716309,0,14.3909912-6.7092896,14.3909912-29.3234787C323.3178101,91.5926132,319.6398926,84.0177841,308.9268188,84.0177841z
		"/>
	<path class="st1" d="M88.8905029,78.2289047l5.7336426,21.5787964c4.8963013-8.8757935,9.109375-17.8535156,11.7108154-26.0919189
		L88.8905029,78.2289047z"/>
	<path class="st1" d="M63.2727661,122.5415878l4.6776733,18.0795212
		c4.6921387-6.3314209,10.5130005-14.5215378,16.2935791-23.5054245L63.2727661,122.5415878z"/>
	<polygon class="st1" points="912.7457886,85.0988998 903.5500488,123.1853256 921.8363037,123.1853256 912.9630127,85.0988998 	"/>
	<path class="st1" d="M54.8596802,124.7183456l-10.0314331,2.595459
		c6.6482544,9.5386276,12.7470703,17.398674,16.3799438,21.9419479L54.8596802,124.7183456z"/>
	<path class="st1" d="M46.6826782,80.1729355c-1.4938354-0.9854126-2.8998413-2.1263428-4.1936035-3.4202881
		c-5.0179443-5.0162354-7.7810669-11.6958008-7.7810669-18.8081093c0-4.3919678,1.0567017-8.6174316,3.0442505-12.3897095
		L13.963623,51.7096138c-0.3085938,2.1904907-0.4789429,4.4248657-0.4789429,6.6990967
		c0,8.3212929,3.019104,18.2012978,7.579895,28.3921547L46.6826782,80.1729355z"/>
	<path class="st1" d="M969.668335,84.0177841h-7.8973389v26.7249756h8.7629395
		c6.600647,0,12.3356323-3.5693359,12.3356323-13.3082275C982.8695679,89.1027451,979.5158081,84.0177841,969.668335,84.0177841z"/>
	<path class="st1" d="M50.3658447,33.3150826L45.210083,13.3878384
		c-13.3745117,4.7939453-24.0114746,15.3822632-28.8637695,28.729063L50.3658447,33.3150826z"/>
	<path class="st1" d="M80.4777222,80.4053574L69.520813,83.2400742c-1.0155029,0.328125-2.0512085,0.5996094-3.1062012,0.8035889
		l-12.2803345,3.177063l6.9622192,26.9094238l26.5194092-6.8614502L80.4777222,80.4053574z"/>
	<polygon class="st1" points="560.7282104,85.0988998 551.5308228,123.1853256 569.8153076,123.1853256 560.9437866,85.0988998 	"/>
	<polygon points="210.2749634,42.2536812 195.9872437,42.2536812 195.9872437,18.2183437 186.1060791,18.2183437 
		186.1060791,50.5324898 210.2749634,50.5324898 	"/>
	<polygon points="224.5626221,38.2477608 237.5150146,38.2477608 237.5150146,30.6366177 224.5626221,30.6366177 
		224.5626221,26.4971523 239.5179443,26.4971523 239.5179443,18.2183437 214.5479126,18.2183437 214.5479126,50.5324898 
		224.5626221,50.5324898 	"/>
	<polygon points="265.1556396,48.663105 249.5327148,48.663105 249.5327148,34.7760201 264.3544922,34.7760201 
		264.3544922,32.6395454 249.5327148,32.6395454 249.5327148,20.3548183 265.1556396,20.3548183 265.1556396,18.2183437 
		247.1291504,18.2183437 247.1291504,50.7995796 265.1556396,50.7995796 	"/>
	<path d="M274.6362915,21.8236294l19.6288452,28.9759502h2.4035645h0.1335449V18.2183437h-2.2700195V39.449543
		c0,2.4035645,0.1335449,4.9406128,0.2670288,7.6112061h-0.2670288l-19.6289062-28.8424053h-2.2699585v32.4476929h2.1364746
		V29.5683804c0-1.7359009-0.1335449-4.2729492-0.2670898-7.744751H274.6362915z"/>
	<polygon points="324.0422974,48.663105 308.4193115,48.663105 308.4193115,34.7760201 323.2410889,34.7760201 
		323.2410889,32.6395454 308.4193115,32.6395454 308.4193115,20.3548183 324.0422974,20.3548183 324.0422974,18.2183437 
		306.0157471,18.2183437 306.0157471,50.7995796 324.0422974,50.7995796 	"/>
	<path d="M349.6799927,32.7730904c1.2017212-1.4688702,1.7358398-3.3382549,1.7358398-5.6082745
		c0-3.071167-1.0682373-5.2076416-2.9376831-6.8099976c-2.0029297-1.4688721-5.0740967-2.2700195-9.0799561-2.2700195h-7.8782959
		v32.7147827h2.2700195V36.5119209l8.1453247,0.1334839l8.6794434,14.1541748h2.8041382l-8.9464722-14.8217773
		C346.7423706,35.4436836,348.4782104,34.2419014,349.6799927,32.7730904z M340.0658569,34.6424751h-6.2759399h-0.1334839
		V20.3548183h5.3411865c3.4717407,0,5.8752441,0.5341187,7.4776611,1.7358398
		c1.468811,1.0682373,2.2700195,2.9376831,2.2700195,5.3412476c0,2.4035034-0.8012085,4.1394043-2.2700195,5.3411846
		C345.1399536,34.1083565,342.8699951,34.6424751,340.0658569,34.6424751z"/>
	<path d="M383.5964966,48.3960152V33.9748116h-11.8840942l0.1334839,2.1364746h9.6141968V47.194294
		c-2.1364746,0.8011475-4.6735229,1.2017212-7.6112061,1.2017212c-4.673584,0-8.1453247-1.2017212-10.4153442-3.6052856
		c-2.4035034-2.4035034-3.6052856-6.0088501-3.6052856-10.815918c0-4.4064312,1.2017822-7.878233,3.7388306-10.4152813
		c2.4035034-2.6705933,5.8753052-3.8723755,10.1482544-3.8723755c2.9376831,0,5.8753052,0.6676636,8.6794434,2.0029297
		l0.9346924-2.0029297c-2.8041382-1.2017822-6.0088501-2.0029297-9.4805908-2.0029297
		c-3.3382568,0-6.142395,0.6676025-8.6794434,2.0029297c-2.5370483,1.3352661-4.4064941,3.3382568-5.8753052,5.8753052
		c-1.3352661,2.5370483-2.0029297,5.3411865-2.0029297,8.5458965c0,5.2076416,1.3352661,9.213562,4.0058594,12.0177002
		c2.6705933,2.8040771,6.6765137,4.2729492,11.7506104,4.2729492
		C376.9200439,50.3990059,380.5253296,49.8648872,383.5964966,48.3960152z"/>
	<polygon points="398.0177612,50.5324898 400.4212646,50.5324898 400.4212646,37.980732 411.3707275,18.2183437 
		408.9672241,18.2183437 399.3530273,35.8442574 389.7388916,18.2183437 387.0682983,18.2183437 398.0177612,38.2477608 	"/>
	<path d="M165.3729248,120.5885239h12.9840088c0,16.8809128-3.4624023,23.6970749-12.8753662,23.5884323
		c-8.3301392,0-12.4425659-6.2764282-12.4425659-31.1616135c0-24.6695557,4.6521606-30.5132446,13.4168091-30.5132446
		c8.4387207,0,10.8200073,6.8178711,10.8200073,12.5529175v1.8381348h11.6855469v-1.4070435
		c0-7.0317383-3.2451172-22.2883301-22.6141968-22.2883301c-17.8517456,0-25.6421509,12.5512085-25.6421509,40.1417847
		c0,27.5922775,6.0592041,40.141777,22.9367065,40.141777c9.0905151,0,13.5254517-3.3538208,16.8809204-10.4941406h0.2155151
		v8.9801636h9.3060913v-40.6832199h-24.6713257V120.5885239z"/>
	<path d="M248.5995483,145.2598419c-0.2172241-4.6538696-0.3258667-10.7130737-0.4328003-15.6894531
		c-0.4328003-10.8199997-4.4366455-15.041069-12.1184082-15.798027v-0.2155762
		c8.4387817-1.2984009,12.8753662-8.9801636,12.8753662-18.9362793c0-14.4979248-8.7645874-19.9088135-19.5845947-19.9088135
		h-27.2664185v77.2556686h12.3356323v-33.5411301h10.0630493c8.4387207,0,11.0355225,3.6779175,11.2528076,12.1184006
		c0.2155151,5.6246948,0.1069336,9.9526978,0.5397339,14.6065674c0.3258667,3.0296021,0.8656006,5.4091187,2.0570679,6.8161621
		h13.956543C250.6549072,150.8845367,248.8151245,149.046402,248.5995483,145.2598419z M224.2541504,109.1201401h-9.8458252
		v-25.102356h10.4941406c8.116272,0,11.6873169,4.3280029,11.6873169,12.5511475
		C236.5897827,104.3593369,232.1531372,109.1201401,224.2541504,109.1201401z"/>
	<rect x="261.0744019" y="74.7116928" width="12.3339233" height="77.2556763"/>
	<path d="M308.387085,74.7116928h-21.9658813v77.2556686h21.9658813c24.2368164,0,27.2647095-15.7980347,27.2647095-38.6278
		S332.6239014,74.7116928,308.387085,74.7116928z M308.9268188,142.6630402h-10.1699829v-58.645256h10.1699829
		c10.7130737,0,14.3909912,7.5748291,14.3909912,29.3217773
		C323.3178101,135.9537506,319.0984497,142.6630402,308.9268188,142.6630402z"/>
	<path d="M405.5481567,125.5665512c0,7.1403732-1.1897583,18.610405-11.4700317,18.610405
		c-9.0870972,0-13.199585-6.2764282-13.199585-31.1616135c0-24.8851318,4.1124878-30.5132446,13.199585-30.5132446
		c8.87323-0.3241577,11.0372314,7.8990479,11.0372314,15.0410767v1.2984009h12.3339844v-1.4070435
		c0-8.0076294-1.2967529-24.2367554-23.2626343-24.2367554c-19.5828857,0-25.6420898,12.5512085-25.6420898,40.1417847
		c0,27.5922775,6.0592041,40.141777,25.5335083,40.141777c18.1776123,0,23.8056641-13.6323853,23.8056641-27.5905685v-1.6226196
		h-12.3356323V125.5665512z"/>
	<path d="M443.1694946,74.7116928l-21.9658813,77.2556686h12.8754272l4.9780273-18.9345703h22.6142578l4.7608032,18.9345703
		h12.8753662l-20.3416138-77.2556686H443.1694946z M441.3297119,123.1853256l9.1957397-38.0864258h0.2172241l8.87323,38.0864258
		H441.3297119z"/>
	<path d="M511.6707764,74.7116928h-24.4541016v77.2556686h12.3356934V120.04879h10.8200073
		c14.4979248,0,22.6124878-8.9818726,22.6124878-22.8314819C532.9848633,84.0177841,526.4945679,74.7116928,511.6707764,74.7116928z
		 M508.3169556,110.7427597h-8.7645874V84.0177841h7.8989868c9.8458252,0,13.199585,5.0849609,13.199585,13.416748
		C520.6509399,107.1734238,514.9158936,110.7427597,508.3169556,110.7427597z"/>
	<path d="M553.3688965,74.7116928l-21.9641724,77.2556686h12.8770752l4.9763794-18.9345703h22.6141968l4.7608032,18.9345703
		h12.8754272l-20.3416138-77.2556686H553.3688965z M551.5308228,123.1853256l9.1973877-38.0864258h0.2155762l8.871521,38.0864258
		H551.5308228z"/>
	<path d="M630.3530273,125.5665512c0,7.1403732-1.1897583,18.610405-11.4700317,18.610405
		c-9.0870972,0-13.199585-6.2764282-13.199585-31.1616135c0-24.8851318,4.1124878-30.5132446,13.199585-30.5132446
		c8.87323-0.3241577,11.0372314,7.8990479,11.0372314,15.0410767v1.2984009h12.3339844v-1.4070435
		c0-8.0076294-1.2967529-24.2367554-23.2625732-24.2367554c-19.5829468,0-25.6421509,12.5512085-25.6421509,40.1417847
		c0,27.5922775,6.0592041,40.141777,25.5335083,40.141777c18.1776123,0,23.8056641-13.6323853,23.8056641-27.5905685v-1.6226196
		h-12.3356323V125.5665512z"/>
	<rect x="652.3936157" y="74.7116928" width="12.3339233" height="77.2556763"/>
	<polygon points="673.0016479,85.0988998 691.3965454,85.0988998 691.3965454,151.9673615 703.7321777,151.9673615 
		703.7321777,85.0988998 721.8011475,85.0988998 721.8011475,74.7116928 673.0016479,74.7116928 	"/>
	<polygon points="754.1083984,108.0390244 741.1243896,74.7116928 727.3834229,74.7116928 747.2922363,121.7799911 
		747.2922363,151.9673615 759.6262207,151.9673615 759.6262207,121.7799911 780.2937012,74.7116928 767.416626,74.7116928 	"/>
	<polygon points="843.1549072,131.9499664 842.9376831,131.9499664 829.3052979,74.7116928 810.0448608,74.7116928 
		810.0448608,151.9673615 821.7304688,151.9673615 821.7304688,87.6957016 821.9476929,87.6957016 837.5285034,151.9673615 
		847.9157104,151.9673615 863.496521,87.6957016 863.7120972,87.6957016 863.7120972,151.9673615 875.3977051,151.9673615 
		875.3977051,74.7116928 856.5717163,74.7116928 	"/>
	<path d="M905.3898926,74.7116928l-21.9658813,77.2556686h12.8753662l4.9780884-18.9345703h22.6141968l4.7608032,18.9345703
		h12.8753662l-20.3416138-77.2556686H905.3898926z M903.5500488,123.1853256l9.1957397-38.0864258h0.2172241l8.873291,38.0864258
		H903.5500488z"/>
	<path d="M973.8894043,74.7116928h-24.4540405v77.2556686h12.3356323V120.04879h10.8200073
		c14.4979858,0,22.6142578-8.9818726,22.6142578-22.8314819C995.2052612,84.0177841,988.7115479,74.7116928,973.8894043,74.7116928z
		 M970.5339355,110.7427597h-8.7629395V84.0177841h7.8973389c9.8474731,0,13.2012329,5.0849609,13.2012329,13.416748
		C982.8695679,107.1734238,977.1345825,110.7427597,970.5339355,110.7427597z"/>
	<polygon points="164.3406982,44.1230659 151.3883057,44.1230659 151.3883057,31.0371914 144.711853,31.0371914 
		144.711853,50.5324898 164.3406982,50.5324898 	"/>
	<polygon points="151.2548218,24.4942226 170.883667,24.4942226 170.883667,44.1230659 167.6789551,44.1230659 
		167.6789551,50.5324898 177.4266357,50.5324898 177.4266357,17.9512539 144.711853,17.9512539 144.711853,27.6989346 
		151.2548218,27.6989346 	"/>
	<path d="M61.2980957,1.9054161c-31.1557007,0-56.5033569,25.3476562-56.5033569,56.5032959
		c0,37.3082314,51.0628052,98.1310425,53.236145,100.7023926l3.3690186,3.9834595l3.3088379-4.0326538
		c2.1673584-2.6443481,53.0917969-65.1372604,53.0917969-100.6531982
		C117.8005371,27.2530727,92.4537354,1.9054161,61.2980957,1.9054161z M92.6671143,22.3705654l-33.8881836,8.7678223
		l-5.1536865-19.9192505c2.4995728-0.4050293,5.0606689-0.6237793,7.6728516-0.6237793
		C73.2944336,10.5953579,84.2639771,15.0463467,92.6671143,22.3705654z M61.2980957,40.0334053
		c4.7828369,0,9.2805786,1.8635864,12.664917,5.2470093c3.3758545,3.3758545,5.2360229,7.8735962,5.2360229,12.6641235
		c0,4.7904663-1.8601685,9.2882118-5.2360229,12.6632118c-2.0140381,2.0140381-4.4326172,3.4741211-7.0686035,4.3359985
		l-2.2579956,0.5842285c-1.0898438,0.2037354-2.204895,0.3157959-3.3383179,0.3157959
		c-4.7905273,0-9.288269-1.859314-12.664917-5.2360229c-3.3758545-3.375-5.2352295-7.8727455-5.2352295-12.6632118
		c0-4.7905273,1.859375-9.288269,5.236084-12.664917c2.083252-2.0842896,4.592041-3.5861206,7.3284302-4.4362793
		l1.4373169-0.3718872C58.666687,40.1913643,59.9691772,40.0334053,61.2980957,40.0334053z M63.2727661,122.5415878
		l20.9712524-5.4259033c-5.7805786,8.9838867-11.6014404,17.1740036-16.2935791,23.5054245L63.2727661,122.5415878z
		 M45.7211914,89.3973618l6.9622192,26.9095459l-13.0379639,3.3733521
		c-5.1658325-7.8154907-10.3519287-16.3496704-14.7371216-24.8983765L45.7211914,89.3973618z M54.1342773,87.220726
		l12.2803345-3.177063c1.0549927-0.2039795,2.0906982-0.4754639,3.1062012-0.8035889l10.9569092-2.8347168l7.1381836,26.8633423
		l-26.5194092,6.8614502L54.1342773,87.220726z M88.8905029,78.2289047l17.444458-4.5131226
		c-2.6014404,8.2384033-6.8145142,17.2161255-11.7108154,26.0919189L88.8905029,78.2289047z M45.210083,13.3878384
		l5.1557617,19.9272442l-34.0195312,8.8018188C21.1986084,28.7701015,31.8355713,18.1817837,45.210083,13.3878384z
		 M13.963623,51.7096138l23.7886353-6.1547852c-1.9875488,3.7722778-3.0442505,7.9977417-3.0442505,12.3897095
		c0,7.1123085,2.7631226,13.7918739,7.7810669,18.8081093c1.2937622,1.2939453,2.6997681,2.4348755,4.1936035,3.4202881
		l-25.618103,6.6279297c-4.560791-10.1908569-7.579895-20.0708618-7.579895-28.3921547
		C13.4846802,56.1344795,13.6550293,53.9001045,13.963623,51.7096138z M44.8282471,127.3138046l10.0314331-2.595459
		l6.3485107,24.5374069C57.5753174,144.7124786,51.4765015,136.8524323,44.8282471,127.3138046z M108.6394653,64.1434555
		l-23.7753296,6.1511841c1.9744873-3.7623901,3.0248413-7.9733925,3.0248413-12.3501015
		c0-7.1123657-2.7639771-13.7919312-7.7819214-18.8098755c-1.3047485-1.3043213-2.7229614-2.4528809-4.229126-3.4440308
		l23.5477905-6.0924664c6.0734863,8.0180645,9.6848755,17.9991436,9.6848755,28.810545
		C109.1105957,60.2302437,108.9411011,62.1507149,108.6394653,64.1434555z"/>
</g>
</svg>
