<?xml version="1.0" encoding="utf-8"?>
<!-- Generator: Adobe Illustrator 28.1.0, SVG Export Plug-In . SVG Version: 6.00 Build 0)  -->
<svg version="1.1" id="Layer_1" xmlns="http://www.w3.org/2000/svg" xmlns:xlink="http://www.w3.org/1999/xlink" x="0px" y="0px"
	 width="800px" height="270.4px" viewBox="0 0 800 270.4" style="enable-background:new 0 0 800 270.4;" xml:space="preserve">
<style type="text/css">
	.st0{fill:#5B95CF;}
	.st1{fill:#213A64;}
	.st2{fill:#010101;}
	.st3{fill:#FFFFFF;}
	.st4{fill:#5B95CF;stroke:#5B95CF;stroke-miterlimit:10;}
	.st5{fill:none;}
	.st6{fill:#FFFFFF;stroke:#FFFFFF;stroke-miterlimit:10;}
</style>
<g>
	<g>
		<g>
			<g>
				<polygon class="st3" points="375.4,50.2 375.4,28.8 364.6,28.8 364.6,60.8 396.6,60.8 396.6,50.2 				"/>
				<polygon class="st3" points="418,7.4 364.6,7.4 364.6,23.3 375.2,23.3 375.2,18 407.4,18 407.4,50.2 402.1,50.2 402.1,60.8 
					418,60.8 				"/>
				<g>
					<path class="st3" d="M432.2,8h16.3v39.2h23.3v13.4h-39.5L432.2,8L432.2,8z"/>
					<path class="st3" d="M478.7,8h40.9v13.4H495v6.6h21v12.5h-21v20.1h-16.3V8z"/>
				</g>
				<path class="st3" d="M561.4,61h-29.5V7.8h29.5v3.4h-25.7v20.1h24.2v3.4h-24.2v22.7h25.7V61z"/>
				<path class="st3" d="M612.9,61h-3.8l-32-47.1h-0.4c0.4,5.7,0.4,9.8,0.4,12.7V61h-3.4V7.8h3.8l32,47.1h0.2
					c-0.2-4.4-0.4-8.5-0.4-12.5V7.8h3.6L612.9,61L612.9,61z"/>
				<path class="st3" d="M657.5,61H628V7.8h29.5v3.4h-25.7v20.1H656v3.4h-24.2v22.7h25.7V61z"/>
				<path class="st3" d="M673.6,37.9V61h-3.8V7.8h12.9c6.6,0,11.5,1.1,14.8,3.6s4.7,6.1,4.7,11c0,3.6-0.9,6.6-2.8,9.1
					s-4.7,4.2-8.7,5.3L705.2,61h-4.5l-13.8-23.1H673.6z M673.6,34.7h10.2c4.5,0,8.1-0.9,10.6-3c2.5-2.1,3.8-4.9,3.8-8.9
					s-1.1-7-3.6-8.9s-6.4-2.8-12.1-2.8h-8.9V34.7z"/>
				<path class="st3" d="M735.3,33.7h19.5v23.7c-5.1,2.1-10.8,3.2-17.2,3.2c-8.3,0-14.8-2.3-19.1-7c-4.4-4.7-6.6-11.2-6.6-19.7
					c0-5.3,1.1-10,3.2-14c2.3-4.2,5.3-7.2,9.5-9.5c4.2-2.3,8.9-3.4,14.2-3.4c5.7,0,11,1.1,15.5,3.2l-1.5,3.2
					c-4.5-2.1-9.3-3.2-14.2-3.2c-7,0-12.5,2.1-16.5,6.4c-4,4.4-6.1,10-6.1,17c0,7.8,1.9,13.6,5.9,17.6c3.8,4,9.5,5.9,17,5.9
					c4.9,0,8.9-0.8,12.3-2.1V36.8h-15.7v-3H735.3z"/>
				<path class="st3" d="M780.3,36.8L796,7.8h4l-17.8,32.4v20.4h-3.8V40.6l-18-32.7h4.4L780.3,36.8z"/>
			</g>
		</g>
		<g>
			<path class="st3" d="M440,231.6h-0.4c-6.4,13.9-14.9,20.1-32.4,20.1c-32.4,0-44-24.1-44-77s14.9-77,49.2-77
				c37.2,0,43.4,29.3,43.4,42.8v2.7h-22.4v-3.5c0-11-4.6-24.1-20.8-24.1c-16.8,0-25.7,11.2-25.7,58.5c0,47.7,7.9,59.8,23.9,59.8
				c18.1,0.2,24.7-12.9,24.7-45.3h-24.9v-17.9h47.3v78H440V231.6z"/>
			<path class="st3" d="M478.2,100.6h52.3c20.8,0,37.6,10.6,37.6,38.2c0,19.1-8.3,33.8-24.7,36.3v0.4c14.9,1.5,22.4,9.5,23.2,30.3
				c0.2,9.8,0.2,21.2,0.8,30.1c0.6,7.3,3.9,10.6,7.1,12.9h-26.8c-2.3-2.7-3.3-7.3-3.9-13.1c-0.4-4.4-0.6-8.9-0.6-13.3
				c0-4.4-0.2-9.3-0.4-14.7c-0.6-16.2-5.6-23.2-21.6-23.2h-19.3v64.3h-23.7V100.6z M520.7,166.6c15.2,0,23.7-9.1,23.7-24.1
				c0-15.8-6.6-24.1-22.4-24.1h-20.1v48.2H520.7z"/>
			<path class="st3" d="M588.6,100.6h23.7v148.2h-23.7V100.6z"/>
			<path class="st3" d="M635.7,100.6h46.9c28.4,0,40.9,17.9,40.9,43.2c0,26.6-15.8,43.8-43.4,43.8h-20.8v61.2h-23.7V100.6z
				 M659.4,169.7h16.8c12.7,0,23.7-6.6,23.7-25.5c0-16-6.4-25.7-25.3-25.7h-15.2V169.7z"/>
		</g>
	</g>
	<path class="st3" d="M53.2,8.8c24.8,0,44.9,20.2,44.9,44.9S78,98.7,53.2,98.7c-24.8,0-44.9-20.2-44.9-44.9S28.5,8.8,53.2,8.8
		 M53.2,0.5C23.9,0.5,0,24.3,0,53.7c0,29.4,23.8,53.2,53.2,53.2s53.2-23.8,53.2-53.2C106.5,24.3,82.6,0.5,53.2,0.5L53.2,0.5z"/>
	<path class="st3" d="M29.9,47.3h22.6c9.9,0,17.9-8,17.9-17.9c0-7.3-5.9-13.3-13.3-13.3s-13.3,5.9-13.3,13.3c0,2.5,2.1,4.6,4.6,4.6
		c2.5,0,4.6-2.1,4.6-4.6c0-2.3,1.8-4.1,4.1-4.1s4.1,1.8,4.1,4.1c0,4.8-3.9,8.7-8.7,8.7H29.9c-2.5,0-4.6,2.1-4.6,4.6
		S27.3,47.3,29.9,47.3z"/>
	<path class="st3" d="M28.9,63.3h28.5c4.8,0,8.7,3.9,8.7,8.7c0,2.3-1.8,4.1-4.1,4.1c-2.2,0-4.1-1.8-4.1-4.1c0-2.5-2.1-4.6-4.6-4.6
		s-4.6,2.1-4.6,4.6c0,7.3,5.9,13.3,13.3,13.3s13.3-5.9,13.3-13.3c0-9.9-8-17.9-17.9-17.9H28.9c-2.5,0-4.6,2.1-4.6,4.6
		S26.3,63.3,28.9,63.3z"/>
	<path class="st6" d="M231.8,8.8c24.8,0,44.9,20.2,44.9,44.9s-20.2,44.9-44.9,44.9c-24.8,0-44.9-20.2-44.9-44.9S207,8.8,231.8,8.8
		 M231.8,0.5c-29.4,0-53.2,23.8-53.2,53.2c0,29.4,23.8,53.2,53.2,53.2S285,83.1,285,53.7C285,24.3,261.2,0.5,231.8,0.5L231.8,0.5z"
		/>
	<path class="st3" d="M53.2,172.2c24.8,0,44.9,20.2,44.9,44.9S78,262.1,53.2,262.1c-24.8,0-44.9-20.2-44.9-44.9
		S28.4,172.2,53.2,172.2 M53.2,163.9C23.8,163.9,0,187.8,0,217.1s23.8,53.2,53.2,53.2s53.2-23.8,53.2-53.2S82.6,163.9,53.2,163.9
		L53.2,163.9z"/>
	<path class="st3" d="M230.5,172.2c24.8,0,44.9,20.2,44.9,44.9s-20.2,44.9-44.9,44.9c-24.8,0-44.9-20.2-44.9-44.9
		S205.7,172.2,230.5,172.2 M230.5,163.9c-29.4,0-53.2,23.8-53.2,53.2s23.8,53.2,53.2,53.2s53.2-23.8,53.2-53.2
		S259.9,163.9,230.5,163.9L230.5,163.9z"/>
	<g>
		<polygon class="st5" points="155.7,90.5 144.9,82.6 137.2,88.3 155.7,106.1 		"/>
		<polygon class="st5" points="134.2,101.2 134.2,113.8 147.3,113.8 		"/>
		<polygon class="st5" points="142.1,147 155.7,147 155.7,133.2 		"/>
		<polygon class="st5" points="159.1,176.7 156.5,158.3 141.7,158.3 		"/>
		<polygon class="st5" points="132.4,165 129.3,186.8 153.1,186.8 		"/>
		<polygon class="st5" points="167,98.8 167,115.4 189.9,115.4 		"/>
		<polygon class="st5" points="134.2,126.8 134.2,138.8 146.2,126.8 		"/>
		<path class="st5" d="M151.3,211.9c4.3-0.3,8.5-1,12.6-2.1l-1.1-7.3L151.3,211.9z"/>
		<polygon class="st5" points="122.9,115.4 122.9,98.7 100,115.4 		"/>
		<path class="st5" d="M126,209.8c2.6,0.7,5.3,1.2,8,1.6l16.3-13.2h-22.6L126,209.8z"/>
		<path class="st3" d="M180.3,66.7c-0.9-3.7-1.5-7.5-1.6-11.4c-10.3-4.3-21.6-6.7-33.5-6.7c-14,0-27.2,3.3-38.9,9.2
			c-0.3,4.3-1.1,8.5-2.3,12.4c11.9-7.6,26.1-12,41.2-12C157.8,58.2,169.7,61.2,180.3,66.7z"/>
		<path class="st3" d="M75.5,102.3c-3.8,1.8-7.8,3.1-12.1,3.9c-3.2,9-5,18.8-5,28.9c0,10.5,1.9,20.5,5.3,29.8
			c4.3,0.9,8.4,2.3,12.3,4.2c-5.1-10.3-7.9-21.8-7.9-34C68.2,123.4,70.8,112.3,75.5,102.3z"/>
		<path class="st3" d="M172.4,189.5l-5.4-37.3v-25.5l40.3,0c3.1,0,5.7-2.5,5.7-5.7c0-1.8-0.9-3.5-2.3-4.6l-62.2-45.3l-0.1,0.2
			c-2-1.6-4.9-1.7-6.9-0.2l-62.1,45.3c-2.5,1.8-3.1,5.4-1.2,7.9c1.1,1.5,2.8,2.3,4.6,2.3l40.3,0V152c0,0,0,0.1,0,0.1l-5.6,38.7
			l-10.9,10.8c-1-0.6-1.9-1.2-2.9-1.8c1.4,4.1,2.3,8.3,2.7,12.7c11.7,5.9,25,9.3,39,9.3c11.4,0,22.2-2.2,32.2-6.2
			c0.2-6.3,1.4-12.3,3.6-17.8L172.4,189.5z M167,98.8l22.9,16.7l-22.9,0V98.8z M159.1,176.7l-17.4-18.4h14.7L159.1,176.7z
			 M142.1,147l13.6-13.7V147H142.1z M144.9,82.6l10.8,7.9v15.6l-18.5-17.8L144.9,82.6z M134.2,101.2l13.1,12.6h-13.1V101.2z
			 M134.2,126.8l11.9,0l-11.9,12.1V126.8z M132.4,165l20.7,21.8h-23.8L132.4,165z M122.9,115.4H100l22.9-16.7V115.4z M134,211.4
			c-2.7-0.4-5.4-0.9-8-1.6l1.7-11.6h22.6L134,211.4z M151.3,211.9l11.6-9.4l1.1,7.3C159.8,210.9,155.6,211.6,151.3,211.9z"/>
		<path class="st3" d="M231.8,135.2c0-10-1.7-19.6-4.8-28.5c-3.9-0.3-7.7-1.1-11.3-2.2c4.1,9.4,6.4,19.8,6.4,30.7
			c0,11-2.3,21.4-6.5,30.9c3.6-1,7.3-1.7,11.2-1.9C230.1,155.1,231.8,145.3,231.8,135.2z"/>
	</g>
	<g>
		<path class="st3" d="M28.3,217.1c0.7,0.2,1.5,0.4,2.6,0.4c0.3,0,0.7,0,1.1-0.1c2.9-0.4,4.6-2.3,6-3.6c1.1-1.1,1.9-2,3.3-2.4
			c0.8-0.3,1.4-0.5,2.1-0.3c0.9,0.2,1.6,1.1,2.4,2.1c1.3,1.5,3.1,3.6,6.1,4.1c0.5,0.1,1.3,0.2,2.3,0c3.1-0.4,5-2.3,6.3-3.7
			c1-1,1.7-1.8,2.7-2.1c1.1-0.4,2.2-0.1,2.6,0.1c1.1,0.3,1.8,1.1,2.8,2.2c1.3,1.4,3.1,3.3,6,3.6c1.3,0.1,2.2-0.1,2.9-0.3
			c4.5-1,7.6-4.6,9.3-7.4l1.3-2l-4.6-3.6l-1.3,2.1c-1.2,1.9-3.2,4.2-5.9,4.9c-0.6,0.1-0.9,0.2-1.2,0.2c-0.8-0.1-1.4-0.6-2.6-1.9
			c-1.3-1.4-2.8-3-5.3-3.7c-0.8-0.2-3-0.9-5.6,0c-2.3,0.7-3.8,2.2-5,3.5c-1.1,1.2-1.9,1.9-3.1,2.1c-0.5,0.1-0.8,0-0.9,0
			c-1-0.2-1.6-0.8-2.8-2.2c-1.2-1.4-2.7-3.2-5.2-3.8c-2.2-0.6-4.1,0-5.2,0.4c-2.6,0.9-4.2,2.5-5.5,3.9c-1.3,1.3-1.8,1.8-2.8,2
			c-0.6,0.1-1,0-1.6-0.2c-2.8-0.7-4.6-3.4-5.4-4.9l-1.2-2.2l-4.8,3.2l1.1,2.1C20.7,211.7,23.5,215.8,28.3,217.1z"/>
		<path class="st3" d="M82.3,223.7c-1.2,1.9-3.2,4.2-5.9,4.9c-0.6,0.2-0.9,0.2-1.2,0.2c-0.8-0.1-1.4-0.6-2.6-1.9
			c-1.2-1.3-2.8-3-5.3-3.7c-0.8-0.2-3-0.9-5.6,0c-2.3,0.8-3.8,2.2-5,3.5c-1.1,1.2-1.9,1.9-3.1,2.1c-0.5,0.1-0.9,0-0.9,0
			c-1-0.2-1.6-0.8-2.8-2.2c-1.2-1.4-2.7-3.2-5.2-3.8c-2.2-0.6-4.1,0-5.2,0.4c-2.6,0.9-4.2,2.5-5.5,3.9c-1.3,1.3-1.8,1.8-2.8,2
			c-0.6,0.1-1,0-1.6-0.2c-2.8-0.7-4.6-3.4-5.4-4.9l-1.2-2.2l-4.8,3.2l1.1,2.1c1.3,2.3,4.1,6.5,8.9,7.7c0.6,0.2,1.5,0.4,2.6,0.4
			c0.3,0,0.7,0,1.1-0.1c2.9-0.4,4.6-2.3,6-3.6c1.1-1.1,1.9-2,3.3-2.4c0.8-0.3,1.4-0.5,2.1-0.3c0.9,0.2,1.6,1.1,2.4,2.1
			c1.3,1.5,3.1,3.6,6.1,4.1c0.5,0.1,1.3,0.2,2.3,0c3.1-0.4,5-2.3,6.3-3.7c1-1,1.7-1.8,2.7-2.1c1.1-0.4,2.2-0.1,2.6,0.1
			c1.1,0.3,1.8,1.1,2.8,2.2c1.3,1.4,3.1,3.3,6,3.6c1.3,0.1,2.2-0.1,2.9-0.3c4.5-1,7.6-4.6,9.3-7.4l1.3-2l-4.6-3.6L82.3,223.7z"/>
	</g>
	<path class="st3" d="M222.2,37.7v5.8h19.3v-5.8c0-5.3-4.3-9.6-9.6-9.6C226.5,28,222.2,32.3,222.2,37.7z M214.5,43.4v-5.8
		c0-9.6,7.8-17.3,17.3-17.3c9.6,0,17.3,7.8,17.3,17.3v5.8h1.9c4.3,0,7.7,3.5,7.7,7.7v23.1c0,4.3-3.5,7.7-7.7,7.7h-38.5
		c-4.3,0-7.7-3.5-7.7-7.7V51.2c0-4.3,3.5-7.7,7.7-7.7H214.5z"/>
	<path class="st3" d="M214.7,204.8c3-5.3,6.9-10.1,10.3-13.5c2.4,2.4,5.2,6,7.6,9.1c0.5,0.6,0.9,1.2,1.4,1.8
		c0.6,0.7,1.5,1.2,2.4,1.2c0.9,0,1.8-0.5,2.4-1.2c0.4-0.5,1-1.4,1.6-2.2c0.3-0.5,0.7-1,1-1.4c0.7-1,1.3-1.8,1.8-2.4
		c2.5,2.6,5.2,6.7,7.3,11.2c2.3,4.9,3.6,9.8,3.6,13.5c0,13.1-10,23.1-22.4,23.1c-12.5,0-22.4-10-22.4-23.1
		C209.4,216.1,211.5,210.4,214.7,204.8L214.7,204.8z M228.7,186.4c-2.1-2-5.3-2-7.3,0c-4.1,3.8-8.5,9.4-12,15.4
		c-3.4,6-6.1,12.8-6.1,19.1c0,16.3,12.5,29.2,28.5,29.2c15.8,0,28.5-12.8,28.5-29.2c0-5-1.8-10.8-4.2-16.1
		c-2.4-5.3-5.7-10.3-9.1-13.6c-2.1-2-5.3-2-7.4,0c-1,1-2.2,2.5-3.1,3.9l-0.1,0.2C233.9,192.1,231.1,188.6,228.7,186.4z M232,237.8
		c3.2,0,6.1-1.1,8.7-3.4c5.4-4.7,6.8-14.2,3.6-21.7c-0.6-1.5-2-1.5-2.9-0.3l-3.2,4.7c-0.8,1.2-2.4,1.2-3.1-0.1
		c-2.1-3.4-5.9-9.4-8-12.9c-0.8-1.3-2.3-1.3-3.1,0c-4.3,6.9-6.5,11.2-6.5,16C217.6,231.2,224,237.8,232,237.8z"/>
</g>
</svg>
