<?xml version="1.0" encoding="UTF-8"?>
<svg id="Layer_1" data-name="Layer 1" xmlns="http://www.w3.org/2000/svg" viewBox="0 0 413.14 500">
  <defs>
    <style>
      .cls-1 {
        fill: #002d9c;
      }

      .cls-2 {
        fill: #ff9b00;
      }
    </style>
  </defs>
  <path class="cls-1" d="M413.14,251c0-113.9-92.67-206.57-206.57-206.57S0,137.09,0,251c0,64.24,29.48,121.71,75.61,159.63l12.2-26.6c-36.59-32.7-59.68-80.21-59.68-133.03,0-98.39,80.05-178.44,178.44-178.44s178.44,80.05,178.44,178.44c0,52.82-23.09,100.33-59.68,133.03l12.2,26.6c46.13-37.92,75.61-95.39,75.61-159.63Z"/>
  <g>
    <g>
      <polygon class="cls-1" points="126.75 276.93 113.42 276.93 113.42 179.65 299.73 179.65 299.73 272.4 286.39 272.4 286.39 192.99 126.75 192.99 126.75 276.93"/>
      <polygon class="cls-1" points="232.1 275.45 178.21 275.45 142.06 138.47 154.95 135.06 188.49 262.12 222.03 262.12 258.22 134.94 271.05 138.59 232.1 275.45"/>
      <polygon class="cls-1" points="151.75 443.06 138.72 440.23 177.43 262.12 231.98 262.12 267.9 440.33 254.83 442.96 221.07 275.45 188.19 275.45 151.75 443.06"/>
    </g>
    <rect class="cls-1" x="195.49" y="181.17" width="6.67" height="96.72" transform="translate(-96.62 159.34) rotate(-35.74)"/>
    <rect class="cls-1" x="219.66" y="265.03" width="6.67" height="177.86" transform="translate(-127.03 124.84) rotate(-24.58)"/>
    <rect class="cls-1" x="163.77" y="226.2" width="98.3" height="6.67" transform="translate(-98.52 261.54) rotate(-53.02)"/>
    <rect class="cls-1" x="94.39" y="350.63" width="179.46" height="6.67" transform="translate(-214.66 366.61) rotate(-64.34)"/>
    <g>
      <circle class="cls-2" cx="145.24" cy="128.41" r="15.52"/>
      <path class="cls-1" d="M145.24,147.26c-10.39,0-18.85-8.46-18.85-18.85s8.46-18.85,18.85-18.85,18.85,8.46,18.85,18.85-8.46,18.85-18.85,18.85ZM145.24,116.23c-6.72,0-12.18,5.46-12.18,12.18s5.46,12.18,12.18,12.18,12.18-5.46,12.18-12.18-5.46-12.18-12.18-12.18Z"/>
    </g>
    <g>
      <circle class="cls-2" cx="264.64" cy="128.41" r="15.52"/>
      <path class="cls-1" d="M264.64,147.26c-10.39,0-18.85-8.46-18.85-18.85s8.46-18.85,18.85-18.85,18.85,8.46,18.85,18.85-8.46,18.85-18.85,18.85ZM264.64,116.23c-6.72,0-12.18,5.46-12.18,12.18s5.46,12.18,12.18,12.18,12.18-5.46,12.18-12.18-5.46-12.18-12.18-12.18Z"/>
    </g>
    <g>
      <circle class="cls-2" cx="120.31" cy="264.97" r="15.52"/>
      <path class="cls-1" d="M120.31,283.82c-10.39,0-18.85-8.46-18.85-18.85s8.46-18.85,18.85-18.85,18.85,8.46,18.85,18.85-8.46,18.85-18.85,18.85ZM120.31,252.79c-6.72,0-12.18,5.46-12.18,12.18s5.46,12.18,12.18,12.18,12.18-5.46,12.18-12.18-5.46-12.18-12.18-12.18Z"/>
    </g>
    <g>
      <circle class="cls-2" cx="293.06" cy="264.97" r="15.52"/>
      <path class="cls-1" d="M293.06,283.82c-10.39,0-18.85-8.46-18.85-18.85s8.46-18.85,18.85-18.85,18.85,8.46,18.85,18.85-8.46,18.85-18.85,18.85ZM293.06,252.79c-6.72,0-12.18,5.46-12.18,12.18s5.46,12.18,12.18,12.18,12.18-5.46,12.18-12.18-5.46-12.18-12.18-12.18Z"/>
    </g>
    <g>
      <circle class="cls-2" cx="147.45" cy="436.72" r="15.52"/>
      <path class="cls-1" d="M147.45,455.57c-10.39,0-18.85-8.46-18.85-18.85s8.46-18.85,18.85-18.85,18.85,8.46,18.85,18.85-8.45,18.85-18.85,18.85ZM147.45,424.54c-6.72,0-12.18,5.46-12.18,12.18s5.46,12.18,12.18,12.18,12.18-5.46,12.18-12.18-5.46-12.18-12.18-12.18Z"/>
    </g>
    <g>
      <circle class="cls-2" cx="262.69" cy="436.72" r="15.52"/>
      <path class="cls-1" d="M262.69,455.57c-10.39,0-18.85-8.46-18.85-18.85s8.46-18.85,18.85-18.85,18.85,8.46,18.85,18.85-8.45,18.85-18.85,18.85ZM262.69,424.54c-6.72,0-12.18,5.46-12.18,12.18s5.46,12.18,12.18,12.18,12.18-5.46,12.18-12.18-5.46-12.18-12.18-12.18Z"/>
    </g>
  </g>
</svg>