<?xml version="1.0" encoding="UTF-8"?>
<svg id="Layer_1" data-name="Layer 1" xmlns="http://www.w3.org/2000/svg" viewBox="0 0 1806.078 500">
  <defs>
    <style>
      .cls-1 {
        fill: #003764;
      }

      .cls-2 {
        fill: #fff;
      }

      .cls-3 {
        fill: #009ade;
      }
    </style>
  </defs>
  <g>
    <g>
      <polygon class="cls-3" points="497.471 144.325 497.471 117.122 483.781 117.122 483.781 157.839 524.498 157.839 524.498 144.325 497.471 144.325"/>
      <polygon class="cls-1" points="551.701 89.919 483.781 89.919 483.781 110.277 497.295 110.277 497.295 103.608 538.187 103.608 538.187 144.325 531.343 144.325 531.343 157.839 551.701 157.839 551.701 89.919"/>
      <g>
        <path class="cls-1" d="M569.778,90.621h20.709v50.019h29.66v17.199h-50.37v-67.218Z"/>
        <path class="cls-1" d="M629.098,90.621h51.949v17.199h-31.24v8.424h26.852v15.971h-26.852v25.624h-20.709v-67.218h0Z"/>
      </g>
      <path class="cls-3" d="M734.401,158.19h-37.558v-67.745h37.558v4.388h-32.644v25.624h30.889v4.388h-30.889v29.134h32.644v4.212Z"/>
      <path class="cls-3" d="M799.864,158.19h-4.914l-40.717-60.198h-.176c.351,7.196.526,12.461.526,16.146v43.876h-4.563v-67.569h4.739l40.717,60.022h.351c-.351-5.616-.526-10.881-.526-15.795v-44.227h4.739v67.745h-.176Z"/>
      <path class="cls-3" d="M856.903,158.19h-37.558v-67.745h37.558v4.388h-32.644v25.624h30.889v4.388h-30.889v29.134h32.644v4.212Z"/>
      <path class="cls-3" d="M877.261,128.705v29.485h-4.739v-67.745h16.322c8.424,0,14.742,1.58,18.954,4.739,4.037,3.159,6.143,7.722,6.143,14.04,0,4.563-1.229,8.424-3.686,11.583-2.457,3.159-6.143,5.441-11.057,6.669l18.603,30.889h-5.792l-17.726-29.485-17.024-.176h0ZM877.261,124.669h12.987c5.792,0,10.355-1.229,13.514-3.861,3.159-2.633,4.739-6.318,4.739-11.232,0-5.09-1.58-8.951-4.739-11.232-3.159-2.457-8.249-3.51-15.444-3.51h-11.232v29.836h.175Z"/>
      <path class="cls-3" d="M955.887,123.265h24.746v30.187c-6.494,2.808-13.865,4.037-21.938,4.037-10.53,0-18.779-2.984-24.395-8.951-5.616-5.967-8.424-14.216-8.424-25.097,0-6.845,1.404-12.636,4.212-17.901,2.808-5.265,6.845-9.302,12.11-12.11,5.265-2.808,11.232-4.212,18.077-4.212,7.371,0,13.865,1.404,19.832,4.037l-1.931,4.212c-5.792-2.633-11.934-4.037-18.077-4.037-8.951,0-15.971,2.633-21.06,8.073-5.09,5.441-7.722,12.636-7.722,21.762,0,10.004,2.457,17.375,7.371,22.465,4.914,5.09,12.11,7.547,21.762,7.547,6.143,0,11.408-.878,15.795-2.633v-22.991h-20.007l-.351-4.388h0Z"/>
      <path class="cls-3" d="M1013.452,127.301l20.007-36.856h5.09l-22.816,41.243v25.975h-4.914v-25.448l-22.816-41.77h5.441l20.007,36.856Z"/>
    </g>
    <g>
      <polygon points="497.471 144.325 497.471 117.122 483.781 117.122 483.781 157.839 524.498 157.839 524.498 144.325 497.471 144.325"/>
      <polygon points="551.701 89.919 483.781 89.919 483.781 110.277 497.295 110.277 497.295 103.608 538.187 103.608 538.187 144.325 531.343 144.325 531.343 157.839 551.701 157.839 551.701 89.919"/>
      <g>
        <path d="M569.778,90.621h20.709v50.019h29.66v17.199h-50.37v-67.218Z"/>
        <path d="M629.098,90.621h51.949v17.199h-31.24v8.424h26.852v15.971h-26.852v25.624h-20.709v-67.218h0Z"/>
      </g>
      <path d="M734.401,158.19h-37.558v-67.745h37.558v4.388h-32.644v25.624h30.889v4.388h-30.889v29.134h32.644v4.212Z"/>
      <path d="M799.864,158.19h-4.914l-40.717-60.198h-.176c.351,7.196.526,12.461.526,16.146v43.876h-4.563v-67.569h4.739l40.717,60.022h.351c-.351-5.616-.526-10.881-.526-15.795v-44.227h4.739v67.745h-.176Z"/>
      <path d="M856.903,158.19h-37.558v-67.745h37.558v4.388h-32.644v25.624h30.889v4.388h-30.889v29.134h32.644v4.212Z"/>
      <path d="M877.261,128.705v29.485h-4.739v-67.745h16.322c8.424,0,14.742,1.58,18.954,4.739,4.037,3.159,6.143,7.722,6.143,14.04,0,4.563-1.229,8.424-3.686,11.583-2.457,3.159-6.143,5.441-11.057,6.669l18.603,30.889h-5.792l-17.726-29.485-17.024-.176h0ZM877.261,124.669h12.987c5.792,0,10.355-1.229,13.514-3.861,3.159-2.633,4.739-6.318,4.739-11.232,0-5.09-1.58-8.951-4.739-11.232-3.159-2.457-8.249-3.51-15.444-3.51h-11.232v29.836h.175Z"/>
      <path d="M955.887,123.265h24.746v30.187c-6.494,2.808-13.865,4.037-21.938,4.037-10.53,0-18.779-2.984-24.395-8.951-5.616-5.967-8.424-14.216-8.424-25.097,0-6.845,1.404-12.636,4.212-17.901,2.808-5.265,6.845-9.302,12.11-12.11,5.265-2.808,11.232-4.212,18.077-4.212,7.371,0,13.865,1.404,19.832,4.037l-1.931,4.212c-5.792-2.633-11.934-4.037-18.077-4.037-8.951,0-15.971,2.633-21.06,8.073-5.09,5.441-7.722,12.636-7.722,21.762,0,10.004,2.457,17.375,7.371,22.465,4.914,5.09,12.11,7.547,21.762,7.547,6.143,0,11.408-.878,15.795-2.633v-22.991h-20.007l-.351-4.388h0Z"/>
      <path d="M1013.452,127.301l20.007-36.856h5.09l-22.816,41.243v25.975h-4.914v-25.448l-22.816-41.77h5.441l20.007,36.856Z"/>
    </g>
  </g>
  <path d="M428.49,250.999c0-113.904-92.668-206.572-206.572-206.572S15.347,137.095,15.347,250.999c0,64.237,29.479,121.711,75.612,159.627l12.198-26.597c-36.59-32.701-59.678-80.211-59.678-133.029,0-98.392,80.048-178.44,178.44-178.44s178.44,80.048,178.44,178.44c0,52.819-23.088,100.329-59.677,133.029l12.197,26.597c46.132-37.916,75.612-95.39,75.612-159.627Z"/>
  <g>
    <g>
      <polygon points="142.101 276.933 128.763 276.933 128.763 179.652 315.073 179.652 315.073 272.402 301.735 272.402 301.735 192.991 142.101 192.991 142.101 276.933"/>
      <polygon points="247.445 275.455 193.555 275.455 157.406 138.467 170.301 135.065 203.832 262.117 237.376 262.117 273.567 134.941 286.398 138.591 247.445 275.455"/>
      <polygon points="167.1 443.06 154.068 440.227 192.78 262.115 247.331 262.115 283.252 440.326 270.174 442.961 236.416 275.453 203.533 275.453 167.1 443.06"/>
    </g>
    <rect x="210.833" y="181.173" width="6.668" height="96.718" transform="translate(-93.734 168.301) rotate(-35.736)"/>
    <rect x="235.011" y="265.029" width="6.668" height="177.862" transform="translate(-125.642 131.227) rotate(-24.581)"/>
    <rect x="179.12" y="226.197" width="98.296" height="6.669" transform="translate(-92.405 273.801) rotate(-53.018)"/>
    <rect x="109.732" y="350.626" width="179.463" height="6.669" transform="translate(-205.964 380.448) rotate(-64.336)"/>
    <g>
      <circle class="cls-2" cx="160.585" cy="128.407" r="15.516"/>
      <path d="M160.584,147.258c-10.394,0-18.851-8.457-18.851-18.851s8.457-18.849,18.851-18.849,18.851,8.455,18.851,18.849-8.457,18.851-18.851,18.851ZM160.584,116.226c-6.718,0-12.182,5.464-12.182,12.18s5.464,12.182,12.182,12.182,12.182-5.464,12.182-12.182-5.464-12.18-12.182-12.18Z"/>
    </g>
    <g>
      <circle class="cls-2" cx="279.982" cy="128.407" r="15.516"/>
      <path d="M279.983,147.258c-10.394,0-18.851-8.457-18.851-18.851s8.457-18.849,18.851-18.849,18.851,8.455,18.851,18.849-8.457,18.851-18.851,18.851ZM279.983,116.226c-6.718,0-12.182,5.464-12.182,12.18s5.464,12.182,12.182,12.182,12.182-5.464,12.182-12.182-5.464-12.18-12.182-12.18Z"/>
    </g>
    <g>
      <circle class="cls-2" cx="135.66" cy="264.972" r="15.516"/>
      <path d="M135.66,283.822c-10.394,0-18.851-8.455-18.851-18.849s8.457-18.851,18.851-18.851,18.851,8.457,18.851,18.851-8.457,18.849-18.851,18.849ZM135.66,252.79c-6.718,0-12.182,5.464-12.182,12.182s5.464,12.18,12.182,12.18,12.182-5.464,12.182-12.18-5.464-12.182-12.182-12.182Z"/>
    </g>
    <g>
      <circle class="cls-2" cx="308.405" cy="264.972" r="15.516"/>
      <path d="M308.404,283.822c-10.394,0-18.851-8.455-18.851-18.849s8.457-18.851,18.851-18.851,18.851,8.457,18.851,18.851-8.457,18.849-18.851,18.849ZM308.404,252.79c-6.718,0-12.182,5.464-12.182,12.182s5.464,12.18,12.182,12.18,12.182-5.464,12.182-12.18-5.464-12.182-12.182-12.182Z"/>
    </g>
    <g>
      <circle class="cls-2" cx="162.797" cy="436.723" r="15.516"/>
      <path d="M162.799,455.573c-10.394,0-18.851-8.455-18.851-18.849s8.457-18.849,18.851-18.849,18.848,8.455,18.848,18.849-8.454,18.849-18.848,18.849ZM162.799,424.543c-6.718,0-12.182,5.464-12.182,12.18s5.464,12.18,12.182,12.18,12.179-5.464,12.179-12.18-5.464-12.18-12.179-12.18Z"/>
    </g>
    <g>
      <circle class="cls-2" cx="278.034" cy="436.723" r="15.516"/>
      <path d="M278.035,455.573c-10.394,0-18.851-8.455-18.851-18.849s8.457-18.849,18.851-18.849,18.848,8.455,18.848,18.849-8.454,18.849-18.848,18.849ZM278.035,424.543c-6.718,0-12.182,5.464-12.182,12.18s5.464,12.18,12.182,12.18,12.179-5.464,12.179-12.18-5.464-12.18-12.179-12.18Z"/>
    </g>
  </g>
  <g>
    <path d="M484.824,296.416c0-70.84,20.002-103.064,65.562-103.064s65.562,32.225,65.562,103.064-20.002,103.064-65.562,103.064-65.562-32.226-65.562-103.064ZM584.277,295.582c0-66.672-15.001-78.34-33.892-78.34s-33.892,11.668-33.892,78.34c0,68.062,15.001,80.007,33.892,80.007s33.892-11.945,33.892-80.007Z"/>
    <path d="M707.484,399.48c-16.668,0-28.335-8.057-33.892-21.392h-.556v66.395h-30.002v-198.35h28.335v18.335h.556c6.39-13.335,16.946-22.225,33.614-22.225,34.17,0,48.06,29.169,48.06,80.562,0,62.783-25.279,76.674-46.115,76.674ZM696.65,266.136c-20.558,0-25.28,20.835-25.28,53.06,0,35.837,4.445,56.394,25.559,56.394,16.945,0,25.002-12.778,25.002-54.171,0-33.892-4.167-55.282-25.28-55.282Z"/>
    <path d="M802.658,324.751v8.612c0,20.002,2.5,45.56,25.002,45.56,21.391,0,23.891-24.169,23.891-33.336h28.336c0,33.613-20.002,53.894-52.505,53.894-24.446,0-54.727-7.224-54.727-76.396,0-39.17,8.612-80.841,55.282-80.841,41.671,0,52.782,25.28,52.782,66.673v15.834h-78.062ZM850.717,304.194v-8.057c0-18.891-6.112-33.336-23.058-33.336-18.891,0-25.002,18.891-25.002,38.337v3.056h48.06Z"/>
    <path d="M905.167,246.134h28.335v17.501h.834c7.5-13.334,21.668-21.391,38.337-21.391,22.779,0,37.225,10.279,37.225,40.56v112.787h-30.002v-102.509c0-20.002-5.278-26.946-20.835-26.946-12.224,0-23.892,9.167-23.892,29.169v100.286h-30.002v-149.457Z"/>
    <path d="M1139.769,372.533h-.556c-8.612,18.612-20.002,26.947-43.337,26.947-43.337,0-58.895-32.226-58.895-103.064s20.002-103.064,65.84-103.064c49.726,0,58.06,39.17,58.06,57.227v3.611h-30.002v-4.723c0-14.723-6.112-32.225-27.78-32.225-22.502,0-34.447,15.001-34.447,78.34,0,63.895,10.557,80.007,31.947,80.007,24.168.278,33.058-17.224,33.058-60.561h-33.336v-23.891h63.339v104.453h-23.891v-23.058Z"/>
    <path d="M1191.827,246.134h30.003v23.335h.556c6.667-16.668,17.779-27.225,34.726-27.225,3.056,0,5.556.278,7.223,1.111v30.559c-2.223-.834-7.223-1.667-12.501-1.667-13.612,0-30.003,6.111-30.003,33.892v89.452h-30.003v-149.457Z"/>
    <path d="M1282.111,195.019h30.002v30.002h-30.002v-30.002ZM1282.111,246.134h30.002v149.457h-30.002v-149.457Z"/>
    <path d="M1418.563,377.256h-.556c-3.611,9.723-11.667,22.225-32.78,22.225-34.726,0-48.893-29.447-48.893-80.562,0-66.395,23.335-76.674,46.114-76.674,16.391,0,28.336,8.057,33.893,21.391h.555v-66.395h30.003v198.351h-28.336v-18.335ZM1391.338,266.136c-16.945,0-23.335,13.89-23.335,54.171,0,33.892,4.167,55.282,25.28,55.282,20.557,0,25.279-20.835,25.279-53.06,0-35.837-3.889-56.394-27.225-56.394Z"/>
    <path d="M1477.956,197.24h105.842v26.669h-74.173v55.005h69.729v26.669h-69.729v90.008h-31.669v-198.351Z"/>
    <path d="M1607.384,197.24h49.448l35.003,146.957h.556l34.447-146.957h48.338v198.351h-30.003v-165.014h-.556l-40.003,165.014h-26.669l-40.004-165.014h-.556v165.014h-30.002v-198.351Z"/>
  </g>
</svg>