<?xml version="1.0" encoding="UTF-8"?><svg id="Layer_1" xmlns="http://www.w3.org/2000/svg" viewBox="0 0 917.18 375.28"><g><polygon points="419.73 109.17 419.73 84.12 407.09 84.12 407.09 121.59 444.56 121.59 444.56 109.17 419.73 109.17"/><polygon points="469.61 59.07 407.09 59.07 407.09 77.69 419.51 77.69 419.51 71.49 457.19 71.49 457.19 109.17 450.99 109.17 450.99 121.59 469.61 121.59 469.61 59.07"/><g><path d="M486.23,59.74h19.06v45.89h27.27v15.74h-46.33V59.74h0Z"/><path d="M540.77,59.74h47.88v15.74h-28.82v7.76h24.61v14.63h-24.61v23.5h-19.06V59.74Z"/></g><path d="M637.64,121.81h-34.58V59.51h34.58v3.99h-30.15v23.5h28.38v3.99h-28.38v26.6h30.15v4.21Z"/><path d="M697.94,121.81h-4.43l-37.46-55.2h-.44c.44,6.65,.44,11.53,.44,14.85v40.35h-3.99V59.51h4.43l37.46,55.2h.22c-.22-5.1-.44-9.98-.44-14.63V59.51h4.21v62.29h0Z"/><path d="M750.26,121.81h-34.58V59.51h34.58v3.99h-30.15v23.5h28.38v3.99h-28.38v26.6h30.15v4.21Z"/><path d="M769.1,94.76v27.05h-4.43V59.51h15.07c7.76,0,13.52,1.33,17.29,4.21,3.77,2.88,5.54,7.09,5.54,12.86,0,4.21-1.11,7.76-3.33,10.64-2.22,2.88-5.54,4.88-10.2,6.21l17.07,28.38h-5.32l-16.18-27.05h-15.52Zm0-3.77h11.97c5.32,0,9.53-1.11,12.41-3.55,2.88-2.44,4.43-5.76,4.43-10.42s-1.33-8.2-4.21-10.42c-2.88-2.22-7.54-3.33-14.19-3.33h-10.42v27.71Z"/><path d="M841.37,89.88h22.83v27.71c-5.99,2.44-12.64,3.77-20.17,3.77-9.75,0-17.29-2.66-22.39-8.2-5.1-5.54-7.76-13.08-7.76-23.05,0-6.21,1.33-11.75,3.77-16.4,2.66-4.88,6.21-8.42,11.08-11.08,4.88-2.66,10.42-3.99,16.63-3.99,6.65,0,12.86,1.33,18.18,3.77l-1.77,3.77c-5.32-2.44-10.86-3.77-16.63-3.77-8.2,0-14.63,2.44-19.29,7.54-4.66,5.1-7.09,11.75-7.09,19.95,0,9.09,2.22,15.96,6.87,20.62,4.43,4.66,11.08,6.87,19.95,6.87,5.76,0,10.42-.89,14.41-2.44v-21.5h-18.4v-3.55h-.22Z"/><path d="M894.13,93.43l18.4-33.92h4.66l-20.84,37.91v23.94h-4.43v-23.5l-21.06-38.35h5.1l18.18,33.92Z"/></g><g><path d="M401.39,155.31h56.42c22.39,0,40.52,11.19,40.52,41.19,0,20.6-9.18,36.49-26.64,39.18v.45c15.9,1.57,24.18,10.3,25.07,32.69,.22,10.3,.45,22.84,.9,32.46,.45,7.84,4.25,11.64,7.61,13.88h-28.88c-2.46-2.91-3.58-7.84-4.25-14.1-.9-9.63-.67-18.58-1.12-30.22-.45-17.46-5.82-25.07-23.28-25.07h-20.82v69.4h-25.52V155.31Zm45.89,71.19c16.34,0,25.52-9.85,25.52-25.97,0-17.01-7.39-25.97-24.18-25.97h-21.72v51.94h20.37Z"/><path d="M543.77,176.8h-38.06v-21.49h100.97v21.49h-37.39v138.36h-25.52V176.8Z"/><path d="M621.23,155.31h45.45c50.15,0,56.42,32.69,56.42,79.92s-6.27,79.92-56.42,79.92h-45.45V155.31Zm25.52,140.59h21.04c21.04,0,29.78-13.88,29.78-60.67s-7.61-60.67-29.78-60.67h-21.04v121.34Z"/><path d="M744.59,155.31h25.52v159.85h-25.52V155.31Z"/><path d="M795.4,155.31h50.6c30.67,0,44.1,19.25,44.1,46.57,0,28.66-16.79,47.24-46.79,47.24h-22.39v66.04h-25.52V155.31Zm25.52,74.55h18.13c13.66,0,25.52-7.39,25.52-27.54,0-17.24-6.94-27.76-27.31-27.76h-16.34v55.3Z"/></g><path d="M134.95,54.97l26.39,14.66c1.77,.98,3.92,.98,5.7,0l26.39-14.66c1.86-1.03,3.02-3,3.02-5.13V20.52c0-2.13-1.15-4.09-3.02-5.13L167.04,.74c-1.77-.98-3.92-.98-5.7,0l-26.39,14.66c-1.86,1.03-3.02,3-3.02,5.13v29.32c0,2.13,1.15,4.09,3.02,5.13Zm8.71-30.99l20.52-11.4,20.52,11.4v22.42l-20.52,11.4-20.52-11.4V23.97Z"/><path d="M193.42,320.31l-26.39-14.66c-1.77-.98-3.92-.98-5.7,0l-26.39,14.66c-1.86,1.03-3.02,3-3.02,5.13v29.32c0,2.13,1.15,4.09,3.02,5.13l26.39,14.66c1.77,.98,3.92,.98,5.7,0l26.39-14.66c1.86-1.03,3.02-3,3.02-5.13v-29.32c0-2.13-1.15-4.09-3.02-5.13Z"/><path d="M61.49,244.08l-26.39-14.66c-1.77-.98-3.92-.98-5.7,0l-26.39,14.66c-1.86,1.03-3.02,3-3.02,5.13v29.32c0,2.13,1.15,4.09,3.02,5.13l26.39,14.66c1.77,.98,3.92,.98,5.7,0l26.39-14.66c1.86-1.03,3.02-3,3.02-5.13v-29.32c0-2.13-1.15-4.09-3.02-5.13Zm-8.71,30.99l-20.52,11.4-20.52-11.4v-22.42l20.52-11.4,20.52,11.4v22.42Z"/><path d="M325.35,244.08l-26.39-14.66c-1.77-.98-3.92-.98-5.7,0l-26.39,14.66c-1.86,1.03-3.02,3-3.02,5.13v29.32c0,2.13,1.15,4.09,3.02,5.13l26.39,14.66c1.77,.98,3.92,.98,5.7,0l26.39-14.66c1.86-1.03,3.02-3,3.02-5.13v-29.32c0-2.13-1.15-4.09-3.02-5.13Zm-8.71,30.99l-20.52,11.4-20.52-11.4v-22.42l20.52-11.4,20.52,11.4v22.42Z"/><path d="M125.16,62.04c-2.81-2.92-4.52-6.72-4.85-10.75l-49.98,29.43c3.01,2.68,5.01,6.31,5.65,10.28l49.18-28.96Z"/><path d="M61.49,88.69l-26.39-14.66c-1.77-.98-3.92-.98-5.7,0L3.02,88.69c-1.86,1.03-3.02,3-3.02,5.13v29.32c0,2.13,1.15,4.09,3.02,5.13l26.39,14.66c1.77,.98,3.92,.98,5.7,0l26.39-14.66c1.86-1.03,3.02-3,3.02-5.13v-29.32c0-2.13-1.15-4.09-3.02-5.13Z"/><path d="M325.35,88.69l-26.39-14.66c-1.77-.98-3.92-.98-5.7,0l-26.39,14.66c-1.86,1.03-3.02,3-3.02,5.13v29.32c0,2.13,1.15,4.09,3.02,5.13l26.39,14.66c1.77,.98,3.92,.98,5.7,0l26.39-14.66c1.86-1.03,3.02-3,3.02-5.13v-29.32c0-2.13-1.15-4.09-3.02-5.13Z"/><path d="M216.96,214.03v-52.77c0-2.12-1.14-4.07-2.99-5.11l-46.91-26.39c-1.79-1-3.96-1-5.75,0l-46.91,26.39c-1.85,1.04-2.99,2.99-2.99,5.11v52.77c0,2.12,1.14,4.07,2.99,5.11l46.91,26.39c1.79,1.01,3.96,1.01,5.75,0l46.91-26.39c1.85-1.04,2.99-2.99,2.99-5.11Z"/><path d="M258.04,80.72l-49.98-29.43c-.33,4.04-2.04,7.83-4.85,10.75l49.18,28.96h0c.65-3.98,2.65-7.61,5.65-10.29h0Z"/><path d="M301.98,218v-63.64c-3.79,1.38-7.94,1.38-11.73,0v63.64c3.79-1.34,7.93-1.34,11.73,0Z"/><path d="M253.02,283.91l-49.81,29.33c2.81,2.92,4.52,6.72,4.85,10.75l52.16-30.71c-3.41-2.2-5.96-5.51-7.2-9.37h0Z"/><path d="M68.15,293.28l52.16,30.71c.33-4.04,2.04-7.83,4.85-10.75l-49.81-29.33c-1.24,3.86-3.79,7.17-7.2,9.37h0Z"/><path d="M38.12,218v-63.64c-3.79,1.38-7.94,1.38-11.73,0v63.64c3.79-1.34,7.93-1.34,11.73,0Z"/><path d="M170.05,118.31v-37.26c-3.79,1.38-7.94,1.38-11.73,0v37.26c3.79-1.35,7.93-1.35,11.73,0Z"/><path d="M158.32,256.96v37.26h0c3.79-1.35,7.93-1.35,11.73,0v-37.26c-3.79,1.38-7.94,1.38-11.73,0h0Z"/><path d="M100.5,219.23l-29.31,17.69c2.83,2.9,4.57,6.69,4.93,10.72l31.45-18.98c-3.37-2.23-5.87-5.56-7.07-9.43h0Z"/><path d="M252.68,127.38l-31.89,19.25c3.37,2.23,5.87,5.56,7.07,9.42l31.27-18.87h0c-3.21-2.43-5.49-5.89-6.46-9.8h0Z"/><path d="M108.15,146.24l-32.31-19.61h0c-.8,3.94-2.93,7.49-6.04,10.05l30.91,18.76h0c1.34-3.84,3.97-7.09,7.44-9.2h0Z"/><path d="M221.05,228.49l31.21,18.95h0c.4-4.03,2.18-7.8,5.04-10.66l-29.34-17.81c-1.14,3.87-3.58,7.24-6.91,9.52h0Z"/></svg>