<?xml version="1.0" encoding="UTF-8"?>
<svg id="Logo" xmlns="http://www.w3.org/2000/svg" viewBox="0 0 57.6398926 57.6401306">
  <defs>
    <style>
      .cls-1 {
        fill: #fdfdfd;
      }
    </style>
  </defs>
  <path class="cls-1" d="M50.2699463,0H7.3699463C3.2995117,0,0,3.2996704,0,7.3700653v42.9c0,4.0703949,3.2995117,7.3700653,7.3699463,7.3700653h42.9c4.0704346,0,7.3699463-3.2996704,7.3699463-7.3700653V7.3700653c0-4.0703949-3.2995117-7.3700653-7.3699463-7.3700653ZM53.0337158,25.4144684l-.0003174.0006348c-2.134082.3716156-4.4122559.5992981-6.9179932.5992981-13.8363037,0-20.7063721-6.9181122-34.590918-6.9181122-2.5076416,0-4.785498.2264526-6.9179932.596283l-.0003174-.0007935V7.3700653c0-1.5263733,1.2374756-2.7637695,2.7637695-2.7637695h42.9c1.5262939,0,2.7637695,1.2373962,2.7637695,2.7637695v18.0444031Z"/>
</svg>