<?xml version="1.0" encoding="utf-8"?>
<!-- Generator: Adobe Illustrator 25.4.1, SVG Export Plug-In . SVG Version: 6.00 Build 0)  -->
<svg version="1.1" id="Layer_1" xmlns="http://www.w3.org/2000/svg" xmlns:xlink="http://www.w3.org/1999/xlink" x="0px" y="0px"
	 viewBox="0 0 120 165" style="enable-background:new 0 0 120 165;" xml:space="preserve">
<style type="text/css">
	.st0{fill:#FFFFFF;}
	.st1{fill:none;}
	.st2{fill:#FCB739;}
	.st3{fill:#FF7D08;}
	.st4{fill:#FE4A5D;}
	.st5{fill:#003764;}
	.st6{fill:#009ADE;}
</style>
<g>
	<path class="st1" d="M43.5306091,127.3138428c6.6482544,9.5386353,12.7470703,17.3986206,16.3799438,21.9418945
		l-6.3485107-24.5373535L43.5306091,127.3138428z"/>
	<path class="st1" d="M74.5802917,35.6906738c1.5062256,0.9911499,2.9243774,2.1397095,4.229126,3.4440308
		c5.0179443,5.0179443,7.7819214,11.6974487,7.7819214,18.8098145c0,4.376709-1.050354,8.5877686-3.0248413,12.3500977
		l23.7753296-6.1511841c0.3016357-1.9927368,0.4711304-3.913208,0.4711304-5.7347412
		c0-10.8113403-3.6113281-20.7924805-9.6848145-28.8105469L74.5802917,35.6906738z"/>
	<path class="st1" d="M93.3265076,99.8077393c4.8963013-8.8757935,9.109375-17.8535767,11.7108154-26.09198l-17.444458,4.5131226
		L93.3265076,99.8077393z"/>
	<path class="st1" d="M44.4234924,89.3973389l-20.8128052,5.3845215c4.3851929,8.5487671,9.571228,17.0828857,14.7370605,24.8983765
		l13.0380249-3.3733521L44.4234924,89.3973389z"/>
	<path class="st1" d="M66.6528015,140.6210938c4.6921387-6.3314209,10.5130615-14.5214844,16.2935791-23.5053711
		l-20.9711914,5.4259033L66.6528015,140.6210938z"/>
	<path class="st1" d="M52.8366394,87.2207031l6.9622192,26.9094238l26.5194092-6.8614502l-7.1381836-26.8633423
		L68.223175,83.2400513c-1.0155029,0.328125-2.0512085,0.5996094-3.1062012,0.8035889L52.8366394,87.2207031z"/>
	<path class="st1" d="M41.1914368,76.7526245c-5.0179443-5.0162354-7.7810669-11.6957397-7.7810669-18.8081055
		c0-4.3919067,1.0567017-8.6173706,3.0442505-12.3897095l-23.7886353,6.1547852
		c-0.3085938,2.1904907-0.4789429,4.4248657-0.4789429,6.6990967c0,8.3212891,3.019165,18.201355,7.5799561,28.3922119
		l25.618103-6.6279297C43.8912659,79.1876221,42.485199,78.0466309,41.1914368,76.7526245z"/>
	<path class="st1" d="M91.3694763,22.3705444c-8.4031372-7.3242188-19.3726807-11.7752075-31.3690186-11.7752075
		c-2.6121826,0-5.1732788,0.21875-7.6728516,0.6237793l5.1536865,19.9192505L91.3694763,22.3705444z"/>
	<path class="st1" d="M47.3363953,45.2796021c-3.376709,3.376709-5.236084,7.8743896-5.236084,12.664917
		s1.859375,9.288208,5.2352295,12.663208c3.3766479,3.376709,7.8743896,5.2360229,12.664917,5.2360229
		c1.1335449,0,2.2487183-0.1121216,3.338623-0.3158569l2.2573853-0.5840454
		c2.6361084-0.8618164,5.0547485-2.3219604,7.0689087-4.3361206c3.3758545-3.375,5.2360229-7.8726807,5.2360229-12.663208
		s-1.8601685-9.288208-5.2360229-12.6640625c-3.3843384-3.3834839-7.8820801-5.2470703-12.664917-5.2470703
		c-1.3276978,0-2.6289673,0.1575928-3.8947754,0.4371338l-1.4411621,0.3729248
		C51.9281921,41.6936035,49.4195862,43.1953735,47.3363953,45.2796021z"/>
	<path class="st1" d="M43.9124451,13.3878174c-13.3745117,4.7939453-24.0114746,15.3822632-28.8637695,28.7290649
		l34.0195312-8.8018188L43.9124451,13.3878174z"/>
	<path class="st2" d="M59.7988586,114.130127l-6.9622192-26.9094238l-8.413147,2.1766357l6.9622803,26.9095459
		l-13.0380249,3.3733521c1.7424316,2.6361694,3.4797974,5.1901245,5.1828613,7.633606l10.0314331-2.595459l6.3485107,24.5373535
		c0.0297241,0.0371704,0.0646973,0.0814819,0.0941162,0.1182251c1.7112427-2.1940918,4.0024414-5.1829224,6.6481323-8.7528687
		l-4.6776123-18.0794678l20.9711914-5.4259033c1.4117432-2.1940918,2.817749-4.4329834,4.206604-6.7058105l-0.8347168-3.1412354
		L59.7988586,114.130127z"/>
	<path class="st2" d="M57.5637512,31.4570923c0.805603-0.0726929,1.6179199-0.1136475,2.4367065-0.1136475
		c5.2595215,0,10.2845459,1.5206299,14.579834,4.347229l23.5478516-6.0925293
		c-1.9979858-2.6377563-4.267334-5.0561523-6.758667-7.2276001l-33.8881836,8.7678223L57.5637512,31.4570923z"/>
	<path class="st2" d="M56.1056824,40.47052c-0.4857788,0.1072998-0.9680786,0.2259521-1.4411621,0.3729248L56.1056824,40.47052z"/>
	<path class="st2" d="M41.1914368,39.1355591c2.3358765-2.3370361,5.0335693-4.1785278,7.9628906-5.4876099l-0.0861206-0.3328857
		l-34.0195312,8.8018188c-1.1140137,3.0640869-1.9152832,6.2752686-2.3826904,9.5927124l23.7886353-6.1547852
		C37.6857605,43.2182007,39.2721252,41.0545654,41.1914368,39.1355591z"/>
	<path class="st3" d="M49.1543274,33.6479492c2.6431274-1.1812134,5.4750977-1.9260864,8.4094238-2.1908569l-0.0824585-0.3187256
		l-5.1536865-19.9192505c-2.9001465,0.4699707-5.7133789,1.2002563-8.4151611,2.1687012l5.1557617,19.9272461L49.1543274,33.6479492
		z"/>
	<path class="st3" d="M65.5964661,74.9438477l-2.2573853,0.5840454
		C64.1075134,75.3842163,64.8590393,75.1849365,65.5964661,74.9438477z"/>
	<path class="st3" d="M78.8094177,76.753479c-3.0164185,3.0158691-6.6361084,5.2102051-10.5862427,6.4865723l10.9569092-2.8347168
		l7.1381836,26.8633423l0.8347168,3.1412354c2.1265869-3.4801025,4.2029419-7.0300903,6.1735229-10.6021729L87.592865,78.2288818
		l17.444458-4.5131226c1.0518799-3.3312378,1.8458252-6.5426636,2.3045044-9.5723267l-23.7753296,6.1511841
		C82.3323669,72.6463013,80.7394714,74.8237305,78.8094177,76.753479z"/>
	<path class="st3" d="M52.8366394,87.2207031l12.2803345-3.177063c-1.6680298,0.3225098-3.3790894,0.4900513-5.1165161,0.4900513
		c-5.2776489,0-10.3162231-1.5248413-14.6153564-4.3607178l-25.618103,6.6279297
		c1.1846924,2.6470337,2.4754028,5.3135986,3.843689,7.980957l20.8128052-5.3845215L52.8366394,87.2207031z"/>
	<path class="st4" d="M60.0004578,1.9053955c-31.1557007,0-56.5033569,25.3476562-56.5033569,56.5032959
		c0,37.3082275,51.0628052,98.1311035,53.236145,100.7024536l3.3690186,3.9834595l3.3088379-4.0327148
		c2.1673584-2.6442871,53.0917969-65.1372681,53.0917969-100.6531982
		C116.5028992,27.2530518,91.1560974,1.9053955,60.0004578,1.9053955z M107.3418274,64.1434326
		c-0.4586792,3.0296631-1.2526245,6.2410889-2.3045044,9.5723267c-2.6014404,8.2384033-6.8145142,17.2161865-11.7108154,26.09198
		c-1.9705811,3.5720825-4.046936,7.1220703-6.1735229,10.6021729c-1.388855,2.2728271-2.7948608,4.5117188-4.206604,6.7058105
		c-5.7805176,8.9838867-11.6014404,17.1739502-16.2935791,23.5053711c-2.6456909,3.5699463-4.9368896,6.5587769-6.6481323,8.7528687
		c-0.0294189-0.0367432-0.0643921-0.0810547-0.0941162-0.1182251c-3.6328735-4.5432739-9.7316895-12.4032593-16.3799438-21.9418945
		c-1.703064-2.4434814-3.4404297-4.9974365-5.1828613-7.633606c-5.1658325-7.8154907-10.3518677-16.3496094-14.7370605-24.8983765
		c-1.3682861-2.6673584-2.6589966-5.3339233-3.843689-7.980957c-4.560791-10.1908569-7.5799561-20.0709229-7.5799561-28.3922119
		c0-2.274231,0.1703491-4.508606,0.4789429-6.6990967c0.4674072-3.3174438,1.2686768-6.5286255,2.3826904-9.5927124
		c4.8522949-13.3468018,15.4892578-23.9351196,28.8637695-28.7290649c2.7017822-0.9684448,5.5150146-1.6987305,8.4151611-2.1687012
		c2.4995728-0.4050293,5.0606689-0.6237793,7.6728516-0.6237793c11.9963379,0,22.9658813,4.4509888,31.3690186,11.7752075
		c2.491333,2.1714478,4.7606812,4.5898438,6.758667,7.2276001c6.0734863,8.0180664,9.6848145,17.9992065,9.6848145,28.8105469
		C107.8129578,60.2302246,107.6434631,62.1506958,107.3418274,64.1434326z"/>
	<path class="st4" d="M57.5637512,31.4570923c-2.9343262,0.2647705-5.7662964,1.0096436-8.4094238,2.1908569
		c-2.9293213,1.309082-5.6270142,3.1505737-7.9628906,5.4876099c-1.9193115,1.9190063-3.5056763,4.0826416-4.7368164,6.4192505
		c-1.9875488,3.7723389-3.0442505,7.9978027-3.0442505,12.3897095c0,7.1123657,2.7631226,13.7918701,7.7810669,18.8081055
		c1.2937622,1.2940063,2.6998291,2.4349976,4.1936646,3.4203491c4.2991333,2.8358765,9.3377075,4.3607178,14.6153564,4.3607178
		c1.7374268,0,3.4484863-0.1675415,5.1165161-0.4900513c1.0549927-0.2039795,2.0906982-0.4754639,3.1062012-0.8035889
		c3.9501343-1.2763672,7.5698242-3.4707031,10.5862427-6.4865723c1.9300537-1.9297485,3.5229492-4.1071777,4.7570801-6.4588623
		c1.9744873-3.7623291,3.0248413-7.9733887,3.0248413-12.3500977c0-7.1123657-2.7639771-13.7918701-7.7819214-18.8098145
		c-1.3047485-1.3043213-2.7229004-2.4528809-4.229126-3.4440308c-4.2952881-2.8265991-9.3203125-4.347229-14.579834-4.347229
		C59.1816711,31.3434448,58.3693542,31.3843994,57.5637512,31.4570923z M60.0004578,40.0333862
		c4.7828369,0,9.2805786,1.8635864,12.664917,5.2470703c3.3758545,3.3758545,5.2360229,7.8735352,5.2360229,12.6640625
		s-1.8601685,9.288208-5.2360229,12.663208c-2.0141602,2.0141602-4.4328003,3.4743042-7.0689087,4.3361206
		c-0.7374268,0.2410889-1.4889526,0.4403687-2.2573853,0.5840454c-1.0899048,0.2037354-2.2050781,0.3158569-3.338623,0.3158569
		c-4.7905273,0-9.288269-1.859314-12.664917-5.2360229c-3.3758545-3.375-5.2352295-7.8726807-5.2352295-12.663208
		s1.859375-9.288208,5.236084-12.664917c2.0831909-2.0842285,4.5917969-3.5859985,7.328125-4.4361572
		c0.4730835-0.1469727,0.9553833-0.265625,1.4411621-0.3729248C57.3714905,40.190979,58.67276,40.0333862,60.0004578,40.0333862z"/>
</g>
</svg>
