<?xml version="1.0" encoding="UTF-8" standalone="no"?>
<svg
   xmlns:dc="http://purl.org/dc/elements/1.1/"
   xmlns:cc="http://creativecommons.org/ns#"
   xmlns:rdf="http://www.w3.org/1999/02/22-rdf-syntax-ns#"
   xmlns:svg="http://www.w3.org/2000/svg"
   xmlns="http://www.w3.org/2000/svg"
   xmlns:sodipodi="http://sodipodi.sourceforge.net/DTD/sodipodi-0.dtd"
   xmlns:inkscape="http://www.inkscape.org/namespaces/inkscape"
   id="Layer_1"
   data-name="Layer 1"
   viewBox="0 0 124.76287 118.75628"
   version="1.1"
   sodipodi:docname="Hyphae-icon-color.svg"
   width="124.76287"
   height="118.75628"
   inkscape:version="1.0.2 (e86c8708, 2021-01-15)">
  <metadata
     id="metadata66">
    <rdf:RDF>
      <cc:Work
         rdf:about="">
        <dc:format>image/svg+xml</dc:format>
        <dc:type
           rdf:resource="http://purl.org/dc/dcmitype/StillImage" />
        <dc:title></dc:title>
      </cc:Work>
    </rdf:RDF>
  </metadata>
  <sodipodi:namedview
     pagecolor="#ffffff"
     bordercolor="#666666"
     borderopacity="1"
     objecttolerance="10"
     gridtolerance="10"
     guidetolerance="10"
     inkscape:pageopacity="0"
     inkscape:pageshadow="2"
     inkscape:window-width="1361"
     inkscape:window-height="847"
     id="namedview64"
     showgrid="false"
     inkscape:zoom="2.7903546"
     inkscape:cx="196.585"
     inkscape:cy="62.388299"
     inkscape:window-x="0"
     inkscape:window-y="25"
     inkscape:window-maximized="0"
     inkscape:current-layer="Layer_1" />
  <defs
     id="defs12">
    <style
       id="style10">.cls-1{fill:#2896d3;}.cls-2{fill:#193965;}.cls-3{fill:#fbb739;}.cls-4{fill:#f79226;}</style>
  </defs>
  <g
     id="_19ltlt"
     data-name="19ltlt"
     transform="translate(0.015,0.0082989)">
    <path
       class="cls-3"
       d="m 90.24,118.21 c 0,-3.23 0,-6.47 0,-9.71 a 2.07,2.07 0 0 1 0.85,-1.46 c 5.57,-3.29 11.18,-6.5 16.77,-9.76 a 1.49,1.49 0 0 1 1.72,0 q 8.31,4.88 16.67,9.67 a 1.72,1.72 0 0 1 1,1.73 q 0,9.51 0,19 a 1.84,1.84 0 0 1 -1.08,1.83 q -8.24,4.74 -16.42,9.56 a 1.78,1.78 0 0 1 -2.1,0 c -5.42,-3.18 -10.85,-6.35 -16.32,-9.46 a 2,2 0 0 1 -1.15,-2 c 0.1,-3.19 0.06,-6.29 0.06,-9.4 z"
       transform="translate(-2.51,-58.85)"
       id="path46" />
    <path
       class="cls-3"
       d="m 61.35,156.36 c 0,3.14 0,6.29 0,9.43 a 1.92,1.92 0 0 1 -1.09,2 q -8.18,4.68 -16.3,9.47 a 1.8,1.8 0 0 1 -2.1,0 q -8.18,-4.81 -16.42,-9.53 a 1.72,1.72 0 0 1 -1,-1.72 q 0,-9.65 0,-19.28 a 1.64,1.64 0 0 1 0.94,-1.62 q 8.3,-4.74 16.55,-9.57 a 1.7,1.7 0 0 1 2,0 q 8.19,4.78 16.43,9.51 a 1.69,1.69 0 0 1 1,1.72 c -0.04,3.23 -0.01,6.4 -0.01,9.59 z"
       transform="translate(-2.51,-58.85)"
       id="path48" />
    <path
       class="cls-3"
       d="m 68.33,156.42 c 0,-3.24 0,-6.48 0,-9.71 a 2.06,2.06 0 0 1 0.83,-1.48 Q 77.54,140.3 86,135.5 a 2,2 0 0 1 1.71,0 q 8.37,4.75 16.66,9.65 a 2.07,2.07 0 0 1 0.87,1.47 q 0.09,9.72 0,19.42 a 2.18,2.18 0 0 1 -1,1.56 c -5.48,3.26 -11,6.43 -16.51,9.65 a 1.62,1.62 0 0 1 -1.87,0 q -8.3,-4.89 -16.65,-9.68 a 1.6,1.6 0 0 1 -0.91,-1.63 c 0.06,-3.14 0.03,-6.33 0.03,-9.52 z"
       transform="translate(-2.51,-58.85)"
       id="path50" />
    <path
       class="cls-3"
       d="m 39.44,118.09 c 0,3.24 0,6.48 0,9.71 a 1.61,1.61 0 0 1 -0.93,1.62 c -5.61,3.23 -11.19,6.5 -16.81,9.71 a 1.83,1.83 0 0 1 -1.55,0 q -8.43,-4.81 -16.78,-9.75 a 2.11,2.11 0 0 1 -0.84,-1.5 q -0.07,-9.7 0,-19.43 A 2,2 0 0 1 3.44,107 c 5.57,-3.3 11.17,-6.53 16.79,-9.74 a 1.7,1.7 0 0 1 1.43,0 q 8.49,4.83 16.91,9.8 a 2,2 0 0 1 0.83,1.46 c 0.08,3.18 0.04,6.38 0.04,9.57 z"
       transform="translate(-2.51,-58.85)"
       id="path52" />
    <path
       class="cls-3"
       d="m 61.35,80 c 0,3.2 0,6.39 0,9.58 a 1.7,1.7 0 0 1 -1,1.72 q -8.22,4.7 -16.41,9.56 a 1.79,1.79 0 0 1 -2.1,0 Q 33.71,96.08 25.52,91.4 a 1.86,1.86 0 0 1 -1.08,-1.83 q 0.06,-9.51 0,-19 a 1.84,1.84 0 0 1 1,-1.85 Q 33.73,64 41.92,59.16 a 1.73,1.73 0 0 1 2,0 q 8.19,4.84 16.42,9.56 a 1.8,1.8 0 0 1 1,1.85 c -0.02,3.15 0.01,6.3 0.01,9.43 z"
       transform="translate(-2.51,-58.85)"
       id="path54" />
    <path
       class="cls-3"
       d="m 68.33,80 c 0,-3.19 0,-6.38 0,-9.57 a 1.72,1.72 0 0 1 1,-1.72 c 5.53,-3.17 11,-6.41 16.56,-9.56 a 2.18,2.18 0 0 1 1.82,0 q 8.39,4.76 16.66,9.67 a 2,2 0 0 1 0.87,1.46 q 0.09,9.7 0,19.42 a 2.15,2.15 0 0 1 -1,1.55 c -5.48,3.25 -11,6.42 -16.51,9.64 a 1.61,1.61 0 0 1 -1.87,0 Q 77.58,96 69.22,91.24 a 1.59,1.59 0 0 1 -0.9,-1.63 c 0.03,-3.19 0.01,-6.38 0.01,-9.61 z"
       transform="translate(-2.51,-58.85)"
       id="path56" />
    <path
       class="cls-3"
       d="m 83.28,118.23 c 0,3.19 0,6.38 0,9.57 a 1.72,1.72 0 0 1 -1,1.72 q -8.23,4.72 -16.42,9.54 a 1.8,1.8 0 0 1 -2.09,0 c -5.42,-3.18 -10.84,-6.35 -16.3,-9.46 a 1.91,1.91 0 0 1 -1.1,-1.93 q 0.06,-9.44 0,-18.87 a 1.92,1.92 0 0 1 1.12,-1.93 c 5.46,-3.11 10.89,-6.28 16.3,-9.46 a 1.79,1.79 0 0 1 2.09,0 q 8.13,4.78 16.3,9.47 a 1.88,1.88 0 0 1 1.09,1.94 c -0.02,3.12 0.01,6.26 0.01,9.41 z"
       transform="translate(-2.51,-58.85)"
       id="path58" />
  </g>
  <path
     class="cls-4"
     d="m 106.325,50.048299 a 9,9 0 0 0 -3.48,0.7 l -13.19,-22.44 a 9,9 0 1 0 -14.47,-8.29 h -26 a 9,9 0 1 0 -14.38,8.35 l -12.78,22.35 a 8.91,8.91 0 0 0 -3.39,-0.67 9,9 0 1 0 3.33,17.38 l 12.87,22.89 a 9,9 0 1 0 14.34,8.38 h 26 a 9,9 0 1 0 14.42,-8.32 l 13.29,-23 a 9,9 0 1 0 3.43,-17.34 z m -5.55,1.93 a 9,9 0 0 0 -3.37,5.88 h -26 a 9,9 0 0 0 -3.53,-6 l 12.82,-22.3 a 9,9 0 0 0 6.9,0 z m -25.59,44.32 h -26 a 9,9 0 0 0 -3.43,-5.93 l 13.23,-23 a 8.93,8.93 0 0 0 6.52,0.18 l 13.12,22.83 a 9,9 0 0 0 -3.44,5.92 z m -26,-73.88 h 26 a 9,9 0 0 0 3.43,5.94 l -12.83,22.33 a 8.86,8.86 0 0 0 -3.3,-0.64 9.06,9.06 0 0 0 -3.79,0.84 l -12.95,-22.53 a 9,9 0 0 0 3.43,-5.94 z m -12.3,7.15 a 9,9 0 0 0 6.79,0 l 13,22.62 a 9,9 0 0 0 -3.11,5.68 h -26 a 9,9 0 0 0 -3.45,-6 z m -12.83,36.68 a 9,9 0 0 0 3.5,-6 h 26 a 8.94,8.94 0 0 0 3.35,5.91 l -13.24,23 a 8.91,8.91 0 0 0 -6.73,0 z m 63.45,22.91 a 9.12,9.12 0 0 0 -3.43,-0.68 9,9 0 0 0 -3.41,0.67 l -13.03,-22.71 a 9,9 0 0 0 3.77,-6.18 h 26 a 9,9 0 0 0 3.42,5.92 z"
     id="path61" />
</svg>
