<?xml version="1.0" encoding="UTF-8"?>
<svg id="Layer_1" data-name="Layer 1" xmlns="http://www.w3.org/2000/svg" version="1.1" viewBox="0 0 356 172">
  <defs>
    <style>
      .cls-1 {
        fill: none;
        stroke: #000;
        stroke-miterlimit: 10;
        stroke-width: 1.01px;
      }

      .cls-2 {
        fill: #000;
        stroke-width: 0px;
      }
    </style>
  </defs>
  <line class="cls-1" x1="5.0999999" y1="97.9000015" x2="350.8999939" y2="97.9000015"/>
  <polygon class="cls-2" points="13.6000004 69.3000031 13.6000004 52.4000015 5.0999999 52.4000015 5.0999999 77.8000031 30.5 77.8000031 30.5 69.3000031 13.6000004 69.3000031"/>
  <polygon class="cls-2" points="47.5 35.4000015 5.0999999 35.4000015 5.0999999 48.0999985 13.6000004 48.0999985 13.6000004 44 39 44 39 69.3000031 34.7999992 69.3000031 34.7999992 77.8000031 47.5 77.8000031 47.5 35.4000015"/>
  <polygon class="cls-2" points="58.7000008 36 71.5999985 36 71.5999985 67.0999985 90.0999985 67.0999985 90.0999985 77.8000031 58.7000008 77.8000031 58.7000008 36"/>
  <polygon class="cls-2" points="95.6999969 36 128 36 128 46.7000008 108.5 46.7000008 108.5 51.9000015 125.1999969 51.9000015 125.1999969 61.9000015 108.5 61.9000015 108.5 77.8000031 95.5999985 77.8000031 95.5999985 36 95.6999969 36"/>
  <polygon class="cls-2" points="161.3000031 78.0999985 137.8999939 78.0999985 137.8999939 35.7999992 161.3000031 35.7999992 161.3000031 38.5999985 140.8999939 38.5999985 140.8999939 54.5 160.1999969 54.5 160.1999969 57.2999992 140.8999939 57.2999992 140.8999939 75.4000015 161.3000031 75.4000015 161.3000031 78.0999985"/>
  <path class="cls-2" d="M202.1000061,78.0999985h-3l-25.3999939-37.5h-.1999969c.1999969,4.4000015.3000031,7.7999992.3000031,10.0999985v27.3000031h-2.8000183v-42.2000008h3l25.3999939,37.3999977h.1999969c-.1999969-3.5-.3000031-6.8000031-.3000031-9.7999992v-27.5999985h2.8999939l-.0999756,42.2999992h0Z"/>
  <polygon class="cls-2" points="237.6999969 78.0999985 214.3000031 78.0999985 214.3000031 35.7999992 237.6999969 35.7999992 237.6999969 38.5999985 217.3000031 38.5999985 217.3000031 54.5 236.5 54.5 236.5 57.2999992 217.3000031 57.2999992 217.3000031 75.4000015 237.6999969 75.4000015 237.6999969 78.0999985"/>
  <path class="cls-2" d="M250.3000031,59.7000008v18.3999977h-3v-42.2999992h10.1999969c5.2999878,0,9.2000122,1,11.7999878,2.9000015,2.6000061,1.9000015,3.7999878,4.7999992,3.7999878,8.7000008.1000061,2.5999985-.7000122,5.0999985-2.2999878,7.2000008-1.7999878,2.0999985-4.2000122,3.5999985-6.8999939,4.2000008l11.7000122,19.1999969h-3.6000061l-11.1000061-18.4000015-10.5999908.1000023h0ZM250.3000031,57.0999985h8.0999908c3.6000061,0,6.3999939-.7999992,8.3999939-2.4000015s3-3.9000015,3-7-1-5.5-2.8999939-7-5.1000061-2.2000008-9.6000061-2.2000008h-7l.0000153,18.6000023h0Z"/>
  <path class="cls-2" d="M299.3999939,56.2999992h15.3999939v18.7999992c-4.2999878,1.8000031-9,2.5999985-13.7000122,2.5999985-6.6000061,0-11.7000122-1.8000031-15.1000061-5.5s-5.2999878-8.9000015-5.2999878-15.5999985c-.1000061-3.9000015.7999878-7.7000008,2.6000061-11.2000008,1.7000122-3.2000008,4.2999878-5.7999992,7.5-7.5,3.3999939-1.7999992,7.2999878-2.7000008,11.2000122-2.7000008,4.2000122-.0999985,8.3999939.7999992,12.2999878,2.5l-1.2000122,2.5999985c-3.5-1.5999985-7.3999939-2.5-11.2999878-2.5-5.5,0-9.8999939,1.7000008-13.1000061,5s-4.7999878,7.9000015-4.7999878,13.5c0,6.2000008,1.5,10.9000015,4.6000061,14s7.6000061,4.6999969,13.6000061,4.6999969c3.2999878.0999985,6.7000122-.4000015,9.7999878-1.5999985v-14.3999939h-12.3999939l-.1000061-2.7000008h0Z"/>
  <polygon class="cls-2" points="335.2000122 58.7999992 347.7000122 35.7999992 350.8999939 35.7999992 336.7000122 61.5999985 336.7000122 77.8000031 333.6000061 77.8000031 333.6000061 61.7999992 319.3999939 35.7999992 322.7999878 35.7999992 335.2000122 58.7999992"/>
  <g>
    <path class="cls-2" d="M46.9101562,135.0751953c0,2.0390625-.7495117,3.6552734-2.2480469,4.8476562-1.4990234,1.1923828-3.4912109,1.7880859-5.9760742,1.7880859-2.9868164,0-5.2768555-.328125-6.8706055-.9863281v-1.7050781c1.7607422.7470703,4.0063477,1.1201172,6.7368164,1.1201172,2.0058594,0,3.5966797-.4589844,4.7724609-1.3789062,1.1757812-.9189453,1.7636719-2.1259766,1.7636719-3.6191406,0-.9248047-.1953125-1.6904297-.5849609-2.2988281-.390625-.6064453-1.0258789-1.1611328-1.9057617-1.6630859-.8803711-.5009766-2.1733398-1.0419922-3.878418-1.6210938-2.496582-.8583984-4.2207031-1.7861328-5.1738281-2.7832031-.9526367-.9970703-1.4291992-2.3261719-1.4291992-3.9873047,0-1.8271484.7163086-3.3183594,2.1484375-4.4716797,1.4316406-1.1533203,3.2734375-1.7294922,5.5244141-1.7294922,2.2958984,0,4.4521484.4345703,6.4692383,1.3037109l-.6181641,1.4707031c-2.0288086-.8466797-3.9677734-1.2705078-5.8173828-1.2705078-1.8056641,0-3.2431641.4179688-4.3129883,1.2539062s-1.6049805,1.9726562-1.6049805,3.4101562c0,.9023438.1645508,1.6435547.4931641,2.2236328.3286133.5791016.8666992,1.1005859,1.6132812,1.5625.746582.4628906,2.0283203,1.0175781,3.8447266,1.6630859,1.9057617.6582031,3.3374023,1.2958984,4.2963867,1.9140625.9580078.6191406,1.6572266,1.3212891,2.0976562,2.1064453.4404297.7861328.6601562,1.7363281.6601562,2.8505859Z"/>
    <path class="cls-2" d="M63.84375,132.7509766h-9.9291992l-3.4101562,8.6259766h-1.8891602l9.8291016-24.5400391h1.0869141l9.628418,24.5400391h-1.9223633l-3.3935547-8.6259766ZM54.5327148,131.2138672h8.7426758l-3.3266602-8.8095703c-.2783203-.6914062-.612793-1.6494141-1.0029297-2.8759766-.3007812,1.0703125-.6293945,2.0400391-.9863281,2.9091797l-3.4267578,8.7763672Z"/>
    <path class="cls-2" d="M90.3896484,141.3769531h-1.722168l-14.4760742-21.6982422h-.1337891c.1337891,2.5859375.2006836,4.5361328.2006836,5.8515625v15.8466797h-1.6381836v-24.4394531h1.7050781l14.4594727,21.6640625h.1000977c-.1000977-2.0058594-.1503906-3.9111328-.1503906-5.7167969v-15.9472656h1.6552734v24.4394531Z"/>
    <path class="cls-2" d="M115.8657227,128.9228516c0,4.1015625-1.0756836,7.2021484-3.2265625,9.3027344-2.1508789,2.1015625-5.3100586,3.1513672-9.4780273,3.1513672h-5.8505859v-24.4394531h6.6030273c3.9003906,0,6.8671875,1.0195312,8.9013672,3.0595703,2.0336914,2.0390625,3.0507812,5.0146484,3.0507812,8.9257812ZM114.0102539,128.9902344c0-3.4990234-.8891602-6.1318359-2.6665039-7.8984375-1.777832-1.7666016-4.3881836-2.6494141-7.831543-2.6494141h-4.496582v21.4296875h4.0454102c7.2993164,0,10.9492188-3.6269531,10.9492188-10.8818359Z"/>
    <path class="cls-2" d="M121.4824219,116.9375h6.703125c3.0200195,0,5.237793.5126953,6.6533203,1.5380859,1.4150391,1.0253906,2.1225586,2.5742188,2.1225586,4.6474609,0,1.4150391-.4316406,2.59375-1.2954102,3.5351562s-2.1259766,1.5458984-3.7861328,1.8134766v.1005859c1.9501953.2900391,3.3852539.9052734,4.3041992,1.8466797.9194336.9423828,1.3793945,2.2548828,1.3793945,3.9375,0,2.2509766-.746582,3.9833984-2.2402344,5.1982422-1.4931641,1.2148438-3.6103516,1.8222656-6.3520508,1.8222656h-7.4887695v-24.4394531ZM123.1875,127.8203125h5.3823242c2.2958984,0,3.9643555-.3818359,5.0068359-1.1455078,1.0419922-.7626953,1.5629883-1.9580078,1.5629883-3.5859375,0-1.6269531-.5878906-2.8076172-1.7636719-3.5439453-1.1757812-.7353516-2.9282227-1.1025391-5.2573242-1.1025391h-4.9311523v9.3779297ZM123.1875,129.3242188v10.5478516h5.7504883c4.5244141,0,6.7866211-1.8388672,6.7866211-5.515625,0-3.3544922-2.3847656-5.0322266-7.1547852-5.0322266h-5.3823242Z"/>
    <path class="cls-2" d="M163.4907227,129.1240234c0,3.8779297-.9697266,6.9453125-2.9086914,9.2021484-1.9394531,2.2568359-4.6137695,3.3847656-8.0239258,3.3847656-3.3994141,0-6.0678711-1.1279297-8.0073242-3.3847656-1.9389648-2.2568359-2.9086914-5.3349609-2.9086914-9.2353516,0-3.8896484.9780273-6.9511719,2.934082-9.1865234,1.9555664-2.2333984,4.6274414-3.3515625,8.0151367-3.3515625,3.4101562,0,6.0791016,1.1230469,8.0073242,3.3691406,1.9277344,2.2451172,2.8920898,5.3125,2.8920898,9.2021484ZM143.4975586,129.1240234c0,3.4990234.7802734,6.2041016,2.340332,8.1152344,1.5600586,1.9121094,3.800293,2.8671875,6.7202148,2.8671875,2.9418945,0,5.1904297-.9472656,6.7451172-2.8417969s2.3320312-4.6074219,2.3320312-8.140625c0-3.5214844-.7773438-6.2216797-2.3320312-8.0996094-1.5546875-1.8769531-3.7919922-2.8164062-6.7119141-2.8164062-2.9086914,0-5.1513672.9472656-6.7280273,2.8417969-1.5771484,1.8945312-2.3657227,4.5859375-2.3657227,8.0742188Z"/>
    <path class="cls-2" d="M184.0683594,141.3769531h-1.9550781l-7.222168-11.4003906-7.3549805,11.4003906h-1.8891602l8.2246094-12.7382812-7.472168-11.7011719h1.9223633l6.6030273,10.4648438,6.703125-10.4648438h1.8212891l-7.5717773,11.6679688,8.190918,12.7714844Z"/>
    <path class="cls-2" d="M211.1328125,123.9580078c0,2.3632812-.8027344,4.1738281-2.4082031,5.4335938-1.6044922,1.2587891-3.8779297,1.8886719-6.8203125,1.8886719h-3.7773438v10.0966797h-1.7050781v-24.4394531h5.984375c5.8173828,0,8.7265625,2.3408203,8.7265625,7.0205078ZM198.1269531,129.8095703h3.359375c2.7529297,0,4.7421875-.4541016,5.96875-1.3623047,1.2246094-.9082031,1.8378906-2.3828125,1.8378906-4.421875,0-1.8828125-.5791016-3.2792969-1.7382812-4.1875s-2.953125-1.3623047-5.3828125-1.3623047h-4.0449219v11.3339844Z"/>
    <path class="cls-2" d="M218.1533203,130.7285156v10.6484375h-1.7050781v-24.4394531h5.8173828c3.03125,0,5.2714844.5605469,6.7197266,1.6796875,1.4482422,1.1201172,2.1728516,2.8056641,2.1728516,5.0566406,0,1.6386719-.4316406,3.0205078-1.2949219,4.1464844-.8642578,1.125-2.1757812,1.9335938-3.9375,2.4238281l6.6367188,11.1328125h-2.0390625l-6.3027344-10.6484375h-6.0673828ZM218.1533203,129.2578125h4.6630859c2.0625,0,3.6621094-.4599609,4.7988281-1.3789062,1.1367188-.9199219,1.7050781-2.2763672,1.7050781-4.0712891,0-1.8603516-.5585938-3.2148438-1.671875-4.0615234-1.1152344-.8466797-2.9316406-1.2705078-5.4492188-1.2705078h-4.0458984v10.7822266Z"/>
    <path class="cls-2" d="M257.3359375,129.1240234c0,3.8779297-.96875,6.9453125-2.9082031,9.2021484s-4.6132812,3.3847656-8.0234375,3.3847656c-3.4003906,0-6.0683594-1.1279297-8.0078125-3.3847656s-2.9082031-5.3349609-2.9082031-9.2353516c0-3.8896484.9775391-6.9511719,2.9335938-9.1865234,1.9550781-2.2333984,4.6269531-3.3515625,8.015625-3.3515625,3.4101562,0,6.078125,1.1230469,8.0068359,3.3691406,1.9277344,2.2451172,2.8916016,5.3125,2.8916016,9.2021484ZM237.34375,129.1240234c0,3.4990234.7792969,6.2041016,2.3398438,8.1152344,1.5605469,1.9121094,3.8007812,2.8671875,6.7207031,2.8671875,2.9414062,0,5.1894531-.9472656,6.7441406-2.8417969s2.3320312-4.6074219,2.3320312-8.140625c0-3.5214844-.7773438-6.2216797-2.3320312-8.0996094-1.5546875-1.8769531-3.7910156-2.8164062-6.7109375-2.8164062-2.9091797,0-5.1523438.9472656-6.7285156,2.8417969-1.5771484,1.8945312-2.3652344,4.5859375-2.3652344,8.0742188Z"/>
    <path class="cls-2" d="M258.9404297,147.5449219c-1.0244141,0-1.8662109-.1503906-2.5244141-.4511719v-1.4707031c.8691406.2226562,1.6992188.3339844,2.4912109.3339844,2.6962891,0,4.0449219-1.4707031,4.0449219-4.4130859v-24.6064453h1.7050781v24.4394531c0,4.1123047-1.9052734,6.1679688-5.7167969,6.1679688Z"/>
    <path class="cls-2" d="M284.7675781,141.3769531h-13.3564453v-24.4394531h13.3564453v1.5712891h-11.6513672v9.2441406h11v1.5712891h-11v10.4814453h11.6513672v1.5712891Z"/>
    <path class="cls-2" d="M300.7324219,118.1240234c-3.0654297,0-5.4775391.9814453-7.2382812,2.9423828-1.7607422,1.9619141-2.6416016,4.6474609-2.6416016,8.0576172,0,3.4882812.8300781,6.1962891,2.4912109,8.1240234,1.6601562,1.9277344,4.0341797,2.8916016,7.1210938,2.8916016,2.0498047,0,3.9335938-.2617188,5.6503906-.7851562v1.5039062c-1.6162109.5683594-3.6337891.8525391-6.0517578.8525391-3.4326172,0-6.1347656-1.1083984-8.1074219-3.3261719s-2.9589844-5.3154297-2.9589844-9.2939453c0-2.4853516.4707031-4.6748047,1.4130859-6.5703125.9414062-1.8945312,2.2949219-3.3564453,4.0615234-4.3876953,1.7666016-1.0302734,3.8203125-1.5458984,6.1601562-1.5458984,2.3847656,0,4.5185547.4453125,6.4023438,1.3369141l-.6855469,1.5380859c-1.7832031-.8916016-3.6552734-1.3378906-5.6162109-1.3378906Z"/>
    <path class="cls-2" d="M317.9326172,141.3769531h-1.7216797v-22.8349609h-7.9404297v-1.6044922h17.6025391v1.6044922h-7.9404297v22.8349609Z"/>
  </g>
</svg>