<?xml version="1.0" encoding="UTF-8"?>
<svg id="Layer_1" data-name="Layer 1" xmlns="http://www.w3.org/2000/svg" viewBox="0 0 300 293.535">
  <defs>
    <style>
      .cls-1 {
        fill: #00e0ab;
      }

      .cls-2 {
        fill: #003764;
      }

      .cls-3 {
        fill: #02ce7c;
      }

      .cls-4 {
        fill: #74e2df;
      }
    </style>
  </defs>
  <g>
    <path class="cls-4" d="M287.3058789,257.2811343H12.6941211c-1.8864727,0-3.4129823-1.5265097-3.4129823-3.4129823s1.5265097-3.4129823,3.4129823-3.4129823H287.3058789c1.8864727,0,3.4129823,1.5265097,3.4129823,3.4129823s-1.5265097,3.4129823-3.4129823,3.4129823Z"/>
    <path class="cls-4" d="M287.3058789,150.1821488H12.6941211c-1.8864727,0-3.4129823-1.5265097-3.4129823-3.4129823s1.5265097-3.4129823,3.4129823-3.4129823H287.3058789c1.8864727,0,3.4129823,1.5265097,3.4129823,3.4129823s-1.5265097,3.4129823-3.4129823,3.4129823Z"/>
    <path class="cls-4" d="M287.3058789,96.6343226H12.6941211c-1.8864727,0-3.4129823-1.5265097-3.4129823-3.4129823s1.5265097-3.4129823,3.4129823-3.4129823H287.3058789c1.8864727,0,3.4129823,1.5265097,3.4129823,3.4129823s-1.5265097,3.4129823-3.4129823,3.4129823Z"/>
    <path class="cls-4" d="M287.3058789,43.0798303H12.6941211c-1.8864727,0-3.4129823-1.5265097-3.4129823-3.4129823s1.5265097-3.4129823,3.4129823-3.4129823H287.3058789c1.8864727,0,3.4129823,1.5265097,3.4129823,3.4129823s-1.5265097,3.4129823-3.4129823,3.4129823Z"/>
    <path class="cls-4" d="M287.3058789,203.7333081H12.6941211c-1.8864727,0-3.4129823-1.5265097-3.4129823-3.4129823s1.5265097-3.4129823,3.4129823-3.4129823H287.3058789c1.8864727,0,3.4129823,1.5265097,3.4129823,3.4129823s-1.5265097,3.4129823-3.4129823,3.4129823Z"/>
  </g>
  <g>
    <path class="cls-4" d="M257.0989855,287.4880277c-1.8864727,0-3.4129823-1.5265097-3.4129823-3.4129823V9.4599546c0-1.8864727,1.5265097-3.4129823,3.4129823-3.4129823s3.4129823,1.5265097,3.4129823,3.4129823V284.0750454c0,1.8864727-1.5265097,3.4129823-3.4129823,3.4129823Z"/>
    <path class="cls-4" d="M150.003333,287.4880277c-1.8864727,0-3.4129823-1.5265097-3.4129823-3.4129823V9.4599546c0-1.8864727,1.5265097-3.4129823,3.4129823-3.4129823s3.4129823,1.5265097,3.4129823,3.4129823V284.0750454c0,1.8864727-1.5265097,3.4129823-3.4129823,3.4129823Z"/>
    <path class="cls-4" d="M96.4521737,287.4880277c-1.8864727,0-3.4129823-1.5265097-3.4129823-3.4129823V9.4599546c0-1.8864727,1.5265097-3.4129823,3.4129823-3.4129823s3.4129823,1.5265097,3.4129823,3.4129823V284.0750454c0,1.8864727-1.5265097,3.4129823-3.4129823,3.4129823Z"/>
    <path class="cls-4" d="M42.8976815,287.4880277c-1.8864727,0-3.4129823-1.5265097-3.4129823-3.4129823V9.4599546c0-1.8864727,1.5265097-3.4129823,3.4129823-3.4129823s3.4129823,1.5265097,3.4129823,3.4129823V284.0750454c0,1.8864727-1.5265097,3.4129823-3.4129823,3.4129823Z"/>
    <path class="cls-4" d="M203.5511593,287.4880277c-1.8864727,0-3.4129823-1.5265097-3.4129823-3.4129823V9.4599546c0-1.8864727,1.5265097-3.4129823,3.4129823-3.4129823s3.4129823,1.5265097,3.4129823,3.4129823V284.0750454c0,1.8864727-1.5265097,3.4129823-3.4129823,3.4129823Z"/>
  </g>
  <path class="cls-2" d="M239.4684621,40.5702168c0-9.7213158,7.9118248-17.6304559,17.6331406-17.6304559s17.6304559,7.9091401,17.6304559,17.6304559-7.9091401,17.6331406-17.6304559,17.6331406-17.6331406-7.9118248-17.6331406-17.6331406Z"/>
  <path class="cls-1" d="M185.9569276,93.4105751l.0026847-52.0617939-.0295318-.6470138,.0295318-1.0470348c.3839128-9.2837089,8.1131777-16.7149716,17.59287-16.7149716s17.2062726,7.4312627,17.5875006,16.9136397l.0322165,.590635-.026847,.7007079-.0026847,52.0617939s.0295318,.6604374,.0295318,.6658068c0,9.8448122-7.9037707,17.7432135-17.6197171,17.7432135s-17.6197171-7.8957166-17.6331406-17.6062936l.0375859-.5986892Z"/>
  <path class="cls-2" d="M239.4684621,93.9851019c0-9.7213158,7.9118248-17.6331406,17.6331406-17.6331406s17.6304559,7.9118248,17.6304559,17.6331406-7.9091401,17.6304559-17.6304559,17.6304559-17.6331406-7.9091401-17.6331406-17.6304559Z"/>
  <path class="cls-2" d="M132.3702214,93.9851019c0-9.7213158,7.9118248-17.6331406,17.6331406-17.6331406s17.6304559,7.9118248,17.6304559,17.6331406-7.9091401,17.6304559-17.6304559,17.6304559-17.6331406-7.9091401-17.6331406-17.6304559Z"/>
  <path class="cls-2" d="M25.2719807,93.9851019c0-9.7213158,7.9091401-17.6331406,17.6304559-17.6331406s17.6331406,7.9118248,17.6331406,17.6331406-7.9118248,17.6304559-17.6331406,17.6304559-17.6304559-7.9091401-17.6304559-17.6304559Z"/>
  <path class="cls-3" d="M132.3702214,146.10059c0-9.2165913,7.2084322-16.9324327,16.4089153-17.5633383l1.0980442-.0563788,.7490326,.0241623,52.0107846,.0026847,.6523832-.026847,.7517173,.0241623,52.2819397,.0026847,.6523832-.026847c9.8474969-.0107388,17.756637,7.8984013,17.756637,17.6197171s-7.9091401,17.6304559-17.6304559,17.6304559l-.6255362-.0349012-52.2819397-.0026847-.6523832,.026847-.7517173-.0241623-52.0107846-.0026847-.655068,.026847-.9503855-.026847-.3946516-.0295318c-9.2004831-.6309056-16.4089153-8.346747-16.4089153-17.5633383Z"/>
  <path class="cls-2" d="M25.2719807,146.10059c0-9.7213158,7.9091401-17.6304559,17.6304559-17.6304559s17.6331406,7.9091401,17.6331406,17.6304559-7.9118248,17.6304559-17.6331406,17.6304559-17.6304559-7.9091401-17.6304559-17.6304559Z"/>
  <path class="cls-2" d="M239.4684621,199.5154751c0-9.7213158,7.9118248-17.6331406,17.6331406-17.6331406s17.6304559,7.9118248,17.6304559,17.6331406-7.9091401,17.6304559-17.6304559,17.6304559-17.6331406-7.9091401-17.6331406-17.6304559Z"/>
  <path class="cls-2" d="M185.7851065,199.5154751c0-9.7213158,7.9091401-17.6331406,17.6304559-17.6331406s17.6304559,7.9118248,17.6304559,17.6331406-7.9091401,17.6304559-17.6304559,17.6304559-17.6304559-7.9091401-17.6304559-17.6304559Z"/>
  <path class="cls-2" d="M132.3702214,199.5154751c0-9.7213158,7.9118248-17.6331406,17.6331406-17.6331406s17.6304559,7.9118248,17.6304559,17.6331406-7.9091401,17.6304559-17.6304559,17.6304559-17.6331406-7.9091401-17.6331406-17.6304559Z"/>
  <path class="cls-2" d="M239.4684621,252.9276755c0-9.7213158,7.9118248-17.6331406,17.6331406-17.6331406s17.6304559,7.9118248,17.6304559,17.6331406-7.9091401,17.6304559-17.6304559,17.6304559-17.6331406-7.9091401-17.6331406-17.6304559Z"/>
  <g>
    <path class="cls-3" d="M25.2719807,40.6104874c0-9.7213158,7.9091401-17.6331406,17.6304559-17.6331406l.6255362,.0375859,52.2846244,.0026847,.6845997-.0322165,.7168162,.0295318,52.0107846,.0026847,.6845997-.0322165,.9208537,.0322165,.3946516,.0295318c9.2004831,.6309056,16.4089153,8.346747,16.4089153,17.5633383s-7.2084322,16.9324327-16.4089153,17.5633383l-1.1329454,.0617482-.7141315-.0295318-52.0107846-.0026847-.6845997,.0322165-.7168162-.0295318-52.2846244-.0026847-.6845997,.0322165c-9.8152805,.0080541-17.7244206-7.9037707-17.7244206-17.6250865Z"/>
    <path class="cls-3" d="M78.958021,252.9276755c0-9.009869,6.746663-16.5404658,15.6894144-17.5176983l.6899691-.0751717h.4751927l.6845997-.0322165,.7168162,.0295318,52.0107846,.0026847,.6845997-.0322165,.7168162,.0295318,52.0107846,.0026847,.6845997-.0322165c9.8152805-.0080541,17.7244206,7.9037707,17.7244206,17.6250865s-7.9091401,17.6304559-17.6304559,17.6304559l-.5745268-.0375859-52.0617939-.0026847-.6496985,.0295318-.7007079-.026847-52.0617939-.0026847-.6470138,.0295318-.7033926-.026847h-.800042l-.5691574-.0751717c-8.9427514-.9772325-15.6894144-8.5078293-15.6894144-17.5176983Z"/>
  </g>
  <path class="cls-1" d="M25.3095665,252.3531487l.0026847-52.0617939-.0295318-.6496985,.0295318-1.0443501c.3839128-9.2837089,8.110493-16.7149716,17.5901853-16.7149716,9.4823771,0,17.2089573,7.4312627,17.5901853,16.9136397l.0322165,.5879503-.026847,.7033926-.0026847,52.0617939s.0295318,.6604374,.0295318,.6658068c0,9.8448122-7.9064554,17.7432135-17.6224018,17.7432135-9.7132617,0-17.6170324-7.8957166-17.6304559-17.6062936l.0375859-.5986892Z"/>
  <path class="cls-1" d="M78.9929221,198.8899389l.0026847-52.0107846-.0295318-.6577527,.026847-.7490326,.0026847-50.7087028-.0295318-.6577527,.0429553-.9879713c.4563998-9.4018359,8.1776106-16.765981,17.5794465-16.765981s17.1230467,7.3668298,17.5821312,16.7686657l.0402706,.8188349-.026847,.6738609-.0026847,50.7087028,.0322165,.6872844-.0295318,.7195009-.0026847,52.0080999,.0322165,.6845997-.0295318,.7168162-.0026847,.7329244-.0671176,.5342562c-.9530702,8.9722832-8.4863516,15.7404238-17.5257524,15.7404238s-16.5726822-6.7681406-17.5257524-15.7404238l-.0671176-.6255362v-.4886163l-.0375859-.7651408,.0349012-.636275Z"/>
</svg>