<?xml version="1.0" encoding="UTF-8" standalone="no"?>
<svg
   id="Layer_1"
   data-name="Layer 1"
   viewBox="0 0 121.34033 107.67"
   version="1.1"
   sodipodi:docname="sogno-icon-color.svg"
   width="121.34033"
   height="107.67"
   inkscape:export-filename="/Users/johnmertic/Code/lfenergy-artwork/projects/sogno/icon/color/sogno-icon-color.png"
   inkscape:export-xdpi="377.10001"
   inkscape:export-ydpi="377.10001"
   inkscape:version="1.1.2 (b8e25be8, 2022-02-05)"
   xmlns:inkscape="http://www.inkscape.org/namespaces/inkscape"
   xmlns:sodipodi="http://sodipodi.sourceforge.net/DTD/sodipodi-0.dtd"
   xmlns="http://www.w3.org/2000/svg"
   xmlns:svg="http://www.w3.org/2000/svg">
  <sodipodi:namedview
     id="namedview2004"
     pagecolor="#ffffff"
     bordercolor="#666666"
     borderopacity="1.0"
     inkscape:pageshadow="2"
     inkscape:pageopacity="0.0"
     inkscape:pagecheckerboard="0"
     showgrid="false"
     inkscape:zoom="2.1926275"
     inkscape:cx="213.21451"
     inkscape:cy="55.184931"
     inkscape:window-width="1371"
     inkscape:window-height="480"
     inkscape:window-x="58"
     inkscape:window-y="25"
     inkscape:window-maximized="0"
     inkscape:current-layer="Layer_1" />
  <defs
     id="defs1665">
    <style
       id="style1663">.cls-1{fill:#0098e0;}.cls-2{fill:#003666;}.cls-3{fill:#1d99fa;}.cls-4{fill:none;}.cls-5{fill:#98bbfa;}.cls-6{fill:#80b2fa;}.cls-7{fill:#7eb6fa;}.cls-8{fill:#4981fc;}.cls-9{fill:#4ca2fb;}.cls-10{fill:#59c0fc;}.cls-11{fill:#53c0fc;}.cls-12{fill:#476bfb;}.cls-13{fill:#829bfd;}.cls-14{fill:#0100f9;}.cls-15{fill:#0026fa;}.cls-16{fill:#0009f9;}.cls-17{fill:#0a96fa;}.cls-18{fill:#0267fa;}.cls-19{fill:#4ca5fa;}.cls-20{fill:#399dfa;}.cls-21{fill:#0067fa;}.cls-22{fill:#7bb2fa;}.cls-23{fill:#013df9;}.cls-24{fill:#41a3fa;}.cls-25{fill:#0072fa;}.cls-26{fill:#0054fa;}.cls-27{fill:#0013fa;}.cls-28{fill:#1f7df9;}.cls-29{fill:#0100fa;}.cls-30{fill:#1ba3fa;}.cls-31{fill:#0035fa;}.cls-32{fill:#004bf9;}.cls-33{fill:#004afa;}.cls-34{fill:#017dfa;}.cls-35{fill:#5faefa;}.cls-36{fill:#018ffa;}.cls-37{fill:#61a8fa;}.cls-38{fill:#18aafa;}.cls-39{fill:#005ef9;}.cls-40{fill:#7ab5fa;}.cls-41{fill:#006ef9;}.cls-42{fill:#0035f9;}.cls-43{fill:#0caafa;}.cls-44{fill:#003bf9;}.cls-45{fill:#0156fa;}.cls-46{fill:#2497fb;}.cls-47{fill:#2e7dfc;}.cls-48{fill:#308bfc;}.cls-49{fill:#3596fc;}.cls-50{fill:#10d0fd;}.cls-51{fill:#5ca8fa;}.cls-52{fill:#0183fa;}.cls-53{fill:#0080fa;}.cls-54{fill:#007dfa;}.cls-55{fill:#0182fa;}</style>
  </defs>
  <polygon
     class="cls-4"
     points=""
     id="polygon1697"
     transform="translate(0,-4.8)" />
  <path
     class="cls-4"
     d="m 69.74,0.12 v 0 0 0 V 0 a 0.21,0.21 0 0 1 0,0.12 z"
     id="path1699" />
  <polygon
     class="cls-4"
     points="82.71,4.95 82.71,4.94 82.7,4.95 "
     id="polygon1701"
     transform="translate(0,-4.8)" />
  <polygon
     class="cls-4"
     points=""
     id="polygon1703"
     transform="translate(0,-4.8)" />
  <path
     class="cls-4"
     d="m 45.65,0.11 v 0 a 0.14,0.14 0 0 1 0,-0.11 0.41,0.41 0 0 0 0,0.11 z"
     id="path1705" />
  <path
     class="cls-5"
     d="m 73.72,98.55 h -0.11 q -2.55,4.4 -5.08,8.79 a 2.2,2.2 0 0 0 -0.15,0.31 h 21.85 l 1.86,-3.22 3.35,-5.89 z"
     id="path1707" />
  <path
     class="cls-5"
     d="m 51.77,107.31 c -1.32,-2.3 -2.67,-4.59 -4,-6.91 a 1.07,1.07 0 0 0 -1.08,-0.62 c -6.82,0 -13.63,0 -20.45,0 a 0.87,0.87 0 0 0 -0.66,0.12 l 4.52,7.75 H 52 Z"
     id="path1709" />
  <path
     class="cls-6"
     d="m 68.37,107.36 c 0.5,-0.93 1,-1.85 1.56,-2.76 q 1.56,-2.67 3.07,-5.38 a 1.94,1.94 0 0 1 0.47,-0.66 h -12 l -0.24,0.13 v 0 c -0.35,1 -0.49,1.12 -1.55,1.12 h -9.91 l 1.52,2.71 2.94,5.15 h 13.94 c 0.06,-0.12 0.15,-0.23 0.2,-0.31 z"
     id="path1711" />
  <path
     class="cls-6"
     d="m 68.53,107.35 q 2.53,-4.39 5.08,-8.79 h -0.1 a 1.94,1.94 0 0 0 -0.47,0.66 q -1.55,2.7 -3.11,5.38 c -0.53,0.91 -1.06,1.83 -1.56,2.76 -0.05,0.08 -0.14,0.19 -0.2,0.3 h 0.21 a 2.2,2.2 0 0 1 0.15,-0.31 z"
     id="path1713" />
  <path
     class="cls-7"
     d="m 9.61,57.69 1.73,-3 a 2,2 0 0 1 0.24,-0.27 v 0 L 6.3,45.19 5.42,46.66 0,56.01 v 0.25 a 5.3,5.3 0 0 1 0.85,1.35 c 1.52,2.58 3,5.17 4.51,7.76 A 1.4,1.4 0 0 1 5.65,64.56 C 7,62.27 8.29,59.98 9.61,57.69 Z"
     id="path1715" />
  <path
     class="cls-8"
     d="M 69.74,0 H 55 V 0.13 H 69.71 A 0.21,0.21 0 0 0 69.74,0 Z"
     id="path1717" />
  <path
     class="cls-9"
     d="m 69.76,0.14 h 12.95 v 0 0 -0.11 h -13 v 0.12 z"
     id="path1719" />
  <path
     class="cls-10"
     d="M 42.56,0.27 A 0.22,0.22 0 0 0 42.66,0 H 31.94 a 0.25,0.25 0 0 0 0,0.12 h 9.95 c 0.21,0.01 0.48,-0.08 0.67,0.15 z"
     id="path1721" />
  <path
     class="cls-11"
     d="M 90.47,0.11 A 0.23,0.23 0 0 0 90.47,0 H 82.71 V 0.11 Z"
     id="path1723" />
  <path
     class="cls-11"
     d="m 82.71,0.11 v 0 V 0 Z"
     id="path1725" />
  <path
     class="cls-12"
     d="M 52.78,0.13 52.89,0 h -7.23 a 0.14,0.14 0 0 0 0,0.11 z"
     id="path1727" />
  <path
     class="cls-13"
     d="M 45.65,0.11 A 0.41,0.41 0 0 1 45.65,0 H 44.9 c 0,0 0,0.08 0,0.12 z"
     id="path1729" />
  <path
     class="cls-14"
     d="m 68,21.09 h 25.94 a 1.29,1.29 0 0 0 0.78,-0.1 q -1.11,-2 -2.23,-3.93 c -0.74,-1.32 -1.5,-2.63 -2.25,-4 A 1.28,1.28 0 0 1 90,12.43 a 0.53,0.53 0 0 0 -0.12,0 H 62.57 a 0.59,0.59 0 0 0 -0.58,0.36 q -3.14,5.46 -6.28,10.92 l -4.81,8.28 c -2,3.51 -4,7 -6.08,10.54 a 1,1 0 0 0 0,1.18 c 1.5,2.53 3,5.08 4.41,7.64 0.22,0.38 0.3,0.34 0.5,0 q 3.33,-5.77 6.68,-11.54 c 1.08,-1.86 2.15,-3.72 3.23,-5.57 1.36,-2.32 2.74,-4.64 4.1,-7 1.18,-2 2.35,-4 3.52,-6.07 0.19,-0.18 0.46,-0.08 0.74,-0.08 z"
     id="path1731" />
  <path
     class="cls-15"
     d="m 53.3,63.37 a 0.89,0.89 0 0 1 0.9,0.49 q 2.17,3.81 4.37,7.6 c 0.71,1.23 1.44,2.46 2.15,3.7 0.54,0.93 0.8,0.94 1.4,0 1.11,-1.71 1.95,-3.56 3,-5.3 1.05,-1.74 2.19,-3.67 3.22,-5.54 a 1.94,1.94 0 0 1 2,-1 h 7.17 a 17,17 0 0 0 -1.57,-2.95 c -0.66,-1.13 -1.25,-2.29 -2,-3.39 a 0.92,0.92 0 0 1 0.11,-1 l 3.56,-6 1.39,-2.45 a 1.07,1.07 0 0 1 0.44,-0.5 v 0 c -0.27,-0.22 -0.6,-0.11 -0.89,-0.12 H 54.47 c -0.07,0.1 -0.15,0.2 -0.21,0.3 l -5.58,9.72 q -1.77,3.09 -3.53,6.19 c 0.22,0.28 0.54,0.26 0.85,0.26 z"
     id="path1733" />
  <path
     class="cls-16"
     d="m 97.36,53.39 c 1.44,-2.46 2.86,-4.93 4.3,-7.4 a 3.77,3.77 0 0 0 0.5,-1.19 1.42,1.42 0 0 0 -0.1,-0.29 c -1.69,-2.92 -3.4,-5.84 -5.07,-8.77 A 0.92,0.92 0 0 0 96.06,35.2 H 61.82 a 0.82,0.82 0 0 0 -0.83,0.46 q -2.55,4.44 -5.14,8.87 c -0.38,0.65 0.09,0.51 0.42,0.51 h 23.26 c 3.72,0 7.44,0 11.16,0 a 0.54,0.54 0 0 1 0.57,0.35 c 0.46,0.81 0.95,1.6 1.42,2.41 1.3,2.21 2.59,4.44 3.89,6.66 0.43,-0.26 0.58,-0.71 0.79,-1.07 z"
     id="path1735" />
  <path
     class="cls-17"
     d="m 92.15,62.47 a 1.28,1.28 0 0 1 -1.28,0.81 c -3.05,-0.06 -6.1,0 -9.15,0 v 0 c -0.26,0.22 -0.56,0.11 -0.84,0.11 -1,0 -2.1,0 -3.16,0 H 77.6 a 16.24,16.24 0 0 0 1.62,2.95 c 0.09,0.13 0.17,0.28 0.25,0.42 a 6.94,6.94 0 0 1 1.11,1.77 c 1.23,2.15 2.41,4.33 3.73,6.44 0.12,0.19 0.36,0.42 0.2,0.67 -0.16,0.25 -0.42,0.1 -0.64,0.1 -3.09,0 -6.18,0 -9.27,0 l -0.13,0.12 v 0 A 15.39,15.39 0 0 1 73,78.53 c -1.36,2.41 -2.75,4.81 -4.12,7.21 a 4.87,4.87 0 0 0 -0.24,0.57 h 12.11 v 0 c 1.6,-2.74 3.18,-5.49 4.8,-8.21 0.39,-0.66 0,-1.1 -0.24,-1.61 -0.09,-0.18 -0.33,-0.35 -0.24,-0.54 0.09,-0.19 0.42,-0.11 0.63,-0.11 4.09,0 8.19,0 12.29,0 a 1.4,1.4 0 0 0 1.38,-0.81 c 1,-1.84 2,-3.73 3.17,-5.49 a 1,1 0 0 0 0.18,-0.59 v 0 c -0.63,-1.12 -1.25,-2.24 -1.89,-3.35 -1.77,-3.08 -3.56,-6.16 -5.34,-9.24 v 0 a 6.12,6.12 0 0 1 -1.11,2.26 c -0.74,1.31 -1.51,2.56 -2.23,3.85 z"
     id="path1737" />
  <path
     class="cls-14"
     d="m 45.35,11.35 h -6.94 a 3.3,3.3 0 0 0 -0.22,0.3 l -5.3,9.28 q -2.7,4.68 -5.42,9.33 a 0.84,0.84 0 0 0 0,1 q 2.33,4 4.62,8 l 5.75,10 c 1.76,3 3.51,6.1 5.28,9.15 0.4,0.7 0.82,1.39 1.27,2.15 l 3.85,-6.67 A 0.49,0.49 0 0 1 48.17,53.5 L 40.64,40.37 c -1.74,-3 -3.48,-6.08 -5.25,-9.1 a 0.78,0.78 0 0 1 0,-0.94 c 0.9,-1.55 1.78,-3.11 2.68,-4.66 l 3.73,-6.44 c 0.58,-1 1.1,-2.08 1.73,-3.06 0.9,-1.41 1.66,-2.9 2.51,-4.33 C 46,11.31 45.67,11.35 45.35,11.35 Z"
     id="path1739" />
  <path
     class="cls-18"
     d="m 44.2,71.09 c 0.94,1.65 1.91,3.29 2.85,4.94 a 3.57,3.57 0 0 1 0.23,0.57 H 61.5 a 0.83,0.83 0 0 0 0.93,-0.45 0.87,0.87 0 0 1 0.85,-0.43 q 5.32,0 10.65,0 a 1.13,1.13 0 0 1 0.45,0.09 v 0 a 0.53,0.53 0 0 1 0.24,-0.17 v 0 q 2.25,-3.88 4.52,-7.74 A 1.9,1.9 0 0 0 79.4,66.97 V 66.91 A 25.64,25.64 0 0 1 77.7,64.12 C 77.59,63.9 77.41,63.67 77.58,63.41 h -0.13 c 0,0 0,0.05 0,0.07 a 1.77,1.77 0 0 1 -0.85,0.1 c -2,0 -4,0 -5.92,0 a 2.48,2.48 0 0 0 -2.53,1.35 c -1.3,2.46 -2.82,4.8 -4.15,7.24 -0.5,0.94 -1,1.86 -1.55,2.77 -0.09,0.14 -0.17,0.29 -0.27,0.42 -0.56,0.81 -1,0.81 -1.54,0 -1.58,-2.64 -3.06,-5.33 -4.62,-8 -0.63,-1.05 -1.26,-2.1 -1.84,-3.18 a 1.07,1.07 0 0 0 -1.09,-0.64 h -6.92 a 1.66,1.66 0 0 1 -0.85,-0.13 c -0.11,-0.06 -0.21,-0.14 -0.17,-0.29 v 0 c -0.94,1.59 -1.91,3.17 -2.76,4.81 v 0 a 36.39,36.39 0 0 0 1.81,3.16 z"
     id="path1741" />
  <path
     class="cls-18"
     d="m 45.32,63.41 a 1.66,1.66 0 0 0 0.85,0.13 h 6.92 a 1.07,1.07 0 0 1 1.09,0.64 c 0.58,1.08 1.21,2.13 1.84,3.18 1.56,2.65 3,5.34 4.62,8 0.5,0.84 1,0.84 1.54,0 0.1,-0.13 0.18,-0.28 0.27,-0.42 0.54,-0.91 1,-1.83 1.55,-2.77 1.33,-2.44 2.85,-4.78 4.15,-7.24 a 2.48,2.48 0 0 1 2.51,-1.41 c 2,0 3.94,0 5.92,0 a 1.77,1.77 0 0 0 0.85,-0.1 c 0,0 0,0 0,-0.07 h -7.14 a 1.94,1.94 0 0 0 -2,1 c -1,1.87 -2.13,3.7 -3.22,5.54 -1.09,1.84 -1.88,3.59 -3,5.3 -0.6,0.93 -0.86,0.92 -1.4,0 -0.71,-1.24 -1.44,-2.47 -2.15,-3.7 Q 56.33,67.7 54.15,63.89 A 0.89,0.89 0 0 0 53.25,63.4 H 46 c -0.31,0 -0.63,0 -0.85,-0.26 v 0 c -0.04,0.13 0.06,0.21 0.17,0.27 z"
     id="path1743" />
  <path
     class="cls-18"
     d="M 79.22,66.32 A 16.24,16.24 0 0 1 77.6,63.37 c -0.17,0.26 0,0.49 0.12,0.71 a 25.64,25.64 0 0 0 1.7,2.79 v 0.06 c 0,-0.06 0,-0.12 0,-0.19 0,-0.07 -0.11,-0.29 -0.2,-0.42 z"
     id="path1745" />
  <path
     class="cls-18"
     d="m 74.47,75.84 0.13,-0.12 0.07,-0.12 v 0 a 0.53,0.53 0 0 0 -0.24,0.17 v 0 h 0.09 z"
     id="path1747" />
  <path
     class="cls-19"
     d="m 18.29,86.75 h 21 c 0.48,0 0.65,0 0.35,-0.56 -1.47,-2.49 -2.9,-5 -4.34,-7.49 -0.37,-0.64 -1,-1.24 -0.15,-2.06 h -0.51 c -3.09,0 -6.19,0 -9.29,0 a 1.36,1.36 0 0 1 -1.38,-0.83 c -2.05,-3.61 -4.15,-7.2 -6.22,-10.79 -0.41,0.2 -0.52,0.62 -0.72,1 -1.38,2.39 -2.76,4.8 -4.13,7.2 l -1.18,2 c -0.09,0.16 -0.16,0.34 -0.36,0.4 v 0 c 0.12,0.24 0.22,0.49 0.36,0.73 1.9,3.29 3.81,6.57 5.69,9.87 a 0.94,0.94 0 0 0 0.88,0.53 z"
     id="path1749" />
  <path
     class="cls-20"
     d="m 54,88.7 a 0.54,0.54 0 0 1 0.53,0.33 c 1.7,3 3.44,5.89 5.09,8.88 0.38,0.69 1,0.63 1.5,0.75 a 0.77,0.77 0 0 1 0.41,-0.25 v 0 c 1.24,-2.31 2.65,-4.52 3.91,-6.81 1,-1.72 2.07,-3.34 2.88,-5.14 v 0 a 1.8,1.8 0 0 1 -1.78,-1.13 c -1.27,-2.35 -2.64,-4.63 -4,-6.94 a 16.69,16.69 0 0 0 -1,-1.62 h -0.08 a 1.09,1.09 0 0 1 -0.36,0 v 0 c -1.13,1.94 -2.27,3.88 -3.4,5.83 -1.13,1.95 -2.11,3.7 -3.17,5.55 a 2.55,2.55 0 0 1 -0.3,0.39 c -2.14,-3.68 -4.26,-7.32 -6.37,-11 a 4.66,4.66 0 0 1 -0.34,-0.83 0.65,0.65 0 0 1 -0.2,0 0.69,0.69 0 0 1 -0.13,-0.11 h -9.1 c -0.23,0 -0.53,0.11 -0.6,-0.27 -0.21,0.51 -0.88,0.88 -0.46,1.59 q 3.16,5.44 6.32,10.91 C 46.94,88.55 50.49,88.78 54,88.7 Z"
     id="path1751" />
  <path
     class="cls-20"
     d="m 61.56,98.41 a 0.77,0.77 0 0 0 -0.41,0.25 h 0.11 v 0 l 0.24,-0.13 v 0 c 0,-0.05 0,-0.1 0.08,-0.14 z"
     id="path1753" />
  <path
     class="cls-20"
     d="m 61.5,76.6 h -0.24 l -0.11,0.18 v 0 a 1.09,1.09 0 0 0 0.36,0 h 0.08 a 1,1 0 0 1 -0.12,-0.17 z"
     id="path1755" />
  <path
     class="cls-20"
     d="m 47.52,76.61 h -0.28 a 0.69,0.69 0 0 0 0.13,0.11 0.65,0.65 0 0 0 0.2,0 1.21,1.21 0 0 1 0,-0.14 z"
     id="path1757" />
  <path
     class="cls-21"
     d="m 79.38,47.26 c -1.71,2.77 -3.26,5.63 -5,8.4 a 1.56,1.56 0 0 0 -0.06,1.82 c 1,1.68 2,3.35 2.9,5.07 0.14,0.25 0.38,0.5 0.21,0.82 a 0.09,0.09 0 0 1 0.13,0 v 0 c 0,0 0,-0.05 0.05,-0.08 a 0.59,0.59 0 0 1 0.2,-0.07 c 1,0 2.05,0 3.07,0 a 2.27,2.27 0 0 0 0.73,-0.07 17.62,17.62 0 0 1 2.3,-0.06 c 2.25,0 4.49,0 6.74,0 a 1.35,1.35 0 0 0 1.37,-0.82 c 1.06,-2 2.28,-3.91 3.39,-5.88 v 0 c -0.76,-1.33 -1.49,-2.67 -2.27,-4 -1.07,-1.79 -2,-3.67 -3.22,-5.37 H 79.5 a 0.85,0.85 0 0 1 -0.12,0.24 z"
     id="path1759" />
  <path
     class="cls-21"
     d="m 77.26,62.55 c -0.92,-1.72 -1.92,-3.39 -2.9,-5.07 a 1.56,1.56 0 0 1 0.06,-1.82 c 1.7,-2.77 3.25,-5.63 5,-8.4 a 0.85,0.85 0 0 0 0.12,-0.23 v 0 a 1.07,1.07 0 0 0 -0.44,0.5 l -1.49,2.4 -3.56,6 a 0.92,0.92 0 0 0 -0.11,1 c 0.7,1.1 1.29,2.26 2,3.39 a 17,17 0 0 1 1.57,2.95 v 0 C 77.64,63.05 77.4,62.8 77.26,62.55 Z"
     id="path1761" />
  <path
     class="cls-21"
     d="m 90.69,63.08 c -2.25,0 -4.49,0 -6.74,0 a 17.62,17.62 0 0 0 -2.3,0.06 2.27,2.27 0 0 1 -0.73,0.07 c -1,0 -2,0 -3.07,0 a 0.59,0.59 0 0 0 -0.2,0.07 c 0,0 0,0.06 -0.05,0.08 h 0.12 c 0.25,-0.23 0.56,-0.11 0.83,-0.12 h 3.17 c 3,0 6.1,0 9.15,0 a 1.28,1.28 0 0 0 1.28,-0.81 c 0.72,-1.29 1.49,-2.54 2.19,-3.83 a 6.12,6.12 0 0 0 1.11,-2.26 c -1.11,2 -2.33,3.88 -3.39,5.88 a 1.35,1.35 0 0 1 -1.37,0.86 z"
     id="path1763" />
  <path
     class="cls-21"
     d="m 77.47,63.37 h 0.13 a 0.09,0.09 0 0 0 -0.13,0 z"
     id="path1765" />
  <polygon
     class="cls-21"
     points="77.47,68.17 77.47,68.17 77.46,68.17 "
     id="polygon1767"
     transform="translate(0,-4.8)" />
  <path
     class="cls-22"
     d="m 80.75,86.39 h -0.09 c -1.32,2.27 -2.63,4.55 -4,6.83 -1,1.67 -1.93,3.33 -2.89,5 a 0.49,0.49 0 0 0 0,0.16 0.76,0.76 0 0 1 0.16,0 4.71,4.71 0 0 1 0.75,0 h 19.69 a 1.45,1.45 0 0 1 1.07,0.2 l 7.08,-12.23 h -21.7 z"
     id="path1769" />
  <path
     class="cls-22"
     d="M 94.37,98.35 H 74.68 a 4.71,4.71 0 0 0 -0.75,0 0.76,0.76 0 0 0 -0.16,0 v 0.14 h 21.67 a 1.45,1.45 0 0 0 -1.07,-0.14 z"
     id="path1771" />
  <path
     class="cls-22"
     d="m 80.75,86.39 0.07,-0.07 h -0.1 l -0.06,0.1 z"
     id="path1773" />
  <polygon
     class="cls-22"
     points=""
     id="polygon1775"
     transform="translate(0,-4.8)" />
  <path
     class="cls-23"
     d="m 24.29,53.36 c -1.69,2.91 -3.37,5.82 -5.07,8.73 -0.17,0.3 -0.16,0.68 -0.43,0.93 a 0.56,0.56 0 0 0 0,0.12 q 3.27,5.59 6.53,11.18 c 0.17,0.3 0.4,0.3 0.67,0.3 3.23,0 6.45,0 9.67,0 a 0.83,0.83 0 0 0 0.83,-0.48 c 2,-3.43 3.94,-6.87 5.93,-10.29 0.31,-0.52 0.14,-0.55 -0.34,-0.55 -3.51,0 -7,0 -10.54,0 A 1.12,1.12 0 0 1 30.4,62.62 c -1.85,-3.31 -3.72,-6.6 -5.58,-9.9 -0.3,0.09 -0.39,0.4 -0.53,0.64 z"
     id="path1777" />
  <path
     class="cls-24"
     d="m 102.58,69.74 c -1.14,1.74 -2.08,3.59 -3.1,5.4 a 1.62,1.62 0 0 1 -1.57,0.89 c -3.93,0 -7.85,0 -11.78,0 h -0.5 c -0.29,0 -0.37,0.13 -0.22,0.39 0.15,0.26 0.2,0.37 0.29,0.56 a 1.19,1.19 0 0 1 0,1.18 c -1.49,2.6 -3,5.17 -4.5,7.76 a 1.46,1.46 0 0 1 -0.26,0.34 2,2 0 0 1 0.72,-0.13 h 20.04 a 1,1 0 0 1 0.82,0.19 q 2.45,-4.21 4.9,-8.44 a 0.66,0.66 0 0 0 0,-0.75 l -4.74,-8.2 a 0.76,0.76 0 0 1 -0.1,0.81 z"
     id="path1779" />
  <polygon
     class="cls-24"
     points=""
     id="polygon1781"
     transform="translate(0,-4.8)" />
  <path
     class="cls-24"
     d="m 102.5,69.56 c -1.17,1.76 -2.13,3.65 -3.17,5.49 a 1.4,1.4 0 0 1 -1.38,0.81 c -4.1,0 -8.2,0 -12.29,0 -0.21,0 -0.51,-0.13 -0.63,0.11 -0.12,0.24 0.15,0.36 0.24,0.54 0.25,0.51 0.63,1 0.24,1.61 -1.62,2.72 -3.2,5.47 -4.8,8.21 l 0.18,-0.07 a 1.46,1.46 0 0 0 0.26,-0.34 c 1.48,-2.59 3,-5.16 4.5,-7.76 a 1.19,1.19 0 0 0 0,-1.18 c -0.09,-0.19 -0.19,-0.38 -0.29,-0.56 -0.1,-0.18 -0.07,-0.38 0.22,-0.39 h 0.5 c 3.93,0 7.85,0 11.78,0 a 1.62,1.62 0 0 0 1.57,-0.89 c 1,-1.81 2,-3.66 3.1,-5.4 a 0.76,0.76 0 0 0 0.1,-0.77 v 0 a 1,1 0 0 1 -0.13,0.59 z"
     id="path1783" />
  <path
     class="cls-24"
     d="M 101.7,86.13 H 81.61 a 2,2 0 0 0 -0.72,0.13 0.46,0.46 0 0 1 -0.07,0.07 h 21.7 a 1,1 0 0 0 -0.82,-0.2 z"
     id="path1785" />
  <path
     class="cls-24"
     d="m 80.89,86.25 -0.18,0.07 h 0.11 a 0.46,0.46 0 0 0 0.07,-0.07 z"
     id="path1787" />
  <path
     class="cls-25"
     d="m 21.86,43.93 q 2,3.5 4.07,7 c 0,-0.7 0.46,-1.18 0.76,-1.74 0.71,-1.31 1.49,-2.58 2.23,-3.87 a 0.75,0.75 0 0 1 0.76,-0.42 h 3.49 c -0.1,-0.2 -0.18,-0.41 -0.3,-0.61 q -3.76,-6.53 -7.55,-13 a 0.92,0.92 0 0 1 0,-1.07 c 1.24,-2.1 2.44,-4.23 3.65,-6.35 -0.06,-0.46 -0.41,-0.38 -0.71,-0.38 h -9.83 c -1.36,2.33 -2.71,4.65 -4.08,7 -0.19,0.32 0,0.5 0.12,0.73 q 3.69,6.33 7.39,12.71 z"
     id="path1789" />
  <path
     class="cls-26"
     d="m 50.46,7.93 c -0.7,1.21 -1.37,2.44 -2.06,3.66 a 1.26,1.26 0 0 1 0.8,-0.26 h 10.58 c 0.27,0 0.62,-0.1 0.6,0.38 v 0 c 0.42,-0.31 0.45,-0.85 0.76,-1.23 0.31,-0.38 0.46,-0.14 0.69,-0.14 h 13.64 a 15.14,15.14 0 0 0 -1.56,-3 C 72.55,4.9 71.13,2.5 69.74,0.08 v 0 0 0 A 0.17,0.17 0 0 1 69.66,0.17 1.76,1.76 0 0 1 68.81,0.29 H 56 a 1.21,1.21 0 0 1 -0.94,-0.2 c -0.13,0.19 -0.28,0.36 -0.39,0.56 -1.43,2.46 -2.83,4.87 -4.21,7.28 z"
     id="path1791" />
  <path
     class="cls-26"
     d="M 56,0.33 H 68.78 A 1.76,1.76 0 0 0 69.63,0.21 0.17,0.17 0 0 0 69.71,0.12 H 55 a 1.21,1.21 0 0 0 1,0.21 z"
     id="path1793" />
  <path
     class="cls-27"
     d="m 63.18,33.19 c 3.81,0 7.62,0.09 11.42,0 3.55,-0.12 7.1,0 10.65,-0.07 a 1.29,1.29 0 0 0 1.12,-0.63 2.56,2.56 0 0 0 0,-3.53 57.16,57.16 0 0 1 -3,-5.22 0.89,0.89 0 0 0 -0.94,-0.5 q -6.24,0 -12.47,0 c -0.24,0 -0.51,0.1 -0.71,-0.13 -0.48,-0.08 -0.9,-0.11 -1.21,0.44 -1.74,3.09 -3.51,6.16 -5.28,9.24 -0.03,0.27 0.1,0.4 0.42,0.4 z"
     id="path1795" />
  <path
     class="cls-28"
     d="m 19.37,88.7 a 0.9,0.9 0 0 0 0.06,0.22 q 2.54,4.26 5.05,8.53 c 0.2,0.34 0.47,0.33 0.79,0.33 H 45.6 c 0.65,0 0.65,0 0.33,-0.57 -1.49,-2.6 -3,-5.18 -4.47,-7.78 a 1.24,1.24 0 0 0 -1.25,-0.75 c -6.74,0 -13.47,0 -20.21,0 z"
     id="path1797" />
  <path
     class="cls-21"
     d="m 32.47,45.08 c -0.77,0 -1.54,0 -2.3,0 a 1.26,1.26 0 0 0 -1.35,0.75 c -0.89,1.71 -2,3.28 -2.8,5 a 0.23,0.23 0 0 1 -0.09,0.08 l 5.82,10.14 c 0.18,0.32 0.44,0.32 0.74,0.32 h 9.72 c 0.13,0 0.29,0.07 0.42,-0.1 -0.11,-0.21 -0.21,-0.44 -0.34,-0.65 q -3,-5.15 -5.92,-10.28 c -1.06,-1.82 -2.14,-3.63 -3.2,-5.45 v 0 c -0.17,0.22 -0.46,0.18 -0.7,0.19 z"
     id="path1799" />
  <path
     class="cls-21"
     d="m 28.92,45.33 c -0.74,1.29 -1.52,2.56 -2.23,3.87 -0.3,0.56 -0.79,1 -0.76,1.74 a 0.23,0.23 0 0 0 0.09,-0.08 c 0.8,-1.76 1.91,-3.33 2.8,-5 a 1.26,1.26 0 0 1 1.35,-0.75 c 0.76,0 1.53,0 2.3,0 0.24,0 0.5,0 0.7,-0.17 h -3.49 a 0.75,0.75 0 0 0 -0.76,0.39 z"
     id="path1801" />
  <path
     class="cls-29"
     d="m 52.82,23.46 c -3.39,0 -6.78,0 -10.18,0 -0.36,0 -0.72,-0.21 -1.08,0 -1.35,2.3 -2.69,4.61 -4.05,6.92 -0.19,0.33 0,0.57 0.11,0.85 1.2,2.06 2.38,4.12 3.57,6.18 0.62,1.08 1.25,2.15 1.86,3.23 0.22,0.38 0.39,0.58 0.66,0 0.27,-0.58 0.64,-1.06 0.95,-1.6 1.18,-2 2.37,-4.06 3.52,-6.11 0.79,-1.41 1.7,-2.74 2.37,-4.21 a 0.68,0.68 0 0 1 0.37,-0.54 v 0 c 0.34,-0.58 0.7,-1.16 1,-1.75 0.53,-0.94 1,-1.9 1.57,-2.85 -0.16,-0.22 -0.43,-0.12 -0.67,-0.12 z"
     id="path1803" />
  <path
     class="cls-30"
     d="m 116.52,45.28 v 0 a 3.79,3.79 0 0 0 -0.53,-1 L 109.3,32.71 v 0 c -0.84,1.47 -1.68,3 -2.53,4.42 -1,1.7 -2,3.39 -3,5.1 a 0.73,0.73 0 0 1 -0.6,0.47 v 0 l 7.37,12.71 c 1.42,-2.45 2.84,-4.91 4.29,-7.35 a 23.31,23.31 0 0 1 1.69,-2.78 z"
     id="path1805" />
  <path
     class="cls-31"
     d="m 49.7,11.54 a 8.1,8.1 0 0 1 -1.3,0.07 v 0 c -0.22,0.35 -0.45,0.69 -0.65,1 -1.37,2.36 -2.74,4.71 -4.1,7.08 -0.7,1.23 -1.4,2.48 -2.09,3.72 0.11,-0.23 0.32,-0.23 0.53,-0.23 3.54,0.06 7.07,0 10.6,0 0.3,0 0.69,-0.11 0.83,0.33 a 1.17,1.17 0 0 0 0.34,-0.42 c 0.37,-0.69 0.77,-1.36 1.15,-2 q 1.56,-2.72 3.1,-5.43 a 0.46,0.46 0 0 1 0.29,-0.47 c 0.69,-1.14 1.38,-2.29 2,-3.49 v 0 a 2.63,2.63 0 0 0 -1.15,-0.19 c -3.2,0.04 -6.37,0.05 -9.55,0.03 z"
     id="path1807" />
  <path
     class="cls-31"
     d="M 59.78,11.36 H 49.2 a 1.26,1.26 0 0 0 -0.8,0.26 v 0 a 8.1,8.1 0 0 0 1.3,-0.07 c 3.18,0 6.35,0 9.53,0 a 2.63,2.63 0 0 1 1.15,0.19 c 0.02,-0.48 -0.33,-0.38 -0.6,-0.38 z"
     id="path1809" />
  <path
     class="cls-31"
     d="m 52.69,23.26 c -3.53,0 -7.06,0 -10.6,0 -0.21,0 -0.42,0 -0.53,0.23 0.36,-0.2 0.72,0 1.08,0 3.4,0 6.79,0 10.18,0 0.24,0 0.51,-0.1 0.7,0.13 C 53.38,23.15 53,23.27 52.69,23.26 Z"
     id="path1811" />
  <path
     class="cls-32"
     d="m 108.81,58.54 a 2.22,2.22 0 0 0 0.47,-1.38 c -0.41,-0.74 -0.82,-1.49 -1.24,-2.22 L 102.16,44.8 a 1.2,1.2 0 0 1 -0.23,1 q -2.34,3.91 -4.57,7.87 a 2.63,2.63 0 0 1 -0.44,0.61 c -0.1,0.1 -0.21,0.23 -0.35,0 1.11,2 2.22,3.91 3.35,5.85 1.28,2.22 2.59,4.43 3.88,6.65 a 21,21 0 0 0 2.07,-3.3 c 1.01,-1.55 1.96,-3.26 2.94,-4.94 z"
     id="path1813" />
  <path
     class="cls-32"
     d="m 96.92,54.32 a 2.63,2.63 0 0 0 0.44,-0.61 q 2.22,-4 4.57,-7.87 a 1.2,1.2 0 0 0 0.23,-1 3.77,3.77 0 0 1 -0.5,1.19 c -1.44,2.47 -2.86,4.94 -4.3,7.4 -0.21,0.36 -0.34,0.81 -0.79,1 0.14,0.12 0.25,-0.01 0.35,-0.11 z"
     id="path1815" />
  <path
     class="cls-33"
     d="m 98.65,33.6 c 0.45,-0.75 0.86,-1.51 1.33,-2.25 a 1.11,1.11 0 0 0 0,-1.31 c -1,-1.59 -1.91,-3.2 -2.82,-4.82 a 10.67,10.67 0 0 1 -1.11,-2.15 v 0 c -0.18,0 -0.37,0 -0.55,0 H 69.73 a 4.21,4.21 0 0 0 -0.5,0 c 0.21,0.15 0.44,0.07 0.66,0.07 q 6.3,0 12.6,0 a 1.13,1.13 0 0 1 1.11,0.62 c 1.18,2.07 2.4,4.17 3.57,6.17 a 1.35,1.35 0 0 1 0,1.46 c -1,1.75 -1,1.75 -2.94,1.76 -2.93,0 -5.87,-0.06 -8.8,0 -4.05,0.08 -8.1,0 -12.15,0 -0.32,0 -0.76,0.11 -0.54,-0.49 a 0.72,0.72 0 0 0 -0.3,0.6 h 0.83 q 16.85,0 33.7,0 c 0.55,0 1,0.09 1.2,0.63 a 0.55,0.55 0 0 0 0.48,-0.29 z"
     id="path1817" />
  <path
     class="cls-33"
     d="m 63.28,33.24 c 4,0 8.1,0 12.15,0 2.93,-0.07 5.87,0 8.8,0 2,0 2,0 2.94,-1.76 a 1.35,1.35 0 0 0 0,-1.46 C 86,27.93 84.78,25.83 83.6,23.75 a 1.13,1.13 0 0 0 -1.11,-0.62 q -6.3,0 -12.6,0 c -0.22,0 -0.45,0.08 -0.66,-0.07 0.2,0.23 0.47,0.13 0.71,0.13 q 6.23,0 12.47,0 a 0.89,0.89 0 0 1 0.94,0.5 57.16,57.16 0 0 0 3,5.22 2.56,2.56 0 0 1 0,3.53 1.29,1.29 0 0 1 -1.12,0.63 c -3.55,0 -7.1,-0.05 -10.65,0.07 -3.8,0.13 -7.61,0 -11.42,0 -0.32,0 -0.45,-0.13 -0.44,-0.44 -0.2,0.65 0.28,0.55 0.56,0.54 z"
     id="path1819" />
  <path
     class="cls-34"
     d="m 108.9,33.13 c 0.11,-0.17 0.19,-0.37 0.4,-0.46 v 0 a 0.42,0.42 0 0 0 0,-0.12 Q 106.62,27.93 104,23.3 a 0.43,0.43 0 0 0 -0.44,-0.26 H 96.1 v 0 a 5.34,5.34 0 0 1 0.79,1.26 c 1,1.79 2,3.6 3.1,5.32 a 1.68,1.68 0 0 1 0,2.11 19.38,19.38 0 0 0 -1.06,1.75 c -0.14,0.26 -0.27,0.59 -0.69,0.43 0,0 0,0.09 0,0.12 l 5,8.6 v 0 a 19.55,19.55 0 0 0 2,-3.25 c 1.25,-2.04 2.42,-4.17 3.66,-6.25 z"
     id="path1821" />
  <path
     class="cls-34"
     d="m 103.79,42.19 c 1,-1.71 2,-3.4 3,-5.1 0.85,-1.47 1.69,-3 2.53,-4.42 -0.21,0.09 -0.29,0.29 -0.4,0.46 -1.24,2.08 -2.41,4.21 -3.66,6.28 a 19.55,19.55 0 0 1 -2,3.25 0.73,0.73 0 0 0 0.53,-0.47 z"
     id="path1823" />
  <path
     class="cls-34"
     d="m 98.86,33.51 a 19.38,19.38 0 0 1 1.06,-1.75 1.68,1.68 0 0 0 0,-2.11 c -1.12,-1.72 -2.09,-3.53 -3.1,-5.32 a 5.34,5.34 0 0 0 -0.79,-1.26 10.67,10.67 0 0 0 1.11,2.15 c 0.91,1.62 1.86,3.23 2.82,4.82 a 1.11,1.11 0 0 1 0,1.31 c -0.47,0.74 -0.88,1.5 -1.33,2.25 a 0.55,0.55 0 0 1 -0.48,0.34 c 0.44,0.16 0.57,-0.17 0.71,-0.43 z"
     id="path1825" />
  <path
     class="cls-35"
     d="M 17,65.73 C 17.16,65.44 17.18,64.92 17.75,65 L 11.63,54.4 v 0 c -0.49,1.1 -1.13,2.12 -1.72,3.16 -1.47,2.58 -3,5.12 -4.41,7.73 a 0.24,0.24 0 0 1 -0.09,0.08 q 1.26,2.3 2.59,4.56 c 1.1,1.89 2.22,3.78 3.33,5.66 0.69,-1.34 1.5,-2.62 2.23,-3.94 1.09,-1.98 2.29,-3.92 3.44,-5.92 z"
     id="path1827" />
  <path
     class="cls-35"
     d="m 9.86,57.56 c 0.59,-1 1.23,-2.06 1.72,-3.16 a 2,2 0 0 0 -0.24,0.27 l -1.73,3 c -1.32,2.29 -2.65,4.58 -4,6.87 a 1.4,1.4 0 0 0 -0.29,0.81 0.24,0.24 0 0 0 0.09,-0.08 c 1.45,-2.59 2.98,-5.13 4.45,-7.71 z"
     id="path1829" />
  <path
     class="cls-35"
     d="m 11.67,75.21 1.18,-2 c 1.37,-2.4 2.75,-4.81 4.13,-7.2 0.2,-0.35 0.31,-0.77 0.72,-1 -0.57,-0.08 -0.59,0.44 -0.75,0.73 -1.1,2 -2.3,3.94 -3.41,5.94 -0.73,1.32 -1.54,2.6 -2.23,3.94 v 0 c 0.2,-0.07 0.27,-0.25 0.36,-0.41 z"
     id="path1831" />
  <path
     class="cls-36"
     d="m 28.17,23.26 a 1.39,1.39 0 0 1 0.49,0.07 c 0.22,0.09 0.41,0.22 0.29,0.51 l 2.22,-3.81 q 2.44,-4.26 4.9,-8.53 c -0.24,-0.31 -0.58,-0.27 -0.91,-0.27 h -9.63 v 0 c -0.76,1.09 -1.37,2.26 -2,3.41 l -5.07,8.82 a 1.18,1.18 0 0 1 0.71,-0.18 q 4.48,-0.03 9,-0.02 z"
     id="path1833" />
  <path
     class="cls-36"
     d="m 28.24,23.46 c 0.3,0 0.65,-0.08 0.71,0.38 0.12,-0.29 -0.07,-0.42 -0.29,-0.51 a 1.39,1.39 0 0 0 -0.49,-0.07 q -4.52,0 -9,0 a 1.18,1.18 0 0 0 -0.71,0.18 h 9.81 z"
     id="path1835" />
  <path
     class="cls-32"
     d="M 18.45,42.31 13,51.84 a 6.07,6.07 0 0 0 -0.31,0.74 c 0.43,0.75 0.84,1.52 1.28,2.26 l 4.81,8.18 a 3.88,3.88 0 0 1 0.84,-1.92 c 1.53,-2.61 3,-5.25 4.56,-7.87 0.14,-0.23 0.23,-0.62 0.67,-0.47 -0.77,-1.38 -1.52,-2.76 -2.29,-4.13 -1.24,-2.2 -2.49,-4.39 -3.74,-6.59 a 0.45,0.45 0 0 0 -0.37,0.27 z"
     id="path1837" />
  <path
     class="cls-32"
     d="m 24.19,53.23 c -1.54,2.62 -3,5.26 -4.56,7.87 a 3.88,3.88 0 0 0 -0.84,1.92 c 0.27,-0.25 0.26,-0.63 0.43,-0.93 1.7,-2.91 3.38,-5.82 5.07,-8.73 0.14,-0.24 0.23,-0.55 0.57,-0.6 -0.44,-0.15 -0.53,0.24 -0.67,0.47 z"
     id="path1839" />
  <path
     class="cls-37"
     d="m 50.72,99.61 c 2.89,0 5.79,0 8.69,0 a 1.62,1.62 0 0 0 1.72,-0.92 1.22,1.22 0 0 1 -1.55,-0.64 C 58,95.27 56.35,92.53 54.79,89.74 a 1.49,1.49 0 0 0 -1.51,-0.9 c -2.82,0.05 -5.65,0 -8.47,0 -0.47,0 -1,0.22 -1.41,0 0.67,1.17 1.34,2.34 2,3.5 1.45,2.5 2.9,5 4.35,7.47 0.3,-0.27 0.64,-0.2 0.97,-0.2 z"
     id="path1841" />
  <path
     class="cls-37"
     d="m 61.26,98.68 h -0.13 a 1.62,1.62 0 0 1 -1.72,0.92 c -2.9,0 -5.8,0 -8.69,0 -0.33,0 -0.67,-0.07 -0.95,0.19 h 9.94 c 1.06,0.01 1.2,-0.09 1.55,-1.11 z"
     id="path1843" />
  <path
     class="cls-37"
     d="m 44.81,88.86 c 2.82,0 5.65,0 8.47,0 a 1.49,1.49 0 0 1 1.51,0.9 c 1.56,2.79 3.21,5.53 4.79,8.31 a 1.22,1.22 0 0 0 1.55,0.64 c 0,0 0,0 0,0 v 0 c -0.55,-0.12 -1.12,-0.06 -1.5,-0.75 -1.65,-3 -3.39,-5.92 -5.09,-8.88 a 0.54,0.54 0 0 0 -0.53,-0.33 c -3.54,0.08 -7.09,-0.15 -10.63,0.13 0.48,0.2 0.96,-0.02 1.43,-0.02 z"
     id="path1845" />
  <path
     class="cls-37"
     d="m 61.15,98.66 v 0 c 0,0 0,0 0,0 h 0.13 v 0 z"
     id="path1847" />
  <path
     class="cls-38"
     d="m 35.06,11.04 c 0.38,0 0.86,-0.11 1,0.46 q 3.25,-5.57 6.5,-11.23 a 2.53,2.53 0 0 1 -0.61,0.06 h -9 c -0.35,0 -0.72,0.07 -1,-0.21 -0.37,0.64 -0.75,1.28 -1.12,1.93 l -5.27,9.16 a 1.46,1.46 0 0 1 0.84,-0.18 c 2.86,0 5.76,-0.01 8.66,0.01 z"
     id="path1849" />
  <path
     class="cls-38"
     d="m 32.93,0.33 h 9 A 2.53,2.53 0 0 0 42.54,0.27 C 42.35,0.04 42.08,0.13 41.85,0.13 h -9.93 c 0.29,0.27 0.66,0.2 1.01,0.2 z"
     id="path1851" />
  <path
     class="cls-38"
     d="m 35.16,11.23 c 0.33,0 0.67,0 0.91,0.27 -0.15,-0.57 -0.63,-0.46 -1,-0.46 -2.9,0 -5.8,0 -8.69,0 a 1.46,1.46 0 0 0 -0.84,0.18 v 0 z"
     id="path1853" />
  <path
     class="cls-39"
     d="m 12.7,52.58 c -0.15,-0.46 0.15,-0.81 0.35,-1.15 1.21,-2 2.34,-4.12 3.53,-6.17 0.56,-1 1.08,-1.92 1.66,-2.86 0.12,-0.21 0.22,-0.53 0.59,-0.36 -0.06,-0.13 -0.11,-0.26 -0.18,-0.39 q -2.32,-4.16 -4.66,-8.3 c -0.39,-0.7 -0.4,-0.71 -0.81,0 l -4.84,8.42 c -0.32,0.55 -0.85,1.11 -0.88,1.68 -0.03,0.57 0.55,1.17 0.88,1.73 z"
     id="path1855" />
  <path
     class="cls-39"
     d="m 18.24,42.4 c -0.58,0.94 -1.1,1.91 -1.66,2.86 -1.19,2 -2.32,4.13 -3.53,6.17 -0.2,0.34 -0.5,0.69 -0.35,1.15 a 6.07,6.07 0 0 1 0.31,-0.74 l 5.44,-9.53 a 0.45,0.45 0 0 1 0.38,-0.27 c -0.37,-0.17 -0.47,0.15 -0.59,0.36 z"
     id="path1857" />
  <path
     class="cls-40"
     d="m 121.15,53.17 c -0.8,-1.36 -1.57,-2.74 -2.37,-4.1 -0.8,-1.36 -1.41,-2.58 -2.26,-3.79 v 0 a 14.64,14.64 0 0 1 -1.3,2.4 c -1.35,2.3 -2.66,4.63 -4,6.93 -0.16,0.28 -0.23,0.67 -0.64,0.76 l 4.67,8.14 c 0.22,0.38 0.34,0.38 0.56,0 1.79,-3.11 3.58,-6.22 5.4,-9.32 a 0.9,0.9 0 0 0 -0.06,-1.02 z"
     id="path1859" />
  <path
     class="cls-40"
     d="m 111.2,54.61 c 1.36,-2.3 2.67,-4.63 4,-6.93 a 14.64,14.64 0 0 0 1.3,-2.4 23.31,23.31 0 0 0 -1.67,2.74 c -1.45,2.44 -2.87,4.9 -4.29,7.35 0.46,-0.09 0.46,-0.44 0.66,-0.76 z"
     id="path1861" />
  <path
     class="cls-41"
     d="m 109.28,57.16 v 0 c 0.28,0.48 0,0.88 -0.23,1.27 -0.94,1.54 -1.8,3.13 -2.73,4.68 -0.65,1.09 -1.25,2.21 -1.94,3.27 -0.14,0.21 -0.22,0.52 -0.58,0.49 q 2.39,4.14 4.76,8.3 c 0.25,0.45 0.36,0.19 0.51,-0.07 l 5.1,-8.83 a 0.54,0.54 0 0 0 0,-0.62 c -1.62,-2.83 -3.25,-5.66 -4.89,-8.49 z"
     id="path1863" />
  <path
     class="cls-41"
     d="m 104.38,66.38 c 0.69,-1.06 1.29,-2.18 1.94,-3.27 0.93,-1.55 1.79,-3.14 2.73,-4.68 0.23,-0.39 0.51,-0.79 0.23,-1.27 v 0 a 2.22,2.22 0 0 1 -0.47,1.38 c -1,1.68 -1.93,3.37 -2.94,5 a 21,21 0 0 1 -2.07,3.3 c 0.36,0.09 0.44,-0.25 0.58,-0.46 z"
     id="path1865" />
  <path
     class="cls-42"
     d="m 38.41,11.35 a 1,1 0 0 1 0.64,-0.19 c 2.1,0 4.19,0 6.29,0 0.35,0 0.81,0 0.71,0.59 a 6.85,6.85 0 0 0 0.74,-1.25 c 0,-0.28 0,-0.58 0.37,-0.66 v 0 c 0.18,-0.3 0.37,-0.6 0.54,-0.9 q 1.42,-2.47 2.83,-5 a 0.58,0.58 0 0 1 0.34,-0.5 v 0 l 1.91,-3.36 a 1.41,1.41 0 0 1 -0.77,0.2 h -5.68 a 1.26,1.26 0 0 1 -0.6,-0.11 0.15,0.15 0 0 1 -0.08,-0.1 v 0 a 0.51,0.51 0 0 1 -0.75,0 c -1,1.65 -1.94,3.29 -2.89,4.94 -1.21,2.14 -2.4,4.24 -3.6,6.34 z"
     id="path1867" />
  <path
     class="cls-42"
     d="m 45.73,0.21 a 1.26,1.26 0 0 0 0.6,0.11 H 52 a 1.41,1.41 0 0 0 0.77,-0.2 h -7.13 a 0.15,0.15 0 0 0 0.09,0.09 z"
     id="path1869" />
  <path
     class="cls-42"
     d="M 45.65,0.11 H 44.9 a 0.51,0.51 0 0 0 0.75,0 z"
     id="path1871" />
  <path
     class="cls-42"
     d="m 45.34,11.17 c -2.1,0 -4.19,0 -6.29,0 a 1,1 0 0 0 -0.64,0.19 h 6.94 c 0.32,0 0.65,0 0.7,0.41 0.1,-0.61 -0.36,-0.6 -0.71,-0.6 z"
     id="path1873" />
  <path
     class="cls-43"
     d="m 89.66,0.33 h -6.14 a 1,1 0 0 1 -0.79,-0.2 v 0 l 4.62,8 1,1.77 c 0.15,0.27 0.08,0.39 -0.22,0.4 H 75.48 a 0.27,0.27 0 0 1 -0.23,0.07 H 61.72 c -0.19,0 -0.41,-0.09 -0.58,0.09 h 0.68 33.47 1.2 C 96.03,9.66 95.61,8.93 95.18,8.2 L 90.47,0.07 a 1,1 0 0 1 -0.81,0.26 z"
     id="path1875" />
  <path
     class="cls-43"
     d="m 82.71,0.11 v 0 z"
     id="path1877" />
  <path
     class="cls-43"
     d="m 82.73,0.12 v 0 a 1,1 0 0 0 0.79,0.2 h 6.14 A 1,1 0 0 0 90.47,0.1 h -7.74 z"
     id="path1879" />
  <path
     class="cls-43"
     d="M 82.73,0.12 Z"
     id="path1881" />
  <path
     class="cls-43"
     d="m 61.72,10.42 h 13.53 a 0.27,0.27 0 0 0 0.23,-0.07 v 0 H 61.84 c -0.23,0 -0.51,-0.11 -0.69,0.14 0.16,-0.16 0.38,-0.07 0.57,-0.07 z"
     id="path1883" />
  <path
     class="cls-44"
     d="m 91.2,14.53 q 1.64,2.76 3.19,5.57 c 0,0.09 0.11,0.18 0.15,0.27 0.36,0.69 0.31,0.78 -0.45,0.78 H 68 a 1.86,1.86 0 0 0 -0.74,0 h 35.44 c -1.7,-3 -3.3,-5.74 -4.89,-8.53 a 0.45,0.45 0 0 0 -0.45,-0.25 h -7.41 a 12.12,12.12 0 0 1 1.25,2.16 z"
     id="path1885" />
  <path
     class="cls-44"
     d="m 68,21.15 h 26.09 c 0.76,0 0.81,-0.09 0.45,-0.78 0,-0.09 -0.1,-0.18 -0.15,-0.27 Q 92.83,17.29 91.2,14.53 a 12.12,12.12 0 0 0 -1.2,-2.07 1.28,1.28 0 0 0 0.24,0.63 c 0.75,1.32 1.51,2.63 2.25,4 0.74,1.37 1.49,2.61 2.23,3.93 a 1.29,1.29 0 0 1 -0.78,0.1 L 68,21.09 c -0.23,0 -0.5,-0.1 -0.71,0.11 A 1.86,1.86 0 0 1 68,21.15 Z"
     id="path1887" />
  <path
     class="cls-34"
     d="m 45.21,76.4 h 1.37 a 1.3,1.3 0 0 1 0.56,0.1 c -0.16,-0.21 -0.23,-0.48 -0.38,-0.7 -1.47,-2.35 -2.73,-4.83 -4.23,-7.17 a 0.74,0.74 0 0 1 -0.14,-0.7 c -1.67,2.77 -3.27,5.58 -4.85,8.4 2.56,0.14 5.11,0.03 7.67,0.07 z"
     id="path1889" />
  <path
     class="cls-34"
     d="m 42.53,68.63 c 1.5,2.34 2.76,4.82 4.23,7.17 0.15,0.22 0.22,0.49 0.38,0.7 a 0.71,0.71 0 0 1 0.14,0.1 3.57,3.57 0 0 0 -0.23,-0.57 C 46.11,74.38 45.14,72.74 44.2,71.09 a 36.39,36.39 0 0 1 -1.81,-3.16 v 0 a 0.74,0.74 0 0 0 0.14,0.7 z"
     id="path1891" />
  <path
     class="cls-34"
     d="m 38.14,76.6 h 9.1 a 0.94,0.94 0 0 1 -0.1,-0.1 1.3,1.3 0 0 0 -0.56,-0.1 h -1.37 c -2.56,0 -5.11,0.07 -7.67,-0.07 0.07,0.38 0.37,0.27 0.6,0.27 z"
     id="path1893" />
  <path
     class="cls-34"
     d="m 47.14,76.5 a 0.94,0.94 0 0 0 0.1,0.1 v 0 a 0.71,0.71 0 0 0 -0.1,-0.1 z"
     id="path1895" />
  <path
     class="cls-45"
     d="M 55.21,46.85 H 79.3 c 0.16,0 0.2,0.1 0.2,0.17 a 1,1 0 0 1 0.62,-0.1 h 9.18 a 1,1 0 0 1 0.66,0.12 c -0.13,-0.35 -0.43,-0.18 -0.64,-0.19 -3.57,0 -7.14,0 -10.71,0 H 55.06 c -0.19,0 -0.42,-0.08 -0.59,0.1 v 0 a 1.86,1.86 0 0 1 0.74,-0.1 z"
     id="path1897" />
  <path
     class="cls-45"
     d="m 79.46,47.03 v 0 c 0,-0.07 0,-0.13 -0.2,-0.17 H 55.21 a 1.86,1.86 0 0 0 -0.74,0 h 24.1 c 0.29,0.07 0.62,-0.05 0.89,0.17 z"
     id="path1899" />
  <path
     class="cls-45"
     d="m 89.3,46.93 h -9.18 a 1,1 0 0 0 -0.62,0.1 H 90 a 1,1 0 0 0 -0.7,-0.1 z"
     id="path1901" />
  <path
     class="cls-45"
     d="M 79.5,47.03 Z"
     id="path1903" />
  <path
     class="cls-46"
     d="m 47.16,9.85 v 0 a 1.35,1.35 0 0 0 -0.37,0.66 c 0.09,-0.24 0.4,-0.36 0.37,-0.66 z"
     id="path1905" />
  <path
     class="cls-46"
     d="M 46.79,10.51 A 1.35,1.35 0 0 1 47.16,9.85 C 46.8,9.93 46.8,10.23 46.79,10.51 Z"
     id="path1907" />
  <path
     class="cls-47"
     d="m 50.92,28.19 v 0 a 5.14,5.14 0 0 1 -0.37,0.54 c 0.27,-0.08 0.34,-0.29 0.37,-0.54 z"
     id="path1909" />
  <path
     class="cls-47"
     d="m 50.55,28.73 a 5.14,5.14 0 0 0 0.37,-0.54 0.68,0.68 0 0 0 -0.37,0.54 z"
     id="path1911" />
  <path
     class="cls-48"
     d="m 58.4,15.23 c -0.17,0.11 -0.11,0.36 -0.29,0.47 0.23,-0.08 0.27,-0.27 0.29,-0.47 z"
     id="path1913" />
  <path
     class="cls-48"
     d="m 58.11,15.7 c 0.18,-0.11 0.12,-0.36 0.29,-0.47 a 0.46,0.46 0 0 0 -0.29,0.47 z"
     id="path1915" />
  <path
     class="cls-49"
     d="m 50.87,3.49 v 0 c -0.06,0.2 -0.25,0.32 -0.34,0.5 0.17,-0.13 0.37,-0.24 0.34,-0.5 z"
     id="path1917" />
  <path
     class="cls-49"
     d="m 50.53,3.99 c 0.09,-0.18 0.28,-0.3 0.34,-0.5 a 0.58,0.58 0 0 0 -0.34,0.5 z"
     id="path1919" />
  <path
     class="cls-50"
     d="m 48.27,53.81 c 0.27,-0.18 0.09,-0.28 -0.07,-0.39 v 0 a 0.87,0.87 0 0 1 0.07,0.39 z"
     id="path1921" />
  <path
     class="cls-50"
     d="M 48.27,53.81 A 0.87,0.87 0 0 0 48.2,53.42 v 0 a 0.49,0.49 0 0 0 0.07,0.39 z"
     id="path1923" />
  <path
     class="cls-51"
     d="m 73.84,97.93 c 2,-3.38 3.88,-6.76 5.87,-10.11 a 5.77,5.77 0 0 1 0.87,-1.35 v 0 a 3.68,3.68 0 0 1 -0.81,0 H 69.63 a 3.05,3.05 0 0 1 -0.8,-0.06 0.37,0.37 0 0 1 -0.24,-0.16 l -0.2,0.14 c 0.13,0.28 0,0.5 -0.17,0.72 -2.1,3.67 -4.23,7.32 -6.34,11 a 1.08,1.08 0 0 1 -0.18,0.24 5,5 0 0 1 0.67,0 H 72.6 a 1.47,1.47 0 0 1 1,0.17 l 0.12,-0.08 c -0.1,-0.19 0.03,-0.36 0.12,-0.51 z"
     id="path1925" />
  <path
     class="cls-51"
     d="m 73.68,98.44 -0.12,0.08 c 0,0 0,0 0,0 h 0.11 a 0.49,0.49 0 0 1 0.01,-0.08 z"
     id="path1927" />
  <path
     class="cls-51"
     d="M 72.6,98.35 H 62.37 a 5,5 0 0 0 -0.67,0 0.78,0.78 0 0 1 -0.2,0.16 h 12 c 0,0 0,0 0,0 a 1.47,1.47 0 0 0 -0.9,-0.16 z"
     id="path1929" />
  <path
     class="cls-51"
     d="m 73.56,98.52 c 0,0 0,0 0,0 h 0.1 c 0,0 -0.09,0.02 -0.1,0 z"
     id="path1931" />
  <path
     class="cls-51"
     d="m 68.83,86.47 a 3.05,3.05 0 0 0 0.8,0.06 h 10.1 a 3.68,3.68 0 0 0 0.81,0 v 0 A 1.79,1.79 0 0 1 80.68,86.4 H 68.57 v 0 a 0.37,0.37 0 0 0 0.26,0.07 z"
     id="path1933" />
  <path
     class="cls-51"
     d="m 61.88,98.15 c 2.11,-3.66 4.24,-7.31 6.34,-11 0.13,-0.22 0.3,-0.44 0.17,-0.72 v 0 c -0.81,1.8 -1.93,3.42 -2.88,5.14 -1.26,2.29 -2.67,4.5 -3.91,6.81 h 0.12 a 1.08,1.08 0 0 0 0.16,-0.23 z"
     id="path1935" />
  <path
     class="cls-51"
     d="m 61.58,98.41 c 0,0 0,0.09 -0.08,0.14 a 0.78,0.78 0 0 0 0.2,-0.16 z"
     id="path1937" />
  <path
     class="cls-51"
     d="m 79.71,87.81 c -2,3.35 -3.92,6.73 -5.87,10.11 -0.09,0.16 -0.22,0.33 -0.16,0.52 v 0 h 0.06 a 0.49,0.49 0 0 1 0,-0.16 c 1,-1.66 1.93,-3.32 2.89,-5 1.32,-2.28 2.63,-4.56 4,-6.83 h -0.08 a 5.77,5.77 0 0 0 -0.84,1.36 z"
     id="path1939" />
  <path
     class="cls-51"
     d="m 73.68,98.44 a 0.49,0.49 0 0 0 0,0.11 v 0 -0.14 h -0.06 z"
     id="path1941" />
  <path
     class="cls-51"
     d="m 80.66,86.43 0.06,-0.1 a 1.79,1.79 0 0 0 -0.14,0.13 z"
     id="path1943" />
  <path
     class="cls-52"
     d="m 81.73,0.33 h -11 a 1.83,1.83 0 0 1 -0.9,-0.12 1,1 0 0 1 0.33,0.36 c 1.67,3 3.44,5.93 5.11,8.92 a 2.16,2.16 0 0 1 0.24,0.57 0.34,0.34 0 0 1 0,0.29 1.4,1.4 0 0 1 0.94,-0.17 H 87.7 c 0.4,0 0.48,-0.14 0.29,-0.49 -0.54,-1 -1.12,-1.94 -1.68,-2.91 -1.16,-2 -2.27,-4 -3.41,-5.94 a 0.83,0.83 0 0 1 -0.19,-0.7 v 0 a 0.41,0.41 0 0 1 -0.17,0.12 2.68,2.68 0 0 1 -0.81,0.07 z"
     id="path1945" />
  <path
     class="cls-52"
     d="m 69.76,0.14 v 0 l 0.07,0.05 z"
     id="path1947" />
  <path
     class="cls-52"
     d="m 69.84,0.21 a 1.83,1.83 0 0 0 0.9,0.12 h 11 a 2.68,2.68 0 0 0 0.8,-0.07 0.41,0.41 0 0 0 0.17,-0.12 H 69.76 v 0.05 z"
     id="path1949" />
  <path
     class="cls-52"
     d="m 75.49,10.35 a 0.34,0.34 0 0 0 0,-0.29 2.16,2.16 0 0 0 -0.24,-0.57 C 73.58,6.49 71.81,3.56 70.14,0.57 A 1,1 0 0 0 69.81,0.21 v 0 0 L 69.74,0.16 c 1.39,2.42 2.81,4.82 4.17,7.26 a 15.14,15.14 0 0 1 1.56,3 v 0 z"
     id="path1951" />
  <polygon
     class="cls-52"
     points=""
     id="polygon1953"
     transform="translate(0,-4.8)" />
  <path
     class="cls-52"
     d="M 69.82,0.21 Z"
     id="path1955" />
  <path
     class="cls-52"
     d="m 82.9,0.84 c 1.14,2 2.25,4 3.41,5.94 0.56,1 1.14,1.93 1.68,2.91 0.19,0.35 0.11,0.5 -0.29,0.49 H 76.43 a 1.4,1.4 0 0 0 -0.94,0.17 h 12.64 c 0.3,0 0.37,-0.13 0.22,-0.4 l -1,-1.77 -4.62,-8 a 0.83,0.83 0 0 0 0.17,0.66 z"
     id="path1957" />
  <path
     class="cls-52"
     d="M 75.48,10.35 Z"
     id="path1959" />
  <path
     class="cls-53"
     d="m 68.59,86.31 a 0.43,0.43 0 0 1 0,-0.37 4.68,4.68 0 0 1 0.38,-0.78 c 1.66,-2.81 3.23,-5.67 4.92,-8.45 0.17,-0.27 0.3,-0.55 0.45,-0.83 a 2,2 0 0 1 -0.48,0 c -3.32,0 -6.64,0 -10,0 a 1.72,1.72 0 0 0 -1.51,0.56 0.86,0.86 0 0 1 -0.66,0.3 1.74,1.74 0 0 1 0.41,0.48 c 1.58,2.75 3.22,5.46 4.73,8.24 a 1.31,1.31 0 0 0 1,0.77 1,1 0 0 1 0.53,0.16 v 0 a 0.17,0.17 0 0 1 0.23,-0.08 z"
     id="path1961" />
  <path
     class="cls-53"
     d="m 73.89,76.71 c -1.69,2.78 -3.26,5.64 -4.92,8.45 a 4.68,4.68 0 0 0 -0.38,0.78 0.43,0.43 0 0 0 0,0.37 v 0 a 4.87,4.87 0 0 1 0.24,-0.57 c 1.37,-2.4 2.76,-4.8 4.12,-7.21 a 15.39,15.39 0 0 0 1.5,-2.69 v 0 a 0.33,0.33 0 0 1 -0.13,0 c -0.13,0.32 -0.26,0.6 -0.43,0.87 z"
     id="path1963" />
  <path
     class="cls-53"
     d="m 62.39,76.47 a 1.72,1.72 0 0 1 1.51,-0.54 c 3.32,0 6.64,0 10,0 a 2,2 0 0 0 0.48,0 v -0.07 a 1.13,1.13 0 0 0 -0.45,-0.09 q -5.33,0 -10.65,0 a 0.87,0.87 0 0 0 -0.85,0.43 0.83,0.83 0 0 1 -0.93,0.45 v 0 a 1,1 0 0 1 0.23,0.17 0.86,0.86 0 0 0 0.66,-0.35 z"
     id="path1965" />
  <path
     class="cls-53"
     d="m 74.47,75.84 h -0.09 v 0.07 a 0.33,0.33 0 0 0 0.09,-0.07 z"
     id="path1967" />
  <path
     class="cls-53"
     d="m 68.38,86.42 a 1,1 0 0 0 -0.53,-0.16 1.31,1.31 0 0 1 -1,-0.77 C 65.34,82.71 63.7,80 62.12,77.25 A 1.74,1.74 0 0 0 61.71,76.77 H 61.6 a 16.69,16.69 0 0 1 1,1.62 c 1.34,2.31 2.71,4.59 4,6.94 a 1.8,1.8 0 0 0 1.78,1.13 v 0 0 z"
     id="path1969" />
  <path
     class="cls-53"
     d="m 61.5,76.6 a 1,1 0 0 0 0.12,0.17 h 0.11 A 1,1 0 0 0 61.5,76.6 Z"
     id="path1971" />
  <path
     class="cls-53"
     d="m 68.59,86.31 a 0.17,0.17 0 0 0 -0.21,0.12 v 0 l 0.2,-0.14 z"
     id="path1973" />
  <path
     class="cls-53"
     d="M 68.59,86.31 Z"
     id="path1975" />
  <path
     class="cls-53"
     d="M 68.38,86.43 Z"
     id="path1977" />
  <path
     class="cls-54"
     d="m 75.5,75.55 h 8.1 c 0.76,0 0.82,-0.09 0.44,-0.71 -1.57,-2.5 -2.92,-5.14 -4.45,-7.67 a 1,1 0 0 1 -0.19,0.62 c -1.46,2.45 -2.85,4.94 -4.3,7.39 a 1.65,1.65 0 0 1 -0.33,0.41 4.47,4.47 0 0 1 0.73,-0.04 z"
     id="path1979" />
  <path
     class="cls-54"
     d="m 84,74.84 c 0.38,0.62 0.32,0.71 -0.44,0.71 H 75.5 a 4.47,4.47 0 0 0 -0.73,0 1.09,1.09 0 0 1 -0.17,0.13 c 3.09,0 6.18,0 9.27,0 0.22,0 0.5,0.11 0.64,-0.1 0.14,-0.21 -0.08,-0.48 -0.2,-0.67 -1.32,-2.11 -2.5,-4.29 -3.73,-6.44 a 6.94,6.94 0 0 0 -1.11,-1.77 0.8,0.8 0 0 1 0.12,0.43 c 1.53,2.57 2.88,5.21 4.41,7.71 z"
     id="path1981" />
  <path
     class="cls-54"
     d="m 75.1,75.18 c 1.45,-2.45 2.84,-4.94 4.3,-7.39 a 1,1 0 0 0 0.19,-0.62 l -0.14,-0.24 a 1.9,1.9 0 0 1 -0.26,0.93 q -2.28,3.85 -4.52,7.74 h 0.1 a 1.65,1.65 0 0 0 0.33,-0.42 z"
     id="path1983" />
  <path
     class="cls-54"
     d="m 74.77,75.59 h -0.1 l -0.07,0.12 a 1.09,1.09 0 0 0 0.17,-0.12 z"
     id="path1985" />
  <path
     class="cls-54"
     d="m 79.47,66.74 c 0,0.07 0,0.13 0,0.19 l 0.14,0.24 a 0.8,0.8 0 0 0 -0.14,-0.43 z"
     id="path1987" />
  <path
     class="cls-18"
     d="m 81.72,63.25 c -1,0.13 -2,0 -3,0.06 a 3.64,3.64 0 0 0 -1,0.06 c 1.06,0 2.11,0 3.16,0 0.28,-0.01 0.58,0.1 0.84,-0.12 z"
     id="path1989" />
  <path
     class="cls-18"
     d="m 78.76,63.31 c 1,0 2,0.07 3,-0.06 h -3.21 c -0.27,0 -0.58,-0.11 -0.83,0.12 a 3.64,3.64 0 0 1 1.04,-0.06 z"
     id="path1991" />
  <path
     class="cls-55"
     d="M 47.69,76.77 H 47.6 c 0.53,0.87 1,1.75 1.56,2.62 1.65,2.77 3.17,5.61 4.83,8.37 a 1,1 0 0 0 0.29,0.4 c 0.23,0 0.26,-0.24 0.34,-0.39 2,-3.58 4.09,-7.13 6.16,-10.69 a 1.28,1.28 0 0 1 0.23,-0.29 c -4.44,0.01 -8.88,0.03 -13.32,-0.02 z"
     id="path1993" />
  <path
     class="cls-55"
     d="m 47.69,76.77 c 4.44,0 8.88,0 13.32,0 a 0.94,0.94 0 0 1 0.25,-0.18 H 47.52 l 0.08,0.15 z"
     id="path1995" />
  <path
     class="cls-55"
     d="m 60.78,77.07 c -2.07,3.56 -4.14,7.11 -6.16,10.69 -0.08,0.15 -0.11,0.37 -0.34,0.39 a 1,1 0 0 1 -0.29,-0.4 c -1.66,-2.76 -3.18,-5.6 -4.83,-8.37 -0.53,-0.87 -1,-1.75 -1.56,-2.62 v 0 a 4.66,4.66 0 0 0 0.34,0.83 c 2.11,3.65 4.23,7.29 6.37,11 a 2.55,2.55 0 0 0 0.3,-0.39 c 1.06,-1.85 2.11,-3.71 3.17,-5.55 1.06,-1.84 2.27,-3.89 3.4,-5.83 H 61 a 1.28,1.28 0 0 0 -0.22,0.25 z"
     id="path1997" />
  <path
     class="cls-55"
     d="m 61,76.78 h 0.14 L 61.25,76.6 A 0.94,0.94 0 0 0 61,76.78 Z"
     id="path1999" />
  <path
     class="cls-55"
     d="m 47.52,76.61 a 1.21,1.21 0 0 0 0,0.14 v 0 z"
     id="path2001" />
</svg>
