<?xml version="1.0" encoding="UTF-8" standalone="no"?>
<svg
   xmlns:dc="http://purl.org/dc/elements/1.1/"
   xmlns:cc="http://creativecommons.org/ns#"
   xmlns:rdf="http://www.w3.org/1999/02/22-rdf-syntax-ns#"
   xmlns:svg="http://www.w3.org/2000/svg"
   xmlns="http://www.w3.org/2000/svg"
   xmlns:sodipodi="http://sodipodi.sourceforge.net/DTD/sodipodi-0.dtd"
   xmlns:inkscape="http://www.inkscape.org/namespaces/inkscape"
   role="img"
   viewBox="-8.75 -8.75 342.99 454.74"
   version="1.1"
   id="svg193"
   sodipodi:docname="fledgepower-icon-color.svg">
  <metadata
     id="metadata199">
    <rdf:RDF>
      <cc:Work
         rdf:about="">
        <dc:format>image/svg+xml</dc:format>
        <dc:type
           rdf:resource="http://purl.org/dc/dcmitype/StillImage" />
      </cc:Work>
    </rdf:RDF>
  </metadata>
  <defs
     id="defs197" />
  <sodipodi:namedview
     pagecolor="#ffffff"
     bordercolor="#666666"
     borderopacity="1"
     objecttolerance="10"
     gridtolerance="10"
     guidetolerance="10"
     inkscape:pageopacity="0"
     inkscape:pageshadow="2"
     inkscape:window-width="640"
     inkscape:window-height="480"
     id="namedview195" />
  <style
     id="style2">.st0{fill:none}.st1{fill:#050505}.st2{fill:#ed4024}.st3{fill:#ba1c0c}.st4{fill:#515151}.st5{fill:#666}.st6{fill:#60605e}.st7{fill:#9b9b9b}.st8{fill:#ffcc04}.st9{fill:#ef8b22}.st10{fill:#cecdcc}.st11{fill:#efefef}.st12{fill:#fff}.st13{fill:#db6414}</style>
  <style
     id="style4">.st0{fill:none}.st1{fill:#050505}.st2{fill:#ed4024}.st3{fill:#ba1c0c}.st4{fill:#515151}.st5{fill:#666}.st6{fill:#60605e}.st7{fill:#9b9b9b}.st8{fill:#ffcc04}.st9{fill:#ef8b22}.st10{fill:#cecdcc}.st11{fill:#efefef}.st12{fill:#fff}.st13{fill:#db6414}</style>
  <style
     id="style6">.st0{fill:none}.st1{fill:#050505}.st2{fill:#ed4024}.st3{fill:#ba1c0c}.st4{fill:#515151}.st5{fill:#666}.st6{fill:#60605e}.st7{fill:#9b9b9b}.st8{fill:#ffcc04}.st9{fill:#ef8b22}.st10{fill:#cecdcc}.st11{fill:#efefef}.st12{fill:#fff}.st13{fill:#db6414}</style>
  <style
     id="style8">.st0{fill:none}.st1{fill:#050505}.st2{fill:#ed4024}.st3{fill:#ba1c0c}.st4{fill:#515151}.st5{fill:#666}.st6{fill:#60605e}.st7{fill:#9b9b9b}.st8{fill:#ffcc04}.st9{fill:#ef8b22}.st10{fill:#cecdcc}.st11{fill:#efefef}.st12{fill:#fff}.st13{fill:#db6414}</style>
  <style
     id="style10">.st0{fill:none}.st1{fill:#050505}.st2{fill:#ed4024}.st3{fill:#ba1c0c}.st4{fill:#515151}.st5{fill:#666}.st6{fill:#60605e}.st7{fill:#9b9b9b}.st8{fill:#ffcc04}.st9{fill:#ef8b22}.st10{fill:#cecdcc}.st11{fill:#efefef}.st12{fill:#fff}.st13{fill:#db6414}</style>
  <style
     id="style12">.st0{fill:none}.st1{fill:#050505}.st2{fill:#ed4024}.st3{fill:#ba1c0c}.st4{fill:#515151}.st5{fill:#666}.st6{fill:#60605e}.st7{fill:#9b9b9b}.st8{fill:#ffcc04}.st9{fill:#ef8b22}.st10{fill:#cecdcc}.st11{fill:#efefef}.st12{fill:#fff}.st13{fill:#db6414}</style>
  <style
     id="style14">.st0{fill:none}.st1{fill:#050505}.st2{fill:#ed4024}.st3{fill:#ba1c0c}.st4{fill:#515151}.st5{fill:#666}.st6{fill:#60605e}.st7{fill:#9b9b9b}.st8{fill:#ffcc04}.st9{fill:#ef8b22}.st10{fill:#cecdcc}.st11{fill:#efefef}.st12{fill:#fff}.st13{fill:#db6414}</style>
  <style
     id="style16">.st0{fill:none}.st1{fill:#050505}.st2{fill:#ed4024}.st3{fill:#ba1c0c}.st4{fill:#515151}.st5{fill:#666}.st6{fill:#60605e}.st7{fill:#9b9b9b}.st8{fill:#ffcc04}.st9{fill:#ef8b22}.st10{fill:#cecdcc}.st11{fill:#efefef}.st12{fill:#fff}.st13{fill:#db6414}</style>
  <style
     id="style119"
     type="text/css">.st0{fill:none}.st1{fill:#050505}.st2{fill:#ed4024}.st3{fill:#ba1c0c}.st4{fill:#515151}.st5{fill:#666}.st6{fill:#60605e}.st7{fill:#9b9b9b}.st8{fill:#ffcc04}.st9{fill:#ef8b22}.st10{fill:#cecdcc}.st11{fill:#efefef}.st12{fill:#fff}.st13{fill:#db6414}</style>
  <g
     id="Layer_1"
     transform="translate(-1.585 -6.3)">
    <g
       id="g518">
      <path
         id="polygon122"
         d="M555.6 393L555.6 308.4 519.7 308.4 519.7 396.1 532.9 404.7z"
         class="st0" />
      <path
         id="polygon124"
         d="M750.2 233.5L750.2 140.3 714.1 140.3 714.1 231.1 742.6 238.2z"
         class="st0" />
      <path
         id="polygon126"
         d="M442.4 308.4L412 308.4 412 365.3 442.4 357.8z"
         class="st0" />
      <path
         id="path128"
         d="m 736.3,51.4 c 5,0 8.9,-1.1 11.6,-3.3 2.7,-2.2 4.1,-5.4 4.1,-9.6 0,-4.4 -1.4,-7.7 -4.1,-9.6 -2.7,-2.1 -7.1,-3 -13.3,-3 H 725 v 25.6 h 0.2 11.1 z"
         class="st0" />
      <path
         id="polygon130"
         d="M933.1 308.4L902.6 308.4 902.6 352.9 933.1 345.7z"
         class="st0" />
      <path
         id="path132"
         d="m 300.5,205.4 c -0.6,-0.5 -1.2,-1 -1.7,-1.5 l -0.6,-0.5 c -17.9,-14.8 -35.5,-18.9 -43.2,-20 0.1,-4.1 0.5,-8 1.1,-11.5 3.2,1.1 7.5,2.5 11.4,2.5 0.1,0 0.3,0 0.4,0 l 5.3,-0.1 -3.2,-4.3 c -0.5,-0.6 -1,-1.3 -1.4,-2 -0.7,-1.6 -5.7,-12.9 -7.5,-17.4 -1,-4.6 -1.6,-7.9 -1.8,-9.8 v -0.2 c 0,-0.2 0,-0.4 0,-0.6 0.3,-7.7 -0.8,-17.4 -3.2,-26.5 -1.3,-5.2 -2.9,-10 -4.8,-14.2 0.1,-0.5 0.2,-1 0.2,-1.5 0,-0.2 0,-0.3 0,-0.5 v -0.2 c 0,-0.4 0,-0.8 0,-1.1 -0.2,-5.9 -1.2,-12.9 -2.7,-19.1 -3.6,-14.4 -9.7,-26.1 -18.3,-34.8 0.7,-2.1 0.4,-4.3 -0.8,-6 -2.9,-4.5 -8.7,-7.9 -12.8,-9.5 -0.8,-0.3 -1.6,-0.5 -2.4,-0.5 -1.5,0 -2.9,0.5 -4,1.3 -1.2,-0.6 -2.4,-1.2 -3.6,-1.8 0.5,-1.3 0.6,-2.7 0.2,-4.2 -0.4,-1.9 -1.6,-3.5 -3.3,-4.3 C 191.5,9.9 178.6,6.3 165.6,6.3 c -13.1,0 -26,3.6 -38.4,10.9 -1.7,1.1 -2.7,2.5 -3.1,4.3 -0.3,1.4 -0.2,2.8 0.2,4.2 -1.2,0.6 -2.5,1.2 -3.7,1.9 -1.1,-0.9 -2.5,-1.4 -4,-1.4 -0.8,0 -1.6,0.2 -2.3,0.4 -4.1,1.6 -9.9,5 -12.8,9.5 l -0.1,0.1 c -1.1,1.8 -1.3,3.9 -0.7,5.9 -8.5,8.8 -14.8,20.8 -18.1,34.9 -0.9,3.9 -2.4,11.5 -2.7,18.6 -0.1,0.4 -0.1,0.7 -0.1,1.1 -5.4,10.1 -10.9,26.8 -10.4,36.8 0.3,9.9 -0.8,17.6 -3.4,22.9 -0.8,1.6 -2.1,3.7 -3.3,5.6 l 1.4,1 0.2,0.4 0.2,0.3 -2,-1.4 c -2.2,3.2 -3.5,4.4 -3.8,4.6 0,0 0.1,0 0.1,0 l 0.8,5.2 c 0.3,0 0.7,0 1.1,0 1.7,0 4.1,-0.1 6.6,-0.3 l 4.4,-0.5 c 0.6,4.7 1.3,8.7 2.3,12.2 -7.3,1 -25.3,5 -43.3,20 l -0.6,0.5 c -0.6,0.5 -1.2,0.9 -1.7,1.5 -1.2,1.1 -2.4,2.2 -3.8,3.5 -28.9,28 -22.8,56 -21.8,59.6 0.1,0.4 0.2,0.9 0.3,1.3 0.8,3.8 2.1,7.6 3.8,11.3 0.2,0.4 0.4,0.8 0.6,1.3 l 0.2,0.4 c 1.8,3.6 4.1,7.2 6.8,10.7 7.3,9.6 17.9,18.8 31.4,27.5 3.2,21 10.8,42.8 22.5,64.8 0.9,1.8 2.6,3.1 4.6,3.6 0.6,0.2 1.2,0.2 1.8,0.2 1.4,0 2.8,-0.4 3.9,-1.2 0.1,-0.1 12.4,-7.8 36,-12 0.3,1.1 0.6,2.2 0.8,3.3 l 0.4,2.2 c 0.2,1.4 0.4,2.7 0.6,4.1 0.2,1.3 0.4,2.6 0.6,4 0,0 0.1,0.3 0.1,0.4 v 0 c -0.1,0.7 -0.1,1.3 -0.2,2 -2.1,0.1 -4,0.2 -6,0.4 -6.8,0.4 -12.5,1 -18,1.7 -6,0.8 -13,1.8 -19.4,4 -5.1,1.8 -12,4.9 -13.8,11.6 -0.6,2.5 -0.4,5.2 0.6,7.8 1.4,3.7 5.1,6.5 9.3,7.4 -0.4,2.6 0,5.3 1.4,7.6 2.3,3.9 6.3,6.2 11.1,6.2 2.6,0 5.3,-0.7 7.6,-2 0.4,-0.2 0.8,-0.5 1.2,-0.7 0.4,1 0.9,1.9 1.6,2.7 2.1,2.7 5.4,4.2 9.1,4.2 1.2,0 2.4,-0.2 3.6,-0.5 1.3,-0.3 2.6,-1 3.9,-1.8 l 0.1,-0.1 c 2,-1.6 3,-3.5 3.9,-5.2 0.6,-1.1 1.1,-2.1 1.8,-2.9 l 0.1,-0.1 c 0.3,-0.3 0.6,-0.8 1.4,-2 1.6,-2.3 4.3,-6.2 7.1,-9.6 3.7,-4.6 7.3,-7.7 9.1,-9.1 1.1,-0.9 1.5,-1.3 1.8,-2 0.9,-2 1.1,-5.2 1.1,-10.2 0,-0.7 0,-1.4 0,-2.1 0.7,-0.7 1.2,-1.5 1.5,-2.4 1,-2.9 2.6,-5.5 4.6,-7.8 0.4,0.3 0.8,0.7 1.2,1 5.3,4.6 11.5,9.1 18.5,13.6 l 0.1,0.1 c 4.8,3 9.8,5.8 13.8,5.8 0.7,0 1.3,-0.1 1.9,-0.2 2.1,-0.5 4.6,-1.8 6,-5.1 3.7,1.6 7.2,3 10.5,4.1 0.2,1.5 0.4,2.5 0.8,3.4 0.3,0.7 0.7,1.1 1.8,2 1.7,1.5 5.4,4.6 9.1,9.2 2.8,3.3 5.4,7.2 7,9.5 0.8,1.2 1.1,1.7 1.4,2 l 0.1,0.1 c 0.7,0.8 1.3,1.8 1.8,2.9 0.9,1.7 1.9,3.6 3.9,5.2 l 0.1,0.1 c 1.2,0.9 2.6,1.5 3.9,1.8 1.2,0.3 2.4,0.5 3.6,0.5 3.7,0 7,-1.5 9.2,-4.2 0.6,-0.8 1.1,-1.7 1.5,-2.7 0.3,0.3 0.7,0.5 1.1,0.7 2.4,1.3 5,2 7.6,2 4.8,0 8.9,-2.3 11.1,-6.2 1.4,-2.3 1.8,-5 1.4,-7.7 4.2,-0.9 7.8,-3.7 9.3,-7.4 1,-2.6 1.2,-5.3 0.6,-7.8 -1.7,-6.7 -8.7,-9.8 -13.8,-11.6 -5.3,-1.8 -11,-2.8 -16.3,-3.6 0,-0.1 0.1,-0.2 0.1,-0.3 0.6,-1.6 0.7,-3.4 0.2,-5.1 8.9,1.4 17,2.1 24.4,2.1 46.3,0 50.6,-26.7 50.8,-27.9 0.4,-2.5 -0.6,-5 -2.6,-6.6 -0.1,-0.1 -12.1,-10.1 -22.1,-31.3 -1.1,-2.3 -2.1,-4.7 -3.1,-7.2 11.8,-8 21.1,-16.4 27.7,-25.1 2.7,-3.5 4.9,-7.1 6.8,-10.8 l 0.2,-0.4 c 0.2,-0.4 0.4,-0.8 0.6,-1.3 1.7,-3.7 3,-7.5 3.8,-11.3 0.1,-0.4 0.2,-0.9 0.3,-1.3 0.9,-3.6 7,-31.6 -21.6,-59.7 -1.4,-1.3 -2.6,-2.4 -3.9,-3.5 z m 18.5,61.5 c -0.1,0.5 -0.2,1 -0.3,1.4 -0.2,0.8 -0.4,1.7 -0.6,2.5 -0.7,2.5 -1.6,4.9 -2.7,7.3 -0.2,0.5 -0.5,1 -0.7,1.5 -1.7,3.3 -3.7,6.5 -6,9.6 -5.4,7.1 -12.3,13.5 -19.9,19.1 -0.7,0.5 -1.4,1 -2.1,1.5 -1.4,1 -2.8,2 -4.2,3 -1.4,1 -2.9,1.9 -4.3,2.8 -1.5,1 -3.1,1.9 -4.6,2.8 -9,5.4 -18,9.9 -25.8,13.4 -13.9,9.8 -6.3,15.2 -5.6,16.7 0.8,1.7 14.5,15.3 -5.1,10.3 -12.9,-3.3 -12.5,-12 -10.6,-17.7 -0.1,0.1 -0.2,0.1 -0.2,0.2 0,0 0,0 0,0 2.5,-5.5 5,-11 7.4,-16.5 0.9,-1.9 1.7,-3.9 2.5,-5.8 5.3,-7.3 16.8,-19.4 20.2,-23.3 7.2,-8.3 11.9,-13.7 11,-24.8 -1.1,-14.3 -12.8,-18.5 -18.8,-18.7 h -0.3 C 248,242.1 246.7,232 244.6,222.1 l -0.4,-8.9 -0.4,-8 c 0.9,0.9 3.1,3.3 5.4,5.3 l 5.5,6.9 -0.4,-3.5 c 0.1,0 0.2,0 0.3,0 0.6,-0.4 -0.9,-8 -1.7,-18.3 -0.1,-1.7 -0.2,-3.5 -0.3,-5.4 1.5,0.2 4.2,0.5 7.9,1.5 2.6,0.6 5.6,1.5 8.9,2.8 1.7,0.6 3.4,1.4 5.2,2.2 0.6,0.3 1.2,0.6 1.8,0.9 3.7,1.8 7.5,4 11.5,6.8 2,1.4 4,2.9 6,4.5 0.7,0.6 1.5,1.2 2.2,1.8 1.2,1.1 2.4,2.2 3.5,3.3 26.9,26.7 19.4,53 19.4,52.9 0,0 0,0 0,0 z m -56.5,145 c 0.3,1 0.3,2.2 -0.3,3.5 -1,2.3 -3.8,3.6 -6.3,3.5 -1.2,0 -2.3,-0.3 -3.1,-1 -2,-1.7 -2.9,-4.5 -4.4,-4.9 -1.8,-0.5 -3.5,-0.9 -5,-1.3 -9.4,-2.3 -14.8,-3.4 -17.4,-3.9 -1,-0.2 -1.5,-0.3 -1.8,-0.3 v 0.1 c 1.7,0.7 15.6,7.1 23.3,12.3 3.4,2.3 4.8,4.8 4.8,6.9 0,0 0,0 0,0 0.4,4.5 -5,7.6 -10.4,4.6 -1.2,-0.6 -1.8,-4 -3.3,-5.1 -8.2,-5.4 -21,-13.1 -23.7,-14.6 2.1,2.1 9.8,10.1 14.3,15.7 0.7,0.9 1.3,1.8 1.7,2.6 0,0 0,-0.1 0,-0.1 0.8,1.6 0.9,3 0.5,4.1 0,0.1 0,0.1 -0.1,0.2 0,0.1 -0.1,0.2 -0.1,0.3 -0.1,0.1 -0.1,0.3 -0.2,0.4 0,0 0,0 0,0.1 -0.9,1.3 -2.8,2 -5.1,1.7 -0.3,0 -0.5,-0.1 -0.8,-0.2 0,0 0,0 -0.1,0 -1,-0.2 -1.7,-0.8 -2.3,-1.5 -0.2,-0.3 -0.4,-0.6 -0.6,-1 -0.2,-0.3 -0.4,-0.7 -0.6,-1.1 -0.7,-1.4 -1.5,-3 -2.9,-4.5 -0.2,-0.2 -0.3,-0.4 -0.5,-0.6 -2.6,-3.2 -6.6,-10.1 -11.9,-14.8 -0.4,-0.3 -0.8,-0.7 -1.2,-1 -0.4,-0.4 -0.9,-0.7 -1.2,-1 -0.8,-0.7 -1.4,-1.3 -1.9,-1.9 -2.4,-2.7 -2.7,-4.6 -2.7,-6.3 0,-0.4 0,-0.7 0,-1.1 0,-0.4 0,-0.7 -0.1,-1.1 -0.1,-1 -0.3,-2.1 -0.4,-3.3 0,0 0,0 0,0 0.1,0 0.2,0 0.4,-0.1 l 1.3,-0.3 5.5,-1.5 c 0.4,-0.1 0.7,-0.3 1,-0.4 0.3,1 0.6,1.9 0.9,2.5 -1.3,0.5 -2.3,1.3 -3.2,2 0.5,-0.1 1,-0.2 1.6,-0.3 -0.1,0 -0.1,0 -0.2,0 4.6,-1.3 9.2,-1 14,-0.9 10.3,0.4 30.1,1.1 38.8,9.2 1.8,1.3 3.1,2.8 3.5,4.4 0.1,0.1 0.1,0.1 0.2,0 z m -85,-15.6 c 0.1,2.6 -0.3,4.9 -1.9,5.2 -2.7,0.7 -18.2,-8.8 -30.8,-20 10.8,-7.4 26.7,-8 37.8,-1.4 5.6,3.3 9.7,8.3 11.9,14.6 0.3,0.8 0.8,1.4 1.4,1.9 0,1.2 0.1,2.6 0.1,4 -3,-1 -6,-2.1 -9.1,-3.4 -0.1,0 -0.1,0 -0.1,0 -7.6,-4.9 -13.4,-8.7 -20.2,-14.5 0.9,4.6 6,9.6 10.9,13.6 z m -54,15.7 c -0.4,0.3 -0.8,0.6 -1.2,1 -5.3,4.7 -9.3,11.5 -11.9,14.8 -0.2,0.2 -0.4,0.4 -0.5,0.6 -1.4,1.5 -2.2,3.1 -2.9,4.5 -0.2,0.4 -0.4,0.8 -0.6,1.1 -0.2,0.3 -0.4,0.7 -0.6,1 -0.6,0.7 -1.3,1.3 -2.3,1.5 0,0 0,0 -0.1,0 -0.3,0.1 -0.5,0.1 -0.8,0.2 -2.3,0.3 -4.1,-0.3 -5.1,-1.7 0,0 0,0 0,0 -0.1,-0.1 -0.1,-0.2 -0.2,-0.4 -0.1,-0.1 -0.1,-0.2 -0.1,-0.3 0,-0.1 -0.1,-0.1 -0.1,-0.2 -0.4,-1.1 -0.2,-2.5 0.5,-4.1 0,0 0,0.1 0,0.1 0.4,-0.8 0.9,-1.7 1.7,-2.6 4.7,-5.7 12.6,-14 14.5,-15.9 -2,1.2 -15.3,9.2 -23.9,14.7 -0.2,0.2 -0.5,0.4 -0.7,0.7 -0.9,1.3 -1.5,3.4 -2.3,4.1 -0.1,0.1 -0.2,0.2 -0.3,0.3 -5.4,2.9 -10.8,-0.1 -10.4,-4.6 0,0.1 0.1,0.1 0.1,0.2 0,-2.2 1.4,-4.8 4.9,-7.1 7.7,-5.3 21.6,-11.6 23.3,-12.3 v -0.1 c -0.2,0 -0.8,0.1 -1.8,0.3 -2.6,0.5 -8,1.6 -17.4,3.9 -1.6,0.4 -3.2,0.8 -5,1.3 -1.4,0.4 -2.3,3.2 -4.4,4.9 -0.8,0.7 -1.9,1 -3.1,1 -2.5,0.1 -5.3,-1.2 -6.3,-3.5 -0.5,-1.3 -0.5,-2.4 -0.3,-3.5 0,0 0,0.1 0.1,0.1 0.4,-1.6 1.5,-3 3.3,-4.2 8.6,-8.3 28.7,-8.9 39,-9.3 4.7,-0.1 9.3,-0.4 14,0.9 -0.9,0 -1.7,-0.1 -2.3,-0.1 1.5,0.1 2.7,0.3 3.6,0.5 -0.9,-0.8 -1.9,-1.5 -3.2,-2 0.3,-0.6 0.7,-1.6 1,-2.7 0.4,0.3 0.8,0.4 1.3,0.5 l 5.3,1.4 1.5,0.4 c 0,0 0.1,0 0.1,0 0,0 0,0 0,0 -0.1,1.2 -0.3,2.3 -0.4,3.3 0,0.4 -0.1,0.7 -0.1,1.1 0,0.4 0,0.7 0,1.1 0,1.5 -0.3,3.2 -2,5.5 -0.9,1 -2.1,2.2 -3.9,3.6 z M 20.2,289.3 c -0.6,-0.8 -1.1,-1.5 -1.7,-2.3 -0.5,-0.8 -1.1,-1.6 -1.6,-2.4 -1,-1.6 -1.9,-3.2 -2.8,-4.9 -0.3,-0.5 -0.5,-1 -0.7,-1.5 -0.4,-0.8 -0.7,-1.6 -1,-2.4 -0.6,-1.6 -1.2,-3.2 -1.7,-4.9 -0.2,-0.8 -0.4,-1.7 -0.6,-2.5 -0.1,-0.5 -0.2,-1 -0.3,-1.4 0,0 0,0 0,0 0,0 -7.5,-26.2 19.7,-52.9 1.1,-1.1 2.3,-2.2 3.5,-3.3 0.7,-0.6 1.5,-1.2 2.2,-1.8 9.3,-7.7 18.6,-12.3 26.1,-14.9 0.5,-0.2 1.1,-0.4 1.6,-0.5 1,-0.3 2,-0.7 3,-0.9 1,-0.3 1.9,-0.5 2.7,-0.7 1.3,-0.3 2.5,-0.6 3.5,-0.8 0.3,-0.1 0.7,-0.1 1,-0.2 0.6,-0.1 1.2,-0.2 1.7,-0.3 0.5,-0.1 1,-0.1 1.4,-0.2 0.4,0 0.7,-0.1 0.9,-0.1 0.1,0 0.2,0 0.2,0 0,0.4 0,0.9 0,1.3 -0.1,4.1 -0.5,7.8 -0.8,10.9 -0.4,1.5 -0.6,2.7 -0.5,3.8 -0.6,4.3 -1,6.9 -0.5,7.1 1.8,0.9 8.4,-6.3 10.2,-8.1 0,0.8 -0.3,3.9 -0.6,7.8 -0.2,2.5 -0.4,5.3 -0.6,8 -2.3,10.2 -3.6,20.6 -3.8,31.2 h -0.4 c -6,0.2 -17.7,4.5 -18.8,18.7 -0.9,11.1 3.9,16.6 11,24.8 3.5,4.1 15.8,16.9 20.8,24.1 0.7,1.7 1.4,3.3 2.1,5 2.5,5.6 5,11.2 7.6,16.7 -0.1,-0.1 -0.3,-0.2 -0.4,-0.3 0,0 -0.1,-0.1 -0.2,-0.2 1.8,5.7 2.2,14.4 -10.6,17.7 -8,2 -10.5,1 -10.5,-1.1 0,-0.5 0.1,-1 0.3,-1.6 0.1,-0.4 0.3,-0.8 0.5,-1.1 1.4,-2.7 4.2,-5.8 4.6,-6.5 0.6,-1.5 8.3,-6.9 -5.6,-16.7 -7.7,-3.5 -16.8,-8 -25.8,-13.4 -1.5,-0.9 -3.1,-1.9 -4.6,-2.8 C 39.2,308.4 28,299.5 20.2,289.3 Z M 106.1,46.4 c 3.9,6.6 11,17.5 14.1,19.9 -4.5,-8.7 -9,-17.3 -13.1,-26.2 0,0 2.3,-3.5 8,-6.2 0.1,-0.3 0.3,-0.6 0.6,-0.7 0.3,-0.2 0.6,-0.1 0.9,0.1 0.1,0 0.1,0 0.1,-0.1 l 0.2,0.4 c 0,0 0.1,0.1 0.1,0.1 1.2,2.8 5.8,13.3 8.8,20.7 l 3.4,7.9 0.7,-0.4 c 1.6,-1 -5.2,-19 -8.2,-27 1.9,-1.1 3.9,-2.2 5.9,-3.1 0,0 0,0 0,0 0.8,-0.4 1.7,-0.8 2.5,-1.1 1.3,2.4 2.7,4.8 4,7.2 1.5,2.6 2.7,6.5 3.8,11.1 v 17.5 l 3.1,2.4 c 0.4,3.8 0.8,7.6 1,11.2 -18.4,1.7 -35.7,5.2 -49,10 -0.5,-0.1 -1,0 -1.3,0.3 0,0.1 -0.1,0.1 -0.1,0.2 -1.8,0.7 -3.4,1.3 -5.1,2 0.2,-2.6 0.7,-6 1.5,-9.8 0,0 0.1,0 0.1,0 2.3,-11.1 7.2,-25.7 18,-36.4 z m 24.4,-23.2 c 0.6,-0.4 1.2,-0.6 1.8,-1 7.5,9.7 9.7,13.3 10.7,19.6 h -3.2 c -0.7,-2.6 -1.5,-4.8 -2.4,-6.3 -6.9,-12.3 -6.9,-12.3 -6.9,-12.3 z m 85.1,9.5 c 0.6,0.1 0.9,0.8 0.6,1.3 0,0 0,0 0,0 5.6,2.7 7.8,6.1 7.8,6.1 -4.3,9.3 -9,18.2 -13.8,27.3 2.4,1.4 10.8,-13 15,-20.9 10.7,10.6 15.5,25 17.7,35.8 0,0 0,0 0,0 0.3,1.3 0.5,2.6 0.7,3.8 0,0 0,0.1 0,0.1 0.1,0.5 0.2,1 0.2,1.5 0,0.1 0,0.2 0,0.2 0.1,0.4 0.1,0.9 0.2,1.3 0,0.1 0,0.2 0,0.3 0.1,0.4 0.1,0.8 0.1,1.2 0,0.1 0,0.1 0,0.2 0.1,0.5 0.1,0.9 0.1,1.3 -13.8,-6.1 -33.7,-10.6 -55.2,-12.5 0.3,-4.1 0.6,-8.3 1,-12.3 l 1.5,-1.1 V 62 59.3 58.1 c 0,-0.2 0.1,-0.3 0.1,-0.5 0.7,-3 1.5,-6.1 2,-9 0.4,-1.9 0.9,-4.5 1.6,-6.8 0.5,-1.5 1,-3 1.6,-4.1 0,0 0,0 0,-0.1 1.3,-2.3 2.6,-4.7 4,-7 2.8,1.2 5.6,2.6 8.3,4.2 -3.2,8 -10.3,25.6 -7.6,27.6 l 3.8,-8.8 c 2.6,-6.5 2,-4.9 8.7,-20.3 0.6,-0.6 1.1,-0.9 1.6,-0.6 z m -32.3,230.5 -4.1,-0.1 h -1.4 l -2,-0.1 c -0.6,0 -1.2,0 -1.8,0 14.1,-7.2 40.3,-22.4 51.6,-40.7 2.9,2 6.3,3.7 9.4,4.9 1.5,0.6 3,1.1 4.3,1.5 0.2,0.1 0.5,0.1 0.7,0.1 h 0.1 l 0.4,1.4 c 0,0 -1.8,1.6 -5,4.1 -28.4,22.6 -52.1,28.9 -52.2,28.9 z m 6.2,4.6 -8.5,7.8 -3.8,3.4 -3.8,3.4 -3.9,3.3 c -1.3,1.1 -2.6,2.2 -4,3.2 -2.7,2.1 -5.4,4.2 -8.1,6.3 -2.8,2 -5.6,4 -8.6,5.8 1.8,-3 3.8,-5.8 5.8,-8.6 2,-2.8 4.1,-5.5 6.3,-8.1 1.1,-1.3 2.2,-2.6 3.2,-4 l 2.7,-3.2 c -0.9,0 -1.9,0 -2.8,0 -2.3,0 -4.5,0 -6.8,-0.1 -2.3,-0.1 -4.5,-0.1 -6.8,-0.2 l -11.2,-0.6 7.9,-7.3 c 2.4,-2.2 4.8,-4.3 7.2,-6.4 2.4,-2.1 4.9,-4.2 7.4,-6.2 0.5,-0.4 1,-0.8 1.5,-1.2 2,-1.6 4.1,-3.2 6.2,-4.7 2.6,-1.9 5.3,-3.8 8.1,-5.5 -1.7,2.8 -3.6,5.5 -5.5,8.1 -0.3,0.5 -0.7,0.9 -1,1.4 -1.6,2.2 -3.2,4.3 -4.9,6.4 -1.7,2.2 -3.5,4.3 -5.3,6.5 1,0 2.1,0 3.1,0 2.3,0 4.5,0 6.8,0 2.3,0 4.5,0.1 6.8,0.2 z M 90.4,232.1 c -0.6,-0.5 -1.1,-0.9 -1.5,-1.2 0,0 0,0 0,0 v 0 c 0,0 0,0 0,0 0,0 0,0 0,0 1.7,-0.9 3.7,-2 5.8,-3.2 2.6,-1.5 5.3,-3.2 7.8,-5 0.7,0.6 1.4,1.3 2.2,2 10.7,15.3 31.3,28.2 45.2,35.7 -1.2,1 -2.3,2 -3.4,3 0,0 0,0 0,0 v 0 c 0.1,0 -26,-6.3 -56.1,-31.3 z m -1.2,77.6 C 74.3,288.3 65,285.6 66.1,271.5 c 1.1,-14.1 14.6,-14.6 14.6,-14.6 -1.2,24.8 8.5,52.8 8.5,52.8 z m 4,-215.8 c 0,0 0,0 0,0 0,-0.1 0.1,-0.1 0.2,-0.1 9.1,6.4 16.5,8.2 27.7,10.2 0.2,0 0.4,0.1 0.7,0.1 10.1,1.7 24.4,3.1 35.1,2.9 1,0 2,0 2.9,-0.1 l 4.6,-0.4 c 0,0 -0.1,0 -0.1,0 l -4.6,-0.5 c -20.1,-1.8 -45,-2.2 -62.6,-13.6 1,-0.4 2.1,-0.7 3.1,-1.1 0.1,-0.2 0.4,-0.4 0.6,-0.5 5.6,-2 13.2,-3.9 21.6,-5.3 36.3,-7.1 79.2,-4.9 111.4,6.7 -8.9,6.5 -18.4,8.5 -29.4,10.4 -9.4,1.7 -30.7,4.1 -40,4 5.4,0.1 9.6,0.3 14.2,0.3 3.1,0 6.4,0 10.2,-0.2 9,-0.5 22.5,-2 33.4,-5.1 4.3,-1.3 8.3,-2.8 11.4,-4.7 l 4.1,-3.1 c 0.2,0.1 0.3,0.1 0.5,0.2 0,0 0,0 -0.1,0.1 2.3,0.9 4.5,1.9 6.7,2.9 -7.8,20.3 -150.5,20.3 -158.3,0 2.2,-1.2 4.4,-2.2 6.7,-3.1 z M 183,79.4 c -5.6,-0.4 -11.2,-0.6 -17,-0.6 -0.1,0 -0.1,0 -0.2,0 -1.4,0 -2.8,0 -4.2,0 -0.2,0 -0.3,0 -0.5,0 -3.6,0.1 -7.2,0.2 -10.7,0.4 -1,0.1 -2.1,0.1 -3.1,0.2 0.1,-2 0.2,-4 0.2,-5.9 l 0.2,0.1 3.2,2.4 H 179 l 3.8,-2.8 c 0,0.2 0,0.3 0,0.5 0.1,1.9 0.1,3.8 0.2,5.7 z M 141.5,64.5 V 45.4 h 23.4 23.4 v 19.1 l -10.5,7.9 H 164.9 152 Z m 42.8,7.5 2.6,-1.9 c -0.3,3.3 -0.5,6.5 -0.7,9.5 -0.9,-0.1 -1.8,-0.1 -2.6,-0.2 0.2,-2.5 0.5,-4.9 0.7,-7.4 z m -38.4,0.3 c 0.2,2.4 0.5,4.8 0.8,7.2 -0.6,0 -1.3,0.1 -1.9,0.1 -0.2,-2.7 -0.4,-5.7 -0.7,-8.7 z m 55.5,57.3 c 1.7,-3.7 4.5,-6 6.3,-5.2 1.8,0.9 1.9,4.5 0.3,8.2 -1.7,3.7 -4.5,6 -6.3,5.2 -1.8,-0.8 -1.9,-4.5 -0.3,-8.2 z m -72.2,8.2 c -1.8,0.8 -4.6,-1.5 -6.3,-5.2 -1.7,-3.7 -1.5,-7.3 0.3,-8.2 1.8,-0.8 4.6,1.5 6.3,5.2 1.7,3.7 1.5,7.4 -0.3,8.2 z m -63.1,29 c 0,0 7.3,-3.6 9.5,-19.6 0.5,-3.7 0.7,-8.1 0.5,-13.4 -0.1,-1.6 0.1,-3.7 0.4,-6 0.2,-1.5 0.6,-3.2 1,-4.9 0.5,-2.2 1.1,-4.4 1.8,-6.7 0.3,-0.9 0.6,-1.8 0.9,-2.8 0.2,-0.5 0.3,-0.9 0.5,-1.4 1.3,-3.6 2.7,-7.1 4.3,-10.2 3.6,3.8 10,6.3 16.1,7.9 -1.2,0.7 -2.2,1.5 -3.3,2.6 -5.5,5.9 -4.6,12 -3.3,19.3 2,-9.1 4.1,-18.6 13.4,-17.7 -5.3,6.9 -7,14.1 -6.3,20.5 0.6,0.2 1.1,0.7 1.3,1.3 2.4,10 8.3,22.4 20.7,20 4.1,-0.8 5.9,-2.7 8.3,-5.6 -0.9,2.4 -2.1,4.2 -3.9,5.5 1.8,-0.7 3.4,-1.7 4.5,-3.1 0,0.5 0,0.9 0,1.4 l 2.1,-5.5 0.6,-1.5 c 0.5,-2.1 0.7,-4.2 0.7,-6.4 0,-8.7 -3.7,-17.7 -9.1,-23.8 -0.9,-1 -1.8,-1.9 -2.8,-2.7 4.5,0.5 9.1,1 13.6,1.3 9.3,0.8 18.7,1 28,1 9.3,0 18.7,-0.4 28,-1 4.5,-0.3 9.1,-0.8 13.6,-1.3 -1,0.9 -2,1.8 -2.8,2.7 -4.2,4.7 -7.3,11 -8.6,17.7 -0.3,1.7 -0.5,3.5 -0.6,5.3 -0.1,2.4 0.1,4.9 0.7,7.2 l 2.7,7 c 0,-0.5 0,-1 0,-1.5 1.3,1.8 3.2,2.9 5.4,3.6 -2,-1.3 -3.4,-3.1 -4.3,-5.8 2.4,2.9 4.2,4.9 8.3,5.6 2.7,0.5 5,0.4 7.1,-0.3 0.1,0 0.1,0 0.2,-0.1 1.9,-0.8 3.8,-2 5.5,-3.5 4.1,-4.1 6.6,-10.5 7.9,-16.1 0.1,-0.5 0.4,-0.9 0.8,-1.1 0.7,-6.5 -1,-13.8 -6.3,-20.7 9.2,-0.8 11.2,8.7 13.2,17.7 1.3,-7.3 2.2,-13.4 -3.3,-19.3 -1,-1.1 -2.1,-1.9 -3.3,-2.6 5.7,-1.6 11.6,-3.8 15.4,-7.2 4.7,10.5 7.3,24.4 7.3,34.5 0,0.9 0,1.8 0,2.6 -0.5,10.2 6.9,22.7 10,27.3 0,0.1 -9.5,-3.3 -10.4,-3.7 0,0 0,-0.1 0,-0.1 0,0 -0.1,0 -0.1,-0.1 0.1,-3.6 -0.1,-7 -0.6,-10.4 -1.1,5.3 -4.4,24.4 -3.1,35.5 0.1,9.7 1,17.4 1,17.4 l -0.1,-0.2 c 0,0 0,0 0,0 l -12,-14.9 c -0.3,1 3.1,31.3 3.2,34.4 0,0 -10.1,-3.1 -15.1,-7.8 -16,16.4 -33.5,24.6 -33.5,24.6 l 5.5,-13.1 c -5.9,5.9 -12.5,11.5 -15.7,14.3 -0.2,-0.4 -0.5,-0.7 -0.8,-1.1 -0.2,-0.2 -0.4,-0.4 -0.6,-0.5 l 1.3,-6.3 -4.2,5.5 c -0.7,0.1 -1.3,0.3 -1.9,0.6 -2.7,1.6 -5.4,3.5 -8.4,5.7 -2.7,2 -5.2,3.9 -7.5,5.7 l -13.3,-19.1 2.4,12 c 0,0 -6.5,-1 -16.4,-12.2 l -1.3,11.1 c 0,0.2 -0.2,0.2 -0.5,0.1 0,0 0,0 0,0 0,0 -0.1,0 -0.1,-0.1 -1.4,-0.6 -4.9,-3.5 -9.4,-7.7 0,0 0,0 0,0 -0.1,-0.1 -0.1,-0.1 -0.2,-0.2 -2.3,-2.2 -4.9,-4.7 -7.6,-7.5 -3.3,-3.4 -6.7,-7.2 -10,-11.1 -5.2,4.2 -14.1,6.9 -14.1,6.9 0,0 0,-0.1 0,-0.1 0,0 0,0 0,0 0.2,-6.5 2.4,-18.1 2.4,-27.4 0,-1.3 0,-2.5 -0.1,-3.7 l -11.3,12 c -0.4,0.4 -0.5,0.2 -0.5,-0.1 -0.1,-0.9 0.9,-3.8 1,-5 0.4,-4 0.5,-7.3 0.5,-10.2 0,-12.6 -2.8,-18 -3.2,-37.7 -0.9,4.1 -1.3,7.4 -1.5,10.6 l -10.1,3.6 c 0,0 0.2,-0.1 0.5,-0.3 z m 109.7,89 c 2,-2.8 3.8,-5.3 5.3,-7.8 l 0.7,-0.6 c 0.2,-0.2 2.5,-2 5.7,-4.9 l -2.7,6.3 8.5,-4 c 0.5,-0.2 7.3,-3.4 16.2,-9.8 -4.6,4.1 -10,8.2 -16.3,12.4 -7.3,4.8 -14.5,8.8 -20.1,11.7 1,-0.9 1.8,-2.1 2.7,-3.3 z m -40.3,-8.2 c -0.5,-0.4 -1.1,-0.7 -1.6,-1.1 0.3,-0.5 0.5,-1 0.6,-1.6 l 0.4,-3.6 c 7.5,6.8 12.5,7.7 13.1,7.8 l 5.1,0.8 v -0.1 l 3.5,5.1 c -1.2,1 -2.4,2 -3.7,3.1 -5.1,-2.8 -11.2,-6.3 -17.4,-10.4 z m 58,-212.1 c -0.9,1.6 -1.7,3.7 -2.4,6.3 h -4 c 1.1,-6.4 3.3,-10 10.8,-19.8 l 0.1,-0.1 c 0.8,0.4 1.5,0.9 2.3,1.3 0.1,0 0.1,0 -6.8,12.3 z m -0.1,-15.9 c 0.4,0.2 0.8,0.4 1.3,0.6 -0.3,0.3 -0.5,0.7 -0.7,1 0,0.3 -0.1,0.6 -0.3,0.9 -0.3,0.5 -0.6,0.8 -1.1,1 -5.9,8.3 -7.7,12.2 -8.5,18.8 h -8.9 l -3.2,-4 h -7 -7 l -3.2,4 h -6.2 -2.2 -0.2 c -0.6,-4.7 -1.7,-8 -4.4,-12.6 -1,-1.5 -2,-3 -2.9,-4.5 -0.9,-1.3 -1.9,-2.7 -3.1,-4.3 0.4,-0.2 0.8,-0.3 1.1,-0.5 1.1,-2.3 9.7,-4 11.3,-4.5 4,-1.1 8.1,-1.7 12.2,-1.9 9.3,-0.7 18.6,0.5 27.7,3.9 1.7,0.5 3.3,1.1 4.9,1.8 0,0 0.2,0.1 0.4,0.3 z m -81,343.2 c 0.1,0.4 0.3,0.7 0.4,1.1 0.8,1.8 1.5,3.6 2.2,5.4 -26.7,4.4 -40.4,13.3 -40.4,13.3 -11.5,-21.7 -18.2,-41.7 -21.3,-59.9 4.7,2.8 9.6,5.5 14.9,8.1 3.4,1.7 6.9,3.4 10.7,5.1 5.2,3.7 5.9,6.1 6,6.7 0.1,0.8 -0.3,1.4 -1.1,2.5 -0.4,0.4 -0.7,0.9 -1,1.5 -0.2,0.2 -0.5,0.7 -0.8,1 -1.7,2.1 -3.9,4.9 -4.8,7.9 -0.5,1.7 -0.6,3.5 0.3,5.2 0.9,1.8 2.9,3.9 7.5,3.9 1,0 2.1,-0.1 3.4,-0.3 1.4,-0.2 2.9,-0.5 4.6,-0.9 6.3,-1.6 10.7,-4.6 13.1,-8.8 0.6,-1 1,-2.2 1.3,-3.3 1.7,3.7 3.4,7.6 5,11.5 z m 18.2,30.4 -6.8,-1.8 c 0,0 0,-1 -1.7,-10.6 -1.3,-7.6 -2.9,-12.5 -12.7,-34.4 -0.6,-2.7 -2.4,-6.7 -2.9,-7.8 -9.2,-19.8 -9,-18.5 -14.3,-33.3 -7.6,-23.7 -9.4,-48.3 -5.9,-71.9 4.1,3.5 27.7,23.1 57.2,32.8 l -7.3,6.8 c -1.3,1.2 -1.8,3.1 -1.2,4.8 0.6,1.7 2.2,2.9 4,3 l 4.2,0.2 7,0.4 c 1,0.1 2,0.1 3,0.1 1.1,0 2.2,0.1 3.3,0.1 0,0 0.7,0 0.8,0 -2.2,2.7 -4.3,5.4 -6.3,8.2 -2.3,3.2 -4.3,6.1 -6,8.9 -1.1,1.8 -0.8,4.1 0.7,5.5 0.9,0.9 2,1.3 3.2,1.3 0.8,0 1.6,-0.2 2.3,-0.7 2.5,-1.5 5,-3.2 7.8,-5.2 0.4,-0.3 0.7,-0.5 1.1,-0.8 0.7,-0.5 1.4,-1 2,-1.5 2.1,-1.6 4.2,-3.2 6.3,-4.8 0.8,-0.6 1.5,-1.2 2.3,-1.9 0.1,-0.1 0.2,-0.2 0.4,-0.3 l 1,-0.8 0.4,-0.3 c 0,0 4,-3.4 4,-3.4 l 2,-1.7 1.9,-1.7 9.8,-8.9 2.5,-2.3 c 1.4,-1.2 1.8,-3.2 1.2,-4.9 -0.4,-1 -1.1,-1.8 -2,-2.3 26.6,-10.3 47.1,-27.4 50.8,-30.6 3.4,23.2 1.8,47.4 -5.4,70.7 0,-0.3 0.1,-0.5 0.1,-0.8 -0.1,0.3 -0.2,0.6 -0.3,0.9 -6.8,19.6 -4.1,15.2 -14.3,34.1 0,0.1 -0.1,0.2 -0.1,0.3 -0.5,0.9 -1.9,4.4 -2.7,7 -10,22.5 -11.8,27.6 -13.1,35.2 -1.7,9.6 -1.7,10.6 -1.7,10.6 l -6.8,1.8 c -2.7,-7.7 -7.8,-13.4 -14.1,-17 2.7,0.5 5.3,1.1 7.8,1.9 3.2,1 5.5,1.7 8.7,2.9 -3.3,-3.1 -4,-2.8 -8.2,-4.6 -6.7,-2.8 -14.6,-4.4 -22.7,-4.8 -3,-0.4 -6.1,-0.4 -9.2,-0.1 -9.8,0.4 -19.6,2.3 -27.6,5.4 4.4,-0.5 8.9,-1 13.6,-1.4 -7.4,3.7 -13.3,9.7 -16.1,17.7 z M 245.4,286.9 c 1.8,-9.1 3.2,-19.9 2.7,-30.1 0,0 13.5,0.5 14.6,14.6 1.1,14.1 -8.2,16.8 -23.1,38.2 0,0 0.4,-1.1 1,-3 1.9,-6.4 3.6,-13 4.8,-19.7 z m 1.4,60.7 c -0.3,-0.3 -0.6,-0.8 -0.8,-1 -0.3,-0.6 -0.7,-1 -1,-1.5 -0.9,-1.1 -1.2,-1.7 -1.1,-2.5 0.1,-0.6 0.8,-3 6,-6.7 9.6,-4.4 18.1,-8.8 25.9,-13.5 1.2,-0.7 2.5,-1.5 3.7,-2.3 0.1,0.3 0.2,0.6 0.4,0.9 11.4,28.9 27.5,41.7 27.5,41.7 0,0 -4.7,33.3 -79.7,17.4 0.8,-0.6 1.4,-1.4 1.7,-2.3 1.8,-4.2 -1.8,-8.1 -4.7,-10.6 -0.9,-0.8 -1.8,-1.5 -2.7,-2.3 -1.5,-1.4 -3,-2.8 -4.4,-4.2 1.3,-3.1 2.7,-6.1 4,-9.2 0.3,1 0.7,2 1.2,3 2.4,4.3 6.8,7.3 13.1,8.8 3.3,0.8 5.9,1.2 8,1.2 4.7,0 6.7,-2.1 7.5,-3.9 2.1,-4.5 -2,-9.6 -4.6,-13 z m -14.2,43.7 c 1.8,4 -14.7,1 -23.5,-0.9 0,-0.2 0.1,-0.4 0.1,-0.6 0.4,-2.7 0.8,-5.4 1.3,-8.1 0.1,-0.8 0.3,-1.5 0.4,-2.3 0.1,-0.4 0.2,-0.7 0.3,-1.1 2.7,1.1 19.2,8.1 21.4,13 z m -18.8,4.1 c -0.9,-0.1 -1.8,-0.1 -2.8,-0.2 -0.5,0 -1,-0.1 -1.5,-0.1 -0.1,-0.5 -0.1,-1 -0.3,-1.4 -0.1,-0.5 -0.1,-1 -0.2,-1.5 1.6,1 3.2,2.1 4.8,3.2 z m 2.1,-31 c 2,2 4.1,3.9 6.2,5.7 11.8,9.9 -7.9,8.4 -11,8.1 1.2,-4.8 3,-9.4 4.8,-13.8 z"
         class="st1" />
      <path
         id="path134"
         d="m 92.9,363.3 c -1.7,0.4 -3.2,0.7 -4.6,0.9 7.2,2.6 14.6,1.1 24,-1.4 -1.6,-3.9 -3.3,-7.8 -5.1,-11.7 -0.3,1.2 -0.8,2.3 -1.3,3.3 -2.3,4.4 -6.7,7.3 -13,8.9 z"
         class="st2" />
      <path
         id="path136"
         d="m 243.7,364.6 c -2.1,0 -4.7,-0.4 -8,-1.2 -6.3,-1.6 -10.7,-4.6 -13.1,-8.8 -0.5,-0.9 -0.9,-1.9 -1.2,-3 -1.3,3 -2.7,6.1 -4,9.2 1.4,1.5 2.9,2.9 4.4,4.2 0.9,0.8 1.8,1.5 2.7,2.3 70.9,24.5 60.3,-28.7 55.2,-46.2 -0.1,-0.3 -0.2,-0.6 -0.4,-0.9 -1.2,0.8 -2.5,1.5 -3.7,2.3 -7.8,4.6 -16.2,9.1 -25.9,13.5 -5.2,3.7 -5.9,6.1 -6,6.7 -0.1,0.8 0.3,1.4 1.1,2.5 0.4,0.4 0.7,0.9 1,1.5 0.2,0.2 0.5,0.7 0.8,1 2.7,3.4 6.7,8.5 4.5,13.1 -0.7,1.6 -2.7,3.8 -7.4,3.8 z"
         class="st2" />
      <path
         id="path138"
         d="m 82,347.6 c 0.3,-0.3 0.6,-0.8 0.8,-1 0.3,-0.6 0.7,-1 1,-1.5 0.9,-1.1 1.2,-1.7 1.1,-2.5 -0.1,-0.6 -0.8,-3 -6,-6.7 -3.7,-1.7 -7.3,-3.4 -10.7,-5.1 1.9,9.8 4.7,18.5 9,24.7 0.9,-3 3.1,-5.8 4.8,-7.9 z"
         class="st2" />
      <path
         id="path140"
         d="m 224.6,367.2 c 2.9,2.6 6.5,6.4 4.7,10.6 -0.3,0.9 -1,1.7 -1.7,2.3 74.9,15.9 79.7,-17.4 79.7,-17.4 0,0 -16,-12.8 -27.5,-41.7 5.1,17.6 15.7,70.7 -55.2,46.2 z"
         class="st3" />
      <path
         id="path142"
         d="m 88.4,364.3 c -1.2,0.2 -2.4,0.3 -3.4,0.3 -4.7,0 -6.7,-2.1 -7.5,-3.9 -0.8,-1.7 -0.8,-3.5 -0.3,-5.2 -4.3,-6.1 -7.1,-14.9 -9,-24.7 -5.3,-2.7 -10.2,-5.4 -14.9,-8.1 3.1,18.2 9.8,38.2 21.3,59.9 0,0 13.6,-8.9 40.4,-13.3 -0.7,-1.8 -1.4,-3.6 -2.2,-5.4 -0.1,-0.4 -0.3,-0.7 -0.4,-1.1 -9.4,2.6 -16.9,4.1 -24,1.5 z"
         class="st3" />
      <path
         id="path144"
         d="m 280.2,243.9 c -21,-19.2 -34.2,-29.1 -34.2,-29.1 0,0 -0.9,-0.5 -2.2,-1.4 l 0.4,8.9 c 2.1,9.9 3.4,20 3.7,30.1 h 0.3 c 6,0.2 17.7,4.5 18.8,18.7 0.9,11.1 -3.9,16.6 -11,24.8 -3.4,3.9 -14.9,16 -20.2,23.3 -0.8,1.9 -1.6,3.9 -2.5,5.8 -2.5,5.5 -5,11 -7.4,16.5 0,0 0,0 0,0 0,0 0.1,-0.1 0.2,-0.2 -1.8,5.7 -2.2,14.4 10.6,17.7 19.7,5 5.9,-8.6 5.1,-10.3 -0.6,-1.5 -8.3,-6.9 5.6,-16.7 7.7,-3.5 16.8,-8 25.8,-13.4 0.8,-1.6 1.8,-3.4 2.5,-4.6 -7.2,4.9 -20.6,12.9 -18.3,4 1.4,-5.4 8.1,-12.6 12,-16.1 l -1.8,2.4 c -16.5,21.6 -8,19.3 8.1,7.3 5.2,-3.9 4.6,-0.4 2.5,3.5 l -0.4,0.7 c 1.4,-0.9 2.9,-1.9 4.3,-2.8 1.4,-1 2.8,-2 4.2,-3 0.7,-0.5 1.4,-1 2.1,-1.5 7.6,-5.7 14.5,-12.1 19.9,-19.1 -0.3,0.1 -0.7,0.1 -1,0.1 -3.5,0 -3.4,-8.9 -3.2,-13.7 -5.1,8.9 -15.1,23.9 -17.9,13.8 -1.8,-6.2 1.5,-16.8 3.7,-22.5 l -0.5,3.3 c -5.4,30 2.5,24.1 12.8,4 3.8,-7.3 5.2,-4.8 5.2,1.1 0,2.2 0,5.4 0.2,7.8 0.6,9.2 7,-4.8 11,-14.8 0.1,-0.5 0.2,-1 0.3,-1.4 -0.6,-10.2 -2.7,-18.9 -5.9,-26.5 -3.8,12.8 -18.4,16.5 -32.8,3.3 z"
         class="st4" />
      <path
         id="path146"
         d="m 280.2,243.9 c 14.4,13.1 29,9.5 32.8,-3.4 -2.9,-7 -6.8,-12.9 -11.1,-17.9 1,4.2 1.3,8.1 -0.2,9.6 -2.5,2.6 -9.3,-3 -13.1,-6.2 3.6,9.3 9,26.2 -1,22 -6.2,-2.6 -12.5,-11.8 -15.4,-17 l 2.2,2.5 c 20,22.7 20.5,13.3 11.9,-6.6 -3.2,-7.5 -0.8,-7.7 4.1,-3.6 2.6,2.1 6.8,5.5 9,6.4 0.4,-3 -0.6,-7.5 -2.2,-12 -19.4,-18.6 -44.7,-21.8 -44.7,-21.8 v -0.1 c 0.7,10.3 2.3,17.9 1.7,18.3 -0.1,0 -0.2,0 -0.3,0 l 0.4,3.5 -5.5,-6.9 c -2.2,-2 -4.5,-4.4 -5.4,-5.3 l 0.4,8 c 1.3,0.9 2.2,1.4 2.2,1.4 0,0 13.2,9.9 34.2,29.1 z"
         class="st5" />
      <path
         id="path148"
         d="m 299.3,214.1 c 0.5,1.2 1,2.5 1.4,3.9 0.5,1.5 0.9,3 1.3,4.5 4.3,5 8.1,10.9 11.1,17.9 3.2,7.5 5.3,16.3 5.9,26.5 0,0 0,0 0,0 0,0.1 7.5,-26.2 -19.7,-52.8 z"
         class="st6" />
      <path
         id="path150"
         d="m 297.4,217.7 c -0.6,-1.8 -1.4,-3.7 -2.2,-5.4 -0.5,-1.1 -1,-2.3 -1.6,-3.3 -2,-1.7 -4,-3.2 -6,-4.5 -4,-2.7 -7.8,-5 -11.5,-6.8 -0.6,-0.3 -1.2,-0.6 -1.8,-0.9 -1.8,-0.8 -3.5,-1.5 -5.2,-2.2 -3.3,-1.3 -6.3,-2.2 -8.9,-2.8 -3.7,-0.9 -6.4,-1.3 -7.9,-1.5 0.1,1.9 0.2,3.7 0.3,5.4 v 0.1 c 0,0 25.4,3.3 44.8,21.9 z"
         class="st6" />
      <path
         id="path152"
         d="m 307.7,283.2 c -0.1,-2.4 -0.1,-5.6 -0.2,-7.8 0,-5.9 -1.4,-8.4 -5.2,-1.1 -10.3,20 -18.1,25.9 -12.8,-4 L 290,267 c -2.2,5.7 -5.5,16.3 -3.7,22.5 2.9,10.1 12.8,-4.9 17.9,-13.8 -0.2,4.9 -0.2,13.7 3.2,13.7 0.4,0 0.7,0 1,-0.1 2.3,-3.1 4.4,-6.2 6,-9.6 0.3,-0.5 0.5,-1 0.7,-1.5 1.1,-2.4 2,-4.8 2.7,-7.3 0.2,-0.8 0.4,-1.7 0.6,-2.5 -3.8,10.1 -10.1,24 -10.7,14.8 z"
         class="st7" />
      <path
         id="path154"
         d="m 275.9,311.6 c -16,12 -24.6,14.3 -8.1,-7.3 l 1.8,-2.4 c -3.9,3.5 -10.7,10.7 -12,16.1 -2.2,8.9 11.1,0.9 18.3,-4 -0.8,1.2 -1.7,3 -2.5,4.6 1.5,-0.9 3.1,-1.9 4.6,-2.8 l 0.4,-0.7 c 2.1,-3.9 2.7,-7.4 -2.5,-3.5 z"
         class="st7" />
      <path
         id="path156"
         d="m 297.4,217.7 c 1.6,4.5 2.6,9 2.2,12 -2.2,-0.9 -6.4,-4.4 -9,-6.4 -4.9,-4.1 -7.3,-3.8 -4.1,3.6 8.6,19.9 8.1,29.3 -11.9,6.6 l -2.2,-2.5 c 3,5.2 9.3,14.4 15.4,17 9.9,4.2 4.6,-12.7 1,-22 3.7,3.3 10.6,8.9 13.1,6.2 1.4,-1.5 1.1,-5.5 0.2,-9.6 -0.4,-1.5 -0.8,-3 -1.3,-4.5 -0.5,-1.4 -1,-2.7 -1.4,-3.9 -1.1,-1.1 -2.3,-2.2 -3.5,-3.3 -0.7,-0.6 -1.5,-1.2 -2.2,-1.8 0.5,1 1.1,2.1 1.6,3.3 0.7,1.6 1.4,3.4 2.1,5.3 z"
         class="st7" />
      <path
         id="path158"
         d="M 262.6,271.5 C 261.5,257.4 248,256.9 248,256.9 c 0.5,10.2 -0.9,21 -2.7,30.1 -1.2,6.7 -2.9,13.2 -4.9,19.7 -0.6,1.9 -1,3 -1,3 15,-21.5 24.3,-24.2 23.2,-38.2 z"
         class="st2" />
      <path
         id="path160"
         d="M 50.7,315.7 50.3,315 c -2.1,-3.8 -2.7,-7.3 2.5,-3.5 16,12 24.6,14.3 8.1,-7.3 l -1.8,-2.4 c 3.9,3.5 10.7,10.7 12,16.1 2.2,8.9 -11.1,0.9 -18.3,-4 0.8,1.2 1.7,3 2.5,4.6 9,5.4 18,9.9 25.8,13.4 13.9,9.8 6.3,15.2 5.6,16.7 -0.3,0.8 -3.2,3.8 -4.6,6.5 -0.2,0.4 -0.4,0.8 -0.5,1.1 -0.2,0.6 -0.3,1.1 -0.3,1.6 0.1,2.1 2.5,3.1 10.5,1.1 12.9,-3.3 12.5,-12 10.6,-17.7 0.1,0.1 0.2,0.1 0.2,0.2 0.1,0.1 0.3,0.2 0.4,0.3 -2.5,-5.6 -5,-11.2 -7.6,-16.7 -0.7,-1.6 -1.5,-3.3 -2.1,-5 -5,-7.2 -17.3,-20.1 -20.8,-24.1 -7.2,-8.3 -11.9,-13.7 -11,-24.8 1.1,-14.3 12.8,-18.5 18.8,-18.7 h 0.4 c 0.2,-10.5 1.5,-21 3.8,-31.2 0.2,-2.7 0.4,-5.5 0.6,-8 -1.5,1 -2.5,1.6 -2.5,1.6 0,0 -13.2,9.9 -34.2,29.1 -14.4,13.1 -29,9.5 -32.8,-3.4 -3.2,7.5 -5.3,16.3 -5.9,26.5 0.1,0.5 0.2,1 0.3,1.4 4,10.1 10.4,24 11,14.8 0.1,-2.4 0.1,-5.6 0.2,-7.8 0,-5.9 1.4,-8.4 5.2,-1.1 10.3,20 18.1,25.9 12.8,-4 L 38.7,267 c 2.2,5.7 5.5,16.3 3.7,22.5 -2.9,10.1 -12.8,-4.9 -17.9,-13.8 0.2,4.9 0.2,13.7 -3.2,13.7 -0.4,0 -0.7,0 -1,-0.1 7.7,10.2 18.9,19.1 30.4,26.4 z"
         class="st4" />
      <path
         id="path162"
         d="m 31.4,217.7 c -1.6,4.5 -2.6,9 -2.2,12 2.2,-0.9 6.4,-4.4 9,-6.4 4.9,-4.1 7.3,-3.8 4.1,3.6 -8.6,19.9 -8.1,29.3 11.9,6.6 l 2.2,-2.5 c -3,5.2 -9.3,14.4 -15.4,17 -9.9,4.2 -4.6,-12.7 -1,-22 -3.7,3.3 -10.6,8.9 -13.1,6.2 -1.4,-1.5 -1.1,-5.5 -0.2,-9.6 -4.3,5 -8.1,10.9 -11.1,17.9 3.9,12.9 18.4,16.6 32.8,3.4 21,-19.2 34.2,-29.1 34.2,-29.1 0,0 1,-0.6 2.5,-1.6 0.3,-3.9 0.5,-7 0.6,-7.8 -1.8,1.8 -8.4,9 -10.2,8.1 -0.6,-0.3 -0.1,-2.8 0.5,-7.1 -0.1,-1.1 0.1,-2.3 0.5,-3.8 0.4,-3.1 0.7,-6.8 0.8,-10.9 l -1.2,4.3 c 0,-0.2 -25.3,3.1 -44.7,21.7 z"
         class="st5" />
      <path
         id="path164"
         d="M 33.5,212.3 C 32.7,214 32,215.9 31.3,217.7 50.7,199.1 76,195.9 76,195.9 l 1.2,-4.3 c 0,-0.4 0,-0.8 0,-1.3 -0.1,0 -0.1,0 -0.2,0 -0.2,0 -0.5,0.1 -0.9,0.1 -0.4,0 -0.8,0.1 -1.4,0.2 -0.6,0.1 -1.1,0.2 -1.7,0.3 -0.3,0.1 -0.7,0.1 -1,0.2 -1,0.2 -2.2,0.5 -3.5,0.8 -0.9,0.2 -1.8,0.5 -2.7,0.7 -1,0.3 -1.9,0.6 -3,0.9 -0.5,0.2 -1,0.4 -1.6,0.5 -7.5,2.7 -16.8,7.2 -26.1,14.9 -0.5,1.1 -1,2.2 -1.6,3.4 z"
         class="st6" />
      <path
         id="path166"
         d="m 26.7,222.5 c 0.4,-1.5 0.8,-3 1.3,-4.5 0.5,-1.4 1,-2.7 1.4,-3.9 C 2.2,240.7 9.8,267 9.8,267 c 0,0 0,0 0,0 0.6,-10.2 2.7,-18.9 5.9,-26.5 2.9,-7 6.7,-13 11,-18 z"
         class="st6" />
      <path
         id="path168"
         d="m 24.4,275.6 c 5.1,8.9 15.1,23.9 17.9,13.8 1.8,-6.2 -1.5,-16.8 -3.7,-22.5 l 0.5,3.3 c 5.4,30 -2.5,24.1 -12.8,4 -3.8,-7.3 -5.2,-4.8 -5.2,1.1 0,2.2 0,5.4 -0.2,7.8 -0.6,9.2 -7,-4.8 -11,-14.8 0.2,0.8 0.4,1.7 0.6,2.5 0.5,1.7 1,3.3 1.7,4.9 0.3,0.8 0.7,1.6 1,2.4 0.2,0.5 0.5,1 0.7,1.5 0.8,1.7 1.8,3.3 2.8,4.9 0.5,0.8 1,1.6 1.6,2.4 0.5,0.8 1.1,1.6 1.7,2.3 0.3,0.1 0.7,0.1 1,0.1 3.7,0 3.6,-8.8 3.4,-13.7 z"
         class="st7" />
      <path
         id="path170"
         d="m 52.8,313.9 c 7.2,4.9 20.6,12.9 18.3,4 -1.4,-5.4 -8.1,-12.6 -12,-16.1 l 1.8,2.4 c 16.5,21.6 8,19.3 -8.1,7.3 -5.2,-3.9 -4.6,-0.4 -2.5,3.5 l 0.4,0.7 c 1.5,1 3.1,1.9 4.6,2.8 -0.8,-1.6 -1.8,-3.3 -2.5,-4.6 z"
         class="st7" />
      <path
         id="path172"
         d="m 26.7,222.5 c -1,4.2 -1.3,8.1 0.2,9.6 2.5,2.6 9.3,-3 13.1,-6.2 -3.6,9.3 -9,26.2 1,22 6.2,-2.6 12.5,-11.8 15.4,-17 l -2.2,2.5 c -20,22.7 -20.5,13.3 -11.9,-6.6 3.2,-7.5 0.8,-7.7 -4.1,-3.6 -2.6,2.1 -6.8,5.5 -9,6.4 -0.4,-3 0.6,-7.5 2.2,-12 0.6,-1.8 1.4,-3.7 2.2,-5.4 0.5,-1.1 1,-2.3 1.6,-3.3 -0.7,0.6 -1.5,1.2 -2.2,1.8 -1.2,1.1 -2.4,2.2 -3.5,3.3 -0.5,1.2 -1,2.5 -1.4,3.9 -0.6,1.6 -1,3.1 -1.4,4.6 z"
         class="st7" />
      <path
         id="path174"
         d="m 66.1,271.5 c -1.1,14.1 8.2,16.8 23.1,38.2 0,0 -9.7,-28 -8.6,-52.8 0,0 -13.4,0.5 -14.5,14.6 z"
         class="st2" />
      <path
         id="path176"
         d="m 209.5,395.1 c 0.5,0 1,0.1 1.5,0.1 0.9,0.1 1.8,0.1 2.8,0.2 -1.5,-1.1 -3.2,-2.2 -4.7,-3.2 0.1,0.5 0.1,1 0.2,1.5 0.1,0.4 0.1,0.9 0.2,1.4 z"
         class="st4" />
      <path
         id="path178"
         d="m 187,397.2 c 3.1,1.3 6.1,2.5 9.1,3.4 0,-1.4 0,-2.7 -0.1,-4 -0.6,-0.5 -1.2,-1.1 -1.4,-1.9 -2.2,-6.3 -6.3,-11.3 -11.9,-14.6 -11.2,-6.6 -27.1,-6 -37.8,1.4 12.6,11.2 28.1,20.7 30.8,20 1.7,-0.4 2,-2.7 1.9,-5.2 -4.9,-4 -10,-9 -10.9,-13.6 6.8,5.8 12.7,9.6 20.2,14.5 -0.1,0 -0.1,0 0.1,0 z"
         class="st4" />
      <path
         id="path180"
         d="m 211.2,378.3 c -0.1,0.4 -0.2,0.7 -0.3,1.1 -0.1,0.8 -0.3,1.5 -0.4,2.3 -0.5,2.7 -0.9,5.4 -1.3,8.1 0,0.2 -0.1,0.4 -0.1,0.6 8.9,1.9 25.3,5 23.5,0.9 -2.2,-4.9 -18.7,-11.9 -21.4,-13 z"
         class="st4" />
      <path
         id="path182"
         d="m 211.2,378.2 c 3.1,0.3 22.8,1.8 11,-8.1 -2.1,-1.8 -4.2,-3.7 -6.2,-5.7 -1.9,4.4 -3.7,9 -4.8,13.8 z"
         class="st4" />
      <path
         id="path184"
         d="m 89.1,427.1 c -0.9,1.3 -1.5,3.3 -2.3,4.1 0.8,-0.7 1.4,-2.8 2.3,-4.1 z"
         class="st8" />
      <path
         id="path186"
         d="m 97.2,434.2 c 0,-0.1 -0.1,-0.1 -0.1,-0.2 0,0.1 0,0.2 0.1,0.2 z"
         class="st8" />
      <path
         id="path188"
         d="m 129.4,401.7 c 0,0.4 0,0.7 0,1.1 0,-0.4 0,-0.7 0,-1.1 z"
         class="st8" />
      <path
         id="path190"
         d="m 129.9,397.3 c 0,0 0,0 0,0 -0.2,1.2 -0.3,2.3 -0.4,3.3 0.1,-1 0.2,-2.1 0.4,-3.3 z"
         class="st8" />
      <path
         id="path192"
         d="m 97.5,434.9 c -0.1,-0.1 -0.1,-0.2 -0.2,-0.4 0.1,0.2 0.1,0.3 0.2,0.4 z"
         class="st8" />
      <path
         id="path194"
         d="m 107,432.9 c -0.2,0.4 -0.4,0.8 -0.6,1.1 0.2,-0.3 0.4,-0.7 0.6,-1.1 z"
         class="st8" />
      <path
         id="path196"
         d="m 106.4,434 c -0.2,0.3 -0.4,0.7 -0.6,1 0.2,-0.3 0.4,-0.6 0.6,-1 z"
         class="st8" />
      <path
         id="path198"
         d="m 75.7,417.9 c -0.8,0.6 -1.8,0.9 -3,1 1.2,0 2.3,-0.3 3.1,-1 2,-1.7 2.9,-4.5 4.4,-4.9 1.8,-0.5 3.5,-0.9 5,-1.3 -1.6,0.4 -3.3,0.8 -5.2,1.3 -1.3,0.4 -2.2,3.4 -4.3,4.9 z"
         class="st8" />
      <path
         id="path200"
         d="m 103.5,436.5 c 0,0 0,0 0,0 0,0 0,0 0,0 1,-0.2 1.7,-0.8 2.3,-1.5 -0.6,0.7 -1.3,1.2 -2.3,1.5 z"
         class="st8" />
      <path
         id="path202"
         d="m 107.2,427.3 c 3.8,-6.8 15.5,-17.4 19.2,-20.5 2.1,-1.7 2.2,-6.1 1.8,-9.9 l -5.3,-1.4 c -0.5,-0.1 -0.9,-0.3 -1.3,-0.5 -0.3,1.1 -0.7,2.1 -1,2.7 1.3,0.5 2.3,1.3 3.2,2 -0.9,-0.2 -2.1,-0.4 -3.6,-0.5 -1.8,0 -3.2,0 -6.2,0.1 -10.9,0.5 -41.2,2.4 -45.1,14 -0.1,0.5 -0.4,0.8 -0.8,0.9 2.1,1.6 4.8,1.4 6.5,-0.3 2.6,-2.4 3.7,-4 3.7,-4 0,0 26,-4.4 29.8,-4.5 2.8,-0.1 -1.5,1.4 -4,2.3 l 0.1,-0.2 c -1.7,0.7 -15.6,7.1 -23.3,12.3 -3.5,2.4 -4.8,4.9 -4.9,7.1 1.1,1.8 2.9,3.1 5.5,2.3 5.8,-1.7 5.8,-4.4 5.8,-4.4 0,0 27.3,-15.6 27.8,-15 0.3,0.3 -0.4,0.8 -1.3,1.4 0,0 -0.1,0 -0.3,0.1 -1.8,1.9 -9.8,10.1 -14.5,15.9 -0.7,0.9 -1.3,1.8 -1.7,2.6 0,0.1 0,0.3 0,0.4 0.3,4 6.1,3.9 9.9,-2.9 z"
         class="st8" />
      <path
         id="path204"
         d="m 110.4,427.8 c 2.6,-3.2 6.6,-10.1 11.9,-14.8 -5.3,4.7 -9.3,11.6 -11.9,14.8 z"
         class="st8" />
      <path
         id="path206"
         d="m 129.4,402.8 c 0,1.5 -0.3,3.2 -2,5.5 1.7,-2.2 2,-4 2,-5.5 z"
         class="st8" />
      <path
         id="path208"
         d="m 102.6,407.9 c 1,-0.2 1.5,-0.3 1.8,-0.3 v 0 c 0,0 -0.6,0 -1.8,0.3 z"
         class="st8" />
      <path
         id="path210"
         d="m 69.6,407.8 c -1.7,1.3 -2.9,2.7 -3.3,4.2 0,0.1 0.1,0.2 0.1,0.3 0.8,-1.7 1.9,-3.2 3.2,-4.5 z"
         class="st8" />
      <path
         id="path212"
         d="m 97.6,435 c 0.9,1.3 2.8,2 5.1,1.7 -2.3,0.3 -4.2,-0.4 -5.1,-1.7 z"
         class="st8" />
      <path
         id="path214"
         d="m 108.2,405.5 c -3.8,0.1 -29.8,4.5 -29.8,4.5 0,0 -1.2,1.5 -3.7,4 -1.7,1.7 -4.4,1.9 -6.5,0.3 -0.3,0.1 -0.6,0.1 -0.9,0.1 -0.8,0 -1.3,-0.8 -1,-1.5 0.1,-0.2 0.1,-0.3 0.2,-0.5 0,-0.1 -0.1,-0.2 -0.1,-0.3 0,0 0,-0.1 -0.1,-0.1 -0.3,1 -0.3,2.2 0.3,3.5 1,2.3 3.8,3.6 6.3,3.5 1.1,0 2.2,-0.3 3,-1 2,-1.5 2.9,-4.5 4.4,-4.9 1.8,-0.5 3.6,-0.9 5.2,-1.3 9.4,-2.3 14.8,-3.4 17.4,-3.9 1.2,-0.2 1.8,-0.3 1.8,-0.3 v 0 0.1 l -0.1,0.2 c 2.1,-1 6.5,-2.5 3.6,-2.4 z"
         class="st9" />
      <path
         id="path216"
         d="m 115.3,410.1 c -0.5,-0.6 -27.8,15 -27.8,15 0,0 0,2.7 -5.8,4.4 -2.6,0.7 -4.4,-0.5 -5.5,-2.3 0,-0.1 -0.1,-0.1 -0.1,-0.2 -0.4,4.5 5,7.6 10.4,4.6 0.1,-0.1 0.2,-0.2 0.3,-0.3 0.8,-0.8 1.4,-2.9 2.3,-4.1 0.2,-0.3 0.4,-0.5 0.7,-0.7 8.6,-5.5 21.9,-13.5 23.9,-14.7 0.2,-0.1 0.3,-0.2 0.3,-0.1 0.9,-0.8 1.5,-1.3 1.3,-1.6 z"
         class="st9" />
      <path
         id="path218"
         d="m 129.4,402.8 c 0,-0.4 0,-0.7 0,-1.1 0,-0.4 0,-0.7 0.1,-1.1 0.1,-1 0.2,-2.1 0.4,-3.3 0,0 -0.1,0 -0.1,0 l -1.5,-0.4 c 0.4,3.7 0.3,8.2 -1.8,9.9 -3.7,3.1 -15.4,13.7 -19.2,20.5 -3.8,6.8 -9.6,6.9 -9.6,3.2 0,-0.1 0,-0.2 0,-0.4 0,0 0,-0.1 0,-0.1 -0.8,1.6 -0.9,3 -0.5,4.1 0,0.1 0,0.2 0.1,0.2 0,0.1 0.1,0.2 0.1,0.3 0.1,0.1 0.1,0.3 0.2,0.4 0,0 0,0 0,0 0.9,1.3 2.8,2 5.1,1.7 0.3,0 0.5,-0.1 0.8,-0.2 0,0 0,0 0.1,0 1,-0.2 1.7,-0.8 2.3,-1.5 0.2,-0.3 0.4,-0.6 0.6,-1 0.2,-0.3 0.4,-0.7 0.6,-1.1 0.7,-1.4 1.5,-3 2.9,-4.5 0.2,-0.2 0.3,-0.4 0.5,-0.6 2.6,-3.2 6.6,-10.1 11.9,-14.8 0.4,-0.3 0.8,-0.7 1.2,-1 1.8,-1.4 3,-2.6 3.9,-3.8 1.6,-2.1 1.9,-3.9 1.9,-5.4 z"
         class="st9" />
      <path
         id="path220"
         d="m 66.5,412.3 c -0.1,0.2 -0.2,0.3 -0.2,0.5 -0.3,0.8 0.3,1.5 1,1.5 0.3,0.1 0.6,0 0.9,-0.1 0.4,-0.2 0.7,-0.5 0.8,-0.9 3.8,-11.5 34.2,-13.4 45.1,-14 3.1,-0.1 4.4,-0.1 6.2,-0.1 0.7,0 1.4,0 2.3,0.1 -4.6,-1.3 -9.2,-1 -14,-0.9 -10.4,0.4 -30.4,1.1 -39,9.3 -1.3,1.4 -2.4,2.9 -3.1,4.6 z"
         class="st8" />
      <path
         id="path222"
         d="m 248.6,413.1 c -1.8,-0.5 -3.5,-0.9 -5.1,-1.3 1.6,0.4 3.2,0.8 5,1.3 1.4,0.4 2.3,3.2 4.4,4.9 0.8,0.7 1.9,1 3.1,1 -1.1,0 -2.2,-0.3 -3,-1 -2.1,-1.6 -2.9,-4.6 -4.4,-4.9 z"
         class="st8" />
      <path
         id="path224"
         d="m 206.4,413 c 5.3,4.7 9.3,11.5 11.9,14.8 -2.6,-3.2 -6.6,-10.1 -11.9,-14.8 z"
         class="st8" />
      <path
         id="path226"
         d="m 202.1,409.1 c 0.5,0.6 1.2,1.2 1.9,1.9 -0.8,-0.6 -1.4,-1.3 -1.9,-1.9 z"
         class="st8" />
      <path
         id="path228"
         d="m 223,435 c 0.6,0.7 1.3,1.3 2.3,1.5 0,0 0,0 0.1,0 0,0 0,0 -0.1,0 -1.1,-0.3 -1.8,-0.8 -2.3,-1.5 z"
         class="st8" />
      <path
         id="path230"
         d="m 226.1,436.7 c 2.3,0.3 4.1,-0.3 5.1,-1.7 -1,1.3 -2.8,2 -5.1,1.7 z"
         class="st8" />
      <path
         id="path232"
         d="m 223,435 c -0.2,-0.3 -0.4,-0.6 -0.6,-1 0.1,0.4 0.3,0.7 0.6,1 z"
         class="st8" />
      <path
         id="path234"
         d="m 231.6,434 c 0,0.1 0,0.2 -0.1,0.2 0.1,0 0.1,-0.1 0.1,-0.2 z"
         class="st8" />
      <path
         id="path236"
         d="m 231.4,434.6 c -0.1,0.1 -0.1,0.3 -0.2,0.4 0.1,-0.2 0.2,-0.3 0.2,-0.4 z"
         class="st8" />
      <path
         id="path238"
         d="m 222.3,434 c -0.2,-0.3 -0.4,-0.7 -0.6,-1.1 0.2,0.4 0.4,0.8 0.6,1.1 z"
         class="st8" />
      <path
         id="path240"
         d="m 224.3,407.6 c 0.2,0 0.8,0.1 1.8,0.3 -1.2,-0.3 -1.8,-0.3 -1.8,-0.3 z"
         class="st8" />
      <path
         id="path242"
         d="m 258.9,407.6 c 1.4,1.3 2.6,2.9 3.3,4.7 0.1,-0.1 0.1,-0.2 0.2,-0.3 -0.4,-1.6 -1.6,-3.1 -3.5,-4.4 z"
         class="st8" />
      <path
         id="path244"
         d="m 220.5,405.5 c 3.8,0.1 29.8,4.5 29.8,4.5 0,0 1.2,1.5 3.7,4 1.7,1.7 4.4,1.9 6.5,0.3 -0.4,-0.2 -0.7,-0.5 -0.8,-0.9 -3.8,-11.5 -34.2,-13.4 -45.1,-14 -4.1,-0.1 -5.2,-0.1 -8.4,0 -0.6,0.1 -1.1,0.2 -1.6,0.3 0.9,-0.8 1.9,-1.5 3.2,-2 -0.3,-0.6 -0.6,-1.5 -0.9,-2.5 -0.3,0.2 -0.6,0.3 -1,0.4 l -5.5,1.5 c -0.4,3.7 -0.3,8.1 1.8,9.8 3.7,3.1 15.4,13.7 19.2,20.5 3.8,6.8 9.6,6.9 9.6,3.2 0,-0.1 0,-0.2 0,-0.4 -0.4,-0.8 -0.9,-1.7 -1.7,-2.6 C 224.7,422 217,414 215,411.9 c -0.3,-0.2 -0.5,-0.3 -0.5,-0.3 -0.9,-0.6 -1.5,-1.2 -1.3,-1.4 0.5,-0.6 27.8,15 27.8,15 0,0 0,2.7 5.8,4.4 2.7,0.8 4.6,-0.6 5.6,-2.5 -0.1,-2.1 -1.5,-4.6 -4.8,-6.9 -7.7,-5.3 -21.6,-11.6 -23.3,-12.3 l 0.1,0.2 c -2.4,-1.2 -6.7,-2.7 -3.9,-2.6 z"
         class="st8" />
      <path
         id="path246"
         d="m 199.3,402.8 c 0,1.7 0.3,3.7 2.7,6.3 -2.3,-2.6 -2.6,-4.6 -2.7,-6.3 z"
         class="st8" />
      <path
         id="path248"
         d="m 199.3,402.8 c 0,-0.4 0,-0.7 0,-1.1 0,0.4 0,0.7 0,1.1 z"
         class="st8" />
      <path
         id="path250"
         d="m 198.8,397.4 c 0.1,1.2 0.3,2.3 0.4,3.3 -0.1,-1 -0.2,-2.1 -0.4,-3.3 0.1,0 0.1,0 0,0 z"
         class="st8" />
      <path
         id="path252"
         d="m 262.5,412.8 c 0.3,0.8 -0.3,1.5 -1,1.5 -0.3,0.1 -0.6,0 -0.9,-0.1 -2.1,1.6 -4.8,1.4 -6.5,-0.3 -2.6,-2.4 -3.7,-4 -3.7,-4 0,0 -26,-4.4 -29.8,-4.5 -2.8,-0.1 1.5,1.4 4,2.3 l -0.1,-0.2 v -0.1 0 c 0,0 0.6,0.1 1.8,0.3 2.6,0.5 8,1.6 17.4,3.9 1.6,0.4 3.3,0.8 5.1,1.3 1.4,0.4 2.3,3.3 4.4,4.9 0.8,0.6 1.8,0.9 3,1 2.5,0.1 5.3,-1.2 6.3,-3.5 0.5,-1.3 0.5,-2.4 0.3,-3.5 0,0 0,0.1 -0.1,0.1 0,0.1 -0.1,0.2 -0.2,0.3 -0.2,0.3 -0.1,0.4 0,0.6 z"
         class="st9" />
      <path
         id="path254"
         d="m 221.5,427.3 c -3.8,-6.8 -15.5,-17.4 -19.2,-20.5 -2.1,-1.7 -2.2,-6.1 -1.8,-9.8 l -1.3,0.3 c -0.1,0 -0.2,0 -0.4,0.1 0.1,1.2 0.3,2.3 0.4,3.3 0,0.4 0.1,0.7 0.1,1.1 0,0.4 0,0.7 0,1.1 0,1.7 0.3,3.7 2.7,6.3 0.5,0.6 1.2,1.2 1.9,1.9 0.4,0.3 0.8,0.7 1.2,1 0.4,0.3 0.8,0.6 1.2,1 5.3,4.7 9.3,11.5 11.9,14.8 0.2,0.2 0.4,0.4 0.5,0.6 1.4,1.5 2.2,3.1 2.9,4.5 0.2,0.4 0.4,0.8 0.6,1.1 0.2,0.3 0.4,0.7 0.6,1 0.6,0.7 1.3,1.3 2.3,1.5 0,0 0,0 0.1,0 0.3,0.1 0.5,0.1 0.8,0.2 2.3,0.3 4.1,-0.3 5.1,-1.7 0,0 0,0 0,-0.1 0.1,-0.1 0.1,-0.2 0.2,-0.4 0.1,-0.1 0.1,-0.2 0.1,-0.3 0,-0.1 0.1,-0.1 0.1,-0.2 0.4,-1.1 0.2,-2.5 -0.5,-4.1 0,0 0,0.1 0,0.1 0,0.1 0,0.3 0,0.4 0.1,3.7 -5.6,3.6 -9.5,-3.2 z"
         class="st9" />
      <path
         id="path256"
         d="m 246.9,429.4 c -5.8,-1.7 -5.8,-4.4 -5.8,-4.4 0,0 -27.3,-15.6 -27.8,-15 -0.3,0.3 0.4,0.8 1.3,1.4 0,0 0.2,0.1 0.5,0.3 2.7,1.5 15.5,9.2 23.7,14.6 1.5,1.2 2.2,4.5 3.3,5.1 5.4,2.9 10.8,-0.1 10.4,-4.6 0,0 0,0 0,0 -1.1,2 -3,3.4 -5.6,2.6 z"
         class="st9" />
      <path
         id="path258"
         d="m 214.7,399.4 c 10.9,0.5 41.2,2.4 45.1,14 0.1,0.5 0.4,0.8 0.8,0.9 0.3,0.1 0.6,0.1 0.9,0.1 0.8,0 1.3,-0.8 1,-1.5 -0.1,-0.2 -0.1,-0.3 -0.2,-0.5 -0.7,-1.8 -1.9,-3.3 -3.3,-4.7 -8.7,-8.1 -28.5,-8.7 -38.8,-9.2 -4.7,-0.1 -9.3,-0.4 -14,0.9 0.1,0 0.1,0 0.2,0 3.1,-0.2 4.2,-0.2 8.3,0 z"
         class="st8" />
      <path
         id="path260"
         d="m 146.5,375.6 c -4.6,0.4 -9.2,0.9 -13.6,1.4 8.1,-3.1 17.8,-5 27.6,-5.4 3,-0.3 6.1,-0.3 9.2,0.1 8.2,0.5 16,2 22.7,4.8 4.2,1.8 4.9,1.5 8.2,4.6 -3.2,-1.3 -5.5,-1.9 -8.7,-2.9 -2.5,-0.8 -5.2,-1.4 -7.8,-1.9 6.3,3.6 11.4,9.2 14.1,17 l 6.8,-1.8 c 0,0 0,-1 1.7,-10.6 1.3,-7.6 3.1,-12.7 13.1,-35.2 0.8,-2.7 2.2,-6.1 2.7,-7 0,-0.1 0.1,-0.2 0.1,-0.3 10.2,-18.9 7.5,-14.4 14.3,-34.1 0.1,-0.3 0.2,-0.6 0.3,-0.9 0,0.3 -0.1,0.5 -0.1,0.8 7.2,-23.3 8.8,-47.5 5.4,-70.7 -3.6,3.1 -24.2,20.3 -50.8,30.6 0.9,0.5 1.6,1.3 2,2.3 0.6,1.7 0.2,3.7 -1.2,4.9 l -2.5,2.3 c -0.7,4.6 -4.2,8.4 -6.5,10.5 -2.6,2.5 -3.1,2.6 -5.1,0.1 l -2,1.7 c 0,0 -4,3.4 -4,3.4 l -0.4,0.3 c 0.5,0.3 0.7,1 0.7,2.4 0,0.6 0,1.1 -0.1,1.7 0.2,-0.2 0.5,-0.4 0.7,-0.6 l 1.4,-1.1 c 0,0 4,-3.5 4.1,-3.5 l 3.9,-3.5 12.2,-11.2 c 1.9,-1.7 2.8,-4.1 2.6,-6.5 13.1,-5.7 24.5,-9.7 32.6,-15.1 2.6,19 1.4,43.4 -3.7,65.8 -9.6,24.2 -27.6,42.5 -54.7,48.1 -2.8,0.6 -5.2,0.6 -7.4,0.4 -2.3,0.3 -4.7,0.1 -7.4,-0.4 -27.3,-5.7 -45.4,-24.1 -54.9,-48.5 -5.1,-22.4 -6.2,-46.9 -3.6,-65.8 8.9,5.9 21.8,10.9 36.8,17 l -1.6,1.5 c -2.4,2.2 -3.2,5.6 -2.1,8.7 1.1,3.1 3.9,5.2 7.2,5.3 0,0 4.6,0.2 7.9,0.4 -0.3,-0.2 -0.5,-0.5 -0.8,-0.9 -0.8,-0.8 -1.7,-1.8 -2.6,-2.9 l -4.2,-0.2 c -1.8,-0.1 -3.4,-1.3 -4,-3 -0.6,-1.7 -0.2,-3.6 1.2,-4.8 l 7.3,-6.8 C 114,256.3 90.4,236.8 86.3,233.3 c -3.5,23.6 -1.7,48.2 5.9,71.9 5.3,14.8 5.1,13.5 14.3,33.3 0.5,1.2 2.3,5.1 2.9,7.8 9.7,21.9 11.4,26.9 12.7,34.4 1.7,9.6 1.7,10.6 1.7,10.6 l 6.8,1.8 c 2.8,-7.9 8.7,-13.9 15.9,-17.5 z"
         class="st10" />
      <path
         id="path262"
         d="m 162.3,304.4 c -0.4,-0.5 -0.9,-1 -1.4,-1.7 -2.8,2 -5.3,3.7 -7.8,5.2 -1.3,0.8 -2.7,1.2 -4.2,1.2 -2.2,0 -4.2,-0.8 -5.7,-2.4 -2.7,-2.7 -3.1,-6.7 -1.2,-9.9 1.8,-2.9 3.8,-5.9 6.2,-9.2 0.7,-0.9 1.3,-1.8 2,-2.7 0,0 0,0 -0.1,0 -1.3,1.2 -2,1.2 -3.4,-0.2 -3.3,-0.2 -7.9,-0.4 -7.9,-0.4 -3.3,-0.2 -6.1,-2.3 -7.2,-5.3 -1.1,-3.1 -0.3,-6.5 2.1,-8.7 l 1.6,-1.5 c -15,-6.1 -28,-11 -36.8,-17 -2.6,19 -1.5,43.4 3.6,65.8 9.5,24.4 27.5,42.8 54.9,48.5 2.7,0.5 5.1,0.6 7.4,0.4 2.2,0.3 4.6,0.3 7.4,-0.4 27.1,-5.6 45.1,-23.9 54.7,-48.1 5.1,-22.4 6.3,-46.8 3.7,-65.8 -8.1,5.3 -19.5,9.3 -32.6,15.1 0.2,2.4 -0.8,4.8 -2.6,6.5 l -12.3,11.2 -3.9,3.5 c 0,0 -4.1,3.5 -4.1,3.5 l -1.4,1.1 c -0.2,0.2 -0.5,0.4 -0.7,0.6 -0.6,4.6 -3.6,8.6 -5.6,10.7 -2.4,2.6 -2.7,2.6 -4.7,0 z m -3.9,29.3 c 0.4,3.5 1.9,6.7 3.8,9.3 0.1,0.3 0.5,0.6 0.8,1 0.4,-0.3 0.8,-0.8 0.9,-1 2,-2.7 3.7,-5.8 4.4,-9.1 1,-0.5 1.8,-0.1 1.8,2.4 -0.1,5.4 -3.1,9.9 -5,12.3 -2,2.6 -2.3,2.6 -4.1,-0.1 -1.8,-2.4 -4.5,-6.9 -4.1,-12.3 0.1,-2.1 0.7,-2.7 1.5,-2.5 z m -14.8,-20.8 c 0.6,3.3 2.6,6.5 4.7,9.2 0.1,0.1 0.6,0.8 1,1.2 0.4,-0.3 0.9,-0.9 1,-1.2 1.2,-1.4 2.2,-3.1 2.9,-4.7 0.6,-1.4 1.2,-2.9 1.3,-4.5 0.9,-0.3 1.5,0.4 1.7,2.6 0.3,5.4 -2.7,10 -4.6,12.4 -2,2.6 -2.3,2.7 -4.6,0 -2.2,-2.4 -5.2,-7 -5.2,-12.4 0.1,-2.5 0.7,-3 1.8,-2.6 z m -18.7,-23.3 c 0.9,3.5 3.2,6.7 5.6,9.1 0.3,0.3 1,1.2 1.4,1.4 0.4,-0.3 1,-1 1.2,-1.3 2,-2.7 3.8,-5.9 4,-9.3 0.8,0 1.3,0.8 1.5,2.6 0.8,5.4 -2.2,10 -4.2,12.4 -2,2.6 -2.3,2.6 -5,0 -2.4,-2.4 -6.1,-7 -6.4,-12.4 -0.2,-2.5 0.7,-3.1 1.9,-2.5 z m -16.3,-25.4 c 1.2,3.2 3.7,6 6.1,8.2 0.3,0.3 1.3,1.2 1.8,1.4 0.4,-0.3 1,-1 1.3,-1.3 2,-2.3 3.7,-5.2 3.8,-8.4 0.6,0.3 1.2,0.9 1.4,2.4 0.9,5.1 -2,9.3 -4.1,11.8 -2.2,2.4 -2.4,2.6 -5.4,0 -2.6,-2.3 -6.8,-6.7 -7.2,-11.8 0,-2.4 0.9,-2.8 2.3,-2.3 z m 15.8,63.6 c -1.8,2.6 -2,2.7 -4.5,0.1 -2.3,-2.4 -6,-7 -6.5,-12.4 -0.4,-2.8 0.6,-3.1 2,-2.2 1,3.3 3.3,6.4 5.6,8.8 0.3,0.3 0.9,0.9 1.3,1.3 0.3,-0.4 0.6,-0.9 0.8,-1.2 1.9,-2.8 3.2,-6.1 3.2,-9.5 0.6,0.1 1.2,0.9 1.4,2.6 0.8,5.5 -1.7,10.1 -3.3,12.5 z m 9.2,21 c -2.2,-2.4 -5.4,-6.9 -5.6,-12.3 -0.1,-2.7 0.8,-2.9 1.9,-2.2 0.9,3.2 2.7,6.3 4.9,8.8 0.1,0.1 0.5,0.6 0.9,1 0.3,-0.4 0.5,-0.8 0.6,-1 1.9,-2.8 3.2,-6 3.3,-9.3 0.8,-0.1 1.3,0.5 1.5,2.6 0.6,5.4 -1.8,9.9 -3.5,12.3 -1.7,2.5 -1.8,2.5 -4,0.1 z m 58.9,-0.1 c -2.4,2.6 -2.7,2.6 -4,-0.1 -1.5,-2.4 -3.7,-6.9 -2.7,-12.3 0.3,-1.7 0.8,-2.4 1.3,-2.6 -0.1,3.3 0.9,6.7 2.7,9.5 0.1,0.3 0.3,0.6 0.5,0.9 0.4,-0.4 0.8,-0.9 1,-1.2 2.2,-2.4 4.2,-5.2 5.2,-8.4 1.5,-1.2 2.7,-1.2 2.3,1.9 -0.6,5.4 -4.2,9.9 -6.3,12.3 z m 21.3,-33.3 c -0.9,5.4 -4.7,9.9 -7.3,12.4 -2.6,2.6 -2.8,2.7 -4.6,0 -1.5,-2.4 -3.7,-7 -2.4,-12.4 0.4,-1.4 0.8,-2.2 1.3,-2.4 -0.3,3.2 0.8,6.5 2.6,9.3 0.1,0.3 0.4,0.6 0.6,1 0.5,-0.4 1.2,-1 1.4,-1.3 2.3,-2.4 4.7,-5.4 6,-8.6 1.7,-1.1 2.9,-1.1 2.4,2 z M 207,266.5 c 0.4,-1.3 0.8,-2 1.3,-2.3 -0.1,3.1 1.4,6 3.3,8.4 0.1,0.1 0.8,0.9 1,1.2 0.5,-0.1 1.7,-1.2 1.9,-1.4 2.4,-2 5.1,-4.9 6.5,-7.9 1.7,-0.8 2.8,-0.6 2.4,2 -0.8,5.1 -5.1,9.3 -7.9,11.8 -2.9,2.4 -3.3,2.6 -5.2,0 -1.8,-2.3 -4.5,-6.7 -3.3,-11.8 z M 191.2,292 c 0.4,-1.5 0.9,-2.3 1.4,-2.6 -0.1,3.3 1.3,6.7 3.3,9.3 0.1,0.1 0.6,0.9 0.9,1.2 0.5,-0.3 1.4,-1.2 1.7,-1.4 2.4,-2.4 5,-5.5 6.1,-8.8 1.4,-0.8 2.4,-0.4 2.2,2.3 -0.5,5.4 -4.6,10 -7.2,12.4 -2.7,2.6 -3.1,2.6 -5,0 -1.8,-2.4 -4.4,-7 -3.4,-12.4 z M 171,315.3 c 0.3,-1.8 0.9,-2.6 1.5,-2.6 0.1,3.5 1.5,6.7 3.6,9.5 0.3,0.3 0.6,0.8 0.9,1.2 0.4,-0.4 0.9,-1 1.2,-1.3 2.3,-2.4 4.4,-5.6 5.2,-9 1.2,-0.6 2,-0.3 1.9,2.3 -0.3,5.4 -3.7,9.9 -6,12.4 -2.3,2.6 -2.7,2.7 -4.5,-0.1 -1.8,-2.4 -4.5,-7 -3.8,-12.4 z"
         class="st11" />
      <path
         id="path264"
         d="m 153.1,249.8 v 0.1 l -5.1,-0.8 c -0.7,-0.1 -5.6,-1.1 -13.1,-7.8 l -0.4,3.6 c -0.1,0.6 -0.3,1.2 -0.6,1.6 0.5,0.4 1.1,0.7 1.6,1.1 6.2,4.1 12.3,7.6 17.4,10.3 1.3,-1.1 2.5,-2.1 3.7,-3.1 z"
         class="st10" />
      <path
         id="path266"
         d="m 193.3,247.6 c 6.2,-4.1 11.7,-8.3 16.3,-12.4 -9,6.3 -15.8,9.5 -16.2,9.8 l -8.5,4 2.7,-6.3 c -3.3,2.8 -5.6,4.7 -5.7,4.9 l -0.7,0.6 c -1.5,2.5 -3.3,5 -5.3,7.8 -0.9,1.2 -1.7,2.3 -2.6,3.5 5.5,-3.1 12.7,-7.1 20,-11.9 z"
         class="st10" />
      <path
         id="path268"
         d="m 150.1,285 c 0,0 0.1,0 0,0 -0.6,0.9 -1.3,1.8 -2,2.7 -2.4,3.3 -4.4,6.3 -6.2,9.2 -2,3.2 -1.5,7.3 1.2,9.9 1.5,1.5 3.6,2.4 5.7,2.4 1.5,0 2.9,-0.4 4.2,-1.2 2.5,-1.5 5.1,-3.2 7.8,-5.2 -0.7,-0.9 -1.3,-1.9 -1.9,-3.1 -2.8,2 -5.3,3.7 -7.8,5.2 -0.7,0.4 -1.5,0.7 -2.3,0.7 -1.2,0 -2.3,-0.4 -3.2,-1.3 -1.5,-1.5 -1.7,-3.8 -0.7,-5.5 1.7,-2.8 3.7,-5.7 6,-8.9 2,-2.8 4.1,-5.5 6.3,-8.2 -0.1,0 -0.8,0 -0.8,0 -1.1,0 -2.2,-0.1 -3.3,-0.1 -0.7,0.9 -1.4,1.8 -2.1,2.4 -0.3,0.3 -0.6,0.7 -0.9,1 z"
         class="st10" />
      <path
         id="path270"
         d="m 164.4,300.1 c 0.5,-0.4 1.2,-1.2 1.4,-1.4 2,-2.3 4,-5 4.8,-8 -0.8,0.6 -1.5,1.2 -2.3,1.9 -2,1.7 -4.1,3.3 -6.3,4.8 0.4,0.5 0.7,1 1.1,1.4 0.3,0.2 0.9,1 1.3,1.3 z"
         class="st10" />
      <path
         id="path272"
         d="m 113.6,278.3 c 2.9,2.6 3.2,2.4 5.4,0 2,-2.4 5,-6.7 4.1,-11.8 -0.3,-1.5 -0.8,-2.2 -1.4,-2.4 -0.1,3.2 -1.8,6.1 -3.8,8.4 -0.3,0.3 -0.9,1 -1.3,1.3 -0.5,-0.3 -1.5,-1.2 -1.8,-1.4 -2.4,-2.2 -5,-5 -6.1,-8.2 -1.4,-0.5 -2.3,-0.1 -2.2,2.3 0.3,5.1 4.6,9.5 7.1,11.8 z"
         class="st5" />
      <path
         id="path274"
         d="m 145.9,283.9 c 0.3,0.3 0.6,0.6 0.8,0.9 1.4,1.3 2,1.4 3.4,0.2 0.3,-0.3 0.6,-0.6 1,-1 0.6,-0.7 1.4,-1.5 2.1,-2.4 -1,0 -2,-0.1 -3,-0.1 l -7,-0.4 c 0.9,1.1 1.9,2.1 2.7,2.8 z"
         class="st5" />
      <path
         id="path276"
         d="m 183.5,283.9 c 2.3,-2.1 5.9,-5.9 6.5,-10.5 l -9.8,8.9 -1.9,1.7 c 2.1,2.5 2.6,2.4 5.2,-0.1 z"
         class="st5" />
      <path
         id="path278"
         d="m 215.6,278.3 c 2.8,-2.4 7.2,-6.7 7.9,-11.8 0.4,-2.7 -0.8,-2.8 -2.4,-2 -1.4,3.1 -4.1,5.9 -6.5,7.9 -0.3,0.3 -1.4,1.3 -1.9,1.4 -0.3,-0.3 -0.9,-1 -1,-1.2 -1.9,-2.4 -3.5,-5.4 -3.3,-8.4 -0.5,0.3 -0.9,1 -1.3,2.3 -1.3,5.1 1.4,9.5 3.3,11.8 1.9,2.6 2.3,2.4 5.2,0 z"
         class="st5" />
      <path
         id="path280"
         d="m 123,292 c 0.3,5.4 4,10 6.4,12.4 2.7,2.6 2.9,2.6 5,0 2,-2.4 5,-7 4.2,-12.4 -0.3,-1.8 -0.8,-2.6 -1.5,-2.6 -0.1,3.5 -1.9,6.7 -4,9.3 -0.1,0.3 -0.8,1 -1.2,1.3 -0.4,-0.3 -1.2,-1.2 -1.4,-1.4 -2.4,-2.4 -4.7,-5.6 -5.6,-9.1 -1.2,-0.5 -2.1,0.1 -1.9,2.5 z"
         class="st5" />
      <path
         id="path282"
         d="m 162.3,304.4 c 2,2.6 2.3,2.6 4.7,0 2.1,-2.2 5,-6.1 5.6,-10.7 0.1,-0.6 0.1,-1.1 0.1,-1.7 0,-1.4 -0.3,-2.1 -0.7,-2.4 l -1,0.8 c -0.1,0.1 -0.2,0.2 -0.4,0.3 -0.9,3 -2.8,5.7 -4.8,8 -0.3,0.3 -0.9,1 -1.4,1.4 -0.4,-0.3 -1,-1 -1.2,-1.3 -0.4,-0.4 -0.8,-0.9 -1.1,-1.4 -0.7,0.5 -1.4,1 -2,1.5 -0.4,0.3 -0.7,0.5 -1.1,0.8 0.6,1.1 1.2,2.2 1.9,3.1 0.5,0.6 0.9,1.1 1.4,1.6 z"
         class="st5" />
      <path
         id="path284"
         d="m 199.6,304.4 c 2.6,-2.4 6.7,-7 7.2,-12.4 0.3,-2.7 -0.8,-3.1 -2.2,-2.3 -1.2,3.3 -3.7,6.4 -6.1,8.8 -0.3,0.3 -1.2,1.2 -1.7,1.4 -0.3,-0.3 -0.8,-1 -0.9,-1.2 -2,-2.7 -3.5,-6 -3.3,-9.3 -0.5,0.3 -1,1 -1.4,2.6 -1,5.4 1.7,10 3.5,12.4 1.9,2.6 2.2,2.6 4.9,0 z"
         class="st5" />
      <path
         id="path286"
         d="m 126.3,312.9 c 0,3.3 -1.3,6.7 -3.2,9.5 -0.1,0.3 -0.5,0.8 -0.8,1.2 -0.4,-0.4 -1,-1 -1.3,-1.3 -2.3,-2.4 -4.6,-5.5 -5.6,-8.8 -1.4,-0.9 -2.4,-0.6 -2,2.2 0.5,5.4 4.2,10 6.5,12.4 2.4,2.6 2.7,2.4 4.5,-0.1 1.7,-2.4 4.1,-7 3.3,-12.4 -0.3,-1.9 -0.8,-2.6 -1.4,-2.7 z"
         class="st5" />
      <path
         id="path288"
         d="m 151.6,327.8 c 1.9,-2.4 4.9,-7 4.6,-12.4 -0.1,-2.2 -0.8,-2.8 -1.7,-2.6 -0.1,1.5 -0.6,3.1 -1.3,4.5 -0.8,1.7 -1.8,3.3 -2.9,4.7 -0.1,0.3 -0.6,0.9 -1,1.2 -0.4,-0.4 -0.9,-1 -1,-1.2 -2.2,-2.7 -4.1,-5.9 -4.7,-9.2 -1,-0.4 -1.7,0.1 -1.8,2.6 0,5.4 3.1,10 5.2,12.4 2.3,2.7 2.6,2.6 4.6,0 z"
         class="st5" />
      <path
         id="path290"
         d="m 179.3,327.8 c 2.3,-2.6 5.8,-7 6,-12.4 0.1,-2.6 -0.8,-2.9 -1.9,-2.3 -0.9,3.3 -2.9,6.5 -5.2,9 -0.3,0.3 -0.8,0.9 -1.2,1.3 -0.3,-0.4 -0.6,-0.9 -0.9,-1.2 -2,-2.8 -3.5,-6 -3.6,-9.5 -0.6,0 -1.3,0.8 -1.5,2.6 -0.6,5.4 2,10 3.8,12.4 1.8,2.8 2.2,2.7 4.5,0.1 z"
         class="st5" />
      <path
         id="path292"
         d="m 211.4,313.5 c -1.3,3.2 -3.7,6.1 -6,8.6 -0.3,0.3 -0.9,0.9 -1.4,1.3 -0.3,-0.4 -0.5,-0.8 -0.6,-1 -1.8,-2.8 -2.8,-6.1 -2.6,-9.3 -0.5,0.3 -0.9,1 -1.3,2.4 -1.3,5.4 0.9,10 2.4,12.4 1.8,2.7 2,2.6 4.6,0 2.6,-2.6 6.4,-7 7.3,-12.4 0.5,-3.2 -0.7,-3.2 -2.4,-2 z"
         class="st5" />
      <path
         id="path294"
         d="m 137.7,348.7 c 1.7,-2.4 4.1,-6.9 3.5,-12.3 -0.3,-2 -0.8,-2.7 -1.5,-2.6 -0.1,3.3 -1.4,6.5 -3.3,9.3 -0.1,0.3 -0.4,0.6 -0.6,1 -0.4,-0.4 -0.8,-0.9 -0.9,-1 -2.2,-2.6 -4,-5.6 -4.9,-8.8 -1.2,-0.8 -2,-0.5 -1.9,2.2 0.3,5.4 3.5,9.9 5.6,12.3 2.1,2.4 2.2,2.4 4,-0.1 z"
         class="st5" />
      <path
         id="path296"
         d="m 156.9,336.3 c -0.4,5.4 2.3,9.9 4.1,12.3 1.8,2.7 2,2.7 4.1,0.1 1.9,-2.4 4.9,-6.9 5,-12.3 0,-2.6 -0.8,-2.9 -1.8,-2.4 -0.6,3.3 -2.3,6.4 -4.4,9.1 -0.1,0.3 -0.5,0.8 -0.9,1 -0.3,-0.4 -0.6,-0.8 -0.8,-1 -1.9,-2.7 -3.5,-5.9 -3.8,-9.3 -0.8,-0.3 -1.4,0.3 -1.5,2.5 z"
         class="st5" />
      <path
         id="path298"
         d="m 196.6,334.5 c -1,3.2 -3.1,6 -5.2,8.4 -0.3,0.3 -0.6,0.8 -1,1.2 -0.3,-0.3 -0.4,-0.6 -0.5,-0.9 -1.8,-2.8 -2.8,-6.1 -2.7,-9.5 -0.5,0.1 -1,0.9 -1.3,2.6 -1,5.4 1.2,9.9 2.7,12.3 1.3,2.7 1.5,2.7 4,0.1 2.2,-2.4 5.8,-6.9 6.4,-12.3 0.2,-3.1 -0.9,-3.1 -2.4,-1.9 z"
         class="st5" />
      <path
         id="path302"
         d="m 90.4,232.1 c -0.5,-0.4 -1,-0.8 -1.5,-1.2 0.5,0.3 0.9,0.7 1.5,1.2 z"
         class="st2" />
      <path
         id="path304"
         d="m 147.4,262.7 -0.8,0.7 c 0,0 0,0 0,0 1.1,-1 2.2,-2 3.4,-3 -13.9,-7.5 -34.5,-20.4 -45.2,-35.7 -0.8,-0.7 -1.5,-1.3 -2.2,-2 -2.5,1.8 -5.2,3.5 -7.8,5 v 0 c 0,0 22.9,25.3 52.6,35 z"
         class="st2" />
      <path
         id="path306"
         d="m 235.6,234.3 c 3.2,-2.5 5,-4.1 5,-4.1 -1.7,1.4 -3.3,2.8 -5,4.1 z"
         class="st2" />
      <path
         id="path308"
         d="m 235,227.1 v 0 c -3.1,-1.2 -6.5,-2.9 -9.4,-4.9 -11.3,18.3 -37.5,33.5 -51.6,40.7 0.6,0 1.2,0 1.8,0 l 2,0.1 h 1.4 c 29.6,-9.6 55.8,-35.9 55.8,-35.9 z"
         class="st2" />
      <path
         id="path310"
         d="m 146.6,263.4 v 0 l 0.8,-0.7 c -29.6,-9.7 -52.6,-35 -52.6,-35 v 0 c -2.1,1.2 -4.1,2.3 -5.8,3.2 v 0 0 c 0,0 0,0 0,0 0.5,0.4 1,0.8 1.5,1.2 30,25 56.1,31.3 56.1,31.3 z"
         class="st3" />
      <path
         id="path312"
         d="m 240.1,228.8 v 0 c -0.3,-0.1 -0.6,-0.1 -0.8,-0.2 -1.3,-0.4 -2.8,-0.9 -4.3,-1.5 v 0 c 0,0 -26.1,26.3 -55.7,36 l 4.1,0.1 c 0,0 23.8,-6.3 52.3,-28.9 1.6,-1.3 3.3,-2.7 5,-4.1 z"
         class="st3" />
      <path
         id="path314"
         d="m 130.2,244.6 c -1.5,-0.7 -5,-3.6 -9.4,-7.7 4.5,4.2 8,7 9.4,7.7 z"
         class="st11" />
      <path
         id="path316"
         d="m 120.8,236.8 c -0.1,-0.1 -0.1,-0.1 -0.2,-0.2 0.1,0.1 0.1,0.1 0.2,0.2 z"
         class="st11" />
      <path
         id="path318"
         d="m 76.2,163.4 c 0.3,-3.2 0.6,-6.5 1.5,-10.6 0.4,19.7 3.2,25.1 3.2,37.7 0,-12.7 -2.8,-18 -3.2,-37.8 -0.9,4.1 -1.3,7.4 -1.5,10.6 l -9.6,3.4 c -0.3,0.2 -0.5,0.3 -0.5,0.3 z"
         class="st11" />
      <path
         id="path320"
         d="m 252.6,139.4 c 0,-0.1 -0.1,-0.1 -0.1,-0.2 0,0.1 0,0.2 0,0.3 -0.5,10.2 6.9,22.7 10,27.3 0,0.1 -8.9,-3.1 -10.2,-3.7 0,0 0,0.1 0,0.1 0.9,0.4 10.4,3.8 10.4,3.7 -3.1,-4.6 -10.5,-17 -10,-27.3 0,-0.8 0,-1.7 0,-2.6 0,0.9 -0.1,1.7 -0.1,2.4 z"
         class="st11" />
      <path
         id="path322"
         d="m 138.6,153.4 c 0.9,-0.1 2.6,-0.3 3.6,-0.5 4.1,-2.7 9.6,-11 12,-15 2.6,-4 6.3,-9.5 11.5,-9.5 5.2,0 9,5.5 11.4,9.6 1.8,2.9 3.3,6.1 5,9.1 0.8,1.3 2.2,3.8 3.6,4.5 0.6,0.3 3.1,0.1 3.8,0.1 2.5,0 5,0.3 7.1,1.5 0,-1.1 0.1,-2.2 0.1,-3.3 -1.6,-2.8 -2.3,-6.3 -1.4,-10.4 0,-1.8 0.2,-3.5 0.6,-5.3 -0.5,-13.6 -18.1,-16.9 -31.7,-17.1 -17.4,-0.3 -29.1,14.5 -28.2,21.1 0.1,0.8 0.1,1.4 0.1,2 0,2.2 -0.2,4.3 -0.7,6.4 l -0.6,1.5 c 0.1,1.9 0.2,3.9 0.2,5.8 1.1,-0.2 2.4,-0.3 3.6,-0.5 z"
         class="st11" />
      <path
         id="path324"
         d="m 248.3,188.1 c 0.1,9.5 1,17 1,17.4 l 0.1,0.2 c 0,0 -0.9,-7.7 -1,-17.4 -1.3,-11.1 2,-30.3 3.1,-35.5 0,-0.2 0,-0.3 -0.1,-0.5 -1,4.7 -4.4,24.4 -3.1,35.8 z"
         class="st11" />
      <path
         id="path326"
         d="m 103,217.9 c -5.2,4.2 -14,6.9 -14.1,6.9 0,0 0,0.1 0,0.1 0,0 8.8,-2.7 14.1,-6.9 3.3,3.9 6.8,7.7 10,11.1 -3.3,-3.4 -6.7,-7.2 -10,-11.2 z"
         class="st11" />
      <path
         id="path328"
         d="m 240.3,224.8 c 0,0 -10.1,-3.1 -15.1,-7.8 -5,5.1 -10.1,9.3 -14.8,12.9 6.7,-9.3 12.3,-18.2 12.2,-18.2 l 11.1,5.2 -0.5,-37.9 10.6,13.4 c 0,0 -0.6,-5.2 0.4,-21.9 0.8,-12.6 5.5,-22.4 7.5,-32.7 -3.4,-4.5 -8.4,-5.7 -13.9,2 -1.8,2.5 -4,4.8 -6.3,6.9 3.7,31.1 1.2,74.9 -17.5,61.5 -10.9,-7.8 -16.1,-25.5 -17.2,-44.2 -2.6,1.6 -6.1,2.3 -8.6,2.9 -10.2,2.4 -13.1,11.1 -19.8,17.7 l -2.9,2.7 -2.7,-2.8 c -5.8,-6.1 -12.5,-16.8 -21.6,-17.7 -2.2,-0.2 -4.5,-0.5 -6.6,-0.9 -1.3,18.1 -6.5,34.9 -17.1,42.4 -19.5,14.1 -21.4,-34.4 -17,-65.6 -3.1,-3.2 -6,-7.1 -8.5,-11.5 -8.5,-15 -12.1,-8.1 -14.9,7.1 2,10.1 6.7,19.8 7.5,32.3 1,16.6 0.4,21.9 0.4,21.9 l 10.6,-13.4 -0.5,37.9 11.1,-5.2 c 0,0 13.5,21.7 24.2,32.9 0.3,0.1 0.5,0.1 0.5,-0.1 l 1.3,-11.1 c 9.9,11.1 16.4,12.2 16.4,12.2 l -2.4,-12 13.3,19.1 c 2.3,-1.8 4.7,-3.7 7.5,-5.7 3,-2.2 5.8,-4.1 8.4,-5.7 0.6,-0.4 1.3,-0.6 1.9,-0.6 l 4.2,-5.5 -1.3,6.3 c 0.2,0.2 0.4,0.3 0.6,0.5 0.3,0.3 0.6,0.7 0.8,1.1 3.3,-2.7 9.8,-8.4 15.7,-14.3 l -5.5,13.1 c 0,0 17.5,-8.2 33.5,-24.6 5,4.7 15.1,7.8 15.1,7.8 -0.1,-3.1 -3.5,-33.4 -3.2,-34.4 l -0.1,-0.2 c -0.4,0.4 3.1,31.1 3.2,34.2 z m -51.9,-2.2 c -1.5,-2.4 -3.7,-6.9 -2.7,-12.3 0.3,-1.7 0.8,-2.4 1.3,-2.5 0,3.1 1,6.2 2.7,8.9 0.1,0.1 0.4,0.5 0.5,0.9 0.4,-0.4 0.9,-0.9 1,-1.2 2,-2.2 3.9,-4.9 5,-7.7 1.7,-1.4 3.1,-1.8 2.7,1.5 -0.6,5.4 -4.2,9.9 -6.4,12.3 -2.5,2.7 -2.7,2.8 -4.1,0.1 z m -27.4,8.9 c -1.8,-2.4 -4.5,-6.9 -4.1,-12.3 0.2,-2.1 0.7,-2.7 1.5,-2.5 0.4,3.2 1.9,6.2 3.7,8.7 0.1,0.1 0.5,0.6 0.8,1 0.4,-0.4 0.8,-0.9 0.9,-1 2,-2.4 3.6,-5.3 4.3,-8.4 1.1,-0.7 2,-0.5 2,2.2 -0.1,5.4 -3.1,9.9 -5,12.3 -2.1,2.5 -2.3,2.5 -4.1,0 z m -30.8,-23.2 c 0.9,3.1 2.7,5.9 4.7,8.3 0.1,0.3 0.6,0.8 0.9,1 0.3,-0.4 0.5,-0.8 0.6,-1 1.7,-2.7 3.1,-5.7 3.3,-8.8 0.7,-0.1 1.3,0.6 1.5,2.6 0.6,5.4 -1.8,9.9 -3.5,12.3 -1.8,2.6 -1.9,2.6 -4.1,0 -2.2,-2.4 -5.4,-6.9 -5.6,-12.3 -0.2,-3 0.8,-3.1 2.2,-2.1 z"
         class="st11" />
      <path
         id="path330"
         d="m 91.2,193.6 -11.3,12 c -0.3,0.3 -0.5,0.3 -0.5,0 0,0.4 0.1,0.5 0.5,0.1 l 11.3,-12 c 0.1,1.2 0.1,2.4 0.1,3.7 0.1,-1.3 0,-2.6 -0.1,-3.8 z"
         class="st11" />
      <path
         id="path332"
         d="m 262.5,166.8 c -3.1,-4.6 -10.5,-17 -10,-27.3 0,-0.1 0,-0.2 0,-0.3 -0.3,-0.4 -0.6,-0.9 -0.9,-1.3 -1.9,10.3 -6.7,20 -7.5,32.7 -1,16.6 -0.4,21.9 -0.4,21.9 l -10.6,-13.4 0.5,37.9 -11.1,-5.2 c 0.1,0 -5.5,8.8 -12.2,18.2 4.7,-3.6 9.9,-7.8 14.8,-12.9 5,4.7 15.1,7.8 15.1,7.8 -0.1,-3.1 -3.6,-33.8 -3.2,-34.4 l 0.1,0.2 12,14.9 c 0,0 0,0 0,0 0,-0.4 -0.9,-7.9 -1,-17.4 -1.3,-11.4 2.2,-31.1 3.2,-35.8 0,0.2 0,0.3 0.1,0.5 0.5,3.4 0.7,6.9 0.6,10.4 0,0 0.1,0 0.1,0.1 1.5,0.3 10.4,3.5 10.4,3.4 z"
         class="st10" />
      <path
         id="path334"
         d="m 76.2,163.2 c 0.3,-3.2 0.6,-6.5 1.5,-10.6 0.4,19.8 3.2,25.1 3.2,37.8 0,2.9 -0.2,6.2 -0.5,10.2 -0.1,1.2 -1.1,4.1 -1,5 0,0.3 0.2,0.3 0.5,0 l 11.3,-12 c 0.1,1.2 0.1,2.5 0.1,3.8 0,9.2 -2.2,20.9 -2.4,27.4 0,0 0,0 0,0 0.1,0 8.8,-2.7 14.1,-6.9 3.3,4 6.7,7.8 10,11.2 2.7,2.8 5.2,5.3 7.6,7.5 0.1,0.1 0.1,0.1 0.2,0.2 0,0 0,0 0,0 4.4,4.2 7.9,7 9.4,7.7 0,0 0.1,0.1 0.1,0.1 0,0 0,0 0,0 -10.6,-11.1 -24.2,-32.9 -24.2,-32.9 l -11,5.3 0.5,-37.9 -10.6,13.4 c 0,0 0.6,-5.2 -0.4,-21.9 -0.7,-12.5 -5.5,-22.2 -7.5,-32.3 -0.7,3.8 -1.4,8.2 -2,12.8 L 75,151 c 0.2,-1.2 0.5,-2.5 0.6,-3.9 -2.2,16 -9.5,19.6 -9.5,19.6 l 0.5,-0.2 z"
         class="st10" />
      <path
         id="path336"
         d="m 135.9,138.3 c -0.9,-6.7 10.8,-21.4 28.2,-21.1 13.7,0.2 31.3,3.5 31.7,17.1 1.2,-6.7 4.4,-13.1 8.6,-17.7 0.9,-1 1.8,-1.9 2.8,-2.7 -4.5,0.5 -9.1,1 -13.6,1.3 -9.3,0.6 -18.7,1 -28,1 -9.3,0 -18.7,-0.3 -28,-1 -4.5,-0.3 -9.1,-0.8 -13.6,-1.3 1,0.9 2,1.8 2.8,2.7 5.4,6 9.1,15 9.1,23.8 0.1,-0.7 0.1,-1.4 0,-2.1 z"
         class="st5" />
      <path
         id="path338"
         d="m 196.7,149.9 c 0,1.1 -0.1,2.2 -0.1,3.3 1.1,0.6 2,1.5 2.7,2.7 0.6,1.2 1,2.4 0.8,3.8 -0.3,1.9 -1.6,3.3 -3.2,4.3 1.1,18.7 6.3,36.4 17.2,44.2 18.6,13.4 21.2,-30.4 17.5,-61.5 2.3,-2.1 4.5,-4.3 6.3,-6.9 5.5,-7.7 10.4,-6.5 13.9,-2 0.3,0.4 0.6,0.8 0.9,1.3 0,0.1 0.1,0.1 0.1,0.2 0,-0.8 0,-1.6 0,-2.4 0,-10.1 -2.6,-24 -7.3,-34.5 -3.7,3.3 -9.7,5.6 -15.4,7.2 1.2,0.7 2.3,1.5 3.3,2.6 5.5,5.9 4.6,12 3.3,19.3 -2,-9.1 -4.1,-18.5 -13.2,-17.7 5.3,7 7,14.2 6.3,20.7 0.4,-0.2 0.8,-0.3 1.3,-0.2 1,0.1 1.7,1.2 1.4,2 -3.2,11.1 -10.9,24.8 -24.7,21 -1.4,-0.4 -2.6,-1 -3.6,-1.6 -2.2,-0.7 -4.2,-1.8 -5.4,-3.6 0,0.5 0,1.1 0,1.5 l -2.7,-7 c -0.5,-2.3 -0.7,-4.8 -0.7,-7.2 -1.1,4.3 -0.3,7.7 1.3,10.5 z"
         class="st5" />
      <path
         id="path340"
         d="m 75,151.1 0.1,0.1 c 0.7,-4.7 1.3,-9 2,-12.8 2.8,-15.3 6.4,-22.2 14.9,-7.1 2.5,4.4 5.4,8.2 8.5,11.5 -4.4,31.1 -2.5,79.6 17,65.6 10.5,-7.6 15.7,-24.3 17.1,-42.4 -0.1,0 -0.3,-0.1 -0.4,-0.1 -2.3,-0.6 -4.4,-1.8 -4.9,-4.4 -0.4,-2.2 0.6,-3.7 1.9,-5.2 0.9,-1.1 2.3,-1.7 3.7,-2.1 0,-2 -0.1,-3.9 -0.2,-5.8 l -2.1,5.5 c 0,-0.4 0,-0.9 0,-1.4 -1.1,1.4 -2.7,2.5 -4.5,3.1 -1.1,0.8 -2.4,1.4 -4.1,1.9 -13.8,3.8 -21.5,-9.9 -24.7,-21 -0.3,-0.9 0.4,-1.9 1.4,-2 0.3,-0.1 0.6,-0.1 0.9,0 -0.6,-6.5 1.1,-13.7 6.3,-20.5 -9.3,-0.9 -11.3,8.6 -13.4,17.7 -1.3,-7.3 -2.2,-13.4 3.3,-19.3 1,-1.1 2.1,-1.9 3.3,-2.6 -6.1,-1.7 -12.5,-4.1 -16.1,-7.9 -1.6,3.1 -3,6.6 -4.3,10.2 -0.2,0.5 -0.3,0.9 -0.5,1.4 -0.3,0.9 -0.6,1.8 -0.9,2.8 -0.7,2.3 -1.3,4.6 -1.8,6.7 -0.4,1.7 -0.7,3.4 -1,4.9 -0.4,2.3 -0.5,4.4 -0.4,6 0.2,5.2 0,9.6 -0.5,13.4 -0.2,1.3 -0.4,2.6 -0.6,3.8 z"
         class="st5" />
      <path
         id="path342"
         d="m 215.4,155.3 c -0.1,0 -0.1,0 -0.2,0.1 2.2,-0.7 4.1,-1.9 5.7,-3.6 -1.7,1.5 -3.6,2.7 -5.5,3.5 z"
         class="st5" />
      <path
         id="path344"
         d="m 123.2,124.3 c -1.8,0.9 -1.9,4.5 -0.3,8.2 1.7,3.7 4.5,6 6.3,5.2 1.8,-0.8 1.9,-4.5 0.3,-8.2 -1.7,-3.6 -4.5,-5.9 -6.3,-5.2 z"
         class="st12" />
      <path
         id="path346"
         d="m 201.7,137.8 c 1.8,0.8 4.6,-1.5 6.3,-5.2 1.7,-3.7 1.5,-7.3 -0.3,-8.2 -1.8,-0.8 -4.6,1.5 -6.3,5.2 -1.6,3.7 -1.5,7.4 0.3,8.2 z"
         class="st12" />
      <path
         id="path348"
         d="m 243.9,87.8 c 0,0.1 0,0.2 0,0.2 0.1,-0.1 0,-0.1 0,-0.2 z"
         class="st9" />
      <path
         id="path350"
         d="m 134,70.1 c 4.3,-8.7 0.5,-25.6 -6.4,-38.4 -2,1 -4,2 -5.9,3.1 3,8 9.8,26.1 8.2,27 l -0.7,0.4 -3.4,-7.9 c 1.4,3.4 2.4,6.2 2.6,7.1 -1.8,-2.3 -11.3,-22.9 -13.2,-27 -0.1,-0.2 -0.1,-0.4 -0.1,-0.6 -5.7,2.7 -8,6.2 -8,6.2 4.1,8.9 8.6,17.4 13.1,26.2 C 117.1,63.8 110,52.9 106.1,46.3 95.3,57.1 90.4,71.7 88.2,82.6 103.5,83.2 129.9,77.9 134,70.1 Z"
         class="st9" />
      <path
         id="path352"
         d="m 244.1,89.3 c 0,0.1 0,0.2 0,0.3 0.1,-0.1 0.1,-0.2 0,-0.3 z"
         class="st9" />
      <path
         id="path354"
         d="m 243.7,86.2 c 0,0 0,0 0,0 0,0 0,0 0,0 z"
         class="st9" />
      <path
         id="path356"
         d="m 244.3,90.8 c 0,0.1 0,0.1 0,0.2 0,-0.1 0,-0.1 0,-0.2 z"
         class="st9" />
      <path
         id="path358"
         d="m 193.7,70.1 c -1.1,-2.2 -1.7,-5 -1.9,-8.1 v 4.4 l -1.5,1.1 c -0.4,4.1 -0.8,8.2 -1,12.3 21.4,1.9 41.3,6.5 55.2,12.5 0,-0.4 -0.1,-0.9 -0.1,-1.3 0,-0.1 0,-0.1 0,-0.2 0,-0.4 -0.1,-0.8 -0.1,-1.2 0,-0.1 0,-0.2 0,-0.3 -0.1,-0.4 -0.1,-0.9 -0.2,-1.3 0,-0.1 0,-0.2 0,-0.2 -0.1,-0.5 -0.1,-1 -0.2,-1.5 0,0 0,-0.1 0,-0.1 -0.2,-1.2 -0.4,-2.5 -0.7,-3.8 0,0 0,0 0,0 -14.3,1.6 -45.1,-3.9 -49.5,-12.3 z"
         class="st13" />
      <path
         id="path360"
         d="m 197.2,37.7 c -0.6,1.1 -1.1,2.5 -1.6,4.1 0.5,-1.4 1,-2.8 1.6,-4.1 0,-0.1 0,0 0,0 z"
         class="st13" />
      <path
         id="path362"
         d="m 191.9,58.1 v 1.2 c 0,-0.5 0.1,-1.1 0.1,-1.7 -0.1,0.2 -0.1,0.3 -0.1,0.5 z"
         class="st13" />
      <path
         id="path364"
         d="m 134,70.1 c -4.1,7.8 -30.5,13.2 -45.7,12.5 0,0 -0.1,0 -0.1,0 -0.8,3.8 -1.2,7.2 -1.5,9.8 1.6,-0.7 3.3,-1.4 5.1,-2 0,-0.1 0.1,-0.1 0.1,-0.2 0.3,-0.3 0.8,-0.4 1.3,-0.3 13.3,-4.8 30.5,-8.3 49,-10 -0.3,-3.6 -0.6,-7.4 -1,-11.2 l -3.1,-2.4 V 48.8 c -1.1,-4.6 -2.3,-8.5 -3.8,-11.1 -1.3,-2.4 -2.7,-4.8 -4,-7.2 -0.8,0.4 -1.7,0.7 -2.5,1.1 0,0 0,0 0,0 6.7,12.9 10.5,29.8 6.2,38.5 z"
         class="st13" />
      <path
         id="path366"
         d="m 136.7,20.1 c 0,-0.1 0.1,-0.2 0.1,-0.3 -0.4,0.2 -0.8,0.3 -1.1,0.5 1.2,1.6 2.2,3 3.1,4.3 -1.4,-1.9 -2.3,-3.7 -2.1,-4.5 z"
         class="st9" />
      <path
         id="path368"
         d="m 193.9,21.2 c 0.2,-0.3 0.5,-0.7 0.7,-1 -0.4,-0.2 -0.8,-0.4 -1.3,-0.6 0.5,0.4 0.7,1 0.6,1.6 z"
         class="st9" />
      <path
         id="path370"
         d="m 188,17.4 c -9.1,-3.3 -18.4,-4.6 -27.7,-3.9 9.3,-0.5 18.9,1 27.7,3.9 z"
         class="st9" />
      <path
         id="path372"
         d="m 198,22.1 c -7.5,9.8 -9.7,13.4 -10.8,19.8 h 4 c 0.7,-2.6 1.5,-4.8 2.4,-6.3 6.9,-12.3 6.9,-12.3 6.9,-12.3 -0.8,-0.4 -1.5,-0.9 -2.3,-1.3 z"
         class="st9" />
      <path
         id="path374"
         d="m 190.5,23 c -12.5,-5.2 -28,-7.6 -41.5,-4.4 0,0 -7.2,1.8 -9.3,2.4 1.5,3.5 5.8,7.3 7.9,15.5 0.3,1.4 0.6,3.2 0.8,5.3 h 6.2 l 3.2,-4 h 7 7 l 3.2,4 h 8.9 c 0.8,-6.5 2.6,-10.4 8.5,-18.8 -0.5,0.4 -1.2,0.3 -1.9,0 z"
         class="st9" />
      <path
         id="path376"
         d="m 137.4,35.5 c 0.9,1.6 1.7,3.7 2.4,6.3 h 3.2 c -1.1,-6.3 -3.2,-10 -10.7,-19.6 -0.6,0.4 -1.2,0.6 -1.8,1 0,0 0,0 6.9,12.3 z"
         class="st9" />
      <path
         id="path378"
         d="m 141.7,29.2 c 2.8,4.6 3.9,7.9 4.4,12.6 h 0.2 c -0.4,-2.9 -1,-5.8 -2.3,-8.7 -0.5,-1 -1.4,-2.4 -2.3,-3.9 z"
         class="st9" />
      <path
         id="path380"
         d="m 147.7,73.7 -0.2,-0.1 c 0,2 -0.1,4 -0.2,5.9 1,-0.1 2.1,-0.1 3.1,-0.2 -1,0.1 -2,0.1 -3,0.2 0.1,-2 0.2,-3.9 0.3,-5.8 z"
         class="st9" />
      <path
         id="path382"
         d="m 161.6,78.8 c -0.2,0 -0.3,0 -0.5,0 0.2,0 0.3,0 0.5,0 z"
         class="st9" />
      <path
         id="path384"
         d="m 186.9,70.1 -2.6,1.9 c -0.2,2.5 -0.5,4.9 -0.8,7.4 0.9,0.1 1.8,0.1 2.6,0.2 0.3,-3.1 0.5,-6.3 0.8,-9.5 z"
         class="st9" />
      <path
         id="path386"
         d="m 165.8,78.8 c 0.1,0 0.1,0 0.2,0 0,0 0,0 0,0 -0.1,0 -0.1,0 -0.2,0 z"
         class="st9" />
      <path
         id="path388"
         d="m 144.7,79.6 c 0.6,-0.1 1.3,-0.1 1.9,-0.1 -0.3,-2.4 -0.5,-4.8 -0.8,-7.2 L 144,71 c 0.3,3 0.6,5.9 0.7,8.6 z"
         class="st9" />
      <path
         id="path390"
         d="m 116.9,33.6 -0.2,-0.4 c -0.1,0 -0.1,0 -0.1,0.1 0.1,0 0.2,0.2 0.3,0.3 z"
         class="st9" />
      <path
         id="path392"
         d="m 201,64.9 c 2.3,-5.7 3.7,-9.1 4.7,-11.4 l -3.8,8.8 c -2.8,-2 4.3,-19.6 7.6,-27.6 -2.7,-1.5 -5.4,-2.9 -8.3,-4.2 -1.3,2.3 -2.6,4.7 -4,7 -0.6,1.4 -1.1,2.7 -1.6,4.1 -0.7,2.3 -1.2,4.9 -1.6,6.8 -0.6,3 -1.3,6 -2,9 0,0.6 -0.1,1.1 -0.1,1.7 V 62 c 0.1,3.1 0.7,5.9 1.9,8.1 4.4,8.4 35.2,13.9 49.3,12.3 -2.2,-10.9 -7,-25.3 -17.7,-35.8 -4.2,7.9 -12.6,22.3 -15,20.9 4.8,-9.1 9.5,-18 13.8,-27.3 0,0 -2.2,-3.4 -7.8,-6.1 -10,20.6 -5,10.4 -15.4,30.8 z"
         class="st9" />
      <path
         id="path394"
         d="m 100.7,134.4 c -1,0.1 -1.7,1.2 -1.4,2 3.2,11.1 10.9,24.8 24.7,21 1.6,-0.5 3,-1.1 4.1,-1.9 1.8,-1.3 3,-3.1 3.9,-5.5 -2.4,2.9 -4.2,4.9 -8.3,5.6 -12.4,2.4 -18.3,-10 -20.7,-20 -0.2,-0.6 -0.7,-1.1 -1.3,-1.3 -0.4,0.1 -0.7,0.1 -1,0.1 z"
         class="st11" />
      <path
         id="path396"
         d="m 86.5,96.8 c 7.8,20.3 150.5,20.3 158.3,0 -2.2,-1 -4.4,-2 -6.7,-2.9 -2.6,3.1 -8.3,5.6 -15.9,7.6 -10.9,3.2 -24.4,4.6 -33.4,5.1 -3.8,0.2 -7.1,0.2 -10.2,0.2 -7.2,0.3 -14.5,0.3 -21.8,0.1 -10.6,0.2 -25,-1.2 -35.1,-2.9 -13.9,-2.2 -24.6,-5.6 -28.5,-10.2 -2.3,1 -4.5,2 -6.7,3 z"
         class="st13" />
      <path
         id="path398"
         d="m 164.4,106.5 c 9.3,0.1 30.6,-2.3 40,-4 11,-1.9 20.5,-3.9 29.4,-10.4 -32.2,-11.6 -75.1,-13.9 -111.4,-6.7 19.3,-3.4 43,-5 56.4,-3 -22.9,0.4 -55.7,2.8 -76.9,10.9 -0.8,0.3 -1.5,0 -1.8,-0.8 -0.2,-0.5 -0.2,-0.9 0,-1.3 C 99,91.7 98,92 97,92.4 c 17.6,11.5 42.4,11.8 62.6,13.6 l 4.6,0.5 c 0,0 0.1,0 0.2,0 v 0 c -0.1,0 -0.1,0 0,0 z"
         class="st9" />
      <path
         id="path400"
         d="m 178.5,106.9 c -4.6,-0.1 -8.8,-0.3 -14.2,-0.3 0,0 0,0 -0.1,0 l -4.6,0.4 c -0.9,0 -1.9,0.1 -2.9,0.1 7.3,0.1 14.7,0 21.8,-0.2 z"
         class="st9" />
      <path
         id="path402"
         d="m 121.7,104.1 c -0.2,0 -0.5,-0.1 -0.7,-0.1 -11.2,-1.9 -18.5,-3.8 -27.7,-10.2 -0.1,0 -0.1,0.1 -0.2,0.1 0,0 0,0 0.1,0.1 3.9,4.5 14.6,7.9 28.5,10.1 z"
         class="st9" />
      <path
         id="path404"
         d="m 238.1,93.9 c 0,0 0,0 0,0 -0.1,-0.1 -0.3,-0.2 -0.4,-0.3 l -4.1,3.1 c -3.1,1.9 -7,3.4 -11.4,4.7 7.6,-1.9 13.3,-4.4 15.9,-7.5 z"
         class="st9" />
      <path
         id="path406"
         d="m 232.4,136.5 c 0.3,-0.9 -0.4,-1.9 -1.4,-2 -0.5,-0.1 -1,0 -1.3,0.2 -0.4,0.2 -0.7,0.6 -0.8,1.1 -1.4,5.6 -3.8,12 -7.9,16.1 -1.6,1.6 -3.5,2.9 -5.7,3.6 -2.1,0.7 -4.4,0.8 -7.1,0.3 -4.1,-0.8 -5.9,-2.7 -8.3,-5.6 0.9,2.6 2.3,4.5 4.3,5.8 1,0.7 2.2,1.2 3.6,1.6 13.7,3.7 21.4,-10 24.6,-21.1 z"
         class="st11" />
      <path
         id="path408"
         d="m 164.3,106.5 v 0 c 0,0 0,0 0,0 0,0 0,0 0,0 z"
         class="st1" />
      <path
         id="path410"
         d="m 100.1,92.6 c 0.3,0.8 1,1 1.8,0.8 21.2,-8.1 54,-10.5 76.9,-10.9 -13.5,-2 -37.1,-0.4 -56.4,3 -8.4,1.5 -16,3.3 -21.6,5.3 -0.3,0.1 -0.5,0.3 -0.6,0.5 -0.3,0.4 -0.4,0.8 -0.1,1.3 z"
         class="st8" />
      <path
         id="path412"
         d="m 115.2,34.5 c 1.9,4.1 11.4,24.7 13.2,27 -0.2,-0.9 -1.2,-3.7 -2.6,-7.1 -3,-7.3 -7.6,-17.9 -8.8,-20.7 0,-0.1 -0.1,-0.1 -0.1,-0.1 -0.1,-0.1 -0.2,-0.2 -0.3,-0.3 -0.3,-0.2 -0.6,-0.2 -0.9,-0.1 -0.3,0.2 -0.5,0.4 -0.6,0.7 0,0.2 0,0.4 0.1,0.6 z"
         class="st8" />
      <path
         id="path414"
         d="m 214.3,33.2 c -6.7,15.4 -6,13.9 -8.7,20.3 -1,2.4 -2.3,5.7 -4.7,11.4 10.4,-20.5 5.4,-10.3 15.2,-30.9 0,0 0,0 0,0 0.3,-0.5 0,-1.2 -0.6,-1.3 -0.4,-0.3 -0.9,0 -1.2,0.5 z"
         class="st8" />
      <path
         id="path416"
         d="m 162.8,184.5 2.7,2.8 2.9,-2.7 c 6.8,-6.5 9.6,-15.2 19.8,-17.7 2.4,-0.5 6,-1.3 8.6,-2.9 1.7,-1 2.9,-2.4 3.2,-4.3 0.3,-1.4 -0.1,-2.7 -0.8,-3.8 -0.7,-1.2 -1.6,-2.1 -2.7,-2.7 -2,-1.2 -4.5,-1.5 -7.1,-1.5 -0.8,0 -3.2,0.1 -3.8,-0.1 -1.4,-0.6 -2.8,-3.2 -3.6,-4.5 -1.7,-2.9 -3.2,-6.1 -5,-9.1 -2.4,-4.1 -6.1,-9.6 -11.4,-9.6 -5.2,0 -9,5.5 -11.5,9.5 -2.4,4 -7.9,12.3 -12,15 -1,0.3 -2.7,0.4 -3.6,0.5 -1.1,0.2 -2.5,0.4 -3.7,0.7 -1.4,0.4 -2.8,1 -3.7,2.1 -1.3,1.5 -2.3,3.1 -1.9,5.2 0.5,2.6 2.6,3.7 4.9,4.4 0.1,0 0.3,0.1 0.4,0.1 2.1,0.5 4.5,0.7 6.6,0.9 9.1,0.9 15.9,11.5 21.7,17.7 z m 3,-2.7 c -6,-6.3 -13.2,-17.9 -24.2,-18.9 -0.1,0 -0.1,0 -0.2,0 -2.2,-0.7 -3.8,-2.4 -1.3,-2.7 7.4,2 11.3,3.5 16.4,8.3 3.4,3.6 6.1,7.7 9.2,10.9 2.9,-3.1 5.5,-7 8.7,-10.4 4,-3.5 7.6,-5.6 13.7,-8.2 1.1,-0.2 2,-0.3 2.2,0 0.7,0.6 0.1,1.5 -1.3,2.2 -0.5,0.1 -1,0.2 -1.5,0.4 -11.8,2.7 -15.4,12.6 -21.7,18.4 z m 8.1,-41.7 c 3.8,6.1 6.1,12.9 10.1,15.1 2.7,1.5 8.1,-0.3 11,1.8 -1,0.1 -2.1,0.4 -3.3,0.7 -7.6,1.4 -14.4,5.2 -20.4,10.1 -1.3,0 -2.2,-1.9 -5.7,-6.8 -3.2,4.5 -4.2,6.5 -5.4,6.8 -5.9,-5.3 -10.9,-7.6 -19.1,-8.4 -1.5,-0.5 -3.9,-1 -6.2,-1.1 2.3,-0.9 7.9,-1.1 8.9,-1.7 3.1,-1.8 7.8,-7 13.7,-16.5 6.4,-10.3 10,-10.3 16.4,0 z"
         class="st1" />
      <path
         id="path418"
         d="m 189.1,162.9 c 1.4,-0.7 2,-1.6 1.3,-2.2 -0.3,-0.2 -1.1,-0.1 -2.2,0 -6.1,2.7 -9.7,4.7 -13.7,8.2 -3.2,3.5 -5.8,7.3 -8.7,10.4 -3.1,-3.2 -5.8,-7.3 -9.2,-10.9 -5.1,-4.8 -9,-6.3 -16.4,-8.3 -2.5,0.3 -0.9,2 1.3,2.7 0.1,0 0.1,0 0.2,0 11,1 18.2,12.7 24.2,18.9 6.3,-5.8 9.9,-15.7 21.8,-18.6 0.4,0 0.9,-0.1 1.4,-0.2 z"
         class="st8" />
      <path
         id="path420"
         d="m 157.6,140.1 c -5.9,9.5 -10.6,14.7 -13.7,16.5 -1,0.6 -6.6,0.7 -8.9,1.7 2.3,0 4.7,0.6 6.2,1.1 8.2,0.9 13.2,3.1 19.1,8.4 1.2,-0.3 2.2,-2.3 5.4,-6.8 3.5,4.9 4.4,6.8 5.7,6.8 6,-4.8 12.8,-8.7 20.4,-10.1 1.1,-0.3 2.3,-0.6 3.3,-0.7 -2.9,-2.1 -8.3,-0.3 -11,-1.8 -4,-2.2 -6.3,-9 -10.1,-15.1 -6.5,-10.3 -10.1,-10.3 -16.4,0 z m 12.1,2.8 c 1.7,3.1 5.1,6.4 3.1,7.9 -2.1,1.4 -5.4,-10.1 -3.1,-7.9 z m -11,7.9 c -2,-1.5 1.4,-4.9 3.1,-7.9 2.1,-2.2 -1.1,9.3 -3.1,7.9 z m -6.4,3.3 c -0.4,0.6 -1.3,0.9 -1.9,0.5 -0.6,-0.5 -0.8,-1.3 -0.4,-1.9 4.2,-6.5 8.1,-13.4 13.3,-19.1 -3.5,7 -7.3,13.8 -11,20.5 z"
         class="st8" />
      <path
         id="path422"
         d="m 161.7,142.9 c -1.7,3.1 -5.1,6.4 -3.1,7.9 2.1,1.4 5.3,-10.1 3.1,-7.9 z"
         class="st1" />
      <path
         id="path424"
         d="m 172.7,150.8 c 2,-1.5 -1.4,-4.9 -3.1,-7.9 -2.2,-2.2 1.1,9.3 3.1,7.9 z"
         class="st1" />
      <path
         id="path426"
         d="m 150.4,154.7 c 0.6,0.4 1.5,0.1 1.9,-0.5 3.7,-6.8 7.6,-13.6 11,-20.5 -5.2,5.6 -9.1,12.5 -13.3,19.1 -0.4,0.6 -0.3,1.3 0.4,1.9 z"
         class="st12" />
      <path
         id="path428"
         d="m 133.6,222.6 c 2.2,2.6 2.3,2.6 4.1,0 1.7,-2.4 4.1,-6.9 3.5,-12.3 -0.2,-2 -0.8,-2.7 -1.5,-2.6 -0.2,3.2 -1.5,6.2 -3.3,8.8 -0.1,0.3 -0.4,0.6 -0.6,1 -0.3,-0.3 -0.8,-0.8 -0.9,-1 -2,-2.4 -3.8,-5.2 -4.7,-8.3 -1.3,-1 -2.4,-0.9 -2.2,2 0.2,5.5 3.4,10 5.6,12.4 z"
         class="st5" />
      <path
         id="path430"
         d="m 170.1,219.2 c 0,-2.7 -0.9,-3 -2,-2.2 -0.7,3 -2.3,5.9 -4.3,8.4 -0.1,0.1 -0.5,0.6 -0.9,1 -0.3,-0.4 -0.6,-0.9 -0.8,-1 -1.8,-2.5 -3.3,-5.5 -3.7,-8.7 -0.8,-0.2 -1.4,0.5 -1.5,2.5 -0.4,5.4 2.3,9.9 4.1,12.3 1.8,2.6 2,2.6 4.1,0 1.9,-2.5 4.8,-7 5,-12.3 z"
         class="st5" />
      <path
         id="path432"
         d="m 192.5,222.6 c 2.2,-2.4 5.8,-6.9 6.4,-12.3 0.4,-3.3 -1,-3 -2.7,-1.5 -1.1,2.8 -3,5.4 -5,7.7 -0.1,0.3 -0.6,0.8 -1,1.2 -0.1,-0.4 -0.4,-0.8 -0.5,-0.9 -1.6,-2.8 -2.7,-5.8 -2.7,-8.9 -0.5,0.2 -1,0.9 -1.3,2.5 -1,5.4 1.2,9.9 2.7,12.3 1.4,2.6 1.6,2.5 4.1,-0.1 z"
         class="st5" />
      <path
         id="path434"
         d="m 182.7,73.2 -3.8,2.8 h -28.1 l -3.2,-2.4 c 0,1.9 -0.1,3.8 -0.2,5.8 1,-0.1 2,-0.1 3,-0.2 3.6,-0.2 7.1,-0.3 10.7,-0.4 0.2,0 0.3,0 0.5,0 1.4,0 2.8,0 4.2,0 0.1,0 0.1,0 0.2,0 0,0 0,0 0,0 5.7,0 11.4,0.3 17,0.6 -0.1,-1.9 -0.1,-3.8 -0.3,-5.8 0,-0.1 0,-0.3 0,-0.4 z"
         class="st13" />
      <path
         id="path436"
         d="m 160.3,13.5 c -4.1,0.2 -8.2,0.8 -12.2,1.9 -1.6,0.5 -10.2,2.2 -11.3,4.5 0,0.1 -0.1,0.2 -0.1,0.3 -0.2,0.8 0.8,2.6 2.1,4.6 0.9,1.4 2,3 2.9,4.5 1,1.5 1.8,2.9 2.3,3.8 1.3,2.9 2,5.8 2.3,8.7 h 2.2 c -0.2,-2.1 -0.5,-3.9 -0.8,-5.3 -2.2,-8.2 -6.4,-12 -7.9,-15.5 2.2,-0.6 9.3,-2.4 9.3,-2.4 13.4,-3.2 28.9,-0.9 41.5,4.4 0.6,0.4 1.4,0.4 2,0.1 0.4,-0.2 0.8,-0.5 1.1,-1 0.2,-0.3 0.3,-0.6 0.3,-0.9 0,-0.6 -0.2,-1.1 -0.5,-1.6 -0.2,-0.2 -0.3,-0.3 -0.5,-0.5 -1.6,-0.6 -3.2,-1.2 -4.9,-1.8 -8.9,-2.8 -18.5,-4.3 -27.8,-3.8 z"
         class="st8" />
      <path
         id="path438"
         d="m 152,72.4 h 12.9 12.9 l 10.5,-7.9 V 45.4 h -23.4 -23.4 v 19.1 z m 3.8,-19.7 c 0.4,-0.6 0.8,-1.1 1.3,-1.6 h -10.3 v -1.3 h 11.8 c 1.8,-1.2 3.9,-2 6.3,-2 2.4,0 4.5,0.7 6.3,2 h 14.4 v 1.3 h -12.9 c 0.5,0.5 0.9,1 1.3,1.6 h 11.6 V 54 h -10.8 c 0.3,0.5 0.5,1 0.6,1.6 h 10.2 v 1.3 h -9.8 c 0.1,0.5 0.2,1 0.2,1.6 h 9.7 v 1.3 H 176 c 0,0.5 -0.1,1.1 -0.2,1.6 h 9.9 v 1.3 h -10.2 c -0.2,0.5 -0.4,1.1 -0.7,1.6 h 6.5 v 1.3 h -7.2 c -0.4,0.6 -0.8,1.1 -1.3,1.6 h 4.8 v 1.3 H 171 c -1.7,1.2 -3.8,1.8 -6.1,1.8 -2.3,0 -4.3,-0.7 -6.1,-1.8 h -6.4 v -1.3 h 4.8 c -0.5,-0.5 -0.9,-1 -1.3,-1.6 h -7.2 V 64 h 6.5 c -0.3,-0.5 -0.5,-1 -0.7,-1.6 h -7.7 v -1.3 h 7.3 c -0.1,-0.5 -0.2,-1 -0.2,-1.6 h -7.1 v -1.3 h 7.1 c 0,-0.5 0.1,-1.1 0.2,-1.6 h -7.3 v -1.3 h 7.6 c 0.2,-0.5 0.4,-1.1 0.6,-1.6 h -8.3 v -1.3 h 9.1 z"
         class="st5" />
      <path
         id="path440"
         d="m 185.5,51.1 v -1.3 h -14.4 c 0.6,0.4 1.1,0.8 1.5,1.3 z"
         class="st2" />
      <path
         id="path442"
         d="m 146.8,49.8 v 1.3 h 10.3 c 0.5,-0.5 1,-0.9 1.5,-1.3 z"
         class="st2" />
      <path
         id="path444"
         d="M 185.5,54 V 52.7 H 174 c 0.3,0.4 0.5,0.8 0.8,1.3 z"
         class="st2" />
      <path
         id="path446"
         d="M 146.8,52.7 V 54 h 8.3 c 0.2,-0.4 0.5,-0.9 0.8,-1.3 z"
         class="st2" />
      <path
         id="path448"
         d="m 153.9,58.4 h -7.1 v 1.3 h 7.1 c 0,-0.2 0,-0.5 0,-0.7 -0.1,-0.3 0,-0.5 0,-0.6 z"
         class="st2" />
      <path
         id="path450"
         d="m 175.9,59.6 h 9.7 v -1.3 h -9.7 c 0,0.2 0,0.4 0,0.6 0,0.3 0,0.5 0,0.7 z"
         class="st2" />
      <path
         id="path452"
         d="m 185.5,62.5 v -1.3 h -9.9 c -0.1,0.4 -0.2,0.9 -0.4,1.3 z"
         class="st2" />
      <path
         id="path454"
         d="m 146.8,61.2 v 1.3 h 7.7 c -0.1,-0.4 -0.3,-0.8 -0.4,-1.3 z"
         class="st2" />
      <path
         id="path456"
         d="m 185.5,56.8 v -1.3 h -10.2 c 0.1,0.4 0.2,0.8 0.3,1.3 z"
         class="st2" />
      <path
         id="path458"
         d="m 146.8,55.5 v 1.3 h 7.3 c 0.1,-0.4 0.2,-0.9 0.3,-1.3 z"
         class="st2" />
      <path
         id="path460"
         d="m 171,68.1 h 6.4 v -1.3 h -4.8 c -0.5,0.5 -1.1,1 -1.6,1.3 z"
         class="st2" />
      <path
         id="path462"
         d="m 157.2,66.9 h -4.8 v 1.3 h 6.4 c -0.6,-0.4 -1.1,-0.9 -1.6,-1.3 z"
         class="st2" />
      <path
         id="path464"
         d="m 173.9,65.3 h 7.2 V 64 h -6.5 c -0.2,0.5 -0.4,0.9 -0.7,1.3 z"
         class="st2" />
      <path
         id="path466"
         d="m 148.6,64 v 1.3 h 7.2 C 155.5,64.9 155.2,64.5 155,64 Z"
         class="st2" />
      <path
         id="path468"
         d="m 154.4,55.5 c -0.1,0.4 -0.2,0.8 -0.3,1.3 -0.1,0.5 -0.2,1 -0.2,1.6 0,0.2 0,0.4 0,0.6 0,0.2 0,0.5 0,0.7 0,0.5 0.1,1.1 0.2,1.6 0.1,0.4 0.2,0.9 0.4,1.3 0.2,0.5 0.4,1.1 0.7,1.6 0.2,0.4 0.5,0.9 0.8,1.3 0.4,0.6 0.8,1.1 1.3,1.6 0.5,0.5 1,0.9 1.6,1.3 1.7,1.2 3.8,1.8 6.1,1.8 2.3,0 4.3,-0.7 6.1,-1.8 0.6,-0.4 1.1,-0.8 1.6,-1.3 0.5,-0.5 0.9,-1 1.3,-1.6 0.3,-0.4 0.6,-0.8 0.8,-1.3 0.3,-0.5 0.5,-1 0.7,-1.6 0.1,-0.4 0.3,-0.8 0.4,-1.3 0.1,-0.5 0.2,-1 0.2,-1.6 0,-0.2 0,-0.5 0,-0.7 0,-0.2 0,-0.4 0,-0.6 0,-0.5 -0.1,-1.1 -0.2,-1.6 -0.1,-0.4 -0.2,-0.9 -0.3,-1.3 -0.2,-0.5 -0.4,-1.1 -0.6,-1.6 -0.2,-0.4 -0.5,-0.9 -0.8,-1.3 -0.4,-0.6 -0.8,-1.1 -1.3,-1.6 -0.5,-0.5 -1,-0.9 -1.5,-1.3 -1.8,-1.2 -3.9,-2 -6.3,-2 -2.4,0 -4.5,0.7 -6.3,2 -0.6,0.4 -1.1,0.8 -1.5,1.3 -0.5,0.5 -0.9,1 -1.3,1.6 -0.3,0.4 -0.5,0.8 -0.8,1.3 -0.4,0.6 -0.6,1.1 -0.8,1.6 z m 10.5,-3.1 c 3.6,0 6.6,2.9 6.6,6.6 0,3.6 -2.9,6.6 -6.6,6.6 -3.7,0 -6.6,-2.9 -6.6,-6.6 0,-3.7 2.9,-6.6 6.6,-6.6 z"
         class="st8" />
      <circle
         id="circle470"
         cx="164.9"
         cy="58.9"
         r="6.6"
         class="st12" />
      <path
         id="path472"
         d="m 170.8,267.4 c -2.3,0 -4.5,-0.1 -6.8,0 -1,0 -2.1,0 -3.1,0 1.8,-2.1 3.6,-4.3 5.3,-6.5 1.7,-2.1 3.3,-4.2 4.9,-6.4 0.3,-0.5 0.7,-0.9 1,-1.4 1.9,-2.6 3.8,-5.3 5.5,-8.1 -2.8,1.7 -5.5,3.6 -8.1,5.5 -2.1,1.5 -4.2,3.1 -6.2,4.7 -0.5,0.4 -1,0.8 -1.5,1.2 -2.5,2 -5,4.1 -7.4,6.2 -2.4,2.1 -4.8,4.2 -7.2,6.4 l -7.9,7.3 11.2,0.6 c 2.3,0.1 4.5,0.2 6.8,0.2 2.3,0.1 4.5,0.1 6.8,0.1 0.9,0 1.9,0 2.8,0 l -2.7,3.2 c -1.1,1.3 -2.2,2.6 -3.2,4 -2.1,2.7 -4.2,5.4 -6.3,8.1 -2,2.8 -4,5.6 -5.8,8.6 3,-1.8 5.8,-3.8 8.6,-5.8 2.8,-2 5.5,-4.1 8.1,-6.3 1.3,-1.1 2.6,-2.2 4,-3.2 l 3.9,-3.3 3.8,-3.4 3.8,-3.4 8.5,-7.8 -11.8,-0.3 c -2.4,-0.1 -4.7,-0.2 -7,-0.2 z m -3.3,3.5 c 1.9,0.2 3.8,0.4 5.7,0.7 -1.9,0.3 -3.8,0.5 -5.7,0.7 -1.9,0.2 -3.8,0.3 -5.7,0.4 -3.8,0.2 -7.6,0.3 -11.4,0.2 H 147 l 2.5,-2.3 c 1.2,-1.1 2.4,-2.1 3.6,-3.2 1.2,-1.1 2.4,-2.1 3.7,-3.1 1.2,-1 2.5,-2 3.8,-3 1.3,-1 2.6,-1.9 3.9,-2.8 -1,1.3 -2,2.5 -3.1,3.7 -1.1,1.2 -2.1,2.4 -3.2,3.5 -1.1,1.2 -2.2,2.3 -3.3,3.4 -0.4,0.4 -0.7,0.7 -1.1,1 2.7,0 5.4,0.1 8.2,0.2 1.7,0.3 3.6,0.5 5.5,0.6 z"
         class="st8" />
      <path
         id="path474"
         d="m 161.8,270.5 c -2.7,-0.1 -5.4,-0.2 -8.2,-0.2 0.4,-0.4 0.7,-0.7 1.1,-1 1.1,-1.1 2.3,-2.3 3.3,-3.4 1.1,-1.1 2.2,-2.3 3.2,-3.5 1.1,-1.2 2.1,-2.4 3.1,-3.7 -1.3,0.9 -2.6,1.8 -3.9,2.8 -1.3,1 -2.5,2 -3.8,3 -1.2,1 -2.5,2 -3.7,3.1 -1.2,1 -2.4,2.1 -3.6,3.2 l -2.5,2.3 h 3.4 c 3.8,0 7.6,0 11.4,-0.2 1.9,-0.1 3.8,-0.2 5.7,-0.4 1.9,-0.2 3.8,-0.4 5.7,-0.7 -1.9,-0.3 -3.8,-0.5 -5.7,-0.7 -1.7,-0.3 -3.6,-0.5 -5.5,-0.6 z"
         class="st12" />
    </g>
  </g>
</svg>
