<?xml version="1.0" encoding="UTF-8"?><svg id="Layer_1" xmlns="http://www.w3.org/2000/svg" xmlns:xlink="http://www.w3.org/1999/xlink" viewBox="0 0 328.37 375.28"><defs><style>.cls-1{fill:#039;}.cls-2{fill:#d445a3;}.cls-3{fill:url(#New_Gradient_Swatch_copy_4);}.cls-4{fill:url(#New_Gradient_Swatch_copy_4-14);}.cls-5{fill:url(#New_Gradient_Swatch_copy_4-10);}.cls-6{fill:url(#New_Gradient_Swatch_copy_4-11);}.cls-7{fill:url(#New_Gradient_Swatch_copy_4-13);}.cls-8{fill:url(#New_Gradient_Swatch_copy_4-12);}.cls-9{fill:url(#New_Gradient_Swatch_copy_4-15);}.cls-10{fill:url(#New_Gradient_Swatch_copy_4-4);}.cls-11{fill:url(#New_Gradient_Swatch_copy_4-3);}.cls-12{fill:url(#New_Gradient_Swatch_copy_4-2);}.cls-13{fill:url(#New_Gradient_Swatch_copy_4-6);}.cls-14{fill:url(#New_Gradient_Swatch_copy_4-5);}.cls-15{fill:url(#New_Gradient_Swatch_copy_4-8);}.cls-16{fill:url(#New_Gradient_Swatch_copy_4-7);}.cls-17{fill:url(#New_Gradient_Swatch_copy_4-9);}</style><linearGradient id="New_Gradient_Swatch_copy_4" x1="-21.85" y1="393.6" x2="210.81" y2="-164.33" gradientUnits="userSpaceOnUse"><stop offset="0" stop-color="#039"/><stop offset="1" stop-color="#d445a3"/></linearGradient><linearGradient id="New_Gradient_Swatch_copy_4-2" x1="-34.44" y1="388.35" x2="198.22" y2="-169.58" xlink:href="#New_Gradient_Swatch_copy_4"/><linearGradient id="New_Gradient_Swatch_copy_4-3" x1="147.73" y1="464.31" x2="380.39" y2="-93.61" xlink:href="#New_Gradient_Swatch_copy_4"/><linearGradient id="New_Gradient_Swatch_copy_4-4" x1="63.46" y1="429.17" x2="296.12" y2="-128.76" xlink:href="#New_Gradient_Swatch_copy_4"/><linearGradient id="New_Gradient_Swatch_copy_4-5" x1="78.76" y1="435.55" x2="311.42" y2="-122.37" xlink:href="#New_Gradient_Swatch_copy_4"/><linearGradient id="New_Gradient_Swatch_copy_4-6" x1="175.33" y1="475.82" x2="407.99" y2="-82.11" xlink:href="#New_Gradient_Swatch_copy_4"/><linearGradient id="New_Gradient_Swatch_copy_4-7" x1="162.06" y1="470.29" x2="394.72" y2="-87.64" xlink:href="#New_Gradient_Swatch_copy_4"/><linearGradient id="New_Gradient_Swatch_copy_4-8" x1="47.01" y1="422.31" x2="279.66" y2="-135.62" xlink:href="#New_Gradient_Swatch_copy_4"/><linearGradient id="New_Gradient_Swatch_copy_4-9" x1="-49.44" y1="382.09" x2="183.21" y2="-175.84" xlink:href="#New_Gradient_Swatch_copy_4"/><linearGradient id="New_Gradient_Swatch_copy_4-10" x1="32.22" y1="416.14" x2="264.88" y2="-141.78" xlink:href="#New_Gradient_Swatch_copy_4"/><linearGradient id="New_Gradient_Swatch_copy_4-11" x1="94.71" y1="442.2" x2="327.37" y2="-115.73" xlink:href="#New_Gradient_Swatch_copy_4"/><linearGradient id="New_Gradient_Swatch_copy_4-12" x1="15.78" y1="409.29" x2="248.44" y2="-148.64" xlink:href="#New_Gradient_Swatch_copy_4"/><linearGradient id="New_Gradient_Swatch_copy_4-13" x1="111.77" y1="449.32" x2="344.43" y2="-108.61" xlink:href="#New_Gradient_Swatch_copy_4"/><linearGradient id="New_Gradient_Swatch_copy_4-14" x1="-17.01" y1="395.62" x2="215.65" y2="-162.31" xlink:href="#New_Gradient_Swatch_copy_4"/><linearGradient id="New_Gradient_Swatch_copy_4-15" x1="143.33" y1="462.48" x2="375.99" y2="-95.45" xlink:href="#New_Gradient_Swatch_copy_4"/></defs><path class="cls-2" d="M134.95,54.97l26.39,14.66c1.77,.98,3.92,.98,5.7,0l26.39-14.66c1.86-1.03,3.02-3,3.02-5.13V20.52c0-2.13-1.15-4.09-3.02-5.13L167.04,.74c-1.77-.98-3.92-.98-5.7,0l-26.39,14.66c-1.86,1.03-3.02,3-3.02,5.13v29.32c0,2.13,1.15,4.09,3.02,5.13Zm8.71-30.99l20.52-11.4,20.52,11.4v22.42l-20.52,11.4-20.52-11.4V23.97Z"/><path class="cls-2" d="M193.42,320.31l-26.39-14.66c-1.77-.98-3.92-.98-5.7,0l-26.39,14.66c-1.86,1.03-3.02,3-3.02,5.13v29.32c0,2.13,1.15,4.09,3.02,5.13l26.39,14.66c1.77,.98,3.92,.98,5.7,0l26.39-14.66c1.86-1.03,3.02-3,3.02-5.13v-29.32c0-2.13-1.15-4.09-3.02-5.13Z"/><path class="cls-3" d="M61.49,244.08l-26.39-14.66c-1.77-.98-3.92-.98-5.7,0l-26.39,14.66c-1.86,1.03-3.02,3-3.02,5.13v29.32c0,2.13,1.15,4.09,3.02,5.13l26.39,14.66c1.77,.98,3.92,.98,5.7,0l26.39-14.66c1.86-1.03,3.02-3,3.02-5.13v-29.32c0-2.13-1.15-4.09-3.02-5.13Zm-8.71,30.99l-20.52,11.4-20.52-11.4v-22.42l20.52-11.4,20.52,11.4v22.42Z"/><path class="cls-1" d="M325.35,244.08l-26.39-14.66c-1.77-.98-3.92-.98-5.7,0l-26.39,14.66c-1.86,1.03-3.02,3-3.02,5.13v29.32c0,2.13,1.15,4.09,3.02,5.13l26.39,14.66c1.77,.98,3.92,.98,5.7,0l26.39-14.66c1.86-1.03,3.02-3,3.02-5.13v-29.32c0-2.13-1.15-4.09-3.02-5.13Zm-8.71,30.99l-20.52,11.4-20.52-11.4v-22.42l20.52-11.4,20.52,11.4v22.42Z"/><path class="cls-12" d="M125.16,62.04c-2.81-2.92-4.52-6.72-4.85-10.75l-49.98,29.43c3.01,2.68,5.01,6.31,5.65,10.28l49.18-28.96Z"/><path class="cls-1" d="M61.49,88.69l-26.39-14.66c-1.77-.98-3.92-.98-5.7,0L3.02,88.69c-1.86,1.03-3.02,3-3.02,5.13v29.32c0,2.13,1.15,4.09,3.02,5.13l26.39,14.66c1.77,.98,3.92,.98,5.7,0l26.39-14.66c1.86-1.03,3.02-3,3.02-5.13v-29.32c0-2.13-1.15-4.09-3.02-5.13Z"/><path class="cls-11" d="M325.35,88.69l-26.39-14.66c-1.77-.98-3.92-.98-5.7,0l-26.39,14.66c-1.86,1.03-3.02,3-3.02,5.13v29.32c0,2.13,1.15,4.09,3.02,5.13l26.39,14.66c1.77,.98,3.92,.98,5.7,0l26.39-14.66c1.86-1.03,3.02-3,3.02-5.13v-29.32c0-2.13-1.15-4.09-3.02-5.13Z"/><path class="cls-10" d="M216.96,214.03v-52.77c0-2.12-1.14-4.07-2.99-5.11l-46.91-26.39c-1.79-1-3.96-1-5.75,0l-46.91,26.39c-1.85,1.04-2.99,2.99-2.99,5.11v52.77c0,2.12,1.14,4.07,2.99,5.11l46.91,26.39c1.79,1.01,3.96,1.01,5.75,0l46.91-26.39c1.85-1.04,2.99-2.99,2.99-5.11Z"/><path class="cls-14" d="M258.04,80.72l-49.98-29.43c-.33,4.04-2.04,7.83-4.85,10.75l49.18,28.96h0c.65-3.98,2.65-7.61,5.65-10.29h0Z"/><path class="cls-13" d="M301.98,218v-63.64c-3.79,1.38-7.94,1.38-11.73,0v63.64c3.79-1.34,7.93-1.34,11.73,0Z"/><path class="cls-16" d="M253.02,283.91l-49.81,29.33c2.81,2.92,4.52,6.72,4.85,10.75l52.16-30.71c-3.41-2.2-5.96-5.51-7.2-9.37h0Z"/><path class="cls-15" d="M68.15,293.28l52.16,30.71c.33-4.04,2.04-7.83,4.85-10.75l-49.81-29.33c-1.24,3.86-3.79,7.17-7.2,9.37h0Z"/><path class="cls-17" d="M38.12,218v-63.64c-3.79,1.38-7.94,1.38-11.73,0v63.64c3.79-1.34,7.93-1.34,11.73,0Z"/><path class="cls-5" d="M170.05,118.31v-37.26c-3.79,1.38-7.94,1.38-11.73,0v37.26c3.79-1.35,7.93-1.35,11.73,0Z"/><path class="cls-6" d="M158.32,256.96v37.26h0c3.79-1.35,7.93-1.35,11.73,0v-37.26c-3.79,1.38-7.94,1.38-11.73,0h0Z"/><path class="cls-8" d="M100.5,219.23l-29.31,17.69c2.83,2.9,4.57,6.69,4.93,10.72l31.45-18.98c-3.37-2.23-5.87-5.56-7.07-9.43h0Z"/><path class="cls-7" d="M252.68,127.38l-31.89,19.25c3.37,2.23,5.87,5.56,7.07,9.42l31.27-18.87h0c-3.21-2.43-5.49-5.89-6.46-9.8h0Z"/><path class="cls-4" d="M108.15,146.24l-32.31-19.61h0c-.8,3.94-2.93,7.49-6.04,10.05l30.91,18.76h0c1.34-3.84,3.97-7.09,7.44-9.2h0Z"/><path class="cls-9" d="M221.05,228.49l31.21,18.95h0c.4-4.03,2.18-7.8,5.04-10.66l-29.34-17.81c-1.14,3.87-3.58,7.24-6.91,9.52h0Z"/></svg>