<?xml version="1.0" encoding="UTF-8"?>
<svg id="Layer_1" data-name="Layer 1" xmlns="http://www.w3.org/2000/svg" viewBox="0 0 500 500">
  <defs>
    <style>
      .cls-1 {
        fill: #fff;
        stroke-width: 0px;
      }
    </style>
  </defs>
  <path class="cls-1" d="M356.88,308.51c-3.94,0-7.14,3.2-7.14,7.14v14.04l-40.28-43.34,23.24-25.01c1.3-1.4,1.98-3.22,1.91-5.12-.07-1.91-.88-3.67-2.28-4.97-1.33-1.23-3.05-1.91-4.86-1.91-1.98,0-3.89.83-5.23,2.28l-22.53,24.24-40.78-43.89h72.91c3.94,0,7.14-3.2,7.14-7.14s-3.2-7.14-7.14-7.14h-76.29l44.16-69.39,37.75,59.32c1.32,2.07,3.57,3.31,6.03,3.31,1.36,0,2.68-.39,3.83-1.12,3.32-2.12,4.31-6.54,2.19-9.86l-42.66-67.04v-42.12c0-3.94-3.2-7.14-7.14-7.14s-7.14,3.2-7.14,7.14v42.12l-55.65,87.45-120.88,122.51c-2.03,2.06-2.62,5.11-1.5,7.77,1.12,2.67,3.7,4.39,6.59,4.39h51.03v8h-12.29c-3.94,0-7.14,3.2-7.14,7.14s3.2,7.14,7.14,7.14h12.29v6.84h-12.29c-3.94,0-7.14,3.2-7.14,7.14s3.2,7.14,7.14,7.14h12.29v10.78c0,3.94,3.2,7.14,7.14,7.14s7.14-3.2,7.14-7.14v-10.78h12.29c3.94,0,7.14-3.2,7.14-7.14s-3.2-7.14-7.14-7.14h-12.29v-6.84h12.29c3.94,0,7.14-3.2,7.14-7.14s-3.2-7.14-7.14-7.14h-12.29v-8h48.95v54.19c0,3.94,3.2,7.14,7.14,7.14s7.14-3.2,7.14-7.14v-43.24l44.99,48.12c1.35,1.44,3.25,2.26,5.23,2.26,1.98,0,3.88-.83,5.22-2.28l44.62-48.02v43.15c0,3.94,3.2,7.14,7.14,7.14s7.14-3.2,7.14-7.14v-93.56c0-3.94-3.2-7.14-7.14-7.14ZM289.96,286.35l-40.28,43.34v-86.69l40.28,43.34ZM299.71,296.85l40.78,43.89h-81.56l40.78-43.89ZM340.49,355.02l-40.62,43.72-40.87-43.72h81.49ZM183.32,295.01l42.75,45.73h-87.87l45.12-45.73ZM235.39,242.24v87.54l-42.03-44.95,42.03-42.6Z"/>
</svg>