<?xml version="1.0" encoding="utf-8"?>
<!-- Generator: Adobe Illustrator 27.8.1, SVG Export Plug-In . SVG Version: 6.00 Build 0)  -->
<svg version="1.1" id="Layer_1" xmlns="http://www.w3.org/2000/svg" xmlns:xlink="http://www.w3.org/1999/xlink" x="0px" y="0px"
	 viewBox="0 0 356 172" style="enable-background:new 0 0 356 172;" xml:space="preserve">
<g>
	<rect x="5.1" y="97.4" width="345.7" height="1"/>
</g>
<polygon points="13.6,69.3 13.6,52.4 5.1,52.4 5.1,77.8 30.5,77.8 30.5,69.3 "/>
<polygon points="47.5,35.4 5.1,35.4 5.1,48.1 13.6,48.1 13.6,44 39,44 39,69.3 34.8,69.3 34.8,77.8 47.5,77.8 "/>
<polygon points="58.7,36 71.6,36 71.6,67.1 90.1,67.1 90.1,77.8 58.7,77.8 "/>
<polygon points="95.7,36 128,36 128,46.7 108.5,46.7 108.5,51.9 125.2,51.9 125.2,61.9 108.5,61.9 108.5,77.8 95.6,77.8 95.6,36 "/>
<polygon points="161.3,78.1 137.9,78.1 137.9,35.8 161.3,35.8 161.3,38.6 140.9,38.6 140.9,54.5 160.2,54.5 160.2,57.3 140.9,57.3 
	140.9,75.4 161.3,75.4 "/>
<path d="M202.1,78.1h-3l-25.4-37.5h-0.2c0.2,4.4,0.3,7.8,0.3,10.1V78H171V35.8h3l25.4,37.4h0.2c-0.2-3.5-0.3-6.8-0.3-9.8V35.8h2.9
	L202.1,78.1L202.1,78.1z"/>
<polygon points="237.7,78.1 214.3,78.1 214.3,35.8 237.7,35.8 237.7,38.6 217.3,38.6 217.3,54.5 236.5,54.5 236.5,57.3 217.3,57.3 
	217.3,75.4 237.7,75.4 "/>
<path d="M250.3,59.7v18.4h-3V35.8h10.2c5.3,0,9.2,1,11.8,2.9c2.6,1.9,3.8,4.8,3.8,8.7c0.1,2.6-0.7,5.1-2.3,7.2
	c-1.8,2.1-4.2,3.6-6.9,4.2L275.6,78H272l-11.1-18.4L250.3,59.7L250.3,59.7z M250.3,57.1h8.1c3.6,0,6.4-0.8,8.4-2.4s3-3.9,3-7
	s-1-5.5-2.9-7s-5.1-2.2-9.6-2.2h-7L250.3,57.1L250.3,57.1z"/>
<path d="M299.4,56.3h15.4v18.8c-4.3,1.8-9,2.6-13.7,2.6c-6.6,0-11.7-1.8-15.1-5.5s-5.3-8.9-5.3-15.6c-0.1-3.9,0.8-7.7,2.6-11.2
	c1.7-3.2,4.3-5.8,7.5-7.5c3.4-1.8,7.3-2.7,11.2-2.7c4.2-0.1,8.4,0.8,12.3,2.5l-1.2,2.6c-3.5-1.6-7.4-2.5-11.3-2.5
	c-5.5,0-9.9,1.7-13.1,5s-4.8,7.9-4.8,13.5c0,6.2,1.5,10.9,4.6,14c3.1,3.1,7.6,4.7,13.6,4.7c3.3,0.1,6.7-0.4,9.8-1.6V59h-12.4
	L299.4,56.3L299.4,56.3z"/>
<polygon points="335.2,58.8 347.7,35.8 350.9,35.8 336.7,61.6 336.7,77.8 333.6,77.8 333.6,61.8 319.4,35.8 322.8,35.8 "/>
<g>
	<path d="M129.4,123.9c0,2.4-0.8,4.2-2.4,5.5s-3.9,1.9-6.8,1.9h-3.8v10.1h-1.7v-24.5h6C126.5,116.9,129.4,119.2,129.4,123.9z
		 M116.4,129.8h3.4c2.8,0,4.8-0.5,6-1.4c1.2-0.9,1.8-2.4,1.8-4.4c0-1.9-0.6-3.3-1.7-4.2s-3-1.4-5.4-1.4h-4.1V129.8z"/>
	<path d="M136.5,130.7v10.7h-1.7v-24.5h5.8c3,0,5.3,0.6,6.7,1.7c1.5,1.1,2.2,2.8,2.2,5.1c0,1.6-0.4,3-1.3,4.2
		c-0.9,1.1-2.2,1.9-4,2.4l6.7,11.2h-2l-6.3-10.7H136.5z M136.5,129.3h4.7c2.1,0,3.7-0.5,4.8-1.4c1.1-0.9,1.7-2.3,1.7-4.1
		c0-1.9-0.6-3.2-1.7-4.1c-1.1-0.8-2.9-1.3-5.5-1.3h-4.1V129.3z"/>
	<path d="M175.8,129.1c0,3.9-1,7-2.9,9.2c-1.9,2.3-4.6,3.4-8.1,3.4c-3.4,0-6.1-1.1-8-3.4c-1.9-2.3-2.9-5.4-2.9-9.3
		c0-3.9,1-7,2.9-9.2c2-2.2,4.6-3.4,8-3.4c3.4,0,6.1,1.1,8,3.4C174.9,122.1,175.8,125.2,175.8,129.1z M155.8,129.1
		c0,3.5,0.8,6.2,2.3,8.1c1.6,1.9,3.8,2.9,6.7,2.9c3,0,5.2-1,6.8-2.9s2.3-4.6,2.3-8.2c0-3.5-0.8-6.2-2.3-8.1s-3.8-2.8-6.7-2.8
		c-2.9,0-5.2,1-6.8,2.9C156.5,122.9,155.8,125.6,155.8,129.1z"/>
	<path d="M177.4,147.6c-1,0-1.9-0.2-2.5-0.5v-1.5c0.9,0.2,1.7,0.3,2.5,0.3c2.7,0,4.1-1.5,4.1-4.4v-24.7h1.7v24.5
		C183.2,145.6,181.3,147.6,177.4,147.6z"/>
	<path d="M203.4,141.4H190v-24.5h13.4v1.6h-11.7v9.3h11v1.6h-11v10.5h11.7V141.4z"/>
	<path d="M219.4,118.1c-3.1,0-5.5,1-7.3,3c-1.8,2-2.7,4.7-2.7,8.1c0,3.5,0.8,6.2,2.5,8.2c1.7,1.9,4.1,2.9,7.2,2.9
		c2.1,0,4-0.3,5.7-0.8v1.5c-1.6,0.6-3.6,0.9-6.1,0.9c-3.4,0-6.2-1.1-8.1-3.3s-3-5.3-3-9.3c0-2.5,0.5-4.7,1.4-6.6
		c0.9-1.9,2.3-3.4,4.1-4.4c1.8-1,3.8-1.6,6.2-1.6c2.4,0,4.5,0.4,6.4,1.3l-0.7,1.5C223.2,118.5,221.4,118.1,219.4,118.1z"/>
	<path d="M236.7,141.4h-1.7v-22.9h-8v-1.6h17.7v1.6h-8V141.4z"/>
</g>
</svg>
