<?xml version="1.0" encoding="utf-8"?>
<!-- Generator: Adobe Illustrator 28.0.0, SVG Export Plug-In . SVG Version: 6.00 Build 0)  -->
<svg version="1.1" id="Layer_1" xmlns="http://www.w3.org/2000/svg" xmlns:xlink="http://www.w3.org/1999/xlink" x="0px" y="0px"
	 width="823.1px" height="220.7px" viewBox="0 0 823.1 220.7" style="enable-background:new 0 0 823.1 220.7;" xml:space="preserve"
	>
<style type="text/css">
	.st0{fill:#5596DC;}
	.st1{fill:#203964;}
	.st2{filter:url(#Adobe_OpacityMaskFilter);}
	.st3{fill-rule:evenodd;clip-rule:evenodd;fill:#FFFFFF;}
	.st4{mask:url(#mask-2_00000004506564560678121790000002184574387643521411_);fill-rule:evenodd;clip-rule:evenodd;fill:#4453FA;}
	.st5{fill-rule:evenodd;clip-rule:evenodd;fill:#81E4A8;}
	.st6{fill:#FFFFFF;}
	.st7{filter:url(#Adobe_OpacityMaskFilter_00000163074173164768813830000013524649403659202227_);}
	.st8{mask:url(#mask-2_00000175293117053288514560000008932525991944933561_);fill-rule:evenodd;clip-rule:evenodd;fill:#FFFFFF;}
	.st9{filter:url(#Adobe_OpacityMaskFilter_00000034787504848125787060000007863779089192866690_);}
	.st10{mask:url(#mask-2_00000008844007951439913110000011545875869335294392_);fill-rule:evenodd;clip-rule:evenodd;}
	.st11{fill-rule:evenodd;clip-rule:evenodd;}
	.st12{filter:url(#Adobe_OpacityMaskFilter_00000145039266671571806670000001448023929082642318_);}
	.st13{mask:url(#mask-2_00000109733971550137145930000016577067921354654088_);fill-rule:evenodd;clip-rule:evenodd;fill:#4453FA;}
	.st14{filter:url(#Adobe_OpacityMaskFilter_00000104700673087933349470000013074837156155720637_);}
	.st15{mask:url(#mask-2_00000144305195303709760010000004011463533274624437_);fill-rule:evenodd;clip-rule:evenodd;fill:#FFFFFF;}
	.st16{filter:url(#Adobe_OpacityMaskFilter_00000142142624010756857640000016169672867471420315_);}
	.st17{mask:url(#mask-2_00000111185003471335196920000012867745107551072909_);fill-rule:evenodd;clip-rule:evenodd;}
</style>
<g>
	<g>
		<g>
			<polygon class="st6" points="214.5,22.7 214.5,11.5 208.8,11.5 208.8,28.3 225.6,28.3 225.6,22.7 			"/>
			<polygon class="st6" points="236.9,0.2 208.8,0.2 208.8,8.6 214.4,8.6 214.4,5.8 231.3,5.8 231.3,22.7 228.5,22.7 228.5,28.3 
				236.9,28.3 			"/>
			<g>
				<path class="st6" d="M244.4,0.5h8.6v20.6h12.3v7.1h-20.8L244.4,0.5L244.4,0.5z"/>
				<path class="st6" d="M268.9,0.5h21.5v7.1h-13v3.5h11.1v6.6h-11.1v10.6h-8.6V0.5z"/>
			</g>
			<path class="st6" d="M312.5,28.4h-15.6v-28h15.6v1.8h-13.6v10.6h12.8v1.8h-12.8v12h13.6V28.4z"/>
			<path class="st6" d="M339.6,28.4h-2L320.7,3.6h-0.2c0.2,3,0.2,5.2,0.2,6.7v18.1h-1.8v-28h2l16.8,24.8h0.1
				c-0.1-2.3-0.2-4.5-0.2-6.6V0.4h1.9L339.6,28.4L339.6,28.4z"/>
			<path class="st6" d="M363.1,28.4h-15.6v-28h15.6v1.8h-13.6v10.6h12.8v1.8h-12.8v12h13.6V28.4z"/>
			<path class="st6" d="M371.6,16.2v12.2h-2v-28h6.8c3.5,0,6.1,0.6,7.8,1.9s2.5,3.2,2.5,5.8c0,1.9-0.5,3.5-1.5,4.8
				c-1,1.3-2.5,2.2-4.6,2.8l7.7,12.8h-2.4l-7.3-12.2H371.6z M371.6,14.6h5.4c2.4,0,4.3-0.5,5.6-1.6c1.3-1.1,2-2.6,2-4.7
				s-0.6-3.7-1.9-4.7s-3.4-1.5-6.4-1.5h-4.7V14.6z"/>
			<path class="st6" d="M404.1,14.1h10.3v12.5c-2.7,1.1-5.7,1.7-9.1,1.7c-4.4,0-7.8-1.2-10.1-3.7s-3.5-5.9-3.5-10.4
				c0-2.8,0.6-5.3,1.7-7.4c1.2-2.2,2.8-3.8,5-5c2.2-1.2,4.7-1.8,7.5-1.8c3,0,5.8,0.6,8.2,1.7l-0.8,1.7c-2.4-1.1-4.9-1.7-7.5-1.7
				c-3.7,0-6.6,1.1-8.7,3.4c-2.1,2.3-3.2,5.3-3.2,9c0,4.1,1,7.2,3.1,9.3c2,2.1,5,3.1,9,3.1c2.6,0,4.7-0.4,6.5-1.1v-9.7h-8.3
				L404.1,14.1L404.1,14.1z"/>
			<path class="st6" d="M427.8,15.7l8.3-15.3h2.1l-9.4,17v10.8h-2V17.6l-9.5-17.2h2.3L427.8,15.7z"/>
		</g>
	</g>
	<g>
		<path class="st6" d="M204,85.4c0-22.8,6.4-33.2,21.1-33.2c14.7,0,21.1,10.4,21.1,33.2s-6.4,33.2-21.1,33.2
			C210.5,118.6,204,108.2,204,85.4z M236.1,85.1c0-21.5-4.8-25.2-10.9-25.2c-6.1,0-10.9,3.8-10.9,25.2c0,21.9,4.8,25.8,10.9,25.8
			C231.2,110.9,236.1,107,236.1,85.1z"/>
		<path class="st6" d="M275.4,118.6c-5.4,0-9.1-2.6-10.9-6.9h-0.2V133h-9.7V69.2h9.1v5.9h0.2c2.1-4.3,5.5-7.2,10.8-7.2
			c11,0,15.5,9.4,15.5,25.9C290.3,114.1,282.1,118.6,275.4,118.6z M271.9,75.6c-6.6,0-8.1,6.7-8.1,17.1c0,11.5,1.4,18.2,8.2,18.2
			c5.5,0,8.1-4.1,8.1-17.4C280.1,82.5,278.7,75.6,271.9,75.6z"/>
		<path class="st6" d="M306,94.5v2.8c0,6.4,0.8,14.7,8.1,14.7c6.9,0,7.7-7.8,7.7-10.7h9.1c0,10.8-6.4,17.4-16.9,17.4
			c-7.9,0-17.6-2.3-17.6-24.6c0-12.6,2.8-26,17.8-26c13.4,0,17,8.1,17,21.5v5.1H306z M321.5,87.9v-2.6c0-6.1-2-10.7-7.4-10.7
			c-6.1,0-8.1,6.1-8.1,12.3v1H321.5z"/>
		<path class="st6" d="M339.1,69.2h9.1v5.6h0.3c2.4-4.3,7-6.9,12.3-6.9c7.3,0,12,3.3,12,13.1v36.3h-9.7v-33c0-6.4-1.7-8.7-6.7-8.7
			c-3.9,0-7.7,3-7.7,9.4v32.3h-9.7V69.2z"/>
		<path class="st6" d="M412.2,97.5v1.6c0,7.8,3.5,11.7,10.5,11.7c6.4,0,9.7-4.7,9.7-9.3c0-6.7-3.4-9.7-9.1-11.4l-7-2.4
			c-9.3-3.6-13.3-8.4-13.3-17.5c0-11.6,8-18.1,19.9-18.1c16.4,0,18.1,10.2,18.1,16.8v1.4h-10.2v-1.3c0-5.8-2.5-9.2-8.9-9.2
			c-4.4,0-8.6,2.4-8.6,9.2c0,5.5,2.8,8.2,9.6,10.8l6.9,2.5c9,3.2,13,8.1,13,16.9c0,13.6-8.2,19.2-21.1,19.2
			C405.5,118.6,402,108,402,99v-1.5H412.2z"/>
		<path class="st6" d="M474.7,111.7h-0.3c-2.4,4.3-7,6.9-12.3,6.9c-7.2,0-12-3.3-12-15.7V69.2h9.7v34.5c0,5.4,2.3,7.2,6.5,7.2
			s7.9-2.7,7.9-8.1V69.2h9.7v48.1h-9.1V111.7z"/>
		<path class="st6" d="M513.9,83.2V82c0-3.8-1.3-7.4-6.4-7.4c-3.8,0-6.9,1.7-6.9,6.3c0,3.8,1.7,5.3,6.8,7.1l6.2,2.1
			c7.2,2.4,10.5,6.3,10.5,13.9c0,10.3-7.6,14.7-17.3,14.7c-12.2,0-15.8-5.6-15.8-14.9v-1.8h8.6v1.5c0,5.6,1.9,8.6,7.5,8.6
			c5.4,0,7.9-2.7,7.9-7.1c0-3.5-1.8-5.9-5.3-7.1l-7.9-2.8c-7.2-2.4-10.3-6.2-10.3-13.9c0-9,6.4-13.2,16.5-13.2
			c12.3,0,15,7.2,15,13.2v2.1H513.9z"/>
		<path class="st6" d="M527,69.2h6.6V55.5h9.7v13.7h7.9v7.2h-7.9V105c0,3.8,1.1,5.1,4.4,5.1c1.4,0,2.6-0.1,3.5-0.3v7.2
			c-2.1,0.5-4.7,0.8-7.8,0.8c-6.4,0-9.8-1.9-9.8-11.6V76.3H527V69.2z"/>
		<path class="st6" d="M587.7,107.3c0,1.8,1.1,3.4,2.5,3.4c0.7,0,1.3-0.1,1.6-0.3v6.3c-1.2,0.6-2.9,1.2-4.7,1.2
			c-4.3,0-7.9-1.7-8.1-6.4h-0.2c-2.6,4.7-6.3,7.1-12,7.1c-7.8,0-12.5-4.2-12.5-13.5c0-10.7,4.7-13,11.2-15.1l7.5-2.1
			c3.5-1,5.6-2,5.6-6.2c0-4.4-1.5-7.2-6.6-7.2c-6.4,0-7.3,4.6-7.3,9.2h-9.1c0-10.3,4.2-15.8,16.9-15.8c8.5,0,15.3,3.3,15.3,11.8
			V107.3z M578.6,91.9c-2.7,2-7.8,3-10.7,4.5c-2.8,1.3-3.9,4.2-3.9,7.8c0,4,2,7.2,6,7.2c5.8,0,8.7-4.3,8.7-11.5V91.9z"/>
		<path class="st6" d="M598,52.7h9.7v9.7H598V52.7z M598,69.2h9.7v48.1H598V69.2z"/>
		<path class="st6" d="M617.4,69.2h9.1v5.6h0.3c2.4-4.3,7-6.9,12.3-6.9c7.3,0,12,3.3,12,13.1v36.3h-9.7v-33c0-6.4-1.7-8.7-6.7-8.7
			c-3.9,0-7.7,3-7.7,9.4v32.3h-9.7V69.2z"/>
		<path class="st6" d="M692.1,107.3c0,1.8,1.1,3.4,2.5,3.4c0.7,0,1.3-0.1,1.6-0.3v6.3c-1.2,0.6-2.9,1.2-4.7,1.2
			c-4.3,0-7.9-1.7-8.1-6.4h-0.2c-2.6,4.7-6.3,7.1-12,7.1c-7.8,0-12.5-4.2-12.5-13.5c0-10.7,4.7-13,11.2-15.1l7.5-2.1
			c3.5-1,5.6-2,5.6-6.2c0-4.4-1.5-7.2-6.6-7.2c-6.4,0-7.3,4.6-7.3,9.2h-9.1c0-10.3,4.2-15.8,16.9-15.8c8.5,0,15.3,3.3,15.3,11.8
			V107.3z M682.9,91.9c-2.7,2-7.8,3-10.7,4.5c-2.8,1.3-3.9,4.2-3.9,7.8c0,4,2,7.2,6,7.2c5.8,0,8.7-4.3,8.7-11.5V91.9z"/>
		<path class="st6" d="M701.9,53.4h9.7v21.4h0.2c1.8-4.3,5.6-6.9,10.9-6.9c7.3,0,14.9,3.3,14.9,24.7c0,16.6-4.6,25.9-15.7,25.9
			c-6.8,0-9.4-4-10.6-7.2H711v5.9h-9.1V53.4z M719.2,110.9c6.8,0,8.1-6.9,8.1-17.8c0-13-2.1-17.4-7.5-17.4c-7.5,0-8.8,6.6-8.8,18.2
			C711,104.1,712.6,110.9,719.2,110.9z"/>
		<path class="st6" d="M745.4,53.4h9.7v63.9h-9.7V53.4z"/>
		<path class="st6" d="M773.1,94.5v2.8c0,6.4,0.8,14.7,8.1,14.7c6.9,0,7.7-7.8,7.7-10.7h9.1c0,10.8-6.4,17.4-16.9,17.4
			c-7.9,0-17.6-2.3-17.6-24.6c0-12.6,2.8-26,17.8-26c13.4,0,17,8.1,17,21.5v5.1H773.1z M788.6,87.9v-2.6c0-6.1-2-10.7-7.4-10.7
			c-6.1,0-8.1,6.1-8.1,12.3v1H788.6z"/>
		<path class="st6" d="M216,146.1h-15.2v-8.6h40.4v8.6h-14.9v55.3H216V146.1z"/>
		<path class="st6" d="M248.1,178.6v2.8c0,6.4,0.8,14.7,8.1,14.7c6.9,0,7.7-7.8,7.7-10.7h9.1c0,10.8-6.4,17.4-16.9,17.4
			c-7.9,0-17.6-2.3-17.6-24.6c0-12.6,2.8-26,17.8-26c13.4,0,17,8.1,17,21.5v5.1H248.1z M263.5,172v-2.6c0-6.1-2-10.7-7.4-10.7
			c-6.1,0-8.1,6.1-8.1,12.3v1H263.5z"/>
		<path class="st6" d="M313.6,183.9c-0.7,11.5-4.5,18.8-16.5,18.8c-14,0-17.9-10.3-17.9-25.3s3.9-25.3,17.9-25.3
			c14.3-0.3,16.6,11.4,16.6,17.3h-9.7c0-4.5-1.2-10.4-6.9-10.1c-6.9,0-8.2,7.5-8.2,18.2c0,10.6,1.3,18.2,8.2,18.2
			c5.4,0.1,7.3-4.4,7.3-11.6H313.6z"/>
		<path class="st6" d="M320.4,137.5h9.7v20.9l0.3,0.2c2.8-4.2,6.8-6.6,11.8-6.6c7.3,0,12,3.3,12,13.1v36.3h-9.7v-33
			c0-6.4-1.8-8.7-6.7-8.7c-3.9,0-7.7,3-7.7,9.4v32.3h-9.7V137.5z"/>
		<path class="st6" d="M363.4,153.3h9.1v5.6h0.3c2.4-4.3,7-6.9,12.3-6.9c7.3,0,12,3.3,12,13.1v36.3h-9.7v-33c0-6.4-1.7-8.7-6.7-8.7
			c-3.9,0-7.7,3-7.7,9.4v32.3h-9.7V153.3z"/>
		<path class="st6" d="M404.6,177.3c0-15,3.9-25.3,17.9-25.3s18,10.3,18,25.3s-4.7,25.3-18,25.3
			C409.2,202.7,404.6,192.4,404.6,177.3z M422.5,195.5c7.1,0,8.3-5.9,8.3-18.2c0-10.6-1.3-18.2-8.3-18.2c-6.9,0-8.2,7.5-8.2,18.2
			C414.2,189.6,415.6,195.5,422.5,195.5z"/>
		<path class="st6" d="M448.3,137.5h9.7v63.9h-9.7V137.5z"/>
		<path class="st6" d="M465.9,177.3c0-15,3.9-25.3,17.9-25.3s18,10.3,18,25.3s-4.7,25.3-18,25.3
			C470.5,202.7,465.9,192.4,465.9,177.3z M483.7,195.5c7.1,0,8.3-5.9,8.3-18.2c0-10.6-1.3-18.2-8.3-18.2c-6.9,0-8.2,7.5-8.2,18.2
			C475.5,189.6,476.9,195.5,483.7,195.5z"/>
		<path class="st6" d="M518.8,205.5c0,3,2.7,5.7,7,5.7c5,0,8.1-3.4,8.1-9v-7.8h-0.2c-1.8,4.2-6.3,6.6-10.9,6.6
			c-11.2,0-14.4-11-14.4-24.2c0-10.6,1.6-24.8,15.3-24.8c5.7,0,9.7,3.7,10.6,7.2h0.2v-5.9h9.1v45.8c0,11.7-5,18.8-18,18.8
			c-14.3,0-15.9-8.4-15.9-12.3H518.8z M525.6,193.4c7.5,0,8.3-9.5,8.3-17.1c0-7.9-1-16.6-7.7-16.6c-7,0-8.1,7.2-8.1,16.1
			C518.1,184.1,518.5,193.4,525.6,193.4z"/>
		<path class="st6" d="M558.6,153.3l8.3,36.1h0.2l7.7-36.1h10.1l-13.2,49.9c-3.8,13.2-6.8,14.9-16.8,14.7c-1.3,0-2.5-0.1-3.8-0.4
			v-7.7c1.1,0.3,2.1,0.4,3.1,0.4c3.3,0,5.5-0.6,6.5-3.8l1.3-3.9l-13.7-49.2H558.6z"/>
	</g>
	<g id="android-icon-192x192_00000114785373336093809490000013065382551385714330_">
		<g id="Group-6_00000074405883625066599330000010906512892254782379_" transform="translate(16.000000, 7.000000)">
			<g id="Group-3_00000124854695326915107270000004168126638523791290_">
				<defs>
					<filter id="Adobe_OpacityMaskFilter" filterUnits="userSpaceOnUse" x="-16" y="0.3" width="86" height="84.5">
						<feColorMatrix  type="matrix" values="1 0 0 0 0  0 1 0 0 0  0 0 1 0 0  0 0 0 1 0"/>
					</filter>
				</defs>
				
					<mask maskUnits="userSpaceOnUse" x="-16" y="0.3" width="86" height="84.5" id="mask-2_00000175293117053288514560000008932525991944933561_">
					<g class="st2">
						<polygon id="path-1_00000145017025361768487280000005023690348115230341_" class="st3" points="-16,0.3 70,0.3 70,84.8 
							-16,84.8 						"/>
					</g>
				</mask>
				<path id="Fill-1_00000111896362719103589360000002297164204548563613_" class="st8" d="M20.8,84.8H-16c0-46.6,38.6-84.5,86-84.5
					v36.2C42.9,36.5,20.8,58.1,20.8,84.8"/>
			</g>
			<path id="Fill-4_00000021798679701665063580000002087732345037021337_" class="st3" d="M144,177.8c-47.4,0-86-38.1-86-85h36.8
				c0,26.8,22.1,48.6,49.2,48.6V177.8z"/>
		</g>
	</g>
</g>
</svg>
