<svg id="Layer_1" data-name="Layer 1" xmlns="http://www.w3.org/2000/svg" viewBox="0 0 159.81 222.05"><defs><style>.cls-1{fill:#fff;}</style></defs><path class="cls-1" d="M158.05,137.39h96V112h-96Zm32.69-20.69h8V134h-8V116.7Zm-12,0h8V134h-8Zm-13.34,0h8V134h-8Z" transform="translate(-120.1 -11.95)"/><path class="cls-1" d="M158.05,203.49v1.89h96V180h-96Zm32.69-18.8h8V202h-8Zm-12,0h8V202h-8Zm-13.34,0h8V202h-8Z" transform="translate(-120.1 -11.95)"/><path class="cls-1" d="M158.05,170.72h96V145.34h-96ZM233.4,150h8v17.33h-8V150Zm-12,0h8v17.33h-8V150Zm-13.33,0h8v17.33h-8V150Z" transform="translate(-120.1 -11.95)"/><path class="cls-1" d="M138.56,180.82a4,4,0,1,0,.1,2.07,3.55,3.55,0,0,0,.1-.86A4,4,0,0,0,138.56,180.82Z" transform="translate(-120.1 -11.95)"/><path class="cls-1" d="M142.74,223.33a4,4,0,1,0,4,4A4,4,0,0,0,142.74,223.33Z" transform="translate(-120.1 -11.95)"/><path class="cls-1" d="M126.74,203.33a4,4,0,1,0,4,4A4,4,0,0,0,126.74,203.33Z" transform="translate(-120.1 -11.95)"/><path class="cls-1" d="M275.63,132.53h-9.1l-10.38,7.24h0a1.2,1.2,0,0,1-.32.16l-.07,0a1.35,1.35,0,0,1-.35.06H175.8l-9.61,2.71h88.9Z" transform="translate(-120.1 -11.95)"/><polygon class="cls-1" points="156.47 89.71 136.61 99.56 136.61 117.96 136.61 119.27 136.61 120.58 136.61 124.24 141.85 120.58 143.73 119.27 145.61 117.96 159.81 108.06 159.81 88.05 159.81 88.05 156.47 89.71"/><path class="cls-1" d="M264.61,167.2l-8.46,5.9h0a1.2,1.2,0,0,1-.32.16l-.07,0a1.35,1.35,0,0,1-.35.06H180.52l-14.33,4h88.9l20.54-10.18Z" transform="translate(-120.1 -11.95)"/><polygon class="cls-1" points="136.61 192.23 159.81 176.06 159.81 156.05 136.61 167.56 136.61 192.23"/><polygon class="cls-1" points="136.61 152.63 136.61 153.94 136.61 155.25 136.61 157.57 139.94 155.25 141.82 153.94 143.69 152.63 159.81 141.4 159.81 121.39 136.61 132.89 136.61 152.63"/><path class="cls-1" d="M126.74,203.33a4,4,0,1,0,4,4A4,4,0,0,0,126.74,203.33Z" transform="translate(-120.1 -11.95)"/><path class="cls-1" d="M138.71,227.36a4,4,0,1,0,4-4A4,4,0,0,0,138.71,227.36Z" transform="translate(-120.1 -11.95)"/><path class="cls-1" d="M134.74,178a4,4,0,1,0,3.92,4.89,3.55,3.55,0,0,0,.1-.86,4.08,4.08,0,0,0-4-4Z" transform="translate(-120.1 -11.95)"/><polygon class="cls-1" points="35.52 132.75 35.33 132.75 29.31 132.75 29.31 134.08 22.64 134.08 22.64 136.75 29.31 136.75 29.31 138.75 22.64 138.75 22.64 141.41 29.31 141.41 29.31 143.41 22.64 143.41 22.64 146.08 29.31 146.08 29.31 147.41 35.33 147.41 35.56 147.41 35.56 132.75 35.52 132.75"/><path class="cls-1" d="M155.43,180.5H141.2a6.66,6.66,0,1,0,.08,2.62h14.38V180.5Zm-16.77,2.39a3.76,3.76,0,1,1,.1-.86A3.55,3.55,0,0,1,138.66,182.89Z" transform="translate(-120.1 -11.95)"/><path class="cls-1" d="M155.43,189.84h-16a1.32,1.32,0,0,0-1.06.53l-8.23,11.28a6.57,6.57,0,0,0-3.38-.93,6.65,6.65,0,1,0,5.34,2.7l8-11h15.59v-2.61Zm-28.69,21.54a4,4,0,1,1,4-4A4,4,0,0,1,126.74,211.38Z" transform="translate(-120.1 -11.95)"/><path class="cls-1" d="M155.43,202.18H144.55v-3.55h11.11V196H143.24a1.31,1.31,0,0,0-1.31,1.31v23.45a6.64,6.64,0,1,0,2.62.2V204.8h11.11v-2.62Zm-8.67,25.18a4,4,0,1,1-4-4A4,4,0,0,1,146.76,227.36Z" transform="translate(-120.1 -11.95)"/><path class="cls-1" d="M176.69,59.81c-1.43-1-2.7-1.79-3.73-2.39C174,58,175.26,58.82,176.69,59.81Z" transform="translate(-120.1 -11.95)"/><path class="cls-1" d="M179,61.49c-.75-.57-1.48-1.11-2.18-1.59C177.53,60.38,178.26,60.92,179,61.49Z" transform="translate(-120.1 -11.95)"/><path class="cls-1" d="M172.79,57.31l-1.26-.7Z" transform="translate(-120.1 -11.95)"/><path class="cls-1" d="M171.37,56.52l-.81-.43Z" transform="translate(-120.1 -11.95)"/><path class="cls-1" d="M212.54,65.08c.42-1,.87-1.9,1.31-2.82C213.41,63.18,213,64.11,212.54,65.08Z" transform="translate(-120.1 -11.95)"/><path class="cls-1" d="M181.61,63.56c-.78-.66-1.55-1.28-2.3-1.85C180.05,62.28,180.83,62.9,181.61,63.56Z" transform="translate(-120.1 -11.95)"/><path class="cls-1" d="M184.39,66c-.83-.78-1.65-1.51-2.47-2.2C182.74,64.51,183.56,65.24,184.39,66Z" transform="translate(-120.1 -11.95)"/><path class="cls-1" d="M171.28,53.53l.13.06Z" transform="translate(-120.1 -11.95)"/><path class="cls-1" d="M173.15,54.51l.33.19Z" transform="translate(-120.1 -11.95)"/><path class="cls-1" d="M170.49,56.06l-.3-.15Z" transform="translate(-120.1 -11.95)"/><path class="cls-1" d="M174.92,55.55l.36.21Z" transform="translate(-120.1 -11.95)"/><path class="cls-1" d="M172.46,54.13l.29.16Z" transform="translate(-120.1 -11.95)"/><path class="cls-1" d="M174,55l.36.22Z" transform="translate(-120.1 -11.95)"/><path class="cls-1" d="M171.92,53.85l.22.11Z" transform="translate(-120.1 -11.95)"/><path class="cls-1" d="M228.59,40.82c.49-.52,1-1,1.44-1.49C229.56,39.8,229.08,40.3,228.59,40.82Z" transform="translate(-120.1 -11.95)"/><path class="cls-1" d="M171.46,53.62l.23.11Z" transform="translate(-120.1 -11.95)"/><path class="cls-1" d="M218.28,54.17c-.49.79-1,1.59-1.47,2.43C217.3,55.76,217.79,55,218.28,54.17Z" transform="translate(-120.1 -11.95)"/><path class="cls-1" d="M216,58.06c-.48.86-.95,1.72-1.4,2.62C215.06,59.78,215.53,58.92,216,58.06Z" transform="translate(-120.1 -11.95)"/><path class="cls-1" d="M239.84,31.09l-.57.4Z" transform="translate(-120.1 -11.95)"/><path class="cls-1" d="M237.55,32.73l-1,.75Z" transform="translate(-120.1 -11.95)"/><path class="cls-1" d="M238.85,31.77l-.78.58Z" transform="translate(-120.1 -11.95)"/><path class="cls-1" d="M240.48,30.67l-.29.19Z" transform="translate(-120.1 -11.95)"/><path class="cls-1" d="M214.72,54.83c.59-1,1.19-2,1.78-2.9C215.91,52.87,215.31,53.81,214.72,54.83Z" transform="translate(-120.1 -11.95)"/><path class="cls-1" d="M210.32,63.46l.05,0c.24-.56.48-1.13.73-1.68C210.85,62.38,210.57,62.89,210.32,63.46Z" transform="translate(-120.1 -11.95)"/><path class="cls-1" d="M212.14,59.65c.51-1,1-2,1.56-3C213.17,57.65,212.65,58.63,212.14,59.65Z" transform="translate(-120.1 -11.95)"/><path class="cls-1" d="M217.37,50.54c.89-1.33,1.78-2.6,2.65-3.77C219.15,47.94,218.26,49.2,217.37,50.54Z" transform="translate(-120.1 -11.95)"/><path class="cls-1" d="M236,34l-1.13.93C235.24,34.57,235.63,34.24,236,34Z" transform="translate(-120.1 -11.95)"/><path class="cls-1" d="M220.63,50.59c-.5.73-1,1.47-1.51,2.25C219.62,52.06,220.13,51.32,220.63,50.59Z" transform="translate(-120.1 -11.95)"/><path class="cls-1" d="M225.41,44.36c-.51.6-1,1.22-1.53,1.87C224.4,45.58,224.91,45,225.41,44.36Z" transform="translate(-120.1 -11.95)"/><path class="cls-1" d="M223,47.33c-.51.66-1,1.34-1.53,2.05C222,48.67,222.51,48,223,47.33Z" transform="translate(-120.1 -11.95)"/><path class="cls-1" d="M234.18,35.46l-1.27,1.13Z" transform="translate(-120.1 -11.95)"/><path class="cls-1" d="M227.76,41.7q-.75.81-1.5,1.68Q227,42.51,227.76,41.7Z" transform="translate(-120.1 -11.95)"/><path class="cls-1" d="M232.19,37.25l-1.38,1.31C231.28,38.11,231.74,37.66,232.19,37.25Z" transform="translate(-120.1 -11.95)"/><path class="cls-1" d="M176,56.2l.28.18Z" transform="translate(-120.1 -11.95)"/><path class="cls-1" d="M183.16,61.45l.62.53Z" transform="translate(-120.1 -11.95)"/><path class="cls-1" d="M181.73,60.29l.6.47Z" transform="translate(-120.1 -11.95)"/><path class="cls-1" d="M184.63,62.71l.65.58Z" transform="translate(-120.1 -11.95)"/><path class="cls-1" d="M186.31,64.24l-.19-.18a1.62,1.62,0,0,0,.19.18Z" transform="translate(-120.1 -11.95)"/><path class="cls-1" d="M180.38,59.25l.52.39Z" transform="translate(-120.1 -11.95)"/><path class="cls-1" d="M179.13,58.33l.41.29Z" transform="translate(-120.1 -11.95)"/><path class="cls-1" d="M210.32,63.46c.25-.57.53-1.08.78-1.64.35-.73.68-1.46,1-2.17.51-1,1-2,1.56-3,.34-.63.67-1.26,1-1.86.59-1,1.19-2,1.78-2.9.29-.46.58-1,.87-1.39.89-1.34,1.78-2.6,2.65-3.77,9.38-12.57,19-18.28,19.38-18.51a1.3,1.3,0,0,1,1.79.46,1.32,1.32,0,0,1-.46,1.8l-.25.15-.29.19-.35.23-.57.4-.42.28-.78.58-.52.38-1,.75L236,34c-.36.28-.75.61-1.13.93l-.68.57-1.27,1.13-.72.66c-.45.41-.91.86-1.38,1.31l-.78.77c-.47.47-.95,1-1.44,1.49l-.83.88q-.75.81-1.5,1.68l-.85,1c-.5.6-1,1.22-1.53,1.87l-.86,1.1c-.51.66-1,1.34-1.53,2.05-.29.39-.57.8-.86,1.21-.5.73-1,1.47-1.51,2.25-.28.43-.56.88-.84,1.33-.49.79-1,1.59-1.47,2.43-.27.47-.53,1-.8,1.46-.48.86-.95,1.72-1.4,2.62-.26.51-.51,1-.76,1.58-.44.92-.89,1.85-1.31,2.82-.6,1.38-1.18,2.78-1.72,4.24,5,1.56,23.82,6.33,38.15-3.9,12.56-9,18.63-27,18.06-53.47-7.08.14-42,1.79-55.41,20.92-6.09,8.7-6.93,20-2.5,33.48.39-1,.83-1.9,1.25-2.85Z" transform="translate(-120.1 -11.95)"/><path class="cls-1" d="M187.32,69c-1-1-1.95-2-2.93-2.94-.83-.78-1.65-1.51-2.47-2.2a3.88,3.88,0,0,0-.31-.26c-.78-.66-1.56-1.28-2.3-1.85l-.3-.22c-.75-.57-1.48-1.11-2.18-1.59l-.14-.09c-1.43-1-2.7-1.79-3.73-2.39l-.17-.11-1.26-.7-.16-.09-.81-.43-.07,0-.3-.15a1.31,1.31,0,0,1,1.09-2.38l.13.06.05,0,.23.11.23.12.22.11.32.17.29.16.4.22.33.19.5.28.36.22.58.35.36.21.69.44.28.18c.88.56,1.85,1.21,2.88,1.95l.41.29.84.63.52.39.83.65.6.47.83.69.62.53c.28.23.56.48.85.73l.65.58.84.77.19.18h0c.9.86,1.81,1.76,2.72,2.72,1.65-3.76,5-13.34.15-20.26-5.57-8-20.64-10.32-43.62-6.88.87,5.43,5.11,26.9,18.12,33C170.22,75.86,178.18,74.56,187.32,69Z" transform="translate(-120.1 -11.95)"/><path class="cls-1" d="M188.22,70c.29.33.58.66.87,1A48.51,48.51,0,0,1,200.67,97.1c.05.44.1.88.13,1.33s.07.88.1,1.33l-34.71,9.81h88.9l20.54-10.19H205.27c0-.44,0-.88,0-1.31s0-.88.05-1.31a90.81,90.81,0,0,1,4.58-25l.42-1.24c.15-.42.3-.83.46-1.24l-1.7-3c-.25.62-.49,1.25-.73,1.89s-.47,1.28-.7,1.94A93.28,93.28,0,0,0,202.89,94a51.41,51.41,0,0,0-12-24.94c-.31-.36-.62-.72-.94-1.07L189,67l-1.71,2Z" transform="translate(-120.1 -11.95)"/><path class="cls-1" d="M226.26,43.38l-.85,1Z" transform="translate(-120.1 -11.95)"/><path class="cls-1" d="M230,39.33l.78-.77Z" transform="translate(-120.1 -11.95)"/><path class="cls-1" d="M214.61,60.68c-.26.51-.51,1-.76,1.58C214.1,61.73,214.35,61.19,214.61,60.68Z" transform="translate(-120.1 -11.95)"/><path class="cls-1" d="M223.88,46.23l-.86,1.1Z" transform="translate(-120.1 -11.95)"/><path class="cls-1" d="M216.81,56.6c-.27.47-.53,1-.8,1.46C216.28,57.57,216.54,57.07,216.81,56.6Z" transform="translate(-120.1 -11.95)"/><path class="cls-1" d="M221.49,49.38c-.29.39-.57.8-.86,1.21C220.92,50.18,221.2,49.77,221.49,49.38Z" transform="translate(-120.1 -11.95)"/><path class="cls-1" d="M213.7,56.69c.34-.63.68-1.26,1-1.86C214.37,55.43,214,56.06,213.7,56.69Z" transform="translate(-120.1 -11.95)"/><path class="cls-1" d="M219.12,52.84c-.28.43-.56.88-.84,1.33C218.56,53.72,218.84,53.27,219.12,52.84Z" transform="translate(-120.1 -11.95)"/><path class="cls-1" d="M239.27,31.49l-.42.28Z" transform="translate(-120.1 -11.95)"/><path class="cls-1" d="M236.59,33.48,236,34Z" transform="translate(-120.1 -11.95)"/><path class="cls-1" d="M211.1,61.82c.34-.73.69-1.46,1-2.17C211.78,60.36,211.45,61.09,211.1,61.82Z" transform="translate(-120.1 -11.95)"/><path class="cls-1" d="M232.91,36.59l-.72.66Z" transform="translate(-120.1 -11.95)"/><path class="cls-1" d="M234.86,34.89l-.68.57Z" transform="translate(-120.1 -11.95)"/><path class="cls-1" d="M216.5,51.93c.29-.46.58-1,.87-1.39C217.08,51,216.79,51.47,216.5,51.93Z" transform="translate(-120.1 -11.95)"/><path class="cls-1" d="M240.73,30.52l-.25.15Z" transform="translate(-120.1 -11.95)"/><path class="cls-1" d="M228.59,40.82l-.83.88Z" transform="translate(-120.1 -11.95)"/><path class="cls-1" d="M240.19,30.86l-.35.23Z" transform="translate(-120.1 -11.95)"/><path class="cls-1" d="M238.07,32.35l-.52.38Z" transform="translate(-120.1 -11.95)"/><path class="cls-1" d="M176.83,59.9l-.14-.09Z" transform="translate(-120.1 -11.95)"/><path class="cls-1" d="M172.14,54l.32.17Z" transform="translate(-120.1 -11.95)"/><path class="cls-1" d="M171.69,53.73l.23.12Z" transform="translate(-120.1 -11.95)"/><path class="cls-1" d="M172.75,54.29l.4.22Z" transform="translate(-120.1 -11.95)"/><path class="cls-1" d="M182.33,60.76l.83.69Z" transform="translate(-120.1 -11.95)"/><path class="cls-1" d="M171.41,53.59l.05,0Z" transform="translate(-120.1 -11.95)"/><path class="cls-1" d="M176.25,56.38c.88.56,1.85,1.22,2.88,1.95C178.1,57.59,177.13,56.94,176.25,56.38Z" transform="translate(-120.1 -11.95)"/><path class="cls-1" d="M170.56,56.09l-.07,0Z" transform="translate(-120.1 -11.95)"/><path class="cls-1" d="M174.34,55.2l.58.35Z" transform="translate(-120.1 -11.95)"/><path class="cls-1" d="M179.54,58.62l.84.63Z" transform="translate(-120.1 -11.95)"/><path class="cls-1" d="M173.48,54.7l.5.28Z" transform="translate(-120.1 -11.95)"/><path class="cls-1" d="M180.9,59.64l.83.65Z" transform="translate(-120.1 -11.95)"/><path class="cls-1" d="M181.92,63.82a3.88,3.88,0,0,0-.31-.26A3.88,3.88,0,0,1,181.92,63.82Z" transform="translate(-120.1 -11.95)"/><path class="cls-1" d="M175.28,55.76l.69.44Z" transform="translate(-120.1 -11.95)"/><path class="cls-1" d="M179.31,61.71l-.3-.22Z" transform="translate(-120.1 -11.95)"/><path class="cls-1" d="M173,57.42l-.17-.11Z" transform="translate(-120.1 -11.95)"/><path class="cls-1" d="M171.53,56.61l-.16-.09Z" transform="translate(-120.1 -11.95)"/><path class="cls-1" d="M183.78,62c.28.23.56.48.85.73C184.34,62.46,184.06,62.21,183.78,62Z" transform="translate(-120.1 -11.95)"/><path class="cls-1" d="M185.28,63.29l.84.77Z" transform="translate(-120.1 -11.95)"/></svg>