<?xml version="1.0" encoding="UTF-8"?>
<svg id="Logo" xmlns="http://www.w3.org/2000/svg" version="1.1" viewBox="0 0 413.781 89.095">
  <!-- Generator: Adobe Illustrator 30.1.0, SVG Export Plug-In . SVG Version: 2.1.1 Build 136)  -->
  <defs>
    <style>
      .st0 {
        fill: #0094ff;
      }

      .st1 {
        fill: #003778;
      }
    </style>
  </defs>
  <g>
    <polygon class="st0" points="10.157 40.964 10.157 20.691 0 20.691 0 51.122 30.389 51.122 30.389 40.964 10.157 40.964"/>
    <polygon class="st1" points="50.62 .376 0 .376 0 15.592 10.074 15.592 10.074 10.617 40.546 10.617 40.546 40.964 35.447 40.964 35.447 51.122 50.62 51.122 50.62 .376"/>
    <polygon class="st1" points="64.08 1.003 79.546 1.003 79.546 38.289 101.7 38.289 101.7 51.122 64.08 51.122 64.08 1.003"/>
    <polygon class="st1" points="108.305 1.003 147.053 1.003 147.053 13.836 123.729 13.836 123.729 20.106 143.709 20.106 143.709 32.019 123.729 32.019 123.729 51.122 108.263 51.122 108.263 1.003 108.305 1.003"/>
    <polygon class="st0" points="186.931 51.373 158.883 51.373 158.883 .878 186.931 .878 186.931 4.138 162.52 4.138 162.52 23.241 185.552 23.241 185.552 26.501 162.52 26.501 162.52 48.196 186.931 48.196 186.931 51.373"/>
    <path class="st0" d="M235.754,51.373h-3.637l-30.347-44.852h-.251c.251,5.309.418,9.363.418,12.08v32.73h-3.428V.878h3.553l30.347,44.81h.209c-.209-4.138-.334-8.109-.334-11.788V.878h3.469v50.495h0Z"/>
    <polygon class="st0" points="278.265 51.373 250.258 51.373 250.258 .878 278.265 .878 278.265 4.138 253.895 4.138 253.895 23.241 276.927 23.241 276.927 26.501 253.895 26.501 253.895 48.196 278.265 48.196 278.265 51.373"/>
    <path class="st0" d="M293.438,29.386v22.029h-3.553V.878h12.206c6.354,0,11.035,1.17,14.128,3.469s4.556,5.81,4.556,10.45c0,3.428-.878,6.27-2.717,8.611-1.839,2.341-4.556,4.013-8.235,4.974l13.919,22.99h-4.347l-13.251-22.029h-12.665v.042h-.042ZM293.438,26.376h9.739c4.305,0,7.691-.961,10.032-2.842,2.383-1.923,3.553-4.682,3.553-8.402,0-3.804-1.17-6.604-3.469-8.402-2.299-1.797-6.145-2.675-11.453-2.675h-8.402v22.321h0Z"/>
    <path class="st0" d="M352.126,25.331h18.476v22.489c-4.849,2.048-10.283,3.051-16.386,3.051-7.9,0-13.961-2.174-18.141-6.604-4.138-4.431-6.354-10.617-6.354-18.685,0-5.058,1.045-9.489,3.135-13.376,2.09-3.887,5.1-6.897,8.987-8.987,3.887-2.132,8.402-3.219,13.418-3.219,5.434,0,10.366,1.003,14.714,3.01l-1.421,3.135c-4.347-1.965-8.862-3.01-13.501-3.01-6.604,0-11.871,1.965-15.675,6.019s-5.81,9.405-5.81,16.219c0,7.44,1.839,13.042,5.518,16.762,3.678,3.762,9.071,5.601,16.219,5.601,4.64,0,8.527-.627,11.704-1.923v-17.264h-14.923v-3.219c.125,0,.042,0,.042,0Z"/>
    <polygon class="st0" points="395.013 28.341 409.936 .878 413.781 .878 396.769 31.685 396.769 51.122 393.09 51.122 393.09 31.977 376.077 .878 380.132 .878 395.013 28.341"/>
  </g>
  <g>
    <path class="st1" d="M309.357,62.567c7.838,0,12.448,5.852,12.448,13.37,0,7.306-4.61,13.158-12.448,13.158s-12.448-5.852-12.448-13.158c0-7.518,4.61-13.37,12.448-13.37ZM309.357,84.414c5,0,6.88-4.256,6.88-8.477,0-4.433-1.88-8.689-6.88-8.689s-6.88,4.256-6.88,8.689c0,4.22,1.879,8.477,6.88,8.477Z"/>
    <path class="st1" d="M329.218,80.087c0,3.369,2.625,4.681,5.603,4.681,1.951,0,4.929-.567,4.929-3.156,0-2.731-3.794-3.192-7.518-4.185-3.759-.993-7.554-2.447-7.554-7.2,0-5.178,4.894-7.661,9.469-7.661,5.284,0,10.143,2.305,10.143,8.157h-5.39c-.177-3.05-2.341-3.83-5.001-3.83-1.773,0-3.83.745-3.83,2.873,0,1.951,1.205,2.199,7.554,3.83,1.844.461,7.518,1.632,7.518,7.377,0,4.646-3.653,8.122-10.533,8.122-5.604,0-10.852-2.766-10.782-9.008h5.391Z"/>
    <path class="st1" d="M348.608,63.17h11.42c6.313,0,8.76,4.008,8.76,8.122s-2.447,8.121-8.76,8.121h-5.852v9.079h-5.568v-25.322ZM354.176,75.086h4.326c2.589,0,4.894-.567,4.894-3.794s-2.305-3.795-4.894-3.795h-4.326v7.589Z"/>
    <path class="st1" d="M383.414,62.567c7.838,0,12.448,5.852,12.448,13.37,0,7.306-4.61,13.158-12.448,13.158s-12.448-5.852-12.448-13.158c0-7.518,4.61-13.37,12.448-13.37ZM383.414,84.414c5,0,6.88-4.256,6.88-8.477,0-4.433-1.88-8.689-6.88-8.689s-6.88,4.256-6.88,8.689c0,4.22,1.879,8.477,6.88,8.477Z"/>
    <path class="st1" d="M401.933,82.607c0,2.359,1.837,3.277,3.923,3.277,1.366,0,3.452-.397,3.452-2.21,0-1.912-2.657-2.235-5.264-2.93-2.632-.695-5.289-1.713-5.289-5.04,0-3.625,3.426-5.363,6.629-5.363,3.7,0,7.102,1.614,7.102,5.71h-3.774c-.124-2.135-1.638-2.681-3.501-2.681-1.241,0-2.681.521-2.681,2.011,0,1.366.844,1.539,5.288,2.682,1.291.323,5.264,1.142,5.264,5.165,0,3.253-2.557,5.686-7.374,5.686-3.923,0-7.598-1.937-7.549-6.307h3.774Z"/>
  </g>
  <metadata>
    <sfw xmlns="http://ns.adobe.com/SaveForWeb/1.0/">
      <slices/>
      <sliceSourceBounds x="181" y="-854.88" width="416.72" height="330.33" bottomLeftOrigin="true"/>
    </sfw>
  </metadata>
</svg>