<?xml version="1.0" encoding="UTF-8" standalone="no"?>
<svg
   xml:space="preserve"
   viewBox="0 0 113.5 114"
   y="0px"
   x="0px"
   id="Layer_1"
   version="1.1"
   sodipodi:docname="operatorfabric-icon-black.svg"
   width="113.5"
   height="114"
   inkscape:export-filename="/Users/johnmertic/Code/lfenergy-artwork/projects/operatorfabric/icon/black/operatorfabric-icon-black.png"
   inkscape:export-xdpi="377.10001"
   inkscape:export-ydpi="377.10001"
   inkscape:version="1.1.2 (b8e25be8, 2022-02-05)"
   xmlns:inkscape="http://www.inkscape.org/namespaces/inkscape"
   xmlns:sodipodi="http://sodipodi.sourceforge.net/DTD/sodipodi-0.dtd"
   xmlns="http://www.w3.org/2000/svg"
   xmlns:svg="http://www.w3.org/2000/svg"
   xmlns:rdf="http://www.w3.org/1999/02/22-rdf-syntax-ns#"
   xmlns:cc="http://creativecommons.org/ns#"
   xmlns:dc="http://purl.org/dc/elements/1.1/"><sodipodi:namedview
   id="namedview3298"
   pagecolor="#ffffff"
   bordercolor="#666666"
   borderopacity="1.0"
   inkscape:pageshadow="2"
   inkscape:pageopacity="0.0"
   inkscape:pagecheckerboard="0"
   showgrid="false"
   inkscape:zoom="1.0076756"
   inkscape:cx="503.63429"
   inkscape:cy="52.59629"
   inkscape:window-width="1485"
   inkscape:window-height="480"
   inkscape:window-x="58"
   inkscape:window-y="25"
   inkscape:window-maximized="0"
   inkscape:current-layer="Layer_1" /><metadata
   id="metadata1178"><rdf:RDF><cc:Work
       rdf:about=""><dc:format>image/svg+xml</dc:format><dc:type
         rdf:resource="http://purl.org/dc/dcmitype/StillImage" /><dc:title /></cc:Work></rdf:RDF></metadata><defs
   id="defs1176"><filter
   id="filter1182"
   style="color-interpolation-filters:sRGB"
   x="0"
   y="0"
   width="1"
   height="1"><feColorMatrix
     id="feColorMatrix1180"
     values="0.21 0.72 0.072 0 0 0.21 0.72 0.072 0 0 0.21 0.72 0.072 0 0 0 0 0 1 0 " /></filter>
	
	
	
	
	
	
	
	
	
	
	
	
	
	
	
	
	
	
	
	
</defs>
<style
   id="style1041"
   type="text/css">
	.st0{fill:#009ADE;}
	.st1{fill:#003764;}
	.st2{fill:#410099;}
	.st3{fill:#7473C0;}
	.st4{fill:#FF647D;}
</style>
<polygon
   id="polygon1095"
   points=""
   class="st2"
   style="filter:url(#filter1182)" /><polygon
   id="polygon1097"
   points=""
   class="st2"
   style="filter:url(#filter1182)" /><g
   id="g1115"
   style="filter:url(#filter1182)">
		<path
   id="path1099"
   d="m 44.1,84.4 c 0.8,-2 0.4,-4.3 -1.2,-5.8 L 35.4,71 c -1.5,-1.5 -3.8,-2 -5.8,-1.2 l -8.9,3.7 -4,23.8 v 0 l 23.8,-4 z"
   class="st2" />
		<path
   id="path1101"
   d="m 73,21.2 -3.7,8.9 c -0.8,2 -0.4,4.3 1.2,5.8 l 7.6,7.6 c 1.5,1.5 3.8,2 5.8,1.2 l 8.9,-3.7 4,-23.8 z"
   class="st2" />
		<path
   id="path1103"
   d="M 67,85.3 C 66.2,83.3 64.2,82 62.1,82 H 51.3 c -2.2,0 -4.1,1.3 -4.9,3.3 l -3.7,9 14,19.7 h 0.1 l 14,-19.7 z"
   class="st2" />
		<path
   id="path1105"
   d="M 93.7,43.3 84.8,47 c -2,0.8 -3.3,2.8 -3.3,4.9 v 10.7 c 0,2.2 1.3,4.1 3.3,4.9 l 9,3.7 19.7,-14 v 0 z"
   class="st2" />
		<path
   id="path1107"
   d="M 83.9,69.8 C 81.9,69 79.6,69.4 78.1,71 l -7.6,7.6 c -1.5,1.5 -2,3.8 -1.2,5.8 l 3.7,9 23.8,4 v 0 l -4,-23.8 z"
   class="st2" />
		<path
   id="path1109"
   d="m 20.6,41 8.9,3.7 c 2,0.8 4.3,0.4 5.8,-1.2 l 7.6,-7.6 c 1.5,-1.5 2,-3.8 1.2,-5.8 l -3.7,-8.9 -23.8,-4 z"
   class="st2" />
		<path
   id="path1111"
   d="m 28.6,67.6 c 2,-0.8 3.3,-2.8 3.3,-4.9 V 51.9 c 0,-2.2 -1.3,-4.1 -3.3,-4.9 L 19.7,43.3 0,57.3 v 0 l 19.7,14 z"
   class="st2" />
		<path
   id="path1113"
   d="m 42.7,20.2 3.7,8.9 c 0.8,2 2.8,3.3 4.9,3.3 H 62 c 2.2,0 4.1,-1.3 4.9,-3.3 l 3.7,-8.9 -14,-19.7 z"
   class="st2" />
	</g><g
   id="g1133"
   style="filter:url(#filter1182)">
		<path
   id="path1117"
   d="m 16.6,97.4 10,10 c 0,0 0,0 0.1,0.1 2.7,2.7 7.2,1.7 8.6,-1.8 l 5.1,-12.3 z"
   class="st3" />
		<path
   id="path1119"
   d="m 96.8,17.2 v 0 L 86.8,7.1 c 0,0 0,0 -0.1,-0.1 C 84,4.3 79.5,5.3 78.1,8.8 L 73,21.2 Z"
   class="st3" />
		<path
   id="path1121"
   d="m 70.7,94.3 -14,19.7 h 14.2 c 0,0 0.1,0 0.1,0 3.8,0 6.3,-3.9 4.8,-7.4 z"
   class="st3" />
		<path
   id="path1123"
   d="m 113.4,43.1 c 0,-0.1 0,-0.1 0,0 0,-3.8 -3.9,-6.4 -7.4,-4.9 l -12.3,5.1 19.7,14 z"
   class="st3" />
		<path
   id="path1125"
   d="m 105.1,78.6 -12.3,-5.1 4,23.8 10,-10 c 0,0 0,0 0.1,-0.1 2.7,-2.6 1.7,-7.1 -1.8,-8.6 z"
   class="st3" />
		<path
   id="path1127"
   d="m 8.3,35.9 12.3,5.1 -4,-23.8 v 0 l -10,10 c 0,0 0,0 -0.1,0.1 -2.6,2.6 -1.7,7.1 1.8,8.6 z"
   class="st3" />
		<path
   id="path1129"
   d="M 7.4,76.4 19.7,71.3 0,57.3 v 14.2 c 0,0 0,0.1 0,0.1 0,3.7 3.9,6.2 7.4,4.8 z"
   class="st3" />
		<path
   id="path1131"
   d="m 42.7,20.2 14,-19.7 v 0 H 42.5 c 0,0 -0.1,0 -0.1,0 -3.8,0 -6.3,3.9 -4.8,7.4 z"
   class="st3" />
	</g><g
   id="g1169"
   style="filter:url(#filter1182)">
		<g
   id="g1167">
			<g
   id="g1137">
				<path
   id="path1135"
   d="m 8.3,78.6 c -3.5,1.4 -4.4,6 -1.8,8.6 0,0 0,0 0.1,0.1 l 10,10 4,-23.8 z"
   class="st4" />
			</g>
			<g
   id="g1141">
				<path
   id="path1139"
   d="m 92.2,41 12.2,-5.1 c 3.5,-1.4 4.4,-6 1.8,-8.6 0,0 0,0 -0.1,-0.1 l -10,-10 v 0 z"
   class="st4" />
			</g>
			<g
   id="g1145">
				<path
   id="path1143"
   d="m 37.4,106.6 c -1.4,3.5 1.1,7.4 4.8,7.4 0,0 0.1,0 0.1,0 h 14.1 l -14,-19.7 z"
   class="st4" />
			</g>
			<g
   id="g1149">
				<path
   id="path1147"
   d="m 105.3,76.4 c 3.5,1.4 7.3,-1.1 7.3,-4.8 0,0 0,-0.1 0,-0.1 V 57.3 l -19.5,14 z"
   class="st4" />
			</g>
			<g
   id="g1153">
				<path
   id="path1151"
   d="m 77.6,105.6 c 1.4,3.5 5.9,4.5 8.6,1.8 0,0 0,0 0.1,-0.1 l 9.9,-10 -23.6,-4 z"
   class="st4" />
			</g>
			<g
   id="g1157">
				<path
   id="path1155"
   d="M 40.2,21.2 35.1,8.9 C 33.7,5.4 29.2,4.4 26.5,7.1 c 0,0 0,0 -0.1,0.1 l -10,10 v 0 z"
   class="st4" />
			</g>
			<g
   id="g1161">
				<path
   id="path1159"
   d="M 7.3,38.2 C 3.9,36.7 0,39.2 0,43 c 0,0 0,0.1 0,0.1 v 14.2 l 19.6,-14 z"
   class="st4" />
			</g>
			<g
   id="g1165">
				<path
   id="path1163"
   d="M 70.2,20.3 75.3,8 c 1.4,-3.5 -1.1,-7.4 -4.8,-7.4 0,0 -0.1,0 -0.1,0 H 56.3 v 0 z"
   class="st4" />
			</g>
		</g>
	</g>
</svg>
