<?xml version="1.0" encoding="UTF-8"?>
<svg id="Layer_1" data-name="Layer 1" xmlns="http://www.w3.org/2000/svg" viewBox="0 0 105 150">
  <path d="M74.63,60.8v36.36c0,12.18-9.91,22.08-22.08,22.08s-22.08-9.91-22.08-22.08v-13.39h-5.18v13.39c0,15.03,12.23,27.26,27.26,27.26s27.26-12.23,27.26-27.26v-36.36h-5.18Z"/>
  <rect x="15.5" y="51.87" width="55.59" height="5.18"/>
  <rect x="12.56" y="45.02" width="92.29" height="5.18" transform="translate(-16.58 54.3) rotate(-44.13)"/>
  <path d="M77.12,48.29c3.26,0,5.92,2.66,5.92,5.92s-2.66,5.92-5.92,5.92-5.92-2.66-5.92-5.92,2.66-5.92,5.92-5.92M77.12,46.14c-4.46,0-8.07,3.61-8.07,8.07s3.61,8.07,8.07,8.07,8.07-3.61,8.07-8.07-3.61-8.07-8.07-8.07h0Z"/>
  <circle cx="27.88" cy="81.49" r="8.07"/>
  <path d="M94.07,19.17v78.13c0,22.93-18.65,41.58-41.58,41.58S10.91,120.22,10.91,97.3v-36.5h-5.18v36.5c0,25.78,20.97,46.76,46.76,46.76s46.76-20.97,46.76-46.76V19.17h-5.18Z"/>
  <circle cx="96.64" cy="14.02" r="8.07"/>
  <path d="M8.36,48.29c3.26,0,5.92,2.66,5.92,5.92s-2.66,5.92-5.92,5.92-5.92-2.66-5.92-5.92,2.66-5.92,5.92-5.92M8.36,46.14c-4.46,0-8.07,3.61-8.07,8.07s3.61,8.07,8.07,8.07,8.07-3.61,8.07-8.07-3.61-8.07-8.07-8.07h0Z"/>
</svg>