<?xml version="1.0" encoding="UTF-8" standalone="no"?>
<!-- Generator: Adobe Illustrator 24.0.2, SVG Export Plug-In . SVG Version: 6.00 Build 0)  -->

<svg
   version="1.1"
   id="Layer_1"
   x="0px"
   y="0px"
   viewBox="0 0 45.315334 45.315331"
   xml:space="preserve"
   sodipodi:docname="grid-exchange-fabric-icon-white.svg"
   width="45.315334"
   height="45.315331"
   inkscape:export-filename="/Users/johnmertic/Code/lfenergy-artwork/projects/grid-exchange-fabric/icon/white/grid-exchange-fabric-icon-white.png"
   inkscape:export-xdpi="377.10001"
   inkscape:export-ydpi="377.10001"
   inkscape:version="1.1.2 (b8e25be8, 2022-02-05)"
   xmlns:inkscape="http://www.inkscape.org/namespaces/inkscape"
   xmlns:sodipodi="http://sodipodi.sourceforge.net/DTD/sodipodi-0.dtd"
   xmlns="http://www.w3.org/2000/svg"
   xmlns:svg="http://www.w3.org/2000/svg"><defs
   id="defs1758">
	
	
	
</defs><sodipodi:namedview
   id="namedview1756"
   pagecolor="#ffffff"
   bordercolor="#666666"
   borderopacity="1.0"
   inkscape:pageshadow="2"
   inkscape:pageopacity="0.0"
   inkscape:pagecheckerboard="0"
   showgrid="false"
   inkscape:zoom="2.8175"
   inkscape:cx="112.15617"
   inkscape:cy="30.523514"
   inkscape:window-width="1452"
   inkscape:window-height="776"
   inkscape:window-x="58"
   inkscape:window-y="25"
   inkscape:window-maximized="0"
   inkscape:current-layer="Layer_1" />
<style
   type="text/css"
   id="style1203">
	.st0{fill:#FFFFFF;}
	.st1{fill:#008421;}
	.st2{fill:#99DB25;}
	.st3{fill:#009ADE;}
	.st4{fill:#003764;}
	.st5{fill:#99DB26;}
</style>
<g
   id="g1751"
   transform="translate(-1.4136494,-2.2719753)">
		<g
   id="g1351">
			<g
   id="g1269">
				
					<rect
   x="1.4"
   y="36"
   transform="matrix(0.00125015,-1,1,0.00125015,-34.5578,40.5706)"
   class="st0"
   width="3.2"
   height="3.2"
   id="rect1267" />
			</g>
			<g
   id="g1273">
				
					<rect
   x="1.4"
   y="40.200001"
   transform="matrix(0.00125015,-1,1,0.00125015,-38.7737,44.7708)"
   class="st0"
   width="3.2"
   height="3.2"
   id="rect1271" />
			</g>
			<g
   id="g1277">
				
					<rect
   x="14.1"
   y="40.200001"
   transform="matrix(0.00125015,-1,1,0.00125015,-26.1732,57.4187)"
   class="st0"
   width="3.2"
   height="3.2"
   id="rect1275" />
			</g>
			<g
   id="g1281">
				
					<rect
   x="9.8000002"
   y="40.200001"
   transform="matrix(0.00125015,-1,1,0.00125015,-30.3733,53.2027)"
   class="st0"
   width="3.2"
   height="3.2"
   id="rect1279" />
			</g>
			<g
   id="g1285">
				
					<rect
   x="5.5999999"
   y="40.200001"
   transform="matrix(0.00125015,-1,1,0.00125015,-34.5735,48.9868)"
   class="st0"
   width="3.2"
   height="3.2"
   id="rect1283" />
			</g>
			<g
   id="g1289">
				
					<rect
   x="1.4"
   y="40.200001"
   transform="matrix(0.00125015,-1,1,0.00125015,-38.7737,44.7708)"
   class="st0"
   width="3.2"
   height="3.2"
   id="rect1287" />
			</g>
			<g
   id="g1293">
				
					<rect
   x="1.4"
   y="44.299999"
   transform="matrix(0.00125015,-1,1,0.00125015,-42.8881,48.8698)"
   class="st0"
   width="3.2"
   height="3.2"
   id="rect1291" />
			</g>
			<g
   id="g1297">
				
					<rect
   x="9.8000002"
   y="44.299999"
   transform="matrix(0.00125015,-1,1,0.00125015,-34.4877,57.3017)"
   class="st0"
   width="3.2"
   height="3.2"
   id="rect1295" />
			</g>
			<g
   id="g1301">
				
					<rect
   x="5.5999999"
   y="44.299999"
   transform="matrix(0.00125015,-1,1,0.00125015,-38.6879,53.0857)"
   class="st0"
   width="3.2"
   height="3.2"
   id="rect1299" />
			</g>
			<g
   id="g1305">
				
					<rect
   x="1.4"
   y="44.299999"
   transform="matrix(0.00125015,-1,1,0.00125015,-42.8881,48.8698)"
   class="st0"
   width="3.2"
   height="3.2"
   id="rect1303" />
			</g>
			<g
   id="g1309">
				
					<rect
   x="18.299999"
   y="36"
   transform="matrix(0.00125015,-1,1,0.00125015,-17.757,57.4345)"
   class="st0"
   width="3.2"
   height="3.2"
   id="rect1307" />
			</g>
			<g
   id="g1313">
				
					<rect
   x="14.1"
   y="36"
   transform="matrix(0.00125015,-1,1,0.00125015,-21.9572,53.2185)"
   class="st0"
   width="3.2"
   height="3.2"
   id="rect1311" />
			</g>
			<g
   id="g1317">
				
					<rect
   x="9.8999996"
   y="36"
   transform="matrix(0.00125015,-1,1,0.00125015,-26.1574,49.0025)"
   class="st0"
   width="3.2"
   height="3.2"
   id="rect1315" />
			</g>
			<g
   id="g1321">
				
					<rect
   x="5.5999999"
   y="36"
   transform="matrix(0.00125015,-1,1,0.00125015,-30.3576,44.7866)"
   class="st0"
   width="3.2"
   height="3.2"
   id="rect1319" />
			</g>
			<g
   id="g1325">
				
					<rect
   x="1.4"
   y="36"
   transform="matrix(0.00125015,-1,1,0.00125015,-34.5578,40.5706)"
   class="st0"
   width="3.2"
   height="3.2"
   id="rect1323" />
			</g>
			<g
   id="g1329">
				
					<rect
   x="18.299999"
   y="31.799999"
   transform="matrix(0.00125015,-1,1,0.00125015,-13.541,53.2343)"
   class="st0"
   width="3.2"
   height="3.2"
   id="rect1327" />
			</g>
			<g
   id="g1333">
				
					<rect
   x="14.1"
   y="31.799999"
   transform="matrix(0.00125015,-1,1,0.00125015,-17.7412,49.0183)"
   class="st0"
   width="3.2"
   height="3.2"
   id="rect1331" />
			</g>
			<g
   id="g1337">
				
					<rect
   x="9.8999996"
   y="31.799999"
   transform="matrix(0.00125015,-1,1,0.00125015,-21.9414,44.8023)"
   class="st0"
   width="3.2"
   height="3.2"
   id="rect1335" />
			</g>
			<g
   id="g1341">
				
					<rect
   x="5.5999999"
   y="31.799999"
   transform="matrix(0.00125015,-1,1,0.00125015,-26.1416,40.5864)"
   class="st0"
   width="3.2"
   height="3.2"
   id="rect1339" />
			</g>
			<g
   id="g1345">
				
					<rect
   x="14.1"
   y="27.6"
   transform="matrix(0.00125015,-1,1,0.00125015,-13.5253,44.8181)"
   class="st0"
   width="3.2"
   height="3.2"
   id="rect1343" />
			</g>
			<g
   id="g1349">
				
					<rect
   x="9.8999996"
   y="27.6"
   transform="matrix(0.00125015,-1,1,0.00125015,-17.7254,40.6022)"
   class="st0"
   width="3.2"
   height="3.2"
   id="rect1347" />
			</g>
		</g>
		<g
   id="g1453">
			<g
   id="g1355">
				
					<rect
   x="39.299999"
   y="31.799999"
   transform="matrix(0.00125015,-1,1,0.00125015,7.4599,74.3141)"
   class="st0"
   width="3.2"
   height="3.2"
   id="rect1353" />
			</g>
			<g
   id="g1359">
				
					<rect
   x="39.299999"
   y="36"
   transform="matrix(0.00125015,-1,1,0.00125015,3.2439,78.5143)"
   class="st0"
   width="3.2"
   height="3.2"
   id="rect1357" />
			</g>
			<g
   id="g1363">
				
					<rect
   x="39.299999"
   y="40.200001"
   transform="matrix(0.00125015,-1,1,0.00125015,-0.972,82.7145)"
   class="st0"
   width="3.2"
   height="3.2"
   id="rect1361" />
			</g>
			<g
   id="g1367">
				
					<rect
   x="39.299999"
   y="40.200001"
   transform="matrix(0.00125015,-1,1,0.00125015,-0.972,82.7145)"
   class="st0"
   width="3.2"
   height="3.2"
   id="rect1365" />
			</g>
			<g
   id="g1371">
				
					<rect
   x="35.099998"
   y="40.200001"
   transform="matrix(0.00125015,-1,1,0.00125015,-5.1722,78.4985)"
   class="st0"
   width="3.2"
   height="3.2"
   id="rect1369" />
			</g>
			<g
   id="g1375">
				
					<rect
   x="30.9"
   y="40.200001"
   transform="matrix(0.00125015,-1,1,0.00125015,-9.3724,74.2826)"
   class="st0"
   width="3.2"
   height="3.2"
   id="rect1373" />
			</g>
			<g
   id="g1379">
				
					<rect
   x="39.299999"
   y="44.400002"
   transform="matrix(0.00125015,-1,1,0.00125015,-5.0864,86.8135)"
   class="st0"
   width="3.2"
   height="3.2"
   id="rect1377" />
			</g>
			<g
   id="g1383">
				
					<rect
   x="39.299999"
   y="44.400002"
   transform="matrix(0.00125015,-1,1,0.00125015,-5.0864,86.8135)"
   class="st0"
   width="3.2"
   height="3.2"
   id="rect1381" />
			</g>
			<g
   id="g1387">
				
					<rect
   x="35.099998"
   y="44.299999"
   transform="matrix(0.00125015,-1,1,0.00125015,-9.2866,82.5975)"
   class="st0"
   width="3.2"
   height="3.2"
   id="rect1385" />
			</g>
			<g
   id="g1391">
				
					<rect
   x="39.299999"
   y="36"
   transform="matrix(0.00125015,-1,1,0.00125015,3.2439,78.5143)"
   class="st0"
   width="3.2"
   height="3.2"
   id="rect1389" />
			</g>
			<g
   id="g1395">
				
					<rect
   x="35.099998"
   y="36"
   transform="matrix(0.00125015,-1,1,0.00125015,-0.9563,74.2983)"
   class="st0"
   width="3.2"
   height="3.2"
   id="rect1393" />
			</g>
			<g
   id="g1399">
				
					<rect
   x="30.9"
   y="36"
   transform="matrix(0.00125015,-1,1,0.00125015,-5.1565,70.0824)"
   class="st0"
   width="3.2"
   height="3.2"
   id="rect1397" />
			</g>
			<g
   id="g1403">
				
					<rect
   x="26.700001"
   y="36"
   transform="matrix(0.00125015,-1,1,0.00125015,-9.3566,65.8664)"
   class="st0"
   width="3.2"
   height="3.2"
   id="rect1401" />
			</g>
			<g
   id="g1407">
				
					<rect
   x="39.299999"
   y="31.799999"
   transform="matrix(0.00125015,-1,1,0.00125015,7.4599,74.3141)"
   class="st0"
   width="3.2"
   height="3.2"
   id="rect1405" />
			</g>
			<g
   id="g1411">
				
					<rect
   x="35.099998"
   y="31.799999"
   transform="matrix(0.00125015,-1,1,0.00125015,3.2597,70.0982)"
   class="st0"
   width="3.2"
   height="3.2"
   id="rect1409" />
			</g>
			<g
   id="g1415">
				
					<rect
   x="30.9"
   y="31.799999"
   transform="matrix(0.00125015,-1,1,0.00125015,-0.9405,65.8822)"
   class="st0"
   width="3.2"
   height="3.2"
   id="rect1413" />
			</g>
			<g
   id="g1419">
				
					<rect
   x="26.700001"
   y="31.799999"
   transform="matrix(0.00125015,-1,1,0.00125015,-5.1407,61.6662)"
   class="st0"
   width="3.2"
   height="3.2"
   id="rect1417" />
			</g>
			<g
   id="g1423">
				
					<rect
   x="35.099998"
   y="27.6"
   transform="matrix(0.00125015,-1,1,0.00125015,7.4757,65.898)"
   class="st0"
   width="3.2"
   height="3.2"
   id="rect1421" />
			</g>
			<g
   id="g1427">
				
					<rect
   x="30.9"
   y="27.6"
   transform="matrix(0.00125015,-1,1,0.00125015,3.2755,61.682)"
   class="st0"
   width="3.2"
   height="3.2"
   id="rect1425" />
			</g>
			<g
   id="g1431">
				
					<rect
   x="43.400002"
   y="36"
   transform="matrix(0.00125015,-1,1,0.00125015,7.3429,82.6287)"
   class="st0"
   width="3.2"
   height="3.2"
   id="rect1429" />
			</g>
			<g
   id="g1435">
				
					<rect
   x="43.400002"
   y="40.299999"
   transform="matrix(0.00125015,-1,1,0.00125015,3.1269,86.8289)"
   class="st0"
   width="3.2"
   height="3.2"
   id="rect1433" />
			</g>
			<g
   id="g1439">
				
					<rect
   x="43.400002"
   y="40.299999"
   transform="matrix(0.00125015,-1,1,0.00125015,3.1269,86.8289)"
   class="st0"
   width="3.2"
   height="3.2"
   id="rect1437" />
			</g>
			<g
   id="g1443">
				
					<rect
   x="43.400002"
   y="44.400002"
   transform="matrix(0.00125015,-1,1,0.00125015,-0.9874,90.9278)"
   class="st0"
   width="3.2"
   height="3.2"
   id="rect1441" />
			</g>
			<g
   id="g1447">
				
					<rect
   x="43.400002"
   y="44.400002"
   transform="matrix(0.00125015,-1,1,0.00125015,-0.9874,90.9278)"
   class="st0"
   width="3.2"
   height="3.2"
   id="rect1445" />
			</g>
			<g
   id="g1451">
				
					<rect
   x="43.400002"
   y="36"
   transform="matrix(0.00125015,-1,1,0.00125015,7.3429,82.6287)"
   class="st0"
   width="3.2"
   height="3.2"
   id="rect1449" />
			</g>
		</g>
		<g
   id="g1555">
			<g
   id="g1457">
				
					<rect
   x="39.400002"
   y="2.3"
   transform="matrix(0.00125015,-1,1,0.00125015,36.9717,44.9128)"
   class="st0"
   width="3.2"
   height="3.2"
   id="rect1455" />
			</g>
			<g
   id="g1461">
				
					<rect
   x="39.400002"
   y="6.5999999"
   transform="matrix(0.00125015,-1,1,0.00125015,32.7557,49.113)"
   class="st0"
   width="3.2"
   height="3.2"
   id="rect1459" />
			</g>
			<g
   id="g1465">
				
					<rect
   x="39.400002"
   y="10.8"
   transform="matrix(0.00125015,-1,1,0.00125015,28.5397,53.3132)"
   class="st0"
   width="3.2"
   height="3.2"
   id="rect1463" />
			</g>
			<g
   id="g1469">
				
					<rect
   x="39.400002"
   y="15"
   transform="matrix(0.00125015,-1,1,0.00125015,24.3238,57.5134)"
   class="st0"
   width="3.2"
   height="3.2"
   id="rect1467" />
			</g>
			<g
   id="g1473">
				
					<rect
   x="35.099998"
   y="19.200001"
   transform="matrix(0.00125015,-1,1,0.00125015,15.9076,57.4976)"
   class="st0"
   width="3.2"
   height="3.2"
   id="rect1471" />
			</g>
			<g
   id="g1477">
				
					<rect
   x="30.9"
   y="19.200001"
   transform="matrix(0.00125015,-1,1,0.00125015,11.7074,53.2816)"
   class="st0"
   width="3.2"
   height="3.2"
   id="rect1475" />
			</g>
			<g
   id="g1481">
				
					<rect
   x="39.400002"
   y="15"
   transform="matrix(0.00125015,-1,1,0.00125015,24.3238,57.5134)"
   class="st0"
   width="3.2"
   height="3.2"
   id="rect1479" />
			</g>
			<g
   id="g1485">
				
					<rect
   x="35.099998"
   y="15"
   transform="matrix(0.00125015,-1,1,0.00125015,20.1236,53.2974)"
   class="st0"
   width="3.2"
   height="3.2"
   id="rect1483" />
			</g>
			<g
   id="g1489">
				
					<rect
   x="30.9"
   y="15"
   transform="matrix(0.00125015,-1,1,0.00125015,15.9234,49.0814)"
   class="st0"
   width="3.2"
   height="3.2"
   id="rect1487" />
			</g>
			<g
   id="g1493">
				
					<rect
   x="26.700001"
   y="15"
   transform="matrix(0.00125015,-1,1,0.00125015,11.7232,44.8655)"
   class="st0"
   width="3.2"
   height="3.2"
   id="rect1491" />
			</g>
			<g
   id="g1497">
				
					<rect
   x="39.400002"
   y="10.8"
   transform="matrix(0.00125015,-1,1,0.00125015,28.5397,53.3132)"
   class="st0"
   width="3.2"
   height="3.2"
   id="rect1495" />
			</g>
			<g
   id="g1501">
				
					<rect
   x="35.200001"
   y="10.8"
   transform="matrix(0.00125015,-1,1,0.00125015,24.3395,49.0972)"
   class="st0"
   width="3.2"
   height="3.2"
   id="rect1499" />
			</g>
			<g
   id="g1505">
				
					<rect
   x="30.9"
   y="10.8"
   transform="matrix(0.00125015,-1,1,0.00125015,20.1394,44.8813)"
   class="st0"
   width="3.2"
   height="3.2"
   id="rect1503" />
			</g>
			<g
   id="g1509">
				
					<rect
   x="26.700001"
   y="10.8"
   transform="matrix(0.00125015,-1,1,0.00125015,15.9392,40.6653)"
   class="st0"
   width="3.2"
   height="3.2"
   id="rect1507" />
			</g>
			<g
   id="g1513">
				
					<rect
   x="39.400002"
   y="6.5999999"
   transform="matrix(0.00125015,-1,1,0.00125015,32.7557,49.113)"
   class="st0"
   width="3.2"
   height="3.2"
   id="rect1511" />
			</g>
			<g
   id="g1517">
				
					<rect
   x="35.200001"
   y="6.5999999"
   transform="matrix(0.00125015,-1,1,0.00125015,28.5555,44.897)"
   class="st0"
   width="3.2"
   height="3.2"
   id="rect1515" />
			</g>
			<g
   id="g1521">
				
					<rect
   x="30.9"
   y="6.5"
   transform="matrix(0.00125015,-1,1,0.00125015,24.3553,40.6811)"
   class="st0"
   width="3.2"
   height="3.2"
   id="rect1519" />
			</g>
			<g
   id="g1525">
				
					<rect
   x="39.400002"
   y="2.3"
   transform="matrix(0.00125015,-1,1,0.00125015,36.9717,44.9128)"
   class="st0"
   width="3.2"
   height="3.2"
   id="rect1523" />
			</g>
			<g
   id="g1529">
				
					<rect
   x="43.5"
   y="2.4000001"
   transform="matrix(0.00125015,-1,1,0.00125015,41.0706,49.0272)"
   class="st0"
   width="3.2"
   height="3.2"
   id="rect1527" />
			</g>
			<g
   id="g1533">
				
					<rect
   x="43.5"
   y="6.5999999"
   transform="matrix(0.00125015,-1,1,0.00125015,36.8547,53.2274)"
   class="st0"
   width="3.2"
   height="3.2"
   id="rect1531" />
			</g>
			<g
   id="g1537">
				
					<rect
   x="43.5"
   y="10.8"
   transform="matrix(0.00125015,-1,1,0.00125015,32.6387,57.4276)"
   class="st0"
   width="3.2"
   height="3.2"
   id="rect1535" />
			</g>
			<g
   id="g1541">
				
					<rect
   x="43.5"
   y="10.8"
   transform="matrix(0.00125015,-1,1,0.00125015,32.6387,57.4276)"
   class="st0"
   width="3.2"
   height="3.2"
   id="rect1539" />
			</g>
			<g
   id="g1545">
				
					<rect
   x="43.5"
   y="6.5999999"
   transform="matrix(0.00125015,-1,1,0.00125015,36.8547,53.2274)"
   class="st0"
   width="3.2"
   height="3.2"
   id="rect1543" />
			</g>
			<g
   id="g1549">
				
					<rect
   x="43.5"
   y="2.4000001"
   transform="matrix(0.00125015,-1,1,0.00125015,41.0706,49.0272)"
   class="st0"
   width="3.2"
   height="3.2"
   id="rect1547" />
			</g>
			<g
   id="g1553">
				
					<rect
   x="35.200001"
   y="2.3"
   transform="matrix(0.00125015,-1,1,0.00125015,32.7715,40.6969)"
   class="st0"
   width="3.2"
   height="3.2"
   id="rect1551" />
			</g>
		</g>
		<g
   id="g1641">
			<g
   id="g1559">
				<rect
   x="1.5"
   y="2.3"
   transform="matrix(0.00125015,-1,1,0.00125015,-0.83,6.9691)"
   class="st0"
   width="3.2"
   height="3.2"
   id="rect1557" />
			</g>
			<g
   id="g1563">
				
					<rect
   x="1.5"
   y="6.5"
   transform="matrix(0.00125015,-1,1,0.00125015,-5.046,11.1693)"
   class="st0"
   width="3.2"
   height="3.2"
   id="rect1561" />
			</g>
			<g
   id="g1567">
				
					<rect
   x="1.5"
   y="10.7"
   transform="matrix(0.00125015,-1,1,0.00125015,-9.2619,15.3695)"
   class="st0"
   width="3.2"
   height="3.2"
   id="rect1565" />
			</g>
			<g
   id="g1571">
				
					<rect
   x="14.1"
   y="19.200001"
   transform="matrix(0.00125015,-1,1,0.00125015,-5.0933,36.4178)"
   class="st0"
   width="3.2"
   height="3.2"
   id="rect1569" />
			</g>
			<g
   id="g1575">
				
					<rect
   x="9.8999996"
   y="19.200001"
   transform="matrix(0.00125015,-1,1,0.00125015,-9.2935,32.2018)"
   class="st0"
   width="3.2"
   height="3.2"
   id="rect1573" />
			</g>
			<g
   id="g1579">
				
					<rect
   x="18.299999"
   y="15"
   transform="matrix(0.00125015,-1,1,0.00125015,3.3228,36.4335)"
   class="st0"
   width="3.2"
   height="3.2"
   id="rect1577" />
			</g>
			<g
   id="g1583">
				
					<rect
   x="14.1"
   y="14.9"
   transform="matrix(0.00125015,-1,1,0.00125015,-0.8774,32.2176)"
   class="st0"
   width="3.2"
   height="3.2"
   id="rect1581" />
			</g>
			<g
   id="g1587">
				
					<rect
   x="9.8999996"
   y="14.9"
   transform="matrix(0.00125015,-1,1,0.00125015,-5.0775,28.0016)"
   class="st0"
   width="3.2"
   height="3.2"
   id="rect1585" />
			</g>
			<g
   id="g1591">
				
					<rect
   x="5.6999998"
   y="14.9"
   transform="matrix(0.00125015,-1,1,0.00125015,-9.2777,23.7856)"
   class="st0"
   width="3.2"
   height="3.2"
   id="rect1589" />
			</g>
			<g
   id="g1595">
				
					<rect
   x="18.299999"
   y="10.7"
   transform="matrix(0.00125015,-1,1,0.00125015,7.5388,32.2334)"
   class="st0"
   width="3.2"
   height="3.2"
   id="rect1593" />
			</g>
			<g
   id="g1599">
				
					<rect
   x="14.1"
   y="10.7"
   transform="matrix(0.00125015,-1,1,0.00125015,3.3386,28.0174)"
   class="st0"
   width="3.2"
   height="3.2"
   id="rect1597" />
			</g>
			<g
   id="g1603">
				
					<rect
   x="9.8999996"
   y="10.7"
   transform="matrix(0.00125015,-1,1,0.00125015,-0.8616,23.8014)"
   class="st0"
   width="3.2"
   height="3.2"
   id="rect1601" />
			</g>
			<g
   id="g1607">
				
					<rect
   x="5.6999998"
   y="10.7"
   transform="matrix(0.00125015,-1,1,0.00125015,-5.0618,19.5855)"
   class="st0"
   width="3.2"
   height="3.2"
   id="rect1605" />
			</g>
			<g
   id="g1611">
				
					<rect
   x="1.5"
   y="10.7"
   transform="matrix(0.00125015,-1,1,0.00125015,-9.2619,15.3695)"
   class="st0"
   width="3.2"
   height="3.2"
   id="rect1609" />
			</g>
			<g
   id="g1615">
				
					<rect
   x="14.1"
   y="6.5"
   transform="matrix(0.00125015,-1,1,0.00125015,7.5546,23.8172)"
   class="st0"
   width="3.2"
   height="3.2"
   id="rect1613" />
			</g>
			<g
   id="g1619">
				
					<rect
   x="9.8999996"
   y="6.5"
   transform="matrix(0.00125015,-1,1,0.00125015,3.3544,19.6012)"
   class="st0"
   width="3.2"
   height="3.2"
   id="rect1617" />
			</g>
			<g
   id="g1623">
				
					<rect
   x="5.6999998"
   y="6.5"
   transform="matrix(0.00125015,-1,1,0.00125015,-0.8458,15.3853)"
   class="st0"
   width="3.2"
   height="3.2"
   id="rect1621" />
			</g>
			<g
   id="g1627">
				
					<rect
   x="1.5"
   y="6.5"
   transform="matrix(0.00125015,-1,1,0.00125015,-5.046,11.1693)"
   class="st0"
   width="3.2"
   height="3.2"
   id="rect1625" />
			</g>
			<g
   id="g1631">
				
					<rect
   x="9.8999996"
   y="2.3"
   transform="matrix(0.00125015,-1,1,0.00125015,7.5704,15.401)"
   class="st0"
   width="3.2"
   height="3.2"
   id="rect1629" />
			</g>
			<g
   id="g1635">
				
					<rect
   x="5.6999998"
   y="2.3"
   transform="matrix(0.00125015,-1,1,0.00125015,3.3702,11.1851)"
   class="st0"
   width="3.2"
   height="3.2"
   id="rect1633" />
			</g>
			<g
   id="g1639">
				<rect
   x="1.5"
   y="2.3"
   transform="matrix(0.00125015,-1,1,0.00125015,-0.83,6.9691)"
   class="st0"
   width="3.2"
   height="3.2"
   id="rect1637" />
			</g>
		</g>
		<g
   id="g1695">
			<g
   id="g1645">
				
					<rect
   x="22.5"
   y="31.799999"
   transform="matrix(0.00125015,-1,1,0.00125015,-9.3409,57.4503)"
   class="st0"
   width="3.2"
   height="3.2"
   id="rect1643" />
			</g>
			<g
   id="g1649">
				
					<rect
   x="22.5"
   y="27.6"
   transform="matrix(0.00125015,-1,1,0.00125015,-5.1249,53.2501)"
   class="st0"
   width="3.2"
   height="3.2"
   id="rect1647" />
			</g>
			<g
   id="g1653">
				
					<rect
   x="18.299999"
   y="27.6"
   transform="matrix(0.00125015,-1,1,0.00125015,-9.3251,49.0341)"
   class="st0"
   width="3.2"
   height="3.2"
   id="rect1651" />
			</g>
			<g
   id="g1657">
				
					<rect
   x="30.9"
   y="23.4"
   transform="matrix(0.00125015,-1,1,0.00125015,7.4915,57.4818)"
   class="st0"
   width="3.2"
   height="3.2"
   id="rect1655" />
			</g>
			<g
   id="g1661">
				
					<rect
   x="26.700001"
   y="23.4"
   transform="matrix(0.00125015,-1,1,0.00125015,3.2913,53.2659)"
   class="st0"
   width="3.2"
   height="3.2"
   id="rect1659" />
			</g>
			<g
   id="g1665">
				
					<rect
   x="22.5"
   y="23.4"
   transform="matrix(0.00125015,-1,1,0.00125015,-0.9089,49.0499)"
   class="st0"
   width="3.2"
   height="3.2"
   id="rect1663" />
			</g>
			<g
   id="g1669">
				
					<rect
   x="18.299999"
   y="23.4"
   transform="matrix(0.00125015,-1,1,0.00125015,-5.1091,44.8339)"
   class="st0"
   width="3.2"
   height="3.2"
   id="rect1667" />
			</g>
			<g
   id="g1673">
				
					<rect
   x="14.1"
   y="23.4"
   transform="matrix(0.00125015,-1,1,0.00125015,-9.3093,40.6179)"
   class="st0"
   width="3.2"
   height="3.2"
   id="rect1671" />
			</g>
			<g
   id="g1677">
				
					<rect
   x="26.700001"
   y="19.200001"
   transform="matrix(0.00125015,-1,1,0.00125015,7.5072,49.0657)"
   class="st0"
   width="3.2"
   height="3.2"
   id="rect1675" />
			</g>
			<g
   id="g1681">
				
					<rect
   x="22.5"
   y="19.200001"
   transform="matrix(0.00125015,-1,1,0.00125015,3.307,44.8497)"
   class="st0"
   width="3.2"
   height="3.2"
   id="rect1679" />
			</g>
			<g
   id="g1685">
				
					<rect
   x="18.299999"
   y="19.200001"
   transform="matrix(0.00125015,-1,1,0.00125015,-0.8931,40.6337)"
   class="st0"
   width="3.2"
   height="3.2"
   id="rect1683" />
			</g>
			<g
   id="g1689">
				
					<rect
   x="26.700001"
   y="27.6"
   transform="matrix(0.00125015,-1,1,0.00125015,-0.9247,57.466)"
   class="st0"
   width="3.2"
   height="3.2"
   id="rect1687" />
			</g>
			<g
   id="g1693">
				
					<rect
   x="22.5"
   y="15"
   transform="matrix(0.00125015,-1,1,0.00125015,7.523,40.6495)"
   class="st0"
   width="3.2"
   height="3.2"
   id="rect1691" />
			</g>
		</g>
		<g
   id="g1749">
			<g
   id="g1699">
				
					<rect
   x="22.5"
   y="31.799999"
   transform="matrix(0.00125015,-1,1,0.00125015,-9.3409,57.4503)"
   class="st0"
   width="3.2"
   height="3.2"
   id="rect1697" />
			</g>
			<g
   id="g1703">
				
					<rect
   x="22.5"
   y="27.6"
   transform="matrix(0.00125015,-1,1,0.00125015,-5.1249,53.2501)"
   class="st0"
   width="3.2"
   height="3.2"
   id="rect1701" />
			</g>
			<g
   id="g1707">
				
					<rect
   x="18.299999"
   y="27.6"
   transform="matrix(0.00125015,-1,1,0.00125015,-9.3251,49.0341)"
   class="st0"
   width="3.2"
   height="3.2"
   id="rect1705" />
			</g>
			<g
   id="g1711">
				
					<rect
   x="30.9"
   y="23.4"
   transform="matrix(0.00125015,-1,1,0.00125015,7.4915,57.4818)"
   class="st0"
   width="3.2"
   height="3.2"
   id="rect1709" />
			</g>
			<g
   id="g1715">
				
					<rect
   x="26.700001"
   y="23.4"
   transform="matrix(0.00125015,-1,1,0.00125015,3.2913,53.2659)"
   class="st0"
   width="3.2"
   height="3.2"
   id="rect1713" />
			</g>
			<g
   id="g1719">
				
					<rect
   x="22.5"
   y="23.4"
   transform="matrix(0.00125015,-1,1,0.00125015,-0.9089,49.0499)"
   class="st0"
   width="3.2"
   height="3.2"
   id="rect1717" />
			</g>
			<g
   id="g1723">
				
					<rect
   x="18.299999"
   y="23.4"
   transform="matrix(0.00125015,-1,1,0.00125015,-5.1091,44.8339)"
   class="st0"
   width="3.2"
   height="3.2"
   id="rect1721" />
			</g>
			<g
   id="g1727">
				
					<rect
   x="14.1"
   y="23.4"
   transform="matrix(0.00125015,-1,1,0.00125015,-9.3093,40.6179)"
   class="st0"
   width="3.2"
   height="3.2"
   id="rect1725" />
			</g>
			<g
   id="g1731">
				
					<rect
   x="26.700001"
   y="19.200001"
   transform="matrix(0.00125015,-1,1,0.00125015,7.5072,49.0657)"
   class="st0"
   width="3.2"
   height="3.2"
   id="rect1729" />
			</g>
			<g
   id="g1735">
				
					<rect
   x="22.5"
   y="19.200001"
   transform="matrix(0.00125015,-1,1,0.00125015,3.307,44.8497)"
   class="st0"
   width="3.2"
   height="3.2"
   id="rect1733" />
			</g>
			<g
   id="g1739">
				
					<rect
   x="18.299999"
   y="19.200001"
   transform="matrix(0.00125015,-1,1,0.00125015,-0.8931,40.6337)"
   class="st0"
   width="3.2"
   height="3.2"
   id="rect1737" />
			</g>
			<g
   id="g1743">
				
					<rect
   x="26.700001"
   y="27.6"
   transform="matrix(0.00125015,-1,1,0.00125015,-0.9247,57.466)"
   class="st0"
   width="3.2"
   height="3.2"
   id="rect1741" />
			</g>
			<g
   id="g1747">
				
					<rect
   x="22.5"
   y="15"
   transform="matrix(0.00125015,-1,1,0.00125015,7.523,40.6495)"
   class="st0"
   width="3.2"
   height="3.2"
   id="rect1745" />
			</g>
		</g>
	</g>
</svg>
