<?xml version="1.0" encoding="utf-8"?>
<!-- Generator: Adobe Illustrator 25.4.1, SVG Export Plug-In . SVG Version: 6.00 Build 0)  -->
<svg version="1.1" id="Layer_1" xmlns="http://www.w3.org/2000/svg" xmlns:xlink="http://www.w3.org/1999/xlink" x="0px" y="0px"
	 viewBox="0 0 120 165" style="enable-background:new 0 0 120 165;" xml:space="preserve">
<style type="text/css">
	.st0{fill:#FFFFFF;}
	.st1{fill:none;}
	.st2{fill:#FCB739;}
	.st3{fill:#FF7D08;}
	.st4{fill:#FE4A5D;}
	.st5{fill:#003764;}
	.st6{fill:#009ADE;}
</style>
<g>
	<path class="st1" d="M47.3363953,45.2796211c-3.376709,3.3766479-5.236084,7.8743896-5.236084,12.664917
		c0,4.7904663,1.859375,9.2882118,5.2352295,12.6632118c3.3766479,3.376709,7.8743896,5.2360229,12.664917,5.2360229
		c1.1334229,0,2.2484741-0.1120605,3.3383179-0.3157959l2.2579956-0.5842285
		c2.6359863-0.8618774,5.0545654-2.3219604,7.0686035-4.3359985c3.3758545-3.375,5.2360229-7.8727455,5.2360229-12.6632118
		c0-4.7905273-1.8601685-9.288269-5.2360229-12.6641235c-3.3843384-3.3834229-7.8820801-5.2470093-12.664917-5.2470093
		c-1.3289185,0-2.6314087,0.157959-3.8983154,0.4380493l-1.4373169,0.3718872
		C51.9284363,41.6935005,49.4196472,43.1953316,47.3363953,45.2796211z"/>
	<path class="st1" d="M57.4812927,31.1383877l33.8881836-8.7678223
		c-8.4031372-7.3242188-19.3726807-11.7752075-31.3690186-11.7752075c-2.6121826,0-5.1732788,0.21875-7.6728516,0.6237793
		L57.4812927,31.1383877z"/>
	<path class="st1" d="M74.5802917,35.6906319c1.5061646,0.9911499,2.9243774,2.1397095,4.229126,3.4440308
		c5.0179443,5.0179443,7.7819214,11.6975098,7.7819214,18.8098755c0,4.376709-1.050354,8.5877113-3.0248413,12.3501015
		l23.7753296-6.1511841c0.3016357-1.9927406,0.4711304-3.9132118,0.4711304-5.734745
		c0-10.8114014-3.6113892-20.7924805-9.6848755-28.810545L74.5802917,35.6906319z"/>
	<path class="st1" d="M38.3478088,119.6802597l13.0379639-3.3733521l-6.9622192-26.9095459l-20.8128662,5.3845215
		C27.9958801,103.3305893,33.1819763,111.864769,38.3478088,119.6802597z"/>
	<path class="st1" d="M87.592865,78.2289047l5.7336426,21.5787964c4.8963013-8.8757935,9.109375-17.8535156,11.7108154-26.0919189
		L87.592865,78.2289047z"/>
	<path class="st1" d="M61.9751282,122.5415878l4.6776733,18.0795212
		c4.6921387-6.3314209,10.5130005-14.5215378,16.2935791-23.5054245L61.9751282,122.5415878z"/>
	<path class="st1" d="M53.5620422,124.7183456l-10.0314331,2.595459
		c6.6482544,9.5386276,12.7470703,17.398674,16.3799438,21.9419479L53.5620422,124.7183456z"/>
	<path class="st1" d="M45.3850403,80.1729355c-1.4938354-0.9854126-2.8998413-2.1263428-4.1936035-3.4202881
		c-5.0179443-5.0162354-7.7810669-11.6958008-7.7810669-18.8081093c0-4.3919678,1.0567017-8.6174316,3.0442505-12.3897095
		l-23.7886353,6.1547852c-0.3085938,2.1904907-0.4789429,4.4248657-0.4789429,6.6990967
		c0,8.3212929,3.019104,18.2012978,7.579895,28.3921547L45.3850403,80.1729355z"/>
	<path class="st1" d="M49.0682068,33.3150826l-5.1557617-19.9272442
		c-13.3745117,4.7939453-24.0114746,15.3822632-28.8637695,28.729063L49.0682068,33.3150826z"/>
	<path class="st1" d="M79.1800842,80.4053574L68.223175,83.2400742c-1.0155029,0.328125-2.0512085,0.5996094-3.1062012,0.8035889
		l-12.2803345,3.177063l6.9622192,26.9094238l26.5194092-6.8614502L79.1800842,80.4053574z"/>
	<path d="M60.0004578,1.9054161c-31.1557007,0-56.5033569,25.3476562-56.5033569,56.5032959
		c0,37.3082314,51.0628052,98.1310425,53.236145,100.7023926l3.3690186,3.9834595l3.3088379-4.0326538
		c2.1673584-2.6443481,53.0917969-65.1372604,53.0917969-100.6531982
		C116.5028992,27.2530727,91.1560974,1.9054161,60.0004578,1.9054161z M91.3694763,22.3705654l-33.8881836,8.7678223
		l-5.1536865-19.9192505c2.4995728-0.4050293,5.0606689-0.6237793,7.6728516-0.6237793
		C71.9967957,10.5953579,82.9663391,15.0463467,91.3694763,22.3705654z M60.0004578,40.0334053
		c4.7828369,0,9.2805786,1.8635864,12.664917,5.2470093c3.3758545,3.3758545,5.2360229,7.8735962,5.2360229,12.6641235
		c0,4.7904663-1.8601685,9.2882118-5.2360229,12.6632118c-2.0140381,2.0140381-4.4326172,3.4741211-7.0686035,4.3359985
		l-2.2579956,0.5842285c-1.0898438,0.2037354-2.204895,0.3157959-3.3383179,0.3157959
		c-4.7905273,0-9.288269-1.859314-12.664917-5.2360229c-3.3758545-3.375-5.2352295-7.8727455-5.2352295-12.6632118
		c0-4.7905273,1.859375-9.288269,5.236084-12.664917c2.083252-2.0842896,4.592041-3.5861206,7.3284302-4.4362793
		l1.4373169-0.3718872C57.3690491,40.1913643,58.6715393,40.0334053,60.0004578,40.0334053z M61.9751282,122.5415878
		l20.9712524-5.4259033c-5.7805786,8.9838867-11.6014404,17.1740036-16.2935791,23.5054245L61.9751282,122.5415878z
		 M44.4235535,89.3973618l6.9622192,26.9095459l-13.0379639,3.3733521
		c-5.1658325-7.8154907-10.3519287-16.3496704-14.7371216-24.8983765L44.4235535,89.3973618z M52.8366394,87.220726
		l12.2803345-3.177063c1.0549927-0.2039795,2.0906982-0.4754639,3.1062012-0.8035889l10.9569092-2.8347168l7.1381836,26.8633423
		l-26.5194092,6.8614502L52.8366394,87.220726z M87.592865,78.2289047l17.444458-4.5131226
		c-2.6014404,8.2384033-6.8145142,17.2161255-11.7108154,26.0919189L87.592865,78.2289047z M43.9124451,13.3878384
		l5.1557617,19.9272442l-34.0195312,8.8018188C19.9009705,28.7701015,30.5379333,18.1817837,43.9124451,13.3878384z
		 M12.6659851,51.7096138l23.7886353-6.1547852c-1.9875488,3.7722778-3.0442505,7.9977417-3.0442505,12.3897095
		c0,7.1123085,2.7631226,13.7918739,7.7810669,18.8081093c1.2937622,1.2939453,2.6997681,2.4348755,4.1936035,3.4202881
		l-25.618103,6.6279297c-4.560791-10.1908569-7.579895-20.0708618-7.579895-28.3921547
		C12.1870422,56.1344795,12.3573914,53.9001045,12.6659851,51.7096138z M43.5306091,127.3138046l10.0314331-2.595459
		l6.3485107,24.5374069C56.2776794,144.7124786,50.1788635,136.8524323,43.5306091,127.3138046z M107.3418274,64.1434555
		l-23.7753296,6.1511841c1.9744873-3.7623901,3.0248413-7.9733925,3.0248413-12.3501015
		c0-7.1123657-2.7639771-13.7919312-7.7819214-18.8098755c-1.3047485-1.3043213-2.7229614-2.4528809-4.229126-3.4440308
		l23.5477905-6.0924664c6.0734863,8.0180645,9.6848755,17.9991436,9.6848755,28.810545
		C107.8129578,60.2302437,107.6434631,62.1507149,107.3418274,64.1434555z"/>
</g>
</svg>
