<?xml version="1.0" encoding="UTF-8"?>
<svg id="Layer_1" data-name="Layer 1" xmlns="http://www.w3.org/2000/svg" viewBox="0 0 800 500">
  <g>
    <polygon points="19.64 256.26 19.64 217.07 0 217.07 0 275.9 58.75 275.9 58.75 256.26 19.64 256.26"/>
    <polygon points="97.87 177.79 0 177.79 0 207.21 19.48 207.21 19.48 197.59 78.39 197.59 78.39 256.26 68.53 256.26 68.53 275.9 97.87 275.9 97.87 177.79"/>
    <polygon points="123.89 179 153.79 179 153.79 251.09 196.63 251.09 196.63 275.9 123.89 275.9 123.89 179"/>
    <polygon points="209.39 179 284.31 179 284.31 203.81 239.22 203.81 239.22 215.94 277.85 215.94 277.85 238.97 239.22 238.97 239.22 275.9 209.31 275.9 209.31 179 209.39 179"/>
    <polygon points="361.41 276.39 307.18 276.39 307.18 178.76 361.41 178.76 361.41 185.07 314.21 185.07 314.21 222 358.74 222 358.74 228.3 314.21 228.3 314.21 270.25 361.41 270.25 361.41 276.39"/>
    <path d="M455.8,276.39h-7.03l-58.67-86.72h-.48c.48,10.26.81,18.1.81,23.36v63.28h-6.63v-97.55h6.87l58.67,86.64h.4c-.4-8-.65-15.68-.65-22.79v-63.84h6.71v97.63h0Z"/>
    <polygon points="537.99 276.39 483.85 276.39 483.85 178.76 537.99 178.76 537.99 185.07 490.88 185.07 490.88 222 535.41 222 535.41 228.3 490.88 228.3 490.88 270.25 537.99 270.25 537.99 276.39"/>
    <path d="M567.33,233.88v42.59h-6.87v-97.71h23.6c12.28,0,21.34,2.26,27.32,6.71s8.81,11.23,8.81,20.2c0,6.63-1.7,12.12-5.25,16.65s-8.81,7.76-15.92,9.62l26.91,44.45h-8.4l-25.62-42.59h-24.49v.08h-.08ZM567.33,228.06h18.83c8.32,0,14.87-1.86,19.4-5.5,4.61-3.72,6.87-9.05,6.87-16.24s-2.26-12.77-6.71-16.24-11.88-5.17-22.14-5.17h-16.24v43.16h0Z"/>
    <path d="M680.8,226.04h35.72v43.48c-9.37,3.96-19.88,5.9-31.68,5.9-15.27,0-26.99-4.2-35.07-12.77-8-8.57-12.28-20.53-12.28-36.12,0-9.78,2.02-18.35,6.06-25.86s9.86-13.33,17.38-17.38c7.52-4.12,16.24-6.22,25.94-6.22,10.51,0,20.04,1.94,28.45,5.82l-2.75,6.06c-8.4-3.8-17.13-5.82-26.1-5.82-12.77,0-22.95,3.8-30.31,11.64-7.35,7.84-11.23,18.18-11.23,31.36,0,14.39,3.56,25.21,10.67,32.41,7.11,7.27,17.54,10.83,31.36,10.83,8.97,0,16.49-1.21,22.63-3.72v-33.38h-28.85v-6.22c.24,0,.08,0,.08,0Z"/>
    <polygon points="763.71 231.86 792.56 178.76 800 178.76 767.11 238.32 767.11 275.9 760 275.9 760 238.89 727.1 178.76 734.94 178.76 763.71 231.86"/>
  </g>
  <g>
    <path d="M363.36,296.61h6.06l10.05,26.89h-6.14l-2.03-5.99h-10.05l-2.11,5.99h-5.99l10.21-26.89ZM362.8,313.1h6.97l-3.39-9.87h-.08l-3.5,9.87Z"/>
    <path d="M381.82,296.61h14.5c4.82,0,7.87,3.35,7.87,7.42,0,3.16-1.28,5.54-4.26,6.74v.08c2.9.75,3.73,3.58,3.92,6.29.11,1.69.08,4.86,1.13,6.36h-5.91c-.72-1.69-.64-4.29-.94-6.44-.41-2.82-1.51-4.07-4.48-4.07h-5.91v10.51h-5.91v-26.89ZM387.73,308.77h6.48c2.64,0,4.07-1.13,4.07-3.84s-1.43-3.73-4.07-3.73h-6.48v7.57Z"/>
    <path d="M426.93,305.65c-.38-2.67-2.94-4.71-5.87-4.71-5.31,0-7.31,4.52-7.31,9.23s2,9,7.31,9c3.62,0,5.65-2.49,6.1-6.03h5.72c-.6,6.7-5.23,11-11.82,11-8.32,0-13.22-6.21-13.22-13.97s4.9-14.2,13.22-14.2c5.91,0,10.88,3.46,11.6,9.68h-5.72Z"/>
    <path d="M436.91,296.61h5.91v10.32h10.88v-10.32h5.91v26.89h-5.91v-11.6h-10.88v11.6h-5.91v-26.89Z"/>
    <path d="M464.81,296.61h5.91v26.89h-5.91v-26.89Z"/>
    <path d="M481.87,301.58h-8.06v-4.97h22.03v4.97h-8.06v21.92h-5.91v-21.92Z"/>
    <path d="M498.93,296.61h20.11v4.97h-14.2v5.76h13.03v4.59h-13.03v6.59h14.5v4.97h-20.41v-26.89Z"/>
    <path d="M541.25,305.65c-.38-2.67-2.94-4.71-5.87-4.71-5.31,0-7.31,4.52-7.31,9.23s2,9,7.31,9c3.62,0,5.65-2.49,6.1-6.03h5.72c-.6,6.7-5.23,11-11.82,11-8.32,0-13.22-6.21-13.22-13.97s4.9-14.2,13.22-14.2c5.91,0,10.88,3.46,11.6,9.68h-5.72Z"/>
    <path d="M557.18,301.58h-8.06v-4.97h22.03v4.97h-8.06v21.92h-5.91v-21.92Z"/>
    <path d="M597.06,313.33c0,7.27-4.29,10.81-11.49,10.81s-11.45-3.5-11.45-10.81v-16.72h5.91v16.72c0,2.94.75,5.84,5.54,5.84,4.22,0,5.57-1.85,5.57-5.84v-16.72h5.91v16.72Z"/>
    <path d="M602.14,296.61h14.5c4.82,0,7.87,3.35,7.87,7.42,0,3.16-1.28,5.54-4.26,6.74v.08c2.9.75,3.73,3.58,3.92,6.29.11,1.69.08,4.86,1.13,6.36h-5.91c-.72-1.69-.64-4.29-.94-6.44-.41-2.82-1.51-4.07-4.48-4.07h-5.91v10.51h-5.91v-26.89ZM608.06,308.77h6.48c2.64,0,4.07-1.13,4.07-3.84s-1.43-3.73-4.07-3.73h-6.48v7.57Z"/>
    <path d="M629.33,296.61h20.11v4.97h-14.2v5.76h13.03v4.59h-13.03v6.59h14.5v4.97h-20.41v-26.89Z"/>
    <path d="M664.2,296.61h8.32l6.29,18.49h.08l5.95-18.49h8.32v26.89h-5.54v-19.05h-.08l-6.59,19.05h-4.56l-6.59-18.87h-.08v18.87h-5.54v-26.89Z"/>
    <path d="M710.41,295.97c8.32,0,13.22,6.21,13.22,14.2s-4.9,13.97-13.22,13.97-13.22-6.21-13.22-13.97,4.9-14.2,13.22-14.2ZM710.41,319.16c5.31,0,7.31-4.52,7.31-9,0-4.71-2-9.23-7.31-9.23s-7.31,4.52-7.31,9.23,2,9,7.31,9Z"/>
    <path d="M727.66,296.61h11.6c6.97,0,12.2,4.37,12.2,13.29,0,7.8-3.99,13.59-12.2,13.59h-11.6v-26.89ZM733.57,318.52h5.27c3.43,0,6.7-2.11,6.7-8.06,0-5.42-1.88-8.89-7.76-8.89h-4.22v16.95Z"/>
    <path d="M755.56,296.61h20.11v4.97h-14.2v5.76h13.03v4.59h-13.03v6.59h14.5v4.97h-20.41v-26.89Z"/>
    <path d="M779.96,296.61h5.91v21.92h13.11v4.97h-19.02v-26.89Z"/>
  </g>
</svg>