<?xml version="1.0" encoding="UTF-8"?><svg id="Layer_1" xmlns="http://www.w3.org/2000/svg" xmlns:xlink="http://www.w3.org/1999/xlink" viewBox="0 0 1065 1080"><defs><style>.cls-1{fill:url(#linear-gradient);}</style><linearGradient id="linear-gradient" x1="1319.1" y1="-359.39" x2="2336.22" y2="-359.39" gradientTransform="translate(-724.69 2011.62) rotate(-30)" gradientUnits="userSpaceOnUse"><stop offset="0" stop-color="#ede800"/><stop offset="1" stop-color="#2bcf00"/></linearGradient></defs><path class="cls-1" d="M805.55,1006.77c243.24-140.43,326.58-451.47,186.15-694.71L110.84,820.62c140.43,243.24,451.46,326.58,694.71,186.15Z"/><path d="M971.89,315.49l-61.29,35.39h-37.66v-98.95h78.07c-1.87-2.38-3.78-4.72-5.69-7.06h-72.39v-72.39c-2.34-1.91-4.69-3.82-7.06-5.69v78.07h-98.95v-37.66l35.39-61.29h35.08c-3.52-2.4-7.06-4.75-10.64-7.06h-20.36l5.37-9.29c-.09-.05-.18-.1-.27-.16l-11.97-6.91-9.44,16.36h-23.15v-33.11c-2.35-1.1-4.69-2.21-7.06-3.27v36.38h-98.95v-69.09c-2.35-.52-4.7-1.05-7.06-1.54v70.63h-95.42V57.97c-2.35-.03-4.7-.09-7.06-.09s-4.71.06-7.07.09v80.87h-95.42v-70.63c-2.37.48-4.71,1.02-7.06,1.54v69.09h-98.95v-36.38c-2.37,1.07-4.71,2.17-7.06,3.27v33.11h-23.15l-9.44-16.36-11.86,6.85c-.13.07-.25.15-.37.22l5.36,9.29h-20.36c-3.58,2.31-7.12,4.67-10.64,7.06h35.08l35.39,61.3v37.66h-98.95v-78.07c-2.38,1.87-4.72,3.78-7.06,5.69v72.39h-72.39c-1.91,2.34-3.82,4.69-5.69,7.06h78.07v98.95h-37.66l-61.29-35.39v-35.08c-2.4,3.52-4.75,7.06-7.06,10.64v20.36l-9.29-5.37c-.04.06-.08.13-.11.19l-6.95,12.04,16.36,9.44v23.15h-33.11c-1.1,2.35-2.21,4.69-3.27,7.06h36.38v98.95H54.66c-.52,2.35-1.05,4.7-1.54,7.06h70.63v95.42H42.88c-.03,2.35-.09,4.7-.09,7.06s.06,4.71.09,7.06h80.87v95.42H53.13c.48,2.37,1.02,4.71,1.54,7.06h69.09v98.95h-36.38c1.07,2.37,2.17,4.71,3.27,7.06h33.11v23.15l-16.36,9.44,6.99,12.11s.05.08.07.12l9.29-5.37v20.36c2.31,3.58,4.67,7.12,7.06,10.64v-35.08l61.29-35.39h37.66v98.95h-78.07c1.87,2.38,3.78,4.72,5.69,7.06h72.39v72.39c2.34,1.91,4.69,3.82,7.06,5.69v-78.07h98.95v37.66l-35.39,61.3h-35.07c3.52,2.4,7.06,4.75,10.64,7.06h20.35l-5.36,9.29c.08.05.16.1.25.15l11.99,6.92,9.44-16.36h23.15v33.11c2.35,1.1,4.69,2.21,7.06,3.27v-36.38h98.95v69.09c2.35.52,4.7,1.05,7.06,1.54v-70.63h95.42v80.87c2.35.03,4.7.09,7.07.09s4.71-.06,7.06-.09v-80.87h95.42v70.63c2.37-.48,4.71-1.02,7.06-1.54v-69.09h98.95v36.38c2.37-1.07,4.71-2.17,7.06-3.27v-33.11h23.15l9.44,16.36,12.1-6.98s.09-.05.14-.08l-5.37-9.29h20.36c3.58-2.31,7.13-4.67,10.64-7.06h-35.08l-35.39-61.29v-37.66h98.95v78.07c2.37-1.87,4.72-3.78,7.06-5.69v-72.39h72.39c1.91-2.34,3.82-4.69,5.69-7.06h-78.07v-98.95h37.66l61.29,35.39v35.08c2.4-3.52,4.75-7.06,7.06-10.64v-20.36l9.29,5.37c.04-.06.07-.12.11-.18l6.96-12.05-16.36-9.44v-23.15h33.11c1.1-2.35,2.21-4.69,3.27-7.06h-36.38v-98.95h69.09c.52-2.35,1.05-4.7,1.54-7.06h-70.63v-95.42h80.87c.03-2.32.09-4.63.09-6.96v-.21c0-2.33-.06-4.64-.09-6.96h-80.87v-95.42h70.63c-.48-2.37-1.02-4.71-1.54-7.06h-69.09v-98.95h36.38c-1.07-2.37-2.17-4.71-3.27-7.06h-33.11v-23.15l16.36-9.44-6.92-11.98c-.05-.09-.1-.17-.15-.26l-9.29,5.36v-20.36c-2.31-3.58-4.67-7.12-7.06-10.64v35.08ZM766.92,145.9h19.07l-19.07,33.03v-33.03ZM130.82,331.8l33.04,19.08h-33.04v-19.08ZM130.82,801.08v-19.07h33.04l-33.04,19.07ZM229.77,774.94h-25.43l25.43-14.68v14.68ZM229.77,743.95l-53.68,30.99h-45.27v-98.95h98.95v67.96ZM229.77,668.92h-98.95v-95.42h98.95v95.42ZM229.77,559.38h-98.95v-95.42h98.95v95.42ZM229.77,456.89h-98.95v-98.95h45.28l53.68,30.99v67.96ZM229.77,372.62l-25.43-14.68h25.43v14.68ZM335.79,986.98h-19.08l19.08-33.04v33.04ZM335.79,880.96h-98.95v-98.95h98.95v98.95ZM335.79,774.94h-98.95v-18.76l98.95-57.13v75.89ZM335.79,682.74l-98.95,57.13v-63.88h98.95v6.75ZM335.79,668.92h-98.95v-95.42h98.95v95.42ZM335.79,559.38h-98.95v-95.42h98.95v95.42ZM335.79,456.89h-98.95v-63.88l98.95,57.13v6.75ZM335.79,433.83l-98.95-57.13v-18.76h98.95v75.89ZM335.79,350.87h-98.95v-98.95h98.95v98.95ZM335.79,178.94l-19.07-33.04h19.07v33.04ZM342.85,219.44l14.68,25.42h-14.68v-25.42ZM342.85,251.92h18.76l57.13,98.95h-75.89v-98.95ZM342.85,454.22l4.63,2.68h-4.63v-2.68ZM342.85,675.99h4.63l-4.63,2.67v-2.67ZM342.85,782.01h75.89l-57.13,98.95h-18.75v-98.95ZM342.85,888.02h14.68l-14.68,25.42v-25.42ZM441.81,986.98h-98.95v-45.27l30.99-53.68h67.96v98.95ZM441.81,880.96h-63.88l57.13-98.95h6.75v98.95ZM441.81,774.94h-2.67l2.67-4.63v4.63ZM441.81,742.05l-18.99,32.89h-79.96v-79.97l32.88-18.99h66.07v66.06ZM441.81,668.92h-53.84l53.84-31.08v31.08ZM441.81,621.53l-82.09,47.39h-16.87v-95.42h98.95v48.03ZM441.81,559.38h-98.95v-95.42h16.87l82.09,47.39v48.03ZM441.81,495.04l-53.83-31.08h53.83v31.08ZM441.81,456.89h-66.07l-32.89-18.99v-79.97h79.96l18.99,32.89v66.06ZM441.81,362.57l-2.67-4.63h2.67v4.63ZM441.81,350.87h-6.75l-57.13-98.95h63.88v98.95ZM441.81,244.86h-67.96l-30.99-53.68v-45.27h98.95v98.95ZM448.87,403.06l31.08,53.83h-31.08v-53.83ZM448.87,463.95h35.16l48.03,83.18-83.18-48.03v-35.16ZM448.87,515.42l76.13,43.95h-76.13v-43.95ZM448.87,573.5h76.12l-76.12,43.95v-43.95ZM448.87,633.76l83.18-48.03-48.03,83.19h-35.16v-35.16ZM448.87,675.99h31.08l-31.08,53.83v-53.83ZM544.29,986.98h-95.42v-98.95h95.42v98.95ZM544.29,880.96h-95.42v-98.95h95.42v98.95ZM544.29,774.94h-95.42v-16.87l47.39-82.09h48.03v98.95ZM544.29,668.92h-43.95l43.95-76.12v76.12ZM544.29,540.08l-43.95-76.12h43.95v76.12ZM544.29,456.89h-48.03l-47.39-82.09v-16.87h95.42v98.95ZM544.29,350.87h-95.42v-98.95h95.42v98.95ZM544.29,244.86h-95.42v-98.95h95.42v98.95ZM558.42,463.95h43.95l-43.95,76.12v-76.12ZM558.42,592.8l43.95,76.12h-43.95v-76.12ZM653.84,986.98h-95.42v-98.95h95.42v98.95ZM653.84,880.96h-95.42v-98.95h95.42v98.95ZM653.84,774.94h-95.42v-98.95h48.03l47.4,82.09v16.86ZM653.84,729.82l-31.08-53.83h31.08v53.83ZM653.84,668.92h-35.16l-48.03-83.19,83.19,48.03v35.16ZM653.84,617.45l-76.12-43.95h76.12v43.95ZM653.84,559.38h-76.13l76.13-43.95v43.95ZM653.84,499.11l-83.19,48.03,48.03-83.19h35.16v35.16ZM653.84,456.89h-31.08l31.08-53.84v53.84ZM653.84,374.8l-47.4,82.09h-48.03v-98.95h95.42v16.86ZM653.84,350.87h-95.42v-98.95h95.42v98.95ZM653.84,244.86h-95.42v-98.95h95.42v98.95ZM660.9,251.92h63.88l-57.13,98.95h-6.75v-98.95ZM660.9,357.94h2.67l-2.67,4.63v-4.63ZM660.9,463.95h53.83l-53.83,31.08v-31.08ZM660.9,637.84l53.84,31.08h-53.84v-31.08ZM660.9,770.31l2.67,4.63h-2.67v-4.63ZM660.9,782.01h6.75l57.13,98.95h-63.88v-98.95ZM759.86,986.98h-98.95v-98.95h67.96l30.99,53.68v45.27ZM759.86,913.45l-14.68-25.43h14.68v25.43ZM759.86,880.96h-18.76l-57.13-98.95h75.89v98.95ZM759.86,774.94h-79.97l-18.99-32.89v-66.07h66.07l32.88,18.99v79.97ZM759.86,678.66l-4.63-2.67h4.63v2.67ZM759.86,668.92h-16.87l-82.09-47.39v-48.03h98.95v95.42ZM759.86,559.38h-98.95v-48.03l82.09-47.39h16.87v95.42ZM759.86,456.89h-4.63l4.63-2.68v2.68ZM759.86,437.9l-32.89,18.99h-66.07v-66.07l18.99-32.88h79.97v79.97ZM759.86,350.87h-75.89l57.13-98.95h18.76v98.95ZM759.86,244.86h-14.68l14.68-25.43v25.43ZM759.86,191.17l-31,53.69h-67.96v-98.95h98.95v45.27ZM785.99,986.98h-19.07v-33.04l19.07,33.04ZM865.87,880.96h-98.95v-98.95h98.95v98.95ZM865.87,774.94h-98.95v-75.89l98.95,57.13v18.76ZM865.87,739.87l-98.95-57.13v-6.75h98.95v63.88ZM865.87,668.92h-98.95v-95.42h98.95v95.42ZM865.87,559.38h-98.95v-95.42h98.95v95.42ZM865.87,456.89h-98.95v-6.75l98.95-57.13v63.88ZM865.87,376.7l-98.95,57.13v-75.89h98.95v18.76ZM865.87,350.87h-98.95v-98.95h98.95v98.95ZM872.94,357.94h25.43l-25.43,14.68v-14.68ZM872.94,774.94v-14.68l25.43,14.68h-25.43ZM971.89,801.08l-33.04-19.07h33.04v19.07ZM971.89,774.94h-45.27l-53.68-30.99v-67.96h98.95v98.95ZM971.89,668.92h-98.95v-95.42h98.95v95.42ZM971.89,559.38h-98.95v-95.42h98.95v95.42ZM971.89,456.89h-98.95v-67.96l53.68-30.99h45.27v98.95ZM971.89,350.87h-33.04l33.04-19.08v19.08Z"/><circle cx="805.4" cy="123.47" r="52.88"/><circle cx="57.96" cy="566.44" r="52.88"/><circle cx="105.98" cy="312.06" r="52.88"/><circle cx="297.31" cy="123.48" r="52.88"/><circle cx="551.79" cy="57.88" r="52.88"/></svg>