<svg id="Layer_1" data-name="Layer 1" xmlns="http://www.w3.org/2000/svg" viewBox="0 0 159.66 222.02"><defs><style>.cls-1{fill:none;}.cls-2{fill:#36bf4e;}.cls-3{fill:#008f65;}</style></defs><rect class="cls-1" x="24.43" y="186.68" width="10.87" height="3.55"/><path class="cls-2" d="M158.09,137H254V111.63H158.09Zm32.65-20.67h8v17.31h-8V116.32Zm-12,0h8v17.31h-8Zm-13.32,0h8v17.31h-8Z" transform="translate(-120.17 -11.49)"/><path class="cls-2" d="M158.09,203v1.89H254V179.56H158.09Zm32.65-18.78h8v17.32h-8Zm-12,0h8v17.32h-8Zm-13.32,0h8v17.32h-8Z" transform="translate(-120.17 -11.49)"/><path class="cls-2" d="M158.09,170.29H254V144.93H158.09Zm75.28-20.67h8v17.31h-8V149.62Zm-12,0h8v17.31h-8V149.62Zm-13.32,0h8v17.31h-8V149.62Z" transform="translate(-120.17 -11.49)"/><path class="cls-2" d="M220,46.28c9.37-12.56,19-18.26,19.37-18.5A1.31,1.31,0,0,1,240.69,30c-.27.16-20,12.08-29.88,38.77,5,1.55,23.8,6.32,38.12-3.9,12.54-9,18.61-26.93,18-53.42-7.08.13-42,1.79-55.36,20.9-6.09,8.69-6.92,19.93-2.5,33.45A84.93,84.93,0,0,1,220,46.28Z" transform="translate(-120.17 -11.49)"/><path class="cls-2" d="M163.71,72.28c6.54,3.06,14.49,1.76,23.62-3.83a62.35,62.35,0,0,0-17.12-13,1.31,1.31,0,0,1,1.1-2.38A65.31,65.31,0,0,1,189,66.45c1.65-3.76,5-13.33.16-20.25-5.58-7.93-20.64-10.3-43.59-6.87C146.48,44.76,150.71,66.21,163.71,72.28Z" transform="translate(-120.17 -11.49)"/><path class="cls-2" d="M138.61,180.38a4,4,0,1,0,.11,2.07,4.12,4.12,0,0,0,.1-.86A3.75,3.75,0,0,0,138.61,180.38Z" transform="translate(-120.17 -11.49)"/><path class="cls-2" d="M142.79,222.85a4,4,0,1,0,4,4A4,4,0,0,0,142.79,222.85Z" transform="translate(-120.17 -11.49)"/><path class="cls-2" d="M126.81,202.87a4,4,0,1,0,4,4A4,4,0,0,0,126.81,202.87Z" transform="translate(-120.17 -11.49)"/><path class="cls-3" d="M275.56,132.14h-9.09l-10.37,7.23h0a1.37,1.37,0,0,1-.32.16l-.07,0a1.41,1.41,0,0,1-.35,0H175.82l-9.6,2.71H255Z" transform="translate(-120.17 -11.49)"/><path class="cls-3" d="M255,109l20.52-10.17h-70.3c0-.44,0-.88,0-1.31s0-.88,0-1.31a90.58,90.58,0,0,1,4.58-24.93l.42-1.25c.15-.41.3-.82.46-1.23,9.9-26.69,29.61-38.61,29.88-38.77a1.31,1.31,0,0,0-1.32-2.26c-.41.24-10,5.94-19.37,18.5a84.93,84.93,0,0,0-10.89,19.56c-.25.62-.49,1.25-.73,1.89s-.47,1.28-.69,1.94a93,93,0,0,0-4.8,23.82,51.42,51.42,0,0,0-11.95-24.91c-.31-.37-.62-.72-.94-1.08l-1-1A65.31,65.31,0,0,0,171.31,53a1.31,1.31,0,0,0-1.1,2.38,62.35,62.35,0,0,1,17.12,13q.45.48.9,1c.29.32.58.66.87,1a48.47,48.47,0,0,1,11.57,26.12c.05.44.1.88.13,1.33s.07.88.1,1.33L166.22,109Z" transform="translate(-120.17 -11.49)"/><polygon class="cls-3" points="156.33 89.8 136.49 99.65 136.49 118.03 136.49 119.34 136.49 120.65 136.49 124.3 141.72 120.65 143.6 119.34 145.47 118.03 159.66 108.14 159.66 88.15 159.66 88.15 156.33 89.8"/><path class="cls-3" d="M264.56,166.77l-8.46,5.9h0a1.37,1.37,0,0,1-.32.16l-.07,0a1.41,1.41,0,0,1-.35.05H180.54l-14.32,4H255l20.52-10.18Z" transform="translate(-120.17 -11.49)"/><polygon class="cls-3" points="136.49 192.23 159.66 176.07 159.66 156.08 136.49 167.58 136.49 192.23"/><polygon class="cls-3" points="136.49 152.66 136.49 153.97 136.49 155.28 136.49 157.6 139.81 155.28 141.69 153.97 143.56 152.66 159.66 141.44 159.66 121.45 136.49 132.95 136.49 152.66"/><polygon class="cls-3" points="87.89 153.97 87.89 155.28 87.89 155.44 95.88 155.44 95.88 155.28 95.88 153.97 95.88 152.66 95.88 138.13 87.89 138.13 87.89 152.66 87.89 153.97"/><polygon class="cls-3" points="101.21 153.97 101.21 155.28 101.21 155.44 109.2 155.44 109.2 155.28 109.2 153.97 109.2 152.66 109.2 138.13 101.21 138.13 101.21 152.66 101.21 153.97"/><polygon class="cls-3" points="113.2 153.97 113.2 155.28 113.2 155.44 121.19 155.44 121.19 155.28 121.19 153.97 121.19 152.66 121.19 138.13 113.2 138.13 113.2 152.66 113.2 153.97"/><polygon class="cls-1" points="24.43 186.68 24.43 190.23 35.3 190.23 35.53 190.23 35.53 186.68 35.3 186.68 24.43 186.68"/><path class="cls-1" d="M126.81,202.87a4,4,0,1,0,4,4A4,4,0,0,0,126.81,202.87Z" transform="translate(-120.17 -11.49)"/><path class="cls-1" d="M138.77,226.87a4,4,0,1,0,4-4A4,4,0,0,0,138.77,226.87Z" transform="translate(-120.17 -11.49)"/><path class="cls-1" d="M134.8,177.57a4,4,0,1,0,3.92,4.88,4.12,4.12,0,0,0,.1-.86,3.75,3.75,0,0,0-.21-1.21A4,4,0,0,0,134.8,177.57Z" transform="translate(-120.17 -11.49)"/><polygon class="cls-3" points="35.49 132.8 35.3 132.8 29.28 132.8 29.28 134.13 22.62 134.13 22.62 136.8 29.28 136.8 29.28 138.79 22.62 138.79 22.62 141.46 29.28 141.46 29.28 143.46 22.62 143.46 22.62 146.12 29.28 146.12 29.28 147.45 35.3 147.45 35.53 147.45 35.53 132.8 35.49 132.8"/><path class="cls-3" d="M155.47,180.06H141.25a6.63,6.63,0,1,0,.09,2.62H155.7v-2.62Zm-16.75,2.39a4.05,4.05,0,1,1-.11-2.07,3.75,3.75,0,0,1,.21,1.21A4.12,4.12,0,0,1,138.72,182.45Z" transform="translate(-120.17 -11.49)"/><path class="cls-3" d="M155.47,189.39h-16a1.31,1.31,0,0,0-1.06.54l-8.21,11.26a6.67,6.67,0,1,0,1.95,1.77l8-11H155.7v-2.61Zm-28.66,21.52a4,4,0,1,1,4-4A4,4,0,0,1,126.81,210.91Z" transform="translate(-120.17 -11.49)"/><path class="cls-3" d="M155.47,201.72H144.6v-3.55h11.1v-2.61H143.29a1.31,1.31,0,0,0-1.31,1.3v23.43a6.64,6.64,0,1,0,2.62.2V204.34h11.1v-2.62Zm-8.66,25.15a4,4,0,1,1-4-4A4,4,0,0,1,146.81,226.87Z" transform="translate(-120.17 -11.49)"/></svg>