<?xml version="1.0" encoding="UTF-8"?>
<svg id="Layer_1" data-name="Layer 1" xmlns="http://www.w3.org/2000/svg" viewBox="0 0 500 500">
  <defs>
    <style>
      .cls-1 {
        fill: none;
      }

      .cls-2 {
        fill: #b8f119;
      }

      .cls-3 {
        fill: #0adea9;
      }
    </style>
  </defs>
  <rect class="cls-1" x="364.8356635" y="263.7661197" width="79.5033511" height="79.5053483"/>
  <path class="cls-1" d="m341.2810382,189.7008134c-13.9709545-4.0297902-24.9633792-15.0217156-28.993419-28.9926701h-50.5099321v48.5214995c14.6265256,4.219022,25.9801885,16.0739747,29.5041953,30.9818516h49.9991558v-50.5106811Z"/>
  <path class="cls-1" d="m290.1350074,263.7661197c-4.4664215,13.0195525-15.058164,23.1681728-28.3573203,27.0042375v52.5011108h79.5033511v-79.5053483h-51.1460308Z"/>
  <path class="cls-1" d="m158.7197107,160.7081433v79.5033511h49.9981573c3.5240068-14.9081266,14.878169-26.7630792,29.5051939-30.9821012v-48.5212499h-79.5033511Z"/>
  <rect class="cls-1" x="55.6617343" y="160.7081433" width="79.5033511" height="79.5033511"/>
  <path class="cls-1" d="m444.3390147,55.6609853h-79.5033511v52.4986143c13.9712041,4.0300398,24.9633792,15.0224646,28.9931694,28.9939183h50.5101818V55.6609853Z"/>
  <path class="cls-1" d="m444.3390147,240.2114944v-79.5033511h-50.5104314c-4.0300398,13.9709545-15.0222149,24.9626303-28.9929197,28.9924204v50.5109307h79.5033511Z"/>
  <path class="cls-1" d="m261.7776871,55.6609853v81.4925326h50.5096825c4.0297902-13.9717034,15.0222149-24.9641281,28.9936687-28.994168v-52.4983647h-79.5033511Z"/>
  <path class="cls-1" d="m135.1650854,137.153518V55.6609853h-50.5109307c-4.0297902,13.9709545-15.0217156,24.9631296-28.9924204,28.9931694v52.4993633h79.5033511Z"/>
  <path class="cls-1" d="m55.6617343,263.7661197v50.5099321c13.9714537,4.0302895,24.9638785,15.0234631,28.9929197,28.9954162h50.5104314v-79.5053483H55.6617343Z"/>
  <rect class="cls-1" x="158.7197107" y="366.8220989" width="79.5033511" height="77.518164"/>
  <rect class="cls-1" x="261.7776871" y="366.8220989" width="79.5033511" height="77.518164"/>
  <path class="cls-1" d="m135.1650854,444.3402629v-77.518164h-50.5104314c-4.0295405,13.9717034-15.0217156,24.9646274-28.9929197,28.9949169v48.5232471h79.5033511Z"/>
  <path class="cls-1" d="m364.8356635,366.8220989v77.518164h50.5096825c4.0297902-13.9714537,15.0222149-24.9646274,28.9936687-28.9946672v-48.5234967h-79.5033511Z"/>
  <rect class="cls-1" x="158.7197107" y="55.6609853" width="79.5033511" height="81.4925326"/>
  <path class="cls-1" d="m209.8647429,263.7661197h-51.1450322v79.5053483h79.5033511v-52.5008612c-13.2996556-3.8363143-23.8918974-13.984685-28.3583189-27.0044871Z"/>
  <path class="cls-2" d="m341.2830354,456.1155784v-89.2934794h-.0019972v77.518164h-79.5033511v-77.518164h-23.5546253v77.518164h-79.5033511v-77.518164h-23.5546253v77.518164H55.6617343v-48.5232471c-3.7436955,1.0799698-7.6868584,1.6908542-11.7783112,1.6908542-4.0907039,0-8.0331178-.6106348-11.7763141-1.6903549v72.0733787h309.2478245v-11.7753155h-.0718981Z"/>
  <polygon class="cls-2" points="32.1091062 84.6551533 32.107109 84.654654 32.107109 314.2755525 32.1091062 314.2750532 32.1091062 84.6551533"/>
  <path class="cls-2" d="m84.6541547,55.6609853h50.5109307v81.4925326H55.6617343v-52.4993633c-.0004993.0002496-.0012482.0004993-.0019972.0004993v52.5008612h256.6268835c.0002496-.0007489.0004993-.0014979.0007489-.0019972h-50.5096825V55.6609853h79.5033511v52.4983647c3.7434459-1.0797201,7.6861095-1.6906046,11.777063-1.6906046,4.0912031,0,8.0341164.6111341,11.7775623,1.6908542v-52.4986143h79.5033511v81.4925326h-50.5101818c1.0797201,3.7431962,1.6906046,7.6856102,1.6906046,11.7765637,0,4.0914528-.6108844,8.034366-1.6908542,11.7780616h50.5104314v79.5033511h-79.5033511v-50.5109307c-.0004993,0-.0012482.0004993-.0019972.0007489v254.6389502h.0019972v-77.518164h79.5033511v48.5234967c3.7434459-1.0797201,7.6861095-1.6906046,11.7773126-1.6906046s8.0338668.6108844,11.7773126,1.6906046V32.1063601H84.6541547c1.0797201,3.7434459,1.6906046,7.6861095,1.6906046,11.7773126s-.6108844,8.0338668-1.6906046,11.7773126Zm280.1815088,287.6104826v-79.5053483h79.5033511v79.5053483h-79.5033511Zm-126.6126017-206.11795h-79.5033511V55.6609853h79.5033511v81.4925326Z"/>
  <path class="cls-2" d="m249.9998752,292.4612114c-4.0909535,0-8.0336171-.6108844-11.7768133-1.6906046v52.5008612h23.5546253v-52.5011108c-3.7436955,1.0799698-7.6866088,1.6908542-11.7778119,1.6908542Z"/>
  <path class="cls-2" d="m312.2876192,160.7081433c-.0002496-.0004993-.0002496-.0014979-.0004993-.0019972H55.6597371v79.5073455h153.0576315c0-.0007489.0004993-.0014979.0004993-.0019972h-49.9981573v-79.5033511h79.5033511v48.5212499c3.7431962-1.0797201,7.6858598-1.6906046,11.7768133-1.6906046,4.0912031,0,8.0341164.6108844,11.7778119,1.6908542v-48.5214995h50.5099321Zm-177.1225338,79.5033511H55.6617343v-79.5033511h79.5033511v79.5033511Z"/>
  <polygon class="cls-2" points="209.8647429 263.7661197 209.863994 263.7641225 55.6597371 263.7641225 55.6597371 314.2755525 55.6617343 314.2760518 55.6617343 263.7661197 135.1650854 263.7661197 135.1650854 343.271468 158.7197107 343.271468 158.7197107 263.7661197 209.8647429 263.7661197"/>
  <path class="cls-2" d="m341.2830354,189.7013126c-.0004993,0-.0012482-.0002496-.0019972-.0004993v50.5106811h-49.9991558c.7439459,3.1472906,1.179329,6.4136624,1.179329,9.7883808,0,4.8251632-.8435548,9.4438689-2.326204,13.7662445h51.1460308v79.5053483h.0019972v-153.5701553Z"/>
  <path class="cls-3" d="m467.8936399,415.3455956c-3.7434459-1.0797201-7.6861095-1.6906046-11.7773126-1.6906046s-8.0338668.6108844-11.7773126,1.6906046c-13.9714537,4.0300398-24.9638785,15.0232135-28.9936687,28.9946672h-50.5116796v-254.6389502c.0007489-.0002496.0014979-.0007489.0019972-.0007489,13.9707048-4.0297902,24.9628799-15.021466,28.9929197-28.9924204,1.0799698-3.7436955,1.6908542-7.6866088,1.6908542-11.7780616,0-4.0909535-.6108844-8.0333675-1.6906046-11.7765637-4.0297902-13.9714537-15.0219653-24.9638785-28.9931694-28.9939183-3.7434459-1.0797201-7.6863591-1.6908542-11.7775623-1.6908542-4.0909535,0-8.0336171.6108844-11.777063,1.6906046-13.9714537,4.0300398-24.9638785,15.0224646-28.9936687,28.994168-.0002496.0004993-.0004993.0012482-.0007489.0019972H55.6597371v-52.5008612c.0007489,0,.0014979-.0002496.0019972-.0004993,13.9707048-4.0300398,24.9626303-15.0222149,28.9924204-28.9931694,1.0797201-3.7434459,1.6906046-7.6861095,1.6906046-11.7773126s-.6108844-8.0338668-1.6906046-11.7773126C79.5443948,14.3917101,63.2429923,1.4223365,43.8834231,1.4223365,20.4329003,1.4223365,1.4223365,20.4329003,1.4223365,43.8836727c0,19.3600686,12.9698729,35.661471,30.6847725,40.7709813.0007489.0002496.0014979.0002496.0019972.0004993v229.6198999c-.0004993.0002496-.0012482.0002496-.0019972.0004993-17.7148996,5.1095103-30.6847725,21.4109127-30.6847725,40.7709813s12.9698729,35.661471,30.6847725,40.7709813c3.7431962,1.0797201,7.6856102,1.6903549,11.7763141,1.6903549,4.0914528,0,8.0346157-.6108844,11.7783112-1.6908542,13.9712041-4.0302895,24.9633792-15.0232135,28.9929197-28.9949169h256.6283814v89.2934794h.0718981v11.7753155h73.9899132c5.109011,17.7158982,21.4109127,30.6867697,40.7714806,30.6867697,23.4507724,0,42.4613362-19.0105638,42.4613362-42.4613362,0-19.3595693-12.9693736-35.6609717-30.6840236-40.7707317Zm-126.6126017-72.0741276H84.654654c-4.0290412-13.971953-15.021466-24.9651267-28.9929197-28.9954162-.0004993-.0002496-.0012482-.0004993-.0019972-.0004993v-50.51143h154.2042569c.0002496.0007489.0004993.0012482.0007489.0019972,4.4664215,13.0198021,15.0586633,23.1681728,28.3583189,27.0044871,3.7431962,1.0797201,7.6858598,1.6906046,11.7768133,1.6906046,4.0912031,0,8.0341164-.6108844,11.7778119-1.6908542,13.2991563-3.8360647,23.8908988-13.984685,28.3573203-27.0042375,1.4826492-4.3223756,2.326204-8.9410813,2.326204-13.7662445,0-3.3747183-.4353831-6.6410902-1.179329-9.7883808-3.5240068-14.9078769-14.8776697-26.7628296-29.5041953-30.9818516-3.7436955-1.0799698-7.6866088-1.6908542-11.7778119-1.6908542-4.0909535,0-8.0336171.6108844-11.7768133,1.6906046-14.6270249,4.219022-25.9811871,16.0739747-29.5051939,30.9821012,0,.0004993-.0004993.0012482-.0004993.0019972H55.6597371v-79.5073455h256.6273828c.0002496.0004993.0002496.0014979.0004993.0019972,4.0300398,13.9709545,15.0224646,24.9628799,28.993419,28.9926701.0007489.0002496.0014979.0004993.0019972.0004993v153.5701553h-.0019972Z"/>
</svg>