<?xml version="1.0" encoding="UTF-8"?><svg id="Layer_1" xmlns="http://www.w3.org/2000/svg" viewBox="0 0 103.86 98.11"><defs><style>.cls-1{fill:#fff;}</style></defs><path class="cls-1" d="m48.36,90.04c2.07,2.62,4.07,5.3,6,8.06,2.01-2.74,4.08-5.43,6.23-8.06h-12.23Z"/><path class="cls-1" d="m54.42,0c-2.62,0-4.62,2-4.62,4.62v37.8h9.24V4.62C59.04,2,57.04,0,54.42,0Z"/><path class="cls-1" d="m46.52,84.58h16.11c5.81-7.84,12.45-14.81,20.2-20.53H26.31c7.68,5.57,14.37,12.5,20.21,20.53Z"/><path class="cls-1" d="m100.63,49.35H8.21h0c-1.83,0-3.23,2-3.23,4.62s1.4,4.62,3.23,4.62h85.32s.08,0,.13,0c.08,0,.17,0,.25,0h0s6.72,0,6.72,0c1.83,0,3.23-2,3.23-4.62s-1.4-4.62-3.23-4.62Z"/><path class="cls-1" d="m96.68,78.22h-16.35s0,0,0,0c-.61,0-1.2.35-1.63.97-.43.62-.67,1.46-.67,2.33,0,1.82,1.03,3.29,2.3,3.29h16.35c1.27,0,2.3-1.47,2.3-3.29,0-.87-.24-1.71-.67-2.33-.43-.62-1.02-.97-1.63-.97Z"/><path class="cls-1" d="m35.12,89.38h-16.35s0,0,0,0c-1.27,0-2.3,1.47-2.3,3.29,0,1.82,1.03,3.29,2.3,3.3h16.35c.61,0,1.2-.35,1.63-.97.43-.62.67-1.46.67-2.33,0-1.82-1.03-3.29-2.3-3.29Z"/><path class="cls-1" d="m20.96,73.67c0-.87-.24-1.71-.67-2.33s-1.02-.97-1.63-.97H2.3s0,0,0,0C1.03,70.37,0,71.85,0,73.67c0,1.82,1.03,3.29,2.3,3.29h16.35c1.27,0,2.3-1.47,2.3-3.29Z"/></svg>