<?xml version="1.0" encoding="UTF-8"?>
<svg id="Layer_1" xmlns="http://www.w3.org/2000/svg" width="800" height="800" version="1.1" viewBox="0 0 800 800">
  <!-- Generator: Adobe Illustrator 29.0.0, SVG Export Plug-In . SVG Version: 2.1.0 Build 186)  -->
  <defs>
    <style>
      .st0 {
        fill: #fff;
      }
    </style>
  </defs>
  <circle class="st0" cx="401.6" cy="80.3" r="78.6"/>
  <circle class="st0" cx="143.2" cy="240.8" r="78.6"/>
  <circle class="st0" cx="653.1" cy="240.8" r="78.6"/>
  <polygon class="st0" points="369.3 693.6 545.3 464.3 401.6 277.1 1.6 798.3 111.4 798.3 280.5 577.9 369.3 693.6"/>
  <polygon class="st0" points="798.4 798.3 549.1 470.2 373.7 700.9 447.7 798.3 798.4 798.3"/>
  <polygon class="st0" points="300.5 798.3 438.2 798.3 369.3 707.9 300.5 798.3"/>
  <polygon class="st0" points="280.5 591.4 122.8 798.3 291.7 798.3 364.9 702.1 280.5 591.4"/>
  <polygon class="st0" points="369.3 707.9 364.9 702.1 291.7 798.3 300.5 798.3 369.3 707.9"/>
</svg>