<?xml version="1.0" encoding="UTF-8" standalone="no"?>
<!-- Generator: Adobe Illustrator 24.3.0, SVG Export Plug-In . SVG Version: 6.00 Build 0)  -->

<svg
   version="1.1"
   id="Layer_1"
   x="0px"
   y="0px"
   viewBox="0 0 288.70001 288.39999"
   xml:space="preserve"
   sodipodi:docname="seapath-icon-transparent-black.svg"
   width="288.70001"
   height="288.39999"
   inkscape:export-filename="/Users/johnmertic/Code/lfenergy-artwork/projects/seapath/icon/transparent-black/seapath-icon-transparent-black.png"
   inkscape:export-xdpi="377.10001"
   inkscape:export-ydpi="377.10001"
   inkscape:version="1.1.2 (b8e25be8, 2022-02-05)"
   xmlns:inkscape="http://www.inkscape.org/namespaces/inkscape"
   xmlns:sodipodi="http://sodipodi.sourceforge.net/DTD/sodipodi-0.dtd"
   xmlns="http://www.w3.org/2000/svg"
   xmlns:svg="http://www.w3.org/2000/svg"><defs
   id="defs381">
	
	
	
	
	
	
	
	
	
	
	
	
</defs><sodipodi:namedview
   id="namedview379"
   pagecolor="#ffffff"
   bordercolor="#666666"
   borderopacity="1.0"
   inkscape:pageshadow="2"
   inkscape:pageopacity="0.0"
   inkscape:pagecheckerboard="0"
   showgrid="false"
   inkscape:zoom="0.74642639"
   inkscape:cx="583.44668"
   inkscape:cy="155.40715"
   inkscape:window-width="1451"
   inkscape:window-height="480"
   inkscape:window-x="58"
   inkscape:window-y="25"
   inkscape:window-maximized="0"
   inkscape:current-layer="Layer_1" />
<style
   type="text/css"
   id="style320">
	.st0{fill:#FFFFFF;}
	.st1{opacity:0.5;fill:#FFFFFF;}
	.st2{opacity:0.2;fill:#FFFFFF;}
	.st3{opacity:0.7;fill:#FFFFFF;}
	.st4{opacity:0.2;}
	.st5{opacity:0.7;}
	.st6{opacity:0.5;}
	.st7{fill:none;}
	.st8{fill:#003764;}
	.st9{fill:#009ADE;}
	.st10{fill:#B1E8FC;}
	.st11{fill:#086CB7;}
</style>
<g
   id="g374"
   transform="translate(-1.3,-5.8)">
		<path
   class="st4"
   d="m 113.9,129.5 c 20.6,-14.1 41.7,-28 82.9,-28 3.4,0 6.6,0.1 9.7,0.3 15.1,-10 32.1,-18.7 61.8,-18.7 1.8,0 3.5,0 5.2,0.1 C 249.4,37.2 201.2,5.8 145.7,5.8 89.2,5.8 40.3,38.3 16.7,85.6 c 41,8.6 51.7,38.1 97.2,43.9 z"
   id="path360" />
		<path
   class="st5"
   d="M 113.9,129.5 C 68.4,123.8 57.7,94.3 16.6,85.5 6.9,104.9 1.3,126.8 1.3,150 c 0,2.3 0.1,4.6 0.2,6.9 7.9,1.4 16.8,2.3 26.8,2.3 43,0 64.1,-15 85.6,-29.7 z"
   id="path362" />
		<path
   class="st5"
   d="m 206.5,101.8 c 40.7,2.3 60.2,19.2 82.6,34 -1.8,-18.8 -7.3,-36.6 -15.7,-52.6 -1.7,-0.1 -3.4,-0.1 -5.2,-0.1 -29.6,0 -46.5,8.7 -61.7,18.7 z"
   id="path364" />
		<path
   d="m 196.8,101.5 c -41.3,0 -62.3,13.8 -82.9,28 -21.5,14.7 -42.6,29.8 -85.5,29.8 -10,0 -18.9,-0.8 -26.8,-2.3 0.3,7.4 1.2,14.6 2.7,21.6 9.1,-1.5 19.1,-2.3 30.3,-2.3 45.3,0 71.1,13.4 94.2,28.6 30.8,-13.6 44.4,-39 95,-39 29.8,0 46.8,8.8 62,18.9 2.8,-11.1 4.2,-22.8 4.2,-34.7 0,-4.8 -0.2,-9.5 -0.7,-14.2 -22.4,-14.9 -41.9,-31.7 -82.6,-34 -3.3,-0.3 -6.5,-0.4 -9.9,-0.4 z"
   id="path366" />
		<path
   class="st5"
   d="m 128.7,204.9 c 30.5,20.1 56.2,43.4 116,43.4 2.3,0 4.4,0 6.6,-0.1 16.4,-17.6 28.4,-39.3 34.3,-63.4 -15.2,-10 -32.2,-18.9 -62,-18.9 -50.6,0 -64.1,25.4 -94.9,39 z"
   id="path368" />
		<path
   class="st6"
   d="m 128.7,204.9 c -23.1,-15.2 -48.9,-28.6 -94.2,-28.6 -11.2,0 -21.2,0.8 -30.3,2.3 5.8,28.7 20,54.3 40.1,74.1 13.2,-7.5 28.8,-13.3 53,-13.3 56.2,0 66.8,31.3 105.8,43 18.4,-8 34.8,-19.7 48.2,-34.2 -2.2,0.1 -4.3,0.1 -6.6,0.1 -59.8,0 -85.6,-23.3 -116,-43.4 z"
   id="path370" />
		<path
   d="m 44.3,252.6 c 26.1,25.7 61.8,41.6 101.4,41.6 20.4,0 39.8,-4.3 57.4,-11.9 -39.1,-11.7 -49.7,-43 -105.8,-43 -24.2,0.1 -39.9,5.8 -53,13.3 z"
   id="path372" />
	</g>
</svg>
