<?xml version="1.0" encoding="UTF-8"?>
<svg id="Layer_1" data-name="Layer 1" xmlns="http://www.w3.org/2000/svg" viewBox="0 0 500 500">
  <path d="M190.86,99.74l.69-.18c-.17-.14-.29-.19-.37-.19-.2,0-.18.33-.32.38Z"/>
  <path d="M93.13,203.92c-2.5-1.48-5.41-2.35-8.52-2.35-9.26,0-16.76,7.5-16.76,16.76s7.5,16.76,16.76,16.76c3.68,0,7.08-1.2,9.85-3.22l14.34,14.34h10.66l-20.04-20.04c1.24-2.34,1.95-5.01,1.95-7.84,0-3.41-1.02-6.58-2.77-9.22l69.13-69.13,62.31,62.4,3.15-7.52-60.12-60.21,4.13-4.13c-1.59-2.02-3.03-4.12-4.36-6.3l-79.7,79.7Z"/>
  <path d="M412.43,198.8c-3.69,0-7.1,1.21-9.87,3.23l-69.87-69.87c-.84.93-1.72,1.83-2.61,2.72-.88.89-1.78,1.78-2.7,2.63-4.37,4.05-9.18,7.64-14.37,10.75l-48.1,48.09,3.18,7.48,62.81-62.79,50.27,50.27,6.15-3.13-2.05,7.23-17.3,60.94-4.23,14.89-24.26,85.44-4.59,17.02,29.42-8.17,11.65,1.2,11.32,4.84.02-123.91,17.29-17.29c2.34,1.23,4.99,1.94,7.82,1.94,9.26,0,16.76-7.5,16.76-16.76s-7.5-16.76-16.76-16.76ZM387.32,237.01v-39.54s10.28,10.28,10.28,10.28c-1.23,2.34-1.94,4.99-1.94,7.82,0,3.69,1.21,7.1,3.23,9.87l-11.58,11.58Z"/>
  <path d="M235.44,72.26c3.23,3.05,7.57,4.93,12.36,4.93,3.89,0,7.49-1.25,10.44-3.34.67-1.15,1.33-2.3,2.05-3.42,1.38-2.16,2.84-4.25,4.37-6.29.22-.3.47-.58.7-.88.31-1.32.49-2.69.49-4.1,0-2.58-.55-5.02-1.52-7.24-2.22-6.66-8.49-11.46-15.89-11.46-3.68,0-7.07,1.2-9.83,3.21-5.28,3.15-8.83,8.9-8.83,15.49,0,2.4.48,4.69,1.33,6.79l-18.24,18.24c2.01,1.54,3.91,3.19,5.72,4.94l16.86-16.86Z"/>
  <polygon points="288.01 249.76 288.01 260.44 301.8 274.24 301.79 263.57 288.01 249.76"/>
  <polygon points="108.55 246.22 108.7 366.98 122.91 363.12 133.5 363.23 168.6 372.78 173.91 374.22 173.91 379.72 173.95 484.88 173.95 484.9 188.1 484.79 188.05 412.21 188.04 405.01 195.24 405 200.04 405 200.02 337.44 200.02 326.78 200.02 300.66 184.28 300.68 184.28 300.67 179.68 300.67 157.69 300.67 157.69 295.11 157.7 284.46 157.74 227.35 157.87 227.35 157.84 192.48 125.83 192.49 125.86 246.22 119.46 246.22 108.8 246.22 108.55 246.22"/>
  <polygon points="207.21 285.99 207.22 333.98 207.23 344.65 207.24 404.99 294.76 404.93 294.76 285.97 209.1 285.99 207.21 285.99"/>
  <polygon points="294.71 412.13 200.04 412.2 195.25 412.2 195.3 484.99 294.76 484.91 294.71 412.57 294.71 412.13"/>
  <polygon points="367.98 256.35 385.28 195.42 387.33 188.19 381.18 191.32 301.77 231.66 301.79 263.57 301.8 274.24 301.92 484.58 305.57 484.59 309.17 484.64 323.35 484.86 323.42 382.36 323.42 376.89 328.7 375.43 334.64 373.78 339.49 356.68 363.75 271.24 367.98 256.35"/>
  <polygon points="89.03 379.78 89.02 484.97 124.42 484.85 124.41 370.18 89.03 379.78"/>
  <polygon points="132 370.28 131.61 370.18 131.62 484.95 131.99 484.95 166.75 484.88 166.71 379.73 132 370.28"/>
  <polygon points="365.95 372.56 330.62 382.37 330.55 484.93 365.99 484.92 365.95 373.36 365.95 372.56"/>
  <polygon points="373.45 373.49 373.15 373.36 373.19 484.95 373.44 484.95 408.02 484.91 407.99 388.25 373.45 373.49"/>
  <polygon points="280.82 278.93 280.82 278.77 280.81 253.22 280.81 243.31 274.01 243.31 270.91 243.31 228.63 243.3 223.72 243.3 217.97 243.3 216.29 243.3 216.29 244.98 216.29 255.63 216.3 278.79 216.3 278.95 280.82 278.93"/>
  <polygon points="157.7 284.46 157.69 295.11 157.69 300.67 179.68 300.67 179.68 292.24 209.09 262.83 209.09 252.17 179.69 281.57 179.72 227.36 157.87 227.35 157.74 227.35 157.7 284.46"/>
  <path d="M330.09,134.89c.88-.89,1.76-1.79,2.61-2.72,4.98-5.51,9.29-11.67,12.8-18.46,4.4-8.53,7.73-17.32,10.05-26.73,3.6-14.65,5.5-29.21,6.15-44.27l.16-31.86c0-.46-.12-.97-.69-.98-4.18,2.51-8.41,4.44-13.02,5.95l-19.4,6.36c-8.12,2.66-15.76,5.66-23.51,9.25-15.81,7.33-29.44,18.21-39.87,31.82-.23.3-.48.58-.7.88-1.53,2.04-2.99,4.14-4.37,6.29-.71,1.12-1.37,2.27-2.05,3.42-1.47,2.49-2.87,5.03-4.13,7.67-9.74,20.37-11.84,41.98-7.77,64.56,5.41-15.43,13.45-30.23,23.9-43.02,3.39-4.15,7.04-8.07,10.94-11.74,1.83-1.73,3.73-3.39,5.67-4.99,7.39-6.1,15.53-11.32,24.46-15.3l-17.54,16.33c-.97,1.02-1.88,2.05-2.81,3.07-1.72,1.89-3.37,3.79-4.95,5.71-4.23,5.12-8.01,10.33-11.4,15.66-10.47,16.46-17.33,34.09-22.83,53.7-.52,1.85-1.03,3.72-1.53,5.61-.5,1.89-.99,3.8-1.47,5.73l-.12-.29-1.83,4.36-1.41-5.95-1.41-5.95-.85-3.59c-2.75-11.58-4.57-22.91-5.69-34.75-.72-7.54-2.53-14.56-5.33-21.52-3.18-7.92-7.84-14.52-13.55-20.05-1.81-1.75-3.72-3.4-5.72-4.94-6.61-5.07-14.22-9.02-22.38-12.1l-15.49-5.84c-4.84-1.82-9.33-3.98-13.3-7.36-.95,6.22-1.12,12.07-.95,18.25.45,17.05,3.84,33.53,12.09,47.09,1.33,2.18,2.77,4.28,4.36,6.3,4.9,6.22,11.05,11.65,18.76,15.95,9.83,5.48,20.59,8.77,32.02,10.18-2.35-12.5-7.24-24.04-14.28-34.13-3.13-4.48-6.65-8.71-10.63-12.56l-2.88-2.44-5.77-4.89-3.04-2.57.36-.41c1.36.44,2.71,1,4.04,1.62,2.34,1.08,4.63,2.38,6.83,3.83.17.11.35.21.52.33,5.8,3.9,10.76,8.48,15.06,13.84,1.23,1.53,2.42,3.1,3.54,4.76,10.48,15.54,15.54,33.08,18.4,51.58.1.66.2,1.31.3,1.97.35,2.35.68,4.68.96,7.01.31,2.52.56,5.03.74,7.55l-3.45,8.23-3.15,7.52-11.74,28.02-.08.19h1.45s10.66,0,10.66,0h27.89s10.29,0,10.29,0l-.09-.22-.18-.42-11.13-26.14-3.18-7.48-3.15-7.41c.19-2.33.52-4.64.97-6.92.38-1.95.85-3.87,1.46-5.76.4-1.24.84-2.46,1.35-3.66,4.6-10.8,13.26-13.11,22.9-16.89l22.19-8.69c2.73-1.28,5.33-2.73,7.88-4.25,5.19-3.11,9.99-6.7,14.37-10.75.92-.85,1.82-1.74,2.7-2.63ZM190.86,99.74c.14-.04.12-.38.32-.38.08,0,.19.05.37.19l-.69.18Z"/>
</svg>