<?xml version="1.0" encoding="UTF-8"?>
<svg id="Layer_1" data-name="Layer 1" xmlns="http://www.w3.org/2000/svg" viewBox="0 0 382 133.930292">
  <defs>
    <style>
      .cls-1 {
        opacity: .15;
      }

      .cls-2 {
        opacity: .3;
      }

      .cls-3 {
        stroke-width: 0px;
      }
    </style>
  </defs>
  <g>
    <g>
      <polygon class="cls-3" points="139.2635055 35.4563103 139.2635055 25.9016201 134.4438853 25.9016201 134.4438853 40.1913786 148.7336389 40.1913786 148.7336389 35.4563103 139.2635055 35.4563103"/>
      <polygon class="cls-3" points="158.2883322 16.3469294 134.4438853 16.3469294 134.4438853 23.4495317 139.1789584 23.4495317 139.1789584 21.0819975 153.553272 21.0819975 153.553272 35.4563103 151.1857354 35.4563103 151.1857354 40.1913786 158.2883322 40.1913786 158.2883322 16.3469294"/>
      <g>
        <path class="cls-3" d="m164.6299411,16.6005937h7.2717167v17.5028413h10.4002412v6.0033901h-17.671945v-23.5062314h-.0000129Z"/>
        <path class="cls-3" d="m185.4304235,16.6005937h18.2638388v6.0033897h-10.9921221v2.9594179h9.3855864v5.5806162h-9.3855864v8.9628076h-7.2717167v-23.5062314Z"/>
      </g>
      <path class="cls-3" d="m222.3808622,40.2759337h-13.1905517v-23.7598947h13.1905517v1.5219862h-11.499456v8.9628074h10.8230151v1.5219863h-10.8230151v10.1465743h11.499456v1.6065406Z"/>
      <path class="cls-3" d="m245.3797742,40.2759337h-1.6910957l-14.2897665-21.0541417h-.169107c.169107,2.5366436.169107,4.3968483.169107,5.6651701v15.3889716h-1.5219887v-23.7598947h1.6910957l14.2897536,21.054141h.0845599c-.0845599-1.9447594-.1691199-3.8049653-.1691199-5.5806162v-15.4735248h1.6065358v23.7598947h.0000258Z"/>
      <path class="cls-3" d="m265.334683,40.2759337h-13.1905517v-23.7598947h13.1905517v1.5219862h-11.499456v8.9628074h10.8230022v1.5219863h-10.8230022v10.1465743h11.499456v1.6065406Z"/>
      <path class="cls-3" d="m272.5218397,29.9602492v10.3156845h-1.6910957v-23.7598947h5.7497151c2.9594175,0,5.1578471.5073287,6.595263,1.6065409,1.4374417,1.0992122,2.1138696,2.7057532,2.1138696,4.9041779,0,1.6065406-.4227739,2.9594175-1.2683218,4.0586299s-2.1138696,1.8602051-3.8895253,2.3675342l6.5107288,10.8230119h-2.0293097l-6.172489-10.3156845h-5.918835Zm0-1.4374304h4.5659533c2.0293097,0,3.6358455-.4227739,4.7350732-1.3528769,1.0992019-.930103,1.6910957-2.1984247,1.6910957-3.9740748s-.5073339-3.1285269-1.6065358-3.9740748-2.8748575-1.2683218-5.4115011-1.2683218h-3.9740852v10.5693482Z"/>
      <path class="cls-3" d="m300.086705,28.1000449h8.7091326v10.5693482c-2.2829895.930103-4.8196331,1.437432-7.6944906,1.437432-3.7204054,0-6.595263-1.0146581-8.5400385-3.1285277-1.9447756-2.1138696-2.9594175-4.988732-2.9594175-8.7936974,0-2.3675342.5073339-4.4814038,1.4374417-6.2570542,1.0146677-1.8602055,2.3675237-3.2130818,4.2277393-4.2277393s3.9740852-1.5219861,6.3416089-1.5219861c2.5366436,0,4.9041672.5073287,6.9335027,1.4374314l-.676428,1.4374314c-2.0293097-.9301028-4.1431793-1.4374314-6.3416089-1.4374314-3.1285374,0-5.580621.9301026-7.3562767,2.8748628-1.7756557,1.9447602-2.7057635,4.4814042-2.7057635,7.6099303,0,3.4667465.8455479,6.0879436,2.6212035,7.863596,1.6910957,1.7756508,4.2277393,2.6211987,7.6099307,2.6211987,2.1984296,0,3.9740852-.3382188,5.4960611-.930103v-8.201814h-7.0180369v-1.3528777h-.0845599Z"/>
      <path class="cls-3" d="m320.2107594,29.452921l7.0180369-12.9368824h1.7756557l-7.9481447,14.4588687v9.1319162h-1.6910957v-8.962806l-8.0327046-14.6279773h1.9447497l6.9335027,12.9368807Z"/>
    </g>
    <g>
      <path class="cls-3" d="m150.2118194,66.8868536h-15.7679342v-8.9034131h41.8311451v8.9034131h-15.4895614v57.3207065h-10.5736495v-57.3207065Z"/>
      <path class="cls-3" d="m182.3051855,57.9834405h23.3727761c9.2758307,0,16.7881326,4.6375392,16.7881326,17.0665053,0,8.5332527-3.802421,15.1178962-11.0371025,16.2313871v.1850802c6.5853959.6500379,10.0169041,4.2673787,10.3878169,13.542457.0932925,4.265874.1858326,9.4601586.3716652,13.4491646.1850802,3.2456755,1.7620241,4.8226194,3.1531354,5.7495254h-11.9647608c-1.0201984-1.2052787-1.4844038-3.2456755-1.7627765-5.8428179-.3709129-3.989006-.2776204-7.6981345-.463453-12.5222586-.1858326-7.2346815-2.4113097-10.3870646-9.6459912-10.3870646h-8.6257928v28.752141h-10.5736495V57.9834405Zm19.0136097,29.4954714c6.7712285,0,10.5736495-4.0822984,10.5736495-10.7602345,0-7.0480965-3.0605953-10.7587298-10.0169041-10.7587298h-8.9967056v21.5189642h8.4399602Z"/>
      <path class="cls-3" d="m230.5358939,91.0962527c0-23.6526536,6.677936-34.4113833,21.8891247-34.4113833s21.8898771,10.7587298,21.8898771,34.4113833c0,23.6511489-6.6786884,34.4098786-21.8898771,34.4098786s-21.8891247-10.7587298-21.8891247-34.4098786Zm33.2053523-.2783727c0-22.2607899-5.0092044-26.1565034-11.3162276-26.1565034s-11.3154752,3.8957135-11.3154752,26.1565034c0,22.8160307,5.008452,26.7117442,11.3154752,26.7117442s11.3162276-3.8957135,11.3162276-26.7117442Z"/>
      <path class="cls-3" d="m282.4787403,57.9834405h10.5736495v57.3207065h25.599758v8.9034131h-36.1734075V57.9834405Z"/>
      <path class="cls-3" d="m324.4024255,57.9834405h10.5736495v66.2241197h-10.5736495V57.9834405Z"/>
      <path class="cls-3" d="m345.456432,57.9834405h35.8017423v8.9034131h-25.2280928v18.3650765h23.7444413v8.9049179h-23.7444413v21.147299h25.9699185v8.9034131h-36.543568V57.9834405Z"/>
    </g>
  </g>
  <g class="cls-2">
    <polygon class="cls-3" points="80.2469577 117.8576525 80.2469577 115.0937687 33.2497415 115.0937687 33.2497415 117.8576525 68.4568382 117.8576525 68.4568382 120.9393139 33.2497415 120.9393139 33.2497415 129.6159849 80.2469577 129.6159849 80.2469577 120.9393139 73.1951935 120.9393139 73.1951935 117.8576525 80.2469577 117.8576525"/>
  </g>
  <g class="cls-1">
    <path class="cls-3" d="m39.096039,81.8843725l-6.0590269,10.4947459c.4264934.2700968.8575009.5328581,1.293963.7881898l6.5135457-11.2829357h-1.7484817Z"/>
    <path class="cls-3" d="m60.6736872,27.2992423h-7.8899859c-1.2015169,0-2.2352578.8569366-2.4865456,2.0042836h12.8623248c-.2512878-1.1473471-1.2842763-2.0042836-2.4857932-2.0042836Z"/>
    <path class="cls-3" d="m50.157217,98.6248243h11.6702124c2.8360162-.3852077,5.5826898-1.0462489,8.2148168-1.9566029h-28.099846c2.632127.9103541,5.3788006,1.5713952,8.2148168,1.9566029Z"/>
    <polygon class="cls-3" points="39.4007443 89.0302756 75.6997957 89.0302756 73.961847 86.0208407 41.1386929 86.0208407 39.4007443 89.0302756"/>
    <path class="cls-3" d="m75.9156286,17.9644454l-6.6078726,5.5383947c-.2001274.1903468-.4815096.3016958-.7771866.3016958-.3190001,0-.6184389-.1309104-.8441465-.3686558-.4318539-.4657101-.4062737-1.1977551.0534175-1.6356279l5.8981162-4.9429968c-4.7826504-2.1569184-10.0254621-3.4727938-15.5469288-3.7382824l.0457058,6.3279011c.0045142.2919152-.1030731.5740497-.3032006.7922337-.2166793.2347359-.5153657.3679034-.8426418.3739223h-.0037618c-.633486,0-1.1541183-.5131087-1.1654037-1.1458423l-.046176-6.3958956c-5.497015.027273-10.7453754,1.0930832-15.570534,3.0004066l6.2205019,5.7255439c.4642053.4393775.4897855,1.1721749.0609411,1.6356279-.2287171.2407548-.5289082.3716652-.8479083.3716652-.295677,0-.5763068-.1113491-.7899767-.3137336l-6.9748356-6.4196889c-14.6816222,6.8366837-24.8633869,21.7138252-24.8633869,38.9766961,0,14.4620275,7.1500411,27.2459189,18.09987,35.0364994l5.3164489-9.2089648h-3.338968c-1.4558141,0-2.6407791-1.1842126-2.6407791-2.6407791v-40.6251141c0-5.1356007,4.1786004-9.314201,9.314201-9.314201h8.2187667c.2753633-2.4466706,2.3353215-4.3238056,4.8120864-4.3238056h7.8899859c2.4767649,0,4.5367231,1.877135,4.8120864,4.3238056h8.227795c5.1310865,0,9.3051727,4.1786004,9.3051727,9.314201v40.6341424c0,1.4565665-1.184965,2.6407791-2.6407791,2.6407791h-1.7048449l4.3672543,7.5537756c9.7133273-7.8803934,15.9256473-19.907694,15.9256473-33.3903385,0-16.5460612-9.3547343-30.8991847-23.0586664-38.0833641Z"/>
    <path class="cls-3" d="m38.0570316,91.3490452l-1.6937476,2.9328824c.0497497.0255802.0995935.0510663.1495313.0765525h38.9590157c.8510118-.4336408,1.6881989-.8897582,2.5052605-1.3771926l-.9426114-1.6322423h-38.9774484Z"/>
    <polygon class="cls-3" points="42.4733773 83.7020711 72.6181343 83.7020711 71.5685939 81.8843725 43.5221654 81.8843725 42.4733773 83.7020711"/>
    <path class="cls-3" d="m74.246991,81.8843725l5.6917818,9.859379c.4212268-.283075.8319207-.5799745,1.2423323-.8774384l-5.1856325-8.9819406h-1.7484817Z"/>
    <path class="cls-3" d="m48.0190135,71.6342372c0,.2994388.2430119.543203.5424506.543203h16.631642c.2994388,0,.543203-.2437642.543203-.543203s-.2437642-.543203-.543203-.543203h-16.631642c-.2994388,0-.5424506.2437642-.5424506.543203Z"/>
    <path class="cls-3" d="m48.5614641,74.7053655h16.631642c.2994388,0,.543203-.2437642.543203-.543203s-.2437642-.543203-.543203-.543203h-16.631642c-.2994388,0-.5424506.2437642-.5424506.543203s.2430119.543203.5424506.543203Z"/>
  </g>
  <g>
    <path class="cls-3" d="m113.4966992,56.7483496C113.4966992,25.457186,88.0394192,0,56.7483496,0,25.457186,0,0,25.457186,0,56.7483496c0,20.6959778,11.0181054,39.412782,28.9353404,49.4741693v3.4103481h-4.1228318v3.0816613h4.1228318v5.1431242h-4.1228318v3.0816613h4.1228318v12.9909781h55.6259244v-12.9909781h3.4764616v-3.0816613h-3.4764616v-5.1431242h3.628438v-3.0816613h-3.628438v-3.4103481c17.917329-10.0613873,28.9354344-28.7781914,28.9354344-49.4741693Zm-63.3394823,41.8764747h-16.2911996l1.1281619-1.9566029h45.1287334l1.1280679,1.9566029h-31.0937635Zm.1399387-69.3212984c.2512878-1.1473471,1.2850287-2.0042836,2.4865456-2.0042836h7.8899859c1.2015169,0,2.2345054.8569366,2.4857932,2.0042836h-12.8623248Zm21.1773934,41.4986025c1.1541183,0,2.0923096.937439,2.0923096,2.0915573s-.9381913,2.0915573-2.0923096,2.0915573c-1.1533659,0-2.0915573-.937439-2.0915573-2.0915573s.9381913-2.0915573,2.0915573-2.0915573Zm2.8153263-29.026752v19.8570038c0,1.7454722-1.4189486,3.1644208-3.1636684,3.1644208h-11.633723v-26.1858454h11.633723c1.7447199,0,3.1636684,1.4197009,3.1636684,3.1644208Zm-25.7284113,31.843583h16.631642c.2994388,0,.543203.2437642.543203.543203s-.2437642.543203-.543203.543203h-16.631642c-.2994388,0-.5424506-.2437642-.5424506-.543203s.2430119-.543203.5424506-.543203Zm16.631642-1.4415193h-16.631642c-.2994388,0-.5424506-.2437642-.5424506-.543203s.2430119-.543203.5424506-.543203h16.631642c.2994388,0,.543203.2437642.543203.543203s-.2437642.543203-.543203.543203Zm-21.1104335.7252738c0,1.1541183-.9381913,2.0915573-2.0915573,2.0915573-1.1541183,0-2.0923096-.937439-2.0923096-2.0915573s.9381913-2.0915573,2.0923096-2.0915573c1.1533659,0,2.0915573.937439,2.0915573,2.0915573Zm-4.8986077-31.1190616c0-1.7447199,1.4197009-3.1636684,3.1644208-3.1636684h11.6329706v26.1948737h-11.6329706c-1.7447199,0-3.1644208-1.4189486-3.1644208-3.1644208v-19.8667845Zm1.6604557,40.10072l-6.5135457,11.2829357-2.8931955,5.0116496h-1.749234l3.3484665-5.7998394,6.0590269-10.4947459h1.7484817Zm-4.4812367,12.3975552l1.6937476-2.9328824h38.9774484l.9426114,1.6322423.7953372,1.3771926h-42.4533458l.0442011-.0765525Zm3.0374603-5.251652l1.7379487-3.0094349h32.8231541l1.7379487,3.0094349h-36.2990514Zm44.2529878,9.1486821l-3.7149593-6.4352063-5.6917818-9.859379h1.7484817l5.1856325,8.9819406,4.221861,7.3126447h-1.749234Zm-41.1803548-14.4768866l1.0487881-1.8176987h28.0464285l1.0495404,1.8176987h-30.144757ZM4.3143071,56.7483496C4.3143071,27.7898742,27.7897802,4.3143071,56.7483496,4.3143071c28.9584754,0,52.4339485,23.4755671,52.4339485,52.4340425,0,17.0922736-8.1961959,32.2511734-20.8534089,41.8228691l-5.2802416-9.1330706-4.3672543-7.5537756h1.7048449c1.4558141,0,2.6407791-1.1842126,2.6407791-2.6407791v-40.6341424c0-5.1356007-4.1740862-9.314201-9.3051727-9.314201h-8.227795c-.2753633-2.4466706-2.3353215-4.3238056-4.8120864-4.3238056h-7.8899859c-2.4767649,0-4.5367231,1.877135-4.8120864,4.3238056h-8.2187667c-5.1356007,0-9.314201,4.1786004-9.314201,9.314201v40.6251141c0,1.4565665,1.184965,2.6407791,2.6407791,2.6407791h3.338968l-5.3164489,9.2089648-4.3531476,7.5405153h-1.5166611c-12.6983106-9.5684983-20.9261056-24.7517556-20.9261056-41.8764747Zm75.9326507,58.3454191v2.7638838h-7.0517643v3.0816613h7.0517643v8.676671h-46.9972163v-8.676671h35.2070967v-3.0816613h-35.2070967v-5.1431242h46.9972163v2.3792404Zm-46.9972163-5.4609018v-5.4112461h46.9972163v5.4112461h-46.9972163Z"/>
    <path class="cls-3" d="m71.1737937,44.5103886c-.0068653.0023511-.0142948.0008464-.0211601.0032916-.0601887.0216303-.1099384.0690289-.1665534.1010042-.075518.0426023-.1563025.0738252-.2225101.1347663l-9.3315053,8.7356372c-.4604435.4363681-.4860237,1.1691655-.0541698,1.6356279.2257076.2377454.5258987.3686558.8448988.3686558.295677,0,.5763068-.1113491.7892243-.3129812l9.3292482-8.7333801.0015047-.0015047c.4596912-.4363681.4852714-1.1691655.0534175-1.6356279-.3228559-.3395019-.8049298-.4373085-1.2223948-.2954889Z"/>
    <path class="cls-3" d="m41.8203299,55.4893713c.295677,0,.5770591-.1113491.7899767-.3129812l9.3300005-8.7348848c.4596912-.4363681.4852714-1.1691655.0534175-1.6356279-.4363681-.4604435-1.1699178-.4837667-1.6341231-.0549222l-9.3284958,8.7326277-.0015047.0015047c-.4604435.4363681-.4860237,1.1691655-.0534175,1.6363802.2257076.236993.5258987.3679034.8441465.3679034Z"/>
    <path class="cls-3" d="m50.3596015,48.9212797l-9.3284958,8.7326277-.0015047.0015047c-.4596912.4378728-.4852714,1.1691655-.0534175,1.6356279.2257076.2377454.5258987.3686558.8441465.3686558.295677,0,.5763068-.1113491.7899767-.3114765l9.3300005-8.7356372c.4596912-.4378728.4852714-1.1699178.0534175-1.6356279-.4363681-.4611959-1.1676607-.4875285-1.6341231-.0556745Z"/>
    <path class="cls-3" d="m70.7635701,48.9197749l-9.3315053,8.7356372c-.4596912.4378728-.4852714,1.1691655-.0541698,1.6356279.2257076.2377454.5258987.3686558.8448988.3686558.2949246,0,.5755544-.1113491.7892243-.3114765l9.3292482-8.7341324.0015047-.0015047c.4596912-.4378728.4852714-1.1699178.0534175-1.6356279-.4356157-.4611959-1.1691655-.484519-1.6326184-.0571793Z"/>
    <path class="cls-3" d="m68.5305694,23.804536c.295677,0,.5770591-.1113491.7771866-.3016958l6.6078726-5.5383947.8856203-.7422959c.4604435-.4363681.4860237-1.1691655.0541698-1.6356279-.4356157-.4574341-1.1638989-.4860237-1.6265996-.0624458l-1.5908625,1.3331797-5.8981162,4.9429968c-.4596912.4378728-.4852714,1.1699178-.0534175,1.6356279.2257076.2377454.5251464.3686558.8441465.3686558Z"/>
    <path class="cls-3" d="m37.8737382,17.0711135l6.9748356,6.4196889c.2136699.2023845.4942997.3137336.7899767.3137336.3190001,0,.6191912-.1309104.8479083-.3716652.4288445-.463453.4032643-1.1962504-.0609411-1.6356279l-6.2205019-5.7255439-1.2586961-1.1585384c-.463453-.4295968-1.1970027-.4025119-1.6356279.0601887-.4288445.463453-.4032643,1.1962504.0609411,1.6356279l.5021054.4621363Z"/>
    <path class="cls-3" d="m55.8217258,19.467188c.0112854.6327337.5319176,1.1458423,1.1654037,1.1458423h.0037618c.327276-.0060189.6259625-.1391864.8426418-.3739223.2001274-.218184.3077147-.5003186.3032006-.7922337l-.0457058-6.3279011-.0287777-3.9884417c-.010533-.6327337-.5304129-1.1465947-1.1654037-1.1465947h-.0037618c-.633486.0112854-1.1473471.5341747-1.1458423,1.1646513l.0283075,3.9227043.046176,6.3958956Z"/>
  </g>
</svg>