<?xml version="1.0" encoding="utf-8"?>
<!-- Generator: Adobe Illustrator 28.1.0, SVG Export Plug-In . SVG Version: 6.00 Build 0)  -->
<svg version="1.1" id="Layer_1" xmlns="http://www.w3.org/2000/svg" xmlns:xlink="http://www.w3.org/1999/xlink" x="0px" y="0px"
	 width="800.5px" height="757.9px" viewBox="0 0 800.5 757.9" style="enable-background:new 0 0 800.5 757.9;" xml:space="preserve"
	>
<style type="text/css">
	.st0{fill:#5B95CF;}
	.st1{fill:#213A64;}
	.st2{fill:#010101;}
	.st3{fill:#FFFFFF;}
	.st4{fill:#5B95CF;stroke:#5B95CF;stroke-miterlimit:10;}
	.st5{fill:none;}
	.st6{fill:#FFFFFF;stroke:#FFFFFF;stroke-miterlimit:10;}
</style>
<g>
	<path class="st3" d="M149.4,23.7c69.6,0,126.1,56.6,126.1,126.1S219,276,149.4,276c-69.6,0-126.1-56.6-126.1-126.1
		S79.9,23.7,149.4,23.7 M149.4,0.5C66.9,0.5,0.1,67.4,0.1,149.9c0,82.5,66.9,149.4,149.4,149.4s149.4-66.9,149.4-149.4
		C298.8,67.4,231.9,0.5,149.4,0.5L149.4,0.5z"/>
	<path class="st3" d="M83.8,132h63.3c27.7,0,50.2-22.5,50.2-50.2c0-20.6-16.7-37.3-37.3-37.3s-37.3,16.7-37.3,37.3
		c0,7.1,5.8,12.9,12.9,12.9s12.9-5.8,12.9-12.9c0-6.4,5.2-11.4,11.4-11.4c6.3,0,11.4,5.2,11.4,11.4c0,13.4-10.9,24.4-24.4,24.4H83.8
		c-7.1,0-12.9,5.8-12.9,12.9C70.9,126.2,76.7,132,83.8,132z"/>
	<path class="st3" d="M81,176.6h79.9c13.4,0,24.4,10.9,24.4,24.4c0,6.4-5.2,11.4-11.4,11.4c-6.3,0-11.4-5.2-11.4-11.4
		c0-7.1-5.8-12.9-12.9-12.9s-12.9,5.8-12.9,12.9c0,20.6,16.7,37.3,37.3,37.3s37.3-16.7,37.3-37.3c0-27.7-22.5-50.2-50.2-50.2H81
		c-7.1,0-12.9,5.8-12.9,12.9S73.9,176.6,81,176.6z"/>
	<path class="st6" d="M650.6,23.7c69.6,0,126.1,56.6,126.1,126.1S720.2,276,650.6,276c-69.6,0-126.1-56.6-126.1-126.1
		S581.1,23.7,650.6,23.7 M650.6,0.5c-82.5,0-149.4,66.9-149.4,149.4c0,82.5,66.9,149.4,149.4,149.4S800,232.4,800,149.9
		C800,67.4,733.1,0.5,650.6,0.5L650.6,0.5z"/>
	<path class="st3" d="M149.4,482.4c69.6,0,126.1,56.6,126.1,126.1s-56.6,126.1-126.1,126.1c-69.6,0-126.1-56.6-126.1-126.1
		S79.8,482.4,149.4,482.4 M149.4,459.2C66.9,459.2,0,526,0,608.5s66.9,149.4,149.4,149.4S298.7,691,298.7,608.5
		S231.9,459.2,149.4,459.2L149.4,459.2z"/>
	<path class="st3" d="M646.9,482.4c69.6,0,126.1,56.6,126.1,126.1s-56.6,126.1-126.1,126.1c-69.6,0-126.1-56.6-126.1-126.1
		S577.3,482.4,646.9,482.4 M646.9,459.2c-82.5,0-149.4,66.9-149.4,149.4s66.9,149.4,149.4,149.4S796.2,691,796.2,608.5
		S729.4,459.2,646.9,459.2L646.9,459.2z"/>
	<g>
		<polygon class="st5" points="437,253.1 406.7,231 385,246.9 437,296.9 		"/>
		<polygon class="st5" points="376.7,283.1 376.7,318.4 413.4,318.4 		"/>
		<polygon class="st5" points="398.9,411.6 437,411.6 437,373 		"/>
		<polygon class="st5" points="446.6,495 439.1,443.4 397.8,443.4 		"/>
		<polygon class="st5" points="371.7,462.2 362.9,523.4 429.7,523.4 		"/>
		<polygon class="st5" points="468.8,276.3 468.8,323 532.9,323 		"/>
		<polygon class="st5" points="376.7,354.8 376.7,388.8 410.2,354.8 		"/>
		<path class="st5" d="M424.7,593.8c12.1-1,24-2.9,35.5-5.8l-3-20.5L424.7,593.8z"/>
		<polygon class="st5" points="344.9,323 344.9,276.1 280.7,323 		"/>
		<path class="st5" d="M353.6,587.8c7.3,1.9,14.8,3.4,22.5,4.5l45.7-37h-63.5L353.6,587.8z"/>
		<path class="st3" d="M505.9,186.2c-2.6-10.3-4.1-21-4.4-32.1c-28.9-12.1-60.7-18.9-94.1-18.9c-39.3,0-76.4,9.4-109.2,25.9
			c-0.8,12.1-3,23.8-6.5,34.9c33.5-21.3,73.2-33.7,115.7-33.7C442.9,162.4,476.3,171,505.9,186.2z"/>
		<path class="st3" d="M212,286.3c-10.7,5-22,8.8-33.9,11.1c-9,25.4-13.9,52.7-13.9,81.1c0,29.4,5.2,57.6,14.8,83.7
			c12.2,2.5,23.7,6.5,34.6,11.7c-14.2-28.8-22.3-61.2-22.3-95.4C191.3,345.5,198.8,314.3,212,286.3z"/>
		<path class="st3" d="M484,531l-15.2-104.7v-71.5l113,0c8.8,0,15.9-7.1,15.9-15.9c0-5.1-2.4-9.9-6.5-12.8L416.6,198.9l-0.4,0.6
			c-5.6-4.6-13.6-4.8-19.5-0.6L222.6,326.1c-7.1,5.2-8.6,15.1-3.5,22.2c3,4.1,7.8,6.5,12.8,6.5l113,0v70.8c0,0.1-0.1,0.2-0.1,0.3
			l-15.7,108.7L298.5,565c-2.8-1.6-5.4-3.4-8.1-5.1c3.9,11.4,6.5,23.3,7.6,35.8c32.9,16.6,70,26,109.4,26c31.9,0,62.3-6.2,90.3-17.4
			c0.5-17.6,4-34.4,10.1-50L484,531z M468.8,276.3l64.2,46.8l-64.2,0V276.3z M446.6,495l-48.8-51.6h41.3L446.6,495z M398.9,411.6
			L437,373v38.6H398.9z M406.7,231l30.3,22.1v43.8l-52-50L406.7,231z M376.7,283.1l36.7,35.3h-36.7V283.1z M376.7,354.8l33.5,0
			l-33.5,33.9V354.8z M371.7,462.2l58,61.3h-66.8L371.7,462.2z M344.9,323h-64.2l64.2-46.9V323z M376.1,592.3
			c-7.6-1.1-15.1-2.6-22.5-4.5l4.7-32.6h63.5L376.1,592.3z M424.7,593.8l32.5-26.3l3,20.5C448.6,590.9,436.8,592.9,424.7,593.8z"/>
		<path class="st3" d="M650.6,378.5c0-28-4.8-54.9-13.5-79.9c-10.9-1-21.5-3.1-31.6-6.3c11.5,26.4,18,55.6,18,86.2
			c0,30.8-6.6,60.1-18.3,86.7c10.1-2.9,20.6-4.7,31.4-5.5C645.7,434.3,650.6,407,650.6,378.5z"/>
	</g>
	<g>
		<path class="st3" d="M79.5,608.3c1.9,0.5,4.2,1.1,7.2,1.1c0.9,0,1.9-0.1,3-0.2c8-1.1,13-6.3,16.7-10.2c3-3.1,5.4-5.6,9.1-6.9
			c2.3-0.8,4-1.3,5.9-0.8c2.4,0.7,4.4,2.9,6.9,5.9c3.6,4.3,8.6,10.1,17.1,11.5c1.4,0.2,3.7,0.5,6.6,0.1c8.7-1,13.9-6.4,17.8-10.4
			c2.8-2.9,4.8-4.9,7.7-5.9c3.2-1,6.1-0.2,7.4,0.2c3,0.9,5.2,3.2,7.9,6.1c3.7,3.9,8.7,9.3,16.8,10.1c3.5,0.4,6.1-0.3,8.3-0.7
			c12.7-2.9,21.2-12.9,26.2-20.7l3.6-5.7l-12.8-10l-3.8,6c-3.3,5.3-8.9,11.9-16.4,13.6c-1.7,0.4-2.4,0.5-3.5,0.4
			c-2.4-0.2-3.9-1.6-7.3-5.3c-3.7-3.9-7.8-8.4-14.9-10.4c-2.3-0.7-8.4-2.4-15.9,0c-6.5,2.1-10.6,6.2-14.1,9.9
			c-3.1,3.2-5.2,5.4-8.6,5.8c-1.4,0.2-2.4,0-2.4,0c-2.8-0.5-4.5-2.3-8-6.3c-3.4-4-7.6-8.9-14.5-10.8c-6.3-1.7-11.4,0-14.5,1.1
			c-7.3,2.5-11.7,7.1-15.3,10.8c-3.6,3.7-5.2,5.2-7.8,5.5c-1.6,0.2-2.7-0.1-4.5-0.6c-7.8-2.1-12.8-9.4-15-13.7l-3.3-6.3l-13.5,8.9
			l3.2,5.9C58.1,593.2,66,604.7,79.5,608.3z"/>
		<path class="st3" d="M230.9,626.8c-3.3,5.3-8.9,11.9-16.4,13.6c-1.8,0.4-2.5,0.5-3.5,0.4c-2.4-0.2-3.9-1.6-7.3-5.3
			c-3.5-3.7-7.8-8.4-15-10.4c-2.3-0.7-8.4-2.4-15.8,0c-6.6,2.1-10.6,6.2-14.1,9.9c-3.1,3.2-5.2,5.4-8.6,5.8c-1.4,0.2-2.4,0-2.4,0
			c-2.8-0.5-4.5-2.3-8-6.3c-3.4-4-7.6-8.9-14.5-10.8c-6.2-1.7-11.4,0-14.5,1.1c-7.3,2.5-11.7,7.1-15.3,10.8
			c-3.6,3.7-5.2,5.2-7.8,5.5c-1.6,0.2-2.8-0.1-4.5-0.6c-7.8-2.1-12.8-9.4-15-13.7l-3.3-6.2l-13.5,8.9l3.2,5.9
			c3.5,6.6,11.4,18.1,25,21.7c1.8,0.5,4.2,1.1,7.2,1.1c0.9,0,1.9-0.1,3-0.2c8-1.1,13-6.3,16.7-10.2c3-3.1,5.3-5.6,9.1-6.8
			c2.3-0.8,4-1.3,5.9-0.8c2.4,0.7,4.4,3,6.9,5.9c3.6,4.3,8.6,10.1,17.1,11.5c1.4,0.2,3.7,0.5,6.6,0.1c8.7-1,13.9-6.4,17.7-10.4
			c2.8-2.9,4.8-4.9,7.7-5.9c3.2-1,6.1-0.2,7.4,0.2c3,0.9,5.2,3.2,7.9,6.1c3.7,3.9,8.7,9.3,16.8,10.1c3.6,0.3,6.2-0.3,8.3-0.7
			c12.7-2.9,21.2-12.8,26.2-20.7l3.6-5.6l-12.8-10L230.9,626.8z"/>
	</g>
	<path class="st3" d="M623.6,104.8V121h54.1v-16.2c0-14.9-12.1-27-27-27S623.6,89.9,623.6,104.8z M602,121v-16.2
		c0-26.9,21.8-48.7,48.7-48.7s48.7,21.8,48.7,48.7V121h5.4c11.9,0,21.6,9.7,21.6,21.6v64.9c0,11.9-9.7,21.6-21.6,21.6H596.6
		c-11.9,0-21.6-9.7-21.6-21.6v-64.9c0-11.9,9.7-21.6,21.6-21.6H602z"/>
	<path class="st3" d="M602.6,573.8c8.5-14.7,19.2-28.3,29-37.8c6.7,6.7,14.6,16.8,21.5,25.6c1.4,1.7,2.6,3.4,3.9,5
		c1.6,2.1,4.2,3.3,6.8,3.2c2.6,0,5.1-1.3,6.7-3.4c1.2-1.5,2.7-3.9,4.4-6.2c0.9-1.4,1.9-2.7,2.8-4c2-2.8,3.7-5.2,5.1-6.8
		c7.1,7.4,14.6,18.9,20.5,31.6c6.3,13.6,10.2,27.5,10.2,37.9c0,36.8-28.1,64.7-62.8,64.7c-35.1,0-62.8-28-62.8-64.7
		C587.8,605.5,593.6,589.5,602.6,573.8L602.6,573.8z M641.9,522.2c-5.8-5.5-14.8-5.5-20.6,0c-11.4,10.7-23.9,26.3-33.6,43.2
		c-9.6,16.8-17,35.9-17,53.6c0,45.8,35,81.9,80,81.9c44.5,0,80-36,80-81.9c0-14-5-30.4-11.8-45.2c-6.9-14.8-16.1-29-25.7-38.2
		c-5.8-5.6-15-5.6-20.8,0c-2.8,2.7-6.1,7.1-8.7,10.8l-0.4,0.6C656.6,538.4,648.6,528.6,641.9,522.2z M651.2,666.5
		c9,0,17-3.2,24.6-9.5c15-13.3,19.1-39.9,10-60.9c-1.6-4.1-5.7-4.3-8-0.9l-9,13.3c-2.4,3.4-6.6,3.4-8.8-0.2
		c-5.9-9.5-16.4-26.5-22.4-36.1c-2.2-3.6-6.5-3.7-8.8,0c-12.1,19.2-18.1,31.4-18.1,45C610.7,648.1,628.7,666.5,651.2,666.5z"/>
</g>
</svg>
