<?xml version="1.0" encoding="utf-8"?>
<!-- Generator: Adobe Illustrator 28.1.0, SVG Export Plug-In . SVG Version: 6.00 Build 0)  -->
<svg version="1.1" id="Layer_1" xmlns="http://www.w3.org/2000/svg" xmlns:xlink="http://www.w3.org/1999/xlink" x="0px" y="0px"
	 width="798.1px" height="755.6px" viewBox="0 0 798.1 755.6" style="enable-background:new 0 0 798.1 755.6;" xml:space="preserve"
	>
<style type="text/css">
	.st0{fill:#5B95CF;}
	.st1{fill:#213A64;}
	.st2{fill:#010101;}
	.st3{fill:#FFFFFF;}
	.st4{fill:#5B95CF;stroke:#5B95CF;stroke-miterlimit:10;}
	.st5{fill:none;}
	.st6{fill:#FFFFFF;stroke:#FFFFFF;stroke-miterlimit:10;}
</style>
<g>
	<path class="st2" d="M149.1,23.2c69.4,0,125.8,56.5,125.8,125.8s-56.5,125.8-125.8,125.8c-69.4,0-125.8-56.5-125.8-125.8
		S79.7,23.2,149.1,23.2 M149.1,0C66.8,0,0.1,66.7,0.1,149c0,82.3,66.7,149,149,149s149-66.7,149-149C298.1,66.7,231.4,0,149.1,0
		L149.1,0z"/>
	<path class="st2" d="M83.6,131.2h63.2c27.6,0,50-22.5,50-50c0-20.5-16.7-37.2-37.2-37.2s-37.2,16.7-37.2,37.2
		c0,7.1,5.8,12.9,12.9,12.9s12.9-5.8,12.9-12.9c0-6.4,5.2-11.4,11.4-11.4c6.3,0,11.4,5.2,11.4,11.4c0,13.4-10.9,24.3-24.3,24.3H83.6
		c-7.1,0-12.9,5.8-12.9,12.9C70.8,125.4,76.5,131.2,83.6,131.2z"/>
	<path class="st2" d="M80.8,175.7h79.8c13.4,0,24.3,10.9,24.3,24.3c0,6.4-5.2,11.4-11.4,11.4c-6.3,0-11.4-5.2-11.4-11.4
		c0-7.1-5.8-12.9-12.9-12.9s-12.9,5.8-12.9,12.9c0,20.5,16.7,37.2,37.2,37.2s37.2-16.7,37.2-37.2c0-27.6-22.5-50-50-50H80.8
		c-7.1,0-12.9,5.8-12.9,12.9C67.9,170,73.7,175.7,80.8,175.7z"/>
	<path class="st2" d="M649.1,23.2c69.4,0,125.8,56.5,125.8,125.8s-56.5,125.8-125.8,125.8c-69.4,0-125.8-56.5-125.8-125.8
		S579.7,23.2,649.1,23.2 M649.1,0c-82.3,0-149,66.7-149,149c0,82.3,66.7,149,149,149s149-66.7,149-149C798.1,66.7,731.4,0,649.1,0
		L649.1,0z"/>
	<path class="st2" d="M149,480.8c69.4,0,125.8,56.5,125.8,125.8S218.4,732.4,149,732.4c-69.4,0-125.8-56.5-125.8-125.8
		S79.6,480.8,149,480.8 M149,457.6c-82.3,0-149,66.7-149,149s66.7,149,149,149s149-66.7,149-149S231.3,457.6,149,457.6L149,457.6z"
		/>
	<g>
		<path class="st2" d="M79.3,599.9c1.9,0.5,4.2,1.1,7.2,1.1c0.9,0,1.9-0.1,3-0.2c8-1.1,13-6.3,16.7-10.1c3-3.1,5.3-5.6,9.1-6.8
			c2.3-0.8,3.9-1.3,5.9-0.8c2.4,0.7,4.3,2.9,6.8,5.8c3.6,4.2,8.6,10.1,17,11.5c1.4,0.2,3.7,0.5,6.5,0.1c8.6-1,13.9-6.4,17.7-10.4
			c2.8-2.9,4.8-4.9,7.7-5.8c3.2-1,6.1-0.2,7.4,0.2c3,0.9,5.2,3.2,7.9,6.1c3.7,3.9,8.7,9.2,16.8,10.1c3.5,0.4,6.1-0.3,8.2-0.7
			c12.6-2.9,21.2-12.8,26.1-20.6l3.6-5.6l-12.8-10l-3.8,5.9c-3.3,5.2-8.8,11.8-16.4,13.6c-1.7,0.4-2.4,0.5-3.5,0.4
			c-2.4-0.2-3.9-1.6-7.3-5.3c-3.7-3.9-7.8-8.4-14.9-10.4c-2.3-0.7-8.4-2.4-15.8,0c-6.5,2.1-10.5,6.2-14.1,9.8
			c-3.1,3.2-5.2,5.4-8.6,5.8c-1.4,0.2-2.4,0-2.4,0c-2.7-0.5-4.5-2.3-7.9-6.2c-3.4-3.9-7.6-8.9-14.5-10.8c-6.2-1.7-11.4,0-14.5,1.1
			c-7.3,2.5-11.7,7.1-15.3,10.8c-3.6,3.7-5.2,5.2-7.7,5.5c-1.5,0.2-2.7-0.1-4.5-0.6c-7.8-2.1-12.8-9.4-15-13.6l-3.3-6.2l-13.4,8.9
			l3.2,5.9C57.9,584.8,65.8,596.3,79.3,599.9z"/>
		<path class="st2" d="M230.4,618.3c-3.3,5.2-8.8,11.8-16.4,13.6c-1.8,0.4-2.5,0.5-3.5,0.4c-2.3-0.2-3.9-1.6-7.3-5.3
			c-3.5-3.7-7.8-8.4-14.9-10.4c-2.3-0.7-8.4-2.4-15.8,0c-6.5,2.1-10.5,6.2-14.1,9.9c-3.1,3.2-5.2,5.4-8.6,5.8c-1.4,0.2-2.4,0-2.4,0
			c-2.7-0.5-4.5-2.3-7.9-6.2c-3.4-3.9-7.6-8.9-14.5-10.8c-6.2-1.7-11.4,0-14.4,1.1c-7.3,2.4-11.7,7.1-15.3,10.8
			c-3.6,3.7-5.2,5.2-7.7,5.5c-1.6,0.2-2.8-0.1-4.5-0.6c-7.8-2.1-12.8-9.4-15-13.6l-3.3-6.2l-13.4,8.9l3.2,5.9
			c3.5,6.6,11.4,18.1,24.9,21.7c1.8,0.5,4.2,1.1,7.2,1.1c0.9,0,1.9-0.1,3-0.2c8-1.1,13-6.3,16.7-10.1c3-3.1,5.3-5.6,9.1-6.8
			c2.3-0.8,3.9-1.3,5.9-0.8c2.4,0.7,4.3,2.9,6.8,5.8c3.6,4.2,8.6,10.1,17,11.5c1.4,0.2,3.7,0.5,6.5,0.1c8.6-1,13.9-6.4,17.7-10.4
			c2.8-2.9,4.8-4.9,7.7-5.8c3.2-1,6.1-0.2,7.4,0.2c3,0.9,5.2,3.1,7.9,6c3.7,3.9,8.7,9.2,16.8,10.1c3.6,0.3,6.1-0.3,8.2-0.7
			c12.6-2.9,21.2-12.8,26.1-20.6l3.6-5.6l-12.8-10L230.4,618.3z"/>
	</g>
	<path class="st2" d="M645.3,480.8c69.4,0,125.8,56.5,125.8,125.8s-56.5,125.8-125.8,125.8c-69.4,0-125.8-56.5-125.8-125.8
		S575.9,480.8,645.3,480.8 M645.3,457.6c-82.3,0-149,66.7-149,149s66.7,149,149,149s149-66.7,149-149S727.6,457.6,645.3,457.6
		L645.3,457.6z"/>
	<path class="st2" d="M504.7,185.3c-2.6-10.3-4.1-21-4.4-32c-28.9-12.1-60.6-18.8-93.8-18.8c-39.2,0-76.2,9.4-109,25.9
		c-0.8,12.1-3,23.7-6.5,34.8c33.4-21.3,73-33.7,115.4-33.7C441.8,161.5,475.2,170.1,504.7,185.3z"/>
	<path class="st2" d="M211.5,285.1c-10.7,4.9-22,8.7-33.8,11.1c-9,25.3-13.9,52.5-13.9,80.9c0,29.3,5.2,57.5,14.7,83.5
		c12.1,2.4,23.7,6.5,34.5,11.7c-14.2-28.7-22.2-61-22.2-95.2C190.9,344.2,198.3,313,211.5,285.1z"/>
	<path class="st2" d="M649.1,377.1c0-27.9-4.8-54.7-13.5-79.7c-10.9-1-21.4-3.1-31.5-6.3c11.5,26.4,17.9,55.4,17.9,86
		c0,30.8-6.6,60-18.2,86.5c10-2.9,20.5-4.7,31.3-5.5C644.2,432.8,649.1,405.5,649.1,377.1z"/>
	<g>
		<polygon class="st5" points="435.9,371.6 397.9,410.1 435.9,410.1 		"/>
		<polygon class="st5" points="435.9,252 405.7,230 384,245.8 435.9,295.7 		"/>
		<polygon class="st5" points="370.8,460.6 362,521.7 428.7,521.7 		"/>
		<polygon class="st5" points="382,387.3 409.2,353.5 382,353.5 		"/>
		<polygon class="st5" points="445.5,493.3 438.1,441.8 396.8,441.8 		"/>
		<polygon class="st5" points="467.6,321.8 531.7,321.8 467.6,275.1 		"/>
		<path class="st5" d="M423.6,591.9c12.1-1,23.9-2.9,35.4-5.8l-3-20.5L423.6,591.9z"/>
		<polygon class="st5" points="344.1,321.8 344.1,275 280,321.8 		"/>
		<path class="st5" d="M352.8,585.9c7.3,1.9,14.8,3.4,22.4,4.5l45.6-37h-63.3L352.8,585.9z"/>
		<path class="st2" d="M589.7,324.8L415.6,197.9l-0.4,0.6c-5.6-4.6-13.6-4.8-19.4-0.6L222,324.8c-7.1,5.2-8.6,15.1-3.5,22.2
			c3,4.1,7.7,6.5,12.8,6.5l112.7,0v70.6c0,0.1-0.1,0.2-0.1,0.3l-15.7,108.5l-30.5,30.3c-2.8-1.6-5.4-3.4-8.1-5.1
			c3.9,11.3,6.5,23.3,7.6,35.7c32.8,16.6,69.9,26,109.2,26c31.8,0,62.2-6.2,90-17.3c0.5-17.6,4-34.3,10.1-49.9l-23.8-23.2
			l-15.2-104.5v-71.3l112.7,0c8.8,0,15.9-7.1,15.9-15.9C596.2,332.6,593.8,327.8,589.7,324.8z M445.5,493.3l-48.7-51.5h41.2
			L445.5,493.3z M382,387.3v-33.8l27.2,0L382,387.3z M435.9,371.6v38.5h-38L435.9,371.6z M405.7,230l30.2,22v43.7L384,245.8
			L405.7,230z M375.8,281.9l36.6,35.2h-36.6V281.9z M370.8,460.6l57.9,61.1H362L370.8,460.6z M344.1,321.8H280l64.1-46.8V321.8z
			 M375.2,590.4c-7.6-1.1-15.1-2.6-22.4-4.5l4.7-32.5h63.3L375.2,590.4z M423.6,591.9l32.4-26.2l3,20.5
			C447.6,589,435.7,591,423.6,591.9z M467.6,321.8v-46.7l64,46.7L467.6,321.8z"/>
	</g>
	<path class="st2" d="M622.1,100.8V117h53.9v-16.2c0-14.9-12.1-27-27-27C634.2,73.8,622.1,85.9,622.1,100.8z M600.5,117v-16.2
		c0-26.8,21.7-48.5,48.5-48.5c26.8,0,48.5,21.7,48.5,48.5V117h5.4c11.9,0,21.6,9.7,21.6,21.6v64.7c0,11.9-9.7,21.6-21.6,21.6H595.1
		c-11.9,0-21.6-9.7-21.6-21.6v-64.7c0-11.9,9.7-21.6,21.6-21.6H600.5z"/>
	<g>
		<path class="st2" d="M675.7,584.5c-2.8-0.3-5.7,1.1-7.6,3.9l-8.5,12.6c-0.3,0.5-0.8,0.8-1.1,0.8c-0.3,0.1-0.8-0.3-1.1-0.9
			L636,566.5c-1.7-2.7-4.4-4.3-7.3-4.3c0,0,0,0,0,0c-2.9,0-5.6,1.6-7.3,4.3c-11.8,18.8-17.8,31-17.8,44.8
			c0,29.8,17.4,50.7,42.3,50.7c9.4,0,17.8-3.2,25.8-10c15.4-13.6,19.9-40.3,10.5-62C681.1,586.9,678.6,584.8,675.7,584.5z"/>
		<path class="st2" d="M713.5,568.4c-7-15.1-16.1-28.7-25.2-37.5c-7-6.8-17.9-6.8-24.9,0c-2,1.9-4.1,4.6-6.2,7.4
			c-5.8-7.3-12.1-14.8-17.6-20.1c-6.9-6.6-17.8-6.6-24.7-0.1c-11.9,11.2-23.8,26.5-32.6,42c-7.6,13.2-16.7,33.2-16.7,52.8
			c0,45.8,35,81.6,79.8,81.6c44.7,0,79.8-35.8,79.8-81.6C725.1,600.3,721,584.5,713.5,568.4z M701.4,613c0,32.5-24.6,57.9-56.1,57.9
			c-31.5,0-56.1-25.4-56.1-57.9c0-11.2,4.8-25.8,13.5-41l0.4-0.7c6.7-11.5,15.2-22.8,23.9-31.8c5.4,5.8,11.4,13.5,16.8,20.4l4.4,5.6
			c2.2,2.8,5.7,4.5,9.3,4.5c0.1,0,0.1,0,0.2,0c3.6-0.1,7.1-1.8,9.3-4.7c0.8-1.1,1.9-2.6,3-4.2l3.9-5.6c0.7-1,1.4-2,2.1-2.9
			c5.7,6.7,11.4,15.9,15.9,25.8C698,591.3,701.4,603.9,701.4,613z"/>
	</g>
</g>
</svg>
