<?xml version="1.0" encoding="UTF-8" standalone="no"?>
<svg
   id="Layer_1"
   data-name="Layer 1"
   viewBox="0 0 120.18631 84.620038"
   version="1.1"
   sodipodi:docname="openstef-icon-white.svg"
   width="120.18631"
   height="84.620041"
   inkscape:export-filename="/Users/johnmertic/Code/lfenergy-artwork/projects/openstef/icon/white/openstef-icon-white.png"
   inkscape:export-xdpi="377.10001"
   inkscape:export-ydpi="377.10001"
   inkscape:version="1.1.2 (b8e25be8, 2022-02-05)"
   xmlns:inkscape="http://www.inkscape.org/namespaces/inkscape"
   xmlns:sodipodi="http://sodipodi.sourceforge.net/DTD/sodipodi-0.dtd"
   xmlns="http://www.w3.org/2000/svg"
   xmlns:svg="http://www.w3.org/2000/svg">
  <sodipodi:namedview
     id="namedview262"
     pagecolor="#ffffff"
     bordercolor="#666666"
     borderopacity="1.0"
     inkscape:pageshadow="2"
     inkscape:pageopacity="0.0"
     inkscape:pagecheckerboard="0"
     showgrid="false"
     inkscape:zoom="2.3699038"
     inkscape:cx="196.2105"
     inkscape:cy="18.144196"
     inkscape:window-width="1528"
     inkscape:window-height="480"
     inkscape:window-x="58"
     inkscape:window-y="25"
     inkscape:window-maximized="0"
     inkscape:current-layer="Layer_1" />
  <defs
     id="defs207">
    <style
       id="style205">.cls-1{fill:#fff;}.cls-2{opacity:0.3;}</style>
  </defs>
  <g
     class="cls-2"
     id="g255"
     transform="translate(-0.0209352,-3.77)">
    <circle
       class="cls-1"
       cx="6.7600002"
       cy="55.77"
       r="2.25"
       id="circle245" />
    <path
       class="cls-1"
       d="m 25.4,148.4 a 2.26,2.26 0 1 0 2.25,2.26 2.26,2.26 0 0 0 -2.25,-2.26 z"
       transform="translate(-3.95,-76.79)"
       id="path247" />
    <path
       class="cls-1"
       d="M 88.76,89.18 A 2.26,2.26 0 1 0 91,91.44 2.26,2.26 0 0 0 88.76,89.18 Z"
       transform="translate(-3.95,-76.79)"
       id="path249" />
    <circle
       class="cls-1"
       cx="113.5"
       cy="10.53"
       r="2.25"
       id="circle251" />
    <path
       class="cls-1"
       d="M 57.2,93.9 A 27.21,27.21 0 1 0 84.41,121.11 27.25,27.25 0 0 0 57.2,93.9 Z m 23.64,27.21 a 23.66,23.66 0 1 1 -2.35,-10.26 23.41,23.41 0 0 1 1.84,5.38 23.76,23.76 0 0 1 0.51,4.88 z"
       transform="translate(-3.95,-76.79)"
       id="path253" />
  </g>
  <path
     class="cls-1"
     d="m 113.46906,0 a 6.77,6.77 0 0 0 -6.67,5.66 L 90.669065,7.55 a 6.76,6.76 0 1 0 -11.33,7.34 l -3.24,4.55 a 30.94,30.94 0 0 0 -49.28,36.65 1.91,1.91 0 0 0 0.24,0.41 l 0.07,0.12 -4.25,6.84 a 6.93,6.93 0 0 0 -1.45,-0.16 6.81,6.81 0 0 0 -2.27,0.39 l -6.65,-8.19 a 6.75,6.75 0 1 0 -3.5000002,2.84 l 6.6500002,8.2 a 6.69,6.69 0 0 0 -1,3.53 6.76,6.76 0 1 0 12,-4.23 l 3.25,-5.22 a 30.91,30.91 0 0 0 41.12,5.92 l 14,15.72 a 6,6 0 0 0 0.57,0.56 7,7 0 0 0 4.71,1.8 h 0.41 a 7.09,7.09 0 0 0 4.31,-12.37 l -15.69,-14 a 30.93,30.93 0 0 0 1.84,-31.63 2.82,2.82 0 0 0 -0.21,-0.38 31.3,31.3 0 0 0 -1.94,-3.16 l 4,-5.64 a 6.49,6.49 0 0 0 1.72,0.22 6.78,6.78 0 0 0 6.67,-5.64 l 16.129995,-1.9 a 6.76,6.76 0 1 0 5.88,-10.1 z M 6.7390648,54.25 a 2.26,2.26 0 1 1 2.29,-2.25 2.25,2.25 0 0 1 -2.29,2.25 z m 14.6900002,18.1 a 2.26,2.26 0 1 1 2.25,-2.25 2.26,2.26 0 0 1 -2.25,2.25 z m 70.6,3.26 a 2.56,2.56 0 0 1 0.2,3.64 2.58,2.58 0 0 1 -3.64,0.21 2,2 0 0 1 -0.2,-0.21 l -13.84,-15.5 c 0.69,-0.63 1.36,-1.29 2,-2 z m -11.59,-35.06 a 27.22,27.22 0 1 1 -27.21,-27.21 27.24,27.24 0 0 1 27.21,27.21 z m 4.35,-27.42 a 2.26,2.26 0 1 1 2.24,-2.25 2.26,2.26 0 0 1 -2.24,2.25 z M 113.46906,9.02 a 2.26,2.26 0 1 1 2.26,-2.26 2.26,2.26 0 0 1 -2.26,2.26 z"
     id="path257" />
  <polygon
     class="cls-1"
     points="56.92,29.61 48.57,29.61 47.78,31.77 45.58,37.84 44.98,39.48 42.79,45.53 42.32,46.81 52.97,46.81 49.41,64.01 57.69,50.95 62.61,43.18 64.18,40.71 53.39,40.71 52.97,40.71 53.05,40.49 "
     id="polygon259"
     transform="translate(-0.0209352,-3.77)" />
</svg>
