<?xml version="1.0" encoding="UTF-8" standalone="no"?>
<!-- Generator: Adobe Illustrator 24.1.3, SVG Export Plug-In . SVG Version: 6.00 Build 0)  -->

<svg
   version="1.1"
   id="Layer_1"
   x="0px"
   y="0px"
   viewBox="0 0 120.2 120.7"
   xml:space="preserve"
   sodipodi:docname="compas-icon-black.svg"
   width="120.2"
   height="120.7"
   inkscape:export-filename="/Users/johnmertic/Code/lfenergy-artwork/projects/compas/icon/black/compas-icon-black.png"
   inkscape:export-xdpi="377.10001"
   inkscape:export-ydpi="377.10001"
   inkscape:version="1.1.2 (b8e25be8, 2022-02-05)"
   xmlns:inkscape="http://www.inkscape.org/namespaces/inkscape"
   xmlns:sodipodi="http://sodipodi.sourceforge.net/DTD/sodipodi-0.dtd"
   xmlns="http://www.w3.org/2000/svg"
   xmlns:svg="http://www.w3.org/2000/svg"><defs
   id="defs64" /><sodipodi:namedview
   id="namedview62"
   pagecolor="#ffffff"
   bordercolor="#666666"
   borderopacity="1.0"
   inkscape:pageshadow="2"
   inkscape:pageopacity="0.0"
   inkscape:pagecheckerboard="0"
   showgrid="false"
   inkscape:zoom="2.8575"
   inkscape:cx="150.30621"
   inkscape:cy="64.741907"
   inkscape:window-width="1511"
   inkscape:window-height="804"
   inkscape:window-x="58"
   inkscape:window-y="25"
   inkscape:window-maximized="0"
   inkscape:current-layer="Layer_1" />
<style
   type="text/css"
   id="style9">
	.st0{opacity:0.8;}
	.st1{opacity:0.5;}
	.st2{opacity:0.65;}
	.st3{fill:#009ADE;}
	.st4{fill:none;}
	.st5{fill:#003764;}
	.st6{fill:#D1D1D1;}
	.st7{opacity:0.5;fill:#009ADE;}
	.st8{fill:#FFFFFF;}
	.st9{opacity:0.8;fill:#FFFFFF;}
	.st10{opacity:0.5;fill:#FFFFFF;}
	.st11{opacity:0.65;fill:#FFFFFF;}
	.st12{fill:none;stroke:#000000;stroke-width:0;stroke-linecap:round;stroke-linejoin:round;}
</style>











<path
   d="m 49.8,24.6 c 0.4,-0.1 0.7,-0.3 1.1,-0.4 -0.3,0.1 -0.7,0.2 -1.1,0.4 z"
   id="path45" />
<path
   d="M 60.5,22.1 C 61,22 61.5,22 62,22 c -0.5,0 -1,0 -1.5,0.1 z"
   id="path47" />
<path
   d="m 22.4,55.9 c -0.1,0.3 -0.1,0.6 -0.2,0.9 0.1,-0.2 0.2,-0.5 0.2,-0.9 z"
   id="path49" />
<polygon
   points="77.6,38 57.8,59.9 57.5,60.4 44.7,87 64.6,65.1 64.7,64.9 "
   id="polygon51"
   transform="translate(-1.3,-2.2)" />
<polygon
   points=""
   id="polygon53"
   transform="translate(-1.3,-2.2)" />
<polygon
   class="st1"
   points=""
   id="polygon55"
   transform="translate(-1.3,-2.2)" />
<path
   class="st2"
   d="m 112,60.9 8.2,-5 C 119.8,49.7 118.4,43.6 116,37.8 l -9.5,-0.9 c -1.1,-0.1 -1.7,-1.3 -1.2,-2.2 l 4.6,-8.4 c -3.5,-5.2 -7.7,-9.7 -12.7,-13.6 l -8.6,4 c -1,0.4 -2.1,-0.2 -2.1,-1.3 L 86.3,5.9 C 80.6,3.2 74.7,1.4 68.5,0.5 L 63,8.3 c -0.3,0.4 -0.8,0.6 -1.3,0.6 -0.5,0 -1,-0.3 -1.2,-0.7 L 55.5,0 C 49.3,0.4 43.2,1.8 37.4,4.2 l -0.9,9.5 c 0,0.5 -0.3,0.9 -0.8,1.2 -0.4,0.2 -1,0.2 -1.4,0 L 25.9,10.3 C 20.7,13.8 16.2,18.1 12.3,23 l 4,8.7 c 0.1,0.2 0.1,0.5 0.1,0.7 0,0.2 -0.1,0.5 -0.2,0.9 0,0 0,0.1 0,0.1 0,0.1 -0.1,0.2 -0.1,0.3 0,0 0,0 0,0 v 0 c -0.1,0.4 -0.3,0.8 -0.5,1.3 -0.1,0.3 -0.3,0.6 -0.4,0.8 0,0 0,0 0,0 -0.1,0.1 -0.1,0.2 -0.2,0.3 -2.6,5.6 -4,11.7 -4,18.3 0,14.1 6.6,26.6 16.9,34.6 1.9,1.5 3.9,2.8 6,3.9 6.2,3.3 13.3,5.3 20.8,5.3 6.5,0 12.7,-1.4 18.2,-4 -4.1,1.6 -8.6,2.5 -13.2,2.5 -20,0 -36.3,-16.3 -36.3,-36.3 0,-7 2,-13.5 5.4,-19.1 1.3,-2.1 2.8,-4 4.5,-5.8 0,0 0.2,-0.3 0.4,-0.4 0.3,-0.3 0.5,-0.5 0.8,-0.8 0.2,-0.2 0.5,-0.5 0.7,-0.7 0.3,-0.3 0.5,-0.5 0.8,-0.8 0.3,-0.2 0.5,-0.4 0.8,-0.7 0.3,-0.2 0.6,-0.5 0.9,-0.7 0.3,-0.2 0.5,-0.4 0.8,-0.6 0.3,-0.2 0.6,-0.4 0.9,-0.7 0.3,-0.2 0.5,-0.4 0.8,-0.6 0.3,-0.2 0.6,-0.4 0.9,-0.6 0.3,-0.2 0.6,-0.4 0.9,-0.5 0.3,-0.2 0.6,-0.4 1,-0.6 0.3,-0.2 0.6,-0.3 0.9,-0.5 0.3,-0.2 0.7,-0.4 1,-0.5 0.3,-0.2 0.6,-0.3 0.9,-0.5 0.3,-0.2 0.7,-0.3 1,-0.5 0.3,-0.1 0.6,-0.3 0.9,-0.4 0.4,-0.2 0.7,-0.3 1.1,-0.4 0.3,-0.1 0.6,-0.3 0.9,-0.4 0.4,-0.1 0.7,-0.3 1.1,-0.4 0.3,-0.1 0.6,-0.2 0.9,-0.3 0.4,-0.1 0.8,-0.2 1.1,-0.3 0.3,-0.1 0.6,-0.2 1,-0.3 0.4,-0.1 0.8,-0.2 1.2,-0.3 0.3,-0.1 0.6,-0.2 0.9,-0.2 0.4,-0.1 0.8,-0.2 1.2,-0.2 0.3,-0.1 0.6,-0.1 0.9,-0.2 0.4,-0.1 0.9,-0.1 1.3,-0.2 0.3,0 0.6,-0.1 0.9,-0.1 0.5,-0.1 1,-0.1 1.5,-0.1 0.3,0 0.5,0 0.8,-0.1 0.8,0 1.5,-0.1 2.3,-0.1 6.1,0 11.9,1.3 17.2,3.5 3.4,1.5 6.6,3.4 9.5,5.6 10.3,8 16.9,20.5 16.9,34.6 0,0.8 0,1.5 -0.1,2.3 0,0.3 0,0.5 -0.1,0.8 0,0.5 -0.1,1 -0.1,1.5 0,0.3 -0.1,0.6 -0.1,0.9 -0.1,0.4 -0.1,0.9 -0.2,1.3 0,0.3 -0.1,0.6 -0.2,0.9 -0.1,0.4 -0.1,0.9 -0.2,1.3 -0.1,0.3 -0.1,0.6 -0.2,0.9 -0.1,0.4 -0.2,0.8 -0.3,1.2 -0.1,0.3 -0.2,0.6 -0.3,0.9 -0.1,0.4 -0.2,0.8 -0.3,1.2 -0.1,0.3 -0.2,0.6 -0.3,0.9 -0.1,0.4 -0.3,0.8 -0.4,1.2 -0.1,0.3 -0.2,0.6 -0.3,0.9 -0.2,0.4 -0.3,0.8 -0.5,1.1 -0.1,0.3 -0.3,0.6 -0.4,0.9 -0.2,0.4 -0.3,0.7 -0.5,1.1 0,0.1 -0.1,0.1 -0.1,0.2 0,0.1 -0.1,0.1 -0.1,0.2 -1,2 -0.9,3 -0.9,3.2 0,-0.3 0,-0.5 0.2,-0.8 0,0 0,-0.1 0.1,-0.1 0.1,-0.1 0.1,-0.2 0.2,-0.3 0.3,-0.3 0.6,-0.4 1,-0.4 l 9.6,-0.2 c 2.7,-5.6 4.6,-11.6 5.4,-17.8 l -7.8,-5.5 c -0.5,-0.5 -0.4,-1.8 0.5,-2.4 z m -89.8,-4 c 0.1,-0.3 0.1,-0.6 0.2,-0.9 0,0.3 -0.1,0.6 -0.2,0.9 z"
   id="path57" />
<path
   d="m 104.1,85.2 c 0,-0.1 0.1,-0.2 0.1,-0.2 0,-0.1 0.1,-0.1 0.1,-0.2 0.2,-0.4 0.3,-0.7 0.5,-1.1 0.1,-0.3 0.3,-0.6 0.4,-0.9 0.2,-0.4 0.3,-0.8 0.5,-1.1 0.1,-0.3 0.2,-0.6 0.3,-0.9 0.1,-0.4 0.3,-0.8 0.4,-1.2 0.1,-0.3 0.2,-0.6 0.3,-0.9 0.1,-0.4 0.2,-0.8 0.3,-1.2 0.1,-0.3 0.2,-0.6 0.3,-0.9 0.1,-0.4 0.2,-0.8 0.3,-1.2 0.1,-0.3 0.1,-0.6 0.2,-0.9 0.1,-0.4 0.2,-0.8 0.2,-1.3 0.1,-0.3 0.1,-0.6 0.2,-0.9 0.1,-0.4 0.1,-0.9 0.2,-1.3 0,-0.3 0.1,-0.6 0.1,-0.9 0.1,-0.5 0.1,-1 0.1,-1.5 0,-0.3 0,-0.5 0.1,-0.8 0,-0.8 0.1,-1.5 0.1,-2.3 0,-14.1 -6.6,-26.6 -16.9,-34.6 C 89,28.6 85.8,26.7 82.4,25.3 77,23.1 71.2,21.8 65.1,21.8 c -0.8,0 -1.5,0 -2.3,0.1 -0.3,0 -0.5,0 -0.8,0.1 -0.5,0 -1,0.1 -1.5,0.1 -0.3,0 -0.6,0.1 -0.9,0.1 -0.4,0.1 -0.9,0.1 -1.3,0.2 -0.3,0 -0.6,0.1 -0.9,0.2 -0.4,0.1 -0.8,0.1 -1.2,0.2 -0.3,0.1 -0.6,0.1 -0.9,0.2 -0.4,0.1 -0.8,0.2 -1.2,0.3 -0.3,0.1 -0.6,0.2 -1,0.3 -0.4,0.1 -0.8,0.2 -1.1,0.3 -0.3,0.1 -0.6,0.2 -0.9,0.3 -0.4,0.1 -0.7,0.3 -1.1,0.4 -0.3,0.1 -0.6,0.2 -0.9,0.4 -0.4,0.1 -0.7,0.3 -1.1,0.4 -0.3,0.1 -0.6,0.3 -0.9,0.4 -0.3,0.2 -0.7,0.3 -1,0.5 -0.3,0.1 -0.6,0.3 -0.9,0.5 -0.3,0.2 -0.7,0.4 -1,0.5 -0.3,0.2 -0.6,0.3 -0.9,0.5 -0.3,0.2 -0.7,0.4 -1,0.6 -0.3,0.2 -0.6,0.4 -0.9,0.5 -0.3,0.2 -0.6,0.4 -0.9,0.6 -0.3,0.2 -0.6,0.4 -0.8,0.6 -0.3,0.2 -0.6,0.4 -0.9,0.7 -0.3,0.2 -0.5,0.4 -0.8,0.6 -0.3,0.2 -0.6,0.5 -0.9,0.7 -0.3,0.2 -0.5,0.4 -0.8,0.7 -0.3,0.2 -0.6,0.5 -0.8,0.8 -0.2,0.2 -0.5,0.5 -0.7,0.7 -0.3,0.3 -0.5,0.5 -0.8,0.8 -0.1,0.1 -0.4,0.4 -0.4,0.4 6.6,-7 16,-11.5 26.5,-11.5 20,0 36.3,16.3 36.3,36.3 0,6.9 -1.9,13.3 -5.2,18.8 -0.1,0.2 -0.3,0.4 -0.4,0.6 -4.4,6.2 -10.4,11.2 -17.4,14.5 -5.5,2.5 -11.7,4 -18.2,4 -7.5,0 -14.6,-1.9 -20.8,-5.3 C 32.3,91.8 30.3,90.4 28.4,89 18.1,81 11.5,68.5 11.5,54.4 c 0,-6.5 1.4,-12.7 4,-18.3 0,-0.1 0.1,-0.2 0.2,-0.3 0,0 0,0 0,0 0.1,-0.3 0.3,-0.6 0.4,-0.8 0.2,-0.5 0.4,-0.9 0.5,-1.3 0,0 0,0 0,0 0,-0.1 0.1,-0.2 0.1,-0.3 0,0 0,-0.1 0,-0.1 0.1,-0.4 0.1,-0.7 0.2,-0.9 0,0.3 -0.2,0.6 -0.4,0.9 0,0 0,0.1 -0.1,0.1 -0.3,0.2 -0.6,0.4 -1,0.4 L 5.9,34 C 3.2,39.6 1.4,45.6 0.5,51.8 l 7.8,5.5 c 0.4,0.3 0.6,0.8 0.6,1.3 0,0.5 -0.3,1 -0.7,1.2 L 0,64.8 C 0.4,71 1.8,77.1 4.2,82.9 l 9.5,0.9 c 0.5,0 0.9,0.3 1.2,0.8 0.2,0.4 0.2,1 0,1.4 l -4.6,8.3 c 3.5,5.1 7.7,9.7 12.6,13.6 l 8.7,-4 c 0.5,-0.2 1,-0.2 1.4,0.1 0.4,0.3 0.7,0.7 0.7,1.2 l 0.2,9.6 c 5.6,2.7 11.5,4.6 17.7,5.4 l 5.5,-7.8 c 0.3,-0.4 0.8,-0.6 1.3,-0.6 0.5,0 1,0.3 1.2,0.7 l 5,8.2 c 6.2,-0.4 12.3,-1.8 18.1,-4.2 l 0.9,-9.5 c 0.1,-1.1 1.3,-1.7 2.2,-1.2 l 8.4,4.6 c 5.2,-3.5 9.7,-7.8 13.6,-12.7 l -4,-8.6 c -0.1,-0.2 -0.1,-0.3 -0.1,-0.5 v 0 c 0,0 0,0 0,0 0,0 0,0 0,0 -0.5,-0.4 -0.6,-1.4 0.4,-3.4 z"
   id="path59" />
</svg>
