<?xml version="1.0" encoding="UTF-8"?>
<svg id="LF-Energy-OpenSynth-Logo" xmlns="http://www.w3.org/2000/svg" viewBox="0 0 149.86 157.13">
  <defs>
    <style>
      .cls-1 {
        fill: #fff;
        stroke-width: 0px;
      }
    </style>
  </defs>
  <path class="cls-1" d="M64.86,68.51c.59-.8,1.24-1.54,1.95-2.23,6.71-6.42,17.36-6.19,23.78.53,4.95,5.17,6.08,12.91,2.82,19.29l9.08,6.7c7.92-13.31,3.55-30.51-9.76-38.43-13.31-7.92-30.51-3.55-38.43,9.76-5.76,9.68-5.16,21.87,1.51,30.94l8.41-7.58c-3.76-5.84-3.51-13.41.64-18.99h0Z"/>
  <path class="cls-1" d="M51.8,98.98c-4.51-5.84-6.95-13-6.94-20.38,0-2.15.2-4.3.6-6.42,3.53-18.25,21.2-30.19,39.45-26.66,14.82,2.87,25.92,15.25,27.16,30.3l11.21-.07c-.79-12.22-6.53-23.59-15.88-31.5-18.9-16.01-47.21-13.67-63.22,5.23-16.01,18.9-13.67,47.21,5.23,63.22,3.22,2.72,6.8,4.98,10.65,6.71h.01c4.96,2.28,10.29,3.61,15.74,3.93l-.08-11.26c-9.47-.79-18.16-5.55-23.92-13.1h0Z"/>
  <path class="cls-1" d="M126.51,93.69l10.47,4.1c5.33-16.18,3.77-33.84-4.33-48.83C116.45,19,79.03,7.84,49.07,24.04c-26.78,14.48-38.99,46.33-28.75,75,2.73,7.62,6.92,14.64,12.35,20.65l7.96-7.89c-12.48-14.11-16.08-33.99-9.33-51.58.62-1.6,1.31-3.17,2.08-4.71,12.62-24.86,43.01-34.77,67.87-22.15,22.06,11.21,32.75,36.75,25.24,60.33h0Z"/>
  <path class="cls-1" d="M104.81,4.55C63.94-9.96,19.05,11.41,4.54,52.28c-13.52,38.08,4.07,80.19,40.64,97.36,19.16,9.07,41.2,9.94,61.02,2.4l-4.35-10.36c-34.87,12.88-73.58-4.95-86.46-39.82-11.48-31.08,1.37-65.89,30.29-82.07,16.33-9.18,35.76-11.09,53.56-5.26,17.74,5.76,32.31,18.6,40.26,35.47.03.05.03.06.03.06l10.34-4.32c-8.77-19.3-25.04-34.18-45.04-41.2h0Z"/>
</svg>