<?xml version="1.0" encoding="UTF-8"?>
<svg id="Layer_1" data-name="Layer 1" xmlns="http://www.w3.org/2000/svg" viewBox="0 0 170.7016296 201.4341431">
  <defs>
    <style>
      .cls-1, .cls-2, .cls-3 {
        stroke-width: 0px;
      }

      .cls-2 {
        fill: #bde2e4;
      }

      .cls-3 {
        fill: #e9ae72;
      }
    </style>
  </defs>
  <g>
    <path class="cls-2" d="m111.6691589,123.1548157l8.5605469,14.829895c.6332703-.4256287,1.2509766-.8722229,1.868042-1.319458l-7.7984619-13.510437h-2.630127Z"/>
    <path class="cls-2" d="m58.8014832,123.1548157l-9.1123352,15.7858887c.6411438.4059448,1.2892456.801178,1.9454041,1.184967l9.7963257-16.9708557h-2.6293945Z"/>
    <path class="cls-2" d="m72.2216492,107.7388c0,.4504395.3662109.8166504.8166504.8166504h25.0144043c.449707,0,.815918-.3662109.815918-.8166504,0-.449707-.3662109-.815918-.815918-.815918h-25.0144043c-.4504395,0-.8166504.3662109-.8166504.815918Z"/>
    <path class="cls-2" d="m73.0382996,112.3574524h25.0144043c.449707,0,.815918-.3662109.815918-.815918,0-.4504395-.3662109-.8166504-.815918-.8166504h-25.0144043c-.4504395,0-.8166504.3662109-.8166504.8166504,0,.449707.3662109.815918.8166504.815918Z"/>
    <path class="cls-2" d="m57.2392273,137.3901672l-2.5472717,4.4122925c.0750732.0386353.1503296.077179.2255859.1155396h58.5924683c1.2801819-.6522217,2.5395813-1.3384094,3.7687683-2.0716553l-1.4179688-2.4561768h-58.621582Z"/>
    <path class="cls-2" d="m75.437439,148.3339233h17.5526733c4.2654419-.5793457,8.3964844-1.5736084,12.3552246-2.9427795h-42.2631226c3.9587402,1.3691711,8.0897827,2.3634338,12.3552246,2.9427795Z"/>
    <polygon class="cls-2" points="59.2599792 133.9038391 113.853241 133.9038391 111.2392273 129.3760071 61.8732605 129.3760071 59.2599792 133.9038391"/>
    <path class="cls-2" d="m114.1790771,27.0189514l-9.9388733,8.3294678c-.2995605.2856445-.722168.4541016-1.1682129.4541016-.4790039,0-.9301758-.1962891-1.2700195-.5529785-.6496582-.703125-.6115723-1.8054199.0805664-2.4616699l8.870636-7.4341736c-7.1932068-3.2440796-15.0784607-5.2232666-23.3827515-5.6226196l.0687561,9.5169983c.0065918.4394531-.1552734.8635254-.4555664,1.1916504-.3244629.3530273-.7741699.5522461-1.2670898.5625h-.0073242c-.9528809,0-1.7351074-.7712402-1.7519531-1.7233887l-.0690308-9.6193542c-8.2676697.0410156-16.1615295,1.6439209-23.4187317,4.5125427l9.3564148,8.6107178c.6972656.661377.7353516,1.7636719.0908203,2.4616699-.3449707.3618164-.7961426.5581055-1.2751465.5581055-.4460449,0-.8686523-.168457-1.1901855-.4731445l-10.4892883-9.6536865c-22.0809631,10.2828369-37.394165,32.6580505-37.394165,58.6214905,0,21.7511902,10.7536926,40.9784546,27.2224731,52.6956482l7.9959412-13.8511963h-5.0214844c-2.1899414,0-3.9711914-1.78125-3.9711914-3.9711914v-61.1015625c0-7.7233887,6.2841797-14.0075684,14.0075684-14.0075684h12.3618164c.4138184-3.6804199,3.5119629-6.5031738,7.2370605-6.5031738h11.8674316c3.7243652,0,6.8225098,2.8227539,7.2363281,6.5031738h12.3757324c7.7167969,0,13.9951172,6.2841797,13.9951172,14.0075684v61.1147461c0,2.1899414-1.78125,3.9711914-3.9711914,3.9711914h-2.564209l6.5684509,11.3616028c14.6086121-11.852417,23.9518433-29.9414062,23.9518433-50.2192383,0-24.885498-14.0696411-46.4729919-34.680542-57.2782288Z"/>
    <polygon class="cls-2" points="63.8808289 125.889679 109.2192078 125.889679 107.6423035 123.1548157 65.4577332 123.1548157 63.8808289 125.889679"/>
    <path class="cls-2" d="m91.254364,41.0583801h-11.8666992c-1.8068848,0-3.361084,1.2890625-3.7390137,3.0153809h19.3447266c-.3771973-1.7263184-1.9313965-3.0153809-3.7390137-3.0153809Z"/>
  </g>
  <g>
    <polygon class="cls-3" points="120.6932373 177.2617493 120.6932373 173.1036072 50.0083923 173.1036072 50.0083923 177.2617493 102.9606628 177.2617493 102.9606628 181.8965149 50.0083923 181.8965149 50.0083923 194.945343 120.6932373 194.945343 120.6932373 181.8965149 110.0871277 181.8965149 110.0871277 177.2617493 120.6932373 177.2617493"/>
    <path class="cls-3" d="m107.5002136,112.7800598c1.734375,0,3.145752-1.411377,3.145752-3.1464844s-1.411377-3.1464844-3.145752-3.1464844c-1.7351074,0-3.1464844,1.411377-3.1464844,3.1464844s1.411377,3.1464844,3.1464844,3.1464844Z"/>
    <circle class="cls-3" cx="63.1549988" cy="109.646759" r="3.1464844"/>
  </g>
  <g>
    <path class="cls-1" d="m170.7016296,85.350769C170.7016296,38.2881775,132.4133606,0,85.350769,0S0,38.2881775,0,85.350769c0,31.1272888,16.5714111,59.2776489,43.5195007,74.4103088v5.1300659h-6.201416v4.6347656h6.201416v7.7358398h-6.201416v4.6347656h6.201416v19.5376282h83.6626282v-19.5376282h5.2277527v-4.6347656h-5.2277527v-7.7358398h5.4570007v-4.6347656h-5.4570007v-5.1300659c26.947998-15.1326599,43.5195007-43.28302,43.5195007-74.4103088Zm-130.458252,62.9831543h-2.335144c-19.0791321-14.3927307-31.419342-37.2424622-31.419342-62.9831543C6.4888916,41.7965698,41.7964783,6.4888916,85.350769,6.4888916s78.861969,35.3076782,78.861969,78.8618774c0,25.7085571-12.3097229,48.5329285-31.3482056,62.9286804l-7.9567566-13.763031-6.5684509-11.3616028h2.564209c2.1899414,0,3.9711914-1.78125,3.9711914-3.9711914v-61.1147461c0-7.7233887-6.2783203-14.0075684-13.9951172-14.0075684h-12.3757324c-.4138184-3.6804199-3.5119629-6.5031738-7.2363281-6.5031738h-11.8674316c-3.7250977,0-6.8232422,2.8227539-7.2370605,6.5031738h-12.3618164c-7.7233887,0-14.0075684,6.2841797-14.0075684,14.0075684v61.1015625c0,2.1899414,1.78125,3.9711914,3.9711914,3.9711914h5.0214844l-7.9959412,13.8511963-6.5470276,11.341095Zm78.2314453-6.4159241h-63.8496094l.0667419-.1155396,2.5472717-4.4122925h58.621582l1.4179688,2.4561768,1.1960449,2.0716553Zm-59.2148438-8.0141602l2.6132812-4.527832h49.3659668l2.6140137,4.527832h-54.5932617Zm45.09375-24.2702637c0-1.7351074,1.411377-3.1464844,3.1464844-3.1464844,1.734375,0,3.145752,1.411377,3.145752,3.1464844s-1.411377,3.1464844-3.145752,3.1464844c-1.7351074,0-3.1464844-1.411377-3.1464844-3.1464844Zm-6.3010254-2.7106934c.449707,0,.815918.3662109.815918.815918,0,.4504395-.3662109.8166504-.815918.8166504h-25.0144043c-.4504395,0-.8166504-.3662109-.8166504-.8166504,0-.449707.3662109-.815918.8166504-.815918h25.0144043Zm.815918,4.6186523c0,.449707-.3662109.815918-.815918.815918h-25.0144043c-.4504395,0-.8166504-.3662109-.8166504-.815918,0-.4504395.3662109-.8166504.8166504-.8166504h25.0144043c.449707,0,.815918.3662109.815918.8166504Zm-17.6784668-14.0595703h-17.4975586c-2.6242676,0-4.7592773-2.1350098-4.7592773-4.7592773v-29.8791504c0-2.6242676,2.1350098-4.7592773,4.7592773-4.7592773h17.4975586v39.3977051Zm-18.0351562,9.0183105c1.7351074,0,3.1464844,1.411377,3.1464844,3.1464844s-1.411377,3.1464844-3.1464844,3.1464844-3.1464844-1.411377-3.1464844-3.1464844,1.411377-3.1464844,3.1464844-3.1464844Zm2.3027344,16.654541h42.1845703l1.5769043,2.7348633h-45.3383789l1.5769043-2.7348633Zm41.517334-25.6984863h-17.4968262v-39.3845215h17.4968262c2.6242676,0,4.7592773,2.1350098,4.7592773,4.7592773v29.8659668c0,2.6242676-2.1350098,4.7592773-4.7592773,4.7592773Zm-31.326416-53.3825684c.3779297-1.7263184,1.9321289-3.0153809,3.7390137-3.0153809h11.8666992c1.8076172,0,3.3618164,1.2890625,3.7390137,3.0153809h-19.3447266Zm-28.3659668,103.5908203h-2.6293945l5.0358582-8.723877,9.1123352-15.7858887h2.6293945l-9.7963257,16.9708557-4.3518677,7.5389099Zm73.410553,25.4390259v4.1581421h-10.6061096v4.6347656h10.6061096v13.0488281H50.0083923v-13.0488281h52.9522705v-4.6347656h-52.9522705v-7.7358398h70.684845v3.5776978Zm0-8.2124634H50.0083923v-8.1394958h70.684845v8.1394958Zm-27.703125-16.5572205h-42.0549316l1.6963806-2.9427795h67.8757324l1.6958313,2.9427795h-29.2130127Zm32.82724-.669342l-5.5876465-9.6798706-8.5605469-14.829895h2.630127l7.7984619,13.510437,6.348999,10.9993286h-2.6293945Z"/>
    <path class="cls-1" d="m61.6286316,82.9031067c.3398438.3574219.7910156.5544434,1.270752.5544434.4445801,0,.8664551-.1677246,1.1865234-.4709473l14.0339355-13.1367188c.6921387-.6577148.7294922-1.7592773.0805664-2.4609375-.6555176-.6899414-1.7570801-.7294922-2.4580078-.0827637l-14.0332031,13.1367188c-.6914062.6569824-.7294922,1.7585449-.0805664,2.4602051Z"/>
    <path class="cls-1" d="m75.7424011,73.5786438l-14.0332031,13.1367188c-.6921387.6577148-.7294922,1.7592773-.0805664,2.4609375.3398438.3566895.7910156.5537109,1.270752.5537109.4453125,0,.8679199-.168457,1.1865234-.4709473l14.0339355-13.1367188c.6914062-.6569824.7294922-1.7585449.0805664-2.4602051-.6569824-.6899414-1.7585449-.7294922-2.4580078-.0834961Z"/>
    <path class="cls-1" d="m106.4294128,67.3039856l-14.034668,13.138916c-.6914062.6569824-.7294922,1.7585449-.0805664,2.4602051.3398438.3574219.7910156.5544434,1.2700195.5544434.4445801,0,.8671875-.1677246,1.1872559-.4709473l14.0332031-13.1367188c.6921387-.6569824.730957-1.7592773.0812988-2.4609375-.6577148-.6906738-1.7570801-.730957-2.456543-.0849609Z"/>
    <path class="cls-1" d="m106.4301453,73.5764465l-14.0354004,13.138916c-.6921387.6577148-.7294922,1.7592773-.0805664,2.4609375.3398438.3566895.7910156.5537109,1.2700195.5537109.4460449,0,.8686523-.168457,1.1872559-.4709473l14.0332031-13.1367188c.6921387-.6569824.730957-1.7585449.0812988-2.4602051-.6577148-.6928711-1.7600098-.7280273-2.4558105-.0856934Z"/>
    <path class="cls-1" d="m103.071991,35.8025208c.4460449,0,.8686523-.168457,1.1682129-.4541016l9.9388733-8.3294678,1.3323669-1.1165771c.6914062-.6569824.7294922-1.7585449.0805664-2.4602051-.6518555-.6884766-1.748291-.7280273-2.4470215-.0930176l-2.3918152,2.0045471-8.870636,7.4341736c-.6921387.65625-.7302246,1.7585449-.0805664,2.4616699.3398438.3566895.7910156.5529785,1.2700195.5529785Z"/>
    <path class="cls-1" d="m56.9620972,25.6756897l10.4892883,9.6536865c.3215332.3046875.7441406.4731445,1.1901855.4731445.4790039,0,.9301758-.1962891,1.2751465-.5581055.6445312-.697998.6064453-1.800293-.0908203-2.4616699l-9.3564148-8.6107178-1.8928528-1.7420654c-.6965332-.6430664-1.7973633-.6064453-2.4602051.0900879-.6437988.6972656-.6049805,1.7988281.0908203,2.4609375l.7548523.6947021Z"/>
    <path class="cls-1" d="m83.9572449,29.2788391c.0168457.9521484.7990723,1.7233887,1.7519531,1.7233887h.0073242c.4929199-.0102539.942627-.2094727,1.2670898-.5625.300293-.328125.4621582-.7521973.4555664-1.1916504l-.0687561-9.5169983-.0433044-5.9993591c-.0168457-.951416-.7998047-1.7233887-1.7526855-1.7233887h-.0058594c-.9536133.0168457-1.7263184.8027344-1.7226562,1.7526855l.0422974,5.898468.0690308,9.6193542Z"/>
  </g>
</svg>