<svg id="Layer_1" data-name="Layer 1" xmlns="http://www.w3.org/2000/svg" viewBox="0 0 356 172"><defs><style>.cls-1{fill:none;stroke:#003e69;stroke-miterlimit:10;stroke-width:1.01px;}.cls-2{fill:#1d98d5;}.cls-3{fill:#183a64;}</style></defs><line class="cls-1" x1="5.14" y1="97.9" x2="350.86" y2="97.9"/><path class="cls-2" d="M20.59,132.9H10.51l-3.46,8.76H5.14l10-24.9h1.1L26,141.66H24Zm-9.45-1.56H20l-3.37-8.94q-.43-1.05-1-2.91a29,29,0,0,1-1,3Z"/><path class="cls-2" d="M44.57,135.26a6,6,0,0,1-2.28,4.92A9.46,9.46,0,0,1,36.22,142a18.94,18.94,0,0,1-7-1v-1.73a17.63,17.63,0,0,0,6.84,1.14,7.67,7.67,0,0,0,4.84-1.4,4.45,4.45,0,0,0,1.79-3.67,4.26,4.26,0,0,0-.59-2.33,5.4,5.4,0,0,0-1.94-1.69,23.65,23.65,0,0,0-3.93-1.65A13.54,13.54,0,0,1,31,126.84a6,6,0,0,1,.73-8.58,8.65,8.65,0,0,1,5.6-1.76,16.31,16.31,0,0,1,6.57,1.33l-.63,1.49a15.32,15.32,0,0,0-5.9-1.29A6.93,6.93,0,0,0,33,119.3a4.17,4.17,0,0,0-1.63,3.46,4.58,4.58,0,0,0,.5,2.26,4.71,4.71,0,0,0,1.64,1.58,22.82,22.82,0,0,0,3.9,1.69,20.86,20.86,0,0,1,4.36,1.94,6.29,6.29,0,0,1,2.13,2.14A5.8,5.8,0,0,1,44.57,135.26Z"/><path class="cls-2" d="M64.89,135.26a6,6,0,0,1-2.28,4.92A9.5,9.5,0,0,1,56.54,142a18.94,18.94,0,0,1-7-1v-1.73a17.63,17.63,0,0,0,6.84,1.14,7.67,7.67,0,0,0,4.84-1.4A4.45,4.45,0,0,0,63,135.33a4.18,4.18,0,0,0-.6-2.33,5.36,5.36,0,0,0-1.93-1.69,23.65,23.65,0,0,0-3.93-1.65,13.39,13.39,0,0,1-5.25-2.82,5.6,5.6,0,0,1-1.45-4,5.53,5.53,0,0,1,2.18-4.53,8.65,8.65,0,0,1,5.6-1.76,16.31,16.31,0,0,1,6.57,1.33l-.63,1.49A15.32,15.32,0,0,0,57.7,118a6.91,6.91,0,0,0-4.38,1.27,4.15,4.15,0,0,0-1.63,3.46,4.58,4.58,0,0,0,.5,2.26,4.71,4.71,0,0,0,1.64,1.58,22.82,22.82,0,0,0,3.9,1.69,21.11,21.11,0,0,1,4.36,1.94,6.29,6.29,0,0,1,2.13,2.14A5.91,5.91,0,0,1,64.89,135.26Z"/><path class="cls-2" d="M92.36,129.22q0,5.91-3,9.34A10.16,10.16,0,0,1,81.27,142a10.12,10.12,0,0,1-8.12-3.43q-3-3.44-3-9.37t3-9.32a10.25,10.25,0,0,1,8.13-3.4,10.15,10.15,0,0,1,8.13,3.42C91.38,122.16,92.36,125.28,92.36,129.22Zm-20.28,0q0,5.33,2.37,8.24a8.31,8.31,0,0,0,6.82,2.91,8.3,8.3,0,0,0,6.84-2.89q2.37-2.88,2.37-8.26T88.11,121a8.33,8.33,0,0,0-6.81-2.85A8.38,8.38,0,0,0,74.48,121Q72.08,123.91,72.08,129.22Z"/><path class="cls-2" d="M110,118.06a9.37,9.37,0,0,0-7.35,3q-2.68,3-2.68,8.17t2.53,8.25a9,9,0,0,0,7.22,2.93,19.71,19.71,0,0,0,5.74-.8v1.53a18.65,18.65,0,0,1-6.14.86,10.44,10.44,0,0,1-8.23-3.37q-3-3.37-3-9.43a14.91,14.91,0,0,1,1.43-6.67,10.44,10.44,0,0,1,4.12-4.45,12.26,12.26,0,0,1,6.25-1.57,15.08,15.08,0,0,1,6.5,1.36l-.7,1.56A12.48,12.48,0,0,0,110,118.06Z"/><path class="cls-2" d="M122.41,141.66v-24.8h1.73v24.8Z"/><path class="cls-2" d="M144.5,132.9H134.42L131,141.66H129l10-24.9h1.1l9.77,24.9h-1.95Zm-9.45-1.56h8.87l-3.38-8.94c-.28-.7-.62-1.67-1-2.91a29,29,0,0,1-1,3Z"/><path class="cls-2" d="M161.25,141.66H159.5V118.49h-8.05v-1.63h17.86v1.63h-8.06Z"/><path class="cls-2" d="M187.93,141.66H174.38v-24.8h13.55v1.59H176.11v9.38h11.16v1.6H176.11v10.63h11.82Z"/><path class="cls-2" d="M216.25,141.66,207,118.76h-.14c.09,1.4.14,2.84.14,4.31v18.59h-1.66v-24.8H208l8.78,21.81h.1l8.79-21.81h2.61v24.8h-1.74v-18.8c0-1.31.06-2.67.2-4.07h-.14l-9.27,22.87Z"/><path class="cls-2" d="M250.26,141.66H236.71v-24.8h13.55v1.59H238.44v9.38H249.6v1.6H238.44v10.63h11.82Z"/><path class="cls-2" d="M268.17,141.66l-9.25-22.9h-.13c.09,1.4.13,2.84.13,4.31v18.59h-1.66v-24.8h2.68l8.79,21.81h.1l8.78-21.81h2.62v24.8h-1.75v-18.8c0-1.31.07-2.67.2-4.07h-.13l-9.28,22.87Z"/><path class="cls-2" d="M288.62,116.86h6.8q4.6,0,6.75,1.56a5.43,5.43,0,0,1,2.16,4.71,5.08,5.08,0,0,1-1.32,3.59,6.39,6.39,0,0,1-3.84,1.84v.1a7.52,7.52,0,0,1,4.37,1.88,5.46,5.46,0,0,1,1.4,4,6.41,6.41,0,0,1-2.28,5.28,10,10,0,0,1-6.44,1.85h-7.6Zm1.73,11h5.46a8.75,8.75,0,0,0,5.08-1.16,4.22,4.22,0,0,0,1.59-3.64,3.94,3.94,0,0,0-1.79-3.6,10.26,10.26,0,0,0-5.34-1.12h-5Zm0,1.53v10.7h5.83q6.9,0,6.89-5.6,0-5.1-7.26-5.1Z"/><path class="cls-2" d="M325.34,141.66H311.79v-24.8h13.55v1.59H313.52v9.38h11.16v1.6H313.52v10.63h11.82Z"/><path class="cls-2" d="M334.07,130.85v10.81h-1.73v-24.8h5.91q4.61,0,6.81,1.7a6.09,6.09,0,0,1,2.21,5.13A6.68,6.68,0,0,1,346,127.9a7.29,7.29,0,0,1-4,2.46l6.73,11.3h-2.07l-6.39-10.81Zm0-1.49h4.73a7.55,7.55,0,0,0,4.87-1.4,5,5,0,0,0,1.73-4.13,4.84,4.84,0,0,0-1.69-4.12c-1.13-.86-3-1.29-5.53-1.29h-4.11Z"/><polygon class="cls-2" points="13.62 69.34 13.62 52.41 5.14 52.41 5.14 77.82 30.54 77.82 30.54 69.34 13.62 69.34"/><polygon class="cls-3" points="47.46 35.44 5.14 35.44 5.14 48.14 13.57 48.14 13.57 43.98 39.03 43.98 39.03 69.34 34.76 69.34 34.76 77.82 47.46 77.82 47.46 35.44"/><polygon class="cls-3" points="58.68 35.95 71.61 35.95 71.61 67.11 90.13 67.11 90.13 77.82 58.68 77.82 58.68 35.95"/><polygon class="cls-3" points="95.65 35.95 128.01 35.95 128.01 46.66 108.53 46.66 108.53 51.9 125.22 51.9 125.22 61.87 108.53 61.87 108.53 77.82 95.6 77.82 95.6 35.95 95.65 35.95"/><polygon class="cls-2" points="161.34 78.05 137.92 78.05 137.92 35.84 161.34 35.84 161.34 38.57 140.94 38.57 140.94 54.52 160.2 54.52 160.2 57.26 140.94 57.26 140.94 75.37 161.34 75.37 161.34 78.05"/><path class="cls-2" d="M202.12,78.05h-3L173.75,40.57h-.22c.22,4.44.34,7.8.34,10.08V78H171V35.84h3l25.35,37.42h.17c-.17-3.47-.29-6.77-.29-9.85V35.84h2.91V78.05Z"/><polygon class="cls-2" points="237.67 78.05 214.26 78.05 214.26 35.84 237.67 35.84 237.67 38.57 217.28 38.57 217.28 54.52 236.53 54.52 236.53 57.26 217.28 57.26 217.28 75.37 237.67 75.37 237.67 78.05"/><path class="cls-2" d="M250.32,59.65v18.4h-3V35.84h10.2q7.95,0,11.8,2.9c2.56,1.94,3.81,4.85,3.81,8.72a11.21,11.21,0,0,1-2.27,7.18A12.49,12.49,0,0,1,264,58.8L275.61,78H272L260.91,59.59H250.32Zm0-2.51h8.14c3.6,0,6.44-.79,8.38-2.39s3-3.93,3-7-1-5.52-2.9-7-5.13-2.22-9.57-2.22h-7V57.14Z"/><path class="cls-2" d="M299.37,56.29H314.8v18.8a34.77,34.77,0,0,1-13.67,2.56c-6.61,0-11.68-1.82-15.15-5.52s-5.3-8.89-5.3-15.61a23,23,0,0,1,2.62-11.17,18.35,18.35,0,0,1,7.52-7.52A23.26,23.26,0,0,1,302,35.15a29.56,29.56,0,0,1,12.31,2.51l-1.2,2.62a27.12,27.12,0,0,0-11.28-2.51c-5.53,0-9.91,1.66-13.1,5s-4.84,7.86-4.84,13.55q0,9.31,4.61,14c3.08,3.13,7.57,4.66,13.56,4.66a26.14,26.14,0,0,0,9.79-1.59V59H299.42V56.29Z"/><polygon class="cls-2" points="335.2 58.8 347.68 35.84 350.86 35.84 336.68 61.59 336.68 77.82 333.6 77.82 333.6 61.82 319.36 35.84 322.78 35.84 335.2 58.8"/></svg>