<?xml version="1.0" encoding="UTF-8"?>
<svg id="Layer_1" xmlns="http://www.w3.org/2000/svg" width="800" height="800" version="1.1" viewBox="0 0 800 800">
  <!-- Generator: Adobe Illustrator 29.0.0, SVG Export Plug-In . SVG Version: 2.1.0 Build 186)  -->
  <ellipse cx="400" cy="78.9" rx="78.6" ry="78.9"/>
  <ellipse cx="141.5" cy="240.1" rx="78.6" ry="78.9"/>
  <ellipse cx="651.5" cy="240.1" rx="78.6" ry="78.9"/>
  <polygon points="367.7 694.9 543.7 464.6 400 276.5 0 800 109.8 800 278.9 578.7 367.7 694.9"/>
  <polygon points="796.7 800 547.5 470.5 372.1 702.3 446 800 796.7 800"/>
  <polygon points="298.8 800 436.6 800 367.7 709.3 298.8 800"/>
  <polygon points="278.9 592.3 121.2 800 290 800 363.3 703.5 278.9 592.3"/>
  <polygon points="367.7 709.3 363.3 703.5 290 800 298.8 800 367.7 709.3"/>
</svg>