<?xml version="1.0" encoding="UTF-8"?>
<svg id="Layer_1" data-name="Layer 1" xmlns="http://www.w3.org/2000/svg" viewBox="0 0 413.14 500">
  <path d="M413.14,251c0-113.9-92.67-206.57-206.57-206.57S0,137.09,0,251c0,64.24,29.48,121.71,75.61,159.63l12.2-26.6c-36.59-32.7-59.68-80.21-59.68-133.03,0-98.39,80.05-178.44,178.44-178.44s178.44,80.05,178.44,178.44c0,52.82-23.09,100.33-59.68,133.03l12.2,26.6c46.13-37.92,75.61-95.39,75.61-159.63Z"/>
  <g>
    <g>
      <polygon points="113.42 251.57 113.42 179.65 299.73 179.65 299.73 251.93 286.39 250 286.39 192.99 126.75 192.99 126.75 251.57 113.42 251.57"/>
      <polygon points="232.1 275.45 178.21 275.45 143.21 142.85 156.24 139.94 188.49 262.12 222.03 262.12 256.36 141.49 269.6 143.7 232.1 275.45"/>
      <polygon points="142.6 422.37 177.43 262.12 231.98 262.12 264.01 421.01 251.28 425.35 221.07 275.45 188.19 275.45 155.78 424.54 142.6 422.37"/>
    </g>
    <rect x="195.49" y="181.17" width="6.67" height="96.72" transform="translate(-96.62 159.34) rotate(-35.74)"/>
    <polygon points="252.31 426.04 182.97 274.48 189.04 271.7 258.51 423.58 252.31 426.04"/>
    <rect x="163.77" y="226.2" width="98.3" height="6.67" transform="translate(-98.52 261.54) rotate(-53.02)"/>
    <polygon points="148.13 421.12 219.99 271.64 226 274.53 154.43 423.4 148.13 421.12"/>
    <path d="M145.24,147.26c-10.39,0-18.85-8.46-18.85-18.85s8.46-18.85,18.85-18.85,18.85,8.46,18.85,18.85-8.46,18.85-18.85,18.85ZM145.24,116.23c-6.72,0-12.18,5.46-12.18,12.18s5.46,12.18,12.18,12.18,12.18-5.46,12.18-12.18-5.46-12.18-12.18-12.18Z"/>
    <path d="M264.64,147.26c-10.39,0-18.85-8.46-18.85-18.85s8.46-18.85,18.85-18.85,18.85,8.46,18.85,18.85-8.46,18.85-18.85,18.85ZM264.64,116.23c-6.72,0-12.18,5.46-12.18,12.18s5.46,12.18,12.18,12.18,12.18-5.46,12.18-12.18-5.46-12.18-12.18-12.18Z"/>
    <path d="M120.31,283.82c-10.39,0-18.85-8.46-18.85-18.85s8.46-18.85,18.85-18.85,18.85,8.46,18.85,18.85-8.46,18.85-18.85,18.85ZM120.31,252.79c-6.72,0-12.18,5.46-12.18,12.18s5.46,12.18,12.18,12.18,12.18-5.46,12.18-12.18-5.46-12.18-12.18-12.18Z"/>
    <path d="M293.06,283.82c-10.39,0-18.85-8.46-18.85-18.85s8.46-18.85,18.85-18.85,18.85,8.46,18.85,18.85-8.46,18.85-18.85,18.85ZM293.06,252.79c-6.72,0-12.18,5.46-12.18,12.18s5.46,12.18,12.18,12.18,12.18-5.46,12.18-12.18-5.46-12.18-12.18-12.18Z"/>
    <path d="M147.45,455.57c-10.39,0-18.85-8.46-18.85-18.85s8.46-18.85,18.85-18.85,18.85,8.46,18.85,18.85-8.45,18.85-18.85,18.85ZM147.45,424.54c-6.72,0-12.18,5.46-12.18,12.18s5.46,12.18,12.18,12.18,12.18-5.46,12.18-12.18-5.46-12.18-12.18-12.18Z"/>
    <path d="M262.69,455.57c-10.39,0-18.85-8.46-18.85-18.85s8.46-18.85,18.85-18.85,18.85,8.46,18.85,18.85-8.45,18.85-18.85,18.85ZM262.69,424.54c-6.72,0-12.18,5.46-12.18,12.18s5.46,12.18,12.18,12.18,12.18-5.46,12.18-12.18-5.46-12.18-12.18-12.18Z"/>
  </g>
</svg>