<?xml version="1.0" encoding="UTF-8"?>
<svg id="Layer_1" data-name="Layer 1" xmlns="http://www.w3.org/2000/svg" viewBox="0 0 410 500">
  <defs>
    <style>
      .cls-1 {
        fill-rule: evenodd;
      }
    </style>
  </defs>
  <path class="cls-1" d="M66.43,297.4c-5.95-2.61-12.39-3.95-18.89-3.94-26.21-.03-47.48,21.2-47.51,47.41-.03,26.21,21.2,47.48,47.41,47.51,15.07.02,29.25-7.13,38.21-19.24l75.84,43.78c-10.44,24.03.58,51.98,24.61,62.42,24.03,10.44,51.98-.58,62.42-24.61,5.24-12.06,5.24-25.75,0-37.81l75.84-43.78c15.58,21.08,45.3,25.54,66.38,9.96,21.08-15.58,25.54-45.3,9.96-66.38-13.15-17.79-36.84-24.14-57.12-15.31l-27.38-47.41,27.38-47.4c5.95,2.61,12.39,3.95,18.89,3.95,26.21.03,47.48-21.2,47.51-47.41.03-26.21-21.2-47.48-47.41-47.51-15.07-.02-29.25,7.13-38.21,19.24l-75.84-43.78c10.44-24.03-.58-51.98-24.61-62.42-24.03-10.44-51.98.58-62.42,24.61-5.24,12.06-5.24,25.75,0,37.81l-75.84,43.78c-15.58-21.09-45.3-25.55-66.39-9.97-21.09,15.58-25.55,45.3-9.97,66.39,13.15,17.8,36.85,24.15,57.13,15.31l27.38,47.4-27.38,47.4h0ZM100.02,260.75l18.93,32.74-33.29,19.21c-2.79-3.77-6.12-7.11-9.89-9.91l24.25-42.04ZM205.01,115.63c6.51,0,12.96-1.34,18.93-3.95l52.47,90.9-33.29,19.21c-15.53-21.05-45.18-25.52-66.23-9.99-3.81,2.81-7.18,6.18-9.99,9.99l-33.29-19.21,52.47-90.9c5.97,2.6,12.42,3.94,18.93,3.94h0ZM205.01,384.37c-6.51,0-12.96,1.34-18.93,3.95l-52.47-90.9,33.29-19.21c15.53,21.05,45.18,25.52,66.23,9.99,3.81-2.81,7.18-6.18,9.99-9.99l33.29,19.21-52.48,90.9c-5.97-2.61-12.42-3.95-18.93-3.95ZM248.52,268.91c5.24-12.07,5.24-25.77,0-37.83l33.25-19.2,22.01,38.12-22.01,38.12-33.25-19.2h0ZM161.49,231.08c-5.24,12.07-5.24,25.77,0,37.83l-33.25,19.2-22.01-38.12,22.01-38.12,33.25,19.2h0ZM91.06,359.83c5.24-12.07,5.24-25.77,0-37.83l33.25-19.2,52.47,90.9c-3.77,2.8-7.1,6.14-9.89,9.91l-75.84-43.78ZM243.12,403.61c-2.79-3.77-6.12-7.11-9.89-9.91l52.48-90.9,33.25,19.2c-5.24,12.07-5.24,25.77,0,37.83l-75.84,43.78ZM334.25,302.79c-3.77,2.8-7.1,6.14-9.89,9.91l-33.29-19.2,18.93-32.75,24.25,42.04ZM310,239.25l-18.93-32.74,33.29-19.2c2.79,3.77,6.12,7.11,9.89,9.91l-24.25,42.04ZM318.95,140.17c-5.24,12.07-5.24,25.76,0,37.83l-33.25,19.2-52.48-90.9c3.77-2.8,7.1-6.14,9.89-9.91l75.84,43.78h0ZM166.9,96.38c2.79,3.77,6.12,7.11,9.89,9.91l-52.47,90.9-33.25-19.2c5.24-12.07,5.24-25.76,0-37.83l75.84-43.78ZM75.77,197.21c3.77-2.8,7.1-6.14,9.89-9.91l33.29,19.21-18.93,32.74-24.25-42.04Z"/>
</svg>