<?xml version="1.0" encoding="UTF-8"?>
<svg id="Layer_1" data-name="Layer 1" xmlns="http://www.w3.org/2000/svg" viewBox="0 0 980 293.535">
  <defs>
    <style>
      .cls-1 {
        fill: none;
      }

      .cls-2 {
        opacity: .8;
      }
    </style>
  </defs>
  <polygon class="cls-2" points="386.4302143 64.7423213 360.7450356 64.7423213 360.7450356 38.8275395 347.6727528 38.8275395 347.6727528 77.5849408 386.4302143 77.5849408 386.4302143 64.7423213"/>
  <polygon points="360.5156128 25.755377 399.5027376 25.755377 399.5027376 64.7424416 393.0808865 64.7424416 393.0808865 77.5850611 412.345357 77.5850611 412.345357 12.9127576 347.6729934 12.9127576 347.6729934 32.1771679 360.5156128 32.1771679 360.5156128 25.755377"/>
  <polygon points="477.4763255 61.0734827 449.2680984 61.0734827 449.2680984 13.6009054 429.5454442 13.6009054 429.5454442 77.3556383 477.4763255 77.3556383 477.4763255 61.0734827"/>
  <polygon points="505.684312 53.046214 531.1409101 53.046214 531.1409101 37.9103298 505.684312 37.9103298 505.684312 29.8840235 535.4980169 29.8840235 535.4980169 13.6009054 485.9616577 13.6009054 485.9616577 77.3556383 505.684312 77.3556383 505.684312 53.046214"/>
  <polygon points="586.1808881 73.4572567 554.9913687 73.4572567 554.9913687 45.936997 584.345747 45.936997 584.345747 41.8084708 554.9913687 41.8084708 554.9913687 17.4991668 586.1808881 17.4991668 586.1808881 13.371603 550.4046588 13.371603 550.4046588 77.8143635 586.1808881 77.8143635 586.1808881 73.4572567"/>
  <path d="M605.2156351,36.0756699c0-3.4404986,0-8.485633-.4582439-15.3656678h.4582439l38.7574615,57.1043614h4.5867701V13.371603h-4.3571068V55.3400802c0,4.8153507,.2286407,9.8613271,.4582439,15.1360045h-.2296032l-38.7574615-57.1044817h-4.5867099V77.8143635h4.1284059V36.0756699Z"/>
  <polygon points="702.6826952 73.4572567 671.4931758 73.4572567 671.4931758 45.936997 700.8475541 45.936997 700.8475541 41.8084708 671.4931758 41.8084708 671.4931758 17.4991668 702.6826952 17.4991668 702.6826952 13.371603 666.9064659 13.371603 666.9064659 77.8143635 702.6826952 77.8143635 702.6826952 73.4572567"/>
  <path d="M742.8163317,48.4599296c4.8153687-1.3757324,8.2558594-3.4404297,10.5492554-6.421875,2.293335-2.9812012,3.4395142-6.6503906,3.4395142-11.0075684,0-5.9633789-1.8340454-10.3205566-5.7329102-13.3017578-3.8988037-2.9814453-9.8613281-4.3571777-17.8886108-4.3571777h-15.5942383V77.8141777h4.586792v-27.9785156h16.0534668l16.7414551,27.9785156h5.5042114l-17.6589355-29.354248Zm-8.2559204-2.5231934h-12.3842773V17.2704765h10.7788086c6.880127,0,11.6964722,1.1462402,14.6776733,3.4394531,2.9813232,2.2932129,4.3571167,5.9626465,4.3571167,10.7790527,0,4.8161621-1.6054688,8.2558594-4.5866699,10.7788086-2.9813232,2.5219727-7.3393555,3.6689453-12.8426514,3.6689453Z"/>
  <path d="M799.6907895,77.3556383c7.7976054,0,14.6776403-1.3758145,20.8697679-3.8988629v-28.6665311h-23.3917936v3.6691995h19.0348072v22.2457027c-4.1285262,1.6053575-8.9448393,2.5230484-14.9073637,2.5230484-9.1734199,0-16.0535149-2.2935054-20.6402248-7.1098185-4.8153507-4.8163131-7.1087357-11.9250489-7.1087357-21.3281321,0-8.4855127,2.5220258-15.3655475,7.3383991-20.6402248,4.8163131-5.2746773,11.4667448-7.7976054,19.9523176-7.7976054,5.9625244,0,11.6954457,1.3768972,17.199666,3.8987426l1.8350208-3.8987426c-5.5042204-2.5219656-11.9260113-3.8977801-18.8050837-3.8977801-6.4217909,0-12.1547122,1.3758145-17.2006886,4.1274434-5.045014,2.751629-8.7141534,6.4217909-11.4668049,11.4668049-2.5219656,4.8163131-3.8988027,10.5492344-3.8988027,16.9710253,0,10.319571,2.7526516,18.1172968,8.0272687,23.8500977,5.2746172,5.734004,13.0722226,8.485633,23.1622506,8.485633Z"/>
  <polygon points="849.2273291 77.3556383 853.8139789 77.3556383 853.8139789 52.5880904 875.3717743 13.3713624 870.5554612 13.3713624 851.5207142 48.4595642 832.7155102 13.3713624 827.4408328 13.3713624 849.2273291 53.0463343 849.2273291 77.3556383"/>
  <g>
    <path d="M390.5705342,112.7478761h33.6841027l43.384661,164.7574671h-27.4583713l-10.1566293-40.3803836h-48.2277009l-10.6127003,40.3803836h-27.4583713l46.8450094-164.7574671Zm35.0740335,103.3760987l-18.9233279-81.2240775h-.4633102l-19.611054,81.2240775h38.9976921Z"/>
    <path d="M484.4994474,112.7478761h58.1526751c23.0714024,0,41.7630752,11.5393208,41.7630752,42.4580405,0,21.2326399-9.4616639,37.6150006-27.4583713,40.3876229v.456071c16.3823607,1.6143466,24.9246434,10.6199395,25.8440247,33.691342,.2316551,10.6127003,.4633102,23.5347127,.9266205,33.4596868,.456071,8.0789724,4.3797297,11.9953918,7.8400781,14.3047039h-29.7604441c-2.5409671-2.9970382-3.6920035-8.0717332-4.3869689-14.536359-.9266205-9.9249742-.6949654-19.154983-1.1510364-31.1503748-.4633102-17.9967074-6.0013155-25.8440247-23.9980229-25.8440247h-21.464295v71.5307585h-26.3073349V112.7478761Zm47.3083197,73.3839995c16.845671,0,26.3073349-10.1566293,26.3073349-26.7706452,0-17.5333971-7.6156622-26.7634059-24.9246434-26.7634059h-22.3836763v53.5340511h21.0009848Z"/>
    <path d="M610.8600778,112.7478761h58.1454359c23.0786416,0,41.7703144,11.5393208,41.7703144,42.4580405,0,21.2326399-9.4616639,37.6150006-27.4583713,40.3876229v.456071c16.3823607,1.6143466,24.9174042,10.6199395,25.8440247,33.691342,.2316551,10.6127003,.456071,23.5347127,.9193813,33.4596868,.4633102,8.0789724,4.3869689,11.9953918,7.8473173,14.3047039h-29.7676833c-2.5409671-2.9970382-3.6920035-8.0717332-4.3869689-14.536359-.9193813-9.9249742-.6877261-19.154983-1.1510364-31.1503748-.4633102-17.9967074-6.0013155-25.8440247-23.9980229-25.8440247h-21.4570558v71.5307585h-26.3073349V112.7478761Zm47.3010804,73.3839995c16.845671,0,26.3073349-10.1566293,26.3073349-26.7706452,0-17.5333971-7.6156622-26.7634059-24.9174042-26.7634059h-22.3836763v53.5340511h20.9937455Z"/>
    <path d="M776.9929972,112.7478761h33.691342l43.3774218,164.7574671h-27.4583713l-10.1493901-40.3803836h-48.2277009l-10.6127003,40.3803836h-27.4656105l46.8450094-164.7574671Zm35.0740335,103.3760987l-18.9233279-81.2240775h-.456071l-19.6182932,81.2240775h38.9976921Z"/>
    <path d="M889.8741951,226.5122592v4.1553138c0,20.0743643,8.7739378,30.2237543,27.0023003,30.2237543,16.6140159,0,24.9174042-11.7637367,24.9174042-23.9980229,0-17.301742-8.7666986-24.9174042-23.5347127-29.3043731l-17.9967074-6.2329707c-23.9980229-9.2300088-34.3863073-21.6887109-34.3863073-45.2234236,0-29.9993384,20.3060194-46.6133543,51.2319783-46.6133543,42.2263854,0,46.6061151,26.3073349,46.6061151,43.384661v3.6920035h-26.3000957v-3.4603484c0-14.9996692-6.6962809-23.773607-23.0786416-23.773607-11.3076657,0-22.1520211,6.2329707-22.1520211,23.773607,0,14.0730487,7.1523519,21.2254007,24.6929883,27.9144423l17.7650523,6.4646258c23.3102968,8.3033883,33.4596868,21.0009848,33.4596868,43.6090769,0,35.0740335-21.2254007,49.6103925-54.4534324,49.6103925-40.8436939,0-50.0737027-27.2267162-50.0737027-50.2981186v-3.9236586h26.3000957Z"/>
  </g>
  <g>
    <path class="cls-1" d="M77.0679796,91.0168144h-18.6812134c-1.1151123,7.3461914-6.7622681,13.2192383-14.0036621,14.644043v17.5292969c7.210144,1.418457,12.8396606,7.2470703,13.9890747,14.548584h18.6933594l.0024414-46.7219238Z"/>
    <path class="cls-1" d="M111.7626818,84.1908867h19.2008667c1.618042-6.621582,6.9697266-11.791748,13.6992798-13.1181641v-18.4841309l-46.7252197-.0024414v18.4597168c6.7797852,1.276123,12.2028198,6.4343262,13.8250732,13.1450195Z"/>
    <path class="cls-1" d="M77.0679186,144.5646659h-18.9562378c-1.5899658,6.668457-6.9644165,11.8806152-13.7285767,13.2116699v18.8183594c7.2577515,1.4138184,12.9093628,7.2634277,14.0001221,14.6950684h18.682312l.0023804-46.7250977Z"/>
    <path class="cls-1" d="M218.9036119,191.2897636h18.8522949c1.0997925-7.3630371,6.7510986-13.2558594,14.0025635-14.6862793v-18.5249023l-46.7218628-.0024414v18.5476074c7.1881714,1.4753418,12.7741699,7.3474121,13.8670044,14.6660156Z"/>
    <path class="cls-1" d="M184.3889025,198.1159355h-19.2139282c-1.6298218,6.6010742-6.9710693,11.7512207-13.6862183,13.0744629v18.5244141l46.7218628,.0024414v-18.5061035c-6.77771-1.2807617-12.1810913-6.4501953-13.8217163-13.0952148Z"/>
    <path class="cls-1" d="M205.0366075,211.1696464v18.8876953c7.2582397,1.5012207,12.8468628,7.420166,13.8876343,14.7802734h18.8109131c1.0499268-7.4265137,6.7272339-13.3828125,14.0233154-14.8220215v-18.8254395c-6.7143555-1.3242188-12.0559082-6.473877-13.6860352-13.0742188h-19.4852905c-1.6189575,6.5571289-6.8980103,11.6889648-13.5505371,13.0537109Z"/>
    <path class="cls-1" d="M77.5587633,198.1159355h-18.9884644l-.0024414,46.7216797h18.6535034c1.0308838-7.3498535,6.5669556-13.3068848,13.8903198-14.7929688v-18.8813477c-6.6350708-1.3498535-11.9359131-6.4106445-13.5529175-13.0473633Z"/>
    <path class="cls-1" d="M165.1855944,84.1908867h18.8439941l.0024414-46.7285156h-18.5205078c-1.0505371,7.3654785-6.7022705,13.34375-14.0227661,14.7873535v18.822998c6.729248,1.326416,12.0792236,6.496582,13.6968384,13.1181641Z"/>
    <path class="cls-1" d="M130.9741686,198.1159355h-19.2110596c-1.6393433,6.7282715-7.0623169,11.8447266-13.8255005,13.1088867v18.4899902l46.7252197,.0024414v-18.5268555c-6.7155151-1.3232422-12.0583496-6.4733887-13.6886597-13.0744629Z"/>
    <path class="cls-1" d="M91.1116808,71.0973808v-18.5087891l-46.7285767-.0024414v18.4858398c6.7318115,1.3249512,12.0855713,6.4958496,13.7040405,13.1188965h19.4733887c1.5982056-6.621582,6.8977661-11.7321777,13.5511475-13.0935059Z"/>
    <path class="cls-1" d="M251.7584703,71.0729667v-18.8256836c-7.2838745-1.4367676-12.9539795-7.3757324-14.0176392-14.7849121h-18.5231323l-.0023804,46.7285156h18.8464966c1.6178589-6.6208496,6.9682617-11.7905273,13.6966553-13.1179199Z"/>
    <path class="cls-1" d="M184.2129381,91.0168144h-18.7278442c-1.114563,7.3444824-6.7576294,13.2167969-13.9963379,14.6433105v17.2275391l46.7218628,.0024414v-17.2299805c-7.2400513-1.4265137-12.8829956-7.2988281-13.9976807-14.6433105Z"/>
    <path class="cls-1" d="M130.6639269,91.0168144h-18.4075317l-.0024414,46.7219238h18.4238892c1.1507568-7.2399902,6.7545166-13.0881348,13.9849854-14.5129395v-17.5656738c-7.2391357-1.4265137-12.8840332-7.2988281-13.9989014-14.6433105Z"/>
    <path class="cls-1" d="M237.7621935,91.0168144h-18.7509766c-1.1430664,7.3840332-6.7670288,13.222168-13.9746094,14.6433105v17.2275391l46.7218628,.0024414v-17.2304688c-7.237915-1.4272461-12.8815308-7.2990723-13.9962769-14.6428223Z"/>
    <path class="cls-1" d="M165.4914415,191.2897636h18.5809937c1.1063232-7.4091797,6.8219604-13.3242188,14.1381836-14.7075195v-18.5036621l-46.7218628-.0024414v18.5268555c7.2522583,1.4296875,12.9030762,7.3227539,14.0026855,14.6867676Z"/>
    <path class="cls-1" d="M112.2539537,191.2897636h18.4036865c1.0999146-7.3640137,6.7525635-13.2570801,14.005188-14.6867676v-18.8625488c-6.7792969-1.3359375-12.1271362-6.5603027-13.7181396-13.1757812h-18.6883545l-.0023804,46.7250977Z"/>
    <path class="cls-2" d="M77.221361,244.8376152h-18.6535034l-.000061,1.6940918s.02948,.6604004,.02948,.6657715c0,1.5473633-.2156982,3.0380859-.5826416,4.4663086h19.572998c-.3539429-1.3964844-.5571289-2.8515625-.5571289-4.3535156,0-.840332,.0771484-1.6621094,.1908569-2.4726562Z"/>
    <path class="cls-2" d="M23.3820055,246.7355644l.0001221-1.8979492H10.766588c-1.8864746,0-3.4129639,1.5266113-3.4129639,3.4130859s1.5264893,3.4130859,3.4129639,3.4130859h13.144104c-.3544922-1.3879395-.5641479-2.8330078-.5662231-4.3293457l.0375366-.598877Z"/>
    <path class="cls-2" d="M237.7351549,244.8376152h-18.8109131c.114563,.8103027,.1942139,1.6313477,.1942139,2.4726562,0,1.5048828-.2098389,2.9580078-.5662231,4.3535156h19.5551758c-.3565063-1.3955078-.5664673-2.8486328-.5664673-4.3535156,0-.8413086,.0797119-1.6623535,.1942139-2.4726562Z"/>
    <path class="cls-2" d="M272.2382677,251.663787h13.1400757c1.8864746,0,3.4129639-1.5266113,3.4129639-3.4130859s-1.5264893-3.4130859-3.4129639-3.4130859h-12.7678833c.114502,.8103027,.1940918,1.6313477,.1940918,2.4726562,0,1.5048828-.2098999,2.9580078-.5662842,4.3535156Z"/>
    <path class="cls-2" d="M77.0681017,141.2616874l-.029541-.6577148,.0268555-.7490234,.0001221-2.1162109h-18.6933594c.1411743,.8967285,.2358398,1.8085938,.2358398,2.7443848,0,1.4069824-.1834106,2.769043-.4963379,4.081543h18.9562378l.0001831-3.3029785Z"/>
    <path class="cls-2" d="M112.2538317,139.7045585l.0322266,.6872559-.029541,.7194824-.0001831,3.4533691h18.6883545c-.3162231-1.3146973-.5020142-2.6772461-.5020142-4.081543,0-.934082,.0925293-1.8469238,.2351685-2.7443848h-18.4238892l-.0001221,1.9658203Z"/>
    <path class="cls-2" d="M23.5801866,137.7387382H10.766588c-1.8864746,0-3.4129639,1.5266113-3.4129639,3.4128418,0,1.8867188,1.5264893,3.4130859,3.4129639,3.4130859h13.0740356c-.3128662-1.3125-.4961548-2.6745605-.4961548-4.081543,0-.935791,.0946045-1.8476562,.2357178-2.7443848Z"/>
    <path class="cls-2" d="M272.3083361,144.5646659h13.0700073c1.8864746,0,3.4129639-1.5263672,3.4129639-3.4130859,0-1.8862305-1.5264893-3.4128418-3.4129639-3.4128418h-12.8096924c.1412354,.8967285,.2359009,1.8085938,.2359009,2.7443848,0,1.4069824-.1833496,2.769043-.4962158,4.081543Z"/>
    <path class="cls-2" d="M77.0681017,89.1462089l-.029541-.6577148,.0429077-.9880371c.0551758-1.1367188,.2213745-2.2419434,.4790649-3.3095703h-19.4733887c.3278809,1.3417969,.520874,2.7355957,.520874,4.1767578,0,.9025879-.0897217,1.7827148-.2212524,2.6491699h18.6812134l.0001221-1.8706055Z"/>
    <path class="cls-2" d="M237.540941,88.3676445c0-1.4411621,.1929932-2.8349609,.520874-4.1767578h-18.8464966l-.0001831,3.3981934s.029541,.6604004,.029541,.6657715c0,.942627-.0938721,1.8603516-.2334595,2.7619629h18.7509766c-.1315308-.8664551-.2212524-1.746582-.2212524-2.6491699Z"/>
    <path class="cls-2" d="M272.5833605,91.0168144h12.7949829c1.8864746,0,3.4129639-1.5263672,3.4129639-3.4128418s-1.5264893-3.4130859-3.4129639-3.4130859h-13.0944824c.3277588,1.3417969,.5206909,2.7355957,.5206909,4.1767578,0,.9025879-.0897217,1.7827148-.2211914,2.6491699Z"/>
    <path class="cls-2" d="M130.9635485,84.1908867h-19.2008667c.2583618,1.0686035,.4248657,2.1745605,.4804077,3.3122559l.0402832,.8188477-.0268555,.6738281-.0001221,2.0209961h18.4075317c-.1315308-.8664551-.2212524-1.746582-.2212524-2.6491699,0-1.4411621,.1929932-2.8349609,.520874-4.1767578Z"/>
    <path class="cls-2" d="M23.8651598,84.1908867H10.766588c-1.8864746,0-3.4129639,1.5266113-3.4129639,3.4130859s1.5264893,3.4128418,3.4129639,3.4128418h12.7990723c-.1314697-.8664551-.2211914-1.746582-.2211914-2.6491699,0-1.4411621,.1929321-2.8349609,.5206909-4.1767578Z"/>
    <path class="cls-2" d="M165.7062853,88.3676445c0,.9025879-.0897217,1.7827148-.2211914,2.6491699h18.7278442c-.1303101-.8586426-.2199097-1.7307129-.2211304-2.625l.0375977-.5986328,.0001831-3.6022949h-18.8439941c.3277588,1.3417969,.5206909,2.7355957,.5206909,4.1767578Z"/>
    <path class="cls-2" d="M219.2446764,34.8266288l-.0268555,.7006836-.0001221,1.9350586h18.5231323c-.117981-.8220215-.1998901-1.6555176-.1998901-2.5095215,0-1.4914551,.2064819-2.932373,.5568848-4.3164062h-19.4055786c.2885132,1.1577148,.4703369,2.3596191,.5202026,3.5996094l.0322266,.5905762Z"/>
    <path class="cls-2" d="M165.5115221,37.462371h18.5205078l.000061-1.730957-.029541-.6472168,.029541-1.046875c.0482178-1.166748,.2132568-2.3037109,.4824219-3.4008789h-19.3780518c.3604736,1.3984375,.5698242,2.854248,.5698242,4.3564453,0,.8391113-.0792236,1.659668-.1947632,2.4694824Z"/>
    <path class="cls-2" d="M272.6047838,37.462371h12.7735596c1.8864746,0,3.4129639-1.5266113,3.4129639-3.4128418,0-1.8867188-1.5264893-3.4130859-3.4129639-3.4130859h-13.1304932c.3503418,1.3840332,.5567017,2.8249512,.5567017,4.3164062,0,.8540039-.0817871,1.6875-.1997681,2.5095215Z"/>
    <path class="cls-2" d="M23.9114855,30.6364433H10.766588c-1.8864746,0-3.4129639,1.5263672-3.4129639,3.4130859,0,1.8862305,1.5264893,3.4128418,3.4129639,3.4128418h12.7716064c-.1142578-.809082-.1937256-1.6291504-.1937256-2.4694824,0-1.5058594,.210144-2.9599609,.5670166-4.3564453Z"/>
    <path class="cls-2" d="M23.3552111,194.0241386l.02948-1.0444336c.0236206-.5708008,.076355-1.1342773,.1541748-1.6899414H10.766588c-1.8864746,0-3.4129639,1.5266113-3.4129639,3.4130859s1.5264893,3.4130859,3.4129639,3.4130859h12.6179199l.0001831-3.4418945-.02948-.6499023Z"/>
    <path class="cls-2" d="M219.1184557,193.898162c0,1.4558105-.1969604,2.8635254-.531311,4.2177734h19.4852905c-.3344727-1.354248-.5314941-2.7619629-.5314941-4.2177734,0-.8884277,.0874634-1.7548828,.2149658-2.6083984h-18.8522949c.1274414,.8535156,.2148438,1.7199707,.2148438,2.6083984Z"/>
    <path class="cls-2" d="M272.2732408,198.1159355h13.1051025c1.8864746,0,3.4129639-1.5266113,3.4129639-3.4130859s-1.5264893-3.4130859-3.4129639-3.4130859h-12.7886353c.1274414,.8535156,.2148438,1.7199707,.2148438,2.6083984,0,1.4558105-.1969604,2.8635254-.531311,4.2177734Z"/>
    <path class="cls-2" d="M77.1351793,195.7880546l-.0670776-.6254883v-.4885254l-.0375977-.7651367,.0349121-.6364746,.0001221-1.982666h-18.682312c.0910034,.619873,.1561279,1.2485352,.1818848,1.8886719l.0321655,.5878906-.0267944,.7036133-.0001831,3.6459961h18.9884644c-.1849365-.7590332-.3389282-1.5310059-.423584-2.3278809Z"/>
    <path class="cls-2" d="M165.1749742,198.1159355h19.2139282c-.3343506-1.354248-.531311-2.7619629-.531311-4.2177734,0-.8884277,.0874023-1.7548828,.2148438-2.6083984h-18.5809937c.1274414,.8535156,.2148438,1.7199707,.2148438,2.6083984,0,1.4558105-.1969604,2.8635254-.531311,4.2177734Z"/>
    <path class="cls-2" d="M112.2860582,193.8039238l-.029541,.717041-.0026855,.7329102-.0671387,.5341797c-.0846558,.796875-.2386475,1.5688477-.423584,2.3278809h19.2110596c-.3344727-1.354248-.5314941-2.7619629-.5314941-4.2177734,0-.8884277,.0874634-1.7548828,.2149658-2.6083984h-18.4036865l-.0001221,1.8295898,.0322266,.6845703Z"/>
    <path class="cls-2" d="M254.5485094,158.0788261l-2.7900391-.0002441v18.5249023c1.105957-.2182617,2.2467041-.338623,3.4155884-.338623,1.1671143,0,2.3060303,.1201172,3.4104004,.3378906v-18.8266602c-1.1043701,.2172852-2.2432861,.3374023-3.4104004,.3374023l-.6255493-.034668Z"/>
    <path class="cls-2" d="M251.7584703,264.6022636v13.8554688c0,1.8862305,1.5264893,3.4128418,3.4129639,3.4128418s3.4130249-1.5266113,3.4130249-3.4128418v-13.8547363c-1.1043701,.2175293-2.2432861,.3376465-3.4104004,.3376465-1.1688843,0-2.3096313-.1203613-3.4155884-.3383789Z"/>
    <path class="cls-2" d="M258.5844591,17.6598808V3.842498c0-1.8864746-1.5265503-3.4130859-3.4130249-3.4130859s-3.4129639,1.5266113-3.4129639,3.4130859v13.8183594c1.105957-.2182617,2.2467041-.338623,3.4155884-.338623,1.1671143,0,2.3060303,.1203613,3.4104004,.3376465Z"/>
    <path class="cls-2" d="M251.7584703,211.1901542v18.8254395c1.105957-.2180176,2.2467041-.338623,3.4155884-.338623,1.1671143,0,2.3060303,.1203613,3.4104004,.3378906v-18.8239746c-1.1043701,.2175293-2.2432861,.3376465-3.4104004,.3376465-1.1688843,0-2.3096313-.1203613-3.4155884-.3383789Z"/>
    <path class="cls-2" d="M251.7584703,52.2472831v18.8256836c1.105957-.2180176,2.2467041-.3383789,3.4155884-.3383789,1.1671143,0,2.3060303,.1201172,3.4104004,.3376465v-18.8239746c-1.1043701,.2172852-2.2432861,.3376465-3.4104004,.3376465-1.1688843,0-2.3096313-.1203613-3.4155884-.338623Z"/>
    <path class="cls-2" d="M255.1740587,105.9982597c-1.1688843,0-2.3096313-.1206055-3.4155884-.338623v17.2304688l2.6370239,.0002441,.6524048-.0268555c1.2122192-.0014648,2.3942261,.119873,3.5365601,.347168v-17.550293c-1.1043701,.2175293-2.2432861,.3378906-3.4104004,.3378906Z"/>
    <path class="cls-2" d="M148.0758532,211.5285331c-1.1680298,0-2.3078613-.1203613-3.4130249-.3381348v18.5268555l2.6344604,.0002441,.6845703-.0322266,.7167969,.0292969,2.7901001,.0002441v-18.5244141c-1.1051025,.2177734-2.2449341,.3381348-3.4129028,.3381348Z"/>
    <path class="cls-2" d="M148.0758532,105.9982597c-1.1680298,0-2.3078613-.1203613-3.4130249-.3381348v17.5656738c.7166748-.1411133,1.4431763-.2548828,2.1887817-.3059082l1.0980225-.0563965,.7490234,.0241699h2.7901001v-17.2275391c-1.1051025,.2177734-2.2449341,.3381348-3.4129028,.3381348Z"/>
    <path class="cls-2" d="M148.0758532,176.2648613c1.1679688,0,2.3078003,.1203613,3.4129028,.3381348v-18.5268555l-2.6370239-.0002441-.6550903,.0268555-.9503784-.0268555-.3946533-.0292969c-.7456055-.0512695-1.4721069-.1650391-2.1887817-.3061523v18.8625488c1.1051636-.2177734,2.2449951-.3381348,3.4130249-.3381348Z"/>
    <path class="cls-2" d="M147.981859,17.3678886l.9208374,.0322266,.3946533,.029541c.746521,.0512695,1.473877,.1652832,2.1914062,.3066406V3.842498c0-1.8864746-1.5264893-3.4130859-3.4129639-3.4130859s-3.4129639,1.5266113-3.4129639,3.4130859v13.5576172h2.6344604l.6845703-.0322266Z"/>
    <path class="cls-2" d="M148.2020128,264.9299003l-.7006836-.0268555h-2.838501v13.5546875c0,1.8862305,1.5264893,3.4128418,3.4129639,3.4128418s3.4129639-1.5266113,3.4129639-3.4128418v-13.5571289l-2.6370239-.0002441-.6497192,.029541Z"/>
    <path class="cls-2" d="M148.0758532,70.7345878c1.1679688,0,2.3078003,.1203613,3.4129028,.3381348v-18.822998c-.7175293,.1416016-1.4448853,.2553711-2.1914062,.3066406l-1.1329346,.0617676-.7141113-.029541h-2.7874756v18.4841309c1.1051636-.2177734,2.2449951-.3381348,3.4130249-.3381348Z"/>
    <path class="cls-2" d="M94.6609362,70.7345878c1.1199341,0,2.2138672,.1113281,3.2766724,.3112793v-18.4597168l-2.4981079-.0002441-.6845703,.0322266-.7168579-.029541h-2.9263916v18.5087891c1.147522-.2348633,2.3334351-.362793,3.5492554-.362793Z"/>
    <path class="cls-2" d="M94.6609362,211.5285331c-1.2155762,0-2.4005127-.1315918-3.5492554-.3652344v18.8813477c.5274658-.1069336,1.0634155-.192627,1.6082153-.2521973l.6900024-.0749512h.4751587l.6846313-.0322266,.7167969,.0292969,2.651123,.0002441v-18.4899902c-1.0629272,.1984863-2.15802,.3037109-3.2766724,.3037109Z"/>
    <path class="cls-2" d="M94.5696886,17.3678886l.7167969,.029541,2.651123,.0002441V3.842498c0-1.8864746-1.5264893-3.4130859-3.4129639-3.4130859s-3.4129639,1.5266113-3.4129639,3.4130859v13.5576172h2.7733765l.6846313-.0322266Z"/>
    <path class="cls-2" d="M94.7924669,264.9299003l-.7033691-.0268555h-.8000488l-.5691528-.0751953c-.5447998-.0595703-1.0807495-.1450195-1.6082153-.2521973v13.8820801c0,1.8862305,1.5264893,3.4128418,3.4129639,3.4128418s3.4129639-1.5266113,3.4129639-3.4128418v-13.5571289l-2.4981079-.0002441-.6470337,.029541Z"/>
    <path class="cls-2" d="M41.6004503,17.3974296l2.7826538,.0002441V3.842498c0-1.8864746-1.5264893-3.4130859-3.4129639-3.4130859s-3.4129639,1.5266113-3.4129639,3.4130859v13.8564453c1.1065674-.2185059,2.2480469-.3391113,3.4177246-.3391113l.6255493,.0375977Z"/>
    <path class="cls-2" d="M44.3831041,176.5946952v-18.8183594c-1.1036987,.217041-2.2418823,.3371582-3.4082031,.3371582-1.1696777,0-2.3111572-.1203613-3.4177246-.338623v18.8210449c1.1057739-.2158203,2.2480469-.3310547,3.4177246-.3310547,1.1663818,0,2.3053589,.1149902,3.4082031,.329834Z"/>
    <path class="cls-2" d="M44.3831041,123.1901542v-17.5292969c-1.1036987,.217041-2.2418823,.3374023-3.4082031,.3374023-1.1696777,0-2.3111572-.1206055-3.4177246-.3388672v17.5322266c1.1065674-.2185059,2.2480469-.3388672,3.4177246-.3388672,1.1663208,0,2.3045044,.1201172,3.4082031,.3374023Z"/>
    <path class="cls-2" d="M37.5571764,264.6020195v13.8557129c0,1.8862305,1.5264893,3.4128418,3.4129639,3.4128418s3.4129639-1.5266113,3.4129639-3.4128418v-13.8544922c-1.1036377,.2172852-2.2418213,.3374023-3.4082031,.3374023-1.1696777,0-2.3111572-.1201172-3.4177246-.338623Z"/>
    <path class="cls-2" d="M44.3831041,71.0719902v-18.4858398l-2.6296387-.0002441-.6845703,.0322266c-1.2032471,.0009766-2.37677-.1201172-3.5117188-.3459473v18.8012695c1.1065674-.2185059,2.2480469-.3388672,3.4177246-.3388672,1.1663208,0,2.3045044,.1201172,3.4082031,.3374023Z"/>
    <path class="cls-2" d="M201.6249254,105.9982597c-1.1685181,0-2.3087769-.1203613-3.4143066-.3381348v17.2299805l2.4988403,.0002441,.6524048-.0268555,.751709,.0241699h2.9230347v-17.2275391c-1.1046753,.2177734-2.2440796,.3381348-3.4116821,.3381348Z"/>
    <path class="cls-2" d="M201.4880236,211.5285331c-1.1209106,0-2.2139893-.1164551-3.2774048-.3173828v18.5061035l2.4988403,.0002441,.6846313-.0322266c1.2495728-.0012207,2.4671021,.1291504,3.6425171,.3720703v-18.8876953c-1.1466064,.2353516-2.3334351,.3588867-3.548584,.3588867Z"/>
    <path class="cls-2" d="M201.4880236,176.2648613c1.2151489,0,2.4019775,.1235352,3.548584,.3588867v-18.5476074l-2.7700195-.0002441-.6524048,.0268555-.751709-.0239258-2.6518555-.0002441v18.5036621c1.0634155-.2009277,2.1564941-.3173828,3.2774048-.3173828Z"/>
    <path class="cls-2" d="M200.9134996,264.9030449h-2.7028809v13.5546875c0,1.8862305,1.5265503,3.4128418,3.4130249,3.4128418s3.4129639-1.5266113,3.4129639-3.4128418v-13.8759766c-1.1466064,.2353516-2.3334351,.3588867-3.548584,.3588867l-.5745239-.0375977Z"/>
    <path class="cls-2" d="M205.0366075,17.6528007V3.842498c0-1.8864746-1.5264893-3.4130859-3.4129639-3.4130859s-3.4130249,1.5266113-3.4130249,3.4130859v13.8103027c1.1047363-.215332,2.2458496-.3305664,3.4143066-.3305664,1.1675415,0,2.3077393,.1149902,3.4116821,.3305664Z"/>
    <path d="M237.7408312,37.462371c1.0636597,7.4091797,6.7337646,13.3481445,14.0176392,14.7849121,1.105957,.2182617,2.2467041,.338623,3.4155884,.338623,1.1671143,0,2.3060303-.1203613,3.4104004-.3376465,7.2858276-1.4353027,12.9567871-7.375,14.0203247-14.7858887,.117981-.8220215,.1997681-1.6555176,.1997681-2.5095215,0-1.4914551-.2063599-2.932373-.5567017-4.3164062-1.6588745-6.5546875-6.9805908-11.6606445-13.6633911-12.9765625-1.1043701-.2172852-2.2432861-.3376465-3.4104004-.3376465-1.1688843,0-2.3096313,.1203613-3.4155884,.338623-6.6808472,1.3173828-12.001709,6.4226074-13.6606445,12.9755859-.3504028,1.3840332-.5568848,2.8249512-.5568848,4.3164062,0,.8540039,.0819092,1.6875,.1998901,2.5095215Z"/>
    <path d="M184.0025499,35.0841972l.029541,.6472168-.000061,1.730957-.0024414,46.7285156-.0001831,3.6022949-.0375977,.5986328c.0012207,.8942871,.0908203,1.7663574,.2211304,2.625,1.1146851,7.3444824,6.7576294,13.2167969,13.9976807,14.6433105,1.1055298,.2177734,2.2457886,.3381348,3.4143066,.3381348,1.1676025,0,2.3070068-.1203613,3.4116821-.3381348,7.2075806-1.4211426,12.831543-7.2592773,13.9746094-14.6433105,.1395874-.9016113,.2334595-1.8193359,.2334595-2.7619629,0-.0053711-.029541-.6657715-.029541-.6657715l.0001831-3.3981934,.0023804-46.7285156,.0001221-1.9350586,.0268555-.7006836-.0322266-.5905762c-.0498657-1.2399902-.2316895-2.4418945-.5202026-3.5996094-1.6461792-6.605957-6.9684448-11.6787109-13.6556396-12.9836426-1.1039429-.2155762-2.2441406-.3305664-3.4116821-.3305664-1.168457,0-2.3095703,.1152344-3.4143066,.3305664-6.7319946,1.3122559-12.0875244,6.4267578-13.696106,12.9836426-.269165,1.097168-.4342041,2.2341309-.4824219,3.4008789l-.029541,1.046875Z"/>
    <path d="M251.7584703,71.0729667c-6.7283936,1.3273926-12.0787964,6.4970703-13.6966553,13.1179199-.3278809,1.3417969-.520874,2.7355957-.520874,4.1767578,0,.9025879,.0897217,1.7827148,.2212524,2.6491699,1.1147461,7.34375,6.7583618,13.2155762,13.9962769,14.6428223,1.105957,.2180176,2.2467041,.338623,3.4155884,.338623,1.1671143,0,2.3060303-.1203613,3.4104004-.3378906,7.2399292-1.4255371,12.8842163-7.2983398,13.9989014-14.6435547,.1314697-.8664551,.2211914-1.746582,.2211914-2.6491699,0-1.4411621-.1929321-2.8349609-.5206909-4.1767578-1.6177979-6.6223145-6.9690552-11.7929688-13.6994019-13.1186523-1.1043701-.2175293-2.2432861-.3376465-3.4104004-.3376465-1.1688843,0-2.3096313,.1203613-3.4155884,.3383789Z"/>
    <path d="M165.1855944,84.1908867c-1.6176147-6.621582-6.9675903-11.791748-13.6968384-13.1181641-1.1051025-.2177734-2.2449341-.3381348-3.4129028-.3381348-1.1680298,0-2.3078613,.1203613-3.4130249,.3381348-6.7295532,1.326416-12.0812378,6.496582-13.6992798,13.1181641-.3278809,1.3417969-.520874,2.7355957-.520874,4.1767578,0,.9025879,.0897217,1.7827148,.2212524,2.6491699,1.1148682,7.3444824,6.7597656,13.2167969,13.9989014,14.6433105,1.1051636,.2177734,2.2449951,.3381348,3.4130249,.3381348,1.1679688,0,2.3078003-.1203613,3.4129028-.3381348,7.2387085-1.4265137,12.8817749-7.2988281,13.9963379-14.6433105,.1314697-.8664551,.2211914-1.746582,.2211914-2.6491699,0-1.4411621-.1929321-2.8349609-.5206909-4.1767578Z"/>
    <path d="M44.3831041,105.6608574c7.241394-1.4248047,12.8885498-7.2978516,14.0036621-14.644043,.1315308-.8664551,.2212524-1.746582,.2212524-2.6491699,0-1.4411621-.1929932-2.8349609-.520874-4.1767578-1.6184692-6.6230469-6.972229-11.7939453-13.7040405-13.1188965-1.1036987-.2172852-2.2418823-.3374023-3.4082031-.3374023-1.1696777,0-2.3111572,.1203613-3.4177246,.3388672-6.7269897,1.3278809-12.0748291,6.4975586-13.6920166,13.1174316-.3277588,1.3417969-.5206909,2.7355957-.5206909,4.1767578,0,.9025879,.0897217,1.7827148,.2211914,2.6491699,1.1143188,7.3427734,6.7550659,13.2143555,13.9915161,14.6425781,1.1065674,.2182617,2.2480469,.3388672,3.4177246,.3388672,1.1663208,0,2.3045044-.1203613,3.4082031-.3374023Z"/>
    <path d="M254.3954943,122.8903495l-2.6370239-.0002441-46.7218628-.0024414h-2.9230347l-.751709-.0241699-.6524048,.0268555-2.4988403-.0002441-46.7218628-.0024414h-2.7901001l-.7490234-.0241699-1.0980225,.0563965c-.7456055,.0510254-1.4721069,.1647949-2.1887817,.3059082-7.2304688,1.4248047-12.8342285,7.2729492-13.9849854,14.5129395-.1426392,.8974609-.2351685,1.8103027-.2351685,2.7443848,0,1.4042969,.185791,2.7668457,.5020142,4.081543,1.5910034,6.6154785,6.9388428,11.8398438,13.7181396,13.1757812,.7166748,.1411133,1.4431763,.2548828,2.1887817,.3061523l.3946533,.0292969,.9503784,.0268555,.6550903-.0268555,2.6370239,.0002441,46.7218628,.0024414,2.6518555,.0002441,.751709,.0239258,.6524048-.0268555,2.7700195,.0002441,46.7218628,.0024414,2.7900391,.0002441,.6255493,.034668c1.1671143,0,2.3060303-.1201172,3.4104004-.3374023,6.7626953-1.3317871,12.1345215-6.5437012,13.723877-13.2114258,.3128662-1.3125,.4962158-2.6745605,.4962158-4.081543,0-.935791-.0946655-1.8476562-.2359009-2.7443848-1.1453857-7.2724609-6.7399292-13.0864258-13.9841919-14.5280762-1.142334-.2272949-2.3243408-.3486328-3.5365601-.347168l-.6524048,.0268555Z"/>
    <path d="M44.3831041,157.7763359c6.7641602-1.3310547,12.1386108-6.5432129,13.7285767-13.2116699,.3129272-1.3125,.4963379-2.6745605,.4963379-4.081543,0-.935791-.0946655-1.8476562-.2358398-2.7443848-1.1494141-7.3015137-6.7789307-13.130127-13.9890747-14.548584-1.1036987-.2172852-2.2418823-.3374023-3.4082031-.3374023-1.1696777,0-2.3111572,.1203613-3.4177246,.3388672-7.2051392,1.421875-12.8284302,7.2487793-13.9769897,14.5471191-.1411133,.8967285-.2357178,1.8085938-.2357178,2.7443848,0,1.4069824,.1832886,2.769043,.4961548,4.081543,1.5887451,6.6652832,6.9572144,11.8762207,13.7165527,13.2102051,1.1065674,.2182617,2.2480469,.338623,3.4177246,.338623,1.1663208,0,2.3045044-.1201172,3.4082031-.3371582Z"/>
    <path d="M251.7584703,176.6034843c-7.2514648,1.4304199-12.902771,7.3232422-14.0025635,14.6862793-.1275024,.8535156-.2149658,1.7199707-.2149658,2.6083984,0,1.4558105,.1970215,2.8635254,.5314941,4.2177734,1.630127,6.6003418,6.9716797,11.75,13.6860352,13.0742188,1.105957,.2180176,2.2467041,.3383789,3.4155884,.3383789,1.1671143,0,2.3060303-.1201172,3.4104004-.3376465,6.7163086-1.3225098,12.0587769-6.4729004,13.6887817-13.0749512,.3343506-1.354248,.531311-2.7619629,.531311-4.2177734,0-.8884277-.0874023-1.7548828-.2148438-2.6083984-1.0997925-7.3647461-6.7518311-13.2583008-14.005249-14.6870117-1.1043701-.2177734-2.2432861-.3378906-3.4104004-.3378906-1.1688843,0-2.3096313,.1203613-3.4155884,.338623Z"/>
    <path d="M184.3889025,198.1159355c1.640625,6.6450195,7.0440063,11.8144531,13.8217163,13.0952148,1.0634155,.2009277,2.1564941,.3173828,3.2774048,.3173828,1.2151489,0,2.4019775-.1235352,3.548584-.3588867,6.6525269-1.3647461,11.9315796-6.496582,13.5505371-13.0537109,.3343506-1.354248,.531311-2.7619629,.531311-4.2177734,0-.8884277-.0874023-1.7548828-.2148438-2.6083984-1.0928345-7.3186035-6.678833-13.1906738-13.8670044-14.6660156-1.1466064-.2353516-2.3334351-.3588867-3.548584-.3588867-1.1209106,0-2.2139893,.1164551-3.2774048,.3173828-7.3162231,1.3833008-13.0318604,7.2983398-14.1381836,14.7075195-.1274414,.8535156-.2148438,1.7199707-.2148438,2.6083984,0,1.4558105,.1969604,2.8635254,.531311,4.2177734Z"/>
    <path d="M130.9741686,198.1159355c1.6303101,6.6010742,6.9731445,11.7512207,13.6886597,13.0744629,1.1051636,.2177734,2.2449951,.3381348,3.4130249,.3381348,1.1679688,0,2.3078003-.1203613,3.4129028-.3381348,6.7151489-1.3232422,12.0563965-6.4733887,13.6862183-13.0744629,.3343506-1.354248,.531311-2.7619629,.531311-4.2177734,0-.8884277-.0874023-1.7548828-.2148438-2.6083984-1.0996094-7.3640137-6.7504272-13.2570801-14.0026855-14.6867676-1.1051025-.2177734-2.2449341-.3381348-3.4129028-.3381348-1.1680298,0-2.3078613,.1203613-3.4130249,.3381348-7.2526245,1.4296875-12.9052734,7.3227539-14.005188,14.6867676-.1275024,.8535156-.2149658,1.7199707-.2149658,2.6083984,0,1.4558105,.1970215,2.8635254,.5314941,4.2177734Z"/>
    <path d="M251.7584703,230.0155937c-7.2960815,1.439209-12.9733887,7.3955078-14.0233154,14.8220215-.114502,.8103027-.1942139,1.6313477-.1942139,2.4726562,0,1.5048828,.2099609,2.9580078,.5664673,4.3535156,1.6697388,6.5349121,6.9828491,11.6235352,13.651062,12.9384766,1.105957,.2180176,2.2467041,.3383789,3.4155884,.3383789,1.1671143,0,2.3060303-.1201172,3.4104004-.3376465,6.670166-1.3132324,11.9841309-6.4025879,13.6538086-12.939209,.3563843-1.3955078,.5662842-2.8486328,.5662842-4.3535156,0-.8413086-.0795898-1.6623535-.1940918-2.4726562-1.0498047-7.4282227-6.7279663-13.3852539-14.026001-14.8227539-1.1043701-.2175293-2.2432861-.3378906-3.4104004-.3378906-1.1688843,0-2.3096313,.1206055-3.4155884,.338623Z"/>
    <path d="M41.7534655,52.5859062l2.6296387,.0002441,46.7285767,.0024414h2.9263916l.7168579,.029541,.6845703-.0322266,2.4981079,.0002441,46.7252197,.0024414h2.7874756l.7141113,.029541,1.1329346-.0617676c.746521-.0512695,1.473877-.1650391,2.1914062-.3066406,7.3204956-1.4436035,12.972229-7.421875,14.0227661-14.7873535,.1155396-.8098145,.1947632-1.6303711,.1947632-2.4694824,0-1.5021973-.2093506-2.9580078-.5698242-4.3564453-1.6715698-6.484375-6.9638062-11.5820312-13.6477051-12.9001465-.7175293-.1413574-1.4448853-.2553711-2.1914062-.3066406l-.3946533-.029541-.9208374-.0322266-.6845703,.0322266h-2.6344604l-46.7252197-.0024414-2.651123-.0002441-.7167969-.029541-.6846313,.0322266h-2.7733765l-46.7285767-.0024414-2.7826538-.0002441-.6255493-.0375977c-1.1696777,0-2.3111572,.1206055-3.4177246,.3391113-6.6657715,1.3156738-11.975769,6.4042969-13.6456909,12.9375-.3568726,1.3964844-.5670166,2.8505859-.5670166,4.3564453,0,.840332,.0794678,1.6604004,.1937256,2.4694824,1.0458374,7.4060059,6.696228,13.3527832,14.0189819,14.8098145,1.1349487,.2258301,2.3084717,.3469238,3.5117188,.3459473l.6845703-.0322266Z"/>
    <path d="M218.9242418,244.8376152c-1.0407715-7.3601074-6.6293945-13.2790527-13.8876343-14.7802734-1.175415-.2429199-2.3929443-.373291-3.6425171-.3720703l-.6846313,.0322266-2.4988403-.0002441-46.7218628-.0024414-2.7901001-.0002441-.7167969-.0292969-.6845703,.0322266-2.6344604-.0002441-46.7252197-.0024414-2.651123-.0002441-.7167969-.0292969-.6846313,.0322266h-.4751587l-.6900024,.0749512c-.5447998,.0595703-1.0807495,.1452637-1.6082153,.2521973-7.3233643,1.486084-12.859436,7.4431152-13.8903198,14.7929688-.1137085,.8105469-.1908569,1.6323242-.1908569,2.4726562,0,1.5019531,.203186,2.9570312,.5571289,4.3535156,1.6397705,6.46875,6.8366699,11.5549316,13.5240479,12.9118652,.5274658,.1071777,1.0634155,.192627,1.6082153,.2521973l.5691528,.0751953h.8000488l.7033691,.0268555,.6470337-.029541,2.4981079,.0002441,46.7252197,.0024414h2.838501l.7006836,.0268555,.6497192-.029541,2.6370239,.0002441,46.7218628,.0024414h2.7028809l.5745239,.0375977c1.2151489,0,2.4019775-.1235352,3.548584-.3588867,6.6065063-1.3554688,11.8572998-6.4260254,13.515625-12.9179688,.3563843-1.3955078,.5662231-2.8486328,.5662231-4.3535156,0-.8413086-.0796509-1.6623535-.1942139-2.4726562Z"/>
    <path d="M58.5677965,246.531707l.000061-1.6940918,.0024414-46.7216797,.0001831-3.6459961,.0267944-.7036133-.0321655-.5878906c-.0257568-.6401367-.0908813-1.2687988-.1818848-1.8886719-1.0907593-7.4316406-6.7423706-13.28125-14.0001221-14.6950684-1.1028442-.2148438-2.2418213-.329834-3.4082031-.329834-1.1696777,0-2.3119507,.1152344-3.4177246,.3310547-7.3051147,1.4255371-12.9865723,7.3295898-14.0183105,14.6938477-.0778198,.5556641-.1305542,1.1191406-.1541748,1.6899414l-.02948,1.0444336,.02948,.6499023-.0001831,3.4418945-.0023804,46.7216797-.0001221,1.8979492-.0375366,.598877c.0020752,1.4963379,.211731,2.9414062,.5662231,4.3293457,1.6691895,6.5341797,6.9797363,11.6225586,13.6464844,12.9382324,1.1065674,.2185059,2.2480469,.338623,3.4177246,.338623,1.1663818,0,2.3045654-.1201172,3.4082031-.3374023,6.6450195-1.3085938,11.9440308-6.3723145,13.6315308-12.9394531,.3669434-1.4282227,.5826416-2.9189453,.5826416-4.4663086,0-.0053711-.02948-.6657715-.02948-.6657715Z"/>
    <path d="M112.2833727,88.3219902l-.0402832-.8188477c-.055542-1.1376953-.2220459-2.2436523-.4804077-3.3122559-1.6222534-6.7106934-7.0452881-11.8688965-13.8250732-13.1450195-1.0628052-.1999512-2.1567383-.3112793-3.2766724-.3112793-1.2158203,0-2.4017334,.1279297-3.5492554,.362793-6.6533813,1.3613281-11.9529419,6.4719238-13.5511475,13.0935059-.2576904,1.067627-.4238892,2.1728516-.4790649,3.3095703l-.0429077,.9880371,.029541,.6577148-.0001221,1.8706055-.0024414,46.7219238-.0001221,2.1162109-.0268555,.7490234,.029541,.6577148-.0001831,3.3029785-.0023804,46.7250977-.0001221,1.982666-.0349121,.6364746,.0375977,.7651367v.4885254l.0670776,.6254883c.0846558,.796875,.2386475,1.5688477,.423584,2.3278809,1.6170044,6.6367188,6.9178467,11.6975098,13.5529175,13.0473633,1.1487427,.2336426,2.3336792,.3652344,3.5492554,.3652344,1.1186523,0,2.2137451-.1052246,3.2766724-.3037109,6.7631836-1.2641602,12.1861572-6.3806152,13.8255005-13.1088867,.1849365-.7590332,.3389282-1.5310059,.423584-2.3278809l.0671387-.5341797,.0026855-.7329102,.029541-.717041-.0322266-.6845703,.0001221-1.8295898,.0023804-46.7250977,.0001831-3.4533691,.029541-.7194824-.0322266-.6872559,.0001221-1.9658203,.0024414-46.7219238,.0001221-2.0209961,.0268555-.6738281Z"/>
  </g>
</svg>