<svg id="Layer_1" data-name="Layer 1" xmlns="http://www.w3.org/2000/svg" viewBox="0 0 258.86 226.47"><defs><style>.cls-1{fill:#fff;}</style></defs><path class="cls-1" d="M191.85,170.66a18.16,18.16,0,0,1,.68-5.09A18.12,18.12,0,0,0,191.85,170.66Z" transform="translate(-70.57 -9.27)"/><path class="cls-1" d="M195.83,181.79a17.56,17.56,0,0,0,2.41,2.47c.43.36.87.7,1.32,1-.45-.31-.89-.65-1.32-1A17.56,17.56,0,0,1,195.83,181.79Z" transform="translate(-70.57 -9.27)"/><path class="cls-1" d="M195.83,181.79a17.9,17.9,0,0,1-3.19-6A17.9,17.9,0,0,0,195.83,181.79Z" transform="translate(-70.57 -9.27)"/><rect class="cls-1" x="122.24" y="115.88" height="32.12"/><path class="cls-1" d="M202.44,186.9c-.31-.14-.6-.29-.9-.44C201.84,186.61,202.13,186.76,202.44,186.9Z" transform="translate(-70.57 -9.27)"/><path class="cls-1" d="M201,186.15c-.33-.18-.64-.38-.95-.58C200.33,185.77,200.64,186,201,186.15Z" transform="translate(-70.57 -9.27)"/><path class="cls-1" d="M213.44,152.82c.47.1.94.22,1.41.37C214.38,153,213.91,152.92,213.44,152.82Z" transform="translate(-70.57 -9.27)"/><path class="cls-1" d="M205.9,152.83c.21-.05.42-.09.64-.12C206.32,152.74,206.11,152.78,205.9,152.83Z" transform="translate(-70.57 -9.27)"/><path class="cls-1" d="M204.27,153.27l.53-.15Z" transform="translate(-70.57 -9.27)"/><path class="cls-1" d="M207.57,152.54c.22,0,.44,0,.67-.06C208,152.49,207.79,152.52,207.57,152.54Z" transform="translate(-70.57 -9.27)"/><path class="cls-1" d="M212,152.57c.32,0,.64.1,1,.16C212.65,152.67,212.33,152.61,212,152.57Z" transform="translate(-70.57 -9.27)"/><path class="cls-1" d="M210.55,152.43l.92.07Z" transform="translate(-70.57 -9.27)"/><path class="cls-1" d="M209.68,152.4l-.4,0h.4Z" transform="translate(-70.57 -9.27)"/><path class="cls-1" d="M220.56,185a17.47,17.47,0,0,0,2.56-2.31,18,18,0,0,0,4.12-7.45,18,18,0,0,1-4.12,7.45A17.47,17.47,0,0,1,220.56,185Z" transform="translate(-70.57 -9.27)"/><path class="cls-1" d="M208.82,188.46c-.31,0-.62,0-.94-.07C208.2,188.42,208.51,188.45,208.82,188.46Z" transform="translate(-70.57 -9.27)"/><path class="cls-1" d="M209.86,188.51c.38,0,.76,0,1.14,0a14.23,14.23,0,0,1-1.46,0Z" transform="translate(-70.57 -9.27)"/><path class="cls-1" d="M224.78,160.42A17.67,17.67,0,0,1,227,165,17.67,17.67,0,0,0,224.78,160.42Z" transform="translate(-70.57 -9.27)"/><path class="cls-1" d="M222.59,157.75a18.5,18.5,0,0,1,2.19,2.67A18.5,18.5,0,0,0,222.59,157.75Z" transform="translate(-70.57 -9.27)"/><path class="cls-1" d="M207.17,188.29c-.31,0-.62-.1-.92-.16C206.55,188.19,206.86,188.25,207.17,188.29Z" transform="translate(-70.57 -9.27)"/><polygon class="cls-1" points="152.02 148.49 152.02 148.49 152.02 148.49 162.83 130.5 162.83 130.5 152.02 148.49"/><path class="cls-1" d="M204,187.51l-.9-.34Z" transform="translate(-70.57 -9.27)"/><path class="cls-1" d="M205.55,188c-.31-.07-.61-.16-.91-.25C204.94,187.81,205.24,187.9,205.55,188Z" transform="translate(-70.57 -9.27)"/><path class="cls-1" d="M159.76,84.7a16.65,16.65,0,0,1-.35,2.21A16.65,16.65,0,0,0,159.76,84.7Z" transform="translate(-70.57 -9.27)"/><path class="cls-1" d="M141.91,65h0Z" transform="translate(-70.57 -9.27)"/><path class="cls-1" d="M143.73,65.13l.29,0Z" transform="translate(-70.57 -9.27)"/><path class="cls-1" d="M159.13,88a17.7,17.7,0,0,1-.76,2.11A17.7,17.7,0,0,0,159.13,88Z" transform="translate(-70.57 -9.27)"/><path class="cls-1" d="M178.42,122.74h0L156.05,94a17.84,17.84,0,0,0,2.32-3.91A17.84,17.84,0,0,1,156.05,94Z" transform="translate(-70.57 -9.27)"/><path class="cls-1" d="M158.79,76.9a18.08,18.08,0,0,1,1.05,6.68A18,18,0,0,0,152,68.13,17.94,17.94,0,0,1,158.79,76.9Z" transform="translate(-70.57 -9.27)"/><path class="cls-1" d="M127.64,94.22a18,18,0,0,0,5,4.43A18,18,0,0,1,127.64,94.22Z" transform="translate(-70.57 -9.27)"/><path class="cls-1" d="M140.14,65.13h0Z" transform="translate(-70.57 -9.27)"/><path class="cls-1" d="M147.32,100.24l-.57.16Z" transform="translate(-70.57 -9.27)"/><path class="cls-1" d="M145.59,100.7l-.68.13Z" transform="translate(-70.57 -9.27)"/><path class="cls-1" d="M143.84,101l-.74.06Z" transform="translate(-70.57 -9.27)"/><path class="cls-1" d="M141.75,101.13l.31,0c-.29,0-.59,0-.88,0Z" transform="translate(-70.57 -9.27)"/><rect class="cls-1" x="55.49" y="55.65" height="7.21"/><rect class="cls-1" x="120.52" y="70.9" height="9.6" transform="translate(-76.7 131.35) rotate(-59.27)"/><path class="cls-1" d="M140.51,101.08c-.33,0-.65-.06-1-.11C139.86,101,140.18,101.05,140.51,101.08Z" transform="translate(-70.57 -9.27)"/><path class="cls-1" d="M130.34,69.28l.28-.23Z" transform="translate(-70.57 -9.27)"/><path class="cls-1" d="M133.27,67.27l.27-.15Z" transform="translate(-70.57 -9.27)"/><path class="cls-1" d="M131.87,68.12l.19-.13Z" transform="translate(-70.57 -9.27)"/><path class="cls-1" d="M134.93,66.46l.3-.12Z" transform="translate(-70.57 -9.27)"/><path class="cls-1" d="M136.54,65.87l.21-.07Z" transform="translate(-70.57 -9.27)"/><path class="cls-1" d="M138.24,65.42l.35-.06Z" transform="translate(-70.57 -9.27)"/><path class="cls-1" d="M124,85.06a16.79,16.79,0,0,1-.09-1.88A16.79,16.79,0,0,0,124,85.06Z" transform="translate(-70.57 -9.27)"/><path class="cls-1" d="M137.32,100.57c-.52-.14-1-.29-1.55-.47C136.28,100.28,136.8,100.43,137.32,100.57Z" transform="translate(-70.57 -9.27)"/><path class="cls-1" d="M138.91,100.89c-.36,0-.71-.13-1.06-.21C138.2,100.76,138.55,100.84,138.91,100.89Z" transform="translate(-70.57 -9.27)"/><path class="cls-1" d="M246.7,95.16q.47.06.93.15Q247.17,95.22,246.7,95.16Z" transform="translate(-70.57 -9.27)"/><path class="cls-1" d="M245.05,95l1,.07Z" transform="translate(-70.57 -9.27)"/><path class="cls-1" d="M248.31,95.46l.9.25Z" transform="translate(-70.57 -9.27)"/><path class="cls-1" d="M249.88,95.91c.3.1.6.22.89.33C250.47,96.13,250.18,96,249.88,95.91Z" transform="translate(-70.57 -9.27)"/><path class="cls-1" d="M252.86,97.22c.32.18.63.37.94.57C253.49,97.59,253.18,97.4,252.86,97.22Z" transform="translate(-70.57 -9.27)"/><path class="cls-1" d="M244.15,95c-.44,0-.87,0-1.3.05.51,0,1-.05,1.52,0Z" transform="translate(-70.57 -9.27)"/><path class="cls-1" d="M230.84,100.85h0a16.83,16.83,0,0,1,2.54-2.31A16.83,16.83,0,0,0,230.84,100.85Z" transform="translate(-70.57 -9.27)"/><path class="cls-1" d="M254.26,98.08a15.39,15.39,0,0,1,1.31,1A15.39,15.39,0,0,0,254.26,98.08Z" transform="translate(-70.57 -9.27)"/><path class="cls-1" d="M251.4,96.5c.3.13.6.28.89.43C252,96.78,251.7,96.63,251.4,96.5Z" transform="translate(-70.57 -9.27)"/><path class="cls-1" d="M228.7,122.14h0a17.89,17.89,0,0,1-1.1-2.13A17.89,17.89,0,0,0,228.7,122.14Z" transform="translate(-70.57 -9.27)"/><path class="cls-1" d="M227.29,106.65a18,18,0,0,1,2.45-4.47A18,18,0,0,0,227.29,106.65Z" transform="translate(-70.57 -9.27)"/><path class="cls-1" d="M328.57,190.34a18.52,18.52,0,0,0-2.59-5.09,16.61,16.61,0,0,0-1.2-1.46,17.67,17.67,0,0,0-6.13-4.42h0c-.58-.25-1.16-.47-1.75-.66l-.62-.16c-.4-.11-.8-.22-1.2-.31s-.5-.07-.75-.11-.73-.13-1.1-.17l-.8,0c-.35,0-.71,0-1.06,0s-.73,0-1.09.06-.55,0-.82,0-.75.12-1.13.19-.51.07-.77.13-.82.22-1.22.34c-.22.06-.43.11-.64.18a15.49,15.49,0,0,0-1.81.72l-45.28-55.86a17.79,17.79,0,0,0,3.25-7.49,16.67,16.67,0,0,0,.26-2c0-.57.05-1.14,0-1.71s-.06-1.14-.13-1.72c0-.11,0-.21-.05-.32a18,18,0,0,0-6.37-11.39h0a15.39,15.39,0,0,0-1.31-1c-.15-.11-.31-.2-.46-.29-.31-.2-.62-.39-.94-.57l-.57-.29c-.29-.15-.59-.3-.89-.43l-.63-.26c-.29-.11-.59-.23-.89-.33l-.67-.2-.9-.25-.68-.15q-.47-.09-.93-.15l-.69-.09-1-.07c-.23,0-.45,0-.68,0-.5,0-1,0-1.52,0h0a18,18,0,0,0-9.47,3.53,16.83,16.83,0,0,0-2.54,2.31,17.23,17.23,0,0,0-1.1,1.33,18,18,0,0,0-2.45,4.47c-.19.54-.37,1.08-.51,1.62a17.76,17.76,0,0,0-.62,5.09c0,.58.06,1.15.12,1.72A18.25,18.25,0,0,0,227.6,120a17.89,17.89,0,0,0,1.1,2.13c.17.28.34.58.52.86a16.9,16.9,0,0,0,1,1.37c.36.44.74.87,1.15,1.28h0l-4.34,7.22-12.21,20.32c-.47-.15-.94-.27-1.41-.37l-.46-.09c-.33-.06-.65-.12-1-.16l-.54-.07-.92-.07-.55,0h-.72c-.35,0-.7,0-1,.06s-.45,0-.67.06-.69.1-1,.17-.43.07-.64.12c-.37.08-.74.18-1.1.29l-.53.15c-.54.18-1.07.38-1.59.61l-19.74-25.34-4.52-5.8L156.05,94a17.92,17.92,0,0,0,3.08-6c.11-.36.2-.72.28-1.08a16.65,16.65,0,0,0,.35-2.21c0-.37.07-.75.08-1.12A17.86,17.86,0,0,0,150.05,67a17.88,17.88,0,0,0-4.28-1.53,17.25,17.25,0,0,0-1.75-.29l-.29,0c-.56,0-1.12-.08-1.67-.09h-.34c-.52,0-1,0-1.55.07h0c-.52.05-1,.13-1.55.23l-.35.06c-.5.11-1,.23-1.49.38l-.21.07c-.44.14-.88.3-1.31.47l-.3.12c-.47.2-.94.42-1.39.66l-.27.15c-.41.22-.82.47-1.21.72l-.19.13c-.43.29-.85.6-1.25.93l-.28.23a15.2,15.2,0,0,0-1.19,1.09L123,66.68l-6.38-3.79L107,57.2a18.27,18.27,0,0,0,.72-5.56h0a18.56,18.56,0,0,0-4.19-11.33h0a16.34,16.34,0,0,0-1.31-1.44l-.14-.14c-.44-.43-.91-.83-1.38-1.21l-.22-.17a16.72,16.72,0,0,0-1.47-1l-.25-.16c-.51-.3-1-.59-1.56-.84l-.26-.12a16.22,16.22,0,0,0-1.67-.68l-.19-.07c-.6-.2-1.21-.38-1.83-.52h0c-.62-.14-1.25-.24-1.88-.32l-.18,0a16.08,16.08,0,0,0-1.84-.1H89q-.67,0-1.35.06a18.09,18.09,0,0,0-4.41.9,18.42,18.42,0,0,0-7.46,4.7,18.3,18.3,0,0,0-1.46,1.71,17.24,17.24,0,0,0-1.26,1.89A18.73,18.73,0,0,0,71,48a17.83,17.83,0,0,0-.35,2.19,18.53,18.53,0,0,0,0,3.33A18.88,18.88,0,0,0,72.34,60a20.11,20.11,0,0,0,1.09,2q.3.48.63.93a18.57,18.57,0,0,0,12,7.48c.46.08.92.13,1.37.17l.4,0c.35,0,.69,0,1,0h.36c.54,0,1.08,0,1.62-.08l.31,0c.55-.06,1.1-.14,1.64-.25h0c.53-.11,1.05-.24,1.57-.4l.29-.08c.51-.17,1-.35,1.5-.55l.29-.13c.51-.22,1-.45,1.5-.72h0c.48-.26,1-.55,1.41-.86l.25-.17c.45-.31.88-.63,1.3-1l.24-.21c.42-.36.84-.75,1.24-1.15h0L110,69.45l5.65,3.36.73.44,8.26,4.9h0a18.47,18.47,0,0,0-.67,3.34c0,.56-.08,1.12-.08,1.69a16.79,16.79,0,0,0,.09,1.88,17.59,17.59,0,0,0,1.83,6.28,18.19,18.19,0,0,0,1.82,2.88,18,18,0,0,0,5,4.43,17,17,0,0,0,3.08,1.44h0c.51.18,1,.33,1.55.47l.53.11c.35.08.7.16,1.06.21.2,0,.42.06.63.08s.64.08,1,.11l.67,0c.29,0,.59,0,.88,0s.7,0,1,0l.74-.06,1.07-.17.68-.13c.39-.08.78-.19,1.16-.3l.57-.16a17.13,17.13,0,0,0,1.68-.65l23,29.56,4.52,5.8,19.09,24.51a18.15,18.15,0,0,0-2.54,4.49c-.21.53-.39,1.07-.55,1.62a18.16,18.16,0,0,0-.68,5.09,14.46,14.46,0,0,0,.1,1.73,17.47,17.47,0,0,0,.69,3.38,17.9,17.9,0,0,0,3.19,6,17.56,17.56,0,0,0,2.41,2.47c.43.36.87.7,1.32,1,.15.11.31.2.46.3.31.2.62.4.95.58.18.11.38.21.57.31s.59.3.9.44l.63.27.9.34c.22.08.45.14.67.21s.6.18.91.25l.7.16c.3.06.61.12.92.16l.71.1c.32,0,.63.06.94.07l.72,0a14.23,14.23,0,0,0,1.46,0,18,18,0,0,0,9.56-3.48,17.47,17.47,0,0,0,2.56-2.31,18,18,0,0,0,4.12-7.45A18,18,0,0,0,227,165a17.67,17.67,0,0,0-2.24-4.6,18.5,18.5,0,0,0-2.19-2.67h0l10.81-18,5.74-9.56h0c.48.15,1,.27,1.43.38l.46.09,1,.17.53.06,1,.07.51,0,.68,0c.37,0,.75,0,1.13-.06l.66-.07c.37,0,.73-.11,1.1-.19l.64-.13c.39-.09.77-.21,1.15-.33l.35-.1A1.39,1.39,0,0,1,250,130c.56-.2,1.11-.42,1.64-.67l45.28,55.86a17.91,17.91,0,0,0,4.18,25.49h0c.45.31.92.59,1.39.85l.43.23c.35.19.71.36,1.08.52l.44.2c.49.2,1,.39,1.5.55h0c.51.16,1,.29,1.56.4l.47.09a11.58,11.58,0,0,0,1.18.18l.48.06c.52,0,1,.08,1.58.08h0c.42,0,.84,0,1.26-.06.18,0,.36,0,.54,0,.56-.06,1.11-.15,1.66-.25l.14,0h0a17.9,17.9,0,0,0,9.81-5.43,16.85,16.85,0,0,0,2.29-3.06,17.91,17.91,0,0,0,2.52-9.05A18.13,18.13,0,0,0,328.57,190.34ZM98.41,54.85a9.63,9.63,0,0,1-.67,1.63,8.69,8.69,0,0,1-.46.77,9.84,9.84,0,0,1-1.12,1.37,8.74,8.74,0,0,1-2.11,1.56,8.87,8.87,0,0,1-2.49.9h0c-.27,0-.55.09-.83.12l-.29,0-.59,0h0a10.92,10.92,0,0,1-1.15-.09l-.29,0a8.58,8.58,0,0,1-1.14-.26h0a10,10,0,0,1-1.08-.41l-.27-.13a8.74,8.74,0,0,1-1-.58A9,9,0,0,1,81,54a9.46,9.46,0,0,1-.17-1.76A9.35,9.35,0,0,1,81,50.52a9,9,0,0,1,.5-1.68,9.38,9.38,0,0,1,.84-1.56A8.43,8.43,0,0,1,83.37,46l.06-.06.06-.06a9.32,9.32,0,0,1,1.29-1.06A9.18,9.18,0,0,1,88,43.44c.3-.06.59-.1.89-.13h.28l.6,0h0a8.89,8.89,0,0,1,1.15.08l.29,0c.38.07.76.15,1.14.26h0a8.46,8.46,0,0,1,1.09.42l.27.12a10.44,10.44,0,0,1,1,.58l.53.4.22.16a9,9,0,0,1,3.08,5.16A8.93,8.93,0,0,1,98.41,54.85Zm50.93,33.23c-.17.25-.34.49-.53.72A8.55,8.55,0,0,1,147.57,90a9.16,9.16,0,0,1-3.95,1.88,8.89,8.89,0,0,1-.88.13h-.29q-.3,0-.6,0h0a8.77,8.77,0,0,1-1.15-.08L140.4,92a8.56,8.56,0,0,1-1.14-.25h0a9.06,9.06,0,0,1-1.09-.42l-.26-.12a9.4,9.4,0,0,1-1-.58h0a9,9,0,0,1,2.35-16.09,8.33,8.33,0,0,1,.86-.22c.3-.06.59-.1.88-.13h.2c.23,0,.46,0,.69,0h0a9.06,9.06,0,0,1,1.16.09l.29,0a7.39,7.39,0,0,1,1.13.26h0a10,10,0,0,1,1.08.41l.27.13a8.74,8.74,0,0,1,1,.58,9,9,0,0,1,2.5,12.47ZM218.43,173a8.83,8.83,0,0,1-1.12,2.39,9,9,0,0,1-4.86,3.61,8.33,8.33,0,0,1-.86.22l-.33.05c-.19,0-.37.07-.55.08a2.82,2.82,0,0,1-.41,0c-.15,0-.31,0-.47,0h0a8.77,8.77,0,0,1-1.15-.09l-.29,0a8.56,8.56,0,0,1-1.14-.25h0a9,9,0,0,1-1.09-.41l-.26-.13a8,8,0,0,1-1-.58,8.8,8.8,0,0,1-1.37-1.12c-.21-.21-.41-.43-.6-.65a9,9,0,0,1-1.87-7.46,9.24,9.24,0,0,1,.5-1.68,9.33,9.33,0,0,1,.83-1.56c.17-.25.35-.49.53-.72a9.16,9.16,0,0,1,1.25-1.24c.22-.19.46-.36.7-.53a10,10,0,0,1,1.55-.83,9.23,9.23,0,0,1,1-.35l.64-.17.21,0c.22,0,.45-.08.67-.1h.33a5.12,5.12,0,0,1,.56,0h0a8.89,8.89,0,0,1,1.15.08l.29,0a8.77,8.77,0,0,1,1.13.25h0q.54.18,1.08.42l.27.13a8.53,8.53,0,0,1,1,.57h0a9,9,0,0,1,2.48,2.47,8.42,8.42,0,0,1,.45.76,8.92,8.92,0,0,1,.69,6.85Zm34.37-57.36c-.09.28-.19.56-.3.83a8.74,8.74,0,0,1-.83,1.57,8.93,8.93,0,0,1-1.77,2,8.81,8.81,0,0,1-1.46,1,8.54,8.54,0,0,1-1.62.68c-.29.09-.58.16-.87.22h0q-.42.08-.84.12l-.28,0c-.2,0-.4,0-.6,0h0a8.77,8.77,0,0,1-1.15-.08l-.29,0a8.58,8.58,0,0,1-1.14-.26h0a10,10,0,0,1-1.08-.41l-.27-.13a8.74,8.74,0,0,1-1-.58h0a8.8,8.8,0,0,1-1.37-1.12c-.21-.21-.41-.43-.59-.65a8.78,8.78,0,0,1-.82-1.2,8.92,8.92,0,0,1-.84-1.89c-.08-.28-.16-.57-.22-.86a9.46,9.46,0,0,1-.17-1.76,9.27,9.27,0,0,1,.17-1.75A8.68,8.68,0,0,1,236.7,108c.16-.25.34-.49.52-.72a9,9,0,0,1,5.19-3.12c.3-.06.59-.1.89-.13h.28q.3,0,.6,0h0a8.89,8.89,0,0,1,1.15.08l.29,0c.38.07.76.15,1.14.26h0a8.32,8.32,0,0,1,1.08.42l.27.12a10.44,10.44,0,0,1,1,.58,9,9,0,0,1,2.48,2.48,9.66,9.66,0,0,1,.64,1.13c.07.15.14.29.21.45a8.59,8.59,0,0,1,.5,1.66A8.93,8.93,0,0,1,252.8,115.61Zm67.08,82.87a8.87,8.87,0,0,1-.67,1.63c-.14.26-.29.51-.45.76a9,9,0,0,1-5.3,3.73l-.42.11-.19,0-.69.11h-.3c-.19,0-.39,0-.59,0h0a8.92,8.92,0,0,1-1.16-.08l-.29-.05a9.31,9.31,0,0,1-1.14-.25h0a9.06,9.06,0,0,1-1.09-.42l-.26-.12a9.62,9.62,0,0,1-1-.59,9,9,0,0,1-3.83-5.71,8.75,8.75,0,0,1-.13-2.65,9.32,9.32,0,0,1,.33-1.72,9.53,9.53,0,0,1,.67-1.62c.14-.26.3-.52.46-.77a7.71,7.71,0,0,1,.53-.71c.19-.23.39-.45.59-.66a9,9,0,0,1,2.9-1.94,8.35,8.35,0,0,1,1.7-.52l.28,0,.6-.09c.11,0,.23,0,.34,0l.54,0h0a8.77,8.77,0,0,1,1.15.09l.29,0a8.56,8.56,0,0,1,1.14.25h0a9,9,0,0,1,1.09.41l.26.13a8,8,0,0,1,1,.58,9,9,0,0,1,3.63,10.08Z" transform="translate(-70.57 -9.27)"/><path class="cls-1" d="M244.73,131l-.68,0h.24C244.44,131,244.58,131,244.73,131Z" transform="translate(-70.57 -9.27)"/><path class="cls-1" d="M228.7,122.14c.17.28.34.58.52.86-.18-.28-.35-.58-.52-.86Z" transform="translate(-70.57 -9.27)"/><rect class="cls-1" x="180.68" y="121.96" height="7.35" transform="translate(-109.63 128.27) rotate(-37.91)"/><path class="cls-1" d="M249.41,130.2l.35-.1h0Z" transform="translate(-70.57 -9.27)"/><polygon class="cls-1" points="162.83 130.5 162.83 130.5 168.57 120.94 162.83 130.5"/><path class="cls-1" d="M273.33,178.21l-10.27-2.72a11.54,11.54,0,0,0-3.38-7,11.89,11.89,0,0,0-7-3.37l-7.18-26.8c.29-.24.63-.53.93-.83a12,12,0,0,0,1.8-2.35,22.2,22.2,0,0,1-3.9.37,21.22,21.22,0,0,1-3-.21L238,140.77h.66l6.89,25.77a13.38,13.38,0,0,0-2.44,1.85A11.72,11.72,0,0,0,241,182l-18.48,18.48a11.8,11.8,0,0,0-13.6,2.15,11.05,11.05,0,0,0-1.8,2.35l-25.72-6.9v-.49a11.69,11.69,0,0,0-12.18-11.73l-6.89-25.77a10.4,10.4,0,0,0,2.35-1.81,11.72,11.72,0,0,0,2.15-13.59l6.56-6.57-4.51-5.8-7.28,7.28a11.75,11.75,0,0,0-13.6,2.2,12,12,0,0,0-1.81,2.35l-25.76-6.89a11.59,11.59,0,0,0-3.43-8.8,11.89,11.89,0,0,0-8.8-3.43l-6.89-25.76a10.69,10.69,0,0,0,2.35-1.81,11.72,11.72,0,0,0,2.15-13.59l7.36-7.37-6.37-3.79-6,6a11.52,11.52,0,0,0-5.28-1.27,11.8,11.8,0,0,0-8.31,3.42,12,12,0,0,0-1.81,2.35l-8.94-2.61a3.67,3.67,0,1,0-1.91,7.08l9.29,2.72a11.53,11.53,0,0,0,3.37,7,11.94,11.94,0,0,0,7,3.37l7.19,26.8a10.08,10.08,0,0,0-.93.83,11.7,11.7,0,0,0-2.15,13.59l-6,6a3.68,3.68,0,0,0,0,5.18,3.67,3.67,0,0,0,5.18,0l6-6a11.83,11.83,0,0,0,5.28,1.27,11.71,11.71,0,0,0,8.31-3.42,6.65,6.65,0,0,0,.83-.93l4.5,1.22,22.3,6a11.53,11.53,0,0,0,3.37,7,11.94,11.94,0,0,0,7,3.37l7.19,26.8a6.65,6.65,0,0,0-.93.83,11.72,11.72,0,0,0-3.42,8.31,11.52,11.52,0,0,0,1.27,5.28L152,210a3.68,3.68,0,0,0,0,5.18,3.65,3.65,0,0,0,5.18,0l7.11-7.11a11.7,11.7,0,0,0,13.6-2.15,7.43,7.43,0,0,0,.83-.93l26.79,7.19a11.5,11.5,0,0,0,3.37,7,12,12,0,0,0,7,3.38L218.64,233a3.63,3.63,0,0,0,3.52,2.73,3.38,3.38,0,0,0,.93-.14,3.68,3.68,0,0,0,2.59-4.5l-2.62-10a10.18,10.18,0,0,0,2.35-1.81,11.7,11.7,0,0,0,2.15-13.59L246,187.18a11.75,11.75,0,0,0,13.6-2.15,11.58,11.58,0,0,0,1.8-2.35l10,2.61a3.06,3.06,0,0,0,.93.15,3.68,3.68,0,0,0,.93-7.23ZM167.18,192.9c.29,0-.3.1,0,0Z" transform="translate(-70.57 -9.27)"/><rect class="cls-1" x="119.76" y="61.08" height="7.42" transform="translate(-67.69 125.37) rotate(-59.27)"/><path class="cls-1" d="M294.35,96.36h0L284,93.64a11.53,11.53,0,0,0-3.37-7,11.94,11.94,0,0,0-7-3.37l-7.19-26.74c.34-.25.64-.54,1-.84a11.72,11.72,0,0,0,3.42-8.31,11.58,11.58,0,0,0-1.27-5.28l8.15-8.19a3.67,3.67,0,1,0-5.19-5.19l-8.19,8.2A11.78,11.78,0,0,0,250.69,39a6.65,6.65,0,0,0-.83.93l-26.8-7.19a11.53,11.53,0,0,0-3.37-7,11.94,11.94,0,0,0-7-3.37L210,12a3.67,3.67,0,1,0-7.09,1.91l2.61,10a10.69,10.69,0,0,0-2.35,1.81A11.72,11.72,0,0,0,201,39.32L182.53,57.81A11.78,11.78,0,0,0,168.94,60a6.72,6.72,0,0,0-.83.93l-26.8-7.19a11.5,11.5,0,0,0-3.37-7,12,12,0,0,0-7-3.38l-3.8-13.62A3.67,3.67,0,1,0,120,31.57l3.7,13.28a10.13,10.13,0,0,0-2.34,1.81,11.71,11.71,0,0,0-2.73,12.27l10,6a22.43,22.43,0,0,1,26.75.21l10,2.67a11.58,11.58,0,0,0,3.42,8.8,11.88,11.88,0,0,0,7,3.37l7.19,26.8a11.59,11.59,0,0,0-4.35,9.11L187.41,127a11.58,11.58,0,0,0,3.14.46,11.73,11.73,0,0,0,8.31-3.42,7.27,7.27,0,0,0,.83-.93l24.13,6.47,2.12-3.52A22.08,22.08,0,0,1,223.6,122l-21.32-5.72v-.49a11.7,11.7,0,0,0-12.22-11.73l-6.89-25.77a10.13,10.13,0,0,0,2.34-1.81,11.72,11.72,0,0,0,2.16-13.59l18.48-18.48a11.73,11.73,0,0,0,13.59-2.15,12,12,0,0,0,1.81-2.35l25.72,6.9v.48a11.83,11.83,0,0,0,3.42,8.32A11.68,11.68,0,0,0,259,59h.44l6.94,25.77A11.26,11.26,0,0,0,264,86.6h0a11.71,11.71,0,0,0-2.92,11.68,22.28,22.28,0,0,1,4.57,8.43l1.33-1.33a11.73,11.73,0,0,0,13.59-2.15,12,12,0,0,0,1.81-2.35l10,2.62a3.28,3.28,0,0,0,.93.14,3.71,3.71,0,0,0,1-7.28Z" transform="translate(-70.57 -9.27)"/></svg>