<?xml version="1.0" encoding="UTF-8"?>
<svg id="Layer_1" data-name="Layer 1" xmlns="http://www.w3.org/2000/svg" xmlns:xlink="http://www.w3.org/1999/xlink" viewBox="0 0 1200 500">
  <defs>
    <style>
      .cls-1 {
        fill: #003764;
      }

      .cls-2 {
        fill: #009ade;
      }

      .cls-3 {
        fill: url(#linear-gradient);
        fill-rule: evenodd;
      }
    </style>
    <linearGradient id="linear-gradient" x1="71.36" y1="351.75" x2="71.36" y2="232.26" gradientUnits="userSpaceOnUse">
      <stop offset=".22" stop-color="#f7941d"/>
      <stop offset=".98" stop-color="#64923e"/>
    </linearGradient>
  </defs>
  <g>
    <path class="cls-1" d="M188.4,291.63v1.67c0,8.07,3.62,12.15,10.85,12.15,6.59,0,10.02-4.82,10.02-9.65,0-6.96-3.52-10.02-9.46-11.78l-7.24-2.5c-9.65-3.71-13.82-8.72-13.82-18.18,0-12.06,8.26-18.74,20.59-18.74,16.98,0,18.74,10.58,18.74,17.44v1.48h-10.58v-1.39c0-6.03-2.6-9.55-9.28-9.55-4.55,0-8.91,2.5-8.91,9.55,0,5.66,2.88,8.53,9.93,11.22l7.14,2.6c9.37,3.34,13.45,8.35,13.45,17.53,0,14.1-8.53,19.94-21.89,19.94-16.42,0-20.13-10.95-20.13-20.22v-1.58h10.58Z"/>
    <path class="cls-1" d="M236.36,288.48v2.88c0,6.68.84,15.21,8.35,15.21s7.98-8.07,7.98-11.13h9.46c0,11.22-6.68,18-17.53,18-8.16,0-18.27-2.41-18.27-25.51,0-13.08,2.88-26.99,18.46-26.99,13.91,0,17.63,8.44,17.63,22.26v5.29h-26.07ZM252.41,281.61v-2.69c0-6.31-2.04-11.13-7.7-11.13-6.31,0-8.35,6.31-8.35,12.8v1.02h16.05Z"/>
    <path class="cls-1" d="M271.15,262.22h9.46v5.84h.28c2.5-4.45,7.24-7.14,11.97-7.14,7.14,0,10.11,3.43,11.6,7.61,2.88-4.82,6.59-7.61,12.62-7.61,7.05,0,12.15,3.62,12.15,13.26v37.94h-10.02v-34.23c0-6.59-1.95-9-6.03-9s-7.98,3.15-7.98,9.74v33.49h-10.02v-34.23c0-6.59-1.95-9-6.12-9s-7.88,3.25-7.88,9.74v33.49h-10.02v-49.91Z"/>
    <path class="cls-1" d="M372.08,301.74c0,1.86,1.11,3.52,2.6,3.52.74,0,1.3-.09,1.67-.28v6.49c-1.21.65-2.97,1.21-4.92,1.21-4.45,0-8.16-1.76-8.44-6.59h-.19c-2.69,4.92-6.49,7.33-12.43,7.33-8.07,0-12.99-4.36-12.99-14.01,0-11.13,4.92-13.45,11.6-15.68l7.79-2.13c3.62-1.02,5.84-2.04,5.84-6.4s-1.58-7.42-6.86-7.42c-6.68,0-7.61,4.73-7.61,9.55h-9.46c0-10.67,4.36-16.42,17.53-16.42,8.81,0,15.86,3.43,15.86,12.24v28.57ZM362.62,285.79c-2.78,2.04-8.07,3.15-11.13,4.64-2.88,1.39-4.08,4.36-4.08,8.07,0,4.17,2.04,7.51,6.22,7.51,6.03,0,9-4.45,9-11.87v-8.35Z"/>
    <path class="cls-1" d="M382.29,262.22h9.46v5.84h.28c2.5-4.45,7.24-7.14,12.8-7.14,7.61,0,12.43,3.43,12.43,13.54v37.66h-10.02v-34.23c0-6.68-1.76-9-6.96-9-4.08,0-7.98,3.06-7.98,9.74v33.49h-10.02v-49.91Z"/>
    <path class="cls-1" d="M422.46,262.22h6.86v-14.19h10.02v14.19h8.16v7.42h-8.16v29.78c0,3.99,1.11,5.29,4.55,5.29,1.48,0,2.69-.09,3.62-.28v7.42c-2.13.56-4.82.83-8.07.83-6.68,0-10.11-1.95-10.11-12.06v-30.98h-6.86v-7.42Z"/>
    <path class="cls-1" d="M453.16,245.16h10.02v10.02h-10.02v-10.02ZM453.16,262.22h10.02v49.91h-10.02v-49.91Z"/>
    <path class="cls-1" d="M506.96,293.95c-.74,11.97-4.64,19.48-17.07,19.48-14.47,0-18.55-10.67-18.55-26.25s4.08-26.25,18.55-26.25c14.84-.28,17.16,11.78,17.16,17.9h-10.02c0-4.64-1.21-10.76-7.14-10.48-7.14,0-8.53,7.79-8.53,18.83s1.39,18.83,8.53,18.83c5.57.09,7.61-4.54,7.61-12.06h9.46Z"/>
    <path class="cls-1" d="M533.19,245.9h35.81v8.91h-25.23v18.37h23.75v8.91h-23.75v21.15h25.97v8.9h-36.55v-66.23Z"/>
    <path class="cls-1" d="M577.16,262.22h9.46v5.84h.28c2.5-4.45,7.24-7.14,12.8-7.14,7.61,0,12.43,3.43,12.43,13.54v37.66h-10.02v-34.23c0-6.68-1.76-9-6.96-9-4.08,0-7.98,3.06-7.98,9.74v33.49h-10.02v-49.91Z"/>
    <path class="cls-1" d="M630.41,288.48v2.88c0,6.68.84,15.21,8.35,15.21s7.98-8.07,7.98-11.13h9.46c0,11.22-6.68,18-17.53,18-8.16,0-18.27-2.41-18.27-25.51,0-13.08,2.88-26.99,18.46-26.99,13.91,0,17.62,8.44,17.62,22.26v5.29h-26.07ZM646.45,281.61v-2.69c0-6.31-2.04-11.13-7.7-11.13-6.31,0-8.35,6.31-8.35,12.8v1.02h16.05Z"/>
    <path class="cls-1" d="M664.73,262.22h10.02v7.79h.19c2.23-5.57,5.94-9.09,11.6-9.09,1.02,0,1.86.09,2.41.37v10.2c-.74-.28-2.41-.56-4.17-.56-4.55,0-10.02,2.04-10.02,11.32v29.87h-10.02v-49.91Z"/>
    <path class="cls-1" d="M703.41,316.4c0,3.06,2.78,5.94,7.24,5.94,5.19,0,8.44-3.53,8.44-9.37v-8.07h-.19c-1.86,4.36-6.49,6.86-11.32,6.86-11.6,0-14.93-11.41-14.93-25.14,0-10.95,1.67-25.69,15.86-25.69,5.94,0,10.02,3.8,10.95,7.42h.19v-6.12h9.46v47.49c0,12.15-5.19,19.48-18.65,19.48-14.84,0-16.51-8.72-16.51-12.8h9.46ZM710.46,303.78c7.79,0,8.63-9.83,8.63-17.72s-1.02-17.16-7.98-17.16-8.44,7.42-8.44,16.7c0,8.53.37,18.18,7.79,18.18Z"/>
    <path class="cls-1" d="M744.69,262.22l8.63,37.48h.19l7.98-37.48h10.48l-13.73,51.76c-3.99,13.64-7.05,15.49-17.44,15.21-1.39,0-2.6-.09-3.99-.37v-7.98c1.11.28,2.13.37,3.25.37,3.43,0,5.66-.65,6.77-3.9l1.3-4.08-14.19-51.02h10.76Z"/>
    <path class="cls-1" d="M800.45,245.9h35.34v8.91h-24.77v18.37h23.28v8.91h-23.28v30.05h-10.58v-66.23Z"/>
    <path class="cls-1" d="M842.75,262.22h10.02v7.79h.19c2.23-5.57,5.94-9.09,11.6-9.09,1.02,0,1.86.09,2.41.37v10.2c-.74-.28-2.41-.56-4.17-.56-4.55,0-10.02,2.04-10.02,11.32v29.87h-10.02v-49.91Z"/>
    <path class="cls-1" d="M904.16,301.74c0,1.86,1.11,3.52,2.6,3.52.74,0,1.3-.09,1.67-.28v6.49c-1.21.65-2.97,1.21-4.92,1.21-4.45,0-8.16-1.76-8.44-6.59h-.19c-2.69,4.92-6.49,7.33-12.43,7.33-8.07,0-12.99-4.36-12.99-14.01,0-11.13,4.92-13.45,11.6-15.68l7.79-2.13c3.62-1.02,5.84-2.04,5.84-6.4s-1.58-7.42-6.86-7.42c-6.68,0-7.61,4.73-7.61,9.55h-9.46c0-10.67,4.36-16.42,17.53-16.42,8.81,0,15.86,3.43,15.86,12.24v28.57ZM894.7,285.79c-2.78,2.04-8.07,3.15-11.13,4.64-2.88,1.39-4.08,4.36-4.08,8.07,0,4.17,2.04,7.51,6.22,7.51,6.03,0,9-4.45,9-11.87v-8.35Z"/>
    <path class="cls-1" d="M914.83,262.22h9.46v5.84h.28c2.5-4.45,7.24-7.14,11.97-7.14,7.14,0,10.11,3.43,11.6,7.61,2.88-4.82,6.59-7.61,12.62-7.61,7.05,0,12.15,3.62,12.15,13.26v37.94h-10.02v-34.23c0-6.59-1.95-9-6.03-9s-7.98,3.15-7.98,9.74v33.49h-10.02v-34.23c0-6.59-1.95-9-6.12-9s-7.88,3.25-7.88,9.74v33.49h-10.02v-49.91Z"/>
    <path class="cls-1" d="M991.64,288.48v2.88c0,6.68.84,15.21,8.35,15.21s7.98-8.07,7.98-11.13h9.46c0,11.22-6.68,18-17.53,18-8.16,0-18.27-2.41-18.27-25.51,0-13.08,2.88-26.99,18.46-26.99,13.91,0,17.62,8.44,17.62,22.26v5.29h-26.07ZM1007.69,281.61v-2.69c0-6.31-2.04-11.13-7.7-11.13-6.31,0-8.35,6.31-8.35,12.8v1.02h16.05Z"/>
    <path class="cls-1" d="M1022.54,262.22h10.39l6.96,39.33h.19l7.42-39.33h11.32l7.42,39.33h.19l6.86-39.33h10.02l-11.41,49.91h-11.22l-7.79-38.77h-.19l-7.14,38.77h-11.69l-11.32-49.91Z"/>
    <path class="cls-1" d="M1087.01,287.18c0-15.58,4.08-26.25,18.55-26.25s18.65,10.67,18.65,26.25-4.82,26.25-18.65,26.25-18.55-10.67-18.55-26.25ZM1105.56,306.01c7.33,0,8.63-6.12,8.63-18.83,0-11.04-1.3-18.83-8.63-18.83s-8.53,7.79-8.53,18.83c0,12.71,1.39,18.83,8.53,18.83Z"/>
    <path class="cls-1" d="M1131.91,262.22h10.02v7.79h.19c2.23-5.57,5.94-9.09,11.6-9.09,1.02,0,1.86.09,2.41.37v10.2c-.74-.28-2.41-.56-4.17-.56-4.55,0-10.02,2.04-10.02,11.32v29.87h-10.02v-49.91Z"/>
    <path class="cls-1" d="M1161.13,245.9h10.02v37.2h.19l15.12-20.87,11.6-.09-15.03,19.3,16.98,30.7h-10.95l-12.24-22.73-5.66,6.86v15.86h-10.02v-66.23Z"/>
  </g>
  <g>
    <polygon class="cls-2" points="187.21 207.59 187.21 188.89 177.8 188.89 177.8 216.89 205.8 216.89 205.8 207.59 187.21 207.59"/>
    <polygon class="cls-1" points="224.5 170.19 177.8 170.19 177.8 184.19 187.09 184.19 187.09 179.6 215.21 179.6 215.21 207.59 210.5 207.59 210.5 216.89 224.5 216.89 224.5 170.19"/>
    <g>
      <path class="cls-1" d="M236.93,170.67h14.24v34.39h20.39v11.82h-34.63v-46.21Z"/>
      <path class="cls-1" d="M277.71,170.67h35.72v11.82h-21.48v5.79h18.46v10.98h-18.46v17.62h-14.24v-46.21h0Z"/>
    </g>
    <path class="cls-2" d="M350.11,217.13h-25.82v-46.58h25.82v3.02h-22.44v17.62h21.24v3.02h-21.24v20.03h22.44v2.9Z"/>
    <path class="cls-2" d="M395.12,217.13h-3.38l-27.99-41.39h-.12c.24,4.95.36,8.57.36,11.1v30.17h-3.14v-46.46h3.26l27.99,41.27h.24c-.24-3.86-.36-7.48-.36-10.86v-30.41h3.26v46.58h-.12Z"/>
    <path class="cls-2" d="M434.33,217.13h-25.82v-46.58h25.82v3.02h-22.44v17.62h21.24v3.02h-21.24v20.03h22.44v2.9Z"/>
    <path class="cls-2" d="M448.33,196.86v20.27h-3.26v-46.58h11.22c5.79,0,10.14,1.09,13.03,3.26,2.78,2.17,4.22,5.31,4.22,9.65,0,3.14-.84,5.79-2.53,7.96-1.69,2.17-4.22,3.74-7.6,4.59l12.79,21.24h-3.98l-12.19-20.27-11.7-.12h0ZM448.33,194.08h8.93c3.98,0,7.12-.84,9.29-2.65,2.17-1.81,3.26-4.34,3.26-7.72s-1.09-6.15-3.26-7.72c-2.17-1.69-5.67-2.41-10.62-2.41h-7.72v20.51h.12Z"/>
    <path class="cls-2" d="M502.38,193.11h17.01v20.75c-4.46,1.93-9.53,2.78-15.08,2.78-7.24,0-12.91-2.05-16.77-6.15-3.86-4.1-5.79-9.77-5.79-17.25,0-4.71.97-8.69,2.9-12.31,1.93-3.62,4.71-6.4,8.33-8.33,3.62-1.93,7.72-2.9,12.43-2.9,5.07,0,9.53.97,13.63,2.78l-1.33,2.9c-3.98-1.81-8.21-2.78-12.43-2.78-6.15,0-10.98,1.81-14.48,5.55-3.5,3.74-5.31,8.69-5.31,14.96,0,6.88,1.69,11.95,5.07,15.44,3.38,3.5,8.33,5.19,14.96,5.19,4.22,0,7.84-.6,10.86-1.81v-15.81h-13.76l-.24-3.02h0Z"/>
    <path class="cls-2" d="M541.96,195.89l13.76-25.34h3.5l-15.69,28.36v17.86h-3.38v-17.5l-15.69-28.72h3.74l13.76,25.34Z"/>
  </g>
  <path class="cls-3" d="M23.12,266.98c-2.07-.91-4.31-1.37-6.57-1.37-9.12,0-16.53,7.38-16.54,16.5,0,9.12,7.38,16.53,16.5,16.54,5.25,0,10.18-2.48,13.3-6.7l26.4,15.24c-3.63,8.37.2,18.09,8.57,21.73,8.37,3.63,18.09-.2,21.73-8.57,1.82-4.2,1.82-8.96,0-13.16l26.4-15.24c5.42,7.34,15.77,8.89,23.11,3.47,7.34-5.42,8.89-15.77,3.47-23.11-4.58-6.19-12.82-8.4-19.88-5.33l-9.53-16.5,9.53-16.5c2.07.91,4.31,1.38,6.57,1.37,9.12,0,16.53-7.38,16.54-16.5s-7.38-16.53-16.5-16.54c-5.25,0-10.18,2.48-13.3,6.7l-26.4-15.24c3.63-8.37-.2-18.09-8.57-21.73-8.37-3.63-18.09.2-21.73,8.57-1.82,4.2-1.82,8.96,0,13.16l-26.4,15.24c-5.42-7.34-15.77-8.89-23.11-3.47-7.34,5.42-8.89,15.77-3.47,23.11,4.58,6.19,12.83,8.41,19.89,5.33l9.53,16.5-9.53,16.5h0ZM34.82,254.22l6.59,11.4-11.59,6.69c-.97-1.31-2.13-2.47-3.44-3.45l8.44-14.63ZM71.36,203.71c2.27,0,4.51-.47,6.59-1.37l18.27,31.64-11.59,6.69c-5.41-7.33-15.73-8.88-23.05-3.48-1.33.98-2.5,2.15-3.48,3.48l-11.59-6.69,18.27-31.64c2.08.91,4.32,1.37,6.59,1.37h0ZM71.36,297.26c-2.27,0-4.51.47-6.59,1.37l-18.26-31.64,11.59-6.69c5.41,7.33,15.73,8.88,23.05,3.48,1.33-.98,2.5-2.15,3.48-3.48l11.59,6.69-18.27,31.64c-2.08-.91-4.32-1.37-6.59-1.37ZM86.51,257.07c1.82-4.2,1.82-8.97,0-13.17l11.57-6.68,7.66,13.27-7.66,13.27-11.57-6.68h0ZM56.21,243.9c-1.82,4.2-1.82,8.97,0,13.17l-11.57,6.68-7.66-13.27,7.66-13.27,11.57,6.68h0ZM31.7,288.71c1.82-4.2,1.82-8.97,0-13.17l11.57-6.68,18.27,31.64c-1.31.97-2.47,2.14-3.44,3.45l-26.4-15.24ZM84.63,303.95c-.97-1.31-2.13-2.48-3.44-3.45l18.27-31.64,11.57,6.68c-1.82,4.2-1.82,8.97,0,13.17l-26.4,15.24ZM116.35,268.86c-1.31.97-2.47,2.14-3.44,3.45l-11.59-6.68,6.59-11.4,8.44,14.63ZM107.91,246.74l-6.59-11.4,11.59-6.69c.97,1.31,2.13,2.47,3.44,3.45l-8.44,14.63ZM111.03,212.25c-1.82,4.2-1.82,8.97,0,13.17l-11.57,6.69-18.27-31.64c1.31-.97,2.47-2.14,3.44-3.45l26.4,15.24h0ZM58.1,197.01c.97,1.31,2.13,2.48,3.44,3.45l-18.27,31.64-11.57-6.68c1.82-4.2,1.82-8.97,0-13.17l26.4-15.24ZM26.37,232.11c1.31-.97,2.47-2.14,3.44-3.45l11.59,6.69-6.59,11.4-8.44-14.63Z"/>
</svg>