<?xml version="1.0" encoding="utf-8"?>
<!-- Generator: Adobe Illustrator 25.4.1, SVG Export Plug-In . SVG Version: 6.00 Build 0)  -->
<svg version="1.1" id="Layer_1" xmlns="http://www.w3.org/2000/svg" xmlns:xlink="http://www.w3.org/1999/xlink" x="0px" y="0px"
	 viewBox="0 0 1000 165" style="enable-background:new 0 0 1000 165;" xml:space="preserve">
<style type="text/css">
	.st0{fill:#FFFFFF;}
	.st1{fill:none;}
	.st2{fill:#FCB739;}
	.st3{fill:#FF7D08;}
	.st4{fill:#FE4A5D;}
	.st5{fill:#003764;}
	.st6{fill:#009ADE;}
</style>
<g>
	<polygon class="st0" points="210.2749634,42.2536697 195.9872437,42.2536697 195.9872437,18.2183304 186.1060791,18.2183304 
		186.1060791,50.5325394 210.2749634,50.5325394 	"/>
	<polygon class="st0" points="224.5626221,38.2478104 237.5150146,38.2478104 237.5150146,30.6366043 224.5626221,30.6366043 
		224.5626221,26.497139 239.5179443,26.497139 239.5179443,18.2183304 214.5479126,18.2183304 214.5479126,50.5325394 
		224.5626221,50.5325394 	"/>
	<polygon class="st0" points="265.1556396,48.6630936 249.5327148,48.6630936 249.5327148,34.7760086 264.3544922,34.7760086 
		264.3544922,32.639534 249.5327148,32.639534 249.5327148,20.354805 265.1556396,20.354805 265.1556396,18.2183304 
		247.1291504,18.2183304 247.1291504,50.7995682 265.1556396,50.7995682 	"/>
	<path class="st0" d="M274.6362915,21.823616l19.6288452,28.9759521h2.4035645h0.1335449V18.2183304h-2.2700195v21.2312012
		c0,2.4035645,0.1335449,4.9406128,0.2670288,7.6112061h-0.2670288l-19.6289062-28.8424072h-2.2699585v32.4476929h2.1364746
		V29.568367c0-1.7359009-0.1335449-4.2729492-0.2670898-7.744751H274.6362915z"/>
	<polygon class="st0" points="324.0422974,48.6630936 308.4193115,48.6630936 308.4193115,34.7760086 323.2410889,34.7760086 
		323.2410889,32.639534 308.4193115,32.639534 308.4193115,20.354805 324.0422974,20.354805 324.0422974,18.2183304 
		306.0157471,18.2183304 306.0157471,50.7995682 324.0422974,50.7995682 	"/>
	<path class="st0" d="M349.6799927,32.7730789c1.2017212-1.468811,1.7358398-3.3382568,1.7358398-5.6082764
		c0-3.071167-1.0682373-5.2076416-2.9376831-6.8099976c-2.0029297-1.468811-5.0740967-2.2700195-9.0799561-2.2700195h-7.8782959
		v32.7147827h2.2700195V36.5119095l8.1453247,0.1335449l8.6794434,14.1541138h2.8041382l-8.9464722-14.8217773
		C346.7423706,35.4436722,348.4782104,34.24189,349.6799927,32.7730789z M340.0658569,34.6424637h-6.2759399h-0.1334839V20.354805
		h5.3411865c3.4717407,0,5.8752441,0.5341187,7.4776611,1.7359009c1.468811,1.0682373,2.2700195,2.9376221,2.2700195,5.3411865
		c0,2.4035034-0.8012085,4.1394043-2.2700195,5.3411865C345.1399536,34.108345,342.8699951,34.6424637,340.0658569,34.6424637z"/>
	<path class="st0" d="M383.5964966,48.3960648V33.9748611h-11.8840942l0.1334839,2.1364746h9.6141968v11.0829468
		c-2.1364746,0.8011475-4.6735229,1.2017822-7.6112061,1.2017822c-4.673584,0-8.1453247-1.2017822-10.4153442-3.6053467
		c-2.4035034-2.4035034-3.6052856-6.0087891-3.6052856-10.8158569c0-4.4064941,1.2017822-7.8782959,3.7388306-10.4153442
		c2.4035034-2.6705933,5.8753052-3.8723755,10.1482544-3.8723755c2.9376831,0,5.8753052,0.6676636,8.6794434,2.0029297
		l0.9346924-2.0029297c-2.8041382-1.2017822-6.0088501-2.0029297-9.4805908-2.0029297
		c-3.3382568,0-6.142395,0.6676636-8.6794434,2.0029297c-2.5370483,1.3353271-4.4064941,3.3382568-5.8753052,5.8753052
		c-1.3352661,2.5370483-2.0029297,5.3411865-2.0029297,8.5458984c0,5.2077026,1.3352661,9.213562,4.0058594,12.0177002
		s6.6765137,4.2729492,11.7506104,4.2729492C376.9200439,50.3989944,380.5253296,49.8648758,383.5964966,48.3960648z"/>
	<polygon class="st0" points="398.0177612,50.5325394 400.4212646,50.5325394 400.4212646,37.9807205 411.3707275,18.2183304 
		408.9672241,18.2183304 399.3530273,35.8442459 389.7388916,18.2183304 387.0682983,18.2183304 398.0177612,38.2478104 	"/>
	<path class="st0" d="M165.3729248,120.5885086h12.9840088c0,16.880928-3.4624023,23.6970901-12.8753662,23.5884476
		c-8.3301392,0-12.4425659-6.2764282-12.4425659-31.1615677c0-24.6696167,4.6521606-30.5133057,13.4168091-30.5133057
		c8.4387207,0,10.8200073,6.8178711,10.8200073,12.5529175v1.8381348h11.6855469v-1.4070435
		c0-7.0317383-3.2451172-22.2883301-22.6141968-22.2883301c-17.8517456,0-25.6421509,12.5512085-25.6421509,40.1417847
		c0,27.5922928,6.0592041,40.1417923,22.9367065,40.1417923c9.0905151,0,13.5254517-3.3537598,16.8809204-10.4941406h0.2155151
		v8.9801636h9.3060913v-40.6831741h-24.6713257V120.5885086z"/>
	<path class="st0" d="M248.5995483,145.2598419c-0.2172241-4.6538696-0.3258667-10.7130737-0.4328003-15.6894531
		c-0.4328003-10.820015-4.4366455-15.0410843-12.1184082-15.7980423v-0.2155762
		c8.4387817-1.2984009,12.8753662-8.9801636,12.8753662-18.9362793c0-14.4979248-8.7645874-19.9088135-19.5845947-19.9088135
		h-27.2664185v77.2556839h12.3356323v-33.5411453h10.0630493c8.4387207,0,11.0355225,3.6779785,11.2528076,12.1184158
		c0.2155151,5.6246948,0.1069336,9.9526978,0.5397339,14.6065674c0.3258667,3.0296021,0.8656006,5.4091797,2.0570679,6.8161621
		h13.956543C250.6549072,150.8845367,248.8151245,149.046402,248.5995483,145.2598419z M224.2541504,109.1201859h-9.8458252
		v-25.102417h10.4941406c8.116272,0,11.6873169,4.3280029,11.6873169,12.5512085
		C236.5897827,104.3593826,232.1531372,109.1201859,224.2541504,109.1201859z"/>
	<rect x="261.0744019" y="74.7116776" class="st0" width="12.3339233" height="77.2556763"/>
	<path class="st0" d="M308.387085,74.7116776h-21.9658813v77.2556839h21.9658813
		c24.2368164,0,27.2647095-15.7980347,27.2647095-38.6278152S332.6239014,74.7116776,308.387085,74.7116776z
		 M308.9268188,142.6630402h-10.1699829V84.0177689h10.1699829c10.7130737,0,14.3909912,7.5748291,14.3909912,29.3217773
		C323.3178101,135.9537506,319.0984497,142.6630402,308.9268188,142.6630402z"/>
	<path class="st0" d="M405.5481567,125.566597c0,7.1403275-1.1897583,18.6103592-11.4700317,18.6103592
		c-9.0870972,0-13.199585-6.2764282-13.199585-31.1615677c0-24.8851929,4.1124878-30.5133057,13.199585-30.5133057
		c8.87323-0.3241577,11.0372314,7.8990479,11.0372314,15.0410767v1.2984009h12.3339844v-1.4069824
		c0-8.0076904-1.2967529-24.2368164-23.2626343-24.2368164c-19.5828857,0-25.6420898,12.5512085-25.6420898,40.1417847
		c0,27.5922928,6.0592041,40.1417923,25.5335083,40.1417923c18.1776123,0,23.8056641-13.6323853,23.8056641-27.5905838v-1.6225586
		h-12.3356323V125.566597z"/>
	<path class="st0" d="M443.1694946,74.7116776l-21.9658813,77.2556839h12.8754272l4.9780273-18.9345703h22.6142578
		l4.7608032,18.9345703h12.8753662l-20.3416138-77.2556839H443.1694946z M441.3297119,123.1853104l9.1957397-38.0864258h0.2172241
		l8.87323,38.0864258H441.3297119z"/>
	<path class="st0" d="M511.6707764,74.7116776h-24.4541016v77.2556839h12.3356934v-31.9185867h10.8200073
		c14.4979248,0,22.6124878-8.9818726,22.6124878-22.8314819C532.9848633,84.0177689,526.4945679,74.7116776,511.6707764,74.7116776z
		 M508.3169556,110.7427444h-8.7645874V84.0177689h7.8989868c9.8458252,0,13.199585,5.0849609,13.199585,13.4168091
		C520.6509399,107.1734085,514.9158936,110.7427444,508.3169556,110.7427444z"/>
	<path class="st0" d="M553.3688965,74.7116776l-21.9641724,77.2556839h12.8770752l4.9763794-18.9345703h22.6141968
		l4.7608032,18.9345703h12.8754272l-20.3416138-77.2556839H553.3688965z M551.5308228,123.1853104l9.1973877-38.0864258h0.2155762
		l8.871521,38.0864258H551.5308228z"/>
	<path class="st0" d="M630.3530273,125.566597c0,7.1403275-1.1897583,18.6103592-11.4700317,18.6103592
		c-9.0870972,0-13.199585-6.2764282-13.199585-31.1615677c0-24.8851929,4.1124878-30.5133057,13.199585-30.5133057
		c8.87323-0.3241577,11.0372314,7.8990479,11.0372314,15.0410767v1.2984009h12.3339844v-1.4069824
		c0-8.0076904-1.2967529-24.2368164-23.2625732-24.2368164c-19.5829468,0-25.6421509,12.5512085-25.6421509,40.1417847
		c0,27.5922928,6.0592041,40.1417923,25.5335083,40.1417923c18.1776123,0,23.8056641-13.6323853,23.8056641-27.5905838v-1.6225586
		h-12.3356323V125.566597z"/>
	<rect x="652.3936157" y="74.7116776" class="st0" width="12.3339233" height="77.2556763"/>
	<polygon class="st0" points="673.0016479,85.0988846 691.3965454,85.0988846 691.3965454,151.9673615 703.7321777,151.9673615 
		703.7321777,85.0988846 721.8011475,85.0988846 721.8011475,74.7116776 673.0016479,74.7116776 	"/>
	<polygon class="st0" points="754.1083984,108.0390091 741.1243896,74.7116776 727.3834229,74.7116776 747.2922363,121.7799759 
		747.2922363,151.9673615 759.6262207,151.9673615 759.6262207,121.7799759 780.2937012,74.7116776 767.416626,74.7116776 	"/>
	<polygon class="st0" points="843.1549072,131.9499664 842.9376831,131.9499664 829.3052979,74.7116776 810.0448608,74.7116776 
		810.0448608,151.9673615 821.7304688,151.9673615 821.7304688,87.6956863 821.9476929,87.6956863 837.5285034,151.9673615 
		847.9157104,151.9673615 863.496521,87.6956863 863.7120972,87.6956863 863.7120972,151.9673615 875.3977051,151.9673615 
		875.3977051,74.7116776 856.5717163,74.7116776 	"/>
	<path class="st0" d="M905.3898926,74.7116776l-21.9658813,77.2556839h12.8753662l4.9780884-18.9345703h22.6141968
		l4.7608032,18.9345703h12.8753662l-20.3416138-77.2556839H905.3898926z M903.5500488,123.1853104l9.1957397-38.0864258h0.2172241
		l8.873291,38.0864258H903.5500488z"/>
	<path class="st0" d="M973.8894043,74.7116776h-24.4540405v77.2556839h12.3356323v-31.9185867h10.8200073
		c14.4979858,0,22.6142578-8.9818726,22.6142578-22.8314819C995.2052612,84.0177689,988.7115479,74.7116776,973.8894043,74.7116776z
		 M970.5339355,110.7427444h-8.7629395V84.0177689h7.8973389c9.8474731,0,13.2012329,5.0849609,13.2012329,13.4168091
		C982.8695679,107.1734085,977.1345825,110.7427444,970.5339355,110.7427444z"/>
	<polygon class="st0" points="164.3406982,44.1231155 151.3883057,44.1231155 151.3883057,31.037178 144.711853,31.037178 
		144.711853,50.5325394 164.3406982,50.5325394 	"/>
	<polygon class="st0" points="151.2548218,24.4942093 170.883667,24.4942093 170.883667,44.1231155 167.6789551,44.1231155 
		167.6789551,50.5325394 177.4266357,50.5325394 177.4266357,17.9512405 144.711853,17.9512405 144.711853,27.6989212 
		151.2548218,27.6989212 	"/>
	<path class="st0" d="M61.2980957,1.905404c-31.1557007,0-56.5033569,25.3476562-56.5033569,56.5032959
		c0,37.3082275,51.0628052,98.1311111,53.236145,100.7024612l3.3690186,3.9834595l3.3088379-4.0327148
		c2.1673584-2.6442871,53.0917969-65.1372757,53.0917969-100.6532059
		C117.8005371,27.2530594,92.4537354,1.905404,61.2980957,1.905404z M92.6671143,22.3705521l-33.8881836,8.7678223
		l-5.1536865-19.9192505c2.4995728-0.4050293,5.0606689-0.6237793,7.6728516-0.6237793
		C73.2944336,10.5953455,84.2639771,15.0463343,92.6671143,22.3705521z M61.2980957,40.0333939
		c4.7828369,0,9.2805786,1.8635864,12.664917,5.2470703c3.3758545,3.3757935,5.2360229,7.8735352,5.2360229,12.6640625
		c0,4.7904663-1.8601685,9.288208-5.2360229,12.663208c-2.0141602,2.0141602-4.4328003,3.4743042-7.0689087,4.3361206
		l-2.2573853,0.5840454c-1.0899048,0.2037354-2.2050781,0.3158569-3.338623,0.3158569
		c-4.7905273,0-9.288269-1.859314-12.664917-5.2360229c-3.3758545-3.375-5.2352295-7.8727417-5.2352295-12.663208
		c0-4.7905273,1.859375-9.288269,5.236084-12.664917c2.0831909-2.0842285,4.5917969-3.5859985,7.328125-4.4361572
		l1.4411621-0.3729248C58.6691284,40.1909866,59.9703979,40.0333939,61.2980957,40.0333939z M63.2727661,122.5416336
		l20.9712524-5.4259644c-5.7805176,8.9838867-11.6014404,17.1740189-16.2935791,23.5054398L63.2727661,122.5416336z
		 M45.7211304,89.3973465l6.9622803,26.9095459l-13.0380249,3.3733521
		c-5.1658325-7.8154907-10.3518677-16.3496094-14.7370605-24.8983765L45.7211304,89.3973465z M54.1342773,87.2207108
		l12.2803345-3.177063c1.0549927-0.2039795,2.0906982-0.4754639,3.1062012-0.8035889l10.9569092-2.8347168l7.1381836,26.8633423
		l-26.5194092,6.8614502L54.1342773,87.2207108z M88.8905029,78.2288895l17.444458-4.5131226
		c-2.6014404,8.2384033-6.8145142,17.2161865-11.7108154,26.09198L88.8905029,78.2288895z M45.210083,13.387826
		l5.1557617,19.9272461L16.3463135,42.11689C21.1986084,28.7700882,31.8355713,18.1817703,45.210083,13.387826z
		 M13.963623,51.7096024l23.7886353-6.1547852c-1.9875488,3.7723389-3.0442505,7.9978027-3.0442505,12.3897095
		c0,7.1123657,2.7631226,13.7918701,7.7810669,18.8081055c1.2937622,1.2940063,2.6998291,2.4349976,4.1936646,3.4203491
		l-25.618103,6.6279297c-4.560791-10.1908569-7.5799561-20.0709229-7.5799561-28.3922119
		C13.4846802,56.1344681,13.6550293,53.9000931,13.963623,51.7096024z M44.828186,127.3137894l10.0314941-2.595459
		l6.3485107,24.5374222C57.5753174,144.7124786,51.4764404,136.8524323,44.828186,127.3137894z M108.6394653,64.1434402
		l-23.7753296,6.1511841c1.9744873-3.7623291,3.0248413-7.9733887,3.0248413-12.3500977
		c0-7.1123657-2.7639771-13.7919312-7.7819214-18.8098145c-1.3047485-1.3043213-2.7229004-2.4528809-4.229126-3.4440308
		l23.5478516-6.0925293c6.0734863,8.0180664,9.6848145,17.9992065,9.6848145,28.8105469
		C109.1105957,60.2302322,108.9411011,62.1507034,108.6394653,64.1434402z"/>
</g>
</svg>
