<svg id="Layer_1" data-name="Layer 1" xmlns="http://www.w3.org/2000/svg" viewBox="0 0 396.95 113.22"><defs><style>.cls-1,.cls-10,.cls-11,.cls-12,.cls-2,.cls-3,.cls-4,.cls-5,.cls-6,.cls-7,.cls-8,.cls-9{fill:#fff;}.cls-2{opacity:0.65;}.cls-3{opacity:0.6;}.cls-4{opacity:0.9;}.cls-5{opacity:0.7;}.cls-6{opacity:0.75;}.cls-7{opacity:0.3;}.cls-8{opacity:0.8;}.cls-9{opacity:0.45;}.cls-10{opacity:0.55;}.cls-11{opacity:0.5;}.cls-12{opacity:0.2;}</style></defs><polygon class="cls-1" points="149.96 21.79 149.96 10.99 144.51 10.99 144.51 27.14 160.67 27.14 160.67 21.79 149.96 21.79"/><polygon class="cls-1" points="171.47 0.19 144.51 0.19 144.51 8.22 149.87 8.22 149.87 5.54 166.11 5.54 166.11 21.79 163.44 21.79 163.44 27.14 171.47 27.14 171.47 0.19"/><path class="cls-1" d="M180.16,66.37h8.22V86.15h11.75v6.78h-20V66.37Z" transform="translate(-1.53 -65.89)"/><path class="cls-1" d="M203.67,66.37h20.64v6.78H211.89V76.5H222.5v6.3H211.89V92.93h-8.22Z" transform="translate(-1.53 -65.89)"/><path class="cls-1" d="M245.43,93.13h-14.9V66.27h14.9V68h-13V78.12h12.23v1.72H232.44V91.31h13Z" transform="translate(-1.53 -65.89)"/><path class="cls-1" d="M271.43,93.13h-1.91l-16.15-23.8h-.19c.19,2.87.19,5,.19,6.4v17.4h-1.72V66.27h1.91l16.15,23.8h.09c-.09-2.2-.19-4.3-.19-6.31V66.27h1.82V93.13Z" transform="translate(-1.53 -65.89)"/><path class="cls-1" d="M294,93.13H279.07V66.27H294V68H281V78.12h12.23v1.72H281V91.31h13Z" transform="translate(-1.53 -65.89)"/><path class="cls-1" d="M302.11,81.47V93.13H300.2V66.27h6.49c3.35,0,5.83.57,7.46,1.82a6.47,6.47,0,0,1,2.39,5.54,7.29,7.29,0,0,1-1.44,4.59,8,8,0,0,1-4.39,2.67l7.36,12.24h-2.3l-7-11.66Zm0-1.63h5.16a8.12,8.12,0,0,0,5.35-1.53,5.5,5.5,0,0,0,1.91-4.49,5.31,5.31,0,0,0-1.81-4.49c-1.25-1-3.25-1.43-6.12-1.43h-4.49Z" transform="translate(-1.53 -65.89)"/><path class="cls-1" d="M333.26,79.36h9.85v12a22.79,22.79,0,0,1-8.7,1.62c-4.21,0-7.46-1.14-9.65-3.53s-3.35-5.64-3.35-9.94A15.11,15.11,0,0,1,323,72.39a11.42,11.42,0,0,1,4.78-4.78A14.67,14.67,0,0,1,335,65.89a18.84,18.84,0,0,1,7.84,1.62l-.77,1.63a17.06,17.06,0,0,0-7.16-1.63c-3.54,0-6.31,1-8.32,3.25a12.33,12.33,0,0,0-3.06,8.6c0,3.92,1,6.88,3,8.89s4.78,3,8.6,3a16.85,16.85,0,0,0,6.21-1V80.89h-7.93V79.36Z" transform="translate(-1.53 -65.89)"/><path class="cls-1" d="M356,80.89l7.93-14.62h2l-9,16.34V92.93h-1.91V82.8L346,66.27h2.2Z" transform="translate(-1.53 -65.89)"/><path class="cls-1" d="M152.08,155.15v1.74c0,8.4,3.67,12.64,11.29,12.64,6.95,0,10.42-4.92,10.42-10,0-7.24-3.66-10.43-9.84-12.26l-7.53-2.61c-10-3.86-14.38-9.07-14.38-18.91,0-12.55,8.49-19.5,21.43-19.5,17.66,0,19.49,11,19.49,18.15v1.54H172v-1.45c0-6.27-2.8-9.94-9.65-9.94-4.73,0-9.27,2.61-9.27,9.94,0,5.89,3,8.88,10.33,11.68l7.43,2.7c9.75,3.48,14,8.78,14,18.24,0,14.67-8.88,20.75-22.78,20.75-17.08,0-20.94-11.38-20.94-21v-1.64Z" transform="translate(-1.53 -65.89)"/><path class="cls-1" d="M192,142c0-24.61,6.95-35.81,22.78-35.81s22.78,11.2,22.78,35.81-7,35.8-22.78,35.8S192,166.64,192,142Zm34.55-.29c0-23.17-5.21-27.22-11.77-27.22s-11.77,4-11.77,27.22c0,23.74,5.21,27.79,11.77,27.79S226.58,165.48,226.58,141.74Z" transform="translate(-1.53 -65.89)"/><path class="cls-1" d="M281.4,168.47h-.19c-3,6.37-6.95,9.36-15,9.36-15.06,0-20.46-11.19-20.46-35.8s6.94-35.81,22.87-35.81c17.27,0,20.17,13.61,20.17,19.88v1.26H278.32v-1.64c0-5.12-2.13-11.2-9.65-11.2-7.82,0-12,5.21-12,27.22,0,22.2,3.67,27.79,11.1,27.79,8.39.1,11.48-6,11.48-21H267.7v-8.3h22v36.29h-8.3Z" transform="translate(-1.53 -65.89)"/><path class="cls-1" d="M299.16,107.57h13.42l20,51.35h.19V107.57h10.42v68.91H329.76l-20-52.69h-.19v52.69H299.16Z" transform="translate(-1.53 -65.89)"/><path class="cls-1" d="M352.92,142c0-24.61,6.95-35.81,22.78-35.81s22.77,11.2,22.77,35.81-7,35.8-22.77,35.8S352.92,166.64,352.92,142Zm34.55-.29c0-23.17-5.21-27.22-11.77-27.22s-11.78,4-11.78,27.22c0,23.74,5.21,27.79,11.78,27.79S387.47,165.48,387.47,141.74Z" transform="translate(-1.53 -65.89)"/><path class="cls-2" d="M75.5,78C76.07,79,76.73,80,77.25,81.1c4.36-.08,8.72,0,13.07,0-.28-.5-.58-1-.85-1.49-1.73-2.92-3.38-5.89-5.09-8.81h-13c.85,1.49,1.71,3,2.55,4.47C74.48,76.1,75,77.05,75.5,78Z" transform="translate(-1.53 -65.89)"/><polygon class="cls-1" points="44.8 5.09 44.82 5.22 44.91 5.01 44.8 5.09"/><polygon class="cls-1" points="52.63 5.48 52.6 5.34 52.5 5.54 52.63 5.48"/><polygon class="cls-1" points="52.32 5.87 52.45 5.82 52.46 5.68 52.35 5.75 52.32 5.87"/><polygon class="cls-1" points="54.48 5.92 54.51 6.05 54.6 5.85 54.48 5.92"/><polygon class="cls-1" points="52.17 6.2 52.3 6.13 52.27 5.99 52.17 6.07 52.17 6.2"/><polygon class="cls-1" points="44.15 6.23 44.13 6.35 44.27 6.19 44.15 6.23"/><path class="cls-1" d="M45.63,72.33a.68.68,0,0,0-.3.5A.39.39,0,0,0,45.63,72.33Z" transform="translate(-1.53 -65.89)"/><polygon class="cls-1" points="51.96 6.65 51.94 6.51 51.83 6.71 51.96 6.65"/><polygon class="cls-1" points="51.79 6.98 51.78 6.84 51.66 7.04 51.79 6.98"/><polygon class="cls-1" points="43.64 7.07 43.65 7.21 43.77 7.02 43.64 7.07"/><path class="cls-1" d="M52.83,73.45a.44.44,0,0,0,.32-.46C53,73,52.85,73.18,52.83,73.45Z" transform="translate(-1.53 -65.89)"/><polygon class="cls-1" points="43.48 7.4 43.46 7.52 43.6 7.35 43.48 7.4"/><path class="cls-1" d="M45,73.5a.64.64,0,0,0-.31.49A.39.39,0,0,0,45,73.5Z" transform="translate(-1.53 -65.89)"/><polygon class="cls-1" points="51.28 7.83 51.29 7.7 51.16 7.87 51.28 7.83"/><polygon class="cls-1" points="53.32 7.91 53.32 8.04 53.45 7.85 53.32 7.91"/><polygon class="cls-1" points="51 8.21 51.12 8.15 51.11 8.01 51 8.08 51 8.21"/><polygon class="cls-1" points="42.98 8.24 42.98 8.38 43.1 8.19 42.98 8.24"/><path class="cls-3" d="M56,71.94a2.45,2.45,0,0,0-.41.6c-.18.44-.52.74-.66,1.2l-.12.19,0,.11a1.77,1.77,0,0,0-.34.53v.13l-.11.07,0,.14-.12.2c-.09.12-.17.24-.25.37l0,.07-.1.19-.1.21A6.37,6.37,0,0,0,53,77.1a7.89,7.89,0,0,0-.55,1l-.1.21a3.27,3.27,0,0,0-.25.36l0,.09,0,.08-.09.11-.14.31-.1.2c-.14.21-.27.43-.39.64l-.11.2-.06.14-.14.15,0,.11c.06.29,0,.45-.29.49l0,.08-.12.19,0,.15-.15.15,0,.12.08.15a9,9,0,0,0,1.47.06c2.67,0,5.34,0,8,0a19.43,19.43,0,0,1,2.16,0v.38a.85.85,0,0,0,.36-.54l.12-.2,0-.13.11-.2.06-.15,0-.11c4.83-.07,9.68,0,14.5-.05C76.73,80,76.07,79,75.5,78s-1-1.86-1.6-2.74c-.84-1.5-1.7-3-2.55-4.47-4.86,0-9.76,0-14.62,0a3.13,3.13,0,0,0-.6,1Z" transform="translate(-1.53 -65.89)"/><path class="cls-1" d="M52.16,74.61a.41.41,0,0,0,.32-.46A.44.44,0,0,0,52.16,74.61Z" transform="translate(-1.53 -65.89)"/><polygon class="cls-1" points="52.95 8.69 52.82 8.74 52.82 8.88 52.93 8.81 52.95 8.69"/><path class="cls-1" d="M44.29,74.69a.57.57,0,0,0-.3.48A.37.37,0,0,0,44.29,74.69Z" transform="translate(-1.53 -65.89)"/><polygon class="cls-1" points="50.61 8.99 50.62 8.86 50.48 9.04 50.61 8.99"/><polygon class="cls-1" points="52.65 9.08 52.67 9.22 52.78 9.02 52.65 9.08"/><polygon class="cls-1" points="50.33 9.38 50.46 9.31 50.44 9.17 50.33 9.24 50.33 9.38"/><polygon class="cls-1" points="42.3 9.42 42.32 9.56 42.42 9.36 42.3 9.42"/><polygon class="cls-1" points="50.12 9.82 50.1 9.68 50 9.88 50.12 9.82"/><polygon class="cls-1" points="52.15 9.92 52.17 10.06 52.27 9.85 52.15 9.92"/><polygon class="cls-1" points="49.95 10.16 49.95 10.02 49.81 10.21 49.95 10.16"/><polygon class="cls-1" points="41.93 10.18 41.8 10.25 41.82 10.39 41.92 10.31 41.93 10.18"/><polygon class="cls-1" points="49.66 10.54 49.79 10.47 49.77 10.33 49.66 10.41 49.66 10.54"/><polygon class="cls-1" points="49.46 10.98 49.43 10.84 49.34 11.05 49.46 10.98"/><polygon class="cls-1" points="41.26 11.36 41.13 11.42 41.15 11.56 41.25 11.48 41.26 11.36"/><polygon class="cls-1" points="48.79 12.15 48.77 12 48.67 12.21 48.79 12.15"/><polygon class="cls-1" points="50.81 12.25 50.83 12.4 50.94 12.19 50.81 12.25"/><path class="cls-4" d="M45.65,72.24l0,.09a.39.39,0,0,1-.3.5l0,.08-.13.19,0,.14-.14.17,0,.09a.39.39,0,0,1-.31.49l0,.08-.13.2,0,.14-.14.16,0,.12a.37.37,0,0,1-.3.48l0,.07-.1.21-.26.36,0,.08-.09.18v.13l-.1.08c-.21.31-.38.64-.56,1v.13l-.1.08c-.16.24-.3.5-.45.75l-.12.21v.13l-.1.07,0,.14-.12.18-.21.32-.11.19,0,.14-.14.18c-.07.14-.15.27-.23.4l0,.06-.1.19-.12.2-.05.14-.13.19c-.08.12-.16.25-.23.38l-.06.09,0,.07-.06.09L40,82.1A13.46,13.46,0,0,1,42,82h5.18a.51.51,0,0,1,.54.24l.11,0a8.58,8.58,0,0,0,.54-1l.13-.18V81a.41.41,0,0,1,.34-.45l0-.07.13-.19.05-.14.11-.21a3.73,3.73,0,0,0,.4-.63v-.12l.09-.09.27-.37a4.68,4.68,0,0,0,.3-.59l.1-.21a3.87,3.87,0,0,0,.57-1l.1-.2.23-.3V76.3l.11-.08,0-.12.13-.19.05-.14.11-.2a2.26,2.26,0,0,1,.23-.31v-.13l.11-.08,0-.12.14-.18v-.14a.44.44,0,0,1,.32-.46l0-.06V74l.11-.08,0-.13.14-.17v-.14c0-.27.12-.42.32-.46l0-.07.13-.19,0-.14.1-.2.23-.3V72l.11-.08.05-.12,0-.12.11-.07.05-.14.1-.2a5.58,5.58,0,0,1,.37-.48c-2.61,0-5.38,0-8,0l-.1.13-.09.21a5.2,5.2,0,0,0-.56,1Z" transform="translate(-1.53 -65.89)"/><polygon class="cls-1" points="40.59 12.53 40.47 12.59 40.47 12.72 40.58 12.65 40.59 12.53"/><path class="cls-5" d="M29.63,82H36a7,7,0,0,1,1.77.1C38.29,81,38.94,80,39.52,79c.46-.77.9-1.54,1.34-2.31,1.16-2,2.26-4,3.44-5.9-3.59,0-7.19,0-10.78,0-1,1.83-2.09,3.64-3.13,5.46-.45.77-.9,1.55-1.34,2.33-.67,1.12-1.3,2.26-2,3.39A21.54,21.54,0,0,0,29.63,82Z" transform="translate(-1.53 -65.89)"/><polygon class="cls-1" points="40.31 12.91 40.3 13.04 40.42 12.86 40.31 12.91"/><polygon class="cls-1" points="48 13.38 48.12 13.31 48.1 13.17 48.01 13.26 48 13.38"/><polygon class="cls-1" points="39.98 13.43 39.98 13.56 40.09 13.36 39.98 13.43"/><polygon class="cls-1" points="50.15 13.42 50.16 13.56 50.27 13.35 50.15 13.42"/><path class="cls-5" d="M90.32,81.05c-4.35.07-8.71,0-13.07,0-4.82.07-9.67,0-14.5.05l0,.11H89.55c2.89-.07,5.8,0,8.69,0l-.86-1.47c-1.74-3-3.45-6-5.2-9h-7.8c1.71,2.92,3.36,5.89,5.09,8.81C89.74,80.06,90,80.55,90.32,81.05Z" transform="translate(-1.53 -65.89)"/><polygon class="cls-1" points="39.81 13.74 39.8 13.88 39.94 13.69 39.81 13.74"/><polygon class="cls-1" points="47.62 14.16 47.6 14.02 47.49 14.22 47.62 14.16"/><polygon class="cls-1" points="49.64 14.26 49.66 14.39 49.77 14.2 49.64 14.26"/><polygon class="cls-1" points="47.44 14.49 47.45 14.36 47.32 14.55 47.44 14.49"/><polygon class="cls-1" points="39.3 14.58 39.31 14.72 39.43 14.52 39.3 14.58"/><path class="cls-1" d="M48.48,81c.18,0,.29-.18.34-.45A.41.41,0,0,0,48.48,81Z" transform="translate(-1.53 -65.89)"/><polygon class="cls-1" points="39.14 14.91 39.13 15.05 39.26 14.86 39.14 14.91"/><path class="cls-1" d="M51,80.68a.74.74,0,0,0-.29.49C50.92,81.13,51,81,51,80.68Z" transform="translate(-1.53 -65.89)"/><polygon class="cls-1" points="46.95 15.33 46.95 15.2 46.83 15.38 46.95 15.33"/><polygon class="cls-1" points="48.98 15.42 48.99 15.55 49.11 15.36 48.98 15.42"/><polygon class="cls-1" points="61.14 15.66 61.12 15.53 61.01 15.72 61.14 15.66"/><polygon class="cls-1" points="60.97 15.99 60.96 15.85 60.84 16.05 60.97 15.99"/><path class="cls-6" d="M29.46,94.21a3.07,3.07,0,0,1,1,.08l.09.35c2.36-4.18,4.84-8.37,7.23-12.55A7,7,0,0,0,36,82H29.63a21.54,21.54,0,0,1-2.54-.06c-1,1.5-1.8,3.07-2.7,4.61-1.5,2.55-2.95,5.18-4.47,7.71C23.1,94.17,26.28,94.24,29.46,94.21Z" transform="translate(-1.53 -65.89)"/><path class="cls-1" d="M50.36,82l-.08-.15a.65.65,0,0,0-.28.48A.71.71,0,0,0,50.36,82Z" transform="translate(-1.53 -65.89)"/><path class="cls-1" d="M47.16,82H42a13.46,13.46,0,0,0-2,.06,4.55,4.55,0,0,0-.35.65v.13l-.1.07c-.61,1-1.18,2-1.72,3l0,.13-.1.08a9.23,9.23,0,0,0-.56,1v.13l-.1.07a5.57,5.57,0,0,0-.55,1l-.15.16,0,.09A.44.44,0,0,1,36,89l-.05,0-.1.21a9.23,9.23,0,0,0-.56,1v.13l-.11.07,0,.14-.15.17,0,.09a.43.43,0,0,1-.3.51l0,.06-.09.21a3.45,3.45,0,0,0-.56,1l-.14.18v.07a.47.47,0,0,1-.31.52l-.05.06v.13l-.11.08,0,.13-.15.17,0,.09a.38.38,0,0,1-.32.48,2.22,2.22,0,0,1-.36.59v.13l-.1.08-.06.13v.12l-.11.08a7,7,0,0,0-.55,1l0,.13-.09.08a6.16,6.16,0,0,0-.56,1v.13l-.1.07a3.62,3.62,0,0,1-.22.32l-.1.19-.05.13,0,.13-.13.06,0,.14-.12.2c-.08.11-.15.23-.23.35l-.07.12c-.24.45-.55.87-.75,1.33l0,.13-.1.07a3.45,3.45,0,0,1-.2.32,5.07,5.07,0,0,0,.37.64l.1.08v.12c.07.12.14.23.2.35l.11.15a13,13,0,0,0,.74,1.31l.11.07v.13c.14.34.38.64.55,1l.12.2,0,.15.13,0,0,.14,0,.13.11.07v.13a3.72,3.72,0,0,1,.38.64l.11.07V107a1.6,1.6,0,0,1,.22.31l.12.19,0,.15.13,0,0,.14,0,.13.11.07v.13a2.77,2.77,0,0,1,.38.64l.12.07V109l.18.35.11,0,0,.11,0,.15.11.06,0,.12c.35.74.85,1.41,1.22,2.15L35,112v.13l.19.35.13.15,0,.14.11.07V113a10.56,10.56,0,0,0,.56,1l.12.19,0,.13.12.07v.14a1.66,1.66,0,0,1,.22.3l.1.2a9.46,9.46,0,0,0,.57,1l.12.2,0,.15.12,0,0,.13,0,.14.12.06,0,.13.21.31.11.2,0,.14.12,0v.14c.06.12.12.24.19.36l.1,0,0,.1.05.14.13.19.05.14.11.07v.13l.22.3.09.2a7.25,7.25,0,0,0,.57,1l.12.2,0,.14.13,0v.14l.18.35.11,0,0,.11,0,.15.13.18,0,.14.13.06V122l.19.35.08.05,0,.09a5.33,5.33,0,0,0,.57,1l.1.2a5.17,5.17,0,0,0,.39.68l.1.15a12.17,12.17,0,0,0,.74,1.31l.1.07V126c.49.89,1,1.78,1.55,2.66l.11.17a12.17,12.17,0,0,0,.74,1.31l.12.19.05.13.11.08v.13l.21.27.31.15c.45-.81,1-1.61,1.38-2.43l.1-.18a3.3,3.3,0,0,0,.39-.65v-.13l.11-.06,0-.15.12-.16c.32-.48.57-1,.88-1.5v-.14l.12,0,0-.15.13-.17v-.11a.37.37,0,0,1,.33-.45l0-.11v-.34l0-.15-.12-.06V124a3.46,3.46,0,0,1-.22-.31l-.1-.19c-.15-.35-.38-.64-.56-1l-.1-.08v-.12a3.25,3.25,0,0,0-.38-.65l-.13-.19,0-.14-.11-.06v-.13c-.14-.35-.39-.64-.56-1l-.13-.2,0-.13-.14-.06v-.15l-.21-.29-.1-.2a2.57,2.57,0,0,0-.27-.49l-.08-.13c-.07-.12-.14-.24-.22-.36l-.12-.19,0-.14-.13-.06v-.14a3.45,3.45,0,0,1-.2-.32l-.13-.18,0-.14-.12-.06,0-.13,0-.14-.13-.06v-.14a3.3,3.3,0,0,1-.22-.3L45,116l0-.15-.12,0,0-.14,0-.13-.12-.06v-.14l-.21-.3-.09-.08v-.12a3.34,3.34,0,0,0-.4-.65l-.09-.19a1.53,1.53,0,0,0-.25-.47l-.12-.2,0-.14-.13-.05,0-.13,0-.13-.12-.07v-.14a2.18,2.18,0,0,1-.22-.31l-.1-.19a2.42,2.42,0,0,0-.4-.65l-.11-.19,0-.15-.12,0,0-.13,0-.14-.13-.06v-.14a2,2,0,0,1-.21-.3l-.12-.2,0-.15-.13,0,0-.14,0-.14-.12-.05v-.14a2.11,2.11,0,0,1-.21-.31L41,109l0-.14-.13,0,0-.13,0-.13-.12-.07v-.14a1.6,1.6,0,0,1-.22-.31l-.1-.19a3.34,3.34,0,0,0-.4-.65l-.11-.19,0-.15-.12,0,0-.13,0-.13-.13-.07v-.14a2.32,2.32,0,0,1-.22-.3l-.11-.2,0-.14-.12-.06,0-.13,0-.08a.41.41,0,0,1-.33-.44v-.13l-.13-.18a4,4,0,0,0-.56-1l-.11-.21,0-.12-.12-.08v-.14a1.16,1.16,0,0,1-.22-.31l-.12-.19,0-.14-.12,0,0-.14,0-.12-.12-.08v-.14a.86.86,0,0,1-.28-.49A1.41,1.41,0,0,0,37,101l0-.14.13,0,0-.14.12-.2a1.6,1.6,0,0,1,.22-.31V100l.12-.08,0-.12,0-.13.11-.06,0-.14.12-.2a3,3,0,0,0,.39-.64l.1-.2a2.32,2.32,0,0,1,.22-.3V98l.12-.07,0-.13,0-.13.12,0,0-.15.12-.19a1.21,1.21,0,0,1,.21-.31v-.14l.13-.06,0-.13,0-.14.12,0,0-.15.11-.2a1.66,1.66,0,0,1,.22-.3v-.14l.12-.07,0-.13,0-.13.12,0,0-.15.11-.2a2.65,2.65,0,0,0,.4-.64l.09-.22a4.13,4.13,0,0,0,.57-.95V93l.09-.09a4.36,4.36,0,0,0,.57-1v-.13l.09-.08a3.4,3.4,0,0,1,.23-.3v-.14l.11-.08.07-.11.1-.22a3.35,3.35,0,0,0,.56-1l.11-.21a4.2,4.2,0,0,0,.57-1v-.12l.1-.08a4.22,4.22,0,0,0,.56-1l.1-.21a3.25,3.25,0,0,1,.23-.29V87l.11-.09.07-.11.09-.21a3.58,3.58,0,0,0,.57-1l.1-.21a3.81,3.81,0,0,0,.57-1v-.13l.09-.08a3,3,0,0,1,.23-.3V83.8l.12-.08,0-.11,0-.13.12-.06,0-.14.11-.2a2.2,2.2,0,0,0,.4-.65v-.15A.51.51,0,0,0,47.16,82Z" transform="translate(-1.53 -65.89)"/><polygon class="cls-1" points="46.16 16.54 46.28 16.5 46.28 16.38 46.17 16.39 46.16 16.54"/><polygon class="cls-1" points="48.31 16.59 48.33 16.74 48.44 16.53 48.31 16.59"/><polygon class="cls-1" points="60.46 16.84 60.47 16.7 60.33 16.88 60.46 16.84"/><polygon class="cls-1" points="38.09 16.86 37.96 16.93 37.98 17.07 38.08 16.99 38.09 16.86"/><polygon class="cls-1" points="60.18 17.22 60.31 17.15 60.29 17.01 60.17 17.08 60.18 17.22"/><polygon class="cls-1" points="45.78 17.33 45.76 17.19 45.65 17.39 45.78 17.33"/><path class="cls-1" d="M96.55,91.87c-1.55-2.75-3.13-5.49-4.7-8.23a3.71,3.71,0,0,1-.19-.46c2.58,0,5.19,0,7.76,0l-.52,0q-17.5,0-35,0a2.51,2.51,0,0,0-.26.45l-.09.18a1.34,1.34,0,0,1-.22.31v.14l-.13.06,0,.14v.13l-.12.06-.05.15-.11.18a1.6,1.6,0,0,1-.22.31v.14l-.13.06,0,.14,0,.13-.12.06,0,.14-.1.19a2.08,2.08,0,0,0-.4.65v.12l-.1.08c-.17.35-.43.61-.57,1l-.09.18a2.44,2.44,0,0,1-.22.31v.15l-.14.05,0,.14,0,.13-.12.06,0,.14-.11.19a1.73,1.73,0,0,1-.22.31v.14l-.14.06,0,.14v.13l-.13,0,0,.15-.11.2a2.59,2.59,0,0,0-.4.63v.13l-.1.08a2.73,2.73,0,0,1-.21.3v.14l-.13.05,0,.14,0,.13-.13.06,0,.14-.12.2a2,2,0,0,1-.21.3v.15l-.13,0,0,.14,0,.13-.12.06,0,.14-.11.2-.23.3v.14l-.14.06,0,.14,0,.13-.12.06-.05.14-.1.19a17.16,17.16,0,0,0-.9,1.48v.13l-.11.07c-.16.35-.41.62-.55,1v.12l-.1.08c-.18.36-.42.61-.57,1l-.1.2c-.2.36-.41.62-.57,1l-.1.18a1.34,1.34,0,0,1-.22.31v.14l-.13.06,0,.14,0,.13-.12.06,0,.14-.1.19a3.46,3.46,0,0,1-.22.31v.14l-.14.06,0,.14,0,.13L53,102l0,.14-.11.2a2.23,2.23,0,0,0-.4.64v.12l-.09.08a10.67,10.67,0,0,0-.57,1l-.1.19a2.1,2.1,0,0,1-.22.3v.15l-.13,0,0,.14-.12.2c-.17.35-.42.62-.56,1v.12l-.1.08c-.18.36-.41.61-.57,1l-.09.2-.22.29v.15l-.13,0,0,.14-.13.2c-.16.35-.42.62-.56,1v.13l-.11.07c-.17.36-.42.61-.56,1v.12l-.1.08a11.09,11.09,0,0,0-.57,1l-.1.2a3.15,3.15,0,0,1-.22.29v.15l-.13,0,0,.14v.13l-.12.06-.05.15-.11.18a1.6,1.6,0,0,1-.22.31v.14l-.14.06,0,.15,0,.13-.13,0a.56.56,0,0,0,.19.48l.1.18c.41.74.8,1.45,1.23,2.14l.1.08v.13c.14.34.39.62.56,1l.11.08V118c.26.5.76,1.3,1.06,1.8l.1.2c.15.36.39.6.56,1l.13.2,0,.14.13,0v.14a6.51,6.51,0,0,1,.57,1c.24,0,.28-.5.49-.65v-.15l.14,0,0-.14.12-.2c.29-.44.59-1.06.89-1.46v-.15l.14,0,0-.15,0-.13.12,0,.05-.15.1-.19.23-.3,0-.15.15,0,0-.14.13-.2c.16-.21.19-.44.39-.63l0-.14.14-.06,0-.14.12-.2c.44-.73,1-1.57,1.4-2.3v-.14l.12-.06,0-.14.11-.19a3.4,3.4,0,0,1,.23-.3l0-.15.14-.05,0-.14.12-.2c.07-.1.14-.21.21-.3v-.15l.13,0,0-.14,0-.14.13,0,0-.15.12-.2.21-.3v-.15l.13,0,0-.15v-.13l.13-.06a2.25,2.25,0,0,1,.38-.63v-.15l.14-.05,0-.15,0-.13.12-.05,0-.15.1-.19a2.37,2.37,0,0,0,.4-.64V109l.09-.09.22-.29v-.15l.14,0,0-.14v-.14l.14,0,0-.15.11-.2c.08-.1.15-.2.23-.29l0-.15.15,0,0-.15V107l.13,0,0-.15.11-.2c.07-.1.15-.19.23-.29l0-.15.14,0,0-.14.12-.2.21-.31v-.14l.13,0,0-.14,0-.14.13,0,0-.15.12-.2c.19-.26.34-.56.55-.8v-.14l.13-.06,0-.14,0-.13.12,0,0-.15.11-.19a2.18,2.18,0,0,1,.22-.31v-.14l.13-.06,0-.14v-.13l.13,0,0-.15.11-.19a2.86,2.86,0,0,0,.4-.64V101l.1-.08.21-.3v-.13l.13-.06,0-.14v-.13l.13,0,0-.15.11-.19a1.6,1.6,0,0,1,.22-.31v-.14l.12-.06,0-.14,0-.13.12,0,0-.15.1-.19a2.37,2.37,0,0,0,.4-.64v-.13l.11-.08c.18-.34.41-.62.56-1l.1-.21.22-.29v-.14l.13-.06,0-.14,0-.13.12-.06,0-.14.11-.19a2.18,2.18,0,0,1,.22-.31V95l.13-.06,0-.14.13-.19c.16-.36.41-.62.56-1l.1-.19c.29-.43.64-1.12.92-1.51,5.1-.06,10.2,0,15.3,0H103.9a4.36,4.36,0,0,0,.51,0l-.13-.18a1,1,0,0,1-.71.18C101.23,91.87,98.89,91.85,96.55,91.87Z" transform="translate(-1.53 -65.89)"/><path class="cls-4" d="M101.43,86.76l-.05-.14-.12-.19c-.19-.32-.36-.66-.56-1l-.09-.08,0-.12c-.12-.22-.24-.44-.37-.66l-.13-.18-.06-.15-.1-.17a7.59,7.59,0,0,1-.51-.93c-2.57,0-5.18,0-7.76,0a3.71,3.71,0,0,0,.19.46c1.57,2.74,3.15,5.48,4.7,8.23,2.34,0,4.68,0,7,0a1,1,0,0,0,.71-.18,1,1,0,0,0-.23-.39l-.12-.19-.05-.15-.11-.18-.38-.66-.13-.18-.05-.15-.11-.18c-.2-.32-.35-.66-.57-1l-.1-.2c-.15-.2-.25-.43-.39-.64l-.11-.2-.09-.19,0-.08c-.09-.12-.17-.25-.25-.38Z" transform="translate(-1.53 -65.89)"/><polygon class="cls-1" points="45.48 17.72 45.61 17.67 45.61 17.53 45.5 17.59 45.48 17.72"/><polygon class="cls-1" points="59.97 17.66 59.95 17.52 59.84 17.72 59.97 17.66"/><polygon class="cls-1" points="47.64 17.77 47.67 17.91 47.77 17.7 47.64 17.77"/><polygon class="cls-1" points="62.01 17.76 62.02 17.88 62.11 17.7 62.01 17.76"/><polygon class="cls-1" points="45.32 18.05 45.45 17.98 45.43 17.83 45.31 17.91 45.32 18.05"/><polygon class="cls-1" points="59.8 18 59.8 17.86 59.66 18.05 59.8 18"/><path class="cls-1" d="M60.84,84.46q.36-.15.33-.45Q60.87,84.07,60.84,84.46Z" transform="translate(-1.53 -65.89)"/><polygon class="cls-1" points="61.79 18.19 61.67 18.26 61.66 18.39 61.8 18.34 61.79 18.19"/><polygon class="cls-1" points="98.5 18.27 98.4 18.21 98.5 18.39 98.5 18.27"/><polygon class="cls-1" points="44.99 18.56 45.11 18.49 45.09 18.35 45 18.44 44.99 18.56"/><polygon class="cls-1" points="61.64 18.53 61.51 18.58 61.5 18.72 61.62 18.66 61.64 18.53"/><polygon class="cls-1" points="98.68 18.59 98.56 18.54 98.69 18.71 98.68 18.59"/><polygon class="cls-1" points="59.3 18.84 59.3 18.7 59.17 18.89 59.3 18.84"/><polygon class="cls-1" points="61.34 18.92 61.35 19.05 61.45 18.87 61.34 18.92"/><polygon class="cls-1" points="61.12 19.36 61 19.42 60.99 19.56 61.13 19.5 61.12 19.36"/><polygon class="cls-1" points="99.18 19.57 99.19 19.43 99.07 19.37 99.08 19.49 99.18 19.57"/><polygon class="cls-1" points="44.45 19.66 44.42 19.52 44.33 19.73 44.45 19.66"/><polygon class="cls-1" points="46.59 19.71 46.47 19.77 46.49 19.91 46.61 19.86 46.59 19.71"/><polygon class="cls-1" points="60.97 19.7 60.84 19.75 60.83 19.89 60.95 19.83 60.97 19.7"/><polygon class="cls-1" points="58.64 19.98 58.61 19.84 58.52 20.06 58.64 19.98"/><polygon class="cls-1" points="36.26 20.03 36.13 20.09 36.14 20.24 36.25 20.16 36.26 20.03"/><polygon class="cls-1" points="60.67 20.09 60.68 20.23 60.78 20.04 60.67 20.09"/><path class="cls-1" d="M59.68,86.46A.4.4,0,0,0,60,86,.41.41,0,0,0,59.68,86.46Z" transform="translate(-1.53 -65.89)"/><polygon class="cls-1" points="99.86 20.6 99.74 20.54 99.85 20.73 99.86 20.6"/><polygon class="cls-1" points="43.78 20.82 43.75 20.68 43.66 20.89 43.78 20.82"/><polygon class="cls-1" points="58.13 20.84 58.14 20.72 58 20.89 58.13 20.84"/><polygon class="cls-1" points="45.93 20.87 45.8 20.93 45.83 21.08 45.92 20.99 45.93 20.87"/><polygon class="cls-1" points="60.28 20.87 60.16 20.93 60.18 21.07 60.27 20.99 60.28 20.87"/><polygon class="cls-1" points="100.02 20.93 99.9 20.87 100.02 21.05 100.02 20.93"/><polygon class="cls-1" points="43.49 21.23 43.62 21.16 43.59 21.01 43.48 21.09 43.49 21.23"/><polygon class="cls-1" points="57.83 21.23 57.96 21.18 57.96 21.04 57.85 21.1 57.83 21.23"/><polygon class="cls-1" points="35.59 21.2 35.46 21.27 35.48 21.41 35.58 21.33 35.59 21.2"/><polygon class="cls-1" points="57.67 21.56 57.8 21.5 57.79 21.35 57.67 21.42 57.67 21.56"/><polygon class="cls-1" points="43.28 21.66 43.26 21.52 43.16 21.73 43.28 21.66"/><polygon class="cls-1" points="100.53 21.76 100.4 21.7 100.51 21.9 100.53 21.76"/><polygon class="cls-1" points="57.47 22 57.45 21.86 57.35 22.06 57.47 22"/><polygon class="cls-1" points="59.5 22.1 59.51 22.23 59.61 22.04 59.5 22.1"/><polygon class="cls-1" points="34.81 22.42 34.78 22.54 34.93 22.38 34.81 22.42"/><polygon class="cls-1" points="59.29 22.54 59.17 22.59 59.16 22.73 59.29 22.68 59.29 22.54"/><polygon class="cls-1" points="101.02 22.61 100.91 22.54 101.01 22.74 101.02 22.61"/><path class="cls-1" d="M36.28,88.52A.59.59,0,0,0,36,89,.44.44,0,0,0,36.28,88.52Z" transform="translate(-1.53 -65.89)"/><polygon class="cls-1" points="42.49 22.9 42.61 22.83 42.59 22.69 42.5 22.77 42.49 22.9"/><path class="cls-4" d="M59.84,82.07c-2.67,0-5.34,0-8,0A9,9,0,0,1,50.36,82a.71.71,0,0,1-.36.33l0,.08-.11.21a3.69,3.69,0,0,0-.57,1l-.1.21a3.49,3.49,0,0,0-.56.93,3.61,3.61,0,0,0-.51.87v.15l-.11,0a4,4,0,0,0-.56,1v.12l-.1.08c-.39.57-.73,1.19-1.07,1.79-.19.42-.5.74-.66,1.18v.12l-.09.09a4.86,4.86,0,0,0-.57,1l-.1.2c-.09.12-.17.25-.25.38l0,.06-.1.19v.13l-.1.08c-.44.6-.71,1.28-1.13,1.9a1.64,1.64,0,0,0,.93.15c3.66,0,7.32,0,11,0a1,1,0,0,1,.35-.32l.05-.06.11-.21,0-.12.14-.18v-.14c0-.26.13-.42.32-.46l0-.06.12-.2,0-.13.11-.2a2.37,2.37,0,0,1,.23-.3v-.14l.1-.08.06-.12.12-.19.05-.14.11-.19a2.26,2.26,0,0,1,.23-.31v-.14l.11-.08.07-.11.09-.21.28-.35c.1-.2.21-.4.3-.61l.09-.21a3.34,3.34,0,0,0,.57-1l.1-.21a3.25,3.25,0,0,1,.23-.29v-.14l.11-.07,0-.12,0-.13.11-.07,0-.14.13-.18,0-.14A.41.41,0,0,1,60,86l.06-.06.08-.22a3,3,0,0,0,.57-1l.13-.19v-.13q0-.39.33-.45l0-.07.13-.19,0-.14.12-.2a3.3,3.3,0,0,1,.22-.3V83l.12-.07,0-.13.15-.18V82.1A19.43,19.43,0,0,0,59.84,82.07Z" transform="translate(-1.53 -65.89)"/><polygon class="cls-1" points="59.14 22.87 59 22.92 58.99 23.06 59.12 23 59.14 22.87"/><polygon class="cls-1" points="56.8 23.16 56.77 23.02 56.68 23.23 56.8 23.16"/><polygon class="cls-1" points="34.29 23.27 34.31 23.42 34.42 23.21 34.29 23.27"/><polygon class="cls-1" points="58.83 23.26 58.84 23.39 58.95 23.21 58.83 23.26"/><polygon class="cls-1" points="58.62 23.7 58.5 23.76 58.49 23.9 58.62 23.85 58.62 23.7"/><polygon class="cls-1" points="101.68 23.77 101.57 23.71 101.68 23.9 101.68 23.77"/><polygon class="cls-1" points="41.95 24 41.92 23.85 41.82 24.06 41.95 24"/><polygon class="cls-1" points="44.09 24.04 43.97 24.11 43.99 24.25 44.09 24.16 44.09 24.04"/><polygon class="cls-1" points="58.47 24.04 58.34 24.09 58.33 24.23 58.45 24.17 58.47 24.04"/><polygon class="cls-1" points="101.85 24.09 101.73 24.04 101.86 24.22 101.85 24.09"/><polygon class="cls-1" points="56.13 24.33 56.11 24.19 56.01 24.4 56.13 24.33"/><polygon class="cls-1" points="33.76 24.38 33.63 24.43 33.63 24.57 33.74 24.5 33.76 24.38"/><polygon class="cls-1" points="58.16 24.43 58.18 24.57 58.29 24.38 58.16 24.43"/><polygon class="cls-1" points="55.84 24.73 55.97 24.66 55.95 24.52 55.84 24.6 55.84 24.73"/><polygon class="cls-1" points="102.34 24.94 102.24 24.88 102.35 25.06 102.34 24.94"/><path class="cls-1" d="M35,90.86a.61.61,0,0,0-.3.51A.43.43,0,0,0,35,90.86Z" transform="translate(-1.53 -65.89)"/><polygon class="cls-1" points="41.28 25.16 41.25 25.02 41.15 25.23 41.28 25.16"/><polygon class="cls-1" points="55.63 25.17 55.61 25.04 55.5 25.23 55.63 25.17"/><polygon class="cls-1" points="43.3 25.27 43.32 25.41 43.43 25.21 43.3 25.27"/><polygon class="cls-1" points="57.78 25.21 57.66 25.27 57.68 25.41 57.77 25.33 57.78 25.21"/><polygon class="cls-1" points="102.53 25.27 102.4 25.21 102.53 25.41 102.53 25.27"/><polygon class="cls-1" points="40.98 25.57 41.11 25.49 41.09 25.34 40.97 25.43 40.98 25.57"/><polygon class="cls-1" points="55.46 25.51 55.46 25.38 55.33 25.57 55.46 25.51"/><polygon class="cls-1" points="32.95 25.61 32.98 25.75 33.08 25.55 32.95 25.61"/><polygon class="cls-1" points="55.17 25.9 55.3 25.83 55.28 25.68 55.17 25.76 55.17 25.9"/><polygon class="cls-1" points="57.47 25.71 57.33 25.76 57.32 25.9 57.45 25.85 57.47 25.71"/><polygon class="cls-1" points="40.65 26.07 40.78 26 40.75 25.86 40.66 25.94 40.65 26.07"/><polygon class="cls-1" points="42.93 26.04 42.8 26.11 42.82 26.26 42.92 26.17 42.93 26.04"/><polygon class="cls-1" points="57.3 26.05 57.17 26.09 57.16 26.23 57.28 26.18 57.3 26.05"/><polygon class="cls-1" points="54.96 26.34 54.94 26.2 54.83 26.4 54.96 26.34"/><polygon class="cls-1" points="57 26.43 57.01 26.57 57.12 26.38 57 26.43"/><polygon class="cls-1" points="54.79 26.68 54.79 26.53 54.66 26.73 54.79 26.68"/><polygon class="cls-1" points="32.3 26.76 32.29 26.89 32.43 26.72 32.3 26.76"/><path class="cls-1" d="M55.83,93.14c.25-.1.36-.26.32-.46C56,92.72,55.85,92.88,55.83,93.14Z" transform="translate(-1.53 -65.89)"/><polygon class="cls-1" points="56.79 26.88 56.66 26.93 56.66 27.07 56.79 27.02 56.79 26.88"/><path class="cls-1" d="M33.8,92.85a.62.62,0,0,0-.31.52A.47.47,0,0,0,33.8,92.85Z" transform="translate(-1.53 -65.89)"/><polygon class="cls-1" points="39.98 27.23 40.11 27.17 40.08 27.02 39.99 27.11 39.98 27.23"/><polygon class="cls-1" points="56.63 27.21 56.5 27.26 56.49 27.4 56.62 27.35 56.63 27.21"/><polygon class="cls-1" points="54.29 27.52 54.29 27.39 54.16 27.57 54.29 27.52"/><polygon class="cls-1" points="31.92 27.55 31.79 27.61 31.8 27.75 31.91 27.68 31.92 27.55"/><polygon class="cls-1" points="56.33 27.6 56.34 27.74 56.45 27.54 56.33 27.6"/><polygon class="cls-1" points="66.48 27.67 66.46 27.54 66.36 27.74 66.48 27.67"/><polygon class="cls-1" points="54.13 27.84 54.11 27.69 54 27.9 54.13 27.84"/><polygon class="cls-1" points="31.63 27.93 31.61 28.05 31.76 27.89 31.63 27.93"/><path class="cls-1" d="M104.07,93.93a2.87,2.87,0,0,1,1.67.24.61.61,0,0,0-.23-.39c-2.61,0-5.23,0-7.84,0l.18.18C99.92,93.87,102,94,104.07,93.93Z" transform="translate(-1.53 -65.89)"/><path class="cls-1" d="M55.13,94.17l0,.13a.38.38,0,0,0,.33-.45A1,1,0,0,0,55.13,94.17Z" transform="translate(-1.53 -65.89)"/><polygon class="cls-1" points="56.12 28.04 55.99 28.1 55.99 28.24 56.12 28.18 56.12 28.04"/><path class="cls-1" d="M33.12,94a.66.66,0,0,0-.32.48A.38.38,0,0,0,33.12,94Z" transform="translate(-1.53 -65.89)"/><polygon class="cls-1" points="39.45 28.33 39.41 28.19 39.32 28.4 39.45 28.33"/><polygon class="cls-1" points="41.62 28.38 41.48 28.43 41.49 28.58 41.59 28.51 41.62 28.38"/><polygon class="cls-1" points="55.97 28.38 55.83 28.43 55.83 28.57 55.95 28.51 55.97 28.38"/><polygon class="cls-1" points="53.62 28.69 53.63 28.55 53.48 28.73 53.62 28.69"/><polygon class="cls-1" points="68.13 28.55 68.01 28.61 68.02 28.75 68.12 28.67 68.13 28.55"/><polygon class="cls-1" points="55.66 28.77 55.67 28.9 55.78 28.71 55.66 28.77"/><polygon class="cls-1" points="65.8 28.85 65.8 28.71 65.67 28.91 65.8 28.85"/><polygon class="cls-1" points="53.33 29.07 53.47 29 53.45 28.85 53.32 28.93 53.33 29.07"/><polygon class="cls-1" points="104.7 28.95 104.59 28.89 104.69 29.08 104.7 28.95"/><polygon class="cls-1" points="38.93 29.18 38.92 29.05 38.81 29.24 38.93 29.18"/><polygon class="cls-1" points="65.52 29.24 65.64 29.18 65.64 29.04 65.51 29.1 65.52 29.24"/><polygon class="cls-1" points="30.92 29.21 30.81 29.29 30.81 29.42 30.92 29.34 30.92 29.21"/><polygon class="cls-1" points="38.63 29.57 38.76 29.52 38.77 29.39 38.66 29.45 38.63 29.57"/><polygon class="cls-1" points="53 29.57 53.13 29.5 53.1 29.36 53.01 29.45 53 29.57"/><polygon class="cls-1" points="30.76 29.55 30.62 29.61 30.64 29.75 30.74 29.67 30.76 29.55"/><polygon class="cls-1" points="40.93 29.55 40.8 29.62 40.83 29.76 40.92 29.67 40.93 29.55"/><polygon class="cls-1" points="65.31 29.68 65.3 29.55 65.19 29.74 65.31 29.68"/><polygon class="cls-1" points="38.48 29.91 38.6 29.85 38.6 29.7 38.47 29.77 38.48 29.91"/><polygon class="cls-1" points="67.46 29.71 67.34 29.78 67.36 29.92 67.45 29.84 67.46 29.71"/><polygon class="cls-1" points="65 30.07 65.13 30.02 65.14 29.89 65.02 29.94 65 30.07"/><polygon class="cls-1" points="105.36 30.11 105.25 30.05 105.35 30.24 105.36 30.11"/><polygon class="cls-1" points="38.27 30.35 38.26 30.21 38.14 30.41 38.27 30.35"/><polygon class="cls-1" points="64.85 30.41 64.97 30.35 64.98 30.21 64.85 30.27 64.85 30.41"/><polygon class="cls-1" points="67.14 30.22 67 30.28 67.02 30.43 67.14 30.36 67.14 30.22"/><polygon class="cls-1" points="54.78 30.38 54.66 30.45 54.67 30.58 54.77 30.51 54.78 30.38"/><polygon class="cls-1" points="37.96 30.74 38.09 30.7 38.11 30.56 37.98 30.61 37.96 30.74"/><polygon class="cls-1" points="52.34 30.74 52.46 30.67 52.44 30.53 52.34 30.61 52.34 30.74"/><polygon class="cls-1" points="66.99 30.55 66.85 30.59 66.85 30.74 66.97 30.68 66.99 30.55"/><polygon class="cls-1" points="16.94 30.77 16.94 30.89 17.04 30.72 16.94 30.77"/><polygon class="cls-1" points="30.08 30.71 29.95 30.78 29.97 30.92 30.07 30.84 30.08 30.71"/><polygon class="cls-1" points="64.64 30.84 64.62 30.7 64.53 30.91 64.64 30.84"/><polygon class="cls-1" points="37.8 31.07 37.94 31.02 37.93 30.87 37.81 30.94 37.8 31.07"/><polygon class="cls-1" points="106.02 31.28 105.92 31.23 106.02 31.4 106.02 31.28"/><polygon class="cls-1" points="37.6 31.52 37.59 31.39 37.47 31.58 37.6 31.52"/><polygon class="cls-1" points="66.47 31.38 66.34 31.45 66.35 31.59 66.47 31.52 66.47 31.38"/><polygon class="cls-1" points="39.76 31.55 39.63 31.62 39.66 31.77 39.76 31.68 39.76 31.55"/><polygon class="cls-1" points="54.11 31.55 53.99 31.61 54 31.75 54.11 31.68 54.11 31.55"/><polygon class="cls-1" points="27.25 31.84 27.24 31.73 27.15 31.9 27.25 31.84"/><polygon class="cls-1" points="37.29 31.91 37.42 31.86 37.44 31.72 37.31 31.77 37.29 31.91"/><polygon class="cls-1" points="51.66 31.91 51.8 31.84 51.76 31.69 51.67 31.78 51.66 31.91"/><polygon class="cls-1" points="66.17 31.77 66.19 31.92 66.31 31.72 66.17 31.77"/><polygon class="cls-1" points="29.41 31.88 29.29 31.95 29.3 32.09 29.4 32.01 29.41 31.88"/><polygon class="cls-1" points="63.85 32.08 63.98 32.01 63.96 31.88 63.85 31.95 63.85 32.08"/><polygon class="cls-1" points="37.14 32.24 37.27 32.18 37.26 32.03 37.14 32.1 37.14 32.24"/><polygon class="cls-1" points="106.7 32.44 106.59 32.39 106.7 32.56 106.7 32.44"/><polygon class="cls-1" points="36.93 32.68 36.92 32.54 36.81 32.74 36.93 32.68"/><polygon class="cls-1" points="28.93 32.72 28.79 32.77 28.78 32.91 28.91 32.85 28.93 32.72"/><polygon class="cls-1" points="39.09 32.72 38.96 32.78 38.99 32.93 39.09 32.84 39.09 32.72"/><polygon class="cls-1" points="53.32 32.78 53.33 32.92 53.44 32.72 53.32 32.78"/><polygon class="cls-1" points="63.47 32.85 63.46 32.72 63.35 32.91 63.47 32.85"/><polygon class="cls-1" points="26.58 33.01 26.57 32.89 26.48 33.06 26.58 33.01"/><polygon class="cls-1" points="51.03 33.07 51.13 32.99 51.09 32.86 50.98 32.93 51.03 33.07"/><polygon class="cls-1" points="65.63 32.88 65.5 32.95 65.52 33.09 65.62 33.01 65.63 32.88"/><path class="cls-1" d="M100.59,104.14c.43-.92,1.09-1.74,1.47-2.67a16.8,16.8,0,0,0-1-1.86l-.26-.36c-.92-1.79-2-3.47-2.93-5.28l-.18-.18c-9,0-18,0-27,0a3.29,3.29,0,0,0,1.4.14H84.21c.25,0,.5-.06.64.2.94,1.59,1.82,3.23,2.77,4.82l.67,1.19a8.62,8.62,0,0,1,.75,1.32c-.39.86-1,1.62-1.36,2.47,3.85,0,7.7,0,11.55,0a.81.81,0,0,1,.42.07l.07.32,0,.12.13.18,0,.17.14,0A6.05,6.05,0,0,0,100.59,104.14Z" transform="translate(-1.53 -65.89)"/><polygon class="cls-1" points="28.62 33.11 28.63 33.25 28.75 33.05 28.62 33.11"/><polygon class="cls-1" points="63.17 33.24 63.3 33.2 63.31 33.06 63.19 33.11 63.17 33.24"/><path class="cls-1" d="M52.16,99.48c.24-.1.35-.25.32-.47A.49.49,0,0,0,52.16,99.48Z" transform="translate(-1.53 -65.89)"/><polygon class="cls-1" points="107.18 33.3 107.1 33.24 107.19 33.4 107.18 33.3"/><polygon class="cls-1" points="36.43 33.52 36.42 33.39 36.31 33.58 36.43 33.52"/><polygon class="cls-1" points="63.01 33.58 63.14 33.52 63.14 33.38 63.01 33.44 63.01 33.58"/><polygon class="cls-1" points="36.12 33.91 36.26 33.86 36.27 33.73 36.15 33.78 36.12 33.91"/><polygon class="cls-1" points="50.62 33.86 50.62 33.73 50.49 33.91 50.62 33.86"/><path class="cls-4" d="M66.35,104c3.35,0,6.72,0,10.07,0,.2,0,.41,0,.61,0,3.55,0,7.1,0,10.65,0,.4-.85,1-1.61,1.36-2.47a8.62,8.62,0,0,0-.75-1.32L87.62,99c-1-1.59-1.83-3.23-2.77-4.82-.14-.26-.39-.17-.64-.2H72a3.29,3.29,0,0,1-1.4-.14,4.87,4.87,0,0,0-.54,0,2,2,0,0,0-.42.65v.13l-.1.07a5.87,5.87,0,0,0-.57,1v.13l-.1.08a2.73,2.73,0,0,1-.21.3v.14l-.13.07,0,.12,0,.13-.12.06a2.46,2.46,0,0,1-.38.64v.14l-.13.07,0,.13-.13.2a4.78,4.78,0,0,0-.55,1v.13L67,99a5.16,5.16,0,0,0-.55,1v.13l-.1.07a2.18,2.18,0,0,1-.22.31v.14l-.12.07,0,.12,0,.13-.12.06a2.92,2.92,0,0,1-.38.64v.14l-.12.08,0,.11-.11.21a3.71,3.71,0,0,0-.56,1l0,.13-.11.06,0,.11c-.07.19-.13.39-.19.59C65,104,65.67,104,66.35,104Z" transform="translate(-1.53 -65.89)"/><polygon class="cls-1" points="38.42 33.89 38.3 33.96 38.32 34.1 38.41 34.01 38.42 33.89"/><polygon class="cls-1" points="52.66 33.95 52.67 34.07 52.76 33.89 52.66 33.95"/><polygon class="cls-1" points="62.8 34.02 62.79 33.89 62.68 34.08 62.8 34.02"/><polygon class="cls-1" points="35.97 34.25 36.1 34.18 36.09 34.03 35.97 34.11 35.97 34.25"/><polygon class="cls-1" points="64.96 34.05 64.84 34.12 64.85 34.25 64.95 34.18 64.96 34.05"/><polygon class="cls-1" points="62.5 34.41 62.63 34.36 62.64 34.23 62.52 34.28 62.5 34.41"/><polygon class="cls-1" points="52.45 34.38 52.32 34.45 52.31 34.58 52.45 34.53 52.45 34.38"/><polygon class="cls-1" points="35.76 34.69 35.75 34.55 35.63 34.75 35.76 34.69"/><polygon class="cls-1" points="62.34 34.75 62.47 34.69 62.47 34.55 62.34 34.61 62.34 34.75"/><polygon class="cls-1" points="64.64 34.56 64.5 34.62 64.52 34.78 64.64 34.7 64.64 34.56"/><polygon class="cls-1" points="52.29 34.72 52.16 34.77 52.15 34.91 52.27 34.85 52.29 34.72"/><polygon class="cls-1" points="35.46 35.08 35.59 35.03 35.6 34.89 35.48 34.95 35.46 35.08"/><polygon class="cls-1" points="49.83 35.08 49.96 35.01 49.93 34.87 49.84 34.95 49.83 35.08"/><polygon class="cls-1" points="64.48 34.89 64.34 34.94 64.35 35.09 64.46 35.02 64.48 34.89"/><polygon class="cls-1" points="27.58 35.05 27.45 35.11 27.46 35.26 27.57 35.18 27.58 35.05"/><polygon class="cls-1" points="51.99 35.11 52 35.24 52.11 35.06 51.99 35.11"/><polygon class="cls-1" points="62.02 35.25 62.14 35.18 62.12 35.05 62.03 35.13 62.02 35.25"/><polygon class="cls-1" points="51.78 35.55 51.66 35.61 51.65 35.75 51.78 35.7 51.78 35.55"/><polygon class="cls-1" points="108.53 35.62 108.43 35.57 108.52 35.73 108.53 35.62"/><polygon class="cls-1" points="63.97 35.72 63.83 35.79 63.85 35.94 63.97 35.87 63.97 35.72"/><polygon class="cls-1" points="51.62 35.89 51.49 35.94 51.48 36.08 51.61 36.02 51.62 35.89"/><polygon class="cls-1" points="61.63 36.02 61.62 35.89 61.51 36.08 61.63 36.02"/><polygon class="cls-1" points="35.59 36.27 35.6 36.13 35.48 36.06 35.47 36.2 35.59 36.27"/><polygon class="cls-1" points="49.19 36.24 49.3 36.17 49.26 36.04 49.14 36.11 49.19 36.24"/><polygon class="cls-1" points="63.67 36.12 63.69 36.27 63.8 36.06 63.67 36.12"/><polygon class="cls-1" points="27.63 36.21 27.61 36.35 27.75 36.41 27.73 36.29 27.63 36.21"/><polygon class="cls-1" points="51.32 36.28 51.33 36.42 51.44 36.23 51.32 36.28"/><polygon class="cls-1" points="61.33 36.41 61.46 36.37 61.47 36.23 61.35 36.28 61.33 36.41"/><polygon class="cls-1" points="35.77 36.58 35.76 36.44 35.62 36.4 35.64 36.53 35.77 36.58"/><polygon class="cls-1" points="49 36.58 49.13 36.51 49.09 36.35 48.99 36.44 49 36.58"/><polygon class="cls-1" points="61.17 36.75 61.3 36.69 61.31 36.55 61.17 36.61 61.17 36.75"/><polygon class="cls-1" points="35.93 36.78 35.8 36.73 35.92 36.92 35.93 36.78"/><polygon class="cls-1" points="109.2 36.78 109.1 36.73 109.2 36.89 109.2 36.78"/><polygon class="cls-1" points="48.79 37.02 48.77 36.88 48.67 37.08 48.79 37.02"/><polygon class="cls-1" points="50.93 37.06 50.82 37.13 50.83 37.26 50.93 37.18 50.93 37.06"/><polygon class="cls-1" points="60.97 37.19 60.95 37.06 60.84 37.25 60.97 37.19"/><polygon class="cls-1" points="36.25 37.44 36.27 37.29 36.14 37.23 36.13 37.36 36.25 37.44"/><polygon class="cls-1" points="63.13 37.23 63.01 37.28 63.01 37.42 63.12 37.35 63.13 37.23"/><polygon class="cls-1" points="38.48 37.38 38.46 37.52 38.59 37.59 38.58 37.46 38.48 37.38"/><polygon class="cls-1" points="60.66 37.58 60.79 37.54 60.8 37.4 60.68 37.45 60.66 37.58"/><path class="cls-2" d="M15.55,121c1.39-2.5,2.85-5,4.24-7.46.17-.27.27-.54.58-.68-1.38-2.45-2.77-4.91-4.13-7.37l-.07-.13c-.38-.57-.63-1.23-1-1.78-.42.54-.73,1.26-1.11,1.84-1.69,3-3.45,5.94-5.12,8.92,1.73,3,3.55,6.06,5.29,9.09A20.65,20.65,0,0,1,15.55,121Z" transform="translate(-1.53 -65.89)"/><polygon class="cls-1" points="36.44 37.62 36.3 37.56 36.41 37.77 36.44 37.62"/><path class="cls-1" d="M99.23,104c-3.85,0-7.7,0-11.55,0-3.55,0-7.1,0-10.65,0-.2,0-.41,0-.61,0-3.35.06-6.72,0-10.07,0-.68,0-1.36,0-2,0,.06-.2.12-.4.19-.59-.27.2-.32.46-.49.72H99.24a.47.47,0,0,1,.48.22l-.07-.32A.81.81,0,0,0,99.23,104Z" transform="translate(-1.53 -65.89)"/><polygon class="cls-1" points="60.51 37.92 60.63 37.86 60.63 37.72 60.51 37.78 60.51 37.92"/><polygon class="cls-1" points="48 38.25 48.12 38.18 48.1 38.04 48.01 38.13 48 38.25"/><polygon class="cls-1" points="28.8 38.22 28.79 38.36 28.91 38.42 28.9 38.3 28.8 38.22"/><polygon class="cls-1" points="50.15 38.29 50.17 38.42 50.26 38.23 50.15 38.29"/><path class="cls-2" d="M110.43,104.67c.23-.38.46-.76.7-1.14-.12-.26-.26-.5-.4-.75l-.1-.16c-.2-.33-.39-.67-.58-1l-.09-.17c-.39-.66-.77-1.33-1.15-2l-.1-.15-.09-.16-.39-.68-.11-.17c-.18-.34-.38-.67-.58-1l-.09-.17c-.2-.32-.36-.66-.57-1l-.1-.19c-.19-.32-.36-.66-.57-1l-.1-.2a4.6,4.6,0,0,0-.37-.6,2.87,2.87,0,0,0-1.67-.24c-2.07,0-4.15-.06-6.22,0,.9,1.81,2,3.49,2.93,5.28l.26.36a16.8,16.8,0,0,1,1,1.86c-.38.93-1,1.75-1.47,2.67a6.05,6.05,0,0,1-.53.72l0,.12c1.63,2.79,3.3,5.68,4.92,8.5l.39-.07C107.05,110.53,108.76,107.58,110.43,104.67Z" transform="translate(-1.53 -65.89)"/><polygon class="cls-1" points="39.15 38.54 39.13 38.69 39.26 38.75 39.25 38.62 39.15 38.54"/><polygon class="cls-1" points="98.23 38.7 98.35 38.75 98.22 38.58 98.23 38.7"/><polygon class="cls-1" points="37.1 38.78 36.97 38.73 37.1 38.91 37.1 38.78"/><polygon class="cls-1" points="49.95 38.73 49.82 38.78 49.81 38.92 49.95 38.87 49.95 38.73"/><polygon class="cls-1" points="59.97 38.86 59.95 38.72 59.83 38.92 59.97 38.86"/><polygon class="cls-1" points="98.4 38.92 98.39 39.04 98.5 39.09 98.54 38.97 98.4 38.92"/><path class="cls-1" d="M39,105.37a.45.45,0,0,0-.33-.44A.41.41,0,0,0,39,105.37Z" transform="translate(-1.53 -65.89)"/><polygon class="cls-1" points="49.65 39.11 49.66 39.26 49.79 39.06 49.65 39.11"/><polygon class="cls-1" points="59.66 39.25 59.79 39.21 59.81 39.07 59.67 39.11 59.66 39.25"/><polygon class="cls-1" points="47.34 39.42 47.46 39.35 47.43 39.21 47.34 39.3 47.34 39.42"/><polygon class="cls-1" points="29.46 39.53 29.59 39.59 29.46 39.39 29.46 39.53"/><path class="cls-1" d="M44.15,94.19a1.64,1.64,0,0,1-.93-.15h0l-.06.22,0,.12-.11.08a5.45,5.45,0,0,0-.56,1v.12l-.09.09a15.31,15.31,0,0,0-1.06,1.79v.13l-.1.09c-.07.11-.15.21-.23.32a4.71,4.71,0,0,0-.33.63v.12l-.1.09a4.82,4.82,0,0,0-.56,1v.12l-.09.09c-.34.35-.44.79-.74,1.16a.53.53,0,0,0,0,.67c.32.48.56,1,.89,1.45l.1.08v.12a4.38,4.38,0,0,0,.56,1l.1.08v.13a4.41,4.41,0,0,0,.46.82l.1.13.1.22.07.11.11.08v.14a1.29,1.29,0,0,1,.22.3l.1.08v.12a4.9,4.9,0,0,0,.56,1l.11.08v.12a4.42,4.42,0,0,0,.57,1l.09.08V109c.31.61.69,1.22,1.06,1.8l.11.2,0,.06a.55.55,0,0,1,.35.64l.15.17.15,0,0-.16.12-.2a2.37,2.37,0,0,1,.23-.3V111l.12-.08.06-.1.1-.22a4,4,0,0,0,.57-.95v-.13l.09-.08a4,4,0,0,0,.56-1v-.12l.1-.08a3.46,3.46,0,0,1,.22-.31v-.14l.12-.08,0-.11.15-.19,0-.14.11-.2a3.3,3.3,0,0,1,.22-.3v-.14l.13-.08,0-.11.11-.21a3.19,3.19,0,0,0,.38-.6,1.55,1.55,0,0,0,.19-.36v-.12l.09-.09a3.75,3.75,0,0,0,.57-1V104l.1-.09a3.83,3.83,0,0,0,.56-1l.1-.2a3.4,3.4,0,0,1,.23-.3v-.14l.11-.09.09-.11,0-.13.12-.07a3.87,3.87,0,0,0,.57-1v-.13l.1-.09a3.26,3.26,0,0,0,.56-1l.13-.19v-.13a.49.49,0,0,1,.32-.47l.08-.05-.06-.14.12-.07a3.53,3.53,0,0,0,.57-1v-.13l.09-.09a3.81,3.81,0,0,0,.57-1V96.5l.09-.09a3.81,3.81,0,0,0,.57-1v-.12l.09-.09a3.25,3.25,0,0,1,.23-.29v-.14l.12-.08,0-.12.14-.18V94.3l0-.13C51.47,94.21,47.81,94.17,44.15,94.19Z" transform="translate(-1.53 -65.89)"/><polygon class="cls-1" points="59.5 39.59 59.63 39.53 59.63 39.39 59.5 39.45 59.5 39.59"/><polygon class="cls-1" points="27.43 39.63 27.31 39.56 27.41 39.76 27.43 39.63"/><polygon class="cls-1" points="37.6 39.75 37.59 39.61 37.46 39.57 37.48 39.7 37.6 39.75"/><polygon class="cls-1" points="29.61 39.74 29.63 39.88 29.77 39.92 29.74 39.78 29.61 39.74"/><polygon class="cls-1" points="39.8 39.85 39.93 39.92 39.82 39.71 39.8 39.85"/><polygon class="cls-1" points="37.77 39.95 37.64 39.9 37.75 40.09 37.77 39.95"/><polygon class="cls-1" points="59.3 40.03 59.29 39.89 59.16 40.09 59.3 40.03"/><polygon class="cls-1" points="29.8 40.05 29.8 40.19 29.92 40.25 29.92 40.12 29.8 40.05"/><polygon class="cls-1" points="39.99 40.03 39.96 40.18 40.09 40.25 40.1 40.11 39.99 40.03"/><polygon class="cls-1" points="49.1 40.23 48.98 40.29 48.99 40.43 49.1 40.35 49.1 40.23"/><polygon class="cls-1" points="59.01 40.43 59.13 40.36 59.14 40.23 58.99 40.28 59.01 40.43"/><polygon class="cls-1" points="27.92 40.46 27.8 40.4 27.92 40.59 27.92 40.46"/><polygon class="cls-1" points="38.1 40.6 38.1 40.46 37.98 40.39 37.97 40.53 38.1 40.6"/><polygon class="cls-1" points="46.78 40.52 46.76 40.38 46.65 40.59 46.78 40.52"/><polygon class="cls-1" points="97.18 40.6 97.19 40.46 97.07 40.39 97.05 40.53 97.18 40.6"/><polygon class="cls-1" points="40.32 40.55 40.3 40.7 40.43 40.76 40.41 40.63 40.32 40.55"/><polygon class="cls-1" points="28.09 40.79 27.96 40.73 28.08 40.92 28.09 40.79"/><polygon class="cls-1" points="38.27 40.92 38.26 40.78 38.13 40.73 38.16 40.86 38.27 40.92"/><polygon class="cls-1" points="46.49 40.92 46.62 40.85 46.6 40.7 46.48 40.78 46.49 40.92"/><polygon class="cls-1" points="58.8 40.86 58.78 40.72 58.67 40.92 58.8 40.86"/><polygon class="cls-1" points="97.36 40.91 97.34 40.78 97.21 40.74 97.23 40.87 97.36 40.91"/><polygon class="cls-1" points="30.31 40.89 30.3 41.02 30.41 41.09 30.42 40.96 30.31 40.89"/><polygon class="cls-1" points="38.44 41.12 38.32 41.06 38.42 41.25 38.44 41.12"/><polygon class="cls-1" points="58.49 41.25 58.62 41.21 58.64 41.07 58.5 41.12 58.49 41.25"/><polygon class="cls-1" points="97.52 41.12 97.39 41.06 97.51 41.27 97.52 41.12"/><polygon class="cls-1" points="46.28 41.37 46.26 41.23 46.15 41.42 46.28 41.37"/><polygon class="cls-1" points="30.63 41.53 30.75 41.59 30.64 41.4 30.63 41.53"/><polygon class="cls-1" points="48.31 41.47 48.33 41.6 48.43 41.4 48.31 41.47"/><polygon class="cls-1" points="58.34 41.6 58.46 41.53 58.47 41.4 58.33 41.45 58.34 41.6"/><polygon class="cls-1" points="28.59 41.63 28.47 41.57 28.58 41.76 28.59 41.63"/><polygon class="cls-1" points="46.11 41.71 46.11 41.56 45.97 41.75 46.11 41.71"/><polygon class="cls-1" points="30.78 41.74 30.8 41.88 30.94 41.92 30.91 41.79 30.78 41.74"/><polygon class="cls-1" points="40.99 41.72 40.97 41.86 41.09 41.92 41.09 41.8 40.99 41.72"/><polygon class="cls-1" points="60.33 41.8 60.35 41.93 60.45 41.73 60.33 41.8"/><polygon class="cls-1" points="38.94 41.96 38.82 41.9 38.92 42.09 38.94 41.96"/><polygon class="cls-1" points="45.81 42.09 45.96 42.02 45.93 41.87 45.81 41.94 45.81 42.09"/><polygon class="cls-1" points="48.11 41.9 47.98 41.95 47.98 42.09 48.11 42.04 48.11 41.9"/><polygon class="cls-1" points="58.13 42.03 58.12 41.89 58 42.09 58.13 42.03"/><polygon class="cls-1" points="30.97 42.05 31.09 42.26 31.08 42.13 30.97 42.05"/><polygon class="cls-1" points="47.82 42.29 47.82 42.43 47.95 42.23 47.82 42.29"/><polygon class="cls-1" points="57.82 42.42 57.96 42.38 57.97 42.24 57.83 42.28 57.82 42.42"/><polygon class="cls-1" points="29.07 42.47 28.97 42.41 29.07 42.59 29.07 42.47"/><polygon class="cls-1" points="39.26 42.61 39.27 42.46 39.14 42.4 39.14 42.54 39.26 42.61"/><polygon class="cls-1" points="45.49 42.59 45.62 42.53 45.6 42.39 45.5 42.47 45.49 42.59"/><polygon class="cls-1" points="57.66 42.76 57.79 42.7 57.8 42.57 57.66 42.62 57.66 42.76"/><polygon class="cls-1" points="29.25 42.79 29.13 42.73 29.25 42.92 29.25 42.79"/><polygon class="cls-1" points="39.44 42.92 39.43 42.78 39.29 42.74 39.32 42.87 39.44 42.92"/><polygon class="cls-1" points="31.46 42.9 31.46 43.04 31.59 43.09 31.58 42.96 31.46 42.9"/><polygon class="cls-1" points="41.66 42.88 41.63 43.02 41.77 43.09 41.76 42.96 41.66 42.88"/><polygon class="cls-1" points="59.66 42.97 59.68 43.09 59.78 42.9 59.66 42.97"/><polygon class="cls-1" points="39.6 43.13 39.48 43.07 39.59 43.26 39.6 43.13"/><polygon class="cls-1" points="57.35 43.26 57.47 43.19 57.45 43.06 57.36 43.14 57.35 43.26"/><polygon class="cls-1" points="98.68 43.27 98.69 43.13 98.56 43.07 98.57 43.19 98.68 43.27"/><polygon class="cls-1" points="31.77 43.44 31.92 43.59 31.89 43.48 31.77 43.44"/><polygon class="cls-1" points="47.27 43.4 47.14 43.47 47.16 43.6 47.26 43.53 47.27 43.4"/><polygon class="cls-1" points="39.94 43.77 39.94 43.62 39.8 43.57 39.81 43.71 39.94 43.77"/><polygon class="cls-1" points="44.82 43.76 44.95 43.69 44.92 43.55 44.83 43.63 44.82 43.76"/><polygon class="cls-1" points="31.96 43.74 31.96 43.87 32.08 43.93 32.07 43.8 31.96 43.74"/><polygon class="cls-1" points="29.92 43.96 29.8 43.9 29.91 44.09 29.92 43.96"/><polygon class="cls-1" points="40.11 44.09 40.1 43.95 39.96 43.9 39.98 44.04 40.11 44.09"/><polygon class="cls-1" points="56.96 44.03 56.95 43.9 56.84 44.09 56.96 44.03"/><polygon class="cls-1" points="40.27 44.29 40.14 44.23 40.26 44.43 40.27 44.29"/><polygon class="cls-1" points="56.66 44.43 56.79 44.38 56.8 44.24 56.67 44.3 56.66 44.43"/><polygon class="cls-1" points="99.34 44.44 99.36 44.3 99.23 44.23 99.24 44.36 99.34 44.44"/><polygon class="cls-1" points="46.6 44.57 46.48 44.63 46.49 44.77 46.6 44.7 46.6 44.57"/><polygon class="cls-1" points="56.5 44.77 56.63 44.7 56.63 44.57 56.49 44.62 56.5 44.77"/><polygon class="cls-1" points="40.6 44.94 40.6 44.8 40.48 44.73 40.48 44.87 40.6 44.94"/><polygon class="cls-1" points="44.28 44.86 44.25 44.71 44.16 44.93 44.28 44.86"/><polygon class="cls-1" points="42.8 45.03 42.93 45.09 42.82 44.89 42.8 45.03"/><polygon class="cls-1" points="30.59 45.23 30.58 45.11 30.47 45.07 30.47 45.21 30.59 45.23"/><polygon class="cls-1" points="40.78 45.26 40.77 45.12 40.64 45.07 40.66 45.2 40.78 45.26"/><polygon class="cls-1" points="43.99 45.26 44.12 45.19 44.09 45.03 43.97 45.12 43.99 45.26"/><path class="cls-1" d="M44.48,111c0,.21.21.49.35.64A.55.55,0,0,0,44.48,111Z" transform="translate(-1.53 -65.89)"/><polygon class="cls-1" points="40.94 45.46 40.82 45.41 40.92 45.59 40.94 45.46"/><polygon class="cls-1" points="55.99 45.59 56.13 45.55 56.12 45.4 56 45.46 55.99 45.59"/><polygon class="cls-1" points="100.01 45.6 100.03 45.47 99.9 45.4 99.91 45.53 100.01 45.6"/><polygon class="cls-1" points="43.78 45.71 43.76 45.56 43.64 45.76 43.78 45.71"/><polygon class="cls-1" points="45.81 45.8 45.83 45.94 45.92 45.74 45.81 45.8"/><polygon class="cls-1" points="55.83 45.93 55.96 45.88 55.97 45.74 55.83 45.78 55.83 45.93"/><polygon class="cls-1" points="31.09 45.97 30.98 45.91 31.08 46.1 31.09 45.97"/><polygon class="cls-1" points="43.5 46.09 43.63 46.07 43.6 45.92 43.45 45.96 43.5 46.09"/><polygon class="cls-1" points="33.3 46.07 33.29 46.21 33.43 46.26 33.42 46.13 33.3 46.07"/><polygon class="cls-1" points="57.83 46.14 57.85 46.27 57.94 46.07 57.83 46.14"/><polygon class="cls-1" points="41.44 46.3 41.32 46.24 41.43 46.44 41.44 46.3"/><polygon class="cls-1" points="45.6 46.23 45.48 46.3 45.47 46.43 45.61 46.38 45.6 46.23"/><polygon class="cls-1" points="55.62 46.37 55.61 46.23 55.49 46.43 55.62 46.37"/><polygon class="cls-1" points="45.45 46.57 45.32 46.62 45.31 46.76 45.43 46.7 45.45 46.57"/><polygon class="cls-1" points="55.32 46.76 55.45 46.72 55.47 46.58 55.33 46.62 55.32 46.76"/><polygon class="cls-1" points="41.77 46.95 41.78 46.8 41.64 46.74 41.64 46.88 41.77 46.95"/><polygon class="cls-1" points="33.8 46.91 33.8 47.04 33.91 47.1 33.9 46.97 33.8 46.91"/><polygon class="cls-1" points="45.15 46.96 45.16 47.09 45.26 46.91 45.15 46.96"/><polygon class="cls-1" points="55.16 47.1 55.29 47.04 55.3 46.9 55.16 46.95 55.16 47.1"/><polygon class="cls-1" points="41.95 47.26 41.93 47.12 41.8 47.08 41.82 47.21 41.95 47.26"/><polygon class="cls-1" points="57.16 47.31 57.18 47.44 57.27 47.24 57.16 47.31"/><polygon class="cls-1" points="42.1 47.46 41.98 47.41 42.09 47.6 42.1 47.46"/><polygon class="cls-1" points="44.93 47.4 44.81 47.46 44.8 47.6 44.94 47.54 44.93 47.4"/><polygon class="cls-1" points="54.96 47.54 54.95 47.4 54.83 47.6 54.96 47.54"/><polygon class="cls-1" points="101.19 47.6 101.19 47.46 101.06 47.41 101.08 47.54 101.19 47.6"/><polygon class="cls-1" points="19.41 47.8 19.29 47.73 19.4 47.93 19.41 47.8"/><polygon class="cls-1" points="44.78 47.75 44.64 47.8 44.63 47.93 44.76 47.88 44.78 47.75"/><polygon class="cls-1" points="54.67 47.94 54.79 47.88 54.8 47.74 54.66 47.8 54.67 47.94"/><polygon class="cls-1" points="101.35 47.79 101.22 47.75 101.37 47.91 101.35 47.79"/><polygon class="cls-1" points="21.45 48.2 21.55 48.26 21.46 48.08 21.45 48.2"/><polygon class="cls-1" points="34.46 48.21 34.59 48.27 34.47 48.07 34.46 48.21"/><polygon class="cls-1" points="42.44 48.14 42.34 48.07 42.43 48.26 42.44 48.14"/><path class="cls-1" d="M103.23,114.39a.68.68,0,0,0-.32-.5A.42.42,0,0,0,103.23,114.39Z" transform="translate(-1.53 -65.89)"/><polygon class="cls-1" points="32.42 48.31 32.32 48.25 32.41 48.43 32.42 48.31"/><polygon class="cls-1" points="54.46 48.37 54.44 48.24 54.33 48.43 54.46 48.37"/><polygon class="cls-1" points="34.64 48.39 34.62 48.53 34.75 48.6 34.76 48.46 34.64 48.39"/><polygon class="cls-1" points="44.81 48.54 44.92 48.6 44.83 48.41 44.81 48.54"/><polygon class="cls-1" points="54.17 48.77 54.29 48.71 54.29 48.57 54.17 48.63 54.17 48.77"/><polygon class="cls-1" points="20.07 48.98 19.96 48.91 20.06 49.1 20.07 48.98"/><polygon class="cls-1" points="34.96 49.03 35.08 49.1 34.98 48.9 34.96 49.03"/><polygon class="cls-1" points="42.93 49.11 42.94 48.98 42.83 48.91 42.84 49.03 42.93 49.11"/><polygon class="cls-1" points="102.02 48.97 101.91 48.92 102.04 49.08 102.02 48.97"/><polygon class="cls-1" points="32.92 49.14 32.81 49.08 32.91 49.27 32.92 49.14"/><polygon class="cls-1" points="56.09 49.24 55.99 49.32 56.01 49.45 56.09 49.36 56.09 49.24"/><path class="cls-1" d="M103.89,115.57a.57.57,0,0,0-.3-.5A.42.42,0,0,0,103.89,115.57Z" transform="translate(-1.53 -65.89)"/><polygon class="cls-1" points="43.27 49.61 43.26 49.47 43.14 49.41 43.15 49.55 43.27 49.61"/><polygon class="cls-1" points="43.45 49.93 43.43 49.79 43.3 49.75 43.32 49.88 43.45 49.93"/><polygon class="cls-1" points="102.52 49.94 102.53 49.81 102.43 49.75 102.4 49.89 102.52 49.94"/><polygon class="cls-1" points="20.73 50.15 20.62 50.08 20.73 50.27 20.73 50.15"/><polygon class="cls-1" points="35.63 50.21 35.76 50.27 35.64 50.08 35.63 50.21"/><polygon class="cls-1" points="43.61 50.13 43.49 50.08 43.6 50.27 43.61 50.13"/><polygon class="cls-1" points="91.4 50.04 91.36 50.19 91.5 50.27 91.51 50.13 91.4 50.04"/><path class="cls-7" d="M118.29,116c-.81,1.42-1.64,2.83-2.46,4.24-.36.68-.77,1.34-1.16,2-.75,1.36-1.56,2.67-2.32,4q2.48,4.26,4.93,8.53a3.13,3.13,0,0,0,.49-.75l5.07-8.77a3.63,3.63,0,0,0,.38-.73Q120.76,120.23,118.29,116Z" transform="translate(-1.53 -65.89)"/><path class="cls-7" d="M9.88,130.72q1.36-2.35,2.71-4.74c.15-.26.32-.52.5-.77l-5-8.6a1.77,1.77,0,0,0-.36-.53c-2.06,3.47-4,7-6.08,10.51a.77.77,0,0,0-.16.39c1.76,3.07,3.55,6.13,5.3,9.21a2.09,2.09,0,0,1,.37-.8C8.11,133.84,9,132.26,9.88,130.72Z" transform="translate(-1.53 -65.89)"/><polygon class="cls-1" points="33.6 50.31 33.48 50.25 33.58 50.45 33.6 50.31"/><polygon class="cls-1" points="20.91 50.47 20.79 50.41 20.9 50.6 20.91 50.47"/><polygon class="cls-1" points="35.79 50.42 35.81 50.55 35.94 50.6 35.92 50.47 35.79 50.42"/><polygon class="cls-1" points="43.95 50.77 43.94 50.64 43.82 50.58 43.82 50.72 43.95 50.77"/><polygon class="cls-1" points="91.71 50.71 91.84 50.77 91.72 50.58 91.71 50.71"/><polygon class="cls-1" points="35.97 50.74 36.1 50.93 36.09 50.8 35.97 50.74"/><polygon class="cls-1" points="46.16 50.74 46.14 50.87 46.26 50.94 46.26 50.81 46.16 50.74"/><polygon class="cls-1" points="44.11 51.1 44.1 50.96 43.97 50.91 43.99 51.04 44.11 51.1"/><polygon class="cls-1" points="103.19 50.96 103.07 50.91 103.19 51.09 103.19 50.96"/><polygon class="cls-1" points="52.79 51.21 52.77 51.07 52.66 51.27 52.79 51.21"/><polygon class="cls-1" points="23.28 51.38 23.39 51.43 23.28 51.26 23.28 51.38"/><polygon class="cls-1" points="36.3 51.38 36.43 51.44 36.31 51.24 36.3 51.38"/><polygon class="cls-1" points="44.27 51.3 44.15 51.25 44.28 51.42 44.27 51.3"/><polygon class="cls-1" points="34.27 51.47 34.14 51.41 34.26 51.61 34.27 51.47"/><polygon class="cls-1" points="52.5 51.62 52.62 51.55 52.63 51.41 52.48 51.47 52.5 51.62"/><polygon class="cls-1" points="92.22 51.41 92.21 51.54 92.33 51.6 92.32 51.48 92.22 51.41"/><polygon class="cls-1" points="21.57 51.65 21.46 51.59 21.56 51.77 21.57 51.65"/><polygon class="cls-1" points="36.46 51.58 36.47 51.72 36.6 51.77 36.59 51.63 36.46 51.58"/><polygon class="cls-1" points="44.62 51.94 44.61 51.8 44.48 51.74 44.48 51.89 44.62 51.94"/><polygon class="cls-1" points="54.65 51.76 54.5 51.77 54.48 51.93 54.62 51.9 54.65 51.76"/><path class="cls-2" d="M21.84,112l0,.07c.38.61.7,1.26,1.1,1.87l.1.18c.58,1,1.14,2,1.73,3l.1.18a2.87,2.87,0,0,0,.32.53c.7,1.29,1.48,2.55,2.19,3.84a3.92,3.92,0,0,1,.39-.86c.52-.9,1-1.83,1.56-2.73l.18-.26a17.6,17.6,0,0,1,1.29-2.14c.65-.06,1.31,0,2,0a7.12,7.12,0,0,1,2,.13c-.13-.21-.23-.44-.37-.66l-.1-.18c-.14-.21-.26-.44-.4-.66l-.09-.17c-.2-.37-.41-.71-.62-1.06l-.06-.12-.06-.1-.06-.13c-.15-.25-.28-.51-.45-.74l-.09-.19a6.61,6.61,0,0,1-.39-.68l-.12,0V111l-.09-.19-.05-.1-.42-.69-.11-.19-.07-.17-.08-.13-.22-.37-.13-.16,0-.15-.12-.19-.06-.14-.1-.18c-.07-.12-.14-.23-.2-.35l-.14-.16-.05-.15-.11-.18c-.13-.22-.25-.44-.4-.65l-.11-.19,0-.14-.11-.19a5.27,5.27,0,0,0-.4-.64l-.09-.2-.07-.14c-.55-1-1.1-1.9-1.66-2.84a7.62,7.62,0,0,1-.53-1c.11-.24.26-.45.37-.68.36-.6.69-1.22,1.06-1.82l.09-.17a10.7,10.7,0,0,0,.58-1l.09-.17.44-.72,0-.06a11.43,11.43,0,0,1,.62-1.07l.07-.13a10,10,0,0,1,.58-1l-.09-.35a3.07,3.07,0,0,0-1-.08c-3.18,0-6.36,0-9.54,0-.46.81-.91,1.58-1.35,2.36l-.11.17c-.64,1.1-1.25,2.2-1.9,3.31-.25.47-.55.9-.8,1.37,1.82,3.17,3.66,6.37,5.5,9.52C21.45,111.33,21.64,111.68,21.84,112Z" transform="translate(-1.53 -65.89)"/><polygon class="cls-1" points="46.82 51.9 46.81 52.04 46.93 52.11 46.93 51.98 46.82 51.9"/><polygon class="cls-1" points="36.78 52.13 36.91 52.27 36.88 52.17 36.78 52.13"/><polygon class="cls-1" points="44.78 52.14 44.65 52.08 44.77 52.28 44.78 52.14"/><polygon class="cls-1" points="54.32 52.13 54.33 52.28 54.46 52.08 54.32 52.13"/><polygon class="cls-1" points="103.86 52.13 103.74 52.08 103.86 52.26 103.86 52.13"/><polygon class="cls-1" points="34.77 52.41 34.75 52.3 34.64 52.26 34.64 52.4 34.77 52.41"/><polygon class="cls-1" points="52.12 52.38 52.11 52.24 51.99 52.44 52.12 52.38"/><polygon class="cls-1" points="36.97 52.55 37.1 52.6 36.97 52.42 36.97 52.55"/><polygon class="cls-1" points="34.93 52.63 34.8 52.58 34.93 52.77 34.93 52.63"/><polygon class="cls-1" points="51.83 52.78 51.96 52.71 51.96 52.58 51.82 52.63 51.83 52.78"/><polygon class="cls-1" points="92.89 52.57 92.87 52.71 93 52.77 92.99 52.65 92.89 52.57"/><polygon class="cls-1" points="37.14 52.74 37.26 52.94 37.26 52.81 37.14 52.74"/><polygon class="cls-1" points="53.94 52.9 53.82 52.97 53.82 53.11 53.96 53.05 53.94 52.9"/><polygon class="cls-1" points="22.4 53.14 22.29 53.08 22.4 53.27 22.4 53.14"/><polygon class="cls-1" points="51.62 53.21 51.61 53.08 51.5 53.27 51.62 53.21"/><polygon class="cls-1" points="91.01 53.14 90.89 53.09 91.01 53.26 91.01 53.14"/><polygon class="cls-1" points="37.47 53.37 37.58 53.44 37.48 53.24 37.47 53.37"/><polygon class="cls-1" points="45.45 53.32 45.33 53.25 45.43 53.45 45.45 53.32"/><polygon class="cls-1" points="53.66 53.3 53.66 53.45 53.79 53.25 53.66 53.3"/><polygon class="cls-1" points="35.43 53.48 35.31 53.42 35.43 53.61 35.43 53.48"/><polygon class="cls-1" points="51.31 53.6 51.45 53.56 51.46 53.42 51.33 53.48 51.31 53.6"/><polygon class="cls-1" points="35.6 53.81 35.48 53.75 35.58 53.95 35.6 53.81"/><polygon class="cls-1" points="45.78 53.95 45.78 53.81 45.65 53.75 45.65 53.89 45.78 53.95"/><polygon class="cls-1" points="51.16 53.95 51.28 53.88 51.29 53.75 51.15 53.8 51.16 53.95"/><polygon class="cls-1" points="47.98 54.04 48.09 54.11 47.99 53.91 47.98 54.04"/><polygon class="cls-1" points="91.52 53.98 91.39 53.92 91.51 54.11 91.52 53.98"/><polygon class="cls-1" points="45.94 54.14 45.81 54.08 45.94 54.28 45.94 54.14"/><polygon class="cls-1" points="105.01 54.15 104.92 54.09 105.02 54.26 105.01 54.15"/><polygon class="cls-1" points="23.08 54.32 22.97 54.25 23.06 54.45 23.08 54.32"/><polygon class="cls-1" points="38.14 54.55 38.27 54.61 38.15 54.41 38.14 54.55"/><polygon class="cls-1" points="52.99 54.48 53 54.61 53.1 54.42 52.99 54.48"/><polygon class="cls-1" points="36.1 54.65 35.98 54.59 36.09 54.79 36.1 54.65"/><polygon class="cls-1" points="38.3 54.76 38.31 54.89 38.44 54.94 38.42 54.8 38.3 54.76"/><polygon class="cls-1" points="94.21 55.04 94.34 55.1 94.23 54.89 94.21 55.04"/><polygon class="cls-1" points="48.65 55.22 48.78 55.28 48.66 55.08 48.65 55.22"/><polygon class="cls-1" points="92.17 55.28 92.19 55.15 92.06 55.09 92.08 55.2 92.17 55.28"/><path class="cls-1" d="M100.89,121.15c.93-1.58,1.87-3.15,2.79-4.73a2.24,2.24,0,0,0,.25-.65l0-.13-.07-.07a.42.42,0,0,1-.3-.5l0-.1-.13-.17a1.74,1.74,0,0,0-.2-.41.42.42,0,0,1-.32-.5l0-.09-.14-.17,0-.14-.11-.07v-.12c-.32-.61-.69-1.22-1-1.81l-.1-.08v-.12c-.17-.33-.37-.65-.56-1l-.1-.07v-.13c-.16-.33-.37-.64-.56-1l-.1-.08V109c-.22-.47-.53-.89-.76-1.35l-.06-.1-.23-.35-.13-.21,0-.15-.13,0,0-.14,0-.13-.13-.07v-.14l-.25-.27c-11.81,0-23.61,0-35.42,0-.25.48-.72,1.13-1,1.62l-.09.19a8.38,8.38,0,0,0-.58,1l-.09.19a9.31,9.31,0,0,0-.73,1.27.32.32,0,0,0-.15.33,7.65,7.65,0,0,0-.86,1.38l-.1.2a8.77,8.77,0,0,0-.57,1l-.1.2a.67.67,0,0,0-.22.42c-.31.25-.6,1.16-.87,1.38v.12l-.08.08a.44.44,0,0,0-.19.47c3.27,0,6.56,0,9.83,0,5-.08,10.14,0,15.19,0h10.2c.2,0,.32,0,.36.17L93,116v.13a1.6,1.6,0,0,1,.22.31l.11.19c.07.12.14.23.2.35l.12.15.07.14.09.08,0,.12a5.73,5.73,0,0,0,.56,1l.1.08v.13c.4.71.78,1.44,1.23,2.12l.1.21c.08.11.14.23.21.34l.12.16.06.14.11.2c.17.33.37.65.56,1l.1.07V123c.17.33.36.65.56,1l.1.08v.13c.17.33.37.65.57,1l.1.22a4.72,4.72,0,0,0,.52-.66C99.49,123.48,100.26,122.36,100.89,121.15Z" transform="translate(-1.53 -65.89)"/><polygon class="cls-1" points="38.62 55.29 38.76 55.44 38.73 55.34 38.62 55.29"/><polygon class="cls-1" points="46.62 55.44 46.61 55.31 46.49 55.25 46.5 55.38 46.62 55.44"/><polygon class="cls-1" points="105.69 55.31 105.58 55.26 105.7 55.43 105.69 55.31"/><polygon class="cls-1" points="23.74 55.59 23.64 55.44 23.63 55.56 23.74 55.59"/><polygon class="cls-1" points="48.81 55.42 48.82 55.55 48.94 55.62 48.95 55.47 48.81 55.42"/><polygon class="cls-1" points="50.28 55.55 50.27 55.41 50.15 55.61 50.28 55.55"/><polygon class="cls-1" points="38.81 55.72 38.94 55.78 38.8 55.59 38.81 55.72"/><polygon class="cls-1" points="46.77 55.64 46.66 55.59 46.78 55.77 46.77 55.64"/><polygon class="cls-1" points="23.9 55.81 23.79 55.75 23.9 55.94 23.9 55.81"/><polygon class="cls-1" points="36.77 55.81 36.65 55.75 36.75 55.95 36.77 55.81"/><polygon class="cls-1" points="50 55.95 50.12 55.89 50.12 55.75 49.98 55.81 50 55.95"/><polygon class="cls-1" points="94.71 55.88 94.83 55.94 94.72 55.74 94.71 55.88"/><polygon class="cls-1" points="38.97 55.92 38.97 56.06 39.1 56.11 39.09 55.98 38.97 55.92"/><polygon class="cls-1" points="52.11 56.08 51.99 56.15 51.98 56.28 52.12 56.22 52.11 56.08"/><path class="cls-5" d="M115.83,120.2c.82-1.41,1.65-2.82,2.46-4.24l-7.16-12.43c-.24.38-.47.76-.7,1.14-1.67,2.91-3.38,5.86-5.09,8.74l-.39.07c1.29,2.1,2.48,4.26,3.73,6.38.39.72.83,1.42,1.22,2.13.82,1.42,1.65,2.82,2.45,4.24.76-1.36,1.57-2.67,2.32-4C115.06,121.54,115.47,120.88,115.83,120.2Z" transform="translate(-1.53 -65.89)"/><polygon class="cls-1" points="92.84 56.3 92.72 56.25 92.85 56.44 92.84 56.3"/><polygon class="cls-1" points="39.29 56.46 39.41 56.6 39.38 56.51 39.29 56.46"/><polygon class="cls-1" points="47.27 56.62 47.28 56.48 47.17 56.42 47.17 56.54 47.27 56.62"/><polygon class="cls-1" points="51.96 56.42 51.83 56.47 51.82 56.61 51.94 56.55 51.96 56.42"/><polygon class="cls-1" points="106.36 56.48 106.25 56.42 106.36 56.6 106.36 56.48"/><polygon class="cls-1" points="26.45 56.88 26.57 56.94 26.46 56.75 26.45 56.88"/><polygon class="cls-1" points="51.66 56.81 51.67 56.94 51.77 56.75 51.66 56.81"/><polygon class="cls-1" points="24.57 56.99 24.47 56.93 24.56 57.11 24.57 56.99"/><polygon class="cls-1" points="37.43 56.98 37.32 56.91 37.42 57.12 37.43 56.98"/><polygon class="cls-1" points="95.4 56.91 95.38 57.05 95.51 57.11 95.5 56.99 95.4 56.91"/><polygon class="cls-1" points="93.35 57.15 93.22 57.09 93.34 57.28 93.35 57.15"/><polygon class="cls-1" points="51.44 57.24 51.32 57.31 51.31 57.45 51.45 57.39 51.44 57.24"/><polygon class="cls-1" points="93.51 57.47 93.39 57.42 93.52 57.6 93.51 57.47"/><polygon class="cls-1" points="39.97 57.71 40.08 57.78 39.98 57.58 39.97 57.71"/><polygon class="cls-1" points="47.95 57.65 47.84 57.59 47.94 57.78 47.95 57.65"/><polygon class="cls-1" points="51.29 57.59 51.16 57.64 51.15 57.78 51.27 57.72 51.29 57.59"/><polygon class="cls-1" points="37.93 57.96 37.94 57.82 37.83 57.77 37.82 57.92 37.93 57.96"/><polygon class="cls-1" points="27.15 58.04 27.22 58.09 27.14 57.95 27.15 58.04"/><polygon class="cls-1" points="50.99 57.98 51 58.11 51.1 57.92 50.99 57.98"/><polygon class="cls-1" points="48.28 58.29 48.27 58.15 48.15 58.09 48.16 58.22 48.28 58.29"/><polygon class="cls-1" points="96.07 58.07 96.04 58.21 96.17 58.28 96.16 58.15 96.07 58.07"/><polygon class="cls-1" points="94.01 58.31 93.89 58.26 94.01 58.45 94.01 58.31"/><polygon class="cls-1" points="25.41 58.62 25.42 58.48 25.29 58.42 25.31 58.54 25.41 58.62"/><path class="cls-1" d="M50,124.34l-.12,0v.34C50,124.65,50.06,124.54,50,124.34Z" transform="translate(-1.53 -65.89)"/><polygon class="cls-1" points="50.77 58.41 50.65 58.48 50.65 58.62 50.79 58.56 50.77 58.41"/><polygon class="cls-1" points="107.52 58.48 107.42 58.43 107.54 58.6 107.52 58.48"/><polygon class="cls-1" points="94.18 58.64 94.06 58.59 94.18 58.77 94.18 58.64"/><polygon class="cls-1" points="50.49 58.81 50.5 58.95 50.61 58.76 50.49 58.81"/><polygon class="cls-1" points="38.6 58.99 38.49 58.93 38.6 59.11 38.6 58.99"/><path class="cls-1" d="M49.49,125.22a.55.55,0,0,0,.33-.45A.37.37,0,0,0,49.49,125.22Z" transform="translate(-1.53 -65.89)"/><polygon class="cls-1" points="13.61 59.22 13.7 59.27 13.61 59.11 13.61 59.22"/><polygon class="cls-1" points="50.29 59.26 50.15 59.31 50.14 59.45 50.28 59.4 50.29 59.26"/><polygon class="cls-1" points="96.72 59.38 96.85 59.46 96.74 59.24 96.72 59.38"/><polygon class="cls-1" points="47.95 59.56 47.95 59.44 47.82 59.61 47.95 59.56"/><polygon class="cls-1" points="94.69 59.49 94.56 59.43 94.67 59.62 94.69 59.49"/><polygon class="cls-1" points="26.08 59.65 25.96 59.59 26.07 59.79 26.08 59.65"/><polygon class="cls-1" points="50.12 59.59 49.99 59.64 49.98 59.78 50.11 59.72 50.12 59.59"/><polygon class="cls-1" points="47.66 59.95 47.78 59.89 47.78 59.76 47.66 59.81 47.66 59.95"/><polygon class="cls-1" points="26.25 59.98 26.12 59.93 26.25 60.11 26.25 59.98"/><polygon class="cls-1" points="41.32 59.92 41.3 60.06 41.43 60.12 41.41 59.99 41.32 59.92"/><polygon class="cls-1" points="49.82 59.98 49.83 60.11 49.94 59.92 49.82 59.98"/><polygon class="cls-1" points="39.27 60.16 39.16 60.1 39.26 60.28 39.27 60.16"/><polygon class="cls-1" points="97.24 60.21 97.32 60.27 97.24 60.11 97.24 60.21"/><polygon class="cls-1" points="95.18 60.46 95.18 60.34 95.09 60.28 95.07 60.42 95.18 60.46"/><path class="cls-1" d="M51.15,126.28a1.28,1.28,0,0,0-.33.63A.49.49,0,0,0,51.15,126.28Z" transform="translate(-1.53 -65.89)"/><path class="cls-8" d="M19.79,113.49c-1.39,2.5-2.85,5-4.24,7.46a20.65,20.65,0,0,0-1.36,2.43c.3.55.62,1.09.94,1.62l.1.16c.29.49.55,1,.86,1.47,1.43,2.48,2.89,5,4.33,7.43a2,2,0,0,1,.18-.73c.46-.86.95-1.71,1.47-2.53.69-1.24,1.37-2.49,2.12-3.69l.09-.11c.63-1.15,1.26-2.31,1.94-3.42l.24.07a6.84,6.84,0,0,0-.37-.65l-.09-.18c-.21-.32-.37-.67-.57-1l-.11-.19-.06-.17-.1,0v-.12c-.24-.3-.34-.68-.58-1l-.09-.2-.25-.37-.05-.1a4.11,4.11,0,0,0-.27-.51l-.11-.19-.07-.16-.09-.15c-.19-.33-.36-.68-.57-1l-.1-.19c-.19-.32-.37-.66-.57-1l-.1-.19-.06-.14-.11-.19c-.18-.33-.36-.66-.56-1l-.1-.19c-.19-.33-.36-.66-.57-1l-.1-.21-.14-.29-.08-.12,0-.08-.06-.1-.13-.21C20.06,113,20,113.22,19.79,113.49Z" transform="translate(-1.53 -65.89)"/><polygon class="cls-1" points="108.87 60.82 108.76 60.77 108.86 60.94 108.87 60.82"/><polygon class="cls-1" points="26.83 61.11 26.74 61 26.75 61.04 26.83 61.11"/><polygon class="cls-1" points="49.15 61.15 49.16 61.29 49.28 61.09 49.15 61.15"/><polygon class="cls-1" points="39.94 61.32 39.83 61.27 39.93 61.45 39.94 61.32"/><polygon class="cls-1" points="27.08 61.48 26.97 61.42 27.09 61.61 27.08 61.48"/><polygon class="cls-1" points="46.49 61.95 46.61 61.89 46.61 61.76 46.5 61.83 46.49 61.95"/><polygon class="cls-1" points="98.41 62.22 98.49 62.28 98.39 62.12 98.41 62.22"/><polygon class="cls-1" points="48.6 62.26 48.48 62.32 48.49 62.46 48.59 62.38 48.6 62.26"/><path class="cls-2" d="M109.72,130.82c-1,1.81-2.09,3.58-3.12,5.38a9,9,0,0,1-1,1.56c1.62,2.81,3.26,5.61,4.87,8.43a.14.14,0,0,0,.21.12c1.8-3.17,3.66-6.33,5.48-9.5-1.64-2.9-3.34-5.79-5-8.69A17,17,0,0,1,109.72,130.82Z" transform="translate(-1.53 -65.89)"/><polygon class="cls-1" points="40.6 62.48 40.49 62.43 40.61 62.6 40.6 62.48"/><polygon class="cls-1" points="27.75 62.66 27.63 62.58 27.74 62.79 27.75 62.66"/><polygon class="cls-1" points="46.11 62.72 46.1 62.6 46.01 62.78 46.11 62.72"/><polygon class="cls-1" points="42.98 62.9 43.09 62.95 42.97 62.78 42.98 62.9"/><polygon class="cls-1" points="30.12 63.23 30.23 63.28 30.13 63.1 30.12 63.23"/><polygon class="cls-1" points="48.11 63.09 47.98 63.16 47.99 63.3 48.1 63.23 48.11 63.09"/><polygon class="cls-1" points="41.1 63.33 40.99 63.27 41.1 63.45 41.1 63.33"/><polygon class="cls-1" points="99.07 63.38 99.16 63.44 99.07 63.27 99.07 63.38"/><path class="cls-6" d="M32.8,115.68c-.65,0-1.31,0-2,0a17.6,17.6,0,0,0-1.29,2.14l-.18.26c-.53.9-1,1.83-1.56,2.73a3.92,3.92,0,0,0-.39.86c.2.31.37.64.57,1l.1.19c.14.24.28.48.41.72l.17.29.08.14c.21.35.4.71.6,1.06l0,.07c.77,1.29,1.5,2.59,2.26,3.88l.11.18.06.13,1.41,2.43a1.76,1.76,0,0,0,.37.52c3.56,0,7.11,0,10.67,0a3,3,0,0,0-.32-.59l-.08-.17c-.18-.35-.4-.67-.58-1l-.1-.17c-.18-.29-.32-.6-.51-.88l0-.12-.11-.17-.39-.67-.12-.17-.07-.19-.06-.11c-.17-.21-.28-.46-.43-.68l-.09-.19c-.2-.32-.37-.66-.58-1l-.09-.19c-.12-.22-.26-.45-.39-.67l-.12-.16-.06-.15-.11-.18c-.17-.33-.36-.66-.55-1l-.11,0v-.15c-.15-.21-.27-.44-.41-.66l-.11-.2-.09-.18,0-.08a8.1,8.1,0,0,0-.42-.7l-.11-.2-.08-.18-.06-.11c-.14-.22-.27-.46-.42-.68l-.1-.2-.08-.15-.07-.15-.25-.33-.1-.2,0-.14-.12-.19-.21-.34-.12-.16-.06-.15-.12-.19,0-.17h-.13v-.15a3.79,3.79,0,0,1-.2-.34l-.13-.16-.05-.14-.12-.2a5.73,5.73,0,0,0-.56-1l-.11-.2-.19-.33A7.12,7.12,0,0,0,32.8,115.68Z" transform="translate(-1.53 -65.89)"/><polygon class="cls-1" points="47.95 63.43 47.83 63.48 47.8 63.6 47.92 63.55 47.95 63.43"/><polygon class="cls-1" points="28.41 63.97 28.42 63.83 28.3 63.76 28.32 63.88 28.41 63.97"/><polygon class="cls-1" points="43.81 64.4 43.94 64.45 43.82 64.26 43.81 64.4"/><polygon class="cls-1" points="41.76 64.5 41.67 64.44 41.76 64.61 41.76 64.5"/><polygon class="cls-1" points="43.99 64.58 43.98 64.72 44.1 64.79 44.1 64.66 43.99 64.58"/><path class="cls-8" d="M109.72,130.82a17,17,0,0,0,1.42-2.7c-.24-.44-.5-.87-.75-1.29l-.1-.18c-.19-.35-.4-.69-.59-1l0-.09-.32-.54-.09-.16-.12-.17-.06-.16-.12-.17-.59-1.06,0-.06c-.15-.23-.28-.47-.42-.71l-.11-.18c-.12-.23-.25-.45-.39-.68l-.1-.16-.06-.15-.12-.18a5.7,5.7,0,0,0-.39-.68l-.09-.15-.08-.16-.11-.17-.59-1-.06-.1c-.14-.23-.27-.47-.4-.7l-.12-.19-.09-.19,0-.07c-.15-.24-.28-.48-.42-.72l-.12-.18-.08-.19,0-.1c-.15-.22-.28-.45-.42-.68l-.12-.06a2.24,2.24,0,0,1-.25.65c-.92,1.58-1.86,3.15-2.79,4.73-.63,1.21-1.4,2.33-2,3.54a4.72,4.72,0,0,1-.52.66c.15.21.26.44.4.65l.08.15c.14.23.27.46.4.69l.11.17.07.17.08.13.41.7.1.16a8.25,8.25,0,0,0,.58,1l.09.17.67,1.17c1.39,2.41,2.81,4.88,4.21,7.26a9,9,0,0,0,1-1.56C107.63,134.4,108.7,132.63,109.72,130.82Z" transform="translate(-1.53 -65.89)"/><polygon class="cls-1" points="29.1 65.11 29.09 64.99 28.98 64.95 28.98 65.11 29.1 65.11"/><path class="cls-1" d="M46.15,131.32v-.22l-.31-.15C45.79,131.13,45.89,131.26,46.15,131.32Z" transform="translate(-1.53 -65.89)"/><polygon class="cls-1" points="29.25 65.32 29.13 65.26 29.24 65.46 29.25 65.32"/><polygon class="cls-1" points="46.78 65.43 46.65 65.49 46.66 65.63 46.77 65.56 46.78 65.43"/><polygon class="cls-1" points="42.43 65.67 42.34 65.61 42.43 65.78 42.43 65.67"/><path class="cls-2" d="M88.88,124.34c-.32.62-.68,1.21-1,1.82-.53,1-1.16,2-1.71,2.94s-1,1.66-1.46,2.56-1,1.7-1.49,2.53h8.68a10.32,10.32,0,0,0,1.47,0,16.9,16.9,0,0,0,1.17-2L97,128a3.61,3.61,0,0,0,.24-.62c-.19-.32-.36-.66-.55-1l-.11,0v-.14a7.31,7.31,0,0,1-.41-.66l-.11-.2c-.13-.21-.25-.44-.38-.66l-.12-.17,0-.15-.12-.18c-.12-.22-.25-.44-.38-.66l-.12-.18,0-.14-.12-.19c-.12-.22-.24-.44-.37-.66l-.14-.18,0-.16-.09-.15c-.15-.21-.26-.45-.4-.66l-.1-.08V121c-.12-.22-.25-.44-.38-.66l-.12-.17L93,120l-.11-.19c-.12-.23-.25-.45-.38-.66l-.12-.18a.77.77,0,0,0-.19-.37c-.4.76-.86,1.49-1.29,2.23C90.28,122,89.57,123.17,88.88,124.34Z" transform="translate(-1.53 -65.89)"/><polygon class="cls-1" points="29.92 66.5 29.81 66.44 29.91 66.63 29.92 66.5"/><polygon class="cls-1" points="46.11 66.6 45.98 66.66 45.98 66.8 46.09 66.73 46.11 66.6"/><path class="cls-1" d="M47.3,133.09a.64.64,0,0,0-.31.5C47.23,133.53,47.33,133.37,47.3,133.09Z" transform="translate(-1.53 -65.89)"/><polygon class="cls-1" points="45.32 67.82 45.3 67.95 45.45 67.78 45.32 67.82"/><polygon class="cls-1" points="30.75 68 30.64 67.93 30.75 68.13 30.75 68"/><polygon class="cls-1" points="44.82 68.67 44.83 68.8 44.93 68.61 44.82 68.67"/><polygon class="cls-1" points="42.44 69.07 42.43 68.94 42.32 69.13 42.44 69.07"/><polygon class="cls-1" points="42.26 69.4 42.27 69.28 42.15 69.46 42.26 69.4"/><polygon class="cls-1" points="44.23 69.81 44.15 69.95 44.24 69.93 44.23 69.81"/><polygon class="cls-1" points="19.94 70.07 20.05 70.13 19.95 69.94 19.94 70.07"/><polygon class="cls-1" points="41.77 70.24 41.77 70.11 41.66 70.3 41.77 70.24"/><polygon class="cls-1" points="43.47 71.01 43.49 71.13 43.58 70.94 43.47 71.01"/><polygon class="cls-1" points="41.1 71.42 41.1 71.29 40.99 71.47 41.1 71.42"/><polygon class="cls-1" points="40.43 72.58 40.44 72.46 40.32 72.64 40.43 72.58"/><path class="cls-6" d="M49,147.51c-.92-1.74-2-3.38-2.93-5.12-.76-1.13-1.34-2.42-2.16-3.51-1.64,2.81-3.26,5.65-4.89,8.47a1.44,1.44,0,0,0,.76.17C42.88,147.5,46,147.52,49,147.51Z" transform="translate(-1.53 -65.89)"/><polygon class="cls-1" points="39.75 73.74 39.76 73.64 39.66 73.79 39.75 73.74"/><path class="cls-9" d="M16.67,140.05c0-.07.11-.13.17-.2.71-1.27,1.44-2.53,2.14-3.81l.2-.27c-.95-1.63-1.88-3.28-2.84-4.91-1.08-1.88-2.16-3.77-3.25-5.65-.18.25-.35.51-.5.77q-1.35,2.38-2.71,4.74c-.92,1.54-1.77,3.12-2.68,4.67a2.09,2.09,0,0,0-.37.8c.69,1.17,1.37,2.35,2.05,3.53,1.33,2.3,2.66,4.61,4,6.9.75-1.08,1.3-2.3,2-3.41S16.1,141.12,16.67,140.05Z" transform="translate(-1.53 -65.89)"/><polygon class="cls-1" points="39.09 74.9 39.08 74.79 38.99 74.96 39.09 74.9"/><path class="cls-8" d="M24.28,127l-.09.11c-.75,1.2-1.43,2.45-2.12,3.69-.52.82-1,1.67-1.47,2.53a2,2,0,0,0-.18.73l.08.16.05.08c.33.49.58,1,.93,1.53l.09.18c.2.36.41.7.6,1.06.85,1.43,1.68,2.88,2.54,4.31s1.59,2.77,2.42,4.14H37.79c.72-1.14,1.37-2.33,2.05-3.5.24-.38.44-.79.68-1.17l.09-.17c.2-.33.39-.67.58-1l.1-.15c.14-.25.28-.5.43-.73l0-.08.08-.19.13-.18.08-.17.09-.13.07-.16.17-.25.06-.1.07-.18.12-.18.41-.73,0-.07.1-.19.11-.19.07-.15.12-.14.2-.37.12-.18.05-.14.11-.19a5.26,5.26,0,0,0,.38-.65h-12l-.06-.16-.11-.2-.09-.18,0-.09c-.21-.34-.38-.7-.59-1l-.11-.19c-.19-.33-.35-.67-.56-1l-.12-.2,0-.15h-.11v-.15c-.19-.33-.36-.67-.57-1l-.09-.08v-.12c-.2-.32-.36-.66-.56-1l-.11-.21-.14-.29-.08-.13,0-.07-.06-.1-.22-.38-.13-.19-.13-.31-.08-.07v0l0-.08-.05-.1c-.08-.13-.16-.26-.23-.39l-.12-.17-.06-.15-.12-.18,0-.14-.11-.2c-.18-.33-.37-.65-.56-1l-.1-.08v-.12l-.08-.16-.08-.14c-.07-.12-.14-.24-.2-.36l-.24-.07C25.54,124.69,24.91,125.85,24.28,127Z" transform="translate(-1.53 -65.89)"/><path class="cls-4" d="M49,147.51h.09c4.58,0,9.16,0,13.74,0h.33a4.22,4.22,0,0,0,.61-.07c.16-.22.3-.47.47-.69s.52-.09.74-.11c3.74,0,7.48,0,11.22,0,.6-.91,1.15-1.86,1.68-2.81l.07-.05a12.06,12.06,0,0,1,.76-1.42c.77-1.3,1.52-2.6,2.29-3.89a1.32,1.32,0,0,0,.2-.82,9.32,9.32,0,0,0-.87-1.37c-.31-.7-.81-1.35-1.09-2a2.46,2.46,0,0,1,.77-.08c1,0,2.11,0,3.17,0,.54-.83,1-1.68,1.49-2.53s1-1.69,1.46-2.56,1.18-1.93,1.71-2.94c.33-.61.69-1.2,1-1.82.69-1.17,1.4-2.32,2.06-3.51.43-.74.89-1.47,1.29-2.23-.12-.31-.36-.54-.5-.84-3.34,0-6.69,0-10,0-.22,0-.58,0-.72.18-.55.75-1,1.61-1.43,2.41-.69,1.15-1.39,2.3-2,3.48a20.2,20.2,0,0,0-1,1.81,11.08,11.08,0,0,0-1,1.84,16.58,16.58,0,0,0,.92,1.71c.4.75.82,1.48,1.28,2.2.49.94,1.06,1.85,1.53,2.8a10.27,10.27,0,0,1-1.47.05c-1.84,0-3.67,0-5.51,0a4.78,4.78,0,0,0-.84.08c-.26,0-.52.06-.78.11A16.39,16.39,0,0,0,69,137l-.1,0c-.7,1.42-1.6,2.75-2.38,4.14-.37.69-.8,1.34-1.15,2a14.71,14.71,0,0,1-1.17,2.13,14.36,14.36,0,0,1-.78,1.24.45.45,0,0,1-.73-.07c-.69-1.16-1.38-2.31-2-3.5l-.09,0c-.32-.73-.77-1.38-1.13-2.1-.9-1.43-1.7-2.93-2.58-4.38-.36-.65-.72-1.29-1.1-1.93-.1-.14-.25-.38-.44-.35-2.67,0-5.33,0-8,0a.57.57,0,0,1-.57-.24c-.11.17-.2.35-.3.53l-.1.18c-.22.33-.36.7-.6,1l0,.12-.09,0c-.18.34-.38.66-.57,1L45,137c-.15.23-.29.48-.43.72l0,0c-.21.36-.41.74-.61,1.1.82,1.09,1.4,2.38,2.16,3.51C47,144.13,48.11,145.77,49,147.51Z" transform="translate(-1.53 -65.89)"/><path class="cls-1" d="M47.32,134.21c2.67,0,5.33,0,8,0,.19,0,.34.21.44.35.38.64.74,1.28,1.1,1.93.88,1.45,1.68,3,2.58,4.38.36.72.81,1.37,1.13,2.1l.09,0c.64,1.19,1.33,2.34,2,3.5a.45.45,0,0,0,.73.07,14.36,14.36,0,0,0,.78-1.24,14.71,14.71,0,0,0,1.17-2.13c.35-.7.78-1.35,1.15-2,.78-1.39,1.68-2.72,2.38-4.14l.1,0a16.39,16.39,0,0,1,1.58-2.6c.26-.05.52-.07.78-.11a4.78,4.78,0,0,1,.84-.08c1.84,0,3.67,0,5.51,0a10.27,10.27,0,0,0,1.47-.05c-.47-.95-1-1.86-1.53-2.8-.46-.72-.88-1.45-1.28-2.2a16.58,16.58,0,0,1-.92-1.71,11.08,11.08,0,0,1,1-1.84,20.2,20.2,0,0,1,1-1.81c.65-1.18,1.35-2.33,2-3.48.48-.8.88-1.66,1.43-2.41.14-.22.5-.16.72-.18,3.34,0,6.69,0,10,0l-.08-.09c-4.2,0-8.41,0-12.62,0q-11.41,0-22.86,0l0,.14-.13,0,0,.16-.12.19c-.16.21-.19.45-.39.63l0,.15-.15.06,0,.14-.13.19c-.18.37-.4.62-.56,1l-.1.19c-.26.37-.66,1.16-.9,1.46l0,.15-.14.06,0,.14v.13l-.12.06-.05.14-.11.19a1.66,1.66,0,0,1-.22.3v.15l-.14.06,0,.14,0,.13-.12.06,0,.14-.1.19-.23.3,0,.15-.14.06,0,.13-.11.2a2.32,2.32,0,0,1-.22.3v.15l-.14,0,0,.15,0,.13-.12.06,0,.14-.11.19a1.86,1.86,0,0,1-.21.28.49.49,0,0,1-.33.63V127l-.12.2a7.86,7.86,0,0,0-.56,1v.12l-.1.08-.22.34-.07.15-.09.14v.14l-.11.07-.05.13,0,.12-.11.05c-.34.61-.71,1.21-1,1.83v.13l-.11.07a9.29,9.29,0,0,0-.55,1v.12l-.11.07,0,.15-.13.16,0,.1c0,.28-.07.44-.31.5l0,.07-.15.18-.07.13A.57.57,0,0,0,47.32,134.21Z" transform="translate(-1.53 -65.89)"/><path class="cls-6" d="M86.37,146.64a1.79,1.79,0,0,0-.37-.9c-.29-.47-.55-1-.85-1.42L84.9,144c-1.16-2.13-2.38-4.23-3.57-6.35l-.1.05a1.32,1.32,0,0,1-.2.82c-.77,1.29-1.52,2.59-2.29,3.89a12.06,12.06,0,0,0-.76,1.42l-.07.05c-.53.95-1.08,1.9-1.68,2.81C79.61,146.62,83,146.71,86.37,146.64Z" transform="translate(-1.53 -65.89)"/><path class="cls-6" d="M67.06,154.17c.41.75.89,1.45,1.27,2.21a3.91,3.91,0,0,0,.58.91c.39.05.78.07,1.16.11l.16-.12.07,0a17.32,17.32,0,0,1,1.49-2.74,12.56,12.56,0,0,1,.85-1.52c1.06-1.83,2.1-3.68,3.21-5.48a4.07,4.07,0,0,0,.38-.82c-3.74,0-7.48,0-11.22,0-.22,0-.56,0-.74.11s-.31.47-.47.69a4.22,4.22,0,0,1-.61.07c.37.53.66,1.09,1,1.65C65.14,150.85,66.16,152.48,67.06,154.17Z" transform="translate(-1.53 -65.89)"/><path class="cls-6" d="M58,156a23.23,23.23,0,0,1,1.28-2.22c.36-.84.9-1.56,1.33-2.36.73-1.32,1.57-2.57,2.25-3.91-4.58,0-9.16-.07-13.74,0A16,16,0,0,0,50.48,150c.67,1.23,1.46,2.38,2.07,3.63a16.27,16.27,0,0,1,1.15,2c.45.76.95,1.53,1.35,2.32a9.92,9.92,0,0,1,.86,1.56l.07,0c.28-.52.6-1,.88-1.53C57.21,157.34,57.62,156.7,58,156Z" transform="translate(-1.53 -65.89)"/><path class="cls-9" d="M106.83,144q-1.15-2-2.32-4c-.75,1.3-1.61,2.56-2.26,3.91a9.48,9.48,0,0,1-.61,1,13.41,13.41,0,0,1-.94,1.6c-.15.26-.38.19-.63.22H90.22c-1.22,0-2.43,0-3.64,0,.29.56.67,1.09.91,1.67a17.31,17.31,0,0,1-1,1.79c-.54.94-1.11,1.87-1.64,2.83l-1.2,2c-.4.74-.87,1.42-1.21,2.18a10.1,10.1,0,0,0,1.74.08c6.68,0,13.37,0,20.05,0,.63-1.07,1.25-2.13,1.86-3.21s1.11-1.89,1.64-2.85l1.6-2.75c0-.17-.16-.34-.23-.49C108.37,146.64,107.61,145.3,106.83,144Z" transform="translate(-1.53 -65.89)"/><path class="cls-10" d="M19.21,157.63l.24,0c7.34,0,14.68,0,22,0-.51-.89-1-1.78-1.53-2.65l-2.59-4.49c-.4-.72-.83-1.41-1.22-2.14.17-.29.35-.57.51-.86H26.11a.43.43,0,0,1-.24-.11c-.68-1.26-1.42-2.49-2.13-3.74l-2-3.54-2.52-4.36L19,136c-.7,1.28-1.43,2.54-2.14,3.81-.06.07-.12.13-.17.2-.57,1.07-1.19,2.11-1.78,3.16s-1.26,2.33-2,3.41l.22.41c.58,1,1.17,2,1.76,3.05.79,1.38,1.6,2.76,2.39,4.14C17.9,155.36,18.57,156.48,19.21,157.63Z" transform="translate(-1.53 -65.89)"/><path class="cls-11" d="M94.53,132.19a16.9,16.9,0,0,1-1.17,2,10.32,10.32,0,0,1-1.47,0H83.21c-1.06,0-2.12,0-3.17,0a2.46,2.46,0,0,0-.77.08c.28.7.78,1.35,1.09,2a9.32,9.32,0,0,1,.87,1.37l.1-.05c1.19,2.12,2.41,4.22,3.57,6.35l.25.33c.3.47.56,1,.85,1.42a1.79,1.79,0,0,1,.37.9c-3.37.07-6.76,0-10.14,0a4.07,4.07,0,0,1-.38.82c-1.11,1.8-2.15,3.65-3.21,5.48a12.56,12.56,0,0,0-.85,1.52,17.32,17.32,0,0,0-1.49,2.74c.29,0,.59,0,.89,0H82.41l.06-.09c.34-.76.81-1.44,1.21-2.18l1.2-2c.53-1,1.1-1.89,1.64-2.83a17.31,17.31,0,0,0,1-1.79c-.24-.58-.62-1.11-.91-1.67,1.21,0,2.42,0,3.64,0h9.85c.25,0,.48,0,.63-.22a13.41,13.41,0,0,0,.94-1.6,9.48,9.48,0,0,0,.61-1c.65-1.35,1.51-2.61,2.26-3.91-.26-.51-.56-1-.85-1.51-2.13-3.71-4.28-7.42-6.4-11.12A3.61,3.61,0,0,1,97,128Z" transform="translate(-1.53 -65.89)"/><path class="cls-7" d="M84.21,157.28a10.1,10.1,0,0,1-1.74-.08l-.06.09-3.2,5.47c-1.26,2.27-2.64,4.47-3.88,6.75,1,0,1.91,0,2.87,0H94.56a22.23,22.23,0,0,1,2.58.07q3.57-6.15,7.12-12.33C97.58,157.29,90.89,157.28,84.21,157.28Z" transform="translate(-1.53 -65.89)"/><path class="cls-11" d="M54.67,159.68a4,4,0,0,0,1.24-.11,9.92,9.92,0,0,0-.86-1.56c-.4-.79-.9-1.56-1.35-2.32a16.27,16.27,0,0,0-1.15-2c-.61-1.25-1.4-2.4-2.07-3.63a16,16,0,0,1-1.36-2.51H49c-3.08,0-6.15,0-9.22,0a1.44,1.44,0,0,1-.76-.17c-.19.35-.38.7-.58,1.05.9,1.61,1.87,3.23,2.79,4.84.42.73.85,1.46,1.27,2.2l1.23,2.13L45,159.72c.44,0,.88-.05,1.32-.05Z" transform="translate(-1.53 -65.89)"/><path class="cls-4" d="M26.3,168.71H47.85l-5.22-9a5.62,5.62,0,0,0-.82,0H20.87l5.34,9Z" transform="translate(-1.53 -65.89)"/><path class="cls-9" d="M71.19,157.28c-.3,0-.6,0-.89,0l-.07,0-.16.12c-.23.44-.48.88-.74,1.32-.63,1.17-1.38,2.28-2,3.46-1.06,1.85-2.16,3.67-3.21,5.52-.34.6-.72,1.18-1,1.81,4,.1,8.08,0,12.11.08l.09-.08c1.24-2.28,2.62-4.48,3.88-6.75l3.2-5.47Z" transform="translate(-1.53 -65.89)"/><path class="cls-9" d="M62.42,170.64a6.94,6.94,0,0,0,.61-1.06,7,7,0,0,1-1.29-.09c-.41-.61-.74-1.27-1.1-1.91-.65-1.07-1.25-2.18-1.92-3.24-.44-.89-1-1.7-1.44-2.59-.46-.71-.87-1.46-1.3-2.2l-.07,0a4,4,0,0,1-1.24.11H46.32c-.44,0-.88,0-1.32.05.8,1.4,1.62,2.8,2.43,4.2,1.3,2.28,2.62,4.54,3.93,6.81,3.44,0,6.88,0,10.32,0C61.9,170.72,62.25,170.79,62.42,170.64Z" transform="translate(-1.53 -65.89)"/><path class="cls-10" d="M67.35,162.18c.6-1.18,1.35-2.29,2-3.46.26-.44.51-.88.74-1.32-.38,0-.77-.06-1.16-.11a3.91,3.91,0,0,1-.58-.91c-.38-.76-.86-1.46-1.27-2.21-.9-1.69-1.92-3.32-2.88-5-.33-.56-.62-1.12-1-1.65h-.33c-.68,1.34-1.52,2.59-2.25,3.91-.43.8-1,1.52-1.33,2.36A23.23,23.23,0,0,0,58,156c-.38.66-.79,1.3-1.14,2-.28.52-.6,1-.88,1.53.43.74.84,1.49,1.3,2.2.44.89,1,1.7,1.44,2.59.67,1.06,1.27,2.17,1.92,3.24.36.64.69,1.3,1.1,1.91a7,7,0,0,0,1.29.09l.1-.07c.29-.63.67-1.21,1-1.81C65.19,165.85,66.29,164,67.35,162.18Z" transform="translate(-1.53 -65.89)"/><path class="cls-7" d="M74.34,171.2c.31-.53.63-1.06.9-1.61-4-.13-8.08,0-12.11-.08l-.1.07a6.94,6.94,0,0,1-.61,1.06c-.17.15-.52.08-.74.11-3.44,0-6.88,0-10.32,0,1.61,2.78,3.21,5.58,4.83,8.35a4.36,4.36,0,0,0,.81,0H69.84a14.59,14.59,0,0,1,.84-1.55C71.89,175.43,73.12,173.32,74.34,171.2Z" transform="translate(-1.53 -65.89)"/><path class="cls-12" d="M94.56,169.53H78.2c-1,0-1.92,0-2.87,0l-.09.08c-.27.55-.59,1.08-.9,1.61-1.22,2.12-2.45,4.23-3.66,6.35a14.59,14.59,0,0,0-.84,1.55c7.07,0,14.14,0,21.21,0,.21,0,.62.08.71-.17,1.79-3.12,3.6-6.22,5.38-9.34A22.23,22.23,0,0,0,94.56,169.53Z" transform="translate(-1.53 -65.89)"/><path class="cls-12" d="M48.82,170.76H27.16c1.58,2.78,3.18,5.58,4.81,8.33,6.32,0,12.7,0,19,0,.94,0,1.89,0,2.83,0-1.45-2.6-3-5.16-4.45-7.75C49.23,171.16,49.11,170.7,48.82,170.76Z" transform="translate(-1.53 -65.89)"/></svg>