<svg id="Layer_1" data-name="Layer 1" xmlns="http://www.w3.org/2000/svg" viewBox="0 0 792 96.58315"><defs><style>.cls-1{fill:#00b9b1;}.cls-2{fill:#009ade;}.cls-3{fill:#24c1db;}.cls-4{fill:#003764;}</style></defs><path class="cls-1" d="M51.73577,51.81761a5.19484,5.19484,0,0,0,.00628-7.35428L26.15079,18.82947A5.20048,5.20048,0,1,0,18.79011,26.178l21.917,21.95339,3.67406,3.68022-.0058.00452a5.19754,5.19754,0,0,1-.02809,7.366l.00675.00509Z"/><path class="cls-2" d="M44.23073,39.10183a5.18416,5.18416,0,0,1-1.52242,3.67185l.00583.00407-3.6801,3.6743-.0049.00511,7.3486,7.36041L50.063,50.13864a5.20072,5.20072,0,0,0,.006-7.35462l-7.36971-7.382-.007.00511A5.18438,5.18438,0,0,1,44.23073,39.10183Z"/><path class="cls-3" d="M44.36535,37.07772a5.19785,5.19785,0,0,1,.01557,7.36633l.00625.0043-3.68055,3.67431L29.42329,59.38728a5.20035,5.20035,0,1,0,7.34836,7.36044L51.73553,51.809a5.20046,5.20046,0,0,0,.00628-7.35464l-7.37-7.38178Z"/><path class="cls-1" d="M66.65,44.40053a5.19464,5.19464,0,0,0-.00613,7.35464L92.235,77.38891a5.20055,5.20055,0,1,0,7.36054-7.34882L77.67872,48.08715l-3.67406-3.68046.0058-.0043a5.19781,5.19781,0,0,1,.02843-7.36634l-.00706-.00511Z"/><path class="cls-2" d="M74.15518,57.11667a5.18354,5.18354,0,0,1,1.52254-3.67185l-.006-.00407,3.68043-3.67442.00466-.005-7.3486-7.36077-3.68533,3.67951a5.20006,5.20006,0,0,0-.006,7.35407l7.37007,7.38235.00663-.00511A5.18574,5.18574,0,0,1,74.15518,57.11667Z"/><path class="cls-3" d="M74.02056,59.14054a5.19742,5.19742,0,0,1-.01566-7.36612l-.00616-.00451,3.68046-3.67418L88.96239,36.8311a5.20039,5.20039,0,0,0-7.34825-7.36067l-14.96388,14.939a5.2,5.2,0,0,0-.00616,7.3544l7.36985,7.38167Z"/><path class="cls-1" d="M55.52219,40.58789a5.19473,5.19473,0,0,0,7.35429.00613L88.51033,15.00288A5.20046,5.20046,0,1,0,81.162,7.64211L59.20857,29.55919l-3.68034,3.67418-.00463-.00592a5.19741,5.19741,0,0,1-7.366-.02842l-.00511.00684Z"/><path class="cls-2" d="M68.238,33.08249a5.18211,5.18211,0,0,1-3.6714-1.52229l-.00452.0058-3.67442-3.6802-.00451-.00487-7.361,7.34881,3.67939,3.685a5.20031,5.20031,0,0,0,7.35441.00615l7.38178-7.36982-.00509-.00685A5.18181,5.18181,0,0,1,68.238,33.08249Z"/><path class="cls-3" d="M70.26233,33.21735a5.198,5.198,0,0,1-7.36658.01566l-.00406.00616-3.6743-3.68046L47.95265,18.27529A5.20048,5.20048,0,1,0,40.592,25.62377L55.53078,40.58765a5.20059,5.20059,0,0,0,7.35487.00616L70.26732,33.224Z"/><path class="cls-1" d="M62.8795,55.62167a5.19366,5.19366,0,0,0-7.35474-.00613L29.891,81.20668a5.20043,5.20043,0,1,0,7.3486,7.36042L59.193,66.65049,62.87334,62.976l.00419.00616a5.198,5.198,0,0,1,7.36647.02843l.00511-.00706Z"/><path class="cls-2" d="M50.16348,63.12683A5.18191,5.18191,0,0,1,53.835,64.64946l.0044-.006,3.67406,3.68031.00511.00466,7.36091-7.34884L61.2,57.29461a5.20046,5.20046,0,0,0-7.35428-.00616l-7.382,7.37007.00511.00675A5.18483,5.18483,0,0,1,50.16348,63.12683Z"/><path class="cls-3" d="M48.13925,62.99233a5.19687,5.19687,0,0,1,7.366-.01578l.00466-.00616L59.18419,66.651l11.26452,11.283a5.20043,5.20043,0,0,0,7.3609-7.34813L62.87032,55.62167a5.20057,5.20057,0,0,0-7.3544-.00613L48.13414,62.9857Z"/><polygon class="cls-2" points="123.739 30.689 123.739 21.954 119.364 21.954 119.364 35.057 132.472 35.057 132.472 30.689 123.739 30.689"/><polygon class="cls-4" points="141.204 13.213 119.367 13.213 119.367 19.766 123.733 19.766 123.733 17.6 136.837 17.6 136.837 30.689 134.656 30.689 134.656 35.057 141.204 35.057 141.204 13.213"/><path class="cls-4" d="M146.97305,13.46778h6.65287V29.5239h9.55527v5.53323H146.97305Z"/><path class="cls-4" d="M166.02314,13.46778h16.69172v5.53278H172.676v2.69128h8.61788v5.14077H172.676v8.22452h-6.65287Z"/><path class="cls-2" d="M199.88264,35.17032H187.82535V13.41765h12.05729v1.3987h-10.518V23.0441H199.294v1.3987h-9.92934v9.32882h10.518Z"/><path class="cls-2" d="M220.91825,35.17032H219.364L206.29584,15.8579h-.12071q.18107,3.45189.18107,5.20747V35.17032h-1.479V13.41765h1.53934l13.05316,19.2828h.09053q-.1358-2.67822-.13593-5.08843V13.41765h1.49394Z"/><path class="cls-2" d="M239.2229,35.17032H227.16561V13.41765H239.2229v1.3987H228.705V23.0441h9.92933v1.3987H228.705v9.32882H239.2229Z"/><path class="cls-2" d="M245.75682,25.69255v9.47777h-1.53935V13.41765h5.2515q4.10431,0,6.06629,1.49532a5.303,5.303,0,0,1,1.96184,4.50093,5.82693,5.82693,0,0,1-1.16946,3.68972,6.51424,6.51424,0,0,1-3.55379,2.15758l5.99072,9.90912h-1.84113l-5.68893-9.47777Zm0-1.30928H249.967a6.78638,6.78638,0,0,0,4.33093-1.2276A4.35593,4.35593,0,0,0,255.837,19.533a4.2234,4.2234,0,0,0-1.50889-3.61553q-1.50916-1.13084-4.91954-1.131h-3.65179Z"/><path class="cls-2" d="M271.03711,23.95376h7.95022v9.70031a18.06306,18.06306,0,0,1-7.0358,1.309q-5.10372,0-7.82493-2.84312t-2.72133-8.04981a11.95244,11.95244,0,0,1,1.34957-5.75172,9.38483,9.38483,0,0,1,3.8647-3.87579,11.898,11.898,0,0,1,5.77445-1.36716,15.0716,15.0716,0,0,1,6.32787,1.27975l-.60484,1.33794a13.8444,13.8444,0,0,0-5.81152-1.27976,8.95066,8.95066,0,0,0-6.76275,2.596,9.66942,9.66942,0,0,0-2.50024,7.00252q0,4.79928,2.37467,7.22064,2.37468,2.42175,6.97681,2.42149a13.68692,13.68692,0,0,0,5.05921-.82891V25.34988h-6.41609Z"/><path class="cls-2" d="M289.49289,25.24259l6.4204-11.83266h1.65024L290.258,26.67733v8.35659h-1.5751V26.7954l-7.33552-13.38547h1.7551Z"/><path class="cls-2" d="M133.94914,67.37585H123.28023V79.144h11.87213l-.52569,3.47268H119.36356V50.40941h15.11209V53.925H123.28023v9.95672h10.66891Z"/><path class="cls-2" d="M138.95844,82.61668V50.40941h4.77163c8.477,21.44015,9.73225,24.54229,10.13745,25.97411h.04786c-.23272-4.24016-.28471-9.06791-.28471-14.30911v-11.665h3.66249V82.61668h-4.56449c-8.79641-22.57488-9.95259-25.6209-10.32726-26.93223h-.04786c.23767,4.01652.26325,9.18922.26325,14.98252V82.61668Z"/><path class="cls-2" d="M178.07311,67.37585H167.4042V79.144h11.87213l-.52569,3.47268H163.48753V50.40941h15.11209V53.925H167.4042v9.95672h10.66891Z"/><path class="cls-2" d="M187.02136,67.99727V82.61668h-3.93895V50.40941h8.68c5.49126,0,8.416,3.06253,8.416,8.40771,0,4.784-2.38582,6.829-4.28391,7.49332,2.89087,1.08274,3.8655,3.61958,3.8655,8.17912v1.2808a35.61407,35.61407,0,0,0,.45307,6.84632h-3.90346a29.85046,29.85046,0,0,1-.49186-6.91977V74.58859c0-4.534-.94492-6.59132-5.1595-6.59132Zm0-3.32166h3.84817c3.835,0,5.29319-2.07964,5.29319-5.72893,0-3.14917-1.46235-5.21561-4.90945-5.21561h-4.23191Z"/><path class="cls-2" d="M222.90432,82.61668h-3.08893a27.255,27.255,0,0,1-.23273-3.339c-1.12977,2.29917-2.85538,3.83084-6.43617,3.83084-6.928,0-8.86985-6.96268-8.86985-16.52658,0-11.21523,3.51146-16.64294,10.12507-16.64294,7.9109,0,8.41183,6.97094,8.50674,8.89544H218.9662c-.09491-1.17351-.354-5.46567-4.67673-5.46567-4.392,0-5.889,5.28-5.889,13.16118,0,7.95052,1.14381,13.17109,5.51354,13.17109,4.09822,0,5.0778-3.38685,5.0778-9.75453V68.329h-5.35344V64.87863h9.266Z"/><path class="cls-2" d="M233.017,82.61668V70.5077a2.04367,2.04367,0,0,0-.18568-.85827l-8.17-19.24h4.43823c2.12256,5.37489,5.04726,12.68336,6.02272,15.71535,1.13472-3.27379,4.11142-10.60289,6.09534-15.71535h4.189l-8.26577,19.25735a2.00686,2.00686,0,0,0-.16422.87972v12.0702Z"/><path class="cls-2" d="M276.53936,69.222c0-5.90553.09491-11.98355.18981-15.42651h-.09077c-1.16939,5.67281-3.87871,18.58889-6.36355,28.82124h-3.73511c-1.85931-9.01592-4.69406-22.88518-5.84612-28.88974h-.13782c.18981,3.74831.33176,10.78032.33176,16.30624v12.5835h-3.70045V50.40941h5.90471c2.42955,9.88327,4.75017,21.53588,5.4962,25.83629h.04787c.61234-3.64928,3.53292-16.33264,5.93606-25.83629h5.82384V82.61668h-3.85643Z"/><path class="cls-2" d="M290.07026,72.79778l-2.20013,9.8189h-3.9604l7.71779-32.20727h5.13722l7.92081,32.20727h-4.19313l-2.22571-9.8189Zm7.41576-3.49331c-1.743-7.58-2.90326-12.515-3.34807-15.17646h-.11636c-.43161,2.83393-1.69095,8.4465-3.197,15.17646Z"/><path class="cls-2" d="M311.98989,67.99727V82.61668h-3.93895V50.40941h8.68c5.49125,0,8.416,3.06253,8.416,8.40771,0,4.784-2.38582,6.829-4.2839,7.49332,2.89087,1.08274,3.86549,3.61958,3.86549,8.17912v1.2808a35.61407,35.61407,0,0,0,.45307,6.84632h-3.90346a29.85054,29.85054,0,0,1-.49185-6.91977V74.58859c0-4.534-.94492-6.59132-5.1595-6.59132Zm0-3.32166h3.84817c3.835,0,5.29319-2.07964,5.29319-5.72893,0-3.14917-1.46235-5.21561-4.90945-5.21561h-4.23191Z"/><path class="cls-2" d="M330.16038,50.40941h3.91667v15.6254c2.20508-3.21025,7.23914-10.99654,10.4106-15.6254H349.034L339.9834,63.36015l9.29651,19.25653h-4.46876l-7.51973-15.953-3.21437,4.34828V82.61668h-3.91667Z"/><path class="cls-2" d="M366.475,67.37585H355.806V79.144h11.87213l-.52568,3.47268H351.88937V50.40941h15.11209V53.925H355.806v9.95672H366.475Z"/><path class="cls-2" d="M376.76342,53.925h-7.122V50.40941h18.20432V53.925h-7.122V82.61668h-3.9604Z"/><path class="cls-1" d="M419.392,69.222c0-5.90553.09491-11.98355.18981-15.42651h-.09078c-1.16938,5.67281-3.8787,18.58889-6.36355,28.82124h-3.73511c-1.8593-9.01592-4.69405-22.88518-5.84611-28.88974h-.13782c.18981,3.74831.33176,10.78032.33176,16.30624v12.5835h-3.70045V50.40941h5.9047c2.42873,9.88327,4.75018,21.53588,5.49621,25.83629h.04787c.61234-3.64928,3.53292-16.33264,5.93606-25.83629h5.82383V82.61668H419.392Z"/><path class="cls-1" d="M444.0449,67.37585H433.376V79.144h11.87213l-.52569,3.47268H429.45932V50.40941h15.11209V53.925H433.376v9.95672H444.0449Z"/><path class="cls-1" d="M454.33337,53.925h-7.122V50.40941h18.20432V53.925H458.293V82.61668h-3.95958Z"/><path class="cls-1" d="M468.7902,50.40941h3.96041V63.84706H482.69V50.40941h3.96041V82.61668H482.69V67.34119h-9.93938V82.61668H468.7902Z"/><path class="cls-1" d="M511.03176,66.237c0,11.13353-2.72582,16.87153-9.78341,16.87153-6.69117,0-9.55564-5.56057-9.55564-16.83687,0-11.0997,3.35632-16.33265,9.73637-16.33265C508.16317,49.939,511.03176,55.271,511.03176,66.237Zm-15.26228-.03879c0,8.89131,1.72148,13.50284,5.59523,13.50284,4.0124,0,5.59111-4.439,5.59111-13.45085,0-9.01675-1.70415-12.88142-5.61669-12.88142C497.49921,53.36878,495.76948,57.73026,495.76948,66.19821Z"/><path class="cls-1" d="M516.04519,50.40941h7.3943c7.59235,0,10.90163,5.21149,10.90163,15.29282,0,10.92227-3.03281,16.91445-11.40669,16.91445h-6.88924Zm3.98186,28.86416h2.78277c5.62577,0,7.43308-4.4308,7.43308-13.46818,0-8.33426-2.04086-12.01-7.386-12.01h-2.82981Z"/><path class="cls-1" d="M541.36405,74.0497c.25831,3.188,1.75119,5.776,5.17188,5.776,3.27462,0,4.84921-1.83289,4.84921-5.29319,0-3.24408-1.35838-5.00023-5.68107-7.07905-5.13392-2.45018-7.34643-4.69735-7.34643-9.38728,0-4.56367,2.92471-8.10072,8.2864-8.10072,6.41472,0,8.11474,4.54221,8.20965,8.39863h-3.89521c-.16423-1.61337-.63875-5.14217-4.43493-5.14217-2.942,0-4.2022,2.00207-4.2022,4.50425,0,2.93709,1.31133,4.32187,5.29732,6.2117,5.66043,2.68291,7.82177,5.34931,7.82177,10.25794,0,5.08192-2.92058,8.88718-9.01592,8.88718-6.63506,0-8.7832-4.32269-9.025-9.03325Z"/><path class="cls-1" d="M586.18784,73.614c-.14277,1.82464-.91934,9.49457-8.93835,9.49457-8.68335,0-9.40875-8.869-9.40875-16.78983,0-9.568,2.58388-16.37969,9.79249-16.37969,7.90761,0,8.38625,7.28206,8.477,9.36584h-3.96865c-.06933-1.09182-.24593-5.88408-4.57687-5.88408-4.80217,0-5.60019,6.45763-5.60019,12.93671,0,6.66065.72457,13.313,5.37984,13.313,4.13289,0,4.71139-4.50343,4.85333-6.05656Z"/><path class="cls-1" d="M609.00452,66.237c0,11.13353-2.72582,16.87153-9.78341,16.87153-6.69118,0-9.55564-5.56057-9.55564-16.83687,0-11.0997,3.35631-16.33265,9.73637-16.33265C606.13593,49.939,609.00452,55.271,609.00452,66.237Zm-15.26229-.03879c0,8.89131,1.72149,13.50284,5.59524,13.50284,4.01239,0,5.59111-4.439,5.59111-13.45085,0-9.01675-1.70416-12.88142-5.6167-12.88142C595.472,53.36878,593.74223,57.73026,593.74223,66.19821Z"/><path class="cls-1" d="M614.018,82.61668V50.40941h4.77163c8.477,21.44015,9.73225,24.54229,10.13745,25.97411h.04786c-.23272-4.24016-.28471-9.06791-.28471-14.30911v-11.665h3.66248V82.61668h-4.56449c-8.7964-22.57488-9.95259-25.6209-10.32725-26.93223h-.04787c.23768,4.01652.26326,9.18922.26326,14.98252V82.61668Z"/><path class="cls-1" d="M640.47566,74.0497c.25831,3.188,1.75119,5.776,5.17188,5.776,3.27462,0,4.8492-1.83289,4.8492-5.29319,0-3.24408-1.35837-5.00023-5.68106-7.07905-5.13392-2.45018-7.34643-4.69735-7.34643-9.38728,0-4.56367,2.92471-8.10072,8.2864-8.10072,6.41471,0,8.11474,4.54221,8.20965,8.39863h-3.89521c-.16423-1.61337-.63875-5.14217-4.43493-5.14217-2.942,0-4.2022,2.00207-4.2022,4.50425,0,2.93709,1.31133,4.32187,5.29732,6.2117,5.66043,2.68291,7.82177,5.34931,7.82177,10.25794,0,5.08192-2.92058,8.88718-9.01592,8.88718-6.63506,0-8.7832-4.32269-9.025-9.03325Z"/><path class="cls-1" d="M677.278,66.237c0,11.13353-2.72582,16.87153-9.78341,16.87153-6.69118,0-9.55565-5.56057-9.55565-16.83687,0-11.0997,3.35632-16.33265,9.73638-16.33265C674.40937,49.939,677.278,55.271,677.278,66.237Zm-15.26229-.03879c0,8.89131,1.72148,13.50284,5.59524,13.50284,4.01239,0,5.59111-4.439,5.59111-13.45085,0-9.01675-1.70416-12.88142-5.6167-12.88142C663.74541,53.36878,662.01567,57.73026,662.01567,66.19821Z"/><path class="cls-1" d="M686.22951,67.99727V82.61668h-3.93895V50.40941h8.68c5.49125,0,8.416,3.06253,8.416,8.40771,0,4.784-2.38582,6.829-4.28391,7.49332,2.89088,1.08274,3.8655,3.61958,3.8655,8.17912v1.2808a35.61407,35.61407,0,0,0,.45307,6.84632h-3.90346a29.85046,29.85046,0,0,1-.49186-6.91977V74.58859c0-4.534-.94491-6.59132-5.1595-6.59132Zm0-3.32166h3.84817c3.835,0,5.29319-2.07964,5.29319-5.72893,0-3.14917-1.46235-5.21561-4.90945-5.21561h-4.23191Z"/><path class="cls-1" d="M708.87289,53.925h-7.122V50.40941h18.20432V53.925h-7.122V82.61668h-3.9604Z"/><path class="cls-1" d="M727.29013,50.40941V82.61668h-3.96041V50.40941Z"/><path class="cls-1" d="M737.37311,50.40941V72.92322c0,3.37778.95812,6.80341,5.0778,6.80341,4.1073,0,5.08192-2.87271,5.08192-6.80753V50.40941h3.95958v22.579c0,5.84529-2.14814,10.1457-9.13641,10.1457-6.7638,0-8.96888-4.04211-8.96888-9.98643V50.40941Z"/><path class="cls-1" d="M776.83768,69.222c0-5.90553.0949-11.98355.18981-15.42651h-.09078c-1.16939,5.67281-3.8787,18.58889-6.36355,28.82124H766.838c-1.8593-9.01592-4.69406-22.88518-5.84611-28.88974h-.13782c.18981,3.74831.33175,10.78032.33175,16.30624v12.5835h-3.70045V50.40941h5.90471c2.42955,9.88327,4.75017,21.53588,5.49621,25.83629h.04786c.61234-3.64928,3.53292-16.33264,5.93607-25.83629h5.82383V82.61668h-3.85642Z"/></svg>