<svg id="Layer_1" data-name="Layer 1" xmlns="http://www.w3.org/2000/svg" viewBox="0 0 380 127.25"><defs><style>.cls-1{fill:#fff;}</style></defs><polygon class="cls-1" points="120.99 28.46 120.99 19.82 116.64 19.82 116.64 32.74 129.56 32.74 129.56 28.46 120.99 28.46"/><polygon class="cls-1" points="138.19 11.18 116.64 11.18 116.64 17.6 120.92 17.6 120.92 15.46 133.91 15.46 133.91 28.46 131.77 28.46 131.77 32.74 138.19 32.74 138.19 11.18"/><path class="cls-1" d="M154.93,73.51h6.57V89.33h9.4v5.43h-16V73.51Z" transform="translate(-11 -62.1)"/><path class="cls-1" d="M173.73,73.51h16.51v5.42h-9.93v2.68h8.48v5h-8.48v8.11h-6.58Z" transform="translate(-11 -62.1)"/><path class="cls-1" d="M207.14,94.91H195.21V73.43h11.93v1.38h-10.4v8.1h9.79v1.37h-9.79v9.18h10.4Z" transform="translate(-11 -62.1)"/><path class="cls-1" d="M227.93,94.91H226.4l-12.92-19h-.15c.15,2.29.15,4,.15,5.12V94.91h-1.37V73.43h1.53l12.92,19h.07c-.07-1.75-.15-3.44-.15-5v-14h1.45V94.91Z" transform="translate(-11 -62.1)"/><path class="cls-1" d="M246,94.91H234.05V73.43H246v1.38H235.58v8.1h9.78v1.37h-9.78v9.18H246Z" transform="translate(-11 -62.1)"/><path class="cls-1" d="M252.47,85.58v9.33h-1.53V73.43h5.2c2.68,0,4.66.46,6,1.45A5.19,5.19,0,0,1,264,79.32,5.88,5.88,0,0,1,262.87,83a6.49,6.49,0,0,1-3.52,2.14l5.89,9.78H263.4l-5.58-9.33Zm0-1.3h4.13a6.5,6.5,0,0,0,4.28-1.22,4.41,4.41,0,0,0,1.53-3.59A4.25,4.25,0,0,0,261,75.88c-1-.77-2.6-1.15-4.9-1.15h-3.59Z" transform="translate(-11 -62.1)"/><path class="cls-1" d="M277.39,83.9h7.88v9.56a18.25,18.25,0,0,1-7,1.3c-3.36,0-6-.92-7.72-2.83s-2.68-4.51-2.68-8a12.15,12.15,0,0,1,1.3-5.66A9.25,9.25,0,0,1,273,74.5a11.8,11.8,0,0,1,5.74-1.38,15.11,15.11,0,0,1,6.27,1.3l-.61,1.3a13.7,13.7,0,0,0-5.74-1.3A8.53,8.53,0,0,0,272,77a9.86,9.86,0,0,0-2.45,6.88c0,3.14.77,5.51,2.37,7.11s3.83,2.37,6.88,2.37a13.36,13.36,0,0,0,5-.84V85.13h-6.34V83.9Z" transform="translate(-11 -62.1)"/><path class="cls-1" d="M295.59,85.13l6.34-11.7h1.61L296.35,86.5v8.26h-1.53V86.65l-7.26-13.22h1.76Z" transform="translate(-11 -62.1)"/><path class="cls-1" d="M124.36,134c0-19.68,5.56-28.64,18.21-28.64s18.22,9,18.22,28.64-5.56,28.64-18.22,28.64S124.36,153.71,124.36,134ZM152,133.8c0-18.53-4.17-21.77-9.42-21.77s-9.41,3.24-9.41,21.77c0,19,4.17,22.23,9.41,22.23S152,152.79,152,133.8Z" transform="translate(-11 -62.1)"/><path class="cls-1" d="M168.05,120.06h7.87v5.09h.16a9.83,9.83,0,0,1,9.34-6.17c9.49,0,13.35,8.1,13.35,22.38,0,17.45-7.1,21.31-12.81,21.31-4.48,0-7.87-2.24-9.42-5.95h-.15v18.45h-8.34Zm15,36c4.78,0,6.94-3.55,6.94-15.05,0-9.42-1.23-15.36-7-15.36s-7,5.86-7,14.74C175.92,150.32,177.16,156,183,156Z" transform="translate(-11 -62.1)"/><path class="cls-1" d="M212.36,141.9v2.4c0,5.55.7,12.65,6.95,12.65,5.94,0,6.64-6.79,6.64-9.26h7.87c0,9.19-5.55,15-14.59,15-6.79,0-15.2-2-15.2-21.23,0-10.89,2.31-22.46,15.36-22.46,11.58,0,14.67,6.94,14.67,18.52v4.4Zm13.36-5.71V134c0-5.25-1.7-9.26-6.41-9.26-5.32,0-6.95,5.25-6.95,10.65v.85Z" transform="translate(-11 -62.1)"/><path class="cls-1" d="M240.93,120.06h7.87v4.86H249A11.93,11.93,0,0,1,259.69,119C266,119,270,121.83,270,130.25v31.34h-8.34V133.1c0-5.4-1.62-7.48-5.79-7.48-3.39,0-6.64,2.7-6.64,8.1v27.87h-8.33Z" transform="translate(-11 -62.1)"/><path class="cls-1" d="M305.85,155.18h-.15c-2.4,5.09-5.56,7.49-12.05,7.49-12,0-16.36-9-16.36-28.64s5.56-28.64,18.29-28.64c13.82,0,16.14,10.89,16.14,15.9v1h-8.34V121c0-4.09-1.7-9-7.72-9-6.25,0-9.57,4.17-9.57,21.77S289,156,295,156c6.71.08,9.18-4.79,9.18-16.83h-9.26v-6.64h17.6v29h-6.64Z" transform="translate(-11 -62.1)"/><path class="cls-1" d="M320.06,106.47h29.79v7.41h-21v15.29h19.76v7.41H328.86v17.6h21.61v7.41H320.06Z" transform="translate(-11 -62.1)"/><path class="cls-1" d="M357.19,106.47H366v22.08H382.2V106.47H391v55.12h-8.8V136H366v25.63h-8.8Z" transform="translate(-11 -62.1)"/><path class="cls-1" d="M32.75,134h55V119.44h-55Zm18.73-11.86h4.58v9.94H51.48v-9.94Zm-6.88,0h4.59v9.94H44.6Zm-7.64,0h4.59v9.94H37Z" transform="translate(-11 -62.1)"/><path class="cls-1" d="M32.75,171.86v1.08h55V158.4h-55Zm18.73-10.77h4.58V171H51.48Zm-6.88,0h4.59V171H44.6Zm-7.64,0h4.59V171H37Z" transform="translate(-11 -62.1)"/><path class="cls-1" d="M32.75,153.08h55V138.54h-55Zm43.18-11.86h4.58v9.94H75.93v-9.94Zm-6.88,0h4.59v9.94H69.05v-9.94Zm-7.64,0H66v9.94H61.41v-9.94Z" transform="translate(-11 -62.1)"/><path class="cls-1" d="M21.58,158.87a2.29,2.29,0,1,0,.06,1.19,2.73,2.73,0,0,0,.06-.5A2.27,2.27,0,0,0,21.58,158.87Z" transform="translate(-11 -62.1)"/><path class="cls-1" d="M24,183.23a2.31,2.31,0,1,0,2.31,2.31A2.3,2.3,0,0,0,24,183.23Z" transform="translate(-11 -62.1)"/><path class="cls-1" d="M14.81,171.77a2.31,2.31,0,1,0,2.3,2.31A2.31,2.31,0,0,0,14.81,171.77Z" transform="translate(-11 -62.1)"/><path class="cls-1" d="M100.13,131.2H94.91l-6,4.14h0l-.18.09h0a.64.64,0,0,1-.2,0H42.92L37.41,137h51Z" transform="translate(-11 -62.1)"/><polygon class="cls-1" points="89.67 51.41 78.28 57.05 78.28 67.6 78.28 68.35 78.28 69.1 78.28 71.19 81.29 69.1 82.36 68.35 83.44 67.6 91.58 61.93 91.58 50.46 91.58 50.46 89.67 51.41"/><path class="cls-1" d="M93.82,151.06,89,154.44h0a1.51,1.51,0,0,1-.18.09h0a.64.64,0,0,1-.2,0H45.62l-8.21,2.32h51l11.77-5.84Z" transform="translate(-11 -62.1)"/><polygon class="cls-1" points="78.28 110.16 91.58 100.89 91.58 89.42 78.28 96.02 78.28 110.16"/><polygon class="cls-1" points="78.28 87.46 78.28 88.21 78.28 88.97 78.28 90.3 80.19 88.97 81.27 88.21 82.34 87.46 91.58 81.03 91.58 69.56 78.28 76.15 78.28 87.46"/><path class="cls-1" d="M14.81,171.77a2.31,2.31,0,1,0,2.3,2.31A2.31,2.31,0,0,0,14.81,171.77Z" transform="translate(-11 -62.1)"/><path class="cls-1" d="M21.67,185.54a2.31,2.31,0,1,0,2.3-2.31A2.3,2.3,0,0,0,21.67,185.54Z" transform="translate(-11 -62.1)"/><path class="cls-1" d="M19.39,157.25a2.31,2.31,0,1,0,2.25,2.81,2.73,2.73,0,0,0,.06-.5,2.27,2.27,0,0,0-.12-.69A2.31,2.31,0,0,0,19.39,157.25Z" transform="translate(-11 -62.1)"/><polygon class="cls-1" points="20.36 76.07 20.25 76.07 16.8 76.07 16.8 76.83 12.97 76.83 12.97 78.36 16.8 78.36 16.8 79.51 12.97 79.51 12.97 81.04 16.8 81.04 16.8 82.18 12.97 82.18 12.97 83.71 16.8 83.71 16.8 84.47 20.25 84.47 20.38 84.47 20.38 76.07 20.36 76.07"/><path class="cls-1" d="M31.25,158.69H23.09a3.81,3.81,0,1,0,.05,1.5h8.24v-1.5Zm-9.61,1.37a2.33,2.33,0,1,1-.06-1.19,2.27,2.27,0,0,1,.12.69A2.73,2.73,0,0,1,21.64,160.06Z" transform="translate(-11 -62.1)"/><path class="cls-1" d="M31.25,164H22.06a.75.75,0,0,0-.6.31l-4.71,6.47a3.84,3.84,0,1,0,1.11,1l4.59-6.28h8.93V164ZM14.81,176.38a2.31,2.31,0,1,1,2.3-2.3A2.31,2.31,0,0,1,14.81,176.38Z" transform="translate(-11 -62.1)"/><path class="cls-1" d="M31.25,171.11H25v-2h6.37v-1.5H24.26a.76.76,0,0,0-.75.75v13.44a3.82,3.82,0,1,0,1.5.12v-9.27h6.37v-1.5Zm-5,14.43A2.31,2.31,0,1,1,24,183.23,2.3,2.3,0,0,1,26.28,185.54Z" transform="translate(-11 -62.1)"/><path class="cls-1" d="M43.43,89.52c-.82-.56-1.55-1-2.14-1.37C41.88,88.5,42.61,89,43.43,89.52Z" transform="translate(-11 -62.1)"/><path class="cls-1" d="M44.76,90.48c-.43-.32-.85-.63-1.25-.9C43.91,89.85,44.33,90.16,44.76,90.48Z" transform="translate(-11 -62.1)"/><path class="cls-1" d="M41.19,88.09l-.72-.4Z" transform="translate(-11 -62.1)"/><path class="cls-1" d="M40.38,87.64l-.46-.25Z" transform="translate(-11 -62.1)"/><path class="cls-1" d="M64,92.54c.24-.55.49-1.08.75-1.61C64.47,91.46,64.22,92,64,92.54Z" transform="translate(-11 -62.1)"/><path class="cls-1" d="M46.25,91.67c-.45-.38-.89-.73-1.32-1.06C45.36,90.94,45.8,91.29,46.25,91.67Z" transform="translate(-11 -62.1)"/><path class="cls-1" d="M47.84,93.08c-.47-.45-.94-.86-1.41-1.26C46.9,92.22,47.37,92.63,47.84,93.08Z" transform="translate(-11 -62.1)"/><path class="cls-1" d="M40.33,85.93l.08,0Z" transform="translate(-11 -62.1)"/><path class="cls-1" d="M41.4,86.49l.19.1Z" transform="translate(-11 -62.1)"/><path class="cls-1" d="M39.88,87.37l-.18-.08Z" transform="translate(-11 -62.1)"/><path class="cls-1" d="M42.42,87.08l.2.12Z" transform="translate(-11 -62.1)"/><path class="cls-1" d="M41,86.27l.17.09Z" transform="translate(-11 -62.1)"/><path class="cls-1" d="M41.87,86.76l.21.12Z" transform="translate(-11 -62.1)"/><path class="cls-1" d="M40.7,86.11l.12.06Z" transform="translate(-11 -62.1)"/><path class="cls-1" d="M73.17,78.64l.83-.85Z" transform="translate(-11 -62.1)"/><path class="cls-1" d="M40.44,86l.13.06Z" transform="translate(-11 -62.1)"/><path class="cls-1" d="M67.27,86.29c-.29.46-.57.91-.85,1.39C66.7,87.2,67,86.74,67.27,86.29Z" transform="translate(-11 -62.1)"/><path class="cls-1" d="M66,88.52c-.27.49-.54,1-.8,1.5C65.42,89.51,65.69,89,66,88.52Z" transform="translate(-11 -62.1)"/><path class="cls-1" d="M79.62,73.07l-.33.22Z" transform="translate(-11 -62.1)"/><path class="cls-1" d="M78.31,74l-.56.44Z" transform="translate(-11 -62.1)"/><path class="cls-1" d="M79.05,73.46l-.45.33Z" transform="translate(-11 -62.1)"/><path class="cls-1" d="M80,72.83l-.16.1Z" transform="translate(-11 -62.1)"/><path class="cls-1" d="M65.22,86.67c.34-.58.68-1.13,1-1.66C65.9,85.54,65.56,86.09,65.22,86.67Z" transform="translate(-11 -62.1)"/><path class="cls-1" d="M62.7,91.62l0,0c.14-.32.28-.65.42-1C63,91,62.85,91.29,62.7,91.62Z" transform="translate(-11 -62.1)"/><path class="cls-1" d="M63.74,89.43c.3-.58.6-1.15.9-1.7C64.33,88.29,64,88.85,63.74,89.43Z" transform="translate(-11 -62.1)"/><path class="cls-1" d="M66.74,84.21c.51-.76,1-1.49,1.52-2.16C67.76,82.72,67.25,83.45,66.74,84.21Z" transform="translate(-11 -62.1)"/><path class="cls-1" d="M77.41,74.71c-.21.16-.42.35-.65.54Z" transform="translate(-11 -62.1)"/><path class="cls-1" d="M68.61,84.24c-.29.42-.58.84-.87,1.29C68,85.08,68.32,84.66,68.61,84.24Z" transform="translate(-11 -62.1)"/><path class="cls-1" d="M71.35,80.67l-.88,1.07C70.77,81.37,71.06,81,71.35,80.67Z" transform="translate(-11 -62.1)"/><path class="cls-1" d="M70,82.37l-.88,1.18C69.39,83.14,69.69,82.75,70,82.37Z" transform="translate(-11 -62.1)"/><path class="cls-1" d="M76.38,75.57c-.24.2-.48.42-.73.65C75.9,76,76.14,75.77,76.38,75.57Z" transform="translate(-11 -62.1)"/><path class="cls-1" d="M72.7,79.15c-.29.3-.57.62-.86,1C72.13,79.78,72.41,79.45,72.7,79.15Z" transform="translate(-11 -62.1)"/><path class="cls-1" d="M75.24,76.6c-.26.23-.53.49-.79.75C74.71,77.09,75,76.83,75.24,76.6Z" transform="translate(-11 -62.1)"/><path class="cls-1" d="M43,87.45l.16.11Z" transform="translate(-11 -62.1)"/><path class="cls-1" d="M47.14,90.46l.35.3Z" transform="translate(-11 -62.1)"/><path class="cls-1" d="M46.32,89.8l.34.27Z" transform="translate(-11 -62.1)"/><path class="cls-1" d="M48,91.18l.37.34Z" transform="translate(-11 -62.1)"/><path class="cls-1" d="M48.94,92.06l-.11-.1.11.1Z" transform="translate(-11 -62.1)"/><path class="cls-1" d="M45.54,89.2l.31.23Z" transform="translate(-11 -62.1)"/><path class="cls-1" d="M44.83,88.68l.23.16Z" transform="translate(-11 -62.1)"/><path class="cls-1" d="M62.7,91.62c.15-.33.3-.63.45-.94s.39-.84.59-1.25c.3-.58.59-1.14.9-1.7l.58-1.06c.34-.58.68-1.13,1-1.66l.5-.8c.51-.76,1-1.49,1.52-2.16A42.25,42.25,0,0,1,79.37,71.44a.74.74,0,0,1,1,.27.76.76,0,0,1-.26,1l-.15.09-.16.1-.2.14-.33.22-.24.17-.45.33-.29.21-.56.44-.34.27-.65.54-.38.32c-.24.2-.48.42-.73.65s-.27.24-.41.38-.53.49-.79.75l-.45.44-.83.85-.47.51c-.29.3-.57.63-.86,1l-.49.56c-.29.34-.58.7-.88,1.07l-.49.63c-.29.38-.59.77-.88,1.18l-.49.69c-.29.42-.58.84-.87,1.29-.16.24-.32.5-.47.76-.29.45-.57.91-.85,1.39-.15.28-.3.56-.46.84-.27.49-.54,1-.8,1.5-.15.3-.29.6-.43.91-.26.53-.51,1.06-.75,1.61-.35.79-.68,1.6-1,2.44,2.88.89,13.65,3.62,21.86-2.24C92.05,87.6,95.53,77.29,95.2,62.1c-4.06.07-24.08,1-31.75,12-3.49,5-4,11.44-1.44,19.19.23-.57.48-1.09.72-1.63Z" transform="translate(-11 -62.1)"/><path class="cls-1" d="M49.52,94.77c-.55-.6-1.12-1.16-1.68-1.69s-.94-.86-1.41-1.26l-.18-.15c-.45-.38-.89-.73-1.32-1.06l-.17-.13c-.43-.32-.85-.63-1.25-.9l-.08-.06c-.82-.56-1.55-1-2.14-1.37l-.1-.06-.72-.4-.09,0-.46-.25,0,0-.18-.08a.75.75,0,0,1-.36-1,.74.74,0,0,1,1-.36l.08,0,0,0,.13.06.13.07.12.06.18.1.17.09.23.13.19.1.28.17.21.12.34.2.2.12.4.25.16.11c.5.32,1.06.69,1.65,1.12l.23.16.48.36.31.23.47.37.34.27.48.39.35.3.49.42.37.34.48.44.11.1h0c.52.5,1,1,1.56,1.56,1-2.15,2.88-7.64.09-11.61-3.2-4.55-11.83-5.91-25-3.94C26.09,81.18,28.52,93.49,36,97,39.73,98.72,44.28,98,49.52,94.77Z" transform="translate(-11 -62.1)"/><path class="cls-1" d="M50,95.33l.5.58a27.82,27.82,0,0,1,6.63,15c0,.25.06.51.08.76s0,.51,0,.77L37.41,118h51l11.77-5.84H59.81c0-.25,0-.5,0-.75l0-.75a51.89,51.89,0,0,1,2.62-14.3c.08-.24.16-.48.25-.72s.17-.47.26-.7l-1-1.71c-.14.36-.28.72-.41,1.08s-.27.74-.4,1.12a52.92,52.92,0,0,0-2.75,13.66,29.5,29.5,0,0,0-6.86-14.29l-.54-.61c-.18-.21-.37-.41-.55-.61l-1,1.15Z" transform="translate(-11 -62.1)"/><path class="cls-1" d="M71.84,80.11c-.17.18-.33.37-.49.56Z" transform="translate(-11 -62.1)"/><path class="cls-1" d="M74,77.79l.45-.44Z" transform="translate(-11 -62.1)"/><path class="cls-1" d="M65.16,90c-.15.3-.29.6-.43.91C64.87,90.62,65,90.32,65.16,90Z" transform="translate(-11 -62.1)"/><path class="cls-1" d="M70.47,81.74l-.49.63Z" transform="translate(-11 -62.1)"/><path class="cls-1" d="M66.42,87.68c-.15.28-.3.56-.46.84C66.12,88.24,66.27,88,66.42,87.68Z" transform="translate(-11 -62.1)"/><path class="cls-1" d="M69.1,83.55l-.49.69Z" transform="translate(-11 -62.1)"/><path class="cls-1" d="M64.64,87.73l.58-1.06Z" transform="translate(-11 -62.1)"/><path class="cls-1" d="M67.74,85.53l-.47.76C67.42,86,67.58,85.77,67.74,85.53Z" transform="translate(-11 -62.1)"/><path class="cls-1" d="M79.29,73.29l-.24.17Z" transform="translate(-11 -62.1)"/><path class="cls-1" d="M77.75,74.44l-.34.27Z" transform="translate(-11 -62.1)"/><path class="cls-1" d="M63.15,90.68c.2-.42.39-.84.59-1.25C63.54,89.84,63.35,90.26,63.15,90.68Z" transform="translate(-11 -62.1)"/><path class="cls-1" d="M75.65,76.22c-.14.12-.27.24-.41.38C75.38,76.46,75.51,76.34,75.65,76.22Z" transform="translate(-11 -62.1)"/><path class="cls-1" d="M76.76,75.25l-.38.32Z" transform="translate(-11 -62.1)"/><path class="cls-1" d="M66.24,85l.5-.8Z" transform="translate(-11 -62.1)"/><path class="cls-1" d="M80.13,72.74l-.15.09Z" transform="translate(-11 -62.1)"/><path class="cls-1" d="M73.17,78.64l-.47.51Z" transform="translate(-11 -62.1)"/><path class="cls-1" d="M79.82,72.93l-.2.14Z" transform="translate(-11 -62.1)"/><path class="cls-1" d="M78.6,73.79l-.29.21Z" transform="translate(-11 -62.1)"/><path class="cls-1" d="M43.51,89.58l-.08-.06Z" transform="translate(-11 -62.1)"/><path class="cls-1" d="M40.82,86.17l.18.1Z" transform="translate(-11 -62.1)"/><path class="cls-1" d="M40.57,86l.13.07Z" transform="translate(-11 -62.1)"/><path class="cls-1" d="M41.17,86.36l.23.13Z" transform="translate(-11 -62.1)"/><path class="cls-1" d="M46.66,90.07l.48.39Z" transform="translate(-11 -62.1)"/><path class="cls-1" d="M40.41,86l0,0Z" transform="translate(-11 -62.1)"/><path class="cls-1" d="M43.18,87.56c.5.32,1.06.69,1.65,1.12C44.24,88.25,43.68,87.88,43.18,87.56Z" transform="translate(-11 -62.1)"/><path class="cls-1" d="M39.92,87.39l0,0Z" transform="translate(-11 -62.1)"/><path class="cls-1" d="M42.08,86.88l.34.2Z" transform="translate(-11 -62.1)"/><path class="cls-1" d="M45.06,88.84l.48.36Z" transform="translate(-11 -62.1)"/><path class="cls-1" d="M41.59,86.59l.28.17Z" transform="translate(-11 -62.1)"/><path class="cls-1" d="M45.85,89.43l.47.37Z" transform="translate(-11 -62.1)"/><path class="cls-1" d="M46.43,91.82l-.18-.15Z" transform="translate(-11 -62.1)"/><path class="cls-1" d="M42.62,87.2l.4.25Z" transform="translate(-11 -62.1)"/><path class="cls-1" d="M44.93,90.61l-.17-.13Z" transform="translate(-11 -62.1)"/><path class="cls-1" d="M41.29,88.15l-.1-.06Z" transform="translate(-11 -62.1)"/><path class="cls-1" d="M40.47,87.69l-.09,0Z" transform="translate(-11 -62.1)"/><path class="cls-1" d="M47.49,90.76l.49.42Z" transform="translate(-11 -62.1)"/><path class="cls-1" d="M48.35,91.52l.48.44Z" transform="translate(-11 -62.1)"/></svg>