<?xml version="1.0" encoding="UTF-8" standalone="no"?>
<!-- Generator: Adobe Illustrator 24.0.2, SVG Export Plug-In . SVG Version: 6.00 Build 0)  -->

<svg
   version="1.1"
   id="Layer_1"
   x="0px"
   y="0px"
   viewBox="0 0 45.315334 45.315331"
   xml:space="preserve"
   sodipodi:docname="grid-exchange-fabric-icon-black.svg"
   width="45.315334"
   height="45.315331"
   inkscape:export-filename="/Users/johnmertic/Code/lfenergy-artwork/projects/grid-exchange-fabric/icon/black/grid-exchange-fabric-icon-black.png"
   inkscape:export-xdpi="377.10001"
   inkscape:export-ydpi="377.10001"
   inkscape:version="1.1.2 (b8e25be8, 2022-02-05)"
   xmlns:inkscape="http://www.inkscape.org/namespaces/inkscape"
   xmlns:sodipodi="http://sodipodi.sourceforge.net/DTD/sodipodi-0.dtd"
   xmlns="http://www.w3.org/2000/svg"
   xmlns:svg="http://www.w3.org/2000/svg"><defs
   id="defs564">
	
	
	
</defs><sodipodi:namedview
   id="namedview562"
   pagecolor="#ffffff"
   bordercolor="#666666"
   borderopacity="1.0"
   inkscape:pageshadow="2"
   inkscape:pageopacity="0.0"
   inkscape:pagecheckerboard="0"
   showgrid="false"
   inkscape:zoom="2.3232521"
   inkscape:cx="193.26357"
   inkscape:cy="27.11716"
   inkscape:window-width="1456"
   inkscape:window-height="480"
   inkscape:window-x="58"
   inkscape:window-y="25"
   inkscape:window-maximized="0"
   inkscape:current-layer="Layer_1" />
<style
   type="text/css"
   id="style9">
	.st0{fill:#FFFFFF;}
	.st1{fill:#008421;}
	.st2{fill:#99DB25;}
	.st3{fill:#009ADE;}
	.st4{fill:#003764;}
	.st5{fill:#99DB26;}
</style>
<g
   id="g557"
   transform="translate(-1.4136494,-2.2719753)">
		<g
   id="g157">
			<g
   id="g75">
				<rect
   x="1.4"
   y="36"
   transform="matrix(0.00125015,-1,1,0.00125015,-34.5578,40.5706)"
   width="3.2"
   height="3.2"
   id="rect73" />
			</g>
			<g
   id="g79">
				<rect
   x="1.4"
   y="40.200001"
   transform="matrix(0.00125015,-1,1,0.00125015,-38.7737,44.7708)"
   width="3.2"
   height="3.2"
   id="rect77" />
			</g>
			<g
   id="g83">
				<rect
   x="14.1"
   y="40.200001"
   transform="matrix(0.00125015,-1,1,0.00125015,-26.1732,57.4187)"
   width="3.2"
   height="3.2"
   id="rect81" />
			</g>
			<g
   id="g87">
				<rect
   x="9.8000002"
   y="40.200001"
   transform="matrix(0.00125015,-1,1,0.00125015,-30.3733,53.2027)"
   width="3.2"
   height="3.2"
   id="rect85" />
			</g>
			<g
   id="g91">
				<rect
   x="5.5999999"
   y="40.200001"
   transform="matrix(0.00125015,-1,1,0.00125015,-34.5735,48.9868)"
   width="3.2"
   height="3.2"
   id="rect89" />
			</g>
			<g
   id="g95">
				<rect
   x="1.4"
   y="40.200001"
   transform="matrix(0.00125015,-1,1,0.00125015,-38.7737,44.7708)"
   width="3.2"
   height="3.2"
   id="rect93" />
			</g>
			<g
   id="g99">
				<rect
   x="1.4"
   y="44.299999"
   transform="matrix(0.00125015,-1,1,0.00125015,-42.8881,48.8698)"
   width="3.2"
   height="3.2"
   id="rect97" />
			</g>
			<g
   id="g103">
				<rect
   x="9.8000002"
   y="44.299999"
   transform="matrix(0.00125015,-1,1,0.00125015,-34.4877,57.3017)"
   width="3.2"
   height="3.2"
   id="rect101" />
			</g>
			<g
   id="g107">
				<rect
   x="5.5999999"
   y="44.299999"
   transform="matrix(0.00125015,-1,1,0.00125015,-38.6879,53.0857)"
   width="3.2"
   height="3.2"
   id="rect105" />
			</g>
			<g
   id="g111">
				<rect
   x="1.4"
   y="44.299999"
   transform="matrix(0.00125015,-1,1,0.00125015,-42.8881,48.8698)"
   width="3.2"
   height="3.2"
   id="rect109" />
			</g>
			<g
   id="g115">
				<rect
   x="18.299999"
   y="36"
   transform="matrix(0.00125015,-1,1,0.00125015,-17.757,57.4345)"
   width="3.2"
   height="3.2"
   id="rect113" />
			</g>
			<g
   id="g119">
				<rect
   x="14.1"
   y="36"
   transform="matrix(0.00125015,-1,1,0.00125015,-21.9572,53.2185)"
   width="3.2"
   height="3.2"
   id="rect117" />
			</g>
			<g
   id="g123">
				<rect
   x="9.8999996"
   y="36"
   transform="matrix(0.00125015,-1,1,0.00125015,-26.1574,49.0025)"
   width="3.2"
   height="3.2"
   id="rect121" />
			</g>
			<g
   id="g127">
				<rect
   x="5.5999999"
   y="36"
   transform="matrix(0.00125015,-1,1,0.00125015,-30.3576,44.7866)"
   width="3.2"
   height="3.2"
   id="rect125" />
			</g>
			<g
   id="g131">
				<rect
   x="1.4"
   y="36"
   transform="matrix(0.00125015,-1,1,0.00125015,-34.5578,40.5706)"
   width="3.2"
   height="3.2"
   id="rect129" />
			</g>
			<g
   id="g135">
				<rect
   x="18.299999"
   y="31.799999"
   transform="matrix(0.00125015,-1,1,0.00125015,-13.541,53.2343)"
   width="3.2"
   height="3.2"
   id="rect133" />
			</g>
			<g
   id="g139">
				<rect
   x="14.1"
   y="31.799999"
   transform="matrix(0.00125015,-1,1,0.00125015,-17.7412,49.0183)"
   width="3.2"
   height="3.2"
   id="rect137" />
			</g>
			<g
   id="g143">
				<rect
   x="9.8999996"
   y="31.799999"
   transform="matrix(0.00125015,-1,1,0.00125015,-21.9414,44.8023)"
   width="3.2"
   height="3.2"
   id="rect141" />
			</g>
			<g
   id="g147">
				<rect
   x="5.5999999"
   y="31.799999"
   transform="matrix(0.00125015,-1,1,0.00125015,-26.1416,40.5864)"
   width="3.2"
   height="3.2"
   id="rect145" />
			</g>
			<g
   id="g151">
				<rect
   x="14.1"
   y="27.6"
   transform="matrix(0.00125015,-1,1,0.00125015,-13.5253,44.8181)"
   width="3.2"
   height="3.2"
   id="rect149" />
			</g>
			<g
   id="g155">
				<rect
   x="9.8999996"
   y="27.6"
   transform="matrix(0.00125015,-1,1,0.00125015,-17.7254,40.6022)"
   width="3.2"
   height="3.2"
   id="rect153" />
			</g>
		</g>
		<g
   id="g259">
			<g
   id="g161">
				<rect
   x="39.299999"
   y="31.799999"
   transform="matrix(0.00125015,-1,1,0.00125015,7.4599,74.3141)"
   width="3.2"
   height="3.2"
   id="rect159" />
			</g>
			<g
   id="g165">
				<rect
   x="39.299999"
   y="36"
   transform="matrix(0.00125015,-1,1,0.00125015,3.2439,78.5143)"
   width="3.2"
   height="3.2"
   id="rect163" />
			</g>
			<g
   id="g169">
				<rect
   x="39.299999"
   y="40.200001"
   transform="matrix(0.00125015,-1,1,0.00125015,-0.972,82.7145)"
   width="3.2"
   height="3.2"
   id="rect167" />
			</g>
			<g
   id="g173">
				<rect
   x="39.299999"
   y="40.200001"
   transform="matrix(0.00125015,-1,1,0.00125015,-0.972,82.7145)"
   width="3.2"
   height="3.2"
   id="rect171" />
			</g>
			<g
   id="g177">
				<rect
   x="35.099998"
   y="40.200001"
   transform="matrix(0.00125015,-1,1,0.00125015,-5.1722,78.4985)"
   width="3.2"
   height="3.2"
   id="rect175" />
			</g>
			<g
   id="g181">
				<rect
   x="30.9"
   y="40.200001"
   transform="matrix(0.00125015,-1,1,0.00125015,-9.3724,74.2826)"
   width="3.2"
   height="3.2"
   id="rect179" />
			</g>
			<g
   id="g185">
				<rect
   x="39.299999"
   y="44.400002"
   transform="matrix(0.00125015,-1,1,0.00125015,-5.0864,86.8135)"
   width="3.2"
   height="3.2"
   id="rect183" />
			</g>
			<g
   id="g189">
				<rect
   x="39.299999"
   y="44.400002"
   transform="matrix(0.00125015,-1,1,0.00125015,-5.0864,86.8135)"
   width="3.2"
   height="3.2"
   id="rect187" />
			</g>
			<g
   id="g193">
				<rect
   x="35.099998"
   y="44.299999"
   transform="matrix(0.00125015,-1,1,0.00125015,-9.2866,82.5975)"
   width="3.2"
   height="3.2"
   id="rect191" />
			</g>
			<g
   id="g197">
				<rect
   x="39.299999"
   y="36"
   transform="matrix(0.00125015,-1,1,0.00125015,3.2439,78.5143)"
   width="3.2"
   height="3.2"
   id="rect195" />
			</g>
			<g
   id="g201">
				<rect
   x="35.099998"
   y="36"
   transform="matrix(0.00125015,-1,1,0.00125015,-0.9563,74.2983)"
   width="3.2"
   height="3.2"
   id="rect199" />
			</g>
			<g
   id="g205">
				<rect
   x="30.9"
   y="36"
   transform="matrix(0.00125015,-1,1,0.00125015,-5.1565,70.0824)"
   width="3.2"
   height="3.2"
   id="rect203" />
			</g>
			<g
   id="g209">
				<rect
   x="26.700001"
   y="36"
   transform="matrix(0.00125015,-1,1,0.00125015,-9.3566,65.8664)"
   width="3.2"
   height="3.2"
   id="rect207" />
			</g>
			<g
   id="g213">
				<rect
   x="39.299999"
   y="31.799999"
   transform="matrix(0.00125015,-1,1,0.00125015,7.4599,74.3141)"
   width="3.2"
   height="3.2"
   id="rect211" />
			</g>
			<g
   id="g217">
				<rect
   x="35.099998"
   y="31.799999"
   transform="matrix(0.00125015,-1,1,0.00125015,3.2597,70.0982)"
   width="3.2"
   height="3.2"
   id="rect215" />
			</g>
			<g
   id="g221">
				<rect
   x="30.9"
   y="31.799999"
   transform="matrix(0.00125015,-1,1,0.00125015,-0.9405,65.8822)"
   width="3.2"
   height="3.2"
   id="rect219" />
			</g>
			<g
   id="g225">
				<rect
   x="26.700001"
   y="31.799999"
   transform="matrix(0.00125015,-1,1,0.00125015,-5.1407,61.6662)"
   width="3.2"
   height="3.2"
   id="rect223" />
			</g>
			<g
   id="g229">
				<rect
   x="35.099998"
   y="27.6"
   transform="matrix(0.00125015,-1,1,0.00125015,7.4757,65.898)"
   width="3.2"
   height="3.2"
   id="rect227" />
			</g>
			<g
   id="g233">
				<rect
   x="30.9"
   y="27.6"
   transform="matrix(0.00125015,-1,1,0.00125015,3.2755,61.682)"
   width="3.2"
   height="3.2"
   id="rect231" />
			</g>
			<g
   id="g237">
				<rect
   x="43.400002"
   y="36"
   transform="matrix(0.00125015,-1,1,0.00125015,7.3429,82.6287)"
   width="3.2"
   height="3.2"
   id="rect235" />
			</g>
			<g
   id="g241">
				<rect
   x="43.400002"
   y="40.299999"
   transform="matrix(0.00125015,-1,1,0.00125015,3.1269,86.8289)"
   width="3.2"
   height="3.2"
   id="rect239" />
			</g>
			<g
   id="g245">
				<rect
   x="43.400002"
   y="40.299999"
   transform="matrix(0.00125015,-1,1,0.00125015,3.1269,86.8289)"
   width="3.2"
   height="3.2"
   id="rect243" />
			</g>
			<g
   id="g249">
				<rect
   x="43.400002"
   y="44.400002"
   transform="matrix(0.00125015,-1,1,0.00125015,-0.9874,90.9278)"
   width="3.2"
   height="3.2"
   id="rect247" />
			</g>
			<g
   id="g253">
				<rect
   x="43.400002"
   y="44.400002"
   transform="matrix(0.00125015,-1,1,0.00125015,-0.9874,90.9278)"
   width="3.2"
   height="3.2"
   id="rect251" />
			</g>
			<g
   id="g257">
				<rect
   x="43.400002"
   y="36"
   transform="matrix(0.00125015,-1,1,0.00125015,7.3429,82.6287)"
   width="3.2"
   height="3.2"
   id="rect255" />
			</g>
		</g>
		<g
   id="g361">
			<g
   id="g263">
				<rect
   x="39.400002"
   y="2.3"
   transform="matrix(0.00125015,-1,1,0.00125015,36.9717,44.9128)"
   width="3.2"
   height="3.2"
   id="rect261" />
			</g>
			<g
   id="g267">
				<rect
   x="39.400002"
   y="6.5999999"
   transform="matrix(0.00125015,-1,1,0.00125015,32.7557,49.113)"
   width="3.2"
   height="3.2"
   id="rect265" />
			</g>
			<g
   id="g271">
				<rect
   x="39.400002"
   y="10.8"
   transform="matrix(0.00125015,-1,1,0.00125015,28.5397,53.3132)"
   width="3.2"
   height="3.2"
   id="rect269" />
			</g>
			<g
   id="g275">
				<rect
   x="39.400002"
   y="15"
   transform="matrix(0.00125015,-1,1,0.00125015,24.3238,57.5134)"
   width="3.2"
   height="3.2"
   id="rect273" />
			</g>
			<g
   id="g279">
				<rect
   x="35.099998"
   y="19.200001"
   transform="matrix(0.00125015,-1,1,0.00125015,15.9076,57.4976)"
   width="3.2"
   height="3.2"
   id="rect277" />
			</g>
			<g
   id="g283">
				<rect
   x="30.9"
   y="19.200001"
   transform="matrix(0.00125015,-1,1,0.00125015,11.7074,53.2816)"
   width="3.2"
   height="3.2"
   id="rect281" />
			</g>
			<g
   id="g287">
				<rect
   x="39.400002"
   y="15"
   transform="matrix(0.00125015,-1,1,0.00125015,24.3238,57.5134)"
   width="3.2"
   height="3.2"
   id="rect285" />
			</g>
			<g
   id="g291">
				<rect
   x="35.099998"
   y="15"
   transform="matrix(0.00125015,-1,1,0.00125015,20.1236,53.2974)"
   width="3.2"
   height="3.2"
   id="rect289" />
			</g>
			<g
   id="g295">
				<rect
   x="30.9"
   y="15"
   transform="matrix(0.00125015,-1,1,0.00125015,15.9234,49.0814)"
   width="3.2"
   height="3.2"
   id="rect293" />
			</g>
			<g
   id="g299">
				<rect
   x="26.700001"
   y="15"
   transform="matrix(0.00125015,-1,1,0.00125015,11.7232,44.8655)"
   width="3.2"
   height="3.2"
   id="rect297" />
			</g>
			<g
   id="g303">
				<rect
   x="39.400002"
   y="10.8"
   transform="matrix(0.00125015,-1,1,0.00125015,28.5397,53.3132)"
   width="3.2"
   height="3.2"
   id="rect301" />
			</g>
			<g
   id="g307">
				<rect
   x="35.200001"
   y="10.8"
   transform="matrix(0.00125015,-1,1,0.00125015,24.3395,49.0972)"
   width="3.2"
   height="3.2"
   id="rect305" />
			</g>
			<g
   id="g311">
				<rect
   x="30.9"
   y="10.8"
   transform="matrix(0.00125015,-1,1,0.00125015,20.1394,44.8813)"
   width="3.2"
   height="3.2"
   id="rect309" />
			</g>
			<g
   id="g315">
				<rect
   x="26.700001"
   y="10.8"
   transform="matrix(0.00125015,-1,1,0.00125015,15.9392,40.6653)"
   width="3.2"
   height="3.2"
   id="rect313" />
			</g>
			<g
   id="g319">
				<rect
   x="39.400002"
   y="6.5999999"
   transform="matrix(0.00125015,-1,1,0.00125015,32.7557,49.113)"
   width="3.2"
   height="3.2"
   id="rect317" />
			</g>
			<g
   id="g323">
				<rect
   x="35.200001"
   y="6.5999999"
   transform="matrix(0.00125015,-1,1,0.00125015,28.5555,44.897)"
   width="3.2"
   height="3.2"
   id="rect321" />
			</g>
			<g
   id="g327">
				<rect
   x="30.9"
   y="6.5"
   transform="matrix(0.00125015,-1,1,0.00125015,24.3553,40.6811)"
   width="3.2"
   height="3.2"
   id="rect325" />
			</g>
			<g
   id="g331">
				<rect
   x="39.400002"
   y="2.3"
   transform="matrix(0.00125015,-1,1,0.00125015,36.9717,44.9128)"
   width="3.2"
   height="3.2"
   id="rect329" />
			</g>
			<g
   id="g335">
				<rect
   x="43.5"
   y="2.4000001"
   transform="matrix(0.00125015,-1,1,0.00125015,41.0706,49.0272)"
   width="3.2"
   height="3.2"
   id="rect333" />
			</g>
			<g
   id="g339">
				<rect
   x="43.5"
   y="6.5999999"
   transform="matrix(0.00125015,-1,1,0.00125015,36.8547,53.2274)"
   width="3.2"
   height="3.2"
   id="rect337" />
			</g>
			<g
   id="g343">
				<rect
   x="43.5"
   y="10.8"
   transform="matrix(0.00125015,-1,1,0.00125015,32.6387,57.4276)"
   width="3.2"
   height="3.2"
   id="rect341" />
			</g>
			<g
   id="g347">
				<rect
   x="43.5"
   y="10.8"
   transform="matrix(0.00125015,-1,1,0.00125015,32.6387,57.4276)"
   width="3.2"
   height="3.2"
   id="rect345" />
			</g>
			<g
   id="g351">
				<rect
   x="43.5"
   y="6.5999999"
   transform="matrix(0.00125015,-1,1,0.00125015,36.8547,53.2274)"
   width="3.2"
   height="3.2"
   id="rect349" />
			</g>
			<g
   id="g355">
				<rect
   x="43.5"
   y="2.4000001"
   transform="matrix(0.00125015,-1,1,0.00125015,41.0706,49.0272)"
   width="3.2"
   height="3.2"
   id="rect353" />
			</g>
			<g
   id="g359">
				<rect
   x="35.200001"
   y="2.3"
   transform="matrix(0.00125015,-1,1,0.00125015,32.7715,40.6969)"
   width="3.2"
   height="3.2"
   id="rect357" />
			</g>
		</g>
		<g
   id="g447">
			<g
   id="g365">
				<rect
   x="1.5"
   y="2.3"
   transform="matrix(0.00125015,-1,1,0.00125015,-0.83,6.9691)"
   width="3.2"
   height="3.2"
   id="rect363" />
			</g>
			<g
   id="g369">
				<rect
   x="1.5"
   y="6.5"
   transform="matrix(0.00125015,-1,1,0.00125015,-5.046,11.1693)"
   width="3.2"
   height="3.2"
   id="rect367" />
			</g>
			<g
   id="g373">
				<rect
   x="1.5"
   y="10.7"
   transform="matrix(0.00125015,-1,1,0.00125015,-9.2619,15.3695)"
   width="3.2"
   height="3.2"
   id="rect371" />
			</g>
			<g
   id="g377">
				<rect
   x="14.1"
   y="19.200001"
   transform="matrix(0.00125015,-1,1,0.00125015,-5.0933,36.4178)"
   width="3.2"
   height="3.2"
   id="rect375" />
			</g>
			<g
   id="g381">
				<rect
   x="9.8999996"
   y="19.200001"
   transform="matrix(0.00125015,-1,1,0.00125015,-9.2935,32.2018)"
   width="3.2"
   height="3.2"
   id="rect379" />
			</g>
			<g
   id="g385">
				<rect
   x="18.299999"
   y="15"
   transform="matrix(0.00125015,-1,1,0.00125015,3.3228,36.4335)"
   width="3.2"
   height="3.2"
   id="rect383" />
			</g>
			<g
   id="g389">
				<rect
   x="14.1"
   y="14.9"
   transform="matrix(0.00125015,-1,1,0.00125015,-0.8774,32.2176)"
   width="3.2"
   height="3.2"
   id="rect387" />
			</g>
			<g
   id="g393">
				<rect
   x="9.8999996"
   y="14.9"
   transform="matrix(0.00125015,-1,1,0.00125015,-5.0775,28.0016)"
   width="3.2"
   height="3.2"
   id="rect391" />
			</g>
			<g
   id="g397">
				<rect
   x="5.6999998"
   y="14.9"
   transform="matrix(0.00125015,-1,1,0.00125015,-9.2777,23.7856)"
   width="3.2"
   height="3.2"
   id="rect395" />
			</g>
			<g
   id="g401">
				<rect
   x="18.299999"
   y="10.7"
   transform="matrix(0.00125015,-1,1,0.00125015,7.5388,32.2334)"
   width="3.2"
   height="3.2"
   id="rect399" />
			</g>
			<g
   id="g405">
				<rect
   x="14.1"
   y="10.7"
   transform="matrix(0.00125015,-1,1,0.00125015,3.3386,28.0174)"
   width="3.2"
   height="3.2"
   id="rect403" />
			</g>
			<g
   id="g409">
				<rect
   x="9.8999996"
   y="10.7"
   transform="matrix(0.00125015,-1,1,0.00125015,-0.8616,23.8014)"
   width="3.2"
   height="3.2"
   id="rect407" />
			</g>
			<g
   id="g413">
				<rect
   x="5.6999998"
   y="10.7"
   transform="matrix(0.00125015,-1,1,0.00125015,-5.0618,19.5855)"
   width="3.2"
   height="3.2"
   id="rect411" />
			</g>
			<g
   id="g417">
				<rect
   x="1.5"
   y="10.7"
   transform="matrix(0.00125015,-1,1,0.00125015,-9.2619,15.3695)"
   width="3.2"
   height="3.2"
   id="rect415" />
			</g>
			<g
   id="g421">
				<rect
   x="14.1"
   y="6.5"
   transform="matrix(0.00125015,-1,1,0.00125015,7.5546,23.8172)"
   width="3.2"
   height="3.2"
   id="rect419" />
			</g>
			<g
   id="g425">
				<rect
   x="9.8999996"
   y="6.5"
   transform="matrix(0.00125015,-1,1,0.00125015,3.3544,19.6012)"
   width="3.2"
   height="3.2"
   id="rect423" />
			</g>
			<g
   id="g429">
				<rect
   x="5.6999998"
   y="6.5"
   transform="matrix(0.00125015,-1,1,0.00125015,-0.8458,15.3853)"
   width="3.2"
   height="3.2"
   id="rect427" />
			</g>
			<g
   id="g433">
				<rect
   x="1.5"
   y="6.5"
   transform="matrix(0.00125015,-1,1,0.00125015,-5.046,11.1693)"
   width="3.2"
   height="3.2"
   id="rect431" />
			</g>
			<g
   id="g437">
				<rect
   x="9.8999996"
   y="2.3"
   transform="matrix(0.00125015,-1,1,0.00125015,7.5704,15.401)"
   width="3.2"
   height="3.2"
   id="rect435" />
			</g>
			<g
   id="g441">
				<rect
   x="5.6999998"
   y="2.3"
   transform="matrix(0.00125015,-1,1,0.00125015,3.3702,11.1851)"
   width="3.2"
   height="3.2"
   id="rect439" />
			</g>
			<g
   id="g445">
				<rect
   x="1.5"
   y="2.3"
   transform="matrix(0.00125015,-1,1,0.00125015,-0.83,6.9691)"
   width="3.2"
   height="3.2"
   id="rect443" />
			</g>
		</g>
		<g
   id="g501">
			<g
   id="g451">
				<rect
   x="22.5"
   y="31.799999"
   transform="matrix(0.00125015,-1,1,0.00125015,-9.3409,57.4503)"
   width="3.2"
   height="3.2"
   id="rect449" />
			</g>
			<g
   id="g455">
				<rect
   x="22.5"
   y="27.6"
   transform="matrix(0.00125015,-1,1,0.00125015,-5.1249,53.2501)"
   width="3.2"
   height="3.2"
   id="rect453" />
			</g>
			<g
   id="g459">
				<rect
   x="18.299999"
   y="27.6"
   transform="matrix(0.00125015,-1,1,0.00125015,-9.3251,49.0341)"
   width="3.2"
   height="3.2"
   id="rect457" />
			</g>
			<g
   id="g463">
				<rect
   x="30.9"
   y="23.4"
   transform="matrix(0.00125015,-1,1,0.00125015,7.4915,57.4818)"
   width="3.2"
   height="3.2"
   id="rect461" />
			</g>
			<g
   id="g467">
				<rect
   x="26.700001"
   y="23.4"
   transform="matrix(0.00125015,-1,1,0.00125015,3.2913,53.2659)"
   width="3.2"
   height="3.2"
   id="rect465" />
			</g>
			<g
   id="g471">
				<rect
   x="22.5"
   y="23.4"
   transform="matrix(0.00125015,-1,1,0.00125015,-0.9089,49.0499)"
   width="3.2"
   height="3.2"
   id="rect469" />
			</g>
			<g
   id="g475">
				<rect
   x="18.299999"
   y="23.4"
   transform="matrix(0.00125015,-1,1,0.00125015,-5.1091,44.8339)"
   width="3.2"
   height="3.2"
   id="rect473" />
			</g>
			<g
   id="g479">
				<rect
   x="14.1"
   y="23.4"
   transform="matrix(0.00125015,-1,1,0.00125015,-9.3093,40.6179)"
   width="3.2"
   height="3.2"
   id="rect477" />
			</g>
			<g
   id="g483">
				<rect
   x="26.700001"
   y="19.200001"
   transform="matrix(0.00125015,-1,1,0.00125015,7.5072,49.0657)"
   width="3.2"
   height="3.2"
   id="rect481" />
			</g>
			<g
   id="g487">
				<rect
   x="22.5"
   y="19.200001"
   transform="matrix(0.00125015,-1,1,0.00125015,3.307,44.8497)"
   width="3.2"
   height="3.2"
   id="rect485" />
			</g>
			<g
   id="g491">
				<rect
   x="18.299999"
   y="19.200001"
   transform="matrix(0.00125015,-1,1,0.00125015,-0.8931,40.6337)"
   width="3.2"
   height="3.2"
   id="rect489" />
			</g>
			<g
   id="g495">
				<rect
   x="26.700001"
   y="27.6"
   transform="matrix(0.00125015,-1,1,0.00125015,-0.9247,57.466)"
   width="3.2"
   height="3.2"
   id="rect493" />
			</g>
			<g
   id="g499">
				<rect
   x="22.5"
   y="15"
   transform="matrix(0.00125015,-1,1,0.00125015,7.523,40.6495)"
   width="3.2"
   height="3.2"
   id="rect497" />
			</g>
		</g>
		<g
   id="g555">
			<g
   id="g505">
				<rect
   x="22.5"
   y="31.799999"
   transform="matrix(0.00125015,-1,1,0.00125015,-9.3409,57.4503)"
   width="3.2"
   height="3.2"
   id="rect503" />
			</g>
			<g
   id="g509">
				<rect
   x="22.5"
   y="27.6"
   transform="matrix(0.00125015,-1,1,0.00125015,-5.1249,53.2501)"
   width="3.2"
   height="3.2"
   id="rect507" />
			</g>
			<g
   id="g513">
				<rect
   x="18.299999"
   y="27.6"
   transform="matrix(0.00125015,-1,1,0.00125015,-9.3251,49.0341)"
   width="3.2"
   height="3.2"
   id="rect511" />
			</g>
			<g
   id="g517">
				<rect
   x="30.9"
   y="23.4"
   transform="matrix(0.00125015,-1,1,0.00125015,7.4915,57.4818)"
   width="3.2"
   height="3.2"
   id="rect515" />
			</g>
			<g
   id="g521">
				<rect
   x="26.700001"
   y="23.4"
   transform="matrix(0.00125015,-1,1,0.00125015,3.2913,53.2659)"
   width="3.2"
   height="3.2"
   id="rect519" />
			</g>
			<g
   id="g525">
				<rect
   x="22.5"
   y="23.4"
   transform="matrix(0.00125015,-1,1,0.00125015,-0.9089,49.0499)"
   width="3.2"
   height="3.2"
   id="rect523" />
			</g>
			<g
   id="g529">
				<rect
   x="18.299999"
   y="23.4"
   transform="matrix(0.00125015,-1,1,0.00125015,-5.1091,44.8339)"
   width="3.2"
   height="3.2"
   id="rect527" />
			</g>
			<g
   id="g533">
				<rect
   x="14.1"
   y="23.4"
   transform="matrix(0.00125015,-1,1,0.00125015,-9.3093,40.6179)"
   width="3.2"
   height="3.2"
   id="rect531" />
			</g>
			<g
   id="g537">
				<rect
   x="26.700001"
   y="19.200001"
   transform="matrix(0.00125015,-1,1,0.00125015,7.5072,49.0657)"
   width="3.2"
   height="3.2"
   id="rect535" />
			</g>
			<g
   id="g541">
				<rect
   x="22.5"
   y="19.200001"
   transform="matrix(0.00125015,-1,1,0.00125015,3.307,44.8497)"
   width="3.2"
   height="3.2"
   id="rect539" />
			</g>
			<g
   id="g545">
				<rect
   x="18.299999"
   y="19.200001"
   transform="matrix(0.00125015,-1,1,0.00125015,-0.8931,40.6337)"
   width="3.2"
   height="3.2"
   id="rect543" />
			</g>
			<g
   id="g549">
				<rect
   x="26.700001"
   y="27.6"
   transform="matrix(0.00125015,-1,1,0.00125015,-0.9247,57.466)"
   width="3.2"
   height="3.2"
   id="rect547" />
			</g>
			<g
   id="g553">
				<rect
   x="22.5"
   y="15"
   transform="matrix(0.00125015,-1,1,0.00125015,7.523,40.6495)"
   width="3.2"
   height="3.2"
   id="rect551" />
			</g>
		</g>
	</g>
</svg>
