<?xml version="1.0" encoding="UTF-8"?>
<svg id="Layer_1" data-name="Layer 1" xmlns="http://www.w3.org/2000/svg" viewBox="0 0 413.143 500">
  <defs>
    <style>
      .cls-1 {
        fill: #002d9c;
      }

      .cls-2 {
        fill: #ff9b00;
      }
    </style>
  </defs>
  <path class="cls-1" d="M413.143,250.999c0-113.904-92.668-206.572-206.572-206.572S0,137.095,0,250.999c0,64.237,29.479,121.711,75.612,159.627l12.198-26.597c-36.59-32.701-59.678-80.211-59.678-133.029,0-98.392,80.048-178.44,178.44-178.44s178.44,80.048,178.44,178.44c0,52.819-23.088,100.329-59.677,133.029l12.197,26.597c46.132-37.916,75.612-95.39,75.612-159.627Z"/>
  <g>
    <g>
      <polygon class="cls-1" points="126.754 276.933 113.416 276.933 113.416 179.652 299.726 179.652 299.726 272.402 286.388 272.402 286.388 192.991 126.754 192.991 126.754 276.933"/>
      <polygon class="cls-1" points="232.098 275.455 178.208 275.455 142.059 138.467 154.954 135.065 188.485 262.117 222.029 262.117 258.22 134.941 271.05 138.591 232.098 275.455"/>
      <polygon class="cls-1" points="151.753 443.06 138.721 440.227 177.433 262.115 231.984 262.115 267.905 440.326 254.827 442.961 221.068 275.453 188.186 275.453 151.753 443.06"/>
    </g>
    <rect class="cls-1" x="195.485" y="181.173" width="6.668" height="96.718" transform="translate(-96.624 159.337) rotate(-35.736)"/>
    <rect class="cls-1" x="219.664" y="265.029" width="6.668" height="177.862" transform="translate(-127.032 124.843) rotate(-24.581)"/>
    <rect class="cls-1" x="163.773" y="226.197" width="98.296" height="6.669" transform="translate(-98.52 261.541) rotate(-53.018)"/>
    <rect class="cls-1" x="94.385" y="350.626" width="179.463" height="6.669" transform="translate(-214.665 366.615) rotate(-64.336)"/>
    <g>
      <circle class="cls-2" cx="145.238" cy="128.407" r="15.516"/>
      <path class="cls-1" d="M145.237,147.258c-10.394,0-18.851-8.457-18.851-18.851s8.457-18.849,18.851-18.849,18.851,8.455,18.851,18.849-8.457,18.851-18.851,18.851ZM145.237,116.226c-6.718,0-12.182,5.464-12.182,12.18s5.464,12.182,12.182,12.182,12.182-5.464,12.182-12.182-5.464-12.18-12.182-12.18Z"/>
    </g>
    <g>
      <circle class="cls-2" cx="264.635" cy="128.407" r="15.516"/>
      <path class="cls-1" d="M264.635,147.258c-10.394,0-18.851-8.457-18.851-18.851s8.457-18.849,18.851-18.849,18.851,8.455,18.851,18.849-8.457,18.851-18.851,18.851ZM264.635,116.226c-6.718,0-12.182,5.464-12.182,12.18s5.464,12.182,12.182,12.182,12.182-5.464,12.182-12.182-5.464-12.18-12.182-12.18Z"/>
    </g>
    <g>
      <circle class="cls-2" cx="120.313" cy="264.972" r="15.516"/>
      <path class="cls-1" d="M120.313,283.822c-10.394,0-18.851-8.455-18.851-18.849s8.457-18.851,18.851-18.851,18.851,8.457,18.851,18.851-8.457,18.849-18.851,18.849ZM120.313,252.79c-6.718,0-12.182,5.464-12.182,12.182s5.464,12.18,12.182,12.18,12.182-5.464,12.182-12.18-5.464-12.182-12.182-12.182Z"/>
    </g>
    <g>
      <circle class="cls-2" cx="293.057" cy="264.972" r="15.516"/>
      <path class="cls-1" d="M293.057,283.822c-10.394,0-18.851-8.455-18.851-18.849s8.457-18.851,18.851-18.851,18.851,8.457,18.851,18.851-8.457,18.849-18.851,18.849ZM293.057,252.79c-6.718,0-12.182,5.464-12.182,12.182s5.464,12.18,12.182,12.18,12.182-5.464,12.182-12.18-5.464-12.182-12.182-12.182Z"/>
    </g>
    <g>
      <circle class="cls-2" cx="147.45" cy="436.723" r="15.516"/>
      <path class="cls-1" d="M147.452,455.573c-10.394,0-18.851-8.455-18.851-18.849s8.457-18.849,18.851-18.849,18.848,8.455,18.848,18.849-8.454,18.849-18.848,18.849ZM147.452,424.543c-6.718,0-12.182,5.464-12.182,12.18s5.464,12.18,12.182,12.18,12.179-5.464,12.179-12.18-5.464-12.18-12.179-12.18Z"/>
    </g>
    <g>
      <circle class="cls-2" cx="262.687" cy="436.723" r="15.516"/>
      <path class="cls-1" d="M262.688,455.573c-10.394,0-18.851-8.455-18.851-18.849s8.457-18.849,18.851-18.849,18.848,8.455,18.848,18.849-8.454,18.849-18.848,18.849ZM262.688,424.543c-6.718,0-12.182,5.464-12.182,12.18s5.464,12.18,12.182,12.18,12.179-5.464,12.179-12.18-5.464-12.18-12.179-12.18Z"/>
    </g>
  </g>
</svg>