<svg id="Layer_1" data-name="Layer 1" xmlns="http://www.w3.org/2000/svg" viewBox="0 0 75.87 75.87"><defs><style>.cls-1{fill:#fff;}</style></defs><path class="cls-1" d="M39.45,64V75.87a37.6,37.6,0,0,0,24-10L55.1,57.53A25.47,25.47,0,0,1,39.45,64Z"/><path class="cls-1" d="M71.29,20.91h0a37.48,37.48,0,0,0-5.87-8.36l-.1.09h0L56.93,21a21.28,21.28,0,0,1,1.74,2A25.71,25.71,0,0,1,63.5,36.62h.14l0,.34H75.51A38.06,38.06,0,0,0,71.29,20.91Z"/><path class="cls-1" d="M55.81,18.79l-.73-.74,2.21-2.21.74.74Zm-3.06-1a25.09,25.09,0,0,0-2.57-1.67l.51-.91a24.55,24.55,0,0,1,2.68,1.74Zm-5.33-3a24.77,24.77,0,0,0-2.9-1l.27-1a26.85,26.85,0,0,1,3,1Zm12.82-.41-.73-.74,2.21-2.21.74.74ZM41.51,13.15c-.73-.1-1.48-.18-2.22-.22l-.49,0V11.56h1v.36c.61.05,1.22.11,1.82.2ZM63,10.9c-.75-.7-1.54-1.37-2.35-2l.64-.83c.83.65,1.65,1.34,2.42,2.06ZM39.84,8.43h-1V5.29h1ZM58.14,7.1c-.86-.56-1.75-1.1-2.65-1.58L56,4.6c.93.5,1.85,1.05,2.73,1.62ZM52.71,4.16c-.94-.41-1.9-.79-2.87-1.12l.33-1c1,.34,2,.73,3,1.15Zm-12.87-2h-1V0l.54,0q.77,0,1.53.09l-.08,1-.95-.06Zm7,0q-1.5-.38-3-.63L44,.5c1,.17,2.09.39,3.11.65Z"/><path class="cls-1" d="M42.39,43.93a1.33,1.33,0,0,1-.93-.38L26.73,28.81A1.3,1.3,0,1,1,28.57,27L43.31,41.7a1.31,1.31,0,0,1-.92,2.23Z"/><path class="cls-1" d="M32.09,45.64a1.31,1.31,0,0,1-.93-2.23L53.61,21a1.31,1.31,0,0,1,1.85,1.85L33,45.25A1.3,1.3,0,0,1,32.09,45.64Z"/><path class="cls-1" d="M2.41,26.8h0A37.39,37.39,0,0,0,.54,36.85H.67L12.54,37a20.15,20.15,0,0,1,.22-2.65,25.68,25.68,0,0,1,6.33-13l-.1-.1.23-.26-8.29-8.46h0A38.1,38.1,0,0,0,2.41,26.8Z"/><path class="cls-1" d="M.09,41.35c0-.53-.06-1.06-.07-1.59l0-.54,2.11,0v1h-1c0,.34,0,.67.06,1Z"/><path class="cls-1" d="M6.76,60.33c-.64-.92-1.25-1.89-1.81-2.87l.91-.52c.54,1,1.13,1.9,1.75,2.8Zm-3.34-5.9c-.47-1-.9-2.08-1.27-3.14l1-.35C3.5,52,3.91,53,4.37,54ZM1.17,48C.89,47,.66,45.83.48,44.72l1-.17c.18,1.08.4,2.17.67,3.23Z"/><path class="cls-1" d="M10.21,64.64l-.36-.4c-.35-.39-.7-.79-1-1.2l.8-.67c.22.26.43.52.65.76l.73-.71.73.75Z"/><rect class="cls-1" x="13.02" y="59.22" width="2.91" height="1.04" transform="translate(-37.67 27.2) rotate(-44.41)"/><path class="cls-1" d="M18,57.05l-.73-.74.77-.75-.7-.86.83-.64c.31.4.64.8,1,1.18l.32.37Z"/><path class="cls-1" d="M15.67,52.32a27,27,0,0,1-1.37-2.54l.95-.44a26,26,0,0,0,1.31,2.44Zm-2.44-5.21a24.35,24.35,0,0,1-.77-2.78l1-.22a23,23,0,0,0,.74,2.67Z"/><path class="cls-1" d="M12,41.48l-.09-1.1H10.83v-1l2.06,0,0,.49c0,.51.06,1,.11,1.53Z"/><rect class="cls-1" x="5.95" y="38.35" width="1.04" height="2.91" transform="translate(-33.4 45.86) rotate(-89.41)"/><path class="cls-1" d="M65.91,63.59a37.64,37.64,0,0,0,10-24H64a25.56,25.56,0,0,1-6.49,15.65Z"/></svg>