<?xml version="1.0" encoding="utf-8"?>
<!-- Generator: Adobe Illustrator 28.2.0, SVG Export Plug-In . SVG Version: 6.00 Build 0)  -->
<svg version="1.1" id="Layer_1" xmlns="http://www.w3.org/2000/svg" xmlns:xlink="http://www.w3.org/1999/xlink" x="0px" y="0px"
	 width="1055.8px" height="369.5px" viewBox="0 0 1055.8 369.5" style="enable-background:new 0 0 1055.8 369.5;"
	 xml:space="preserve">
<style type="text/css">
	.st0{enable-background:new    ;}
</style>
<g>
	<path d="M242.9,224.9c-3.9,0-7.1,3.2-7.1,7.1v14l-40.3-43.3l23.2-25c1.3-1.4,2-3.2,1.9-5.1c-0.1-1.9-0.9-3.7-2.3-5
		c-1.3-1.2-3-1.9-4.9-1.9c-2,0-3.9,0.8-5.2,2.3l-22.5,24.2L145,148.3h72.9c3.9,0,7.1-3.2,7.1-7.1s-3.2-7.1-7.1-7.1h-76.3l44.2-69.4
		l37.8,59.3c1.3,2.1,3.6,3.3,6,3.3c1.4,0,2.7-0.4,3.8-1.1c3.3-2.1,4.3-6.5,2.2-9.9l-42.7-67V7.1c0-3.9-3.2-7.1-7.1-7.1
		s-7.1,3.2-7.1,7.1v42.1l-55.7,87.4L2.1,259.2c-2,2.1-2.6,5.1-1.5,7.8c1.1,2.7,3.7,4.4,6.6,4.4h51v8H45.9c-3.9,0-7.1,3.2-7.1,7.1
		s3.2,7.1,7.1,7.1h12.3v6.8H45.9c-3.9,0-7.1,3.2-7.1,7.1s3.2,7.1,7.1,7.1h12.3v10.8c0,3.9,3.2,7.1,7.1,7.1s7.1-3.2,7.1-7.1v-10.8
		h12.3c3.9,0,7.1-3.2,7.1-7.1s-3.2-7.1-7.1-7.1H72.5v-6.8h12.3c3.9,0,7.1-3.2,7.1-7.1s-3.2-7.1-7.1-7.1H72.5v-8h48.9v54.2
		c0,3.9,3.2,7.1,7.1,7.1c3.9,0,7.1-3.2,7.1-7.1v-43.2l45,48.1c1.4,1.4,3.2,2.3,5.2,2.3s3.9-0.8,5.2-2.3l44.6-48v43.1
		c0,3.9,3.2,7.1,7.1,7.1s7.1-3.2,7.1-7.1V232C250,228.1,246.8,224.9,242.9,224.9L242.9,224.9z M176,202.7L135.7,246v-86.7L176,202.7
		L176,202.7z M185.7,213.2l40.8,43.9H145L185.7,213.2L185.7,213.2z M226.5,271.4l-40.6,43.7L145,271.4H226.5z M69.4,211.4l42.8,45.7
		H24.2L69.4,211.4z M121.4,158.6v87.5l-42-45L121.4,158.6L121.4,158.6z"/>
	<g>
		<polygon points="293.7,101.7 293.7,79.4 282.4,79.4 282.4,112.8 315.8,112.8 315.8,101.7 		"/>
		<polygon points="338.1,57.1 282.4,57.1 282.4,73.7 293.5,73.7 293.5,68.2 327.1,68.2 327.1,101.7 321.5,101.7 321.5,112.8 
			338.1,112.8 		"/>
		<path d="M352.9,57.7h17v40.9h24.4v14h-41.4L352.9,57.7L352.9,57.7z"/>
		<path d="M401.5,57.7h42.6v14.1h-25.7v6.9h21.9v13.1h-21.9v20.9h-17V57.7z"/>
		<path d="M487.8,113H457V57.5h30.8v3.6H461V82h25.3v3.6H461v23.7h26.9L487.8,113L487.8,113z"/>
		<path d="M541.5,113h-3.9l-33.4-49.3h-0.4c0.4,5.8,0.4,10.3,0.4,13.2V113h-3.5V57.5h3.9l33.4,49.3h0.2c-0.2-4.5-0.4-8.9-0.4-13
			V57.5h3.8L541.5,113L541.5,113L541.5,113z"/>
		<path d="M588.1,113h-30.8V57.5h30.8v3.6h-26.8V82h25.3v3.6h-25.3v23.7h26.8V113L588.1,113z"/>
		<path d="M604.9,88.9V113h-3.9V57.5h13.4c6.9,0,12,1.2,15.4,3.7c3.5,2.8,5.3,7.1,4.9,11.6c0.1,3.4-0.9,6.7-2.9,9.5
			c-2.3,2.8-5.5,4.7-9.1,5.5l15.2,25.1h-4.7l-14.5-24.1L604.9,88.9L604.9,88.9z M604.9,85.6h10.7c3.9,0.3,7.9-0.8,11-3.2
			c2.7-2.3,4.2-5.7,3.9-9.3c0.3-3.5-1.1-7-3.7-9.3c-3.8-2.3-8.2-3.3-12.7-2.9h-9.3L604.9,85.6L604.9,85.6z"/>
		<path d="M669.3,84.6h20.3v24.7c-5.7,2.3-11.8,3.4-18,3.3c-8.7,0-15.4-2.4-19.9-7.3c-4.9-5.7-7.4-13.1-6.9-20.5
			c-0.1-5,1.1-10,3.4-14.5c2.2-4.3,5.7-7.8,9.9-10c4.5-2.4,9.6-3.6,14.8-3.5c5.6,0,11.1,1.2,16.2,3.5l-1.6,3.3
			c-4.6-2.2-9.6-3.3-14.7-3.3c-6.5-0.5-12.9,1.9-17.4,6.6c-4.3,4.9-6.6,11.3-6.3,17.8c0,8.1,2,14.2,6.1,18.4s9.9,6.1,17.8,6.1
			c4.4,0.1,8.7-0.6,12.8-2.2V87.7h-16.4L669.3,84.6L669.3,84.6L669.3,84.6z"/>
		<path d="M716.2,87.7l16.4-30.2h4.2l-18.6,33.8v21.3h-3.9V91.7l-18.8-34.2h4.5L716.2,87.7L716.2,87.7z"/>
	</g>
	<g class="st0">
		<path d="M275.5,250.4c0-57,16.1-82.9,52.7-82.9s52.7,25.9,52.7,82.9s-16.1,82.9-52.7,82.9S275.5,307.4,275.5,250.4z M355.6,249.7
			c0-53.6-12.1-63-27.3-63s-27.3,9.4-27.3,63c0,54.8,12.1,64.4,27.3,64.4S355.6,304.5,355.6,249.7z"/>
		<path d="M453.9,333.3c-13.4,0-22.8-6.5-27.3-17.2h-0.4v53.4H402V210h22.8v14.8h0.4c5.1-10.7,13.6-17.9,27-17.9
			c27.5,0,38.7,23.5,38.7,64.8C491,322.2,470.7,333.3,453.9,333.3z M445.2,226.1c-16.5,0-20.3,16.8-20.3,42.7
			c0,28.8,3.6,45.4,20.6,45.4c13.6,0,20.1-10.3,20.1-43.6C465.5,243.3,462.2,226.1,445.2,226.1z"/>
		<path d="M530.3,273.2v6.9c0,16.1,2,36.7,20.1,36.7c17.2,0,19.2-19.4,19.2-26.8h22.8c0,27-16.1,43.4-42.2,43.4
			c-19.7,0-44-5.8-44-61.5c0-31.5,6.9-65,44.5-65c33.5,0,42.5,20.3,42.5,53.6v12.7H530.3z M569,256.7v-6.5
			c0-15.2-4.9-26.8-18.6-26.8c-15.2,0-20.1,15.2-20.1,30.8v2.5H569z"/>
		<path d="M613,210h22.8V224h0.7c6-10.7,17.4-17.2,30.8-17.2c18.3,0,29.9,8.3,29.9,32.6v90.7h-24.1v-82.5c0-16.1-4.2-21.7-16.8-21.7
			c-9.8,0-19.2,7.4-19.2,23.5v80.7H613V210z"/>
		<path d="M741.8,280.8v4c0,19.4,8.7,29.3,26.1,29.3c15.9,0,24.1-11.6,24.1-23.2c0-16.8-8.5-24.1-22.8-28.4l-17.4-6
			c-23.2-8.9-33.3-21-33.3-43.8c0-29.1,19.9-45.1,49.6-45.1c40.9,0,45.1,25.5,45.1,42v3.6h-25.5v-3.4c0-14.5-6.3-23-22.3-23
			c-11,0-21.5,6-21.5,23c0,13.6,6.9,20.6,23.9,27l17.2,6.3c22.6,8,32.4,20.1,32.4,42.2c0,34-20.6,48.1-52.7,48.1
			c-39.6,0-48.5-26.4-48.5-48.7v-3.8H741.8z"/>
		<path d="M936.2,273v3.4c0,28.8-11.8,57-49.2,57c-40.2,0-52.7-25.9-52.7-82.9s12.5-82.9,53-82.9c45.4,0,48.1,33.3,48.1,50.1v2.9
			h-25.5v-2.7c0-15-4.5-31.7-22.8-31.1c-19,0-27.3,11.6-27.3,63c0,51.4,8.3,64.4,27.3,64.4c21.5,0,23.7-23.5,23.7-38.4V273H936.2z"
			/>
		<path d="M954.1,170.6h45.4c50.1,0,56.3,32.6,56.3,79.8c0,47.2-6.3,79.8-56.3,79.8h-45.4V170.6z M979.6,311h21
			c21,0,29.7-13.9,29.7-60.6c0-44.9-7.6-60.6-29.7-60.6h-21V311z"/>
	</g>
</g>
</svg>
