<?xml version="1.0" encoding="UTF-8"?>
<svg id="Layer_1" data-name="Layer 1" xmlns="http://www.w3.org/2000/svg" viewBox="0 0 1200 500">
  <defs>
    <style>
      .cls-1 {
        font-family: HelveticaNeueLTPro-MdCn, 'Helvetica Neue LT Pro';
        font-size: 223.5px;
        font-weight: 500;
      }

      .cls-2 {
        stroke-width: 0px;
      }
    </style>
  </defs>
  <path class="cls-2" d="M306.41,308.51c-3.94,0-7.14,3.2-7.14,7.14v14.04l-40.28-43.34,23.24-25.01c1.3-1.4,1.98-3.22,1.91-5.12-.07-1.91-.88-3.67-2.28-4.97-1.33-1.23-3.05-1.91-4.86-1.91-1.98,0-3.89.83-5.23,2.28l-22.53,24.24-40.78-43.89h72.91c3.94,0,7.14-3.2,7.14-7.14s-3.2-7.14-7.14-7.14h-76.29l44.16-69.39,37.75,59.32c1.32,2.07,3.57,3.31,6.03,3.31,1.36,0,2.68-.39,3.83-1.12,3.32-2.12,4.31-6.54,2.19-9.86l-42.66-67.04v-42.12c0-3.94-3.2-7.14-7.14-7.14s-7.14,3.2-7.14,7.14v42.12l-55.65,87.45-120.88,122.51c-2.03,2.06-2.62,5.11-1.5,7.77,1.12,2.67,3.7,4.39,6.59,4.39h51.03v8h-12.29c-3.94,0-7.14,3.2-7.14,7.14s3.2,7.14,7.14,7.14h12.29v6.84h-12.29c-3.94,0-7.14,3.2-7.14,7.14s3.2,7.14,7.14,7.14h12.29v10.78c0,3.94,3.2,7.14,7.14,7.14s7.14-3.2,7.14-7.14v-10.78h12.29c3.94,0,7.14-3.2,7.14-7.14s-3.2-7.14-7.14-7.14h-12.29v-6.84h12.29c3.94,0,7.14-3.2,7.14-7.14s-3.2-7.14-7.14-7.14h-12.29v-8h48.95v54.19c0,3.94,3.2,7.14,7.14,7.14s7.14-3.2,7.14-7.14v-43.24l44.99,48.12c1.35,1.44,3.25,2.26,5.23,2.26,1.98,0,3.88-.83,5.22-2.28l44.62-48.02v43.15c0,3.94,3.2,7.14,7.14,7.14s7.14-3.2,7.14-7.14v-93.56c0-3.94-3.2-7.14-7.14-7.14ZM239.49,286.35l-40.28,43.34v-86.69l40.28,43.34ZM249.24,296.85l40.78,43.89h-81.56l40.78-43.89ZM290.02,355.02l-40.62,43.72-40.87-43.72h81.49ZM132.86,295.01l42.75,45.73h-87.87l45.12-45.73ZM184.93,242.24v87.54l-42.03-44.95,42.03-42.6Z"/>
  <g>
    <polygon class="cls-2" points="357.19 185.4 357.19 163.1 345.94 163.1 345.94 196.48 379.32 196.48 379.32 185.4 357.19 185.4"/>
    <polygon class="cls-2" points="401.63 140.79 345.94 140.79 345.94 157.38 356.99 157.38 356.99 151.84 390.58 151.84 390.58 185.4 385.04 185.4 385.04 196.48 401.63 196.48 401.63 140.79"/>
    <path class="cls-2" d="M416.42,141.37h17v40.87h24.36v14.01h-41.36v-54.88Z"/>
    <path class="cls-2" d="M465.01,141.37h42.64v14.13h-25.67v6.9h21.93v13.05h-21.93v20.91h-16.97v-54.99Z"/>
    <path class="cls-2" d="M551.3,196.66h-30.8v-55.49h30.8v3.57h-26.8v20.91h25.29v3.57h-25.29v23.7h26.86l-.06,3.74Z"/>
    <path class="cls-2" d="M605.02,196.66h-3.94l-33.39-49.31h-.41c.41,5.8.41,10.27.41,13.23v36.08h-3.54v-55.49h3.86l33.36,49.31h.2c-.2-4.52-.41-8.88-.41-13.02v-36.29h3.77v55.49h.09Z"/>
    <path class="cls-2" d="M651.6,196.66h-30.8v-55.49h30.8v3.57h-26.83v20.91h25.26v3.57h-25.26v23.7h26.83v3.74Z"/>
    <path class="cls-2" d="M668.39,172.55v24.1h-3.94v-55.49h13.43c6.9,0,12.04,1.19,15.4,3.74,3.48,2.8,5.33,7.15,4.93,11.6.13,3.4-.89,6.74-2.9,9.48-2.34,2.79-5.53,4.74-9.08,5.54l15.2,25.12h-4.73l-14.5-24.1h-13.81ZM668.39,169.22h10.67c3.94.28,7.86-.84,11.05-3.16,2.69-2.31,4.15-5.74,3.94-9.28.31-3.51-1.08-6.97-3.74-9.28-3.8-2.28-8.23-3.29-12.65-2.9h-9.28v24.63Z"/>
    <path class="cls-2" d="M732.79,168.23h20.3v24.68c-5.72,2.28-11.83,3.41-17.98,3.34-8.7,0-15.4-2.35-19.93-7.28-4.88-5.69-7.36-13.05-6.93-20.54-.06-5.03,1.09-10.01,3.36-14.5,2.22-4.27,5.68-7.77,9.92-10.04,4.55-2.41,9.64-3.62,14.79-3.54,5.59,0,11.11,1.21,16.19,3.54l-1.57,3.34c-4.6-2.16-9.62-3.3-14.71-3.34-6.49-.5-12.86,1.9-17.4,6.56-4.31,4.9-6.57,11.26-6.32,17.78,0,8.09,1.97,14.21,6.12,18.36,4.15,4.15,9.89,6.12,17.78,6.12,4.37.09,8.72-.64,12.82-2.18v-19.14h-16.39v-3.16h-.06Z"/>
    <path class="cls-2" d="M779.75,171.39l16.39-30.22h4.15l-18.56,33.76v21.32h-3.94v-20.91l-18.77-34.17h4.55l16.19,30.22Z"/>
  </g>
  <text class="cls-1" transform="translate(329.67 413.85)"><tspan x="0" y="0">OpenSCD</tspan></text>
</svg>