<?xml version="1.0" encoding="utf-8"?>
<!-- Generator: Adobe Illustrator 25.1.0, SVG Export Plug-In . SVG Version: 6.00 Build 0)  -->
<svg version="1.1" xmlns="http://www.w3.org/2000/svg" xmlns:xlink="http://www.w3.org/1999/xlink" x="0px" y="0px"
	 viewBox="0 0 1000 450" style="enable-background:new 0 0 1000 450;" xml:space="preserve">
<style type="text/css">
	.st0{fill:none;}
	.st1{fill:#050505;}
	.st2{fill:#ED4024;}
	.st3{fill:#BA1C0C;}
	.st4{fill:#515151;}
	.st5{fill:#666666;}
	.st6{fill:#60605E;}
	.st7{fill:#9B9B9B;}
	.st8{fill:#FFCC04;}
	.st9{fill:#EF8B22;}
	.st10{fill:#CECDCC;}
	.st11{fill:#EFEFEF;}
	.st12{fill:#FFFFFF;}
	.st13{fill:#DB6414;}
	.st14{fill:#009ADE;}
	.st15{fill:#003764;}
	.st16{opacity:0.8;fill:#050505;}
	.st17{opacity:0.8;fill:#FFFFFF;}
</style>
<g id="Layer_2">
</g>
<g id="Layer_1">
	<polygon class="st1" points="412.2,195.2 456.6,195.2 456.6,171.6 412.2,171.6 412.2,141.6 460.5,141.6 460.5,118 387.1,118 
		387.1,256.9 387.1,257 412.2,257 	"/>
	<path class="st1" d="M503,256.9h56.9v-23.4h-44.4V118h-25.1v126.3c0,1.1,0.2,2.5,0.7,4c0.5,1.5,1.2,2.8,2.3,4.2
		c1.1,1.3,2.4,2.4,3.9,3.3C498.7,256.6,500.7,257.1,503,256.9z"/>
	<path class="st1" d="M658.2,233.4h-48.3v-38.2h44.4v-23.6h-44.4v-30h48.3V118h-73.4v126.2c0,1.1,0.2,2.4,0.6,4
		c0.5,1.4,1.2,2.8,2.3,4.1c1.1,1.3,2.4,2.4,3.9,3.3c1.5,0.9,3.5,1.4,5.9,1.4h60.8V233.4z"/>
	<path class="st1" d="M763.5,118l-74.4,1v137.9h20.7l2-6l29.4,9c1.3,0.2,2.4,0.4,3.5,0.4c3.7,0,6.6-0.7,8.4-1.8l16.9-10.3
		c1.7-1.1,3-2.5,4-4.3c1-1.8,1.5-3.8,1.5-6V129c0-2.6-1-5-3-7.5C770.3,119.2,767.4,118,763.5,118z M750.2,233.5l-7.6,4.6l-28.5-7.1
		v-90.7h36.1V233.5z"/>
	<path class="st1" d="M891.8,228.9v-57.3h-44.6v22h19.5v31l-20.4,11.5l-13-8.5v-87.1h33.5v17.2h22.6l2-39.6h-70.6
		c-2.4-0.2-4.3,0.2-5.9,1.1s-2.8,2-3.9,3.3c-1.1,1.3-1.8,2.7-2.3,4.2c-0.4,1.5-0.7,2.8-0.7,4v100.7c0,2.2,0.5,4.2,1.5,6
		c1,1.9,2.3,3.3,4,4.3l26.4,17.4c1.5,0.9,3.4,1.4,5.9,1.4c1.8,0,3.7-0.5,5.6-1.4l34.1-19.5C889.4,237.5,891.4,233.9,891.8,228.9z"/>
	<path class="st1" d="M998.4,141.6V118H925v126.2c0,1.1,0.2,2.4,0.6,4c0.5,1.4,1.2,2.8,2.3,4.1c1.1,1.3,2.4,2.4,3.9,3.3
		c1.5,0.9,3.5,1.4,5.9,1.4h60.8v-23.6h-48.3v-38.2h44.4v-23.6h-44.4v-30H998.4z"/>
	<path class="st1" d="M464.8,290.5c-1-1.3-2.4-2.4-3.9-3.3c-1.6-0.9-3.5-1.4-5.9-1.4l-68.3,1v139H412v-35.5l43-9.2
		c4.6-0.8,7.9-2.6,9.8-5.3c2-2.7,2.9-5.2,2.9-7.5v-69.7c0-1.2-0.2-2.5-0.7-3.9C466.6,293.2,465.8,291.8,464.8,290.5z M442.4,357.8
		l-30.4,7.5v-56.9h30.4V357.8z"/>
	<path class="st1" d="M581,298.6c0-1.2-0.2-2.5-0.7-3.9c-0.5-1.4-1.2-2.8-2.3-4.1c-1-1.3-2.4-2.4-3.9-3.3c-1.6-0.9-3.5-1.4-5.9-1.4
		h-61c-2.4,0-4.3,0.5-5.9,1.4c-1.6,0.9-2.9,2-3.9,3.3c-1,1.3-1.8,2.7-2.3,4.1c-0.5,1.4-0.7,2.7-0.7,3.9v101.3c0,2.2,0.5,4.3,1.5,6.1
		c1,1.8,2.3,3.3,4,4.3l26.7,17.5c1.4,0.9,3.4,1.4,5.9,1.4c1.8,0,3.7-0.5,5.7-1.4l35.1-18.6c1.8-1,3.6-2.6,5.3-4.5
		c1.7-2,2.5-4.3,2.4-7.1V298.6z M555.6,393l-22.8,11.8l-13.2-8.6v-87.7h35.9V393z"/>
	<path class="st1" d="M746.2,285.8h-25.3v109.9l-15.1,9l-15.1-9V285.8h-25.3v109.9l-15.1,9l-15.1-9V285.8h-25.3v113.6
		c0,2.2,0.5,4.3,1.5,6.1c1,1.8,2.3,3.3,4,4.3l28.7,17.9c1.3,0.9,3.4,1.4,6.3,1.4c1.6,0,3.3-0.5,5.3-1.4l22.8-13.2l21.2,13.2
		c1.3,0.9,3.4,1.4,6.3,1.4c1.6,0,3.3-0.5,5.3-1.4l27.5-15.9c1.8-1,3.6-2.6,5.3-4.5c1.7-2,2.5-4.3,2.4-7.1V285.8z"/>
	<path class="st1" d="M776.2,413c0,1.2,0.2,2.5,0.7,3.9c0.5,1.4,1.2,2.8,2.3,4.1c1,1.3,2.4,2.4,3.9,3.3c1.6,0.9,3.5,1.4,5.9,1.4
		h61.2V402h-48.7v-38.5h44.8v-23.7h-44.8v-30.2h48.7v-23.7h-74V413z"/>
	<path class="st1" d="M955.4,290.5c-1-1.3-2.4-2.4-3.9-3.3c-1.6-0.9-3.5-1.4-5.9-1.4l-68.3,1v139h25.3v-51.5l10.3-2.3l20.1,24.2
		l1,29.6h23.4l-1-34.3c-0.3-4.8-2-9-5.3-12.6l-12.4-13.1l6.9-1.6c4.4-1,7.7-2.9,9.7-5.7c2-2.7,3-5.2,3-7.5v-52.4
		c0-1.2-0.2-2.5-0.7-3.9C957.2,293.2,956.5,291.8,955.4,290.5z M933.1,345.7l-30.4,7.3v-44.6h30.4V345.7z"/>
	<polygon class="st16" points="422.3,68.2 399.1,68.2 399.1,44.9 387.3,44.9 387.3,79.8 422.3,79.8 	"/>
	<polygon class="st1" points="398.9,33.3 434,33.3 434,68.2 428.2,68.2 428.2,79.8 445.6,79.8 445.6,21.5 387.3,21.5 387.3,39 
		398.9,39 	"/>
	<polygon class="st1" points="504.4,65.1 478.9,65.1 478.9,22.1 461.2,22.1 461.2,79.8 504.4,79.8 	"/>
	<polygon class="st1" points="529.9,57.8 552.9,57.8 552.9,44.1 529.9,44.1 529.9,36.9 556.7,36.9 556.7,22.1 512.1,22.1 
		512.1,79.8 529.9,79.8 	"/>
	<polygon class="st1" points="602.5,76.5 574.5,76.5 574.5,51.5 601,51.5 601,47.7 574.5,47.7 574.5,25.7 602.5,25.7 602.5,22 
		570.3,22 570.3,80.1 602.5,80.1 	"/>
	<path class="st1" d="M619.8,42.3c0-3.2-0.2-7.7-0.5-13.9h0.2l35,51.7h4.2h0.2V22h-4.1v38c0,4.2,0.2,8.7,0.5,13.6H655L620,22h-4.1
		v58h3.9V42.3z"/>
	<polygon class="st1" points="707.7,76.5 679.7,76.5 679.7,51.5 706.2,51.5 706.2,47.7 679.7,47.7 679.7,25.7 707.7,25.7 707.7,22 
		675.4,22 675.4,80.1 707.7,80.1 	"/>
	<path class="st1" d="M725.2,54.8l14.6,0.2L755,80.3h5l-16-26.5c4.2-1.1,7.4-3,9.5-5.7s3.2-6,3.2-9.9c0-5.4-1.8-9.3-5.3-12.1
		c-3.6-2.7-9-4.1-16.3-4.1h-14v58.2h4.1V54.8z M725,25.7h9.6c6.2,0,10.5,0.9,13.3,3c2.7,2,4.1,5.3,4.1,9.6c0,4.2-1.4,7.4-4.1,9.6
		c-2.7,2.3-6.6,3.3-11.6,3.3h-11.2H725V25.7z"/>
	<path class="st1" d="M795.1,79.5c6.9,0,13.3-1.1,18.8-3.5V50.2h-21.2l0.3,3.8h17.2v19.7c-3.8,1.5-8.3,2.3-13.6,2.3
		c-8.3,0-14.5-2.1-18.7-6.5c-4.2-4.4-6.3-10.7-6.3-19.3c0-7.8,2.3-14,6.6-18.7c4.4-4.7,10.4-6.9,18.1-6.9c5.3,0,10.5,1.2,15.5,3.5
		l1.7-3.6c-5.1-2.3-10.7-3.5-17-3.5c-5.9,0-11,1.2-15.5,3.6s-8,5.9-10.4,10.4s-3.6,9.5-3.6,15.4c0,9.3,2.4,16.4,7.2,21.5
		C779,77,786.1,79.5,795.1,79.5z"/>
	<polygon class="st1" points="839.9,79.7 844.1,79.7 844.1,57.4 863.7,22 859.3,22 842.1,53.6 824.9,22 820.3,22 839.9,57.8 	"/>
	<path class="st1" d="M304.3,208.9c-1.4-1.4-2.6-2.5-3.8-3.5c-0.6-0.5-1.2-1-1.7-1.5l-0.6-0.5c-17.9-14.8-35.5-18.9-43.2-20
		c0.1-4.1,0.5-8,1.1-11.5c3.2,1.1,7.5,2.5,11.4,2.5c0.1,0,0.3,0,0.4,0l5.3-0.1L270,170c-0.5-0.6-1-1.3-1.4-2
		c-0.7-1.6-5.7-12.9-7.5-17.4c-1-4.6-1.6-7.9-1.8-9.8l0-0.2c0-0.2,0-0.4,0-0.6c0.3-7.7-0.8-17.4-3.2-26.5c-1.3-5.2-2.9-10-4.8-14.2
		c0.1-0.5,0.2-1,0.2-1.5c0-0.2,0-0.3,0-0.5l0-0.2c0-0.4,0-0.8,0-1.1c-0.2-5.9-1.2-12.9-2.7-19.1c-3.6-14.4-9.7-26.1-18.3-34.8
		c0.7-2.1,0.4-4.3-0.8-6c-2.9-4.5-8.7-7.9-12.8-9.5c-0.8-0.3-1.6-0.5-2.4-0.5c-1.5,0-2.9,0.5-4,1.3c-1.2-0.6-2.4-1.2-3.6-1.8
		c0.5-1.3,0.6-2.7,0.2-4.2c-0.4-1.9-1.6-3.5-3.3-4.3c-12.3-7.2-25.2-10.8-38.2-10.8c-13.1,0-26,3.6-38.4,10.9
		c-1.7,1.1-2.7,2.5-3.1,4.3c-0.3,1.4-0.2,2.8,0.2,4.2c-1.2,0.6-2.5,1.2-3.7,1.9c-1.1-0.9-2.5-1.4-4-1.4c-0.8,0-1.6,0.2-2.3,0.4
		c-4.1,1.6-9.9,5-12.8,9.5l-0.1,0.1c-1.1,1.8-1.3,3.9-0.7,5.9C92.2,50.9,85.9,62.9,82.6,77c-0.9,3.9-2.4,11.5-2.7,18.6
		c-0.1,0.4-0.1,0.7-0.1,1.1c-5.4,10.1-10.9,26.8-10.4,36.8c0.3,9.9-0.8,17.6-3.4,22.9c-0.8,1.6-2.1,3.7-3.3,5.6l1.4,1l0.2,0.4
		l0.2,0.3l-2-1.4c-2.2,3.2-3.5,4.4-3.8,4.6c0,0,0.1,0,0.1,0l0.8,5.2c0.3,0,0.7,0,1.1,0c1.7,0,4.1-0.1,6.6-0.3l4.4-0.5
		c0.6,4.7,1.3,8.7,2.3,12.2c-7.3,1-25.3,5-43.3,20l-0.6,0.5c-0.6,0.5-1.2,0.9-1.7,1.5c-1.2,1.1-2.4,2.2-3.8,3.5
		C-4.3,237,1.8,265,2.8,268.6c0.1,0.4,0.2,0.9,0.3,1.3c0.8,3.8,2.1,7.6,3.8,11.3c0.2,0.4,0.4,0.8,0.6,1.3l0.2,0.4
		c1.8,3.6,4.1,7.2,6.8,10.7c7.3,9.6,17.9,18.8,31.4,27.5c3.2,21,10.8,42.8,22.5,64.8c0.9,1.8,2.6,3.1,4.6,3.6
		c0.6,0.2,1.2,0.2,1.8,0.2c1.4,0,2.8-0.4,3.9-1.2c0.1-0.1,12.4-7.8,36-12c0.3,1.1,0.6,2.2,0.8,3.3l0.4,2.2c0.2,1.4,0.4,2.7,0.6,4.1
		c0.2,1.3,0.4,2.6,0.6,4c0,0,0.1,0.3,0.1,0.4l0,0c-0.1,0.7-0.1,1.3-0.2,2c-2.1,0.1-4,0.2-6,0.4c-6.8,0.4-12.5,1-18,1.7
		c-6,0.8-13,1.8-19.4,4c-5.1,1.8-12,4.9-13.8,11.6c-0.6,2.5-0.4,5.2,0.6,7.8c1.4,3.7,5.1,6.5,9.3,7.4c-0.4,2.6,0,5.3,1.4,7.6
		c2.3,3.9,6.3,6.2,11.1,6.2c2.6,0,5.3-0.7,7.6-2c0.4-0.2,0.8-0.5,1.2-0.7c0.4,1,0.9,1.9,1.6,2.7c2.1,2.7,5.4,4.2,9.1,4.2
		c1.2,0,2.4-0.2,3.6-0.5c1.3-0.3,2.6-1,3.9-1.8l0.1-0.1c2-1.6,3-3.5,3.9-5.2c0.6-1.1,1.1-2.1,1.8-2.9l0.1-0.1c0.3-0.3,0.6-0.8,1.4-2
		c1.6-2.3,4.3-6.2,7.1-9.6c3.7-4.6,7.3-7.7,9.1-9.1c1.1-0.9,1.5-1.3,1.8-2c0.9-2,1.1-5.2,1.1-10.2c0-0.7,0-1.4,0-2.1
		c0.7-0.7,1.2-1.5,1.5-2.4c1-2.9,2.6-5.5,4.6-7.8c0.4,0.3,0.8,0.7,1.2,1c5.3,4.6,11.5,9.1,18.5,13.6l0.1,0.1c4.8,3,9.8,5.8,13.8,5.8
		c0.7,0,1.3-0.1,1.9-0.2c2.1-0.5,4.6-1.8,6-5.1c3.7,1.6,7.2,3,10.5,4.1c0.2,1.5,0.4,2.5,0.8,3.4c0.3,0.7,0.7,1.1,1.8,2
		c1.7,1.5,5.4,4.6,9.1,9.2c2.8,3.3,5.4,7.2,7,9.5c0.8,1.2,1.1,1.7,1.4,2l0.1,0.1c0.7,0.8,1.3,1.8,1.8,2.9c0.9,1.7,1.9,3.6,3.9,5.2
		l0.1,0.1c1.2,0.9,2.6,1.5,3.9,1.8c1.2,0.3,2.4,0.5,3.6,0.5c3.7,0,7-1.5,9.2-4.2c0.6-0.8,1.1-1.7,1.5-2.7c0.3,0.3,0.7,0.5,1.1,0.7
		c2.4,1.3,5,2,7.6,2c4.8,0,8.9-2.3,11.1-6.2c1.4-2.3,1.8-5,1.4-7.7c4.2-0.9,7.8-3.7,9.3-7.4c1-2.6,1.2-5.3,0.6-7.8
		c-1.7-6.7-8.7-9.8-13.8-11.6c-5.3-1.8-11-2.8-16.3-3.6c0-0.1,0.1-0.2,0.1-0.3c0.6-1.6,0.7-3.4,0.2-5.1c8.9,1.4,17,2.1,24.4,2.1
		c46.3,0,50.6-26.7,50.8-27.9c0.4-2.5-0.6-5-2.6-6.6c-0.1-0.1-12.1-10.1-22.1-31.3c-1.1-2.3-2.1-4.7-3.1-7.2
		c11.8-8,21.1-16.4,27.7-25.1c2.7-3.5,4.9-7.1,6.8-10.8l0.2-0.4c0.2-0.4,0.4-0.8,0.6-1.3c1.7-3.7,3-7.5,3.8-11.3
		c0.1-0.4,0.2-0.9,0.3-1.3C326.9,265,333,237,304.3,208.9z M274.6,233.4c20,22.7,20.5,13.3,11.9-6.6c-3.2-7.5-0.8-7.7,4.1-3.6
		c2.6,2.1,6.8,5.5,9,6.4c0.4-3-0.6-7.5-2.2-12c-0.6-1.8-1.4-3.7-2.2-5.4c-0.5-1.1-1-2.3-1.6-3.3c0.7,0.6,1.5,1.2,2.2,1.8
		c1.2,1.1,2.4,2.2,3.5,3.3c0.5,1.2,1,2.5,1.4,3.9c0.5,1.5,0.9,3,1.3,4.5c1,4.2,1.3,8.1-0.2,9.6c-2.5,2.6-9.3-3-13.1-6.2
		c3.6,9.3,9,26.2-1,22c-6.2-2.6-12.5-11.8-15.4-17L274.6,233.4z M269.7,301.9l-1.8,2.4c-16.5,21.6-8,19.3,8.1,7.3
		c5.2-3.9,4.6-0.4,2.5,3.5l-0.4,0.7c-1.5,1-3.1,1.9-4.6,2.8c0.8-1.6,1.8-3.4,2.5-4.6c-7.2,4.9-20.6,12.9-18.3,4
		C259,312.6,265.7,305.4,269.7,301.9z M262.6,271.5c1.1,14.1-8.2,16.8-23.1,38.2c0,0,0.4-1.1,1-3c2.1-6.5,3.7-13,4.9-19.7
		c1.8-9.1,3.2-19.9,2.7-30.1C248.1,256.9,261.6,257.4,262.6,271.5z M209.4,34.8c-3.2,8-10.3,25.6-7.6,27.6l3.8-8.8
		c2.6-6.5,2-4.9,8.7-20.3c0.3-0.5,0.8-0.8,1.3-0.5c0.6,0.1,0.9,0.8,0.6,1.3c0,0,0,0,0,0c5.6,2.7,7.8,6.1,7.8,6.1
		c-4.3,9.3-9,18.2-13.8,27.3c2.4,1.4,10.8-13,15-20.9c10.7,10.6,15.5,25,17.7,35.8c0,0,0,0,0,0c0.3,1.3,0.5,2.6,0.7,3.8
		c0,0,0,0.1,0,0.1c0.1,0.5,0.2,1,0.2,1.5c0,0.1,0,0.2,0,0.2c0.1,0.4,0.1,0.9,0.2,1.3c0,0.1,0,0.2,0,0.3c0.1,0.4,0.1,0.8,0.1,1.2
		c0,0.1,0,0.1,0,0.2c0.1,0.5,0.1,0.9,0.1,1.3c-13.8-6.1-33.7-10.6-55.2-12.5c0.3-4.1,0.6-8.3,1-12.3l1.5-1.1V62v-2.7v-1.2
		c0-0.2,0.1-0.3,0.1-0.5c0.7-3,1.5-6.1,2-9c0.4-1.9,0.9-4.5,1.6-6.8c0.5-1.5,1-2.9,1.6-4.1c0,0,0,0,0-0.1c1.3-2.3,2.6-4.7,4-7
		C204,31.8,206.8,33.2,209.4,34.8z M182.7,73.2c0,0.2,0,0.3,0,0.5c0.1,1.9,0.1,3.8,0.3,5.8c-5.6-0.4-11.2-0.6-17-0.6
		c-0.1,0-0.1,0-0.2,0c-1.4,0-2.8,0-4.2,0c-0.2,0-0.3,0-0.5,0c-3.6,0.1-7.2,0.2-10.7,0.4c-1,0.1-2.1,0.1-3.1,0.2c0.1-2,0.2-4,0.2-5.9
		l0.2,0.1l3.2,2.4h28.1L182.7,73.2z M145.9,72.3c0.2,2.4,0.5,4.8,0.8,7.2c-0.6,0-1.3,0.1-1.9,0.1c-0.2-2.7-0.4-5.7-0.7-8.7l0.8,0.6
		L145.9,72.3z M173.5,49.8h12v1.3h-10.9c0.2,0.2,0.4,0.5,0.5,0.7c0.2,0.3,0.4,0.6,0.5,0.9h9.8V54h-9.2c0.2,0.4,0.3,0.7,0.4,1.1
		c0,0.2,0.1,0.3,0.1,0.5h8.6v1.3h-8.3c0.1,0.5,0.1,0.9,0.2,1.5l0,0.1h8.2v1.3h-8.2l0,0.1c0,0.5-0.1,1-0.2,1.5h8.3v1.3h-8.6
		c0,0.2-0.1,0.3-0.1,0.5c-0.1,0.4-0.3,0.7-0.4,1.1h4.8v1.3h-5.5c-0.2,0.3-0.4,0.6-0.6,0.9c-0.2,0.2-0.4,0.5-0.5,0.7h2.8v1.3h-4
		c-0.5,0.5-1,0.9-1.6,1.3c-2.1,1.4-4.4,2.1-6.9,2.1s-4.8-0.7-6.9-2.1c-0.6-0.4-1.1-0.8-1.6-1.3h-4v-1.3h2.8
		c-0.2-0.2-0.4-0.5-0.5-0.7c-0.2-0.3-0.4-0.6-0.6-0.9h-5.5V64h4.8c-0.2-0.4-0.3-0.7-0.4-1.1c-0.1-0.2-0.1-0.3-0.1-0.5h-6.1v-1.3h5.8
		c-0.1-0.5-0.1-0.9-0.2-1.5l0-0.1h-5.6v-1.3h5.6l0-0.1c0-0.5,0.1-1,0.2-1.5h-5.8v-1.3h6.1c0-0.2,0.1-0.3,0.1-0.5
		c0.1-0.4,0.3-0.7,0.4-1.1h-6.6v-1.3h7.3c0.2-0.3,0.3-0.6,0.5-0.9c0.2-0.2,0.4-0.5,0.5-0.7h-8.3v-1.3h9.5c0.5-0.4,1-0.9,1.5-1.2
		c2.1-1.5,4.6-2.2,7.1-2.2s5,0.8,7.1,2.2C172.5,49,173,49.4,173.5,49.8z M184.3,72l2.6-1.9c-0.3,3.3-0.5,6.5-0.7,9.5
		c-0.9-0.1-1.8-0.1-2.6-0.2C183.8,76.9,184.1,74.5,184.3,72z M198.1,21.9c0.8,0.4,1.5,0.9,2.3,1.3c0,0,0,0-6.9,12.3
		c-0.9,1.6-1.7,3.7-2.4,6.3h-4c1.1-6.4,3.3-10,10.8-19.8L198.1,21.9z M136.8,19.9c1.1-2.3,9.7-4,11.3-4.5c4-1.1,8.1-1.7,12.2-1.9
		c9.3-0.7,18.6,0.5,27.7,3.9c1.7,0.5,3.3,1.1,4.9,1.8c0.2,0.1,0.4,0.3,0.5,0.5c0.4,0.2,0.8,0.4,1.3,0.6c-0.3,0.3-0.5,0.7-0.7,1
		c0,0.3-0.1,0.6-0.3,0.9c-0.3,0.5-0.6,0.8-1.1,1c-5.9,8.3-7.7,12.2-8.5,18.8h-8.9l-3.2-4h-7h-7l-3.2,4h-6.2h-2.2h-0.2
		c-0.6-4.7-1.7-8-4.4-12.6c-1-1.5-2-3.1-2.9-4.5c-0.9-1.3-1.9-2.7-3.1-4.3C136,20.2,136.4,20.1,136.8,19.9z M132.3,22.2
		c7.5,9.7,9.7,13.3,10.7,19.6h-3.2c-0.7-2.6-1.5-4.8-2.4-6.3c-6.9-12.3-6.9-12.3-6.9-12.3C131.2,22.8,131.7,22.6,132.3,22.2z
		 M88.1,82.6C88.2,82.6,88.2,82.6,88.1,82.6c2.2-10.9,7.1-25.5,18-36.2c3.9,6.6,11,17.5,14.1,19.9c-4.5-8.7-9-17.3-13.1-26.2
		c0,0,2.3-3.5,8-6.2c0.1-0.3,0.3-0.6,0.6-0.7c0.3-0.2,0.6-0.1,0.9,0.1c0.1,0,0.1,0,0.1-0.1l0.2,0.4c0,0,0.1,0.1,0.1,0.1
		c1.2,2.8,5.8,13.3,8.8,20.7l3.4,7.9l0.7-0.4c1.6-1-5.2-19-8.2-27c1.9-1.1,3.9-2.2,5.9-3.1c0,0,0,0,0,0c0.8-0.4,1.7-0.8,2.5-1.1
		c1.3,2.4,2.7,4.8,4,7.2c1.5,2.6,2.7,6.5,3.8,11.1v17.5l3.1,2.4c0.4,3.8,0.8,7.6,1,11.2c-18.4,1.7-35.7,5.2-49,10
		c-0.5-0.1-1,0-1.3,0.3c0,0.1-0.1,0.1-0.1,0.2c-1.8,0.7-3.4,1.3-5.1,2C86.9,89.8,87.4,86.4,88.1,82.6z M93.2,93.9
		C93.2,93.9,93.2,93.9,93.2,93.9c0-0.1,0.1-0.1,0.2-0.1c9.1,6.4,16.5,8.2,27.7,10.2c0.2,0,0.4,0.1,0.7,0.1
		c10.1,1.7,24.4,3.1,35.1,2.9c1,0,2,0,2.9-0.1l4.6-0.4c0,0-0.1,0-0.1,0l-4.6-0.5c-20.1-1.8-45-2.2-62.6-13.6c1-0.4,2.1-0.7,3.1-1.1
		c0.1-0.2,0.4-0.4,0.6-0.5c5.6-2,13.2-3.9,21.6-5.3c36.3-7.1,79.2-4.9,111.4,6.7c-8.9,6.5-18.4,8.5-29.4,10.4
		c-9.4,1.7-30.7,4.1-40,4c5.4,0.1,9.6,0.3,14.2,0.3c3.1,0,6.4,0,10.2-0.2c9-0.5,22.5-2,33.4-5.1c4.3-1.3,8.3-2.8,11.4-4.7l4.1-3.1
		c0.2,0.1,0.3,0.1,0.5,0.2c0,0,0,0-0.1,0.1c2.3,0.9,4.5,1.9,6.7,2.9c-7.8,20.3-150.5,20.3-158.3,0C88.7,95.8,90.9,94.8,93.2,93.9z
		 M229.8,134.6c0.4-0.2,0.8-0.2,1.2-0.1c1,0.1,1.7,1.2,1.4,2c-3.2,11.1-10.9,24.8-24.7,21c-1.1-0.3-2-0.7-2.8-1.1
		c-0.1,0-0.2,0-0.2-0.1c-2.4-0.5-4.6-1.8-6-3.7c-0.1,0-0.6-1.2-1.3-2.4h-0.6h0c0,1-0.1,2.1-0.1,3.1c-2-1.2-4.5-1.5-7.1-1.5
		c-0.8,0-3.2,0.1-3.8-0.1c-1.4-0.6-2.8-3.2-3.6-4.5c-1.7-2.9-3.2-6.1-5-9.1c-2.4-4.1-6.1-9.6-11.4-9.6c-5.2,0-9,5.5-11.5,9.5
		c-2.4,4-7.9,12.3-12,15c-1,0.3-2.7,0.4-3.6,0.5c-1.1,0.2-2.5,0.4-3.7,0.7c0-2-0.1-3.9-0.2-5.8l0.1-0.2h0h-0.1
		c-0.8,1.7-1.9,4.2-2.1,4.2c-1,1.5-2.6,2.5-4.3,3.1c0,0-0.1,0.1-0.1,0.1c-1.1,0.8-2.4,1.4-4.1,1.9c-13.8,3.8-21.5-9.9-24.7-21
		c-0.3-0.9,0.4-1.9,1.4-2c0.3-0.1,0.6-0.1,0.8,0c0,0,0,0,0-0.1c-0.6-6.5,1-13.7,6.3-20.6c-0.4,0-0.8,0-1.2,0
		c-8.2,0-10.3,9.1-12.2,17.8c-0.5-3.2-1-6.2-0.9-9c0-3.7,1.2-7,4.2-10.4c2.9-3.2,6.8-4.5,10.8-4.5c6.7,0,13.8,3.7,18.2,8.7
		c4.7,5.3,8.1,12.7,9,20.2h0.1h0.1c0.9-7.2,12-19.7,28.1-19.5c13.7,0.2,31.2,3.5,31.7,17.1h0h0.1c1.3-6.5,4.4-12.8,8.5-17.4
		c4.5-5,11.5-8.7,18.2-8.7c4,0,7.7,1.3,10.8,4.5c5.5,5.9,4.6,12,3.3,19.3c-1.9-8.7-3.8-17.8-12.2-17.8c-0.3,0-0.6,0-1,0
		C228.7,120.9,230.4,128.2,229.8,134.6z M171.4,167.8c-1.3,0-2.2-1.9-5.7-6.8c-3.2,4.5-4.2,6.5-5.4,6.8c-5.9-5.3-10.9-7.6-19.1-8.4
		c-1.5-0.5-3.9-1-6.2-1.1c2.3-0.9,7.9-1.1,8.9-1.7c3.1-1.8,7.8-7,13.7-16.5c6.3-10.2,9.9-10.2,16.3,0c3.8,6.1,6.1,12.9,10.1,15.1
		c2.7,1.5,8.1-0.3,11,1.8c-1,0.1-2.1,0.4-3.3,0.7C184.1,159.1,177.4,162.9,171.4,167.8z M189.1,162.9c-0.5,0.1-1,0.2-1.5,0.4
		c-11.9,2.8-15.5,12.8-21.8,18.6c-6-6.3-13.2-17.9-24.2-18.9c-0.1,0-0.1,0-0.2,0c-2.2-0.7-3.8-2.4-1.3-2.7c7.4,2,11.3,3.5,16.4,8.3
		c3.4,3.6,6.1,7.7,9.2,10.9c2.9-3.1,5.5-7,8.7-10.4c4-3.5,7.6-5.6,13.7-8.2c1.1-0.2,2-0.3,2.2,0
		C191.1,161.2,190.5,162.1,189.1,162.9z M66.1,166.9c0,0,0.2-0.1,0.5-0.3l-0.5,0.2c0,0,7.3-3.6,9.5-19.6c-0.2,1.4-0.4,2.7-0.6,3.9
		l0.1,0.1c0.7-4.7,1.3-9,2-12.8c2.8-15.3,6.4-22.2,14.9-7.1c2.5,4.4,5.4,8.2,8.5,11.5c-4.4,31.1-2.5,79.6,17,65.6
		c10.5-7.6,15.7-24.3,17.1-42.4c2.1,0.5,4.5,0.7,6.6,0.9c9.1,0.9,15.9,11.5,21.6,17.7l2.7,2.8l2.9-2.7c6.8-6.5,9.6-15.2,19.8-17.7
		c2.4-0.5,6-1.3,8.6-2.9c1.1,18.7,6.3,36.4,17.2,44.2c18.6,13.4,21.2-30.4,17.5-61.5c2.3-2.1,4.5-4.3,6.3-6.9
		c5.5-7.7,10.4-6.5,13.9-2c0.3,0.4,0.6,0.8,0.9,1.3c0,0.1,0.1,0.1,0.1,0.2c0-0.8,0-1.6,0-2.4c0,0.9,0,1.8,0,2.6
		c-0.5,10.2,6.9,22.7,10,27.3c0,0.1-9.5-3.3-10.4-3.7c0,0,0-0.1,0-0.1c0,0-0.1,0-0.1-0.1c0.1-3.6-0.1-7-0.6-10.4
		c-1.1,5.3-4.4,24.4-3.1,35.5c0.1,9.7,1,17.4,1,17.4l-0.1-0.2c0,0,0,0,0,0l-12-14.9c-0.3,1,3.1,31.3,3.2,34.4c0,0-10.1-3.1-15.1-7.8
		c-16,16.4-33.5,24.6-33.5,24.6l5.5-13.1c-5.9,5.9-12.5,11.5-15.7,14.3c-0.2-0.4-0.5-0.7-0.8-1.1c-0.2-0.2-0.4-0.4-0.6-0.5l1.3-6.3
		l-4.2,5.5c-0.7,0.1-1.3,0.3-1.9,0.6c-2.7,1.6-5.4,3.5-8.4,5.7c-2.7,2-5.2,3.9-7.5,5.7l-13.3-19.1l2.4,12c0,0-6.5-1-16.4-12.2
		l-1.3,11.1c0,0.2-0.2,0.2-0.5,0.1c0,0,0,0,0,0c0,0-0.1,0-0.1-0.1c-1.4-0.6-4.9-3.5-9.4-7.7c0,0,0,0,0,0c-0.1-0.1-0.1-0.1-0.2-0.2
		c-2.3-2.2-4.9-4.7-7.6-7.5c-3.3-3.4-6.7-7.2-10.1-11.1c-5.2,4.2-14.1,6.9-14.1,6.9c0,0,0-0.1,0-0.1c0,0,0,0,0,0
		c0.2-6.5,2.4-18.1,2.4-27.4c0-1.3,0-2.5-0.1-3.7l-11.3,12c-0.4,0.4-0.5,0.2-0.5-0.1c-0.1-0.9,0.9-3.8,1-5c0.4-4,0.5-7.3,0.5-10.2
		c0-12.6-2.8-18-3.2-37.7c-0.9,4.1-1.3,7.4-1.5,10.6L66.1,166.9z M168.8,287.7c-0.9,0.7-1.7,1.4-2.6,2.1c-2.7,2.2-5.4,4.3-8.2,6.3
		c-3.1,2.3-5.9,4.2-8.7,5.9c-0.2,0.1-0.3,0.1-0.5,0.1c-0.3,0-0.5-0.1-0.7-0.3c-0.3-0.3-0.4-0.8-0.1-1.2c1.7-2.7,3.6-5.6,5.9-8.7
		c2-2.7,4.1-5.5,6.3-8.2c0.7-0.9,1.4-1.7,2.1-2.6l2.5-2.9c-0.2,0-0.5,0-0.7,0c-0.8,0-1.6,0-2.4,0c-1.5,0-3,0-4.5-0.1l-0.6,0
		c-2-0.1-4.1-0.1-6.2-0.2l-11.2-0.6c-0.4,0-0.8-0.3-0.9-0.7c-0.1-0.4,0-0.8,0.3-1.1l7.9-7.3c2.1-2,4.5-4.1,7.2-6.4
		c2.7-2.3,5.1-4.4,7.5-6.2c0.3-0.2,0.6-0.5,0.9-0.7l0.6-0.4c2.2-1.7,4.2-3.3,6.3-4.7c2.9-2.1,5.6-3.9,8.2-5.5
		c0.4-0.2,0.9-0.2,1.2,0.1c0.3,0.3,0.4,0.8,0.1,1.2c-1.6,2.6-3.4,5.3-5.5,8.2c-0.2,0.3-0.4,0.5-0.6,0.8l-0.4,0.6
		c-1.8,2.5-3.4,4.5-4.9,6.4c-1.2,1.5-2.5,3.1-4,4.8c0.3,0,0.6,0,0.9,0c1.5,0,2.9,0,4.4,0c0.8,0,1.6,0,2.4,0c0,0,0,0,0,0
		c1.6,0,3.3,0.1,4.9,0.1l13.8,0.4c0.4,0,0.8,0.3,0.9,0.7c0.1,0.4,0,0.8-0.3,1.1l-12.2,11.2l-3.8,3.4L168.8,287.7z M170.7,290.6
		c-0.9,3-2.8,5.7-4.8,8c-0.3,0.3-0.9,1-1.4,1.4c-0.4-0.3-1-1-1.2-1.3c-0.4-0.4-0.8-0.9-1.1-1.4c2.1-1.6,4.2-3.2,6.3-4.8
		C169.2,291.9,169.9,291.3,170.7,290.6z M89,230.9C89,230.9,89,230.9,89,230.9c1.7-0.9,3.7-2,5.8-3.2c2.6-1.5,5.3-3.2,7.8-5
		c0.7,0.6,1.4,1.3,2.2,2c10.7,15.3,31.3,28.2,45.2,35.7c-1.2,1-2.3,2-3.4,3c0,0,0,0,0,0l0,0c0,0-26.1-6.4-56.1-31.3
		C89.8,231.6,89.4,231.2,89,230.9C89,230.9,89,230.9,89,230.9L89,230.9C89,230.9,89,230.9,89,230.9z M153.1,249.8l3.5,5.1
		c-1.2,1-2.4,2-3.7,3.1c-5.1-2.7-11.2-6.2-17.4-10.3c-0.5-0.4-1.1-0.7-1.6-1.1c0.3-0.5,0.5-1,0.6-1.6l0.4-3.6
		c7.5,6.8,12.5,7.7,13.1,7.8l5.1,0.8L153.1,249.8z M193.3,244.9c0.5-0.2,7.3-3.4,16.2-9.8c-4.6,4.1-10,8.2-16.3,12.4
		c-7.3,4.8-14.5,8.8-20.1,11.7c0.8-1.1,1.7-2.3,2.6-3.5c2-2.8,3.8-5.3,5.3-7.8l0.7-0.6c0.2-0.2,2.5-2,5.7-4.9l-2.7,6.3L193.3,244.9z
		 M183.3,263.2l-4.1-0.1l-1.4,0l-2-0.1c-0.6,0-1.2,0-1.8,0c14.1-7.2,40.3-22.4,51.6-40.7c2.9,2,6.3,3.7,9.4,4.9
		c1.5,0.6,3,1.1,4.3,1.5c0.2,0.1,0.5,0.1,0.7,0.1l0.1,0l0.4,1.4c0,0-1.8,1.6-5,4.1C207.1,256.9,183.4,263.2,183.3,263.2z
		 M66.1,271.5c1.1-14.1,14.6-14.6,14.6-14.6c-1.1,24.8,8.6,52.8,8.6,52.8C74.3,288.2,65,285.5,66.1,271.5z M42.3,289.4
		c-2.9,10.1-12.8-4.9-17.9-13.8c0.2,4.9,0.2,13.7-3.2,13.7c-0.4,0-0.7,0-1-0.1c-0.6-0.8-1.1-1.5-1.7-2.3s-1.1-1.6-1.6-2.4
		c-1-1.6-1.9-3.2-2.8-4.9c-0.3-0.5-0.5-1-0.7-1.5c-1.1-2.4-2-4.8-2.7-7.3c-0.2-0.8-0.4-1.7-0.6-2.5c4,10.1,10.4,24,11,14.8
		c0.1-2.4,0.1-5.6,0.2-7.8c0-5.9,1.4-8.4,5.2-1.1c10.3,20,18.1,25.9,12.8-4l-0.5-3.3C40.8,272.6,44.1,283.2,42.3,289.4z M40.9,247.9
		c-9.9,4.2-4.6-12.7-1-22c-3.7,3.3-10.6,8.9-13.1,6.2c-1.4-1.5-1.1-5.5-0.2-9.6c0.4-1.5,0.8-3,1.3-4.5c0.5-1.4,1-2.7,1.4-3.9
		c1.1-1.1,2.3-2.2,3.5-3.3c0.7-0.6,1.5-1.2,2.2-1.8c-0.5,1-1.1,2.1-1.6,3.3c-0.8,1.7-1.5,3.6-2.2,5.4c-1.6,4.5-2.6,9-2.2,12
		c2.2-0.9,6.4-4.4,9-6.4c4.9-4.1,7.3-3.8,4.1,3.6c-8.6,19.9-8.1,29.3,11.9,6.6l2.2-2.5C53.4,236.1,47.1,245.3,40.9,247.9z
		 M50.3,315.1c-2.1-3.8-2.7-7.3,2.5-3.5c16,12,24.6,14.3,8.1-7.3l-1.8-2.4c3.9,3.5,10.7,10.7,12,16.1c2.2,8.9-11.1,0.9-18.3-4
		c0.8,1.2,1.7,3,2.5,4.6c-1.5-0.9-3.1-1.9-4.6-2.8L50.3,315.1z M74.7,382.6c-11.5-21.7-18.2-41.7-21.3-59.9
		c4.7,2.8,9.6,5.5,14.9,8.1c3.4,1.7,6.9,3.4,10.7,5.1c5.2,3.7,5.9,6.1,6,6.7c0.1,0.8-0.3,1.4-1.1,2.5c-0.4,0.4-0.7,0.9-1,1.5
		c-0.2,0.2-0.5,0.7-0.8,1c-1.7,2.1-3.9,4.9-4.8,7.9c-0.5,1.7-0.6,3.5,0.3,5.2c0.9,1.8,2.9,3.9,7.5,3.9c1,0,2.1-0.1,3.4-0.3
		c1.4-0.2,2.9-0.5,4.6-0.9c6.3-1.6,10.7-4.6,13.1-8.8c0.6-1,1-2.2,1.3-3.3c1.7,3.9,3.4,7.7,5.1,11.7c0.1,0.4,0.3,0.7,0.4,1.1
		c0.8,1.8,1.5,3.6,2.2,5.4C88.3,373.7,74.7,382.6,74.7,382.6z M129.5,400.6c0,0.4-0.1,0.7-0.1,1.1c0,0.4,0,0.7,0,1.1s0,0.8-0.1,1.2
		c-0.1,1-0.5,2.2-1.3,3.5c-0.2,0.3-0.4,0.5-0.6,0.8c-0.9,1.1-2.1,2.4-3.9,3.8c-0.4,0.3-0.8,0.6-1.2,1c-5.3,4.7-9.3,11.5-11.9,14.8
		c-0.2,0.2-0.4,0.4-0.5,0.6c-1.4,1.5-2.2,3.1-2.9,4.5c-0.2,0.4-0.4,0.8-0.6,1.1c-0.2,0.3-0.4,0.7-0.6,1c-0.6,0.7-1.3,1.3-2.3,1.5
		c0,0,0,0-0.1,0c-0.3,0.1-0.5,0.1-0.8,0.2c-2.3,0.3-4.1-0.3-5.1-1.7c0,0,0,0,0,0c-0.1-0.1-0.1-0.2-0.2-0.4c-0.1-0.1-0.1-0.2-0.1-0.3
		c0-0.1-0.1-0.1-0.1-0.2c-0.4-1.1-0.2-2.5,0.5-4.1c0,0,0,0.1,0,0.1c0.4-0.8,0.9-1.7,1.7-2.6c4.7-5.7,12.6-14,14.5-15.9
		c-2,1.2-15.3,9.2-23.9,14.7c-0.2,0.2-0.5,0.4-0.7,0.7c-0.9,1.3-1.5,3.4-2.3,4.1c-0.1,0.1-0.2,0.2-0.3,0.3
		c-5.4,2.9-10.8-0.1-10.4-4.6c0,0.1,0.1,0.1,0.1,0.2c0-2.2,1.4-4.8,4.9-7.1c7.7-5.3,21.6-11.6,23.3-12.3l0-0.1
		c-0.2,0-0.8,0.1-1.8,0.3c-2.6,0.5-8,1.6-17.4,3.9c-1.6,0.4-3.2,0.8-5,1.3c-1.4,0.4-2.3,3.2-4.4,4.9c-0.8,0.7-1.9,1-3.1,1
		c-2.5,0.1-5.3-1.2-6.3-3.5c-0.5-1.3-0.5-2.4-0.3-3.5c0,0,0,0.1,0.1,0.1c0.4-1.6,1.5-3,3.3-4.2c8.6-8.3,28.7-8.9,39-9.3
		c4.7-0.1,9.3-0.4,14,0.9c-0.9,0-1.7-0.1-2.3-0.1c1.5,0.1,2.7,0.3,3.6,0.5c-0.9-0.8-1.9-1.5-3.2-2c0.3-0.6,0.7-1.6,1-2.7
		c0.4,0.3,0.8,0.4,1.3,0.5l5.3,1.4l1.5,0.4c0,0,0.1,0,0.1,0c0,0,0,0,0,0C129.7,398.5,129.6,399.6,129.5,400.6z M184.1,376.3
		c2.7,0.5,5.3,1.1,7.8,1.9c3.2,1,5.5,1.7,8.7,2.9c-3.3-3.1-4-2.8-8.2-4.6c-6.7-2.8-14.6-4.4-22.7-4.8c-3-0.4-6.1-0.4-9.2-0.1
		c-9.8,0.4-19.6,2.3-27.6,5.4c4.4-0.5,8.9-1,13.6-1.4c-7.2,3.6-13.1,9.6-15.9,17.6l-6.8-1.8c0,0,0-1-1.7-10.6
		c-1.3-7.6-2.9-12.5-12.7-34.4c-0.6-2.7-2.4-6.7-2.9-7.8c-9.2-19.8-9-18.5-14.3-33.3c-7.6-23.7-9.4-48.3-5.9-71.9
		c4.1,3.5,27.7,23.1,57.2,32.8l-7.3,6.8c-1.3,1.2-1.8,3.1-1.2,4.8c0.6,1.7,2.2,2.9,4,3l4.2,0.2c0.9,1.2,1.8,2.2,2.6,2.9
		c0.3,0.3,0.6,0.6,0.8,0.9c1.4,1.3,2,1.4,3.4,0.2c0.3-0.3,0.6-0.6,1-1c0.6-0.7,1.4-1.5,2.1-2.4c1.1,0,2.2,0.1,3.3,0.1
		c0,0,0.7,0,0.8,0c-2.2,2.7-4.3,5.4-6.3,8.2c-2.3,3.2-4.3,6.1-6,8.9c-1.1,1.8-0.8,4.1,0.7,5.5c0.9,0.9,2,1.3,3.2,1.3
		c0.8,0,1.6-0.2,2.3-0.7c2.5-1.5,5-3.2,7.8-5.2c0.6,1.1,1.2,2.2,1.9,3.1c0.5,0.6,0.9,1.2,1.4,1.7c2,2.6,2.3,2.6,4.7,0
		c2.1-2.2,5-6.1,5.6-10.7c0.1-0.6,0.1-1.1,0.1-1.7c0-1.4-0.3-2.1-0.7-2.4l0.4-0.3c0,0,4-3.4,4-3.4l2-1.7c2.1,2.4,2.5,2.4,5.1-0.1
		c2.3-2.1,5.9-5.9,6.5-10.5l2.5-2.3c1.4-1.2,1.8-3.2,1.2-4.9c-0.4-1-1.1-1.8-2-2.3c26.6-10.3,47.1-27.4,50.8-30.6
		c3.4,23.2,1.8,47.4-5.4,70.7c0-0.3,0.1-0.5,0.1-0.8c-0.1,0.3-0.2,0.6-0.3,0.9c-6.8,19.6-4.1,15.2-14.3,34.1c0,0.1-0.1,0.2-0.1,0.3
		c-0.5,0.9-1.9,4.4-2.7,7c-10,22.5-11.8,27.6-13.1,35.2c-1.7,9.6-1.7,10.6-1.7,10.6l-6.8,1.8C195.5,385.5,190.4,379.9,184.1,376.3z
		 M258.9,407.6c1.8,1.3,3.1,2.8,3.5,4.4c0,0,0-0.1,0.1-0.1c0.3,1,0.3,2.2-0.3,3.5c-1,2.3-3.8,3.6-6.3,3.5c-1.2,0-2.3-0.3-3.1-1
		c-2-1.7-2.9-4.5-4.4-4.9c-1.8-0.5-3.5-0.9-5-1.3c-9.4-2.3-14.8-3.4-17.4-3.9c-1-0.2-1.5-0.3-1.8-0.3l0,0.1
		c1.7,0.7,15.6,7.1,23.3,12.3c3.4,2.3,4.8,4.8,4.8,6.9c0,0,0,0,0,0c0.4,4.5-5,7.6-10.4,4.6c-1.2-0.6-1.8-4-3.3-5.1
		c-8.2-5.4-21-13.1-23.7-14.6c2.1,2.1,9.8,10.1,14.3,15.7c0.7,0.9,1.3,1.8,1.7,2.6c0,0,0-0.1,0-0.1c0.8,1.6,0.9,3,0.5,4.1
		c0,0.1-0.1,0.1-0.1,0.2c0,0.1-0.1,0.2-0.1,0.3c-0.1,0.1-0.1,0.3-0.2,0.4c0,0,0,0,0,0c-0.9,1.3-2.8,2-5.1,1.7
		c-0.3,0-0.5-0.1-0.8-0.2c0,0,0,0-0.1,0c-1-0.2-1.7-0.8-2.3-1.5c-0.2-0.3-0.4-0.6-0.6-1c-0.2-0.3-0.4-0.7-0.6-1.1
		c-0.7-1.4-1.5-3-2.9-4.5c-0.2-0.2-0.3-0.4-0.5-0.6c-2.6-3.2-6.6-10.1-11.9-14.8c-0.4-0.3-0.8-0.7-1.2-1c-1.8-1.4-3-2.6-3.9-3.8
		c-0.2-0.3-0.4-0.5-0.6-0.8c-0.9-1.3-1.2-2.4-1.3-3.5c-0.1-0.4-0.1-0.8-0.1-1.2s0-0.7,0-1.1c0-0.4,0-0.7-0.1-1.1
		c-0.1-1-0.3-2.1-0.4-3.3c0,0,0,0,0,0c0.1,0,0.2,0,0.4-0.1l1.3-0.3l5.5-1.5c0.4-0.1,0.7-0.3,1-0.4c0.3,1,0.6,1.9,0.9,2.5
		c-1.3,0.5-2.3,1.3-3.2,2c0.5-0.1,1-0.2,1.6-0.3c-0.1,0-0.1,0-0.2,0c4.6-1.3,9.2-1,14-0.9C230.4,398.9,250.2,399.5,258.9,407.6z
		 M307.2,362.8c0,0-4.7,33.3-79.7,17.4c0.8-0.6,1.4-1.4,1.7-2.3c1.8-4.2-1.8-8.1-4.7-10.6c-0.9-0.8-1.8-1.5-2.7-2.3
		c-1.5-1.4-3-2.8-4.4-4.2c1.3-3.1,2.7-6.1,4-9.2c0.3,1,0.7,2,1.2,3c2.4,4.3,6.8,7.3,13.1,8.8c3.3,0.8,5.9,1.2,8,1.2
		c4.7,0,6.7-2.1,7.5-3.9c2.2-4.6-1.8-9.7-4.5-13.1c-0.3-0.3-0.6-0.8-0.8-1c-0.3-0.6-0.7-1-1-1.5c-0.9-1.1-1.2-1.7-1.1-2.5
		c0.1-0.6,0.8-3,6-6.7c9.6-4.4,18.1-8.8,25.9-13.5c1.2-0.7,2.5-1.5,3.7-2.3c0.1,0.3,0.2,0.6,0.4,0.9
		C291.2,350,307.2,362.8,307.2,362.8z M318,270.9c-0.7,2.5-1.6,4.9-2.7,7.3c-0.2,0.5-0.5,1-0.7,1.5c-0.8,1.7-1.8,3.3-2.8,4.9
		c-0.5,0.8-1,1.6-1.6,2.4c-0.5,0.8-1.1,1.6-1.7,2.3c-0.3,0.1-0.7,0.1-1,0.1c-3.5,0-3.4-8.9-3.2-13.7c-5.1,8.9-15.1,23.9-17.9,13.8
		c-1.8-6.2,1.5-16.8,3.7-22.5l-0.5,3.3c-5.4,30,2.5,24.1,12.8,4c3.8-7.3,5.2-4.8,5.2,1.1c0,2.2,0,5.4,0.2,7.8c0.6,9.2,7-4.8,11-14.8
		C318.5,269.2,318.3,270.1,318,270.9z"/>
	<path class="st1" d="M231.6,114c-2.3-2.4-5.4-3.7-9.1-3.7c-5.6,0-12.2,3.2-16.4,7.9c-6.7,7.4-9.9,19-8.1,27.8
		c0.6,1.5,1.4,3.2,1.9,4.2c0.8,1,1.6,1.9,2.4,2.6c1.6,1,3.9,1.5,6.5,1.5c2.1,0,4-0.4,5.6-1c5.5-2.4,10.4-8.3,12.2-15.1
		c2.1-7.7,0.3-15.8-5.1-22.8l-2.6-3.3l4.2-0.4c0.4,0,0.9,0,1.3,0c3.5,0,6,1.3,7.9,3.2C232.1,114.6,231.8,114.2,231.6,114z
		 M207.9,132.5c-1.7,3.7-4.5,6-6.3,5.2c-1.8-0.8-1.9-4.5-0.3-8.2c1.7-3.7,4.5-6,6.3-5.2C209.5,125.2,209.6,128.8,207.9,132.5z"/>
	<path class="st1" d="M108.5,110c-3.6,0-6.7,1.3-9.1,3.7c-0.3,0.3-0.5,0.6-0.8,0.9c1.9-1.9,4.5-3.2,7.9-3.2c0.5,0,0.9,0.1,1.4,0.1
		l4.1,0.4l-2.6,3.3c-5.4,7-7.2,15.2-5.1,22.9c1.8,6.8,6.5,12.7,12.2,15c1.7,0.6,3.6,1,5.6,1c3.7,0,6.8-1.3,8.5-3.3
		c0.4-0.8,1.4-3.1,2.2-5c2.1-9-1.3-20.5-7.9-27.9C120.7,113.2,114.2,110,108.5,110z M129.5,129.6c1.7,3.7,1.5,7.4-0.3,8.2
		c-1.8,0.8-4.6-1.5-6.3-5.2c-1.7-3.7-1.5-7.3,0.3-8.2C125,123.6,127.8,125.9,129.5,129.6z"/>
	<path class="st1" d="M119,278.3c2-2.4,5-6.7,4.1-11.8c-0.3-1.5-0.8-2.2-1.4-2.4c-0.1,3.2-1.8,6.1-3.8,8.4c-0.3,0.3-0.9,1-1.3,1.3
		c-0.5-0.3-1.5-1.2-1.8-1.4c-2.4-2.2-5-5-6.1-8.2c-1.4-0.5-2.3-0.1-2.2,2.3c0.4,5.1,4.6,9.5,7.2,11.8
		C116.6,280.9,116.8,280.7,119,278.3z"/>
	<path class="st1" d="M215.6,278.3c2.8-2.4,7.2-6.7,7.9-11.8c0.4-2.7-0.8-2.8-2.4-2c-1.4,3.1-4.1,5.9-6.5,7.9
		c-0.3,0.3-1.4,1.3-1.9,1.4c-0.3-0.3-0.9-1-1-1.2c-1.9-2.4-3.5-5.4-3.3-8.4c-0.5,0.3-0.9,1-1.3,2.3c-1.3,5.1,1.4,9.5,3.3,11.8
		C212.3,280.9,212.7,280.7,215.6,278.3z"/>
	<path class="st1" d="M123,292c0.3,5.4,4,10,6.4,12.4c2.7,2.6,2.9,2.6,5,0c2-2.4,5-7,4.2-12.4c-0.3-1.8-0.8-2.6-1.5-2.6
		c-0.1,3.5-1.9,6.7-4,9.3c-0.1,0.3-0.8,1-1.2,1.3c-0.4-0.3-1.2-1.2-1.4-1.4c-2.4-2.4-4.7-5.6-5.6-9.1C123.7,289,122.8,289.6,123,292
		z"/>
	<path class="st1" d="M199.6,304.4c2.6-2.4,6.7-7,7.2-12.4c0.3-2.7-0.8-3.1-2.2-2.3c-1.2,3.3-3.7,6.4-6.1,8.8
		c-0.3,0.3-1.2,1.2-1.7,1.4c-0.3-0.3-0.8-1-0.9-1.2c-2-2.7-3.5-6-3.3-9.3c-0.5,0.3-1,1-1.4,2.6c-1,5.4,1.7,10,3.5,12.4
		C196.6,307,196.9,307,199.6,304.4z"/>
	<path class="st1" d="M126.3,312.9c0,3.3-1.3,6.7-3.2,9.5c-0.1,0.3-0.5,0.8-0.8,1.2c-0.4-0.4-1-1-1.3-1.3c-2.3-2.4-4.6-5.5-5.6-8.8
		c-1.4-0.9-2.4-0.6-2,2.2c0.5,5.4,4.2,10,6.5,12.4c2.4,2.6,2.7,2.4,4.5-0.1c1.7-2.4,4.1-7,3.3-12.4
		C127.4,313.7,126.9,313,126.3,312.9z"/>
	<path class="st1" d="M154.6,312.9c-0.1,1.5-0.6,3.1-1.3,4.5c-0.8,1.7-1.8,3.3-2.9,4.7c-0.1,0.3-0.6,0.9-1,1.2c-0.4-0.4-0.9-1-1-1.2
		c-2.2-2.7-4.1-5.9-4.7-9.2c-1-0.4-1.7,0.1-1.8,2.6c0,5.4,3.1,10,5.2,12.4c2.3,2.7,2.6,2.6,4.6,0c1.9-2.4,4.9-7,4.6-12.4
		C156.1,313.2,155.5,312.6,154.6,312.9z"/>
	<path class="st1" d="M183.4,313.1c-0.9,3.3-2.9,6.5-5.2,9c-0.3,0.3-0.8,0.9-1.2,1.3c-0.3-0.4-0.6-0.9-0.9-1.2c-2-2.8-3.5-6-3.6-9.5
		c-0.6,0-1.3,0.8-1.5,2.6c-0.6,5.4,2,10,3.8,12.4c1.8,2.8,2.2,2.7,4.5,0.1c2.3-2.6,5.8-7,6-12.4
		C185.4,312.9,184.5,312.5,183.4,313.1z"/>
	<path class="st1" d="M213.8,315.4c0.5-3.1-0.8-3.1-2.4-1.9c-1.3,3.2-3.7,6.1-6,8.6c-0.3,0.3-0.9,0.9-1.4,1.3
		c-0.3-0.4-0.5-0.8-0.6-1c-1.8-2.8-2.8-6.1-2.6-9.3c-0.5,0.3-0.9,1-1.3,2.4c-1.3,5.4,0.9,10,2.4,12.4c1.8,2.7,2,2.6,4.6,0
		C209.1,325.3,212.9,320.8,213.8,315.4z"/>
	<path class="st1" d="M139.6,333.8c-0.1,3.3-1.4,6.5-3.3,9.3c-0.1,0.3-0.4,0.6-0.6,1c-0.4-0.4-0.8-0.9-0.9-1c-2.2-2.6-4-5.6-4.9-8.8
		c-1.2-0.8-2-0.5-1.9,2.2c0.3,5.4,3.5,9.9,5.6,12.3c2.2,2.4,2.3,2.4,4.1-0.1c1.7-2.4,4.1-6.9,3.5-12.3
		C140.9,334.4,140.4,333.7,139.6,333.8z"/>
	<path class="st1" d="M168.3,334c-0.6,3.3-2.3,6.4-4.4,9.1c-0.1,0.3-0.5,0.8-0.9,1c-0.3-0.4-0.6-0.8-0.8-1c-1.9-2.7-3.5-5.9-3.8-9.3
		c-0.8-0.3-1.4,0.4-1.5,2.6c-0.4,5.4,2.3,9.9,4.1,12.3c1.8,2.7,2,2.7,4.1,0.1c1.9-2.4,4.9-6.9,5-12.3
		C170.1,333.8,169.3,333.5,168.3,334z"/>
	<path class="st1" d="M196.6,334.5c-1,3.2-3.1,6-5.2,8.4c-0.3,0.3-0.6,0.8-1,1.2c-0.3-0.3-0.4-0.6-0.5-0.9c-1.8-2.8-2.8-6.1-2.7-9.5
		c-0.5,0.1-1,0.9-1.3,2.6c-1,5.4,1.2,9.9,2.7,12.3c1.3,2.7,1.5,2.7,4,0.1c2.2-2.4,5.8-6.9,6.4-12.3
		C199.2,333.3,198.1,333.3,196.6,334.5z"/>
	<path class="st1" d="M164.3,106.5L164.3,106.5C164.3,106.5,164.3,106.5,164.3,106.5C164.3,106.5,164.3,106.5,164.3,106.5z"/>
	<path class="st1" d="M161.7,142.9c-1.7,3.1-5.1,6.4-3.1,7.9C160.7,152.2,163.9,140.7,161.7,142.9z"/>
	<path class="st1" d="M172.7,150.8c2-1.5-1.4-4.9-3.1-7.9C167.4,140.7,170.7,152.2,172.7,150.8z"/>
	<path class="st1" d="M133.6,222.6c2.2,2.6,2.3,2.6,4.1,0c1.7-2.4,4.1-6.9,3.5-12.3c-0.2-2-0.8-2.7-1.5-2.6
		c-0.2,3.2-1.5,6.2-3.3,8.8c-0.1,0.3-0.4,0.6-0.6,1c-0.3-0.3-0.8-0.8-0.9-1c-2-2.4-3.8-5.2-4.7-8.3c-1.3-1-2.4-0.9-2.2,2
		C128.2,215.7,131.4,220.2,133.6,222.6z"/>
	<path class="st1" d="M165.1,231.5c1.9-2.4,4.9-6.9,5-12.3c0-2.7-0.9-3-2-2.2c-0.7,3-2.3,5.9-4.3,8.4c-0.1,0.1-0.5,0.6-0.9,1
		c-0.3-0.4-0.6-0.9-0.8-1c-1.8-2.5-3.3-5.5-3.7-8.7c-0.8-0.2-1.4,0.5-1.5,2.5c-0.4,5.4,2.3,9.9,4.1,12.3
		C162.8,234,163,234,165.1,231.5z"/>
	<path class="st1" d="M192.5,222.6c2.2-2.4,5.8-6.9,6.4-12.3c0.4-3.3-1-3-2.7-1.5c-1.1,2.8-3,5.4-5,7.7c-0.1,0.3-0.6,0.8-1,1.2
		c-0.1-0.4-0.4-0.8-0.5-0.9c-1.6-2.8-2.7-5.8-2.7-8.9c-0.5,0.2-1,0.9-1.3,2.5c-1,5.4,1.2,9.9,2.7,12.3
		C189.8,225.3,190,225.2,192.5,222.6z"/>
	<path class="st1" d="M187,268.8l-11.3-0.3c-1.6,0-3.2-0.1-4.9-0.1c-0.8,0-1.6,0-2.4,0c-1.5,0-2.9,0-4.4,0c-0.7,0-1.5,0-2.3,0
		l-0.9,0c0,0,0,0,0,0c-0.4,0-0.7-0.2-0.9-0.6c-0.2-0.4-0.1-0.8,0.1-1.1c2.1-2.5,3.8-4.5,5.3-6.4c1.5-1.9,3-3.9,4.9-6.3l0.4-0.6
		c0.2-0.3,0.4-0.5,0.6-0.8c1.1-1.5,2-2.8,2.9-4.2c-1.3,0.9-2.7,1.9-4.2,2.9c-2,1.5-4,3-6.2,4.7l-0.6,0.5c-0.3,0.2-0.6,0.5-0.9,0.7
		c-2.3,1.8-4.7,3.8-7.4,6.2c-2.7,2.3-5,4.4-7.2,6.4l-6.2,5.7l8.8,0.4c2,0.1,4.1,0.2,6.1,0.2l0.7,0c1.5,0.1,3,0.1,4.4,0.1
		c0.8,0,1.6,0,2.4,0c0.9,0,1.9,0,2.8,0c0,0,0,0,0,0c0.4,0,0.7,0.2,0.9,0.6c0.2,0.4,0.1,0.8-0.1,1.1l-3.9,4.6
		c-0.7,0.8-1.4,1.7-2.1,2.5c-2.1,2.7-4.2,5.4-6.2,8.1c-1.2,1.6-2.3,3.2-3.3,4.7c1.5-1,3.1-2.1,4.7-3.3c2.7-2,5.4-4.1,8.1-6.2
		c0.9-0.7,1.7-1.4,2.6-2.1l1.4-1.2l3.9-3.3l3.8-3.4L187,268.8z"/>
	<path class="st1" d="M157.8,48.6c-0.5,0.4-1,0.8-1.5,1.2c-0.1,0.1-0.2,0.1-0.2,0.2c-0.3,0.3-0.6,0.7-0.9,1.1
		c-0.2,0.2-0.4,0.5-0.5,0.7c-0.2,0.3-0.4,0.6-0.5,0.9c-0.1,0.2-0.2,0.4-0.3,0.6c-0.1,0.2-0.2,0.5-0.3,0.7c-0.2,0.4-0.3,0.7-0.4,1.1
		c-0.1,0.2-0.1,0.3-0.1,0.5c-0.1,0.3-0.2,0.7-0.3,1c0,0.1,0,0.2,0,0.3c-0.1,0.5-0.1,0.9-0.2,1.5l0,0.1l0,0.1c0,0.2,0,0.3,0,0.5
		c0,0.2,0,0.4,0,0.6l0,0.1l0,0.1c0,0.5,0.1,1,0.2,1.5c0,0.1,0,0.2,0.1,0.3c0.1,0.3,0.2,0.6,0.3,1c0,0.2,0.1,0.3,0.1,0.5
		c0.1,0.4,0.3,0.7,0.4,1.1c0.1,0.2,0.2,0.5,0.3,0.7c0.1,0.2,0.2,0.4,0.3,0.6c0.2,0.3,0.4,0.6,0.6,0.9c0.2,0.2,0.4,0.5,0.5,0.7
		c0.3,0.4,0.6,0.7,1,1.1c0.1,0.1,0.2,0.1,0.2,0.2c0.5,0.5,1,0.9,1.6,1.3c2.1,1.4,4.4,2.1,6.9,2.1s4.8-0.7,6.9-2.1
		c0.6-0.4,1.1-0.8,1.6-1.3c0.1-0.1,0.2-0.1,0.2-0.2c0.3-0.3,0.7-0.7,1-1.1c0.2-0.2,0.4-0.5,0.5-0.7c0.2-0.3,0.4-0.6,0.6-0.9
		c0.1-0.2,0.2-0.4,0.3-0.6c0.1-0.2,0.2-0.5,0.3-0.7c0.2-0.4,0.3-0.7,0.4-1.1c0.1-0.2,0.1-0.3,0.1-0.5c0.1-0.3,0.2-0.7,0.3-1
		c0-0.1,0-0.2,0.1-0.3c0.1-0.5,0.1-0.9,0.2-1.5l0-0.1l0-0.1c0-0.2,0-0.4,0-0.6c0-0.2,0-0.3,0-0.5l0-0.1l0-0.1c0-0.5-0.1-1-0.2-1.5
		c0-0.1,0-0.2,0-0.3c-0.1-0.3-0.2-0.7-0.3-1c0-0.2-0.1-0.3-0.1-0.5c-0.1-0.4-0.3-0.7-0.4-1.1c-0.1-0.2-0.2-0.5-0.3-0.7
		c-0.1-0.2-0.2-0.4-0.3-0.6c-0.2-0.3-0.3-0.6-0.5-0.9c-0.2-0.2-0.4-0.5-0.5-0.7c-0.3-0.4-0.6-0.7-0.9-1.1c-0.1-0.1-0.2-0.1-0.2-0.2
		c-0.5-0.4-1-0.9-1.5-1.2c-2.1-1.5-4.6-2.2-7.1-2.2S159.9,47.2,157.8,48.6z M173.4,54.6c0.2,0.5,0.4,0.9,0.6,1.3
		c0.1,0.4,0.2,0.7,0.3,1.1c0.1,0.4,0.1,0.8,0.2,1.3l0,0.2c0,0.1,0,0.2,0,0.3c0,0.1,0,0.3,0,0.4l0,0.2c0,0.5-0.1,1-0.2,1.3
		c-0.1,0.3-0.2,0.7-0.3,1.1c-0.2,0.5-0.4,0.9-0.6,1.3c-0.2,0.4-0.4,0.7-0.7,1.1c-0.3,0.5-0.7,0.9-1.2,1.3c-0.4,0.4-0.9,0.8-1.4,1.1
		c-3.1,2.1-7.4,2.1-10.5,0c-0.5-0.3-0.9-0.7-1.4-1.1c-0.4-0.4-0.8-0.9-1.2-1.3c-0.3-0.4-0.5-0.7-0.7-1.1c-0.2-0.4-0.4-0.9-0.6-1.3
		c-0.1-0.4-0.2-0.8-0.3-1.1c-0.1-0.4-0.1-0.8-0.2-1.3l0-0.2c0-0.1,0-0.3,0-0.4c0-0.1,0-0.2,0-0.3l0-0.2c0-0.5,0.1-0.9,0.2-1.3
		c0.1-0.4,0.2-0.7,0.3-1.1c0.1-0.4,0.3-0.9,0.6-1.3c0.2-0.4,0.4-0.8,0.6-1.1c0.3-0.5,0.7-0.9,1.1-1.3c0.4-0.4,0.8-0.8,1.3-1.1
		c1.6-1.1,3.5-1.7,5.4-1.7s3.8,0.6,5.4,1.7c0.5,0.3,0.9,0.7,1.3,1.1c0.4,0.4,0.8,0.9,1.1,1.3C173,53.9,173.2,54.2,173.4,54.6z"/>
	<path class="st1" d="M164.9,50.9c-4.5,0-8.1,3.6-8.1,8.1s3.6,8.1,8.1,8.1s8.1-3.6,8.1-8.1S169.3,50.9,164.9,50.9z M164.9,65.5
		c-3.6,0-6.6-2.9-6.6-6.6c0-3.6,2.9-6.6,6.6-6.6s6.6,2.9,6.6,6.6C171.4,62.6,168.5,65.5,164.9,65.5z"/>
</g>
</svg>
