<?xml version="1.0" encoding="UTF-8" standalone="no"?>
<svg
   xmlns:dc="http://purl.org/dc/elements/1.1/"
   xmlns:cc="http://creativecommons.org/ns#"
   xmlns:rdf="http://www.w3.org/1999/02/22-rdf-syntax-ns#"
   xmlns:svg="http://www.w3.org/2000/svg"
   xmlns="http://www.w3.org/2000/svg"
   version="1.1"
   viewBox="0 0 792 96.58315"
   data-name="Layer 1"
   id="Layer_1">
  <metadata
     id="metadata1001">
    <rdf:RDF>
      <cc:Work
         rdf:about="">
        <dc:format>image/svg+xml</dc:format>
        <dc:type
           rdf:resource="http://purl.org/dc/dcmitype/StillImage" />
        <dc:title></dc:title>
      </cc:Work>
    </rdf:RDF>
  </metadata>
  <defs
     id="defs894">
    <style
       id="style892">.cls-1{fill:#00b9b1;}.cls-2{fill:#009ade;}.cls-3{fill:#24c1db;}.cls-4{fill:#003764;}</style>
    <filter
       id="filter1566"
       style="color-interpolation-filters:sRGB;">
      <feColorMatrix
         id="feColorMatrix1564"
         values="0.21 0.72 0.072 0 0 0.21 0.72 0.072 0 0 0.21 0.72 0.072 0 0 0 0 0 1 0 " />
    </filter>
    <filter
       id="filter1570"
       style="color-interpolation-filters:sRGB;">
      <feColorMatrix
         id="feColorMatrix1568"
         values="0.21 0.72 0.072 0 0 0.21 0.72 0.072 0 0 0.21 0.72 0.072 0 0 0 0 0 1 0 " />
    </filter>
    <filter
       id="filter1574"
       style="color-interpolation-filters:sRGB;">
      <feColorMatrix
         id="feColorMatrix1572"
         values="0.21 0.72 0.072 0 0 0.21 0.72 0.072 0 0 0.21 0.72 0.072 0 0 0 0 0 1 0 " />
    </filter>
    <filter
       id="filter1578"
       style="color-interpolation-filters:sRGB;">
      <feColorMatrix
         id="feColorMatrix1576"
         values="0.21 0.72 0.072 0 0 0.21 0.72 0.072 0 0 0.21 0.72 0.072 0 0 0 0 0 1 0 " />
    </filter>
    <filter
       id="filter1582"
       style="color-interpolation-filters:sRGB;">
      <feColorMatrix
         id="feColorMatrix1580"
         values="0.21 0.72 0.072 0 0 0.21 0.72 0.072 0 0 0.21 0.72 0.072 0 0 0 0 0 1 0 " />
    </filter>
    <filter
       id="filter1586"
       style="color-interpolation-filters:sRGB;">
      <feColorMatrix
         id="feColorMatrix1584"
         values="0.21 0.72 0.072 0 0 0.21 0.72 0.072 0 0 0.21 0.72 0.072 0 0 0 0 0 1 0 " />
    </filter>
    <filter
       id="filter1590"
       style="color-interpolation-filters:sRGB;">
      <feColorMatrix
         id="feColorMatrix1588"
         values="0.21 0.72 0.072 0 0 0.21 0.72 0.072 0 0 0.21 0.72 0.072 0 0 0 0 0 1 0 " />
    </filter>
    <filter
       id="filter1594"
       style="color-interpolation-filters:sRGB;">
      <feColorMatrix
         id="feColorMatrix1592"
         values="0.21 0.72 0.072 0 0 0.21 0.72 0.072 0 0 0.21 0.72 0.072 0 0 0 0 0 1 0 " />
    </filter>
    <filter
       id="filter1598"
       style="color-interpolation-filters:sRGB;">
      <feColorMatrix
         id="feColorMatrix1596"
         values="0.21 0.72 0.072 0 0 0.21 0.72 0.072 0 0 0.21 0.72 0.072 0 0 0 0 0 1 0 " />
    </filter>
    <filter
       id="filter1602"
       style="color-interpolation-filters:sRGB;">
      <feColorMatrix
         id="feColorMatrix1600"
         values="0.21 0.72 0.072 0 0 0.21 0.72 0.072 0 0 0.21 0.72 0.072 0 0 0 0 0 1 0 " />
    </filter>
    <filter
       id="filter1606"
       style="color-interpolation-filters:sRGB;">
      <feColorMatrix
         id="feColorMatrix1604"
         values="0.21 0.72 0.072 0 0 0.21 0.72 0.072 0 0 0.21 0.72 0.072 0 0 0 0 0 1 0 " />
    </filter>
    <filter
       id="filter1610"
       style="color-interpolation-filters:sRGB;">
      <feColorMatrix
         id="feColorMatrix1608"
         values="0.21 0.72 0.072 0 0 0.21 0.72 0.072 0 0 0.21 0.72 0.072 0 0 0 0 0 1 0 " />
    </filter>
    <filter
       id="filter1614"
       style="color-interpolation-filters:sRGB;">
      <feColorMatrix
         id="feColorMatrix1612"
         values="0.21 0.72 0.072 0 0 0.21 0.72 0.072 0 0 0.21 0.72 0.072 0 0 0 0 0 1 0 " />
    </filter>
    <filter
       id="filter1618"
       style="color-interpolation-filters:sRGB;">
      <feColorMatrix
         id="feColorMatrix1616"
         values="0.21 0.72 0.072 0 0 0.21 0.72 0.072 0 0 0.21 0.72 0.072 0 0 0 0 0 1 0 " />
    </filter>
    <filter
       id="filter1622"
       style="color-interpolation-filters:sRGB;">
      <feColorMatrix
         id="feColorMatrix1620"
         values="0.21 0.72 0.072 0 0 0.21 0.72 0.072 0 0 0.21 0.72 0.072 0 0 0 0 0 1 0 " />
    </filter>
    <filter
       id="filter1626"
       style="color-interpolation-filters:sRGB;">
      <feColorMatrix
         id="feColorMatrix1624"
         values="0.21 0.72 0.072 0 0 0.21 0.72 0.072 0 0 0.21 0.72 0.072 0 0 0 0 0 1 0 " />
    </filter>
    <filter
       id="filter1630"
       style="color-interpolation-filters:sRGB;">
      <feColorMatrix
         id="feColorMatrix1628"
         values="0.21 0.72 0.072 0 0 0.21 0.72 0.072 0 0 0.21 0.72 0.072 0 0 0 0 0 1 0 " />
    </filter>
    <filter
       id="filter1634"
       style="color-interpolation-filters:sRGB;">
      <feColorMatrix
         id="feColorMatrix1632"
         values="0.21 0.72 0.072 0 0 0.21 0.72 0.072 0 0 0.21 0.72 0.072 0 0 0 0 0 1 0 " />
    </filter>
    <filter
       id="filter1638"
       style="color-interpolation-filters:sRGB;">
      <feColorMatrix
         id="feColorMatrix1636"
         values="0.21 0.72 0.072 0 0 0.21 0.72 0.072 0 0 0.21 0.72 0.072 0 0 0 0 0 1 0 " />
    </filter>
    <filter
       id="filter1642"
       style="color-interpolation-filters:sRGB;">
      <feColorMatrix
         id="feColorMatrix1640"
         values="0.21 0.72 0.072 0 0 0.21 0.72 0.072 0 0 0.21 0.72 0.072 0 0 0 0 0 1 0 " />
    </filter>
    <filter
       id="filter1646"
       style="color-interpolation-filters:sRGB;">
      <feColorMatrix
         id="feColorMatrix1644"
         values="0.21 0.72 0.072 0 0 0.21 0.72 0.072 0 0 0.21 0.72 0.072 0 0 0 0 0 1 0 " />
    </filter>
    <filter
       id="filter1650"
       style="color-interpolation-filters:sRGB;">
      <feColorMatrix
         id="feColorMatrix1648"
         values="0.21 0.72 0.072 0 0 0.21 0.72 0.072 0 0 0.21 0.72 0.072 0 0 0 0 0 1 0 " />
    </filter>
    <filter
       id="filter1654"
       style="color-interpolation-filters:sRGB;">
      <feColorMatrix
         id="feColorMatrix1652"
         values="0.21 0.72 0.072 0 0 0.21 0.72 0.072 0 0 0.21 0.72 0.072 0 0 0 0 0 1 0 " />
    </filter>
    <filter
       id="filter1658"
       style="color-interpolation-filters:sRGB;">
      <feColorMatrix
         id="feColorMatrix1656"
         values="0.21 0.72 0.072 0 0 0.21 0.72 0.072 0 0 0.21 0.72 0.072 0 0 0 0 0 1 0 " />
    </filter>
    <filter
       id="filter1662"
       style="color-interpolation-filters:sRGB;">
      <feColorMatrix
         id="feColorMatrix1660"
         values="0.21 0.72 0.072 0 0 0.21 0.72 0.072 0 0 0.21 0.72 0.072 0 0 0 0 0 1 0 " />
    </filter>
    <filter
       id="filter1666"
       style="color-interpolation-filters:sRGB;">
      <feColorMatrix
         id="feColorMatrix1664"
         values="0.21 0.72 0.072 0 0 0.21 0.72 0.072 0 0 0.21 0.72 0.072 0 0 0 0 0 1 0 " />
    </filter>
    <filter
       id="filter1670"
       style="color-interpolation-filters:sRGB;">
      <feColorMatrix
         id="feColorMatrix1668"
         values="0.21 0.72 0.072 0 0 0.21 0.72 0.072 0 0 0.21 0.72 0.072 0 0 0 0 0 1 0 " />
    </filter>
    <filter
       id="filter1674"
       style="color-interpolation-filters:sRGB;">
      <feColorMatrix
         id="feColorMatrix1672"
         values="0.21 0.72 0.072 0 0 0.21 0.72 0.072 0 0 0.21 0.72 0.072 0 0 0 0 0 1 0 " />
    </filter>
    <filter
       id="filter1678"
       style="color-interpolation-filters:sRGB;">
      <feColorMatrix
         id="feColorMatrix1676"
         values="0.21 0.72 0.072 0 0 0.21 0.72 0.072 0 0 0.21 0.72 0.072 0 0 0 0 0 1 0 " />
    </filter>
    <filter
       id="filter1682"
       style="color-interpolation-filters:sRGB;">
      <feColorMatrix
         id="feColorMatrix1680"
         values="0.21 0.72 0.072 0 0 0.21 0.72 0.072 0 0 0.21 0.72 0.072 0 0 0 0 0 1 0 " />
    </filter>
    <filter
       id="filter1686"
       style="color-interpolation-filters:sRGB;">
      <feColorMatrix
         id="feColorMatrix1684"
         values="0.21 0.72 0.072 0 0 0.21 0.72 0.072 0 0 0.21 0.72 0.072 0 0 0 0 0 1 0 " />
    </filter>
    <filter
       id="filter1690"
       style="color-interpolation-filters:sRGB;">
      <feColorMatrix
         id="feColorMatrix1688"
         values="0.21 0.72 0.072 0 0 0.21 0.72 0.072 0 0 0.21 0.72 0.072 0 0 0 0 0 1 0 " />
    </filter>
    <filter
       id="filter1694"
       style="color-interpolation-filters:sRGB;">
      <feColorMatrix
         id="feColorMatrix1692"
         values="0.21 0.72 0.072 0 0 0.21 0.72 0.072 0 0 0.21 0.72 0.072 0 0 0 0 0 1 0 " />
    </filter>
    <filter
       id="filter1698"
       style="color-interpolation-filters:sRGB;">
      <feColorMatrix
         id="feColorMatrix1696"
         values="0.21 0.72 0.072 0 0 0.21 0.72 0.072 0 0 0.21 0.72 0.072 0 0 0 0 0 1 0 " />
    </filter>
    <filter
       id="filter1702"
       style="color-interpolation-filters:sRGB;">
      <feColorMatrix
         id="feColorMatrix1700"
         values="0.21 0.72 0.072 0 0 0.21 0.72 0.072 0 0 0.21 0.72 0.072 0 0 0 0 0 1 0 " />
    </filter>
    <filter
       id="filter1706"
       style="color-interpolation-filters:sRGB;">
      <feColorMatrix
         id="feColorMatrix1704"
         values="0.21 0.72 0.072 0 0 0.21 0.72 0.072 0 0 0.21 0.72 0.072 0 0 0 0 0 1 0 " />
    </filter>
    <filter
       id="filter1710"
       style="color-interpolation-filters:sRGB;">
      <feColorMatrix
         id="feColorMatrix1708"
         values="0.21 0.72 0.072 0 0 0.21 0.72 0.072 0 0 0.21 0.72 0.072 0 0 0 0 0 1 0 " />
    </filter>
    <filter
       id="filter1714"
       style="color-interpolation-filters:sRGB;">
      <feColorMatrix
         id="feColorMatrix1712"
         values="0.21 0.72 0.072 0 0 0.21 0.72 0.072 0 0 0.21 0.72 0.072 0 0 0 0 0 1 0 " />
    </filter>
    <filter
       id="filter1718"
       style="color-interpolation-filters:sRGB;">
      <feColorMatrix
         id="feColorMatrix1716"
         values="0.21 0.72 0.072 0 0 0.21 0.72 0.072 0 0 0.21 0.72 0.072 0 0 0 0 0 1 0 " />
    </filter>
    <filter
       id="filter1722"
       style="color-interpolation-filters:sRGB;">
      <feColorMatrix
         id="feColorMatrix1720"
         values="0.21 0.72 0.072 0 0 0.21 0.72 0.072 0 0 0.21 0.72 0.072 0 0 0 0 0 1 0 " />
    </filter>
    <filter
       id="filter1726"
       style="color-interpolation-filters:sRGB;">
      <feColorMatrix
         id="feColorMatrix1724"
         values="0.21 0.72 0.072 0 0 0.21 0.72 0.072 0 0 0.21 0.72 0.072 0 0 0 0 0 1 0 " />
    </filter>
    <filter
       id="filter1730"
       style="color-interpolation-filters:sRGB;">
      <feColorMatrix
         id="feColorMatrix1728"
         values="0.21 0.72 0.072 0 0 0.21 0.72 0.072 0 0 0.21 0.72 0.072 0 0 0 0 0 1 0 " />
    </filter>
    <filter
       id="filter1734"
       style="color-interpolation-filters:sRGB;">
      <feColorMatrix
         id="feColorMatrix1732"
         values="0.21 0.72 0.072 0 0 0.21 0.72 0.072 0 0 0.21 0.72 0.072 0 0 0 0 0 1 0 " />
    </filter>
    <filter
       id="filter1738"
       style="color-interpolation-filters:sRGB;">
      <feColorMatrix
         id="feColorMatrix1736"
         values="0.21 0.72 0.072 0 0 0.21 0.72 0.072 0 0 0.21 0.72 0.072 0 0 0 0 0 1 0 " />
    </filter>
    <filter
       id="filter1742"
       style="color-interpolation-filters:sRGB;">
      <feColorMatrix
         id="feColorMatrix1740"
         values="0.21 0.72 0.072 0 0 0.21 0.72 0.072 0 0 0.21 0.72 0.072 0 0 0 0 0 1 0 " />
    </filter>
    <filter
       id="filter1746"
       style="color-interpolation-filters:sRGB;">
      <feColorMatrix
         id="feColorMatrix1744"
         values="0.21 0.72 0.072 0 0 0.21 0.72 0.072 0 0 0.21 0.72 0.072 0 0 0 0 0 1 0 " />
    </filter>
    <filter
       id="filter1750"
       style="color-interpolation-filters:sRGB;">
      <feColorMatrix
         id="feColorMatrix1748"
         values="0.21 0.72 0.072 0 0 0.21 0.72 0.072 0 0 0.21 0.72 0.072 0 0 0 0 0 1 0 " />
    </filter>
    <filter
       id="filter1754"
       style="color-interpolation-filters:sRGB;">
      <feColorMatrix
         id="feColorMatrix1752"
         values="0.21 0.72 0.072 0 0 0.21 0.72 0.072 0 0 0.21 0.72 0.072 0 0 0 0 0 1 0 " />
    </filter>
    <filter
       id="filter1758"
       style="color-interpolation-filters:sRGB;">
      <feColorMatrix
         id="feColorMatrix1756"
         values="0.21 0.72 0.072 0 0 0.21 0.72 0.072 0 0 0.21 0.72 0.072 0 0 0 0 0 1 0 " />
    </filter>
    <filter
       id="filter1762"
       style="color-interpolation-filters:sRGB;">
      <feColorMatrix
         id="feColorMatrix1760"
         values="0.21 0.72 0.072 0 0 0.21 0.72 0.072 0 0 0.21 0.72 0.072 0 0 0 0 0 1 0 " />
    </filter>
    <filter
       id="filter1766"
       style="color-interpolation-filters:sRGB;">
      <feColorMatrix
         id="feColorMatrix1764"
         values="0.21 0.72 0.072 0 0 0.21 0.72 0.072 0 0 0.21 0.72 0.072 0 0 0 0 0 1 0 " />
    </filter>
  </defs>
  <path
     style="stroke-width:1;filter:url(#filter1766);fill:#ffffff;fill-opacity:1"
     id="path896"
     d="m 51.735964,51.817562 a 5.1948385,5.1948375 0 0 0 0.0063,-7.354277 L 26.150992,18.829438 a 5.2004914,5.2004904 0 1 0 -7.360678,7.348526 l 21.916994,21.95338 3.674058,3.680218 -0.0058,0.0045 a 5.1975385,5.1975375 0 0 1 -0.02809,7.365996 l 0.0067,0.0051 z"
     class="cls-1" />
  <path
     style="stroke-width:1;filter:url(#filter1762);fill:#ffffff;fill-opacity:1"
     id="path898"
     d="m 44.230926,39.101788 a 5.1841585,5.1841575 0 0 1 -1.522419,3.671848 l 0.0058,0.0041 -3.680099,3.674299 -0.0049,0.0051 7.348597,7.360406 3.68526,-3.678928 a 5.2007184,5.2007175 0 0 0 0.006,-7.354617 L 42.699487,35.402 l -0.007,0.0051 a 5.1843785,5.1843775 0 0 1 1.538439,3.694698 z"
     class="cls-2" />
  <path
     style="stroke-width:1;filter:url(#filter1758);fill:#ffffff;fill-opacity:1"
     id="path900"
     d="m 44.365546,37.077679 a 5.1978484,5.1978475 0 0 1 0.01557,7.366326 l 0.0063,0.0043 -3.680548,3.674309 -11.283327,11.264614 a 5.2003485,5.2003475 0 1 0 7.348357,7.360437 L 51.735724,51.808952 a 5.2004585,5.2004575 0 0 0 0.0063,-7.354637 l -7.369998,-7.381776 z"
     class="cls-3" />
  <path
     style="stroke-width:1;filter:url(#filter1754);fill:#ffffff;fill-opacity:1"
     id="path902"
     d="m 66.65019,44.400486 a 5.1946385,5.1946375 0 0 0 -0.0061,7.354636 L 92.235182,77.38885 a 5.2005484,5.2005475 0 1 0 7.36054,-7.348817 l -21.916816,-21.952929 -3.674059,-3.680458 0.0058,-0.0043 a 5.1978084,5.1978075 0 0 1 0.02843,-7.366337 l -0.0071,-0.0051 z"
     class="cls-1" />
  <path
     style="stroke-width:1;filter:url(#filter1750);fill:#ffffff;fill-opacity:1"
     id="path904"
     d="m 74.155367,57.116619 a 5.1835384,5.1835375 0 0 1 1.52254,-3.671848 l -0.006,-0.0041 3.680429,-3.674418 0.0047,-0.005 -7.348598,-7.360767 -3.685329,3.679509 a 5.2000585,5.2000575 0 0 0 -0.006,7.354066 l 7.370067,7.382347 0.0066,-0.0051 a 5.1857385,5.1857375 0 0 1 -1.5384,-3.694709 z"
     class="cls-2" />
  <path
     style="stroke-width:1;filter:url(#filter1746);fill:#ffffff;fill-opacity:1"
     id="path906"
     d="m 74.020747,59.140488 a 5.1974185,5.1974175 0 0 1 -0.01566,-7.366116 l -0.0062,-0.0045 3.680458,-3.674178 11.283187,-11.264625 A 5.2003889,5.2003879 0 0 0 81.614325,29.470403 L 66.650449,44.409396 a 5.1999984,5.1999975 0 0 0 -0.0062,7.354396 l 7.369848,7.381666 z"
     class="cls-3" />
  <path
     style="stroke-width:1;filter:url(#filter1742);fill:#ffffff;fill-opacity:1"
     id="path908"
     d="m 55.522383,40.587847 a 5.1947285,5.1947275 0 0 0 7.354288,0.0061 L 88.510513,15.00285 A 5.2004585,5.2004575 0 1 0 81.162185,7.6420834 l -21.953423,21.9170696 -3.680339,3.674178 -0.0046,-0.0059 a 5.1974085,5.1974075 0 0 1 -7.365998,-0.02844 l -0.0051,0.0068 z"
     class="cls-1" />
  <path
     style="stroke-width:1;filter:url(#filter1738);fill:#ffffff;fill-opacity:1"
     id="path910"
     d="M 68.238189,33.082451 A 5.1821085,5.1821075 0 0 1 64.56679,31.560162 l -0.0045,0.0058 -3.674419,-3.680198 -0.0045,-0.0049 -7.360998,7.348806 3.679388,3.684998 a 5.2003085,5.2003075 0 0 0 7.354408,0.0061 l 7.381778,-7.369816 -0.0051,-0.0069 a 5.1818084,5.1818075 0 0 1 -3.694639,1.538269 z"
     class="cls-2" />
  <path
     style="stroke-width:1;filter:url(#filter1734);fill:#ffffff;fill-opacity:1"
     id="path912"
     d="m 70.262518,33.217311 a 5.1979984,5.1979975 0 0 1 -7.366577,0.01566 l -0.0041,0.0062 -3.674299,-3.680458 -11.264737,-11.283415 a 5.2004784,5.2004775 0 1 0 -7.360648,7.348477 l 14.938776,14.963832 a 5.2005884,5.2005875 0 0 0 7.354868,0.0062 l 7.381668,-7.369846 z"
     class="cls-3" />
  <path
     style="stroke-width:1;filter:url(#filter1730);fill:#ffffff;fill-opacity:1"
     id="path914"
     d="m 62.87969,55.62162 a 5.1936584,5.1936575 0 0 0 -7.354737,-0.0061 L 29.891201,81.206618 a 5.2004285,5.2004275 0 1 0 7.348597,7.360416 l 21.953394,-21.916599 3.680338,-3.674488 0.0042,0.0062 a 5.1979984,5.1979975 0 0 1 7.366467,0.02843 l 0.0051,-0.0071 z"
     class="cls-1" />
  <path
     style="stroke-width:1;filter:url(#filter1726);fill:#ffffff;fill-opacity:1"
     id="path916"
     d="m 50.163674,63.126776 a 5.1819084,5.1819075 0 0 1 3.671519,1.52263 l 0.0044,-0.006 3.674058,3.680308 0.0051,0.0047 7.360908,-7.348837 -3.679479,-3.684978 a 5.2004585,5.2004575 0 0 0 -7.354278,-0.0062 l -7.381998,7.370067 0.0051,0.0068 a 5.1848285,5.1848275 0 0 1 3.694648,-1.53844 z"
     class="cls-2" />
  <path
     style="stroke-width:1;filter:url(#filter1722);fill:#ffffff;fill-opacity:1"
     id="path918"
     d="m 48.139445,62.992276 a 5.1968685,5.1968675 0 0 1 7.365998,-0.01578 l 0.0047,-0.0062 3.674278,3.680608 11.264517,11.282994 a 5.2004285,5.2004275 0 0 0 7.360898,-7.348086 L 62.870511,55.62162 a 5.2005684,5.2005675 0 0 0 -7.354398,-0.0061 l -7.381778,7.370127 z"
     class="cls-3" />
  <polygon
     style="filter:url(#filter1718);fill:#ffffff;fill-opacity:1"
     transform="translate(2.0960875e-4,-2.2931854e-5)"
     id="polygon920"
     points="119.364,21.954 119.364,35.057 132.472,35.057 132.472,30.689 123.739,30.689 123.739,21.954 "
     class="cls-2" />
  <polygon
     style="filter:url(#filter1714);fill:#ffffff;fill-opacity:1"
     transform="translate(2.0960875e-4,-2.2931854e-5)"
     id="polygon922"
     points="119.367,19.766 123.733,19.766 123.733,17.6 136.837,17.6 136.837,30.689 134.656,30.689 134.656,35.057 141.204,35.057 141.204,13.213 119.367,13.213 "
     class="cls-4" />
  <path
     style="stroke-width:1;filter:url(#filter1710);fill:#ffffff;fill-opacity:1"
     id="path924"
     d="m 146.97322,13.467751 h 6.65286 v 16.056112 h 9.55527 v 5.533227 h -16.20813 z"
     class="cls-4" />
  <path
     style="stroke-width:1;filter:url(#filter1706);fill:#ffffff;fill-opacity:1"
     id="path926"
     d="m 166.0233,13.467751 h 16.69171 v 5.532777 h -10.03885 v 2.691279 h 8.61788 v 5.140767 h -8.61788 v 8.224516 h -6.65287 z"
     class="cls-4" />
  <path
     style="stroke-width:1;filter:url(#filter1702);fill:#ffffff;fill-opacity:1"
     id="path928"
     d="M 199.88279,35.17028 H 187.8255 V 13.417621 h 12.05729 V 14.81632 H 189.3648 v 8.227746 h 9.92935 v 1.398699 h -9.92934 v 9.328816 h 10.518 z"
     class="cls-2" />
  <path
     style="stroke-width:1;filter:url(#filter1698);fill:#ffffff;fill-opacity:1"
     id="path930"
     d="m 220.91839,35.17028 h -1.55424 L 206.29599,15.857869 h -0.12072 q 0.18108,3.451889 0.18108,5.207468 V 35.17028 h -1.479 V 13.417621 h 1.53933 l 13.05316,19.28279 h 0.0905 q -0.13581,-2.678219 -0.13594,-5.088427 V 13.417621 h 1.49395 z"
     class="cls-2" />
  <path
     style="stroke-width:1;filter:url(#filter1694);fill:#ffffff;fill-opacity:1"
     id="path932"
     d="M 239.22304,35.17028 H 227.16575 V 13.417621 h 12.05729 v 1.398699 h -10.5179 v 8.227746 h 9.92933 v 1.398699 h -9.92933 v 9.328816 h 10.5179 z"
     class="cls-2" />
  <path
     style="stroke-width:1;filter:url(#filter1690);fill:#ffffff;fill-opacity:1"
     id="path934"
     d="m 245.75695,25.692515 v 9.477765 h -1.53934 V 13.417621 h 5.25149 q 4.10431,0 6.06629,1.495319 a 5.3029985,5.3029974 0 0 1 1.96184,4.500928 5.8269282,5.8269272 0 0 1 -1.16946,3.689718 6.5142381,6.5142368 0 0 1 -3.55378,2.157579 l 5.99071,9.909115 h -1.84113 l -5.68893,-9.477765 z m 0,-1.30928 h 4.21019 a 6.786378,6.7863767 0 0 0 4.33092,-1.227599 4.3559287,4.3559279 0 0 0 1.53907,-3.622668 4.2233988,4.223398 0 0 0 -1.50889,-3.615529 Q 252.81908,14.7866 249.40871,14.78644 h -3.65179 z"
     class="cls-2" />
  <path
     style="stroke-width:1;filter:url(#filter1686);fill:#ffffff;fill-opacity:1"
     id="path936"
     d="m 271.03724,23.953725 h 7.95022 v 9.700306 a 18.063055,18.063051 0 0 1 -7.0358,1.308999 q -5.10372,0 -7.82493,-2.843119 -2.7212,-2.843118 -2.72133,-8.049806 a 11.952437,11.952434 0 0 1 1.34957,-5.751717 9.3848268,9.3848254 0 0 1 3.8647,-3.875788 11.897997,11.897994 0 0 1 5.77445,-1.367159 15.071596,15.071593 0 0 1 6.32787,1.279749 l -0.60484,1.337939 a 13.844396,13.844393 0 0 0 -5.81152,-1.279759 8.950657,8.9506557 0 0 0 -6.76275,2.595999 9.6694168,9.6694153 0 0 0 -2.50024,7.002516 q 0,4.799278 2.37467,7.220637 2.37468,2.421749 6.97681,2.421489 a 13.686916,13.686913 0 0 0 5.05921,-0.82891 v -7.475256 h -6.41609 z"
     class="cls-2" />
  <path
     style="stroke-width:1;filter:url(#filter1682);fill:#ffffff;fill-opacity:1"
     id="path938"
     d="m 289.49301,25.242555 6.4204,-11.832654 h 1.65024 l -7.30553,13.267393 v 8.356586 h -1.57509 v -8.238516 l -7.33552,-13.385463 h 1.75509 z"
     class="cls-2" />
  <path
     style="stroke-width:1;filter:url(#filter1678);fill:#ffffff;fill-opacity:1"
     id="path940"
     d="m 133.94931,67.375794 h -10.6689 v 11.768145 h 11.87212 l -0.52569,3.472678 h -15.2631 V 50.409363 h 15.11208 v 3.515588 h -11.19541 v 9.956715 h 10.6689 z"
     class="cls-2" />
  <path
     style="stroke-width:1;filter:url(#filter1674);fill:#ffffff;fill-opacity:1"
     id="path942"
     d="M 138.9586,82.616617 V 50.409363 h 4.77163 c 8.477,21.440139 9.73225,24.542278 10.13746,25.974097 h 0.0478 c -0.23272,-4.240158 -0.28471,-9.067906 -0.28471,-14.309103 V 50.409363 h 3.66249 v 32.207254 h -4.56449 C 143.93243,60.041748 142.77624,56.995729 142.40158,55.6844 h -0.0479 c 0.23767,4.016518 0.26325,9.189216 0.26325,14.982513 v 11.949704 z"
     class="cls-2" />
  <path
     style="stroke-width:1;filter:url(#filter1670);fill:#ffffff;fill-opacity:1"
     id="path944"
     d="m 178.07327,67.375794 h -10.66891 v 11.768145 h 11.87212 l -0.52568,3.472678 H 163.48769 V 50.409363 h 15.11209 v 3.515588 h -11.19542 v 9.956715 h 10.66891 z"
     class="cls-2" />
  <path
     style="stroke-width:1;filter:url(#filter1666);fill:#ffffff;fill-opacity:1"
     id="path946"
     d="m 187.02151,67.997214 v 14.619403 h -3.93894 V 50.409363 h 8.67999 c 5.49126,0 8.416,3.062528 8.416,8.407706 0,4.783997 -2.38582,6.828996 -4.28391,7.493316 2.89087,1.082739 3.8655,3.619578 3.8655,8.179116 V 75.7703 a 35.614059,35.614053 0 0 0 0.45307,6.846317 h -3.90346 A 29.850451,29.850446 0 0 1 195.8179,75.69685 v -1.108319 c 0,-4.533998 -0.94492,-6.591317 -5.1595,-6.591317 z m 0,-3.321658 h 3.84817 c 3.835,0 5.29319,-2.079639 5.29319,-5.728928 0,-3.149168 -1.46234,-5.215607 -4.90945,-5.215607 h -4.23191 z"
     class="cls-2" />
  <path
     style="stroke-width:1;filter:url(#filter1662);fill:#ffffff;fill-opacity:1"
     id="path948"
     d="m 222.90446,82.616617 h -3.08892 a 27.254992,27.254987 0 0 1 -0.23273,-3.338998 c -1.12978,2.299168 -2.85538,3.830838 -6.43618,3.830838 -6.92799,0 -8.86984,-6.962677 -8.86984,-16.526572 0,-11.215225 3.51145,-16.642932 10.12506,-16.642932 7.9109,0 8.41184,6.970936 8.50674,8.895436 h -3.94225 c -0.0949,-1.17351 -0.354,-5.465668 -4.67672,-5.465668 -4.39201,0 -5.889,5.279998 -5.889,13.161174 0,7.950516 1.1438,13.171083 5.51354,13.171083 4.09822,0 5.07779,-3.386848 5.07779,-9.754525 v -1.617509 h -5.35344 v -3.450368 h 9.266 z"
     class="cls-2" />
  <path
     style="stroke-width:1;filter:url(#filter1658);fill:#ffffff;fill-opacity:1"
     id="path950"
     d="M 233.01714,82.616617 V 70.507643 a 2.0436694,2.043669 0 0 0 -0.18568,-0.85827 l -8.17,-19.23999 h 4.43823 c 2.12256,5.374887 5.04726,12.683353 6.02272,15.715342 1.13472,-3.273788 4.11142,-10.602885 6.09534,-15.715342 h 4.189 l -8.26577,19.25734 a 2.0068594,2.006859 0 0 0 -0.16422,0.87972 v 12.070194 z"
     class="cls-2" />
  <path
     style="stroke-width:1;filter:url(#filter1654);fill:#ffffff;fill-opacity:1"
     id="path952"
     d="m 276.53949,69.221943 c 0,-5.905527 0.0949,-11.983544 0.18981,-15.426502 h -0.0908 c -1.16939,5.672807 -3.87871,18.588881 -6.36355,28.821226 h -3.73511 c -1.85931,-9.015916 -4.69406,-22.885169 -5.84612,-28.889726 h -0.13782 c 0.18981,3.748308 0.33176,10.780315 0.33176,16.306232 v 12.583494 h -3.70045 V 50.409363 h 5.90471 c 2.42955,9.883265 4.75017,21.535869 5.4962,25.836277 h 0.0479 c 0.61234,-3.649278 3.53292,-16.332632 5.93606,-25.836277 h 5.82384 v 32.207254 h -3.85643 z"
     class="cls-2" />
  <path
     style="stroke-width:1;filter:url(#filter1650);fill:#ffffff;fill-opacity:1"
     id="path954"
     d="m 290.07038,72.797722 -2.20013,9.818895 h -3.96039 l 7.71778,-32.207254 h 5.13722 l 7.92081,32.207254 h -4.19313 l -2.22571,-9.818895 z m 7.41576,-3.493309 c -1.743,-7.579996 -2.90326,-12.514993 -3.34807,-15.176452 h -0.11636 c -0.43161,2.833928 -1.69095,8.446496 -3.197,15.176452 z"
     class="cls-2" />
  <path
     style="stroke-width:1;filter:url(#filter1646);fill:#ffffff;fill-opacity:1"
     id="path956"
     d="m 311.99001,67.997214 v 14.619403 h -3.93895 V 50.409363 h 8.68 c 5.49125,0 8.41599,3.062528 8.41599,8.407706 0,4.783997 -2.38581,6.828996 -4.2839,7.493316 2.89087,1.082739 3.86549,3.619578 3.86549,8.179116 V 75.7703 a 35.614059,35.614053 0 0 0 0.45307,6.846317 h -3.90345 A 29.850531,29.850526 0 0 1 320.7864,75.69685 v -1.108319 c 0,-4.533998 -0.94492,-6.591317 -5.1595,-6.591317 z m 0,-3.321658 h 3.84816 c 3.835,0 5.2932,-2.079639 5.2932,-5.728928 0,-3.149168 -1.46236,-5.215607 -4.90945,-5.215607 h -4.23191 z"
     class="cls-2" />
  <path
     style="stroke-width:1;filter:url(#filter1642);fill:#ffffff;fill-opacity:1"
     id="path958"
     d="m 330.16049,50.409363 h 3.91667 v 15.625392 c 2.20508,-3.210248 7.23914,-10.996535 10.41059,-15.625392 h 4.54635 l -9.05059,12.950733 9.29651,19.256521 h -4.46877 l -7.51972,-15.952992 -3.21437,4.348278 v 11.604714 h -3.91667 z"
     class="cls-2" />
  <path
     style="stroke-width:1;filter:url(#filter1638);fill:#ffffff;fill-opacity:1"
     id="path960"
     d="m 366.4751,67.375794 h -10.669 v 11.768145 h 11.87213 l -0.52568,3.472678 H 351.88948 V 50.409363 h 15.11208 v 3.515588 H 355.8061 v 9.956715 h 10.669 z"
     class="cls-2" />
  <path
     style="stroke-width:1;filter:url(#filter1634);fill:#ffffff;fill-opacity:1"
     id="path962"
     d="m 376.76352,53.924951 h -7.122 v -3.515588 h 18.20431 v 3.515588 h -7.12199 v 28.691666 h -3.9604 z"
     class="cls-2" />
  <path
     style="stroke-width:1;filter:url(#filter1630);fill:#ffffff;fill-opacity:1"
     id="path964"
     d="m 419.39209,69.221943 c 0,-5.905527 0.0949,-11.983544 0.18981,-15.426502 h -0.0908 c -1.16938,5.672807 -3.87871,18.588881 -6.36355,28.821226 h -3.73511 c -1.8593,-9.015916 -4.69405,-22.885169 -5.84611,-28.889726 h -0.13782 c 0.18981,3.748308 0.33176,10.780315 0.33176,16.306232 v 12.583494 h -3.70045 V 50.409363 h 5.9047 c 2.42873,9.883265 4.75018,21.535869 5.4962,25.836277 h 0.0479 c 0.61233,-3.649278 3.53292,-16.332632 5.93605,-25.836277 h 5.82384 v 32.207254 h -3.85642 z"
     class="cls-1" />
  <path
     style="stroke-width:1;filter:url(#filter1626);fill:#ffffff;fill-opacity:1"
     id="path966"
     d="m 444.04497,67.375794 h -10.66889 v 11.768145 h 11.87213 l -0.52569,3.472678 H 429.4594 V 50.409363 h 15.11208 v 3.515588 h -11.1954 v 9.956715 h 10.66889 z"
     class="cls-1" />
  <path
     style="stroke-width:1;filter:url(#filter1622);fill:#ffffff;fill-opacity:1"
     id="path968"
     d="m 454.33345,53.924951 h -7.12201 v -3.515588 h 18.20432 v 3.515588 h -7.12269 v 28.691666 h -3.95958 z"
     class="cls-1" />
  <path
     style="stroke-width:1;filter:url(#filter1618);fill:#ffffff;fill-opacity:1"
     id="path970"
     d="m 468.79027,50.409363 h 3.96041 v 13.437643 h 9.93938 V 50.409363 h 3.96042 v 32.207254 h -3.96042 V 67.341134 h -9.93937 v 15.275483 h -3.96042 z"
     class="cls-1" />
  <path
     style="stroke-width:1;filter:url(#filter1614);fill:#ffffff;fill-opacity:1"
     id="path972"
     d="m 511.03182,66.236945 c 0,11.133525 -2.72583,16.871522 -9.78341,16.871522 -6.69117,0 -9.55564,-5.560568 -9.55564,-16.836862 0,-11.099695 3.35632,-16.332642 9.73637,-16.332642 6.73409,-1e-5 9.60268,5.331987 9.60268,16.297982 z m -15.26228,-0.03879 c 0,8.891306 1.72148,13.502833 5.59523,13.502833 4.0124,0 5.59111,-4.438997 5.59111,-13.450843 0,-9.016746 -1.70415,-12.881414 -5.61669,-12.881414 -3.83992,0 -5.56965,4.361478 -5.56965,12.829424 z"
     class="cls-1" />
  <path
     style="stroke-width:1;filter:url(#filter1610);fill:#ffffff;fill-opacity:1"
     id="path974"
     d="m 516.04524,50.409363 h 7.3943 c 7.59235,0 10.90163,5.211487 10.90163,15.292812 0,10.922265 -3.03281,16.914442 -11.40668,16.914442 h -6.88925 z m 3.98186,28.864146 h 2.78277 c 5.62577,0 7.43308,-4.430798 7.43308,-13.468174 0,-8.334256 -2.04085,-12.009994 -7.386,-12.009994 h -2.8298 z"
     class="cls-1" />
  <path
     style="stroke-width:1;filter:url(#filter1606);fill:#ffffff;fill-opacity:1"
     id="path976"
     d="m 541.3641,74.049641 c 0.25831,3.187999 1.75119,5.775997 5.17188,5.775997 3.27461,0 4.84921,-1.832889 4.84921,-5.293187 0,-3.244079 -1.35839,-5.000228 -5.68108,-7.079047 -5.13391,-2.450178 -7.34642,-4.697347 -7.34642,-9.387275 0,-4.563668 2.92471,-8.100716 8.2864,-8.100716 6.41471,0 8.11474,4.542208 8.20964,8.398626 h -3.89521 c -0.16422,-1.613369 -0.63874,-5.142168 -4.43492,-5.142168 -2.942,0 -4.2022,2.002069 -4.2022,4.504248 0,2.937089 1.31132,4.321868 5.29731,6.211697 5.66043,2.682909 7.82178,5.349307 7.82178,10.257935 0,5.081918 -2.92059,8.887176 -9.01592,8.887176 -6.63506,0 -8.7832,-4.322688 -9.025,-9.033246 z"
     class="cls-1" />
  <path
     style="stroke-width:1;filter:url(#filter1602);fill:#ffffff;fill-opacity:1"
     id="path978"
     d="m 586.18787,73.613941 c -0.14277,1.824639 -0.91934,9.494566 -8.93834,9.494566 -8.68335,0 -9.40875,-8.868996 -9.40875,-16.789822 0,-9.567995 2.58388,-16.379682 9.79248,-16.379682 7.90762,0 8.38625,7.282056 8.477,9.365835 h -3.96864 c -0.0693,-1.091819 -0.24593,-5.884077 -4.57687,-5.884077 -4.80217,0 -5.60019,6.457627 -5.60019,12.936704 0,6.660647 0.72457,13.312993 5.37984,13.312993 4.13289,0 4.71139,-4.503427 4.85333,-6.056557 z"
     class="cls-1" />
  <path
     style="stroke-width:1;filter:url(#filter1598);fill:#ffffff;fill-opacity:1"
     id="path980"
     d="m 609.00455,66.236945 c 0,11.133525 -2.72582,16.871522 -9.78341,16.871522 -6.69118,0 -9.55564,-5.560568 -9.55564,-16.836862 0,-11.099695 3.35631,-16.332642 9.73637,-16.332642 6.73409,-1e-5 9.60268,5.331987 9.60268,16.297982 z m -15.26229,-0.03879 c 0,8.891306 1.72149,13.502833 5.59524,13.502833 4.01239,0 5.59111,-4.438997 5.59111,-13.450843 0,-9.016746 -1.70416,-12.881414 -5.6167,-12.881414 -3.83988,0 -5.56965,4.361478 -5.56965,12.829424 z"
     class="cls-1" />
  <path
     style="stroke-width:1;filter:url(#filter1594);fill:#ffffff;fill-opacity:1"
     id="path982"
     d="M 614.01802,82.616617 V 50.409363 h 4.77164 c 8.477,21.440139 9.73224,24.542278 10.13744,25.974097 h 0.0479 c -0.23272,-4.240158 -0.28471,-9.067906 -0.28471,-14.309103 V 50.409363 h 3.66248 v 32.207254 h -4.56449 C 618.99184,60.041748 617.83565,56.995729 617.461,55.6844 h -0.0479 c 0.23768,4.016518 0.26326,9.189216 0.26326,14.982513 v 11.949704 z"
     class="cls-1" />
  <path
     style="stroke-width:1;filter:url(#filter1590);fill:#ffffff;fill-opacity:1"
     id="path984"
     d="m 640.47568,74.049641 c 0.25831,3.187999 1.75119,5.775997 5.17188,5.775997 3.27461,0 4.8492,-1.832889 4.8492,-5.293187 0,-3.244079 -1.35838,-5.000228 -5.68107,-7.079047 -5.13391,-2.450178 -7.34642,-4.697347 -7.34642,-9.387275 0,-4.563668 2.92471,-8.100716 8.2864,-8.100716 6.4147,0 8.11474,4.542208 8.20964,8.398626 h -3.89521 c -0.16422,-1.613369 -0.63874,-5.142168 -4.43492,-5.142168 -2.942,0 -4.2022,2.002069 -4.2022,4.504248 0,2.937089 1.31133,4.321868 5.29732,6.211697 5.66042,2.682909 7.82177,5.349307 7.82177,10.257935 0,5.081918 -2.92058,8.887176 -9.01592,8.887176 -6.63506,0 -8.7832,-4.322688 -9.025,-9.033246 z"
     class="cls-1" />
  <path
     style="stroke-width:1;filter:url(#filter1586);fill:#ffffff;fill-opacity:1"
     id="path986"
     d="m 677.278,66.236945 c 0,11.133525 -2.72581,16.871522 -9.7834,16.871522 -6.69118,0 -9.55565,-5.560568 -9.55565,-16.836862 0,-11.099695 3.35633,-16.332642 9.73638,-16.332642 6.73405,-1e-5 9.60267,5.331987 9.60267,16.297982 z m -15.26227,-0.03879 c 0,8.891306 1.72147,13.502833 5.59523,13.502833 4.01239,0 5.59111,-4.438997 5.59111,-13.450843 0,-9.016746 -1.70416,-12.881414 -5.6167,-12.881414 -3.83995,0 -5.56969,4.361478 -5.56969,12.829424 z"
     class="cls-1" />
  <path
     style="stroke-width:1;filter:url(#filter1582);fill:#ffffff;fill-opacity:1"
     id="path988"
     d="m 686.22952,67.997214 v 14.619403 h -3.93895 V 50.409363 h 8.67999 c 5.49126,0 8.416,3.062528 8.416,8.407706 0,4.783997 -2.38582,6.828996 -4.28391,7.493316 2.89088,1.082739 3.8655,3.619578 3.8655,8.179116 V 75.7703 a 35.614059,35.614053 0 0 0 0.45307,6.846317 h -3.90345 A 29.850451,29.850446 0 0 1 695.0259,75.69685 v -1.108319 c 0,-4.533998 -0.94491,-6.591317 -5.15949,-6.591317 z m 0,-3.321658 h 3.84816 c 3.835,0 5.29319,-2.079639 5.29319,-5.728928 0,-3.149168 -1.46235,-5.215607 -4.90944,-5.215607 h -4.23191 z"
     class="cls-1" />
  <path
     style="stroke-width:1;filter:url(#filter1578);fill:#ffffff;fill-opacity:1"
     id="path990"
     d="m 708.87289,53.924951 h -7.122 v -3.515588 h 18.20432 v 3.515588 h -7.122 v 28.691666 h -3.9604 z"
     class="cls-1" />
  <path
     style="stroke-width:1;filter:url(#filter1574);fill:#ffffff;fill-opacity:1"
     id="path992"
     d="m 727.29012,50.409363 v 32.207254 h -3.9604 V 50.409363 Z"
     class="cls-1" />
  <path
     style="stroke-width:1;filter:url(#filter1570);fill:#ffffff;fill-opacity:1"
     id="path994"
     d="m 737.3731,50.409363 v 22.513799 c 0,3.377778 0.95812,6.803406 5.0778,6.803406 4.1073,0 5.08192,-2.872708 5.08192,-6.807526 V 50.409363 h 3.95957 v 22.578989 c 0,5.845287 -2.14813,10.145695 -9.1364,10.145695 -6.7638,0 -8.96888,-4.042108 -8.96888,-9.986425 V 50.409363 Z"
     class="cls-1" />
  <path
     style="stroke-width:1;filter:url(#filter1566);fill:#ffffff;fill-opacity:1"
     id="path996"
     d="m 776.83766,69.221943 c 0,-5.905527 0.0949,-11.983544 0.18981,-15.426502 h -0.0908 c -1.16939,5.672807 -3.8787,18.588881 -6.36355,28.821226 h -3.73516 c -1.8593,-9.015916 -4.69406,-22.885169 -5.84611,-28.889726 h -0.13782 c 0.18981,3.748308 0.33176,10.780315 0.33176,16.306232 v 12.583494 h -3.70046 V 50.409363 h 5.90471 c 2.42955,9.883265 4.75017,21.535869 5.49621,25.836277 h 0.0479 c 0.61234,-3.649278 3.53292,-16.332632 5.93607,-25.836277 h 5.82385 v 32.207254 h -3.85644 z"
     class="cls-1" />
</svg>
