<?xml version="1.0" encoding="UTF-8"?>
<svg id="Layer_1" data-name="Layer 1" xmlns="http://www.w3.org/2000/svg" viewBox="0 0 210.72 126.55">
  <defs>
    <style>
      .cls-1 {
        fill: #fff;
      }
    </style>
  </defs>
  <path class="cls-1" d="M51.75,117.36c-1.46-6.2-2.02-13.75-.63-24.23l-31.86-8.88L0,92.23v24.02s18.89,10.17,18.89,10.17l32.86-9.06Z"/>
  <path class="cls-1" d="M52.86,89.14c1.85-6.1,5.15-12.91,11.61-21.28l-23.11-23.67-20.67-2.74-12.04,20.78,11.23,18.27,32.97,8.65Z"/>
  <path class="cls-1" d="M68.03,65.11c4.63-4.37,10.88-8.65,20.64-12.71l-8.31-32.02-16.58-12.64-20.77,12.06.68,21.43,24.33,23.87Z"/>
  <path class="cls-1" d="M92.9,51.75c6.2-1.46,13.75-2.02,24.23-.63l8.88-31.86L118.02,0h-24.02s-10.17,18.89-10.17,18.89l9.06,32.86Z"/>
  <path class="cls-1" d="M158.48,116.84c1.58-6.17,2.29-13.71,1.11-24.22l32.03-8.25,19.09,8.37-.48,24.01-19.08,9.79-32.68-9.71Z"/>
  <path class="cls-1" d="M157.14,88.63c-1.68-6.14-4.8-13.05-11.03-21.59l23.74-23.03,20.73-2.18,11.47,21.1-11.72,17.95-33.2,7.74Z"/>
  <path class="cls-1" d="M142.57,64.91c-4.66-4.34-10.94-8.57-20.73-12.56l8.08-32.07,16.49-12.76,20.86,11.92-.53,21.44-24.16,24.04Z"/>
  <path class="cls-1" d="M111.83,106.15c-.85-1.74-2.56-2.95-4.13-3.75-1.42-.72-2.95-1.19-4.52-1.46l-41.64-7.06,34.85,22.08c1.63,1.03,3.41,1.83,5.28,2.31,1.93.49,4.22.74,6.04-.08,5.93-2.69,6.31-7.57,4.12-12.04ZM106.13,113.75c-1.87.92-4.13.14-5.05-1.73-.92-1.87-.14-4.13,1.73-5.05,1.87-.92,4.13-.14,5.05,1.73s.14,4.13-1.73,5.05Z"/>
</svg>