<?xml version="1.0" encoding="UTF-8" standalone="no"?>
<svg
   id="Layer_1"
   data-name="Layer 1"
   viewBox="0 0 92.329994 94.010002"
   version="1.1"
   sodipodi:docname="openleadr-icon-black.svg"
   width="92.329994"
   height="94.010002"
   inkscape:export-filename="/Users/johnmertic/Code/lfenergy-artwork/projects/openleadr/icon/black/openleadr-icon-black.png"
   inkscape:export-xdpi="377.10001"
   inkscape:export-ydpi="377.10001"
   inkscape:version="1.1.2 (b8e25be8, 2022-02-05)"
   xmlns:inkscape="http://www.inkscape.org/namespaces/inkscape"
   xmlns:sodipodi="http://sodipodi.sourceforge.net/DTD/sodipodi-0.dtd"
   xmlns="http://www.w3.org/2000/svg"
   xmlns:svg="http://www.w3.org/2000/svg">
  <sodipodi:namedview
     id="namedview76"
     pagecolor="#ffffff"
     bordercolor="#666666"
     borderopacity="1.0"
     inkscape:pageshadow="2"
     inkscape:pageopacity="0.0"
     inkscape:pagecheckerboard="0"
     showgrid="false"
     inkscape:zoom="14.96805"
     inkscape:cx="33.771933"
     inkscape:cy="61.865105"
     inkscape:window-width="1533"
     inkscape:window-height="676"
     inkscape:window-x="58"
     inkscape:window-y="25"
     inkscape:window-maximized="0"
     inkscape:current-layer="Layer_1" />
  <defs
     id="defs11">
    <style
       id="style9">.cls-1{fill:#666;}.cls-2{fill:none;}</style>
  </defs>
  <path
     class="cls-2"
     d="m 81.639995,86.77 a 3.45,3.45 0 1 0 -3.45,-3.45 3.45,3.45 0 0 0 3.45,3.45 z"
     id="path51" />
  <circle
     class="cls-2"
     cx="37.148312"
     cy="54.374302"
     r="12.83"
     transform="rotate(-9.22)"
     id="circle53" />
  <circle
     class="cls-2"
     cx="6.0655718"
     cy="26.82522"
     r="4.8600001"
     transform="rotate(-7.02)"
     id="circle55" />
  <path
     class="cls-1"
     d="m 81.639995,72.63 a 10.52,10.52 0 0 0 -5.27,1.4 l -16.69,-16.64 c -0.26,0.39 -0.55,0.77 -0.84,1.14 -0.29,0.37 -0.61,0.73 -0.93,1.07 l 18.13,18.13 1,-0.72 a 7.87,7.87 0 0 1 12.51,6.36 7.88,7.88 0 1 1 -15.75,0 7.76,7.76 0 0 1 0.81,-3.47 l 0.45,-0.91 -18.31,-18.33 c -0.35,0.31 -0.72,0.62 -1.1,0.9 -0.38,0.28 -0.78,0.55 -1.18,0.8 l 17.17,17.18 a 10.55,10.55 0 0 0 -0.69,3.78 10.69,10.69 0 1 0 10.69,-10.69 z"
     id="path57" />
  <path
     class="cls-1"
     d="m 81.639995,89.59 a 6.27,6.27 0 1 0 -6.27,-6.27 6.27,6.27 0 0 0 6.27,6.27 z m 0,-9.72 a 3.45,3.45 0 1 1 -3.45,3.45 3.46,3.46 0 0 1 3.45,-3.45 z"
     id="path59" />
  <path
     class="cls-1"
     d="m 34.629995,61.2 a 13.44,13.44 0 0 1 -1.07,-0.93 l -8.15,8 0.72,1 a 12,12 0 0 1 2.35,7.12 12.09,12.09 0 1 1 -5.19,-9.92 l 1,0.67 8.19,-8 c -0.31,-0.35 -0.61,-0.72 -0.89,-1.09 -0.28,-0.37 -0.55,-0.78 -0.81,-1.19 l -6.82,6.66 a 14.9,14.9 0 1 0 5.18,5.07 l 6.68,-6.52 c -0.44,-0.29 -0.82,-0.57 -1.19,-0.87 z"
     id="path61" />
  <path
     class="cls-1"
     d="M 5.9199946,76.39 A 10.48,10.48 0 1 0 16.399995,65.91 10.49,10.49 0 0 0 5.9199946,76.39 Z m 2.82,0 a 7.66,7.66 0 1 1 7.6600004,7.66 7.66,7.66 0 0 1 -7.6600004,-7.66 z"
     id="path63" />
  <path
     class="cls-1"
     d="m 9.2899946,35.16 a 9.24,9.24 0 0 0 6.6300004,-2.77 l 13.78,8.15 a 16.67,16.67 0 0 1 2.35,-3.75 l -13.87,-8.21 a 9.15,9.15 0 0 0 0.4,-2.68 9.29,9.29 0 1 0 -9.2900004,9.28 z m 0,-14.14 a 4.86,4.86 0 1 1 -4.86,4.86 4.87,4.87 0 0 1 4.86,-4.86 z"
     id="path65" />
  <path
     class="cls-1"
     d="m 58.859995,23.31 a 12,12 0 1 1 3.2,2.35 l -1.12,-0.57 -5.59,8.56 c 0.39,0.27 0.76,0.56 1.12,0.86 0.36,0.3 0.72,0.63 1.06,1 l 4.42,-6.78 a 14.74,14.74 0 0 0 5.55,1.07 14.9,14.9 0 1 0 -11.42,-5.33 l -4.65,7.12 c 0.45,0.17 0.89,0.36 1.32,0.56 0.43,0.2 0.84,0.43 1.25,0.66 l 5.65,-8.66 z"
     id="path67" />
  <path
     d="m 16.399995,68.7 a 7.66,7.66 0 1 0 7.66,7.69 7.66,7.66 0 0 0 -7.66,-7.69 z"
     id="path69" />
  <path
     d="m 56.459995,34.51 c -0.36,-0.3 -0.73,-0.59 -1.12,-0.86 a 15.56,15.56 0 0 0 -1.35,-0.87 c -0.41,-0.23 -0.82,-0.46 -1.25,-0.66 -0.43,-0.2 -0.87,-0.39 -1.32,-0.56 a 17.21,17.21 0 0 0 -19.37,5.21 16.67,16.67 0 0 0 -2.35,3.75 17.19,17.19 0 0 0 1,16.32 c 0.26,0.41 0.52,0.8 0.81,1.19 0.29,0.39 0.58,0.74 0.89,1.09 0.31,0.35 0.73,0.79 1.12,1.15 a 13.44,13.44 0 0 0 1.07,0.93 c 0.37,0.3 0.75,0.58 1.15,0.85 a 17.19,17.19 0 0 0 18.69,0.31 c 0.4,-0.25 0.8,-0.52 1.18,-0.8 0.38,-0.28 0.75,-0.59 1.1,-0.9 0.35,-0.31 0.79,-0.72 1.16,-1.11 0.37,-0.39 0.63,-0.7 0.93,-1.07 0.3,-0.37 0.58,-0.75 0.84,-1.14 a 17.23,17.23 0 0 0 -2.16,-21.86 c -0.3,-0.34 -0.62,-0.66 -1.02,-0.97 z m 1.74,13.21 a 12.83,12.83 0 1 1 -12.83,-12.83 12.84,12.84 0 0 1 12.83,12.83 z"
     id="path71" />
  <path
     d="m 67.489995,4.39 a 10.48,10.48 0 1 0 10.48,10.48 10.49,10.49 0 0 0 -10.48,-10.48 z m 0,18.14 a 7.66,7.66 0 1 1 7.66,-7.66 7.67,7.67 0 0 1 -7.66,7.66 z"
     id="path73" />
</svg>
