<?xml version="1.0" encoding="UTF-8" standalone="no"?>
<!-- Generator: Adobe Illustrator 24.0.2, SVG Export Plug-In . SVG Version: 6.00 Build 0)  -->

<svg
   version="1.1"
   id="Layer_1"
   x="0px"
   y="0px"
   viewBox="0 0 45.315334 45.315331"
   xml:space="preserve"
   sodipodi:docname="grid-exchange-fabric-icon-color.svg"
   width="45.315334"
   height="45.315331"
   inkscape:export-filename="/Users/johnmertic/Code/lfenergy-artwork/projects/grid-exchange-fabric/icon/color/grid-exchange-fabric-icon-color.png"
   inkscape:export-xdpi="377.10001"
   inkscape:export-ydpi="377.10001"
   inkscape:version="1.1.2 (b8e25be8, 2022-02-05)"
   xmlns:inkscape="http://www.inkscape.org/namespaces/inkscape"
   xmlns:sodipodi="http://sodipodi.sourceforge.net/DTD/sodipodi-0.dtd"
   xmlns="http://www.w3.org/2000/svg"
   xmlns:svg="http://www.w3.org/2000/svg"><defs
   id="defs1201">
	
	
	
</defs><sodipodi:namedview
   id="namedview1199"
   pagecolor="#ffffff"
   bordercolor="#666666"
   borderopacity="1.0"
   inkscape:pageshadow="2"
   inkscape:pageopacity="0.0"
   inkscape:pagecheckerboard="0"
   showgrid="false"
   inkscape:zoom="1.9966906"
   inkscape:cx="184.8058"
   inkscape:cy="26.794337"
   inkscape:window-width="1382"
   inkscape:window-height="735"
   inkscape:window-x="58"
   inkscape:window-y="25"
   inkscape:window-maximized="0"
   inkscape:current-layer="Layer_1" />
<style
   type="text/css"
   id="style646">
	.st0{fill:#FFFFFF;}
	.st1{fill:#008421;}
	.st2{fill:#99DB25;}
	.st3{fill:#009ADE;}
	.st4{fill:#003764;}
	.st5{fill:#99DB26;}
</style>
<g
   id="g1194"
   transform="translate(-1.4136494,-2.2719753)">
		<g
   id="g794">
			<g
   id="g712">
				
					<rect
   x="1.4"
   y="36"
   transform="matrix(0.00125015,-1,1,0.00125015,-34.5578,40.5706)"
   class="st3"
   width="3.2"
   height="3.2"
   id="rect710" />
			</g>
			<g
   id="g716">
				
					<rect
   x="1.4"
   y="40.200001"
   transform="matrix(0.00125015,-1,1,0.00125015,-38.7737,44.7708)"
   class="st3"
   width="3.2"
   height="3.2"
   id="rect714" />
			</g>
			<g
   id="g720">
				
					<rect
   x="14.1"
   y="40.200001"
   transform="matrix(0.00125015,-1,1,0.00125015,-26.1732,57.4187)"
   class="st3"
   width="3.2"
   height="3.2"
   id="rect718" />
			</g>
			<g
   id="g724">
				
					<rect
   x="9.8000002"
   y="40.200001"
   transform="matrix(0.00125015,-1,1,0.00125015,-30.3733,53.2027)"
   class="st3"
   width="3.2"
   height="3.2"
   id="rect722" />
			</g>
			<g
   id="g728">
				
					<rect
   x="5.5999999"
   y="40.200001"
   transform="matrix(0.00125015,-1,1,0.00125015,-34.5735,48.9868)"
   class="st3"
   width="3.2"
   height="3.2"
   id="rect726" />
			</g>
			<g
   id="g732">
				
					<rect
   x="1.4"
   y="40.200001"
   transform="matrix(0.00125015,-1,1,0.00125015,-38.7737,44.7708)"
   class="st3"
   width="3.2"
   height="3.2"
   id="rect730" />
			</g>
			<g
   id="g736">
				
					<rect
   x="1.4"
   y="44.299999"
   transform="matrix(0.00125015,-1,1,0.00125015,-42.8881,48.8698)"
   class="st3"
   width="3.2"
   height="3.2"
   id="rect734" />
			</g>
			<g
   id="g740">
				
					<rect
   x="9.8000002"
   y="44.299999"
   transform="matrix(0.00125015,-1,1,0.00125015,-34.4877,57.3017)"
   class="st3"
   width="3.2"
   height="3.2"
   id="rect738" />
			</g>
			<g
   id="g744">
				
					<rect
   x="5.5999999"
   y="44.299999"
   transform="matrix(0.00125015,-1,1,0.00125015,-38.6879,53.0857)"
   class="st3"
   width="3.2"
   height="3.2"
   id="rect742" />
			</g>
			<g
   id="g748">
				
					<rect
   x="1.4"
   y="44.299999"
   transform="matrix(0.00125015,-1,1,0.00125015,-42.8881,48.8698)"
   class="st3"
   width="3.2"
   height="3.2"
   id="rect746" />
			</g>
			<g
   id="g752">
				
					<rect
   x="18.299999"
   y="36"
   transform="matrix(0.00125015,-1,1,0.00125015,-17.757,57.4345)"
   class="st3"
   width="3.2"
   height="3.2"
   id="rect750" />
			</g>
			<g
   id="g756">
				
					<rect
   x="14.1"
   y="36"
   transform="matrix(0.00125015,-1,1,0.00125015,-21.9572,53.2185)"
   class="st3"
   width="3.2"
   height="3.2"
   id="rect754" />
			</g>
			<g
   id="g760">
				
					<rect
   x="9.8999996"
   y="36"
   transform="matrix(0.00125015,-1,1,0.00125015,-26.1574,49.0025)"
   class="st3"
   width="3.2"
   height="3.2"
   id="rect758" />
			</g>
			<g
   id="g764">
				
					<rect
   x="5.5999999"
   y="36"
   transform="matrix(0.00125015,-1,1,0.00125015,-30.3576,44.7866)"
   class="st3"
   width="3.2"
   height="3.2"
   id="rect762" />
			</g>
			<g
   id="g768">
				
					<rect
   x="1.4"
   y="36"
   transform="matrix(0.00125015,-1,1,0.00125015,-34.5578,40.5706)"
   class="st3"
   width="3.2"
   height="3.2"
   id="rect766" />
			</g>
			<g
   id="g772">
				
					<rect
   x="18.299999"
   y="31.799999"
   transform="matrix(0.00125015,-1,1,0.00125015,-13.541,53.2343)"
   class="st3"
   width="3.2"
   height="3.2"
   id="rect770" />
			</g>
			<g
   id="g776">
				
					<rect
   x="14.1"
   y="31.799999"
   transform="matrix(0.00125015,-1,1,0.00125015,-17.7412,49.0183)"
   class="st3"
   width="3.2"
   height="3.2"
   id="rect774" />
			</g>
			<g
   id="g780">
				
					<rect
   x="9.8999996"
   y="31.799999"
   transform="matrix(0.00125015,-1,1,0.00125015,-21.9414,44.8023)"
   class="st3"
   width="3.2"
   height="3.2"
   id="rect778" />
			</g>
			<g
   id="g784">
				
					<rect
   x="5.5999999"
   y="31.799999"
   transform="matrix(0.00125015,-1,1,0.00125015,-26.1416,40.5864)"
   class="st3"
   width="3.2"
   height="3.2"
   id="rect782" />
			</g>
			<g
   id="g788">
				
					<rect
   x="14.1"
   y="27.6"
   transform="matrix(0.00125015,-1,1,0.00125015,-13.5253,44.8181)"
   class="st3"
   width="3.2"
   height="3.2"
   id="rect786" />
			</g>
			<g
   id="g792">
				
					<rect
   x="9.8999996"
   y="27.6"
   transform="matrix(0.00125015,-1,1,0.00125015,-17.7254,40.6022)"
   class="st3"
   width="3.2"
   height="3.2"
   id="rect790" />
			</g>
		</g>
		<g
   id="g896">
			<g
   id="g798">
				
					<rect
   x="39.299999"
   y="31.799999"
   transform="matrix(0.00125015,-1,1,0.00125015,7.4599,74.3141)"
   class="st5"
   width="3.2"
   height="3.2"
   id="rect796" />
			</g>
			<g
   id="g802">
				
					<rect
   x="39.299999"
   y="36"
   transform="matrix(0.00125015,-1,1,0.00125015,3.2439,78.5143)"
   class="st5"
   width="3.2"
   height="3.2"
   id="rect800" />
			</g>
			<g
   id="g806">
				
					<rect
   x="39.299999"
   y="40.200001"
   transform="matrix(0.00125015,-1,1,0.00125015,-0.972,82.7145)"
   class="st5"
   width="3.2"
   height="3.2"
   id="rect804" />
			</g>
			<g
   id="g810">
				
					<rect
   x="39.299999"
   y="40.200001"
   transform="matrix(0.00125015,-1,1,0.00125015,-0.972,82.7145)"
   class="st5"
   width="3.2"
   height="3.2"
   id="rect808" />
			</g>
			<g
   id="g814">
				
					<rect
   x="35.099998"
   y="40.200001"
   transform="matrix(0.00125015,-1,1,0.00125015,-5.1722,78.4985)"
   class="st5"
   width="3.2"
   height="3.2"
   id="rect812" />
			</g>
			<g
   id="g818">
				
					<rect
   x="30.9"
   y="40.200001"
   transform="matrix(0.00125015,-1,1,0.00125015,-9.3724,74.2826)"
   class="st5"
   width="3.2"
   height="3.2"
   id="rect816" />
			</g>
			<g
   id="g822">
				
					<rect
   x="39.299999"
   y="44.400002"
   transform="matrix(0.00125015,-1,1,0.00125015,-5.0864,86.8135)"
   class="st5"
   width="3.2"
   height="3.2"
   id="rect820" />
			</g>
			<g
   id="g826">
				
					<rect
   x="39.299999"
   y="44.400002"
   transform="matrix(0.00125015,-1,1,0.00125015,-5.0864,86.8135)"
   class="st5"
   width="3.2"
   height="3.2"
   id="rect824" />
			</g>
			<g
   id="g830">
				
					<rect
   x="35.099998"
   y="44.299999"
   transform="matrix(0.00125015,-1,1,0.00125015,-9.2866,82.5975)"
   class="st5"
   width="3.2"
   height="3.2"
   id="rect828" />
			</g>
			<g
   id="g834">
				
					<rect
   x="39.299999"
   y="36"
   transform="matrix(0.00125015,-1,1,0.00125015,3.2439,78.5143)"
   class="st5"
   width="3.2"
   height="3.2"
   id="rect832" />
			</g>
			<g
   id="g838">
				
					<rect
   x="35.099998"
   y="36"
   transform="matrix(0.00125015,-1,1,0.00125015,-0.9563,74.2983)"
   class="st5"
   width="3.2"
   height="3.2"
   id="rect836" />
			</g>
			<g
   id="g842">
				
					<rect
   x="30.9"
   y="36"
   transform="matrix(0.00125015,-1,1,0.00125015,-5.1565,70.0824)"
   class="st5"
   width="3.2"
   height="3.2"
   id="rect840" />
			</g>
			<g
   id="g846">
				
					<rect
   x="26.700001"
   y="36"
   transform="matrix(0.00125015,-1,1,0.00125015,-9.3566,65.8664)"
   class="st5"
   width="3.2"
   height="3.2"
   id="rect844" />
			</g>
			<g
   id="g850">
				
					<rect
   x="39.299999"
   y="31.799999"
   transform="matrix(0.00125015,-1,1,0.00125015,7.4599,74.3141)"
   class="st5"
   width="3.2"
   height="3.2"
   id="rect848" />
			</g>
			<g
   id="g854">
				
					<rect
   x="35.099998"
   y="31.799999"
   transform="matrix(0.00125015,-1,1,0.00125015,3.2597,70.0982)"
   class="st5"
   width="3.2"
   height="3.2"
   id="rect852" />
			</g>
			<g
   id="g858">
				
					<rect
   x="30.9"
   y="31.799999"
   transform="matrix(0.00125015,-1,1,0.00125015,-0.9405,65.8822)"
   class="st5"
   width="3.2"
   height="3.2"
   id="rect856" />
			</g>
			<g
   id="g862">
				
					<rect
   x="26.700001"
   y="31.799999"
   transform="matrix(0.00125015,-1,1,0.00125015,-5.1407,61.6662)"
   class="st5"
   width="3.2"
   height="3.2"
   id="rect860" />
			</g>
			<g
   id="g866">
				
					<rect
   x="35.099998"
   y="27.6"
   transform="matrix(0.00125015,-1,1,0.00125015,7.4757,65.898)"
   class="st5"
   width="3.2"
   height="3.2"
   id="rect864" />
			</g>
			<g
   id="g870">
				
					<rect
   x="30.9"
   y="27.6"
   transform="matrix(0.00125015,-1,1,0.00125015,3.2755,61.682)"
   class="st5"
   width="3.2"
   height="3.2"
   id="rect868" />
			</g>
			<g
   id="g874">
				
					<rect
   x="43.400002"
   y="36"
   transform="matrix(0.00125015,-1,1,0.00125015,7.3429,82.6287)"
   class="st5"
   width="3.2"
   height="3.2"
   id="rect872" />
			</g>
			<g
   id="g878">
				
					<rect
   x="43.400002"
   y="40.299999"
   transform="matrix(0.00125015,-1,1,0.00125015,3.1269,86.8289)"
   class="st5"
   width="3.2"
   height="3.2"
   id="rect876" />
			</g>
			<g
   id="g882">
				
					<rect
   x="43.400002"
   y="40.299999"
   transform="matrix(0.00125015,-1,1,0.00125015,3.1269,86.8289)"
   class="st5"
   width="3.2"
   height="3.2"
   id="rect880" />
			</g>
			<g
   id="g886">
				
					<rect
   x="43.400002"
   y="44.400002"
   transform="matrix(0.00125015,-1,1,0.00125015,-0.9874,90.9278)"
   class="st5"
   width="3.2"
   height="3.2"
   id="rect884" />
			</g>
			<g
   id="g890">
				
					<rect
   x="43.400002"
   y="44.400002"
   transform="matrix(0.00125015,-1,1,0.00125015,-0.9874,90.9278)"
   class="st5"
   width="3.2"
   height="3.2"
   id="rect888" />
			</g>
			<g
   id="g894">
				
					<rect
   x="43.400002"
   y="36"
   transform="matrix(0.00125015,-1,1,0.00125015,7.3429,82.6287)"
   class="st5"
   width="3.2"
   height="3.2"
   id="rect892" />
			</g>
		</g>
		<g
   id="g998">
			<g
   id="g900">
				
					<rect
   x="39.400002"
   y="2.3"
   transform="matrix(0.00125015,-1,1,0.00125015,36.9717,44.9128)"
   class="st3"
   width="3.2"
   height="3.2"
   id="rect898" />
			</g>
			<g
   id="g904">
				
					<rect
   x="39.400002"
   y="6.5999999"
   transform="matrix(0.00125015,-1,1,0.00125015,32.7557,49.113)"
   class="st3"
   width="3.2"
   height="3.2"
   id="rect902" />
			</g>
			<g
   id="g908">
				
					<rect
   x="39.400002"
   y="10.8"
   transform="matrix(0.00125015,-1,1,0.00125015,28.5397,53.3132)"
   class="st3"
   width="3.2"
   height="3.2"
   id="rect906" />
			</g>
			<g
   id="g912">
				
					<rect
   x="39.400002"
   y="15"
   transform="matrix(0.00125015,-1,1,0.00125015,24.3238,57.5134)"
   class="st3"
   width="3.2"
   height="3.2"
   id="rect910" />
			</g>
			<g
   id="g916">
				
					<rect
   x="35.099998"
   y="19.200001"
   transform="matrix(0.00125015,-1,1,0.00125015,15.9076,57.4976)"
   class="st3"
   width="3.2"
   height="3.2"
   id="rect914" />
			</g>
			<g
   id="g920">
				
					<rect
   x="30.9"
   y="19.200001"
   transform="matrix(0.00125015,-1,1,0.00125015,11.7074,53.2816)"
   class="st3"
   width="3.2"
   height="3.2"
   id="rect918" />
			</g>
			<g
   id="g924">
				
					<rect
   x="39.400002"
   y="15"
   transform="matrix(0.00125015,-1,1,0.00125015,24.3238,57.5134)"
   class="st3"
   width="3.2"
   height="3.2"
   id="rect922" />
			</g>
			<g
   id="g928">
				
					<rect
   x="35.099998"
   y="15"
   transform="matrix(0.00125015,-1,1,0.00125015,20.1236,53.2974)"
   class="st3"
   width="3.2"
   height="3.2"
   id="rect926" />
			</g>
			<g
   id="g932">
				
					<rect
   x="30.9"
   y="15"
   transform="matrix(0.00125015,-1,1,0.00125015,15.9234,49.0814)"
   class="st3"
   width="3.2"
   height="3.2"
   id="rect930" />
			</g>
			<g
   id="g936">
				
					<rect
   x="26.700001"
   y="15"
   transform="matrix(0.00125015,-1,1,0.00125015,11.7232,44.8655)"
   class="st3"
   width="3.2"
   height="3.2"
   id="rect934" />
			</g>
			<g
   id="g940">
				
					<rect
   x="39.400002"
   y="10.8"
   transform="matrix(0.00125015,-1,1,0.00125015,28.5397,53.3132)"
   class="st3"
   width="3.2"
   height="3.2"
   id="rect938" />
			</g>
			<g
   id="g944">
				
					<rect
   x="35.200001"
   y="10.8"
   transform="matrix(0.00125015,-1,1,0.00125015,24.3395,49.0972)"
   class="st3"
   width="3.2"
   height="3.2"
   id="rect942" />
			</g>
			<g
   id="g948">
				
					<rect
   x="30.9"
   y="10.8"
   transform="matrix(0.00125015,-1,1,0.00125015,20.1394,44.8813)"
   class="st3"
   width="3.2"
   height="3.2"
   id="rect946" />
			</g>
			<g
   id="g952">
				
					<rect
   x="26.700001"
   y="10.8"
   transform="matrix(0.00125015,-1,1,0.00125015,15.9392,40.6653)"
   class="st3"
   width="3.2"
   height="3.2"
   id="rect950" />
			</g>
			<g
   id="g956">
				
					<rect
   x="39.400002"
   y="6.5999999"
   transform="matrix(0.00125015,-1,1,0.00125015,32.7557,49.113)"
   class="st3"
   width="3.2"
   height="3.2"
   id="rect954" />
			</g>
			<g
   id="g960">
				
					<rect
   x="35.200001"
   y="6.5999999"
   transform="matrix(0.00125015,-1,1,0.00125015,28.5555,44.897)"
   class="st3"
   width="3.2"
   height="3.2"
   id="rect958" />
			</g>
			<g
   id="g964">
				
					<rect
   x="30.9"
   y="6.5"
   transform="matrix(0.00125015,-1,1,0.00125015,24.3553,40.6811)"
   class="st3"
   width="3.2"
   height="3.2"
   id="rect962" />
			</g>
			<g
   id="g968">
				
					<rect
   x="39.400002"
   y="2.3"
   transform="matrix(0.00125015,-1,1,0.00125015,36.9717,44.9128)"
   class="st3"
   width="3.2"
   height="3.2"
   id="rect966" />
			</g>
			<g
   id="g972">
				
					<rect
   x="43.5"
   y="2.4000001"
   transform="matrix(0.00125015,-1,1,0.00125015,41.0706,49.0272)"
   class="st3"
   width="3.2"
   height="3.2"
   id="rect970" />
			</g>
			<g
   id="g976">
				
					<rect
   x="43.5"
   y="6.5999999"
   transform="matrix(0.00125015,-1,1,0.00125015,36.8547,53.2274)"
   class="st3"
   width="3.2"
   height="3.2"
   id="rect974" />
			</g>
			<g
   id="g980">
				
					<rect
   x="43.5"
   y="10.8"
   transform="matrix(0.00125015,-1,1,0.00125015,32.6387,57.4276)"
   class="st3"
   width="3.2"
   height="3.2"
   id="rect978" />
			</g>
			<g
   id="g984">
				
					<rect
   x="43.5"
   y="10.8"
   transform="matrix(0.00125015,-1,1,0.00125015,32.6387,57.4276)"
   class="st3"
   width="3.2"
   height="3.2"
   id="rect982" />
			</g>
			<g
   id="g988">
				
					<rect
   x="43.5"
   y="6.5999999"
   transform="matrix(0.00125015,-1,1,0.00125015,36.8547,53.2274)"
   class="st3"
   width="3.2"
   height="3.2"
   id="rect986" />
			</g>
			<g
   id="g992">
				
					<rect
   x="43.5"
   y="2.4000001"
   transform="matrix(0.00125015,-1,1,0.00125015,41.0706,49.0272)"
   class="st3"
   width="3.2"
   height="3.2"
   id="rect990" />
			</g>
			<g
   id="g996">
				
					<rect
   x="35.200001"
   y="2.3"
   transform="matrix(0.00125015,-1,1,0.00125015,32.7715,40.6969)"
   class="st3"
   width="3.2"
   height="3.2"
   id="rect994" />
			</g>
		</g>
		<g
   id="g1084">
			<g
   id="g1002">
				<rect
   x="1.5"
   y="2.3"
   transform="matrix(0.00125015,-1,1,0.00125015,-0.83,6.9691)"
   class="st5"
   width="3.2"
   height="3.2"
   id="rect1000" />
			</g>
			<g
   id="g1006">
				
					<rect
   x="1.5"
   y="6.5"
   transform="matrix(0.00125015,-1,1,0.00125015,-5.046,11.1693)"
   class="st5"
   width="3.2"
   height="3.2"
   id="rect1004" />
			</g>
			<g
   id="g1010">
				
					<rect
   x="1.5"
   y="10.7"
   transform="matrix(0.00125015,-1,1,0.00125015,-9.2619,15.3695)"
   class="st5"
   width="3.2"
   height="3.2"
   id="rect1008" />
			</g>
			<g
   id="g1014">
				
					<rect
   x="14.1"
   y="19.200001"
   transform="matrix(0.00125015,-1,1,0.00125015,-5.0933,36.4178)"
   class="st5"
   width="3.2"
   height="3.2"
   id="rect1012" />
			</g>
			<g
   id="g1018">
				
					<rect
   x="9.8999996"
   y="19.200001"
   transform="matrix(0.00125015,-1,1,0.00125015,-9.2935,32.2018)"
   class="st5"
   width="3.2"
   height="3.2"
   id="rect1016" />
			</g>
			<g
   id="g1022">
				
					<rect
   x="18.299999"
   y="15"
   transform="matrix(0.00125015,-1,1,0.00125015,3.3228,36.4335)"
   class="st5"
   width="3.2"
   height="3.2"
   id="rect1020" />
			</g>
			<g
   id="g1026">
				
					<rect
   x="14.1"
   y="14.9"
   transform="matrix(0.00125015,-1,1,0.00125015,-0.8774,32.2176)"
   class="st5"
   width="3.2"
   height="3.2"
   id="rect1024" />
			</g>
			<g
   id="g1030">
				
					<rect
   x="9.8999996"
   y="14.9"
   transform="matrix(0.00125015,-1,1,0.00125015,-5.0775,28.0016)"
   class="st5"
   width="3.2"
   height="3.2"
   id="rect1028" />
			</g>
			<g
   id="g1034">
				
					<rect
   x="5.6999998"
   y="14.9"
   transform="matrix(0.00125015,-1,1,0.00125015,-9.2777,23.7856)"
   class="st5"
   width="3.2"
   height="3.2"
   id="rect1032" />
			</g>
			<g
   id="g1038">
				
					<rect
   x="18.299999"
   y="10.7"
   transform="matrix(0.00125015,-1,1,0.00125015,7.5388,32.2334)"
   class="st5"
   width="3.2"
   height="3.2"
   id="rect1036" />
			</g>
			<g
   id="g1042">
				
					<rect
   x="14.1"
   y="10.7"
   transform="matrix(0.00125015,-1,1,0.00125015,3.3386,28.0174)"
   class="st5"
   width="3.2"
   height="3.2"
   id="rect1040" />
			</g>
			<g
   id="g1046">
				
					<rect
   x="9.8999996"
   y="10.7"
   transform="matrix(0.00125015,-1,1,0.00125015,-0.8616,23.8014)"
   class="st5"
   width="3.2"
   height="3.2"
   id="rect1044" />
			</g>
			<g
   id="g1050">
				
					<rect
   x="5.6999998"
   y="10.7"
   transform="matrix(0.00125015,-1,1,0.00125015,-5.0618,19.5855)"
   class="st5"
   width="3.2"
   height="3.2"
   id="rect1048" />
			</g>
			<g
   id="g1054">
				
					<rect
   x="1.5"
   y="10.7"
   transform="matrix(0.00125015,-1,1,0.00125015,-9.2619,15.3695)"
   class="st5"
   width="3.2"
   height="3.2"
   id="rect1052" />
			</g>
			<g
   id="g1058">
				
					<rect
   x="14.1"
   y="6.5"
   transform="matrix(0.00125015,-1,1,0.00125015,7.5546,23.8172)"
   class="st5"
   width="3.2"
   height="3.2"
   id="rect1056" />
			</g>
			<g
   id="g1062">
				
					<rect
   x="9.8999996"
   y="6.5"
   transform="matrix(0.00125015,-1,1,0.00125015,3.3544,19.6012)"
   class="st5"
   width="3.2"
   height="3.2"
   id="rect1060" />
			</g>
			<g
   id="g1066">
				
					<rect
   x="5.6999998"
   y="6.5"
   transform="matrix(0.00125015,-1,1,0.00125015,-0.8458,15.3853)"
   class="st5"
   width="3.2"
   height="3.2"
   id="rect1064" />
			</g>
			<g
   id="g1070">
				
					<rect
   x="1.5"
   y="6.5"
   transform="matrix(0.00125015,-1,1,0.00125015,-5.046,11.1693)"
   class="st5"
   width="3.2"
   height="3.2"
   id="rect1068" />
			</g>
			<g
   id="g1074">
				
					<rect
   x="9.8999996"
   y="2.3"
   transform="matrix(0.00125015,-1,1,0.00125015,7.5704,15.401)"
   class="st5"
   width="3.2"
   height="3.2"
   id="rect1072" />
			</g>
			<g
   id="g1078">
				
					<rect
   x="5.6999998"
   y="2.3"
   transform="matrix(0.00125015,-1,1,0.00125015,3.3702,11.1851)"
   class="st5"
   width="3.2"
   height="3.2"
   id="rect1076" />
			</g>
			<g
   id="g1082">
				<rect
   x="1.5"
   y="2.3"
   transform="matrix(0.00125015,-1,1,0.00125015,-0.83,6.9691)"
   class="st5"
   width="3.2"
   height="3.2"
   id="rect1080" />
			</g>
		</g>
		<g
   id="g1138">
			<g
   id="g1088">
				
					<rect
   x="22.5"
   y="31.799999"
   transform="matrix(0.00125015,-1,1,0.00125015,-9.3409,57.4503)"
   class="st3"
   width="3.2"
   height="3.2"
   id="rect1086" />
			</g>
			<g
   id="g1092">
				
					<rect
   x="22.5"
   y="27.6"
   transform="matrix(0.00125015,-1,1,0.00125015,-5.1249,53.2501)"
   class="st3"
   width="3.2"
   height="3.2"
   id="rect1090" />
			</g>
			<g
   id="g1096">
				
					<rect
   x="18.299999"
   y="27.6"
   transform="matrix(0.00125015,-1,1,0.00125015,-9.3251,49.0341)"
   class="st3"
   width="3.2"
   height="3.2"
   id="rect1094" />
			</g>
			<g
   id="g1100">
				
					<rect
   x="30.9"
   y="23.4"
   transform="matrix(0.00125015,-1,1,0.00125015,7.4915,57.4818)"
   class="st3"
   width="3.2"
   height="3.2"
   id="rect1098" />
			</g>
			<g
   id="g1104">
				
					<rect
   x="26.700001"
   y="23.4"
   transform="matrix(0.00125015,-1,1,0.00125015,3.2913,53.2659)"
   class="st3"
   width="3.2"
   height="3.2"
   id="rect1102" />
			</g>
			<g
   id="g1108">
				
					<rect
   x="22.5"
   y="23.4"
   transform="matrix(0.00125015,-1,1,0.00125015,-0.9089,49.0499)"
   class="st3"
   width="3.2"
   height="3.2"
   id="rect1106" />
			</g>
			<g
   id="g1112">
				
					<rect
   x="18.299999"
   y="23.4"
   transform="matrix(0.00125015,-1,1,0.00125015,-5.1091,44.8339)"
   class="st3"
   width="3.2"
   height="3.2"
   id="rect1110" />
			</g>
			<g
   id="g1116">
				
					<rect
   x="14.1"
   y="23.4"
   transform="matrix(0.00125015,-1,1,0.00125015,-9.3093,40.6179)"
   class="st3"
   width="3.2"
   height="3.2"
   id="rect1114" />
			</g>
			<g
   id="g1120">
				
					<rect
   x="26.700001"
   y="19.200001"
   transform="matrix(0.00125015,-1,1,0.00125015,7.5072,49.0657)"
   class="st3"
   width="3.2"
   height="3.2"
   id="rect1118" />
			</g>
			<g
   id="g1124">
				
					<rect
   x="22.5"
   y="19.200001"
   transform="matrix(0.00125015,-1,1,0.00125015,3.307,44.8497)"
   class="st3"
   width="3.2"
   height="3.2"
   id="rect1122" />
			</g>
			<g
   id="g1128">
				
					<rect
   x="18.299999"
   y="19.200001"
   transform="matrix(0.00125015,-1,1,0.00125015,-0.8931,40.6337)"
   class="st3"
   width="3.2"
   height="3.2"
   id="rect1126" />
			</g>
			<g
   id="g1132">
				
					<rect
   x="26.700001"
   y="27.6"
   transform="matrix(0.00125015,-1,1,0.00125015,-0.9247,57.466)"
   class="st3"
   width="3.2"
   height="3.2"
   id="rect1130" />
			</g>
			<g
   id="g1136">
				
					<rect
   x="22.5"
   y="15"
   transform="matrix(0.00125015,-1,1,0.00125015,7.523,40.6495)"
   class="st3"
   width="3.2"
   height="3.2"
   id="rect1134" />
			</g>
		</g>
		<g
   id="g1192">
			<g
   id="g1142">
				
					<rect
   x="22.5"
   y="31.799999"
   transform="matrix(0.00125015,-1,1,0.00125015,-9.3409,57.4503)"
   class="st5"
   width="3.2"
   height="3.2"
   id="rect1140" />
			</g>
			<g
   id="g1146">
				
					<rect
   x="22.5"
   y="27.6"
   transform="matrix(0.00125015,-1,1,0.00125015,-5.1249,53.2501)"
   class="st5"
   width="3.2"
   height="3.2"
   id="rect1144" />
			</g>
			<g
   id="g1150">
				
					<rect
   x="18.299999"
   y="27.6"
   transform="matrix(0.00125015,-1,1,0.00125015,-9.3251,49.0341)"
   class="st5"
   width="3.2"
   height="3.2"
   id="rect1148" />
			</g>
			<g
   id="g1154">
				
					<rect
   x="30.9"
   y="23.4"
   transform="matrix(0.00125015,-1,1,0.00125015,7.4915,57.4818)"
   class="st5"
   width="3.2"
   height="3.2"
   id="rect1152" />
			</g>
			<g
   id="g1158">
				
					<rect
   x="26.700001"
   y="23.4"
   transform="matrix(0.00125015,-1,1,0.00125015,3.2913,53.2659)"
   class="st5"
   width="3.2"
   height="3.2"
   id="rect1156" />
			</g>
			<g
   id="g1162">
				
					<rect
   x="22.5"
   y="23.4"
   transform="matrix(0.00125015,-1,1,0.00125015,-0.9089,49.0499)"
   class="st5"
   width="3.2"
   height="3.2"
   id="rect1160" />
			</g>
			<g
   id="g1166">
				
					<rect
   x="18.299999"
   y="23.4"
   transform="matrix(0.00125015,-1,1,0.00125015,-5.1091,44.8339)"
   class="st5"
   width="3.2"
   height="3.2"
   id="rect1164" />
			</g>
			<g
   id="g1170">
				
					<rect
   x="14.1"
   y="23.4"
   transform="matrix(0.00125015,-1,1,0.00125015,-9.3093,40.6179)"
   class="st5"
   width="3.2"
   height="3.2"
   id="rect1168" />
			</g>
			<g
   id="g1174">
				
					<rect
   x="26.700001"
   y="19.200001"
   transform="matrix(0.00125015,-1,1,0.00125015,7.5072,49.0657)"
   class="st5"
   width="3.2"
   height="3.2"
   id="rect1172" />
			</g>
			<g
   id="g1178">
				
					<rect
   x="22.5"
   y="19.200001"
   transform="matrix(0.00125015,-1,1,0.00125015,3.307,44.8497)"
   class="st5"
   width="3.2"
   height="3.2"
   id="rect1176" />
			</g>
			<g
   id="g1182">
				
					<rect
   x="18.299999"
   y="19.200001"
   transform="matrix(0.00125015,-1,1,0.00125015,-0.8931,40.6337)"
   class="st5"
   width="3.2"
   height="3.2"
   id="rect1180" />
			</g>
			<g
   id="g1186">
				
					<rect
   x="26.700001"
   y="27.6"
   transform="matrix(0.00125015,-1,1,0.00125015,-0.9247,57.466)"
   class="st5"
   width="3.2"
   height="3.2"
   id="rect1184" />
			</g>
			<g
   id="g1190">
				
					<rect
   x="22.5"
   y="15"
   transform="matrix(0.00125015,-1,1,0.00125015,7.523,40.6495)"
   class="st5"
   width="3.2"
   height="3.2"
   id="rect1188" />
			</g>
		</g>
	</g>
</svg>
