<?xml version="1.0" encoding="UTF-8"?>
<svg id="Layer_1" data-name="Layer 1" xmlns="http://www.w3.org/2000/svg" viewBox="0 0 300 293.535">
  <defs>
    <style>
      .cls-1, .cls-2 {
        fill: #fff;
      }

      .cls-2 {
        opacity: .8;
      }
    </style>
  </defs>
  <path class="cls-2" d="M79.1488953,250.4551221h-18.6535034l-.000061,1.6940918s.02948,.6604004,.02948,.6657715c0,1.5473633-.2156982,3.0380859-.5826416,4.4663086h19.572998c-.3539429-1.3964844-.5571289-2.8515625-.5571289-4.3535156,0-.840332,.0771484-1.6621094,.1908569-2.4726562Z"/>
  <path class="cls-2" d="M25.3095398,252.3530713l.0001221-1.8979492H12.6941223c-1.8864746,0-3.4129639,1.5266113-3.4129639,3.4130859s1.5264893,3.4130859,3.4129639,3.4130859h13.144104c-.3544922-1.3879395-.5641479-2.8330078-.5662231-4.3293457l.0375366-.598877Z"/>
  <path class="cls-2" d="M239.6626892,250.4551221h-18.8109131c.114563,.8103027,.1942139,1.6313477,.1942139,2.4726562,0,1.5048828-.2098389,2.9580078-.5662231,4.3535156h19.5551758c-.3565063-1.3955078-.5664673-2.8486328-.5664673-4.3535156,0-.8413086,.0797119-1.6623535,.1942139-2.4726562Z"/>
  <path class="cls-2" d="M274.165802,257.2812939h13.1400757c1.8864746,0,3.4129639-1.5266113,3.4129639-3.4130859s-1.5264893-3.4130859-3.4129639-3.4130859h-12.7678833c.114502,.8103027,.1940918,1.6313477,.1940918,2.4726562,0,1.5048828-.2098999,2.9580078-.5662842,4.3535156Z"/>
  <path class="cls-2" d="M78.995636,146.8791943l-.029541-.6577148,.0268555-.7490234,.0001221-2.1162109h-18.6933594c.1411743,.8967285,.2358398,1.8085938,.2358398,2.7443848,0,1.4069824-.1834106,2.769043-.4963379,4.081543h18.9562378l.0001831-3.3029785Z"/>
  <path class="cls-2" d="M114.181366,145.3220654l.0322266,.6872559-.029541,.7194824-.0001831,3.4533691h18.6883545c-.3162231-1.3146973-.5020142-2.6772461-.5020142-4.081543,0-.934082,.0925293-1.8469238,.2351685-2.7443848h-18.4238892l-.0001221,1.9658203Z"/>
  <path class="cls-2" d="M25.5077209,143.3562451H12.6941223c-1.8864746,0-3.4129639,1.5266113-3.4129639,3.4128418,0,1.8867188,1.5264893,3.4130859,3.4129639,3.4130859h13.0740356c-.3128662-1.3125-.4961548-2.6745605-.4961548-4.081543,0-.935791,.0946045-1.8476562,.2357178-2.7443848Z"/>
  <path class="cls-2" d="M274.2358704,150.1821729h13.0700073c1.8864746,0,3.4129639-1.5263672,3.4129639-3.4130859,0-1.8862305-1.5264893-3.4128418-3.4129639-3.4128418h-12.8096924c.1412354,.8967285,.2359009,1.8085938,.2359009,2.7443848,0,1.4069824-.1833496,2.769043-.4962158,4.081543Z"/>
  <path class="cls-2" d="M78.995636,94.7637158l-.029541-.6577148,.0429077-.9880371c.0551758-1.1367188,.2213745-2.2419434,.4790649-3.3095703h-19.4733887c.3278809,1.3417969,.520874,2.7355957,.520874,4.1767578,0,.9025879-.0897217,1.7827148-.2212524,2.6491699h18.6812134l.0001221-1.8706055Z"/>
  <path class="cls-2" d="M239.4684753,93.9851514c0-1.4411621,.1929932-2.8349609,.520874-4.1767578h-18.8464966l-.0001831,3.3981934s.029541,.6604004,.029541,.6657715c0,.942627-.0938721,1.8603516-.2334595,2.7619629h18.7509766c-.1315308-.8664551-.2212524-1.746582-.2212524-2.6491699Z"/>
  <path class="cls-2" d="M274.5108948,96.6343213h12.7949829c1.8864746,0,3.4129639-1.5263672,3.4129639-3.4128418s-1.5264893-3.4130859-3.4129639-3.4130859h-13.0944824c.3277588,1.3417969,.5206909,2.7355957,.5206909,4.1767578,0,.9025879-.0897217,1.7827148-.2211914,2.6491699Z"/>
  <path class="cls-2" d="M132.8910828,89.8083936h-19.2008667c.2583618,1.0686035,.4248657,2.1745605,.4804077,3.3122559l.0402832,.8188477-.0268555,.6738281-.0001221,2.0209961h18.4075317c-.1315308-.8664551-.2212524-1.746582-.2212524-2.6491699,0-1.4411621,.1929932-2.8349609,.520874-4.1767578Z"/>
  <path class="cls-2" d="M25.7926941,89.8083936H12.6941223c-1.8864746,0-3.4129639,1.5266113-3.4129639,3.4130859s1.5264893,3.4128418,3.4129639,3.4128418h12.7990723c-.1314697-.8664551-.2211914-1.746582-.2211914-2.6491699,0-1.4411621,.1929321-2.8349609,.5206909-4.1767578Z"/>
  <path class="cls-2" d="M167.6338196,93.9851514c0,.9025879-.0897217,1.7827148-.2211914,2.6491699h18.7278442c-.1303101-.8586426-.2199097-1.7307129-.2211304-2.625l.0375977-.5986328,.0001831-3.6022949h-18.8439941c.3277588,1.3417969,.5206909,2.7355957,.5206909,4.1767578Z"/>
  <path class="cls-2" d="M221.1722107,40.4441357l-.0268555,.7006836-.0001221,1.9350586h18.5231323c-.117981-.8220215-.1998901-1.6555176-.1998901-2.5095215,0-1.4914551,.2064819-2.932373,.5568848-4.3164062h-19.4055786c.2885132,1.1577148,.4703369,2.3596191,.5202026,3.5996094l.0322266,.5905762Z"/>
  <path class="cls-2" d="M167.4390564,43.0798779h18.5205078l.000061-1.730957-.029541-.6472168,.029541-1.046875c.0482178-1.166748,.2132568-2.3037109,.4824219-3.4008789h-19.3780518c.3604736,1.3984375,.5698242,2.854248,.5698242,4.3564453,0,.8391113-.0792236,1.659668-.1947632,2.4694824Z"/>
  <path class="cls-2" d="M274.5323181,43.0798779h12.7735596c1.8864746,0,3.4129639-1.5266113,3.4129639-3.4128418,0-1.8867188-1.5264893-3.4130859-3.4129639-3.4130859h-13.1304932c.3503418,1.3840332,.5567017,2.8249512,.5567017,4.3164062,0,.8540039-.0817871,1.6875-.1997681,2.5095215Z"/>
  <path class="cls-2" d="M25.8390198,36.2539502H12.6941223c-1.8864746,0-3.4129639,1.5263672-3.4129639,3.4130859,0,1.8862305,1.5264893,3.4128418,3.4129639,3.4128418h12.7716064c-.1142578-.809082-.1937256-1.6291504-.1937256-2.4694824,0-1.5058594,.210144-2.9599609,.5670166-4.3564453Z"/>
  <path class="cls-2" d="M25.2827454,199.6416455l.02948-1.0444336c.0236206-.5708008,.076355-1.1342773,.1541748-1.6899414H12.6941223c-1.8864746,0-3.4129639,1.5266113-3.4129639,3.4130859s1.5264893,3.4130859,3.4129639,3.4130859h12.6179199l.0001831-3.4418945-.02948-.6499023Z"/>
  <path class="cls-2" d="M221.04599,199.5156689c0,1.4558105-.1969604,2.8635254-.531311,4.2177734h19.4852905c-.3344727-1.354248-.5314941-2.7619629-.5314941-4.2177734,0-.8884277,.0874634-1.7548828,.2149658-2.6083984h-18.8522949c.1274414,.8535156,.2148438,1.7199707,.2148438,2.6083984Z"/>
  <path class="cls-2" d="M274.2007751,203.7334424h13.1051025c1.8864746,0,3.4129639-1.5266113,3.4129639-3.4130859s-1.5264893-3.4130859-3.4129639-3.4130859h-12.7886353c.1274414,.8535156,.2148438,1.7199707,.2148438,2.6083984,0,1.4558105-.1969604,2.8635254-.531311,4.2177734Z"/>
  <path class="cls-2" d="M79.0627136,201.4055615l-.0670776-.6254883v-.4885254l-.0375977-.7651367,.0349121-.6364746,.0001221-1.982666h-18.682312c.0910034,.619873,.1561279,1.2485352,.1818848,1.8886719l.0321655,.5878906-.0267944,.7036133-.0001831,3.6459961h18.9884644c-.1849365-.7590332-.3389282-1.5310059-.423584-2.3278809Z"/>
  <path class="cls-2" d="M167.1025085,203.7334424h19.2139282c-.3343506-1.354248-.531311-2.7619629-.531311-4.2177734,0-.8884277,.0874023-1.7548828,.2148438-2.6083984h-18.5809937c.1274414,.8535156,.2148438,1.7199707,.2148438,2.6083984,0,1.4558105-.1969604,2.8635254-.531311,4.2177734Z"/>
  <path class="cls-2" d="M114.2135925,199.4214307l-.029541,.717041-.0026855,.7329102-.0671387,.5341797c-.0846558,.796875-.2386475,1.5688477-.423584,2.3278809h19.2110596c-.3344727-1.354248-.5314941-2.7619629-.5314941-4.2177734,0-.8884277,.0874634-1.7548828,.2149658-2.6083984h-18.4036865l-.0001221,1.8295898,.0322266,.6845703Z"/>
  <path class="cls-2" d="M256.4760437,163.696333l-2.7900391-.0002441v18.5249023c1.105957-.2182617,2.2467041-.338623,3.4155884-.338623,1.1671143,0,2.3060303,.1201172,3.4104004,.3378906v-18.8266602c-1.1043701,.2172852-2.2432861,.3374023-3.4104004,.3374023l-.6255493-.034668Z"/>
  <path class="cls-2" d="M253.6860046,270.2197705v13.8554688c0,1.8862305,1.5264893,3.4128418,3.4129639,3.4128418s3.4130249-1.5266113,3.4130249-3.4128418v-13.8547363c-1.1043701,.2175293-2.2432861,.3376465-3.4104004,.3376465-1.1688843,0-2.3096313-.1203613-3.4155884-.3383789Z"/>
  <path class="cls-2" d="M260.5119934,23.2773877V9.4600049c0-1.8864746-1.5265503-3.4130859-3.4130249-3.4130859s-3.4129639,1.5266113-3.4129639,3.4130859v13.8183594c1.105957-.2182617,2.2467041-.338623,3.4155884-.338623,1.1671143,0,2.3060303,.1203613,3.4104004,.3376465Z"/>
  <path class="cls-2" d="M253.6860046,216.8076611v18.8254395c1.105957-.2180176,2.2467041-.338623,3.4155884-.338623,1.1671143,0,2.3060303,.1203613,3.4104004,.3378906v-18.8239746c-1.1043701,.2175293-2.2432861,.3376465-3.4104004,.3376465-1.1688843,0-2.3096313-.1203613-3.4155884-.3383789Z"/>
  <path class="cls-2" d="M253.6860046,57.86479v18.8256836c1.105957-.2180176,2.2467041-.3383789,3.4155884-.3383789,1.1671143,0,2.3060303,.1201172,3.4104004,.3376465v-18.8239746c-1.1043701,.2172852-2.2432861,.3376465-3.4104004,.3376465-1.1688843,0-2.3096313-.1203613-3.4155884-.338623Z"/>
  <path class="cls-2" d="M257.101593,111.6157666c-1.1688843,0-2.3096313-.1206055-3.4155884-.338623v17.2304688l2.6370239,.0002441,.6524048-.0268555c1.2122192-.0014648,2.3942261,.119873,3.5365601,.347168v-17.550293c-1.1043701,.2175293-2.2432861,.3378906-3.4104004,.3378906Z"/>
  <path class="cls-2" d="M150.0033875,217.14604c-1.1680298,0-2.3078613-.1203613-3.4130249-.3381348v18.5268555l2.6344604,.0002441,.6845703-.0322266,.7167969,.0292969,2.7901001,.0002441v-18.5244141c-1.1051025,.2177734-2.2449341,.3381348-3.4129028,.3381348Z"/>
  <path class="cls-2" d="M150.0033875,111.6157666c-1.1680298,0-2.3078613-.1203613-3.4130249-.3381348v17.5656738c.7166748-.1411133,1.4431763-.2548828,2.1887817-.3059082l1.0980225-.0563965,.7490234,.0241699h2.7901001v-17.2275391c-1.1051025,.2177734-2.2449341,.3381348-3.4129028,.3381348Z"/>
  <path class="cls-2" d="M150.0033875,181.8823682c1.1679688,0,2.3078003,.1203613,3.4129028,.3381348v-18.5268555l-2.6370239-.0002441-.6550903,.0268555-.9503784-.0268555-.3946533-.0292969c-.7456055-.0512695-1.4721069-.1650391-2.1887817-.3061523v18.8625488c1.1051636-.2177734,2.2449951-.3381348,3.4130249-.3381348Z"/>
  <path class="cls-2" d="M149.9093933,22.9853955l.9208374,.0322266,.3946533,.029541c.746521,.0512695,1.473877,.1652832,2.1914062,.3066406V9.4600049c0-1.8864746-1.5264893-3.4130859-3.4129639-3.4130859s-3.4129639,1.5266113-3.4129639,3.4130859v13.5576172h2.6344604l.6845703-.0322266Z"/>
  <path class="cls-2" d="M150.1295471,270.5474072l-.7006836-.0268555h-2.838501v13.5546875c0,1.8862305,1.5264893,3.4128418,3.4129639,3.4128418s3.4129639-1.5266113,3.4129639-3.4128418v-13.5571289l-2.6370239-.0002441-.6497192,.029541Z"/>
  <path class="cls-2" d="M150.0033875,76.3520947c1.1679688,0,2.3078003,.1203613,3.4129028,.3381348v-18.822998c-.7175293,.1416016-1.4448853,.2553711-2.1914062,.3066406l-1.1329346,.0617676-.7141113-.029541h-2.7874756v18.4841309c1.1051636-.2177734,2.2449951-.3381348,3.4130249-.3381348Z"/>
  <path class="cls-2" d="M96.5884705,76.3520947c1.1199341,0,2.2138672,.1113281,3.2766724,.3112793v-18.4597168l-2.4981079-.0002441-.6845703,.0322266-.7168579-.029541h-2.9263916v18.5087891c1.147522-.2348633,2.3334351-.362793,3.5492554-.362793Z"/>
  <path class="cls-2" d="M96.5884705,217.14604c-1.2155762,0-2.4005127-.1315918-3.5492554-.3652344v18.8813477c.5274658-.1069336,1.0634155-.192627,1.6082153-.2521973l.6900024-.0749512h.4751587l.6846313-.0322266,.7167969,.0292969,2.651123,.0002441v-18.4899902c-1.0629272,.1984863-2.15802,.3037109-3.2766724,.3037109Z"/>
  <path class="cls-2" d="M96.4972229,22.9853955l.7167969,.029541,2.651123,.0002441V9.4600049c0-1.8864746-1.5264893-3.4130859-3.4129639-3.4130859s-3.4129639,1.5266113-3.4129639,3.4130859v13.5576172h2.7733765l.6846313-.0322266Z"/>
  <path class="cls-2" d="M96.7200012,270.5474072l-.7033691-.0268555h-.8000488l-.5691528-.0751953c-.5447998-.0595703-1.0807495-.1450195-1.6082153-.2521973v13.8820801c0,1.8862305,1.5264893,3.4128418,3.4129639,3.4128418s3.4129639-1.5266113,3.4129639-3.4128418v-13.5571289l-2.4981079-.0002441-.6470337,.029541Z"/>
  <path class="cls-2" d="M43.5279846,23.0149365l2.7826538,.0002441V9.4600049c0-1.8864746-1.5264893-3.4130859-3.4129639-3.4130859s-3.4129639,1.5266113-3.4129639,3.4130859v13.8564453c1.1065674-.2185059,2.2480469-.3391113,3.4177246-.3391113l.6255493,.0375977Z"/>
  <path class="cls-2" d="M46.3106384,182.2122021v-18.8183594c-1.1036987,.217041-2.2418823,.3371582-3.4082031,.3371582-1.1696777,0-2.3111572-.1203613-3.4177246-.338623v18.8210449c1.1057739-.2158203,2.2480469-.3310547,3.4177246-.3310547,1.1663818,0,2.3053589,.1149902,3.4082031,.329834Z"/>
  <path class="cls-2" d="M46.3106384,128.8076611v-17.5292969c-1.1036987,.217041-2.2418823,.3374023-3.4082031,.3374023-1.1696777,0-2.3111572-.1206055-3.4177246-.3388672v17.5322266c1.1065674-.2185059,2.2480469-.3388672,3.4177246-.3388672,1.1663208,0,2.3045044,.1201172,3.4082031,.3374023Z"/>
  <path class="cls-2" d="M39.4847107,270.2195264v13.8557129c0,1.8862305,1.5264893,3.4128418,3.4129639,3.4128418s3.4129639-1.5266113,3.4129639-3.4128418v-13.8544922c-1.1036377,.2172852-2.2418213,.3374023-3.4082031,.3374023-1.1696777,0-2.3111572-.1201172-3.4177246-.338623Z"/>
  <path class="cls-2" d="M46.3106384,76.6894971v-18.4858398l-2.6296387-.0002441-.6845703,.0322266c-1.2032471,.0009766-2.37677-.1201172-3.5117188-.3459473v18.8012695c1.1065674-.2185059,2.2480469-.3388672,3.4177246-.3388672,1.1663208,0,2.3045044,.1201172,3.4082031,.3374023Z"/>
  <path class="cls-2" d="M203.5524597,111.6157666c-1.1685181,0-2.3087769-.1203613-3.4143066-.3381348v17.2299805l2.4988403,.0002441,.6524048-.0268555,.751709,.0241699h2.9230347v-17.2275391c-1.1046753,.2177734-2.2440796,.3381348-3.4116821,.3381348Z"/>
  <path class="cls-2" d="M203.4155579,217.14604c-1.1209106,0-2.2139893-.1164551-3.2774048-.3173828v18.5061035l2.4988403,.0002441,.6846313-.0322266c1.2495728-.0012207,2.4671021,.1291504,3.6425171,.3720703v-18.8876953c-1.1466064,.2353516-2.3334351,.3588867-3.548584,.3588867Z"/>
  <path class="cls-2" d="M203.4155579,181.8823682c1.2151489,0,2.4019775,.1235352,3.548584,.3588867v-18.5476074l-2.7700195-.0002441-.6524048,.0268555-.751709-.0239258-2.6518555-.0002441v18.5036621c1.0634155-.2009277,2.1564941-.3173828,3.2774048-.3173828Z"/>
  <path class="cls-2" d="M202.8410339,270.5205518h-2.7028809v13.5546875c0,1.8862305,1.5265503,3.4128418,3.4130249,3.4128418s3.4129639-1.5266113,3.4129639-3.4128418v-13.8759766c-1.1466064,.2353516-2.3334351,.3588867-3.548584,.3588867l-.5745239-.0375977Z"/>
  <path class="cls-2" d="M206.9641418,23.2703076V9.4600049c0-1.8864746-1.5264893-3.4130859-3.4129639-3.4130859s-3.4130249,1.5266113-3.4130249,3.4130859v13.8103027c1.1047363-.215332,2.2458496-.3305664,3.4143066-.3305664,1.1675415,0,2.3077393,.1149902,3.4116821,.3305664Z"/>
  <path class="cls-1" d="M239.6683655,43.0798779c1.0636597,7.4091797,6.7337646,13.3481445,14.0176392,14.7849121,1.105957,.2182617,2.2467041,.338623,3.4155884,.338623,1.1671143,0,2.3060303-.1203613,3.4104004-.3376465,7.2858276-1.4353027,12.9567871-7.375,14.0203247-14.7858887,.117981-.8220215,.1997681-1.6555176,.1997681-2.5095215,0-1.4914551-.2063599-2.932373-.5567017-4.3164062-1.6588745-6.5546875-6.9805908-11.6606445-13.6633911-12.9765625-1.1043701-.2172852-2.2432861-.3376465-3.4104004-.3376465-1.1688843,0-2.3096313,.1203613-3.4155884,.338623-6.6808472,1.3173828-12.001709,6.4226074-13.6606445,12.9755859-.3504028,1.3840332-.5568848,2.8249512-.5568848,4.3164062,0,.8540039,.0819092,1.6875,.1998901,2.5095215Z"/>
  <path class="cls-1" d="M185.9300842,40.7017041l.029541,.6472168-.000061,1.730957-.0024414,46.7285156-.0001831,3.6022949-.0375977,.5986328c.0012207,.8942871,.0908203,1.7663574,.2211304,2.625,1.1146851,7.3444824,6.7576294,13.2167969,13.9976807,14.6433105,1.1055298,.2177734,2.2457886,.3381348,3.4143066,.3381348,1.1676025,0,2.3070068-.1203613,3.4116821-.3381348,7.2075806-1.4211426,12.831543-7.2592773,13.9746094-14.6433105,.1395874-.9016113,.2334595-1.8193359,.2334595-2.7619629,0-.0053711-.029541-.6657715-.029541-.6657715l.0001831-3.3981934,.0023804-46.7285156,.0001221-1.9350586,.0268555-.7006836-.0322266-.5905762c-.0498657-1.2399902-.2316895-2.4418945-.5202026-3.5996094-1.6461792-6.605957-6.9684448-11.6787109-13.6556396-12.9836426-1.1039429-.2155762-2.2441406-.3305664-3.4116821-.3305664-1.168457,0-2.3095703,.1152344-3.4143066,.3305664-6.7319946,1.3122559-12.0875244,6.4267578-13.696106,12.9836426-.269165,1.097168-.4342041,2.2341309-.4824219,3.4008789l-.029541,1.046875Z"/>
  <path class="cls-1" d="M253.6860046,76.6904736c-6.7283936,1.3273926-12.0787964,6.4970703-13.6966553,13.1179199-.3278809,1.3417969-.520874,2.7355957-.520874,4.1767578,0,.9025879,.0897217,1.7827148,.2212524,2.6491699,1.1147461,7.34375,6.7583618,13.2155762,13.9962769,14.6428223,1.105957,.2180176,2.2467041,.338623,3.4155884,.338623,1.1671143,0,2.3060303-.1203613,3.4104004-.3378906,7.2399292-1.4255371,12.8842163-7.2983398,13.9989014-14.6435547,.1314697-.8664551,.2211914-1.746582,.2211914-2.6491699,0-1.4411621-.1929321-2.8349609-.5206909-4.1767578-1.6177979-6.6223145-6.9690552-11.7929688-13.6994019-13.1186523-1.1043701-.2175293-2.2432861-.3376465-3.4104004-.3376465-1.1688843,0-2.3096313,.1203613-3.4155884,.3383789Z"/>
  <path class="cls-1" d="M167.1131287,89.8083936c-1.6176147-6.621582-6.9675903-11.791748-13.6968384-13.1181641-1.1051025-.2177734-2.2449341-.3381348-3.4129028-.3381348-1.1680298,0-2.3078613,.1203613-3.4130249,.3381348-6.7295532,1.326416-12.0812378,6.496582-13.6992798,13.1181641-.3278809,1.3417969-.520874,2.7355957-.520874,4.1767578,0,.9025879,.0897217,1.7827148,.2212524,2.6491699,1.1148682,7.3444824,6.7597656,13.2167969,13.9989014,14.6433105,1.1051636,.2177734,2.2449951,.3381348,3.4130249,.3381348,1.1679688,0,2.3078003-.1203613,3.4129028-.3381348,7.2387085-1.4265137,12.8817749-7.2988281,13.9963379-14.6433105,.1314697-.8664551,.2211914-1.746582,.2211914-2.6491699,0-1.4411621-.1929321-2.8349609-.5206909-4.1767578Z"/>
  <path class="cls-1" d="M46.3106384,111.2783643c7.241394-1.4248047,12.8885498-7.2978516,14.0036621-14.644043,.1315308-.8664551,.2212524-1.746582,.2212524-2.6491699,0-1.4411621-.1929932-2.8349609-.520874-4.1767578-1.6184692-6.6230469-6.972229-11.7939453-13.7040405-13.1188965-1.1036987-.2172852-2.2418823-.3374023-3.4082031-.3374023-1.1696777,0-2.3111572,.1203613-3.4177246,.3388672-6.7269897,1.3278809-12.0748291,6.4975586-13.6920166,13.1174316-.3277588,1.3417969-.5206909,2.7355957-.5206909,4.1767578,0,.9025879,.0897217,1.7827148,.2211914,2.6491699,1.1143188,7.3427734,6.7550659,13.2143555,13.9915161,14.6425781,1.1065674,.2182617,2.2480469,.3388672,3.4177246,.3388672,1.1663208,0,2.3045044-.1203613,3.4082031-.3374023Z"/>
  <path class="cls-1" d="M256.3230286,128.5078564l-2.6370239-.0002441-46.7218628-.0024414h-2.9230347l-.751709-.0241699-.6524048,.0268555-2.4988403-.0002441-46.7218628-.0024414h-2.7901001l-.7490234-.0241699-1.0980225,.0563965c-.7456055,.0510254-1.4721069,.1647949-2.1887817,.3059082-7.2304688,1.4248047-12.8342285,7.2729492-13.9849854,14.5129395-.1426392,.8974609-.2351685,1.8103027-.2351685,2.7443848,0,1.4042969,.185791,2.7668457,.5020142,4.081543,1.5910034,6.6154785,6.9388428,11.8398438,13.7181396,13.1757812,.7166748,.1411133,1.4431763,.2548828,2.1887817,.3061523l.3946533,.0292969,.9503784,.0268555,.6550903-.0268555,2.6370239,.0002441,46.7218628,.0024414,2.6518555,.0002441,.751709,.0239258,.6524048-.0268555,2.7700195,.0002441,46.7218628,.0024414,2.7900391,.0002441,.6255493,.034668c1.1671143,0,2.3060303-.1201172,3.4104004-.3374023,6.7626953-1.3317871,12.1345215-6.5437012,13.723877-13.2114258,.3128662-1.3125,.4962158-2.6745605,.4962158-4.081543,0-.935791-.0946655-1.8476562-.2359009-2.7443848-1.1453857-7.2724609-6.7399292-13.0864258-13.9841919-14.5280762-1.142334-.2272949-2.3243408-.3486328-3.5365601-.347168l-.6524048,.0268555Z"/>
  <path class="cls-1" d="M46.3106384,163.3938428c6.7641602-1.3310547,12.1386108-6.5432129,13.7285767-13.2116699,.3129272-1.3125,.4963379-2.6745605,.4963379-4.081543,0-.935791-.0946655-1.8476562-.2358398-2.7443848-1.1494141-7.3015137-6.7789307-13.130127-13.9890747-14.548584-1.1036987-.2172852-2.2418823-.3374023-3.4082031-.3374023-1.1696777,0-2.3111572,.1203613-3.4177246,.3388672-7.2051392,1.421875-12.8284302,7.2487793-13.9769897,14.5471191-.1411133,.8967285-.2357178,1.8085938-.2357178,2.7443848,0,1.4069824,.1832886,2.769043,.4961548,4.081543,1.5887451,6.6652832,6.9572144,11.8762207,13.7165527,13.2102051,1.1065674,.2182617,2.2480469,.338623,3.4177246,.338623,1.1663208,0,2.3045044-.1201172,3.4082031-.3371582Z"/>
  <path class="cls-1" d="M253.6860046,182.2209912c-7.2514648,1.4304199-12.902771,7.3232422-14.0025635,14.6862793-.1275024,.8535156-.2149658,1.7199707-.2149658,2.6083984,0,1.4558105,.1970215,2.8635254,.5314941,4.2177734,1.630127,6.6003418,6.9716797,11.75,13.6860352,13.0742188,1.105957,.2180176,2.2467041,.3383789,3.4155884,.3383789,1.1671143,0,2.3060303-.1201172,3.4104004-.3376465,6.7163086-1.3225098,12.0587769-6.4729004,13.6887817-13.0749512,.3343506-1.354248,.531311-2.7619629,.531311-4.2177734,0-.8884277-.0874023-1.7548828-.2148438-2.6083984-1.0997925-7.3647461-6.7518311-13.2583008-14.005249-14.6870117-1.1043701-.2177734-2.2432861-.3378906-3.4104004-.3378906-1.1688843,0-2.3096313,.1203613-3.4155884,.338623Z"/>
  <path class="cls-1" d="M186.3164368,203.7334424c1.640625,6.6450195,7.0440063,11.8144531,13.8217163,13.0952148,1.0634155,.2009277,2.1564941,.3173828,3.2774048,.3173828,1.2151489,0,2.4019775-.1235352,3.548584-.3588867,6.6525269-1.3647461,11.9315796-6.496582,13.5505371-13.0537109,.3343506-1.354248,.531311-2.7619629,.531311-4.2177734,0-.8884277-.0874023-1.7548828-.2148438-2.6083984-1.0928345-7.3186035-6.678833-13.1906738-13.8670044-14.6660156-1.1466064-.2353516-2.3334351-.3588867-3.548584-.3588867-1.1209106,0-2.2139893,.1164551-3.2774048,.3173828-7.3162231,1.3833008-13.0318604,7.2983398-14.1381836,14.7075195-.1274414,.8535156-.2148438,1.7199707-.2148438,2.6083984,0,1.4558105,.1969604,2.8635254,.531311,4.2177734Z"/>
  <path class="cls-1" d="M132.9017029,203.7334424c1.6303101,6.6010742,6.9731445,11.7512207,13.6886597,13.0744629,1.1051636,.2177734,2.2449951,.3381348,3.4130249,.3381348,1.1679688,0,2.3078003-.1203613,3.4129028-.3381348,6.7151489-1.3232422,12.0563965-6.4733887,13.6862183-13.0744629,.3343506-1.354248,.531311-2.7619629,.531311-4.2177734,0-.8884277-.0874023-1.7548828-.2148438-2.6083984-1.0996094-7.3640137-6.7504272-13.2570801-14.0026855-14.6867676-1.1051025-.2177734-2.2449341-.3381348-3.4129028-.3381348-1.1680298,0-2.3078613,.1203613-3.4130249,.3381348-7.2526245,1.4296875-12.9052734,7.3227539-14.005188,14.6867676-.1275024,.8535156-.2149658,1.7199707-.2149658,2.6083984,0,1.4558105,.1970215,2.8635254,.5314941,4.2177734Z"/>
  <path class="cls-1" d="M253.6860046,235.6331006c-7.2960815,1.439209-12.9733887,7.3955078-14.0233154,14.8220215-.114502,.8103027-.1942139,1.6313477-.1942139,2.4726562,0,1.5048828,.2099609,2.9580078,.5664673,4.3535156,1.6697388,6.5349121,6.9828491,11.6235352,13.651062,12.9384766,1.105957,.2180176,2.2467041,.3383789,3.4155884,.3383789,1.1671143,0,2.3060303-.1201172,3.4104004-.3376465,6.670166-1.3132324,11.9841309-6.4025879,13.6538086-12.939209,.3563843-1.3955078,.5662842-2.8486328,.5662842-4.3535156,0-.8413086-.0795898-1.6623535-.1940918-2.4726562-1.0498047-7.4282227-6.7279663-13.3852539-14.026001-14.8227539-1.1043701-.2175293-2.2432861-.3378906-3.4104004-.3378906-1.1688843,0-2.3096313,.1206055-3.4155884,.338623Z"/>
  <path class="cls-1" d="M43.6809998,58.2034131l2.6296387,.0002441,46.7285767,.0024414h2.9263916l.7168579,.029541,.6845703-.0322266,2.4981079,.0002441,46.7252197,.0024414h2.7874756l.7141113,.029541,1.1329346-.0617676c.746521-.0512695,1.473877-.1650391,2.1914062-.3066406,7.3204956-1.4436035,12.972229-7.421875,14.0227661-14.7873535,.1155396-.8098145,.1947632-1.6303711,.1947632-2.4694824,0-1.5021973-.2093506-2.9580078-.5698242-4.3564453-1.6715698-6.484375-6.9638062-11.5820312-13.6477051-12.9001465-.7175293-.1413574-1.4448853-.2553711-2.1914062-.3066406l-.3946533-.029541-.9208374-.0322266-.6845703,.0322266h-2.6344604l-46.7252197-.0024414-2.651123-.0002441-.7167969-.029541-.6846313,.0322266h-2.7733765l-46.7285767-.0024414-2.7826538-.0002441-.6255493-.0375977c-1.1696777,0-2.3111572,.1206055-3.4177246,.3391113-6.6657715,1.3156738-11.975769,6.4042969-13.6456909,12.9375-.3568726,1.3964844-.5670166,2.8505859-.5670166,4.3564453,0,.840332,.0794678,1.6604004,.1937256,2.4694824,1.0458374,7.4060059,6.696228,13.3527832,14.0189819,14.8098145,1.1349487,.2258301,2.3084717,.3469238,3.5117188,.3459473l.6845703-.0322266Z"/>
  <path class="cls-1" d="M60.4953308,252.1492139l.000061-1.6940918,.0024414-46.7216797,.0001831-3.6459961,.0267944-.7036133-.0321655-.5878906c-.0257568-.6401367-.0908813-1.2687988-.1818848-1.8886719-1.0907593-7.4316406-6.7423706-13.28125-14.0001221-14.6950684-1.1028442-.2148438-2.2418213-.329834-3.4082031-.329834-1.1696777,0-2.3119507,.1152344-3.4177246,.3310547-7.3051147,1.4255371-12.9865723,7.3295898-14.0183105,14.6938477-.0778198,.5556641-.1305542,1.1191406-.1541748,1.6899414l-.02948,1.0444336,.02948,.6499023-.0001831,3.4418945-.0023804,46.7216797-.0001221,1.8979492-.0375366,.598877c.0020752,1.4963379,.211731,2.9414062,.5662231,4.3293457,1.6691895,6.5341797,6.9797363,11.6225586,13.6464844,12.9382324,1.1065674,.2185059,2.2480469,.338623,3.4177246,.338623,1.1663818,0,2.3045654-.1201172,3.4082031-.3374023,6.6450195-1.3085938,11.9440308-6.3723145,13.6315308-12.9394531,.3669434-1.4282227,.5826416-2.9189453,.5826416-4.4663086,0-.0053711-.02948-.6657715-.02948-.6657715Z"/>
  <path class="cls-1" d="M114.210907,93.9394971l-.0402832-.8188477c-.055542-1.1376953-.2220459-2.2436523-.4804077-3.3122559-1.6222534-6.7106934-7.0452881-11.8688965-13.8250732-13.1450195-1.0628052-.1999512-2.1567383-.3112793-3.2766724-.3112793-1.2158203,0-2.4017334,.1279297-3.5492554,.362793-6.6533813,1.3613281-11.9529419,6.4719238-13.5511475,13.0935059-.2576904,1.067627-.4238892,2.1728516-.4790649,3.3095703l-.0429077,.9880371,.029541,.6577148-.0001221,1.8706055-.0024414,46.7219238-.0001221,2.1162109-.0268555,.7490234,.029541,.6577148-.0001831,3.3029785-.0023804,46.7250977-.0001221,1.982666-.0349121,.6364746,.0375977,.7651367v.4885254l.0670776,.6254883c.0846558,.796875,.2386475,1.5688477,.423584,2.3278809,1.6170044,6.6367188,6.9178467,11.6975098,13.5529175,13.0473633,1.1487427,.2336426,2.3336792,.3652344,3.5492554,.3652344,1.1186523,0,2.2137451-.1052246,3.2766724-.3037109,6.7631836-1.2641602,12.1861572-6.3806152,13.8255005-13.1088867,.1849365-.7590332,.3389282-1.5310059,.423584-2.3278809l.0671387-.5341797,.0026855-.7329102,.029541-.717041-.0322266-.6845703,.0001221-1.8295898,.0023804-46.7250977,.0001831-3.4533691,.029541-.7194824-.0322266-.6872559,.0001221-1.9658203,.0024414-46.7219238,.0001221-2.0209961,.0268555-.6738281Z"/>
  <path class="cls-1" d="M220.8517761,250.4551221c-1.0407715-7.3601074-6.6293945-13.2790527-13.8876343-14.7802734-1.175415-.2429199-2.3929443-.373291-3.6425171-.3720703l-.6846313,.0322266-2.4988403-.0002441-46.7218628-.0024414-2.7901001-.0002441-.7167969-.0292969-.6845703,.0322266-2.6344604-.0002441-46.7252197-.0024414-2.651123-.0002441-.7167969-.0292969-.6846313,.0322266h-.4751587l-.6900024,.0749512c-.5447998,.0595703-1.0807495,.1452637-1.6082153,.2521973-7.3233643,1.486084-12.859436,7.4431152-13.8903198,14.7929688-.1137085,.8105469-.1908569,1.6323242-.1908569,2.4726562,0,1.5019531,.203186,2.9570312,.5571289,4.3535156,1.6397705,6.46875,6.8366699,11.5549316,13.5240479,12.9118652,.5274658,.1071777,1.0634155,.192627,1.6082153,.2521973l.5691528,.0751953h.8000488l.7033691,.0268555,.6470337-.029541,2.4981079,.0002441,46.7252197,.0024414h2.838501l.7006836,.0268555,.6497192-.029541,2.6370239,.0002441,46.7218628,.0024414h2.7028809l.5745239,.0375977c1.2151489,0,2.4019775-.1235352,3.548584-.3588867,6.6065063-1.3554688,11.8572998-6.4260254,13.515625-12.9179688,.3563843-1.3955078,.5662231-2.8486328,.5662231-4.3535156,0-.8413086-.0796509-1.6623535-.1942139-2.4726562Z"/>
</svg>