<?xml version="1.0" encoding="UTF-8"?><svg id="Layer_1" xmlns="http://www.w3.org/2000/svg" viewBox="0 0 130 130"><path d="M59.41071,65.22638v-.47632c-.00363,.0782-.00588,.15733-.00588,.23816s.00225,.15997,.00588,.23816Z"/><polygon points="69.0372 14.29634 117.40304 14.29634 117.40304 115.70366 69.0372 115.70366 69.0372 125.33015 127.02953 125.33015 127.02953 4.66985 69.0372 4.66985 69.0372 14.29634"/><polygon points="102.80805 101.10867 102.80805 28.89131 69.0372 28.89131 69.0372 38.51781 93.18156 38.51781 93.18156 91.48218 69.0372 91.48218 69.0372 101.10867 102.80805 101.10867"/><rect x="69.0372" y="53.11281" width="9.54934" height="23.77437"/><path d="M59.41071,115.60558c-5.44143-.4217-10.72371-1.70455-15.75062-3.83072-6.04479-2.55672-11.47561-6.21894-16.1416-10.88497-4.66602-4.66599-8.32823-10.09682-10.88497-16.14161-2.6449-6.25327-3.98597-12.90147-3.98597-19.76001s1.34107-13.50673,3.98597-19.75998c2.55673-6.04479,6.21894-11.47563,10.88497-16.1416,4.66599-4.66602,10.0968-8.32827,16.1416-10.88497,5.02691-2.12621,10.3092-3.40907,15.75062-3.83077V4.67021C27.8946,6.734,2.97047,32.95019,2.97047,64.98827s24.92413,58.25431,56.44024,60.3181v-9.70079Z"/><path d="M37.20703,38.77509c-7.00177,7.00177-10.85787,16.31122-10.85787,26.21314s3.8561,19.21137,10.85787,26.21314c6.04782,6.04782,13.81774,9.74618,22.20368,10.64237v-9.75161c-5.79547-.84487-11.14453-3.517-15.36099-7.73348-5.17404-5.17404-8.02351-12.05328-8.02351-19.37043s2.84947-14.19639,8.02351-19.37043c4.21646-4.21648,9.56552-6.88861,15.36099-7.73348v-9.75161c-8.38595,.89619-16.15587,4.59456-22.20368,10.64237Z"/><path d="M53.73819,55.30625c-2.62365,2.62367-4.01041,5.9716-4.01041,9.68197s1.38676,7.05831,4.01041,9.68197c1.6379,1.6379,3.5581,2.79365,5.67252,3.43098v-12.87479c-.00363-.0782-.00588-.15733-.00588-.23816s.00225-.15997,.00588-.23816v-12.87479c-2.11442,.63733-4.03462,1.79308-5.67252,3.43098Z"/></svg>