<?xml version="1.0" encoding="UTF-8"?>
<svg id="Layer_1" data-name="Layer 1" xmlns="http://www.w3.org/2000/svg" xmlns:xlink="http://www.w3.org/1999/xlink" viewBox="0 0 1080 975">
  <defs>
    <style>
      .cls-1 {
        fill: url(#linear-gradient);
      }
    </style>
    <linearGradient id="linear-gradient" x1="10" y1="487.5" x2="1070" y2="487.5" gradientUnits="userSpaceOnUse">
      <stop offset="0" stop-color="#4ac0d4"/>
      <stop offset="1" stop-color="#b7f7fa"/>
    </linearGradient>
  </defs>
  <path class="cls-1" d="M969.5,364.54c-53.44,0-97.01,41.74-100.19,94.38h-401.5v-249.64c52.64-3.18,94.38-46.75,94.38-100.19s-45-100.5-100.5-100.5-100.5,45-100.5,100.5c0,4.1.32,8.12.79,12.09-114.93,36.98-206.07,127.3-244.25,241.69-2.4-.17-4.79-.36-7.23-.36-55.51,0-100.5,45-100.5,100.5s43.07,98.4,96.88,100.32c28.9,133.35,127.98,240.82,256.53,281.6-1.44,6.78-2.23,13.79-2.23,21,0,55.51,45,100.5,100.5,100.5s100.5-45,100.5-100.5-41.74-97.01-94.38-100.19v-294.56h401.5c3.18,52.64,46.75,94.38,100.19,94.38s100.5-45,100.5-100.5-45-100.5-100.5-100.5ZM455.57,765.72c-41.32,2.49-75.84,29.87-88.8,67.41-123.48-39.32-218.79-142.24-247.38-270.08,51.34-4.5,91.62-47.55,91.62-100.05,0-48.79-34.77-89.43-80.89-98.56,37.23-109.13,124.37-195.29,234.13-231.12,10.39,41.86,46.92,73.28,91.32,75.96v249.64h-239.83v12.24h239.83v294.56Z"/>
</svg>