<svg id="Layer_1" data-name="Layer 1" xmlns="http://www.w3.org/2000/svg" viewBox="0 0 356 172"><defs><style>.cls-1{fill:#fff;}</style></defs><rect class="cls-1" x="5.14" y="97.39" width="345.73" height="1.01"/><path class="cls-1" d="M19.6,129h10v12.34A22.42,22.42,0,0,1,20.75,143q-6.4,0-9.81-3.62T7.52,129.1a15.38,15.38,0,0,1,1.7-7.32,11.8,11.8,0,0,1,4.84-4.93,14.78,14.78,0,0,1,7.25-1.74,18.58,18.58,0,0,1,7.93,1.63l-.76,1.7a17.06,17.06,0,0,0-7.28-1.63,11.15,11.15,0,0,0-8.49,3.3c-2.09,2.21-3.13,5.17-3.13,8.91q0,6.1,3,9.19t8.75,3.08a17,17,0,0,0,6.34-1.06v-9.51h-8Z"/><path class="cls-1" d="M52.66,142.58H37.88v-27H52.66v1.73H39.77V127.5H51.94v1.74H39.77v11.6H52.66Z"/><path class="cls-1" d="M80,142.58h-1.9l-16-24h-.15q.22,4.29.22,6.47v17.54H60.3v-27h1.89l16,24h.11q-.17-3.33-.17-6.33V115.54H80Z"/><path class="cls-1" d="M103.92,142.58H89.14v-27h14.78v1.73H91V127.5H103.2v1.74H91v11.6h12.9Z"/><path class="cls-1" d="M113.44,130.8v11.78h-1.88v-27H118q5,0,7.44,1.85a6.65,6.65,0,0,1,2.41,5.6,7.31,7.31,0,0,1-1.44,4.59,8,8,0,0,1-4.35,2.68l7.34,12.32h-2.26l-7-11.78Zm0-1.63h5.17a8.18,8.18,0,0,0,5.3-1.53,5.44,5.44,0,0,0,1.89-4.5,5.31,5.31,0,0,0-1.85-4.5q-1.85-1.4-6-1.4h-4.48Z"/><path class="cls-1" d="M148.61,133h-11l-3.77,9.54h-2.09l10.87-27.16h1.21l10.65,27.16h-2.13Zm-10.31-1.71H148l-3.68-9.75q-.47-1.14-1.11-3.18a29.47,29.47,0,0,1-1.09,3.22Z"/><path class="cls-1" d="M159.84,142.58v-27h1.88V140.8h12.9v1.78Z"/><path class="cls-1" d="M204.05,142.58l-10.09-25h-.14c.1,1.53.14,3.09.14,4.7v20.27h-1.81v-27h2.92l9.59,23.79h.11l9.58-23.79h2.85v27h-1.91v-20.5c0-1.43.08-2.91.23-4.44h-.15l-10.12,24.94Z"/><path class="cls-1" d="M241.14,142.58H226.35v-27h14.79v1.73h-12.9V127.5h12.17v1.74H228.24v11.6h12.9Z"/><path class="cls-1" d="M260.67,142.58l-10.08-25h-.15c.1,1.53.15,3.09.15,4.7v20.27h-1.82v-27h2.93l9.58,23.79h.11L271,115.54h2.85v27h-1.9v-20.5c0-1.43.07-2.91.22-4.44H272l-10.12,24.94Z"/><path class="cls-1" d="M283,115.54h7.41c3.35,0,5.8.56,7.37,1.7a5.94,5.94,0,0,1,2.35,5.14,5.54,5.54,0,0,1-1.44,3.91,7,7,0,0,1-4.19,2v.11a8.14,8.14,0,0,1,4.77,2.05,6,6,0,0,1,1.52,4.35,7,7,0,0,1-2.48,5.75q-2.48,2-7,2H283Zm1.88,12h6q3.81,0,5.54-1.27a4.6,4.6,0,0,0,1.73-4,4.28,4.28,0,0,0-1.95-3.92,11.16,11.16,0,0,0-5.82-1.22h-5.46Zm0,1.66v11.68h6.37q7.5,0,7.51-6.11,0-5.56-7.92-5.57Z"/><path class="cls-1" d="M323,142.58H308.25v-27H323v1.73h-12.9V127.5H322.3v1.74H310.13v11.6H323Z"/><path class="cls-1" d="M332.55,130.8v11.78h-1.89v-27h6.44q5,0,7.44,1.85a6.65,6.65,0,0,1,2.4,5.6,7.31,7.31,0,0,1-1.43,4.59,8,8,0,0,1-4.36,2.68l7.35,12.32h-2.26l-7-11.78Zm0-1.63h5.16a8.23,8.23,0,0,0,5.31-1.53,5.44,5.44,0,0,0,1.89-4.5,5.31,5.31,0,0,0-1.85-4.5c-1.23-.93-3.25-1.4-6-1.4h-4.48Z"/><polygon class="cls-1" points="13.62 69.34 13.62 52.41 5.14 52.41 5.14 77.82 30.54 77.82 30.54 69.34 13.62 69.34"/><polygon class="cls-1" points="47.46 35.44 5.14 35.44 5.14 48.14 13.57 48.14 13.57 43.98 39.03 43.98 39.03 69.34 34.76 69.34 34.76 77.82 47.46 77.82 47.46 35.44"/><polygon class="cls-1" points="58.68 35.95 71.61 35.95 71.61 67.11 90.13 67.11 90.13 77.82 58.68 77.82 58.68 35.95"/><polygon class="cls-1" points="95.65 35.95 128.01 35.95 128.01 46.66 108.53 46.66 108.53 51.9 125.22 51.9 125.22 61.87 108.53 61.87 108.53 77.82 95.6 77.82 95.6 35.95 95.65 35.95"/><polygon class="cls-1" points="161.34 78.05 137.92 78.05 137.92 35.84 161.34 35.84 161.34 38.57 140.94 38.57 140.94 54.52 160.2 54.52 160.2 57.26 140.94 57.26 140.94 75.37 161.34 75.37 161.34 78.05"/><path class="cls-1" d="M202.12,78.05h-3L173.75,40.57h-.22c.22,4.44.34,7.8.34,10.08V78H171V35.84h3l25.35,37.42h.17c-.17-3.47-.29-6.77-.29-9.85V35.84h2.91V78.05Z"/><polygon class="cls-1" points="237.67 78.05 214.26 78.05 214.26 35.84 237.67 35.84 237.67 38.57 217.28 38.57 217.28 54.52 236.53 54.52 236.53 57.26 217.28 57.26 217.28 75.37 237.67 75.37 237.67 78.05"/><path class="cls-1" d="M250.32,59.65v18.4h-3V35.84h10.2q7.95,0,11.8,2.9c2.56,1.94,3.81,4.85,3.81,8.72a11.21,11.21,0,0,1-2.27,7.18A12.49,12.49,0,0,1,264,58.8L275.61,78H272L260.91,59.59H250.32Zm0-2.51h8.14c3.6,0,6.44-.79,8.38-2.39s3-3.93,3-7-1-5.52-2.9-7-5.13-2.22-9.57-2.22h-7V57.14Z"/><path class="cls-1" d="M299.37,56.29H314.8v18.8a34.77,34.77,0,0,1-13.67,2.56c-6.61,0-11.68-1.82-15.15-5.52s-5.3-8.89-5.3-15.61a23,23,0,0,1,2.62-11.17,18.35,18.35,0,0,1,7.52-7.52A23.26,23.26,0,0,1,302,35.15a29.56,29.56,0,0,1,12.31,2.51l-1.2,2.62a27.12,27.12,0,0,0-11.28-2.51c-5.53,0-9.91,1.66-13.1,5s-4.84,7.86-4.84,13.55q0,9.31,4.61,14c3.08,3.13,7.57,4.66,13.56,4.66a26.14,26.14,0,0,0,9.79-1.59V59H299.42V56.29Z"/><polygon class="cls-1" points="335.2 58.8 347.68 35.84 350.86 35.84 336.68 61.59 336.68 77.82 333.6 77.82 333.6 61.82 319.36 35.84 322.78 35.84 335.2 58.8"/></svg>