<?xml version="1.0" encoding="utf-8"?>
<!-- Generator: Adobe Illustrator 25.4.1, SVG Export Plug-In . SVG Version: 6.00 Build 0)  -->
<svg version="1.1" id="Layer_1" xmlns="http://www.w3.org/2000/svg" xmlns:xlink="http://www.w3.org/1999/xlink" x="0px" y="0px"
	 viewBox="0 0 120 165" style="enable-background:new 0 0 120 165;" xml:space="preserve">
<style type="text/css">
	.st0{fill:#FFFFFF;}
	.st1{fill:none;}
	.st2{fill:#FCB739;}
	.st3{fill:#FF7D08;}
	.st4{fill:#FE4A5D;}
	.st5{fill:#003764;}
	.st6{fill:#009ADE;}
</style>
<g>
	<path class="st0" d="M60.0004578,1.905404c-31.1557007,0-56.5033569,25.3476562-56.5033569,56.5032959
		c0,37.3082275,51.0628052,98.1311111,53.236145,100.7024612l3.3690186,3.9834595l3.3088379-4.0327148
		c2.1673584-2.6442871,53.0917969-65.1372757,53.0917969-100.6532059
		C116.5028992,27.2530594,91.1560974,1.905404,60.0004578,1.905404z M91.3694763,22.3705521l-33.8881836,8.7678223
		l-5.1536865-19.9192505c2.4995728-0.4050293,5.0606689-0.6237793,7.6728516-0.6237793
		C71.9967957,10.5953455,82.9663391,15.0463343,91.3694763,22.3705521z M60.0004578,40.0333939
		c4.7828369,0,9.2805786,1.8635864,12.664917,5.2470703c3.3758545,3.3757935,5.2360229,7.8735352,5.2360229,12.6640625
		c0,4.7904663-1.8601685,9.288208-5.2360229,12.663208c-2.0141602,2.0141602-4.4328003,3.4743042-7.0689087,4.3361206
		l-2.2573853,0.5840454c-1.0899048,0.2037354-2.2050781,0.3158569-3.338623,0.3158569
		c-4.7905273,0-9.288269-1.859314-12.664917-5.2360229c-3.3758545-3.375-5.2352295-7.8727417-5.2352295-12.663208
		c0-4.7905273,1.859375-9.288269,5.236084-12.664917c2.0831909-2.0842285,4.5917969-3.5859985,7.328125-4.4361572
		l1.4411621-0.3729248C57.3714905,40.1909866,58.67276,40.0333939,60.0004578,40.0333939z M61.9751282,122.5416336
		l20.9712524-5.4259644c-5.7805176,8.9838867-11.6014404,17.1740189-16.2935791,23.5054398L61.9751282,122.5416336z
		 M44.4234924,89.3973465l6.9622803,26.9095459l-13.0380249,3.3733521
		c-5.1658325-7.8154907-10.3518677-16.3496094-14.7370605-24.8983765L44.4234924,89.3973465z M52.8366394,87.2207108
		l12.2803345-3.177063c1.0549927-0.2039795,2.0906982-0.4754639,3.1062012-0.8035889l10.9569092-2.8347168l7.1381836,26.8633423
		l-26.5194092,6.8614502L52.8366394,87.2207108z M87.592865,78.2288895l17.444458-4.5131226
		c-2.6014404,8.2384033-6.8145142,17.2161865-11.7108154,26.09198L87.592865,78.2288895z M43.9124451,13.387826
		l5.1557617,19.9272461L15.0486755,42.11689C19.9009705,28.7700882,30.5379333,18.1817703,43.9124451,13.387826z
		 M12.6659851,51.7096024l23.7886353-6.1547852c-1.9875488,3.7723389-3.0442505,7.9978027-3.0442505,12.3897095
		c0,7.1123657,2.7631226,13.7918701,7.7810669,18.8081055c1.2937622,1.2940063,2.6998291,2.4349976,4.1936646,3.4203491
		l-25.618103,6.6279297c-4.560791-10.1908569-7.5799561-20.0709229-7.5799561-28.3922119
		C12.1870422,56.1344681,12.3573914,53.9000931,12.6659851,51.7096024z M43.5305481,127.3137894l10.0314941-2.595459
		l6.3485107,24.5374222C56.2776794,144.7124786,50.1788025,136.8524323,43.5305481,127.3137894z M107.3418274,64.1434402
		l-23.7753296,6.1511841c1.9744873-3.7623291,3.0248413-7.9733887,3.0248413-12.3500977
		c0-7.1123657-2.7639771-13.7919312-7.7819214-18.8098145c-1.3047485-1.3043213-2.7229004-2.4528809-4.229126-3.4440308
		l23.5478516-6.0925293c6.0734863,8.0180664,9.6848145,17.9992065,9.6848145,28.8105469
		C107.8129578,60.2302322,107.6434631,62.1507034,107.3418274,64.1434402z"/>
</g>
</svg>
