<?xml version="1.0" encoding="utf-8"?>
<!-- Generator: Adobe Illustrator 28.1.0, SVG Export Plug-In . SVG Version: 6.00 Build 0)  -->
<svg version="1.1" id="Layer_1" xmlns="http://www.w3.org/2000/svg" xmlns:xlink="http://www.w3.org/1999/xlink" x="0px" y="0px"
	 width="798.1px" height="269.2px" viewBox="0 0 798.1 269.2" style="enable-background:new 0 0 798.1 269.2;" xml:space="preserve"
	>
<style type="text/css">
	.st0{fill:#5B95CF;}
	.st1{fill:#213A64;}
	.st2{fill:#010101;}
	.st3{fill:#FFFFFF;}
	.st4{fill:#5B95CF;stroke:#5B95CF;stroke-miterlimit:10;}
	.st5{fill:none;}
	.st6{fill:#FFFFFF;stroke:#FFFFFF;stroke-miterlimit:10;}
</style>
<g>
	<g>
		<g>
			<g>
				<g>
					<polygon class="st2" points="374.5,49.6 374.5,28.3 363.8,28.3 363.8,60.2 395.7,60.2 395.7,49.6 					"/>
					<polygon class="st2" points="417,6.9 363.8,6.9 363.8,22.8 374.3,22.8 374.3,17.5 406.4,17.5 406.4,49.6 401.2,49.6 
						401.2,60.2 417,60.2 					"/>
					<g>
						<path class="st2" d="M431.2,7.5h16.2v39.1h23.2V60h-39.4L431.2,7.5L431.2,7.5z"/>
						<path class="st2" d="M477.6,7.5h40.8v13.4h-24.5v6.6h21V40h-21v20h-16.2V7.5z"/>
					</g>
					<path class="st2" d="M560.1,60.3h-29.4v-53h29.4v3.4h-25.7v20h24.2v3.4h-24.2v22.7h25.7V60.3z"/>
					<path class="st2" d="M611.4,60.3h-3.8l-31.9-47h-0.4c0.4,5.7,0.4,9.8,0.4,12.6v34.4h-3.4v-53h3.8l31.9,47h0.2
						c-0.2-4.3-0.4-8.5-0.4-12.5V7.3h3.6L611.4,60.3L611.4,60.3z"/>
					<path class="st2" d="M656,60.3h-29.4v-53H656v3.4h-25.7v20h24.2v3.4h-24.2v22.7H656V60.3z"/>
					<path class="st2" d="M672,37.3v23h-3.8v-53h12.8c6.6,0,11.5,1.1,14.7,3.6c3.2,2.5,4.7,6,4.7,10.9c0,3.6-0.9,6.6-2.8,9.1
						s-4.7,4.2-8.7,5.3l14.5,24.2H699l-13.8-23H672z M672,34.1h10.2c4.5,0,8.1-0.9,10.6-3c2.5-2.1,3.8-4.9,3.8-8.9s-1.1-7-3.6-8.9
						s-6.4-2.8-12.1-2.8H672V34.1z"/>
					<path class="st2" d="M733.5,33.2H753v23.6c-5.1,2.1-10.8,3.2-17.2,3.2c-8.3,0-14.7-2.3-19.1-7c-4.3-4.7-6.6-11.1-6.6-19.6
						c0-5.3,1.1-10,3.2-14c2.3-4.2,5.3-7.2,9.4-9.4s8.9-3.4,14.2-3.4c5.7,0,10.9,1.1,15.5,3.2l-1.5,3.2c-4.5-2.1-9.2-3.2-14.2-3.2
						c-7,0-12.5,2.1-16.4,6.4s-6,10-6,17c0,7.7,1.9,13.6,5.9,17.6c3.8,4,9.4,5.9,17,5.9c4.9,0,8.9-0.8,12.3-2.1V36.2h-15.7v-3H733.5
						z"/>
					<path class="st2" d="M778.5,36.2l15.7-28.9h4l-17.7,32.3V60h-3.8V40L758.7,7.3h4.3L778.5,36.2z"/>
				</g>
			</g>
			<g>
				<path class="st2" d="M439,230.5h-0.4c-6.4,13.9-14.9,20.1-32.3,20.1c-32.3,0-43.9-24-43.9-76.8c0-52.8,14.9-76.8,49.1-76.8
					c37.1,0,43.3,29.2,43.3,42.7v2.7h-22.4v-3.5c0-11-4.6-24-20.7-24c-16.8,0-25.7,11.2-25.7,58.4c0,47.6,7.9,59.6,23.8,59.6
					c18,0.2,24.6-12.8,24.6-45.1h-24.8v-17.8h47.2v77.9H439V230.5z"/>
				<path class="st2" d="M477.1,99.9h52.2c20.7,0,37.5,10.6,37.5,38.1c0,19.1-8.3,33.8-24.6,36.2v0.4c14.9,1.5,22.4,9.5,23.2,30.2
					c0.2,9.7,0.2,21.1,0.8,30c0.6,7.2,3.9,10.6,7,12.8h-26.7c-2.3-2.7-3.3-7.2-3.9-13c-0.4-4.4-0.6-8.9-0.6-13.3
					c0-4.4-0.2-9.3-0.4-14.7c-0.6-16.2-5.6-23.2-21.5-23.2h-19.3v64.2h-23.6V99.9z M519.5,165.7c15.1,0,23.6-9.1,23.6-24
					c0-15.7-6.6-24-22.4-24h-20.1v48H519.5z"/>
				<path class="st2" d="M587.2,99.9h23.6v147.9h-23.6V99.9z"/>
				<path class="st2" d="M634.2,99.9H681c28.4,0,40.8,17.8,40.8,43.1c0,26.5-15.7,43.7-43.3,43.7h-20.7v61.1h-23.6V99.9z
					 M657.8,168.8h16.8c12.6,0,23.6-6.6,23.6-25.5c0-15.9-6.4-25.7-25.3-25.7h-15.1V168.8z"/>
			</g>
		</g>
	</g>
	<path class="st2" d="M53.1,8.3C77.8,8.3,98,28.4,98,53.1S77.8,97.9,53.1,97.9c-24.7,0-44.8-20.1-44.8-44.8S28.4,8.3,53.1,8.3
		 M53.1,0C23.8,0,0,23.8,0,53.1c0,29.3,23.8,53.1,53.1,53.1s53.1-23.8,53.1-53.1C106.2,23.8,82.4,0,53.1,0L53.1,0z"/>
	<path class="st2" d="M29.8,46.7h22.5c9.8,0,17.8-8,17.8-17.8c0-7.3-5.9-13.2-13.2-13.2s-13.2,5.9-13.2,13.2c0,2.5,2,4.6,4.6,4.6
		s4.6-2,4.6-4.6c0-2.3,1.8-4.1,4.1-4.1c2.2,0,4.1,1.8,4.1,4.1c0,4.8-3.9,8.7-8.7,8.7H29.8c-2.5,0-4.6,2-4.6,4.6S27.3,46.7,29.8,46.7
		z"/>
	<path class="st2" d="M28.8,62.6h28.4c4.8,0,8.7,3.9,8.7,8.7c0,2.3-1.8,4.1-4.1,4.1s-4.1-1.8-4.1-4.1c0-2.5-2-4.6-4.6-4.6
		s-4.6,2-4.6,4.6c0,7.3,5.9,13.2,13.2,13.2S75,78.6,75,71.3c0-9.8-8-17.8-17.8-17.8H28.8c-2.5,0-4.6,2-4.6,4.6S26.3,62.6,28.8,62.6z
		"/>
	<path class="st2" d="M231.3,8.3c24.7,0,44.8,20.1,44.8,44.8S256,97.9,231.3,97.9c-24.7,0-44.8-20.1-44.8-44.8S206.5,8.3,231.3,8.3
		 M231.3,0c-29.3,0-53.1,23.8-53.1,53.1c0,29.3,23.8,53.1,53.1,53.1s53.1-23.8,53.1-53.1C284.4,23.8,260.6,0,231.3,0L231.3,0z"/>
	<path class="st2" d="M53.1,171.3c24.7,0,44.8,20.1,44.8,44.8S77.8,261,53.1,261c-24.7,0-44.8-20.1-44.8-44.8S28.4,171.3,53.1,171.3
		 M53.1,163C23.8,163,0,186.8,0,216.1s23.8,53.1,53.1,53.1s53.1-23.8,53.1-53.1S82.4,163,53.1,163L53.1,163z"/>
	<g>
		<path class="st2" d="M28.3,213.7c0.7,0.2,1.5,0.4,2.6,0.4c0.3,0,0.7,0,1.1-0.1c2.8-0.4,4.6-2.2,5.9-3.6c1.1-1.1,1.9-2,3.2-2.4
			c0.8-0.3,1.4-0.5,2.1-0.3c0.8,0.2,1.5,1,2.4,2.1c1.3,1.5,3.1,3.6,6.1,4.1c0.5,0.1,1.3,0.2,2.3,0c3.1-0.4,4.9-2.3,6.3-3.7
			c1-1,1.7-1.8,2.7-2.1c1.1-0.4,2.2-0.1,2.6,0.1c1.1,0.3,1.8,1.1,2.8,2.2c1.3,1.4,3.1,3.3,6,3.6c1.3,0.1,2.2-0.1,2.9-0.3
			c4.5-1,7.5-4.6,9.3-7.4l1.3-2l-4.6-3.6l-1.3,2.1c-1.2,1.9-3.1,4.2-5.8,4.8c-0.6,0.1-0.9,0.2-1.2,0.2c-0.8-0.1-1.4-0.6-2.6-1.9
			c-1.3-1.4-2.8-3-5.3-3.7c-0.8-0.2-3-0.9-5.6,0c-2.3,0.7-3.8,2.2-5,3.5c-1.1,1.1-1.9,1.9-3.1,2.1c-0.5,0.1-0.8,0-0.9,0
			c-1-0.2-1.6-0.8-2.8-2.2c-1.2-1.4-2.7-3.2-5.2-3.8c-2.2-0.6-4.1,0-5.1,0.4c-2.6,0.9-4.2,2.5-5.4,3.9c-1.3,1.3-1.8,1.8-2.8,2
			c-0.6,0.1-1,0-1.6-0.2c-2.8-0.7-4.5-3.4-5.3-4.9l-1.2-2.2l-4.8,3.2l1.1,2.1C20.6,208.4,23.5,212.5,28.3,213.7z"/>
		<path class="st2" d="M82.1,220.3c-1.2,1.9-3.1,4.2-5.8,4.8c-0.6,0.2-0.9,0.2-1.2,0.2c-0.8-0.1-1.4-0.6-2.6-1.9
			c-1.2-1.3-2.8-3-5.3-3.7c-0.8-0.2-3-0.9-5.6,0c-2.3,0.7-3.8,2.2-5,3.5c-1.1,1.1-1.9,1.9-3.1,2.1c-0.5,0.1-0.9,0-0.9,0
			c-1-0.2-1.6-0.8-2.8-2.2c-1.2-1.4-2.7-3.2-5.2-3.8c-2.2-0.6-4.1,0-5.1,0.4c-2.6,0.9-4.2,2.5-5.4,3.9c-1.3,1.3-1.8,1.8-2.8,2
			c-0.6,0.1-1,0-1.6-0.2c-2.8-0.7-4.5-3.4-5.3-4.9l-1.2-2.2l-4.8,3.2l1.1,2.1c1.2,2.3,4.1,6.4,8.9,7.7c0.6,0.2,1.5,0.4,2.6,0.4
			c0.3,0,0.7,0,1.1-0.1c2.9-0.4,4.6-2.3,5.9-3.6c1.1-1.1,1.9-2,3.2-2.4c0.8-0.3,1.4-0.5,2.1-0.3c0.9,0.2,1.5,1,2.4,2.1
			c1.3,1.5,3.1,3.6,6.1,4.1c0.5,0.1,1.3,0.2,2.3,0c3.1-0.4,4.9-2.3,6.3-3.7c1-1,1.7-1.8,2.7-2.1c1.1-0.4,2.2-0.1,2.6,0.1
			c1.1,0.3,1.8,1.1,2.8,2.2c1.3,1.4,3.1,3.3,6,3.6c1.3,0.1,2.2-0.1,2.9-0.3c4.5-1,7.5-4.6,9.3-7.4l1.3-2l-4.5-3.6L82.1,220.3z"/>
	</g>
	<path class="st2" d="M229.9,171.3c24.7,0,44.8,20.1,44.8,44.8S254.7,261,229.9,261c-24.7,0-44.8-20.1-44.8-44.8
		S205.2,171.3,229.9,171.3 M229.9,163c-29.3,0-53.1,23.8-53.1,53.1s23.8,53.1,53.1,53.1s53.1-23.8,53.1-53.1S259.3,163,229.9,163
		L229.9,163z"/>
	<path class="st2" d="M179.8,66c-0.9-3.7-1.5-7.5-1.6-11.4c-10.3-4.3-21.6-6.7-33.4-6.7c-14,0-27.1,3.3-38.8,9.2
		c-0.3,4.3-1.1,8.5-2.3,12.4c11.9-7.6,26-12,41.1-12C157.4,57.5,169.3,60.6,179.8,66z"/>
	<path class="st2" d="M75.4,101.6c-3.8,1.8-7.8,3.1-12,3.9c-3.2,9-4.9,18.7-4.9,28.8c0,10.5,1.9,20.5,5.3,29.7
		c4.3,0.9,8.4,2.3,12.3,4.2C70.9,158,68,146.5,68,134.4C68,122.6,70.6,111.5,75.4,101.6z"/>
	<path class="st2" d="M231.3,134.4c0-10-1.7-19.5-4.8-28.4c-3.9-0.3-7.6-1.1-11.2-2.2c4.1,9.4,6.4,19.8,6.4,30.6
		c0,11-2.3,21.4-6.5,30.8c3.6-1,7.3-1.7,11.2-1.9C229.5,154.2,231.3,144.5,231.3,134.4z"/>
	<g>
		<polygon class="st5" points="155.3,132.4 141.8,146.1 155.3,146.1 		"/>
		<polygon class="st5" points="155.3,89.8 144.6,81.9 136.8,87.6 155.3,105.4 		"/>
		<polygon class="st5" points="132.1,164.1 129,185.9 152.8,185.9 		"/>
		<polygon class="st5" points="136.1,138 145.8,126 136.1,126 		"/>
		<polygon class="st5" points="158.7,175.8 156.1,157.4 141.4,157.4 		"/>
		<polygon class="st5" points="166.6,114.6 189.4,114.6 166.6,98 		"/>
		<path class="st5" d="M150.9,210.9c4.3-0.3,8.5-1,12.6-2.1l-1.1-7.3L150.9,210.9z"/>
		<polygon class="st5" points="122.6,114.6 122.6,98 99.8,114.6 		"/>
		<path class="st5" d="M125.7,208.8c2.6,0.7,5.3,1.2,8,1.6l16.3-13.2h-22.6L125.7,208.8z"/>
		<path class="st2" d="M210.1,115.7l-62-45.2l-0.1,0.2c-2-1.6-4.8-1.7-6.9-0.2l-61.9,45.2c-2.5,1.8-3.1,5.4-1.2,7.9
			c1.1,1.5,2.8,2.3,4.6,2.3l40.2,0v25.1c0,0,0,0.1,0,0.1l-5.6,38.6l-10.9,10.8c-1-0.6-1.9-1.2-2.9-1.8c1.4,4,2.3,8.3,2.7,12.7
			c11.7,5.9,24.9,9.2,38.9,9.2c11.3,0,22.2-2.2,32.1-6.2c0.2-6.3,1.4-12.2,3.6-17.8l-8.5-8.3l-5.4-37.2V126l40.2,0
			c3.1,0,5.7-2.5,5.7-5.7C212.4,118.5,211.6,116.8,210.1,115.7z M158.7,175.8l-17.4-18.3h14.7L158.7,175.8z M136.1,138V126l9.7,0
			L136.1,138z M155.3,132.4v13.7h-13.5L155.3,132.4z M144.6,81.9l10.8,7.8v15.6l-18.5-17.8L144.6,81.9z M133.9,100.5l13,12.5h-13
			V100.5z M132.1,164.1l20.6,21.8H129L132.1,164.1z M122.6,114.6H99.8L122.6,98V114.6z M133.7,210.4c-2.7-0.4-5.4-0.9-8-1.6
			l1.7-11.6h22.6L133.7,210.4z M150.9,210.9l11.5-9.4l1.1,7.3C159.5,209.9,155.3,210.6,150.9,210.9z M166.6,114.6V98l22.8,16.6
			L166.6,114.6z"/>
	</g>
	<path class="st2" d="M221.7,35.9v5.8h19.2v-5.8c0-5.3-4.3-9.6-9.6-9.6S221.7,30.6,221.7,35.9z M214,41.7v-5.8
		c0-9.6,7.7-17.3,17.3-17.3c9.6,0,17.3,7.7,17.3,17.3v5.8h1.9c4.2,0,7.7,3.4,7.7,7.7v23.1c0,4.2-3.4,7.7-7.7,7.7h-38.4
		c-4.2,0-7.7-3.4-7.7-7.7V49.4c0-4.2,3.4-7.7,7.7-7.7H214z"/>
	<g>
		<path class="st2" d="M240.8,208.3c-1-0.1-2,0.4-2.7,1.4l-3,4.5c-0.1,0.2-0.3,0.3-0.4,0.3c-0.1,0-0.3-0.1-0.4-0.3l-7.6-12.3
			c-0.6-1-1.6-1.5-2.6-1.5c0,0,0,0,0,0c-1,0-2,0.6-2.6,1.5c-4.2,6.7-6.3,11-6.3,16c0,10.6,6.2,18.1,15.1,18.1c3.3,0,6.3-1.2,9.2-3.6
			c5.5-4.9,7.1-14.4,3.8-22.1C242.7,209.1,241.8,208.4,240.8,208.3z"/>
		<path class="st2" d="M254.2,202.5c-2.5-5.4-5.8-10.2-9-13.4c-2.5-2.4-6.4-2.4-8.9,0c-0.7,0.7-1.5,1.6-2.2,2.6
			c-2.1-2.6-4.3-5.3-6.3-7.1c-2.5-2.3-6.3-2.4-8.8,0c-4.2,4-8.5,9.4-11.6,14.9c-2.7,4.7-5.9,11.8-5.9,18.8
			c0,16.3,12.5,29.1,28.4,29.1c15.9,0,28.4-12.8,28.4-29.1C258.4,213.9,256.9,208.3,254.2,202.5z M249.9,218.4
			c0,11.6-8.8,20.6-20,20.6c-11.2,0-20-9.1-20-20.6c0-4,1.7-9.2,4.8-14.6l0.1-0.3c2.4-4.1,5.4-8.1,8.5-11.3c1.9,2.1,4.1,4.8,6,7.3
			l1.6,2c0.8,1,2,1.6,3.3,1.6c0,0,0,0,0.1,0c1.3,0,2.5-0.6,3.3-1.7c0.3-0.4,0.7-0.9,1.1-1.5l1.4-2c0.3-0.4,0.5-0.7,0.7-1
			c2,2.4,4,5.7,5.7,9.2C248.7,210.7,249.9,215.2,249.9,218.4z"/>
	</g>
</g>
</svg>
