<?xml version="1.0" encoding="utf-8"?>
<!-- Generator: Adobe Illustrator 28.1.0, SVG Export Plug-In . SVG Version: 6.00 Build 0)  -->
<svg version="1.1" id="Layer_1" xmlns="http://www.w3.org/2000/svg" xmlns:xlink="http://www.w3.org/1999/xlink" x="0px" y="0px"
	 width="801.7px" height="759px" viewBox="0 0 801.7 759" style="enable-background:new 0 0 801.7 759;" xml:space="preserve">
<style type="text/css">
	.st0{fill:#5B95CF;}
	.st1{fill:#213A64;}
	.st2{fill:#010101;}
	.st3{fill:#FFFFFF;}
	.st4{fill:#5B95CF;stroke:#5B95CF;stroke-miterlimit:10;}
	.st5{fill:none;}
	.st6{fill:#FFFFFF;stroke:#FFFFFF;stroke-miterlimit:10;}
</style>
<g>
	<path class="st2" d="M408.3,135c-134.6,0-243.7,109.1-243.7,243.7s109.1,243.7,243.7,243.7S652,513.4,652,378.8
		S542.9,135,408.3,135z M345.6,323.2h-64.4l64.4-47V323.2z M440,443.8l7.5,51.7l-48.9-51.7H440z M399.7,412l38.2-38.7V412H399.7z
		 M437.9,297.1l-52.1-50.1l21.8-15.9l30.3,22.1V297.1z M414.3,318.6h-36.8v-35.4L414.3,318.6z M411.1,355.1l-33.6,34v-34
		L411.1,355.1z M430.6,524h-67l8.9-61.4L430.6,524z M458.1,568.2l3,20.6c-11.5,2.9-23.4,4.8-35.5,5.8L458.1,568.2z M422.7,555.9
		L376.9,593c-7.6-1.1-15.2-2.6-22.5-4.5l4.7-32.6H422.7z M518.9,564.8L485,531.7l-15.2-104.9v-71.6l113.2,0
		c8.8,0,15.9-7.1,15.9-15.9c0-5.1-2.4-9.9-6.5-12.9L417.5,198.8l-0.4,0.6c-5.6-4.6-13.6-4.8-19.5-0.6L223,326.3
		c-7.1,5.2-8.7,15.2-3.5,22.3c3,4.1,7.8,6.5,12.9,6.5l113.2,0V426c0,0.1-0.1,0.2-0.1,0.3l-15.7,109l-30.7,30.4
		C235,528.1,191.7,458.4,191.7,378.8c0-119.4,97.2-216.6,216.6-216.6c119.4,0,216.6,97.2,216.6,216.6
		C624.9,457.8,582.3,527,518.9,564.8z M469.8,323.2v-46.9l64.3,46.9L469.8,323.2z"/>
	<g>
		<g>
			<circle class="st3" cx="149.8" cy="149.7" r="149.7"/>
			<path class="st2" d="M149.8,23.3c69.7,0,126.4,56.7,126.4,126.4s-56.7,126.4-126.4,126.4c-69.7,0-126.4-56.7-126.4-126.4
				S80.1,23.3,149.8,23.3 M149.8,0C67.1,0,0.1,67,0.1,149.7c0,82.7,67,149.7,149.7,149.7s149.7-67,149.7-149.7
				C299.4,67,232.4,0,149.8,0L149.8,0z"/>
		</g>
		<path class="st0" d="M84,140.3h63.5c27.8,0,50.3-22.6,50.3-50.3c0-20.6-16.7-37.3-37.3-37.3S123.1,69.4,123.1,90
			c0,7.2,5.8,12.9,12.9,12.9c7.2,0,12.9-5.8,12.9-12.9c0-6.4,5.2-11.5,11.5-11.5c6.3,0,11.5,5.2,11.5,11.5c0,13.5-11,24.4-24.4,24.4
			H84c-7.2,0-12.9,5.8-12.9,12.9S76.9,140.3,84,140.3z"/>
	</g>
	<path class="st0" d="M81.2,188.4h80.1c13.5,0,24.4,11,24.4,24.4c0,6.4-5.2,11.5-11.5,11.5s-11.5-5.2-11.5-11.5
		c0-7.2-5.8-12.9-12.9-12.9s-12.9,5.8-12.9,12.9c0,20.6,16.7,37.3,37.3,37.3s37.3-16.7,37.3-37.3c0-27.8-22.6-50.3-50.3-50.3H81.2
		c-7.2,0-12.9,5.8-12.9,12.9S74,188.4,81.2,188.4z"/>
	<g>
		<g>
			<circle class="st3" cx="652" cy="149.7" r="149.7"/>
			<path class="st2" d="M652,23.3c69.7,0,126.4,56.7,126.4,126.4S721.7,276.1,652,276.1c-69.7,0-126.4-56.7-126.4-126.4
				S582.3,23.3,652,23.3 M652,0c-82.7,0-149.7,67-149.7,149.7c0,82.7,67,149.7,149.7,149.7s149.7-67,149.7-149.7
				C801.7,67,734.7,0,652,0L652,0z"/>
		</g>
	</g>
	<g>
		<g>
			<circle class="st3" cx="149.7" cy="609.3" r="149.7"/>
			<path class="st2" d="M149.7,482.9c69.7,0,126.4,56.7,126.4,126.4s-56.7,126.4-126.4,126.4C80,735.7,23.3,679,23.3,609.3
				S80,482.9,149.7,482.9 M149.7,459.6C67,459.6,0,526.7,0,609.3S67,759,149.7,759s149.7-67,149.7-149.7S232.3,459.6,149.7,459.6
				L149.7,459.6z"/>
		</g>
	</g>
	<g>
		<g>
			<circle class="st3" cx="648.2" cy="609.3" r="149.7"/>
			<path class="st2" d="M648.2,482.9c69.7,0,126.4,56.7,126.4,126.4s-56.7,126.4-126.4,126.4c-69.7,0-126.4-56.7-126.4-126.4
				S578.5,482.9,648.2,482.9 M648.2,459.6c-82.7,0-149.7,67-149.7,149.7S565.6,759,648.2,759s149.7-67,149.7-149.7
				S730.9,459.6,648.2,459.6L648.2,459.6z"/>
		</g>
		<path class="st4" d="M597.9,570.3c8.9-15.4,20.2-29.7,30.4-39.6c7,7,15.3,17.6,22.5,26.8c1.4,1.8,2.8,3.6,4.1,5.2
			c1.7,2.2,4.4,3.4,7.1,3.4c2.8,0,5.4-1.3,7.1-3.6c1.2-1.6,2.9-4,4.6-6.5c1-1.4,2-2.8,2.9-4.2c2.1-3,3.9-5.4,5.4-7.1
			c7.5,7.8,15.3,19.8,21.5,33.1c6.6,14.3,10.7,28.8,10.7,39.7c0,38.5-29.5,67.8-65.8,67.8c-36.8,0-65.8-29.3-65.8-67.8
			C582.4,603.5,588.5,586.7,597.9,570.3L597.9,570.3z M639.1,516.2c-6.1-5.8-15.5-5.8-21.6,0c-12,11.3-25.1,27.5-35.2,45.2
			c-10.1,17.6-17.8,37.6-17.8,56.1c0,48,36.7,85.8,83.8,85.8c46.6,0,83.8-37.7,83.8-85.8c0-14.6-5.2-31.9-12.4-47.3
			c-7.2-15.5-16.9-30.4-26.9-40c-6.1-5.9-15.7-5.9-21.8,0c-3,2.8-6.4,7.5-9.1,11.3l-0.4,0.6C654.4,533.2,646.1,522.9,639.1,516.2z
			 M648.9,667.4c9.5,0,17.8-3.3,25.7-10c15.7-13.9,20-41.8,10.5-63.8c-1.7-4.3-6-4.6-8.4-0.9l-9.4,13.9c-2.5,3.6-6.9,3.5-9.2-0.2
			c-6.2-10-17.2-27.7-23.5-37.9c-2.4-3.8-6.8-3.8-9.2,0c-12.6,20.2-19,32.9-19,47.1C606.4,648.2,625.3,667.4,648.9,667.4z"/>
	</g>
	<g>
		<g>
			<path class="st4" d="M78.2,607.6c-2.9,0-5.2-0.6-7-1.1c-13.3-3.5-21.2-15-24.7-21.6l-2.5-4.6l10.7-7.1l2.5,4.6
				c2.5,4.7,8,12.8,16.9,15.2c1.9,0.5,3.4,0.9,5.4,0.6c3.5-0.5,5.5-2.5,9.2-6.3c3.6-3.7,8-8.4,15.2-10.8c3.2-1.1,8-2.7,13.9-1.1
				c6.6,1.8,10.6,6.5,14.1,10.6c3.5,4,5.8,6.5,9.4,7.2c0.4,0.1,1.6,0.2,3.1,0c4.2-0.5,6.7-3.1,10.1-6.6c3.5-3.6,7.5-7.7,13.9-9.8
				c7.1-2.3,13.1-0.6,15.4,0.1c6.9,2,11,6.4,14.7,10.3c3.5,3.8,5.5,5.8,8.8,6.1c1.4,0.1,2.5-0.1,4.3-0.5c8.5-2,14.6-9.2,18.3-15
				l2.8-4.4l10.2,8l-2.8,4.4c-4.9,7.8-13.5,17.8-26,20.6c-2.2,0.5-4.6,1.1-8,0.7c-7.7-0.8-12.5-5.9-16.3-9.9
				c-2.9-3.1-5.4-5.8-9.1-6.8c-1.5-0.4-4.9-1.4-8.8-0.2c-3.5,1.1-5.8,3.5-8.8,6.6c-4,4.1-9,9.2-17.3,10.2c-2.7,0.3-4.9,0.1-6.3-0.1
				c-8.1-1.4-12.8-6.9-16.6-11.3c-2.8-3.3-5-5.8-8.1-6.7c-2.6-0.7-4.7,0-7.3,0.9c-4.4,1.5-7.1,4.3-10.3,7.6c-3.8,4-8.6,8.9-16.2,10
				C80,607.6,79.1,607.6,78.2,607.6z"/>
		</g>
		<g>
			<path class="st4" d="M78.2,658.5c-2.9,0-5.2-0.6-7-1.1c-13.4-3.5-21.2-15-24.7-21.6l-2.5-4.6l10.7-7.1l2.5,4.6
				c2.5,4.7,8,12.8,16.9,15.2c1.9,0.5,3.4,0.9,5.4,0.6c3.5-0.5,5.5-2.5,9.2-6.3c3.6-3.7,8-8.4,15.2-10.8c3.2-1.1,8-2.7,13.9-1.1
				c6.6,1.8,10.6,6.5,14.1,10.6c3.5,4,5.8,6.5,9.4,7.2c0.2,0,1.5,0.2,3.1,0c4.2-0.5,6.7-3,10.1-6.6c3.5-3.6,7.5-7.7,13.8-9.8
				c7.1-2.3,13.1-0.6,15.4,0.1c6.9,2,11,6.4,14.7,10.3c3.5,3.8,5.5,5.8,8.8,6.1c1.4,0.2,2.4-0.1,4.3-0.5c8.5-2,14.6-9.2,18.3-15
				l2.8-4.4l10.2,8l-2.8,4.4c-4.9,7.8-13.5,17.8-26,20.6c-2.2,0.5-4.6,1.1-8,0.7c-7.7-0.8-12.5-5.9-16.3-9.9
				c-2.9-3.1-5.4-5.8-9.1-6.8c-1.5-0.4-4.9-1.4-8.8-0.2c-3.5,1.1-5.8,3.5-8.8,6.6c-4,4.1-9,9.2-17.3,10.2c-2.7,0.3-4.9,0.1-6.3-0.1
				c-8.1-1.4-12.8-6.9-16.6-11.3c-2.8-3.3-5-5.8-8.1-6.7c-2.6-0.7-4.8,0-7.3,0.9c-4.3,1.5-7.1,4.3-10.2,7.6c-3.8,4-8.6,8.9-16.2,10
				C80,658.4,79.1,658.5,78.2,658.5z"/>
		</g>
	</g>
	<path class="st0" d="M709.9,111.9h-5.8V94.5c0-28.8-23.3-52.1-52.1-52.1c-28.8,0-52.1,23.3-52.1,52.1v17.4h-5.8
		c-12.8,0-23.1,10.4-23.1,23.1v69.4c0,12.8,10.4,23.1,23.1,23.1h115.7c12.8,0,23.1-10.4,23.1-23.1V135
		C733,122.3,722.6,111.9,709.9,111.9z M680.9,111.9h-57.9V94.5c0-16,12.9-28.9,28.9-28.9s28.9,12.9,28.9,28.9V111.9z"/>
</g>
</svg>
