<svg id="Layer_1" data-name="Layer 1" xmlns="http://www.w3.org/2000/svg" viewBox="0 0 246.56 221.58"><defs><style>.cls-1{fill:#fff;}</style></defs><polygon class="cls-1" points="51.09 148.69 51.09 141.23 47.32 141.23 47.32 152.39 58.48 152.39 58.48 148.69 51.09 148.69"/><polygon class="cls-1" points="65.94 133.77 47.32 133.77 47.32 139.31 51.02 139.31 51.02 137.47 62.24 137.47 62.24 148.69 60.4 148.69 60.4 152.39 65.94 152.39 65.94 133.77"/><path class="cls-1" d="M141.34,144.76H147v13.66h8.12v4.69h-13.8V144.76Z" transform="translate(-70.45 -10.79)"/><path class="cls-1" d="M157.59,144.76h14.26v4.69h-8.59v2.31h7.33v4.35h-7.33v7h-5.67Z" transform="translate(-70.45 -10.79)"/><path class="cls-1" d="M186.44,163.24h-10.3V144.69h10.3v1.19h-9v7h8.45v1.19h-8.45V162h9Z" transform="translate(-70.45 -10.79)"/><path class="cls-1" d="M204.39,163.24h-1.32l-11.15-16.43h-.14c.14,2,.14,3.43.14,4.42v12h-1.19V144.69h1.32l11.16,16.44h.06c-.06-1.52-.13-3-.13-4.36V144.69h1.25v18.55Z" transform="translate(-70.45 -10.79)"/><path class="cls-1" d="M220,163.24h-10.3V144.69H220v1.19h-9v7h8.45v1.19H211V162h9Z" transform="translate(-70.45 -10.79)"/><path class="cls-1" d="M225.59,155.19v8.05h-1.32V144.69h4.49a8.47,8.47,0,0,1,5.15,1.26,4.48,4.48,0,0,1,1.65,3.83,5.06,5.06,0,0,1-1,3.17,5.6,5.6,0,0,1-3,1.84l5.08,8.45H235l-4.82-8.05Zm0-1.12h3.56a5.59,5.59,0,0,0,3.7-1.06,3.8,3.8,0,0,0,1.32-3.1,3.66,3.66,0,0,0-1.26-3.1,6.94,6.94,0,0,0-4.22-1h-3.1Z" transform="translate(-70.45 -10.79)"/><path class="cls-1" d="M247.11,153.74h6.8V162a15.63,15.63,0,0,1-6,1.12c-2.9,0-5.15-.79-6.67-2.44a9.75,9.75,0,0,1-2.31-6.87,10.37,10.37,0,0,1,1.13-4.88,7.9,7.9,0,0,1,3.3-3.3,10.07,10.07,0,0,1,5-1.19,12.92,12.92,0,0,1,5.41,1.12l-.53,1.12a11.85,11.85,0,0,0-5-1.12,7.35,7.35,0,0,0-5.74,2.25,8.44,8.44,0,0,0-2.11,5.94c0,2.7.66,4.75,2,6.14s3.3,2,5.94,2a11.74,11.74,0,0,0,4.3-.72v-6.41h-5.48v-1Z" transform="translate(-70.45 -10.79)"/><path class="cls-1" d="M262.82,154.79l5.48-10.1h1.39L263.48,156v7.13h-1.32v-7l-6.27-11.42h1.52Z" transform="translate(-70.45 -10.79)"/><path class="cls-1" d="M80.41,183.7V184c0,2.81-1.14,5.56-4.81,5.56-3.93,0-5.15-2.53-5.15-8.1s1.22-8.1,5.18-8.1c4.43,0,4.69,3.28,4.69,4.89v.29H77.83v-.26c0-1.45-.43-3.11-2.23-3s-2.66,1.14-2.66,6.16.83,6.29,2.66,6.29c2.08,0,2.32-2.32,2.32-3.76v-.26Z" transform="translate(-70.45 -10.79)"/><path class="cls-1" d="M85.1,173.7h3.19l4.11,15.59H89.8l-1-3.82H84.27l-1,3.82h-2.6Zm3.32,9.78-1.79-7.69h0l-1.86,7.69Z" transform="translate(-70.45 -10.79)"/><path class="cls-1" d="M93.49,173.7H99c2.18,0,4,1.09,4,4,0,2-.89,3.55-2.6,3.82v0c1.55.15,2.36,1,2.45,3.19,0,1,0,2.23.09,3.16a1.6,1.6,0,0,0,.74,1.36H100.8a2.62,2.62,0,0,1-.41-1.38c-.09-.94-.07-1.81-.11-2.95,0-1.7-.57-2.44-2.27-2.44H96v6.77H93.49ZM98,180.64a2.29,2.29,0,0,0,2.49-2.53c0-1.66-.72-2.53-2.36-2.53H96v5.06Z" transform="translate(-70.45 -10.79)"/><path class="cls-1" d="M105.21,173.7h5.05c2.31,0,4.19,1,4.19,3.78,0,1.9-.74,3.05-2.29,3.53v.05c1.7.3,2.79,1.33,2.79,4s-1.88,4.26-4.8,4.26h-4.94Zm4.46,6.57A2.19,2.19,0,0,0,112,177.8c0-1.85-1.11-2.22-2.51-2.22H107.7v4.69Zm.5,7.14c1.48,0,2.29-1,2.29-2.75A2.37,2.37,0,0,0,110,182H107.7v5.39Z" transform="translate(-70.45 -10.79)"/><path class="cls-1" d="M116.57,181.49c0-5.56,1.57-8.1,5.15-8.1s5.15,2.54,5.15,8.1-1.57,8.1-5.15,8.1S116.57,187.06,116.57,181.49Zm7.81-.06c0-5.24-1.18-6.16-2.66-6.16s-2.66.92-2.66,6.16,1.18,6.29,2.66,6.29S124.38,186.8,124.38,181.43Z" transform="translate(-70.45 -10.79)"/><path class="cls-1" d="M129.08,173.7h3l4.52,11.61h.05V173.7H139v15.59h-3l-4.52-11.92h0v11.92h-2.36Z" transform="translate(-70.45 -10.79)"/><path class="cls-1" d="M146.85,173.7h4.43c4.9,0,5.51,3.19,5.51,7.79s-.61,7.8-5.51,7.8h-4.43Zm2.49,13.71h2c2.06,0,2.91-1.35,2.91-5.92,0-4.39-.74-5.91-2.91-5.91h-2Z" transform="translate(-70.45 -10.79)"/><path class="cls-1" d="M161.94,173.7h3.19l4.1,15.59h-2.6l-1-3.82h-4.56l-1,3.82h-2.6Zm3.32,9.78-1.79-7.69h0l-1.86,7.69Z" transform="translate(-70.45 -10.79)"/><path class="cls-1" d="M171.68,175.79H168V173.7h9.84v2.09h-3.64v13.5h-2.49Z" transform="translate(-70.45 -10.79)"/><path class="cls-1" d="M181,173.7h3.19l4.1,15.59h-2.6l-1-3.82h-4.56l-1,3.82h-2.6Zm3.32,9.78-1.79-7.69h0l-1.86,7.69Z" transform="translate(-70.45 -10.79)"/><path class="cls-1" d="M196.53,184.46v.4c0,1.9.83,2.86,2.55,2.86a2.22,2.22,0,0,0,2.36-2.27,2.63,2.63,0,0,0-2.23-2.78l-1.7-.59c-2.27-.87-3.25-2.05-3.25-4.28,0-2.84,1.92-4.41,4.84-4.41,4,0,4.41,2.49,4.41,4.11v.35H201v-.33c0-1.42-.63-2.25-2.18-2.25a2,2,0,0,0-2.09,2.25c0,1.33.67,2,2.33,2.64l1.68.61c2.21.79,3.17,2,3.17,4.13,0,3.32-2,4.69-5.15,4.69-3.87,0-4.74-2.57-4.74-4.76v-.37Z" transform="translate(-70.45 -10.79)"/><path class="cls-1" d="M205.94,173.7h4.93c3,0,4.3,1.88,4.3,4.54s-1.63,4.61-4.56,4.61h-2.18v6.44h-2.49Zm2.49,7.27h1.77c1.33,0,2.48-.72,2.48-2.69,0-1.68-.67-2.7-2.66-2.7h-1.59Z" transform="translate(-70.45 -10.79)"/><path class="cls-1" d="M216.86,173.7h8.42v2.09h-5.94v4.33h5.59v2.09h-5.59v5h6.12v2.1h-8.6Z" transform="translate(-70.45 -10.79)"/><path class="cls-1" d="M236.94,183.7V184c0,2.81-1.13,5.56-4.8,5.56-3.93,0-5.15-2.53-5.15-8.1s1.22-8.1,5.17-8.1c4.43,0,4.7,3.28,4.7,4.89v.29h-2.49v-.26c0-1.45-.44-3.11-2.23-3s-2.66,1.14-2.66,6.16.83,6.29,2.66,6.29c2.07,0,2.31-2.32,2.31-3.76v-.26Z" transform="translate(-70.45 -10.79)"/><path class="cls-1" d="M238.58,173.7h2.49v15.59h-2.49Z" transform="translate(-70.45 -10.79)"/><path class="cls-1" d="M243.54,173.7h8.32v2.09H246v4.33h5.48v2.09H246v7.08h-2.49Z" transform="translate(-70.45 -10.79)"/><path class="cls-1" d="M253.54,173.7H256v15.59h-2.49Z" transform="translate(-70.45 -10.79)"/><path class="cls-1" d="M268.08,183.7V184c0,2.81-1.14,5.56-4.8,5.56-3.93,0-5.16-2.53-5.16-8.1s1.23-8.1,5.18-8.1c4.43,0,4.69,3.28,4.69,4.89v.29H265.5v-.26c0-1.45-.43-3.11-2.22-3s-2.67,1.14-2.67,6.16.83,6.29,2.67,6.29c2.07,0,2.31-2.32,2.31-3.76v-.26Z" transform="translate(-70.45 -10.79)"/><path class="cls-1" d="M272.77,173.7H276l4.11,15.59h-2.6l-1-3.82h-4.57l-1,3.82h-2.6Zm3.32,9.78-1.79-7.69h0l-1.86,7.69Z" transform="translate(-70.45 -10.79)"/><path class="cls-1" d="M282.51,175.79H278.8V173.7h9.85v2.09H285v13.5h-2.49Z" transform="translate(-70.45 -10.79)"/><path class="cls-1" d="M290,173.7h2.49v15.59H290Z" transform="translate(-70.45 -10.79)"/><path class="cls-1" d="M294.54,181.49c0-5.56,1.58-8.1,5.16-8.1s5.15,2.54,5.15,8.1-1.57,8.1-5.15,8.1S294.54,187.06,294.54,181.49Zm7.82-.06c0-5.24-1.18-6.16-2.66-6.16s-2.67.92-2.67,6.16,1.18,6.29,2.67,6.29S302.36,186.8,302.36,181.43Z" transform="translate(-70.45 -10.79)"/><path class="cls-1" d="M307.06,173.7h3l4.52,11.61h0V173.7H317v15.59h-3l-4.52-11.92h0v11.92h-2.35Z" transform="translate(-70.45 -10.79)"/><path class="cls-1" d="M92.56,219.28V220c0,6.26-2.52,12.37-10.67,12.37-8.72,0-11.44-5.63-11.44-18s2.72-18,11.49-18c9.84,0,10.42,7.27,10.42,10.85v.63H86.84v-.58c0-3.2-1-6.88-5-6.74S76,203.09,76,214.24s1.84,14,5.91,14c4.61,0,5.14-5.14,5.14-8.34v-.58Z" transform="translate(-70.45 -10.79)"/><path class="cls-1" d="M95.61,214.38c0-12.36,3.49-18,11.44-18s11.44,5.62,11.44,18-3.49,18-11.44,18S95.61,226.74,95.61,214.38Zm17.36-.14c0-11.64-2.62-13.68-5.92-13.68s-5.91,2-5.91,13.68c0,11.92,2.62,14,5.91,14S113,226.16,113,214.24Z" transform="translate(-70.45 -10.79)"/><path class="cls-1" d="M123.39,197.07h6.74l10,25.79h.1V197.07h5.24v34.62h-6.74l-10-26.47h-.09v26.47h-5.24Z" transform="translate(-70.45 -10.79)"/><path class="cls-1" d="M155.48,221v.88c0,4.21,1.84,6.35,5.67,6.35a4.91,4.91,0,0,0,5.24-5c0-3.64-1.84-5.24-4.94-6.16l-3.79-1.31c-5-1.94-7.22-4.56-7.22-9.5,0-6.3,4.27-9.79,10.76-9.79,8.87,0,9.8,5.52,9.8,9.11v.77h-5.53v-.72c0-3.15-1.41-5-4.85-5-2.37,0-4.65,1.31-4.65,5,0,2.95,1.5,4.46,5.18,5.86l3.74,1.36c4.89,1.75,7,4.41,7,9.16,0,7.37-4.46,10.43-11.44,10.43-8.58,0-10.52-5.72-10.52-10.57V221Z" transform="translate(-70.45 -10.79)"/><path class="cls-1" d="M175.55,214.38c0-12.36,3.49-18,11.44-18s11.44,5.62,11.44,18-3.49,18-11.44,18S175.55,226.74,175.55,214.38Zm17.36-.14c0-11.64-2.62-13.68-5.92-13.68s-5.91,2-5.91,13.68c0,11.92,2.62,14,5.91,14S192.91,226.16,192.91,214.24Z" transform="translate(-70.45 -10.79)"/><path class="cls-1" d="M203.33,197.07h12.22c4.85,0,8.77,2.43,8.77,8.92,0,4.46-2,7.91-5.77,8.49v.09c3.45.34,5.24,2.23,5.43,7.08.05,2.23.1,4.95.2,7a3.57,3.57,0,0,0,1.65,3h-6.26a5.93,5.93,0,0,1-.92-3.06c-.19-2.08-.15-4-.24-6.54-.1-3.78-1.26-5.43-5-5.43h-4.51v15h-5.53Zm9.94,15.42c3.54,0,5.53-2.13,5.53-5.62,0-3.69-1.6-5.63-5.24-5.63h-4.7v11.25Z" transform="translate(-70.45 -10.79)"/><path class="cls-1" d="M234.16,201.73h-8.24v-4.66h21.87v4.66h-8.1v30h-5.53Z" transform="translate(-70.45 -10.79)"/><path class="cls-1" d="M250.69,197.07h5.53v34.62h-5.53Z" transform="translate(-70.45 -10.79)"/><path class="cls-1" d="M266.79,197.07V221.9c0,4.36,1.74,6.3,5.09,6.3s5-1.94,5-6.3V197.07h5.53v24.39c0,8-4,10.91-10.57,10.91s-10.62-2.91-10.62-10.91V197.07Z" transform="translate(-70.45 -10.79)"/><path class="cls-1" d="M287.73,197.07h8.63l6.11,25.65h.1l6-25.65H317v34.62h-5.23v-28.8h-.1l-7,28.8H300l-7-28.8H293v28.8h-5.24Z" transform="translate(-70.45 -10.79)"/><path class="cls-1" d="M189.47,94.88a9.47,9.47,0,0,1,.36-2.65A9.47,9.47,0,0,0,189.47,94.88Z" transform="translate(-70.45 -10.79)"/><path class="cls-1" d="M191.55,100.68A9,9,0,0,0,192.8,102c.23.19.46.36.69.53-.23-.17-.46-.34-.69-.53A9,9,0,0,1,191.55,100.68Z" transform="translate(-70.45 -10.79)"/><path class="cls-1" d="M191.55,100.68a9.37,9.37,0,0,1-1.67-3.13A9.37,9.37,0,0,0,191.55,100.68Z" transform="translate(-70.45 -10.79)"/><rect class="cls-1" x="119.52" y="60.38" height="16.74"/><path class="cls-1" d="M195,103.35l-.47-.24Z" transform="translate(-70.45 -10.79)"/><path class="cls-1" d="M194.22,103l-.49-.31Z" transform="translate(-70.45 -10.79)"/><path class="cls-1" d="M200.72,85.59a6.7,6.7,0,0,1,.74.19A6.7,6.7,0,0,0,200.72,85.59Z" transform="translate(-70.45 -10.79)"/><path class="cls-1" d="M196.79,85.59l.34-.06Z" transform="translate(-70.45 -10.79)"/><path class="cls-1" d="M195.94,85.82l.28-.08Z" transform="translate(-70.45 -10.79)"/><path class="cls-1" d="M197.67,85.44l.34,0Z" transform="translate(-70.45 -10.79)"/><path class="cls-1" d="M200,85.46l.5.08Z" transform="translate(-70.45 -10.79)"/><path class="cls-1" d="M199.22,85.39c.16,0,.32,0,.48,0C199.54,85.41,199.38,85.39,199.22,85.39Z" transform="translate(-70.45 -10.79)"/><path class="cls-1" d="M198.76,85.37h0Z" transform="translate(-70.45 -10.79)"/><path class="cls-1" d="M204.43,102.35a9.31,9.31,0,0,0,3.48-5.09,9.31,9.31,0,0,1-3.48,5.09Z" transform="translate(-70.45 -10.79)"/><path class="cls-1" d="M198.32,104.16l-.49,0Z" transform="translate(-70.45 -10.79)"/><path class="cls-1" d="M198.86,104.18h0Z" transform="translate(-70.45 -10.79)"/><path class="cls-1" d="M206.63,89.55A9.05,9.05,0,0,1,207.8,92,9.05,9.05,0,0,0,206.63,89.55Z" transform="translate(-70.45 -10.79)"/><path class="cls-1" d="M205.49,88.16a8.87,8.87,0,0,1,1.14,1.39A8.87,8.87,0,0,0,205.49,88.16Z" transform="translate(-70.45 -10.79)"/><path class="cls-1" d="M197.45,104.07,197,104Z" transform="translate(-70.45 -10.79)"/><polygon class="cls-1" points="135.04 77.37 135.04 77.37 135.04 77.37 140.67 68 140.67 68 135.04 77.37"/><path class="cls-1" d="M195.79,103.66a4.52,4.52,0,0,1-.47-.18A4.52,4.52,0,0,0,195.79,103.66Z" transform="translate(-70.45 -10.79)"/><path class="cls-1" d="M196.61,103.9a4.12,4.12,0,0,1-.47-.13A4.12,4.12,0,0,0,196.61,103.9Z" transform="translate(-70.45 -10.79)"/><path class="cls-1" d="M172.76,50.09a8.62,8.62,0,0,1-.19,1.15A8.62,8.62,0,0,0,172.76,50.09Z" transform="translate(-70.45 -10.79)"/><path class="cls-1" d="M163.45,39.85h0Z" transform="translate(-70.45 -10.79)"/><path class="cls-1" d="M164.4,39.9l.15,0Z" transform="translate(-70.45 -10.79)"/><path class="cls-1" d="M172.43,51.81a9.07,9.07,0,0,1-.4,1.1A9.07,9.07,0,0,0,172.43,51.81Z" transform="translate(-70.45 -10.79)"/><path class="cls-1" d="M182.48,69.91h0L170.82,55a9.62,9.62,0,0,0,1.21-2,9.62,9.62,0,0,1-1.21,2Z" transform="translate(-70.45 -10.79)"/><path class="cls-1" d="M172.25,46a9.46,9.46,0,0,1,.54,3.48,9.31,9.31,0,0,0-4.09-8A9.38,9.38,0,0,1,172.25,46Z" transform="translate(-70.45 -10.79)"/><path class="cls-1" d="M156,55.05a9.37,9.37,0,0,0,2.62,2.32A9.37,9.37,0,0,1,156,55.05Z" transform="translate(-70.45 -10.79)"/><path class="cls-1" d="M162.53,39.9h0Z" transform="translate(-70.45 -10.79)"/><path class="cls-1" d="M166.27,58.19l-.3.08Z" transform="translate(-70.45 -10.79)"/><path class="cls-1" d="M165.37,58.43l-.36.07Z" transform="translate(-70.45 -10.79)"/><path class="cls-1" d="M164.46,58.59l-.39,0Z" transform="translate(-70.45 -10.79)"/><path class="cls-1" d="M163.37,58.66h-.3Z" transform="translate(-70.45 -10.79)"/><rect class="cls-1" x="84.74" y="29" height="3.76"/><rect class="cls-1" x="152.31" y="42.9" height="5" transform="translate(-35 142.34) rotate(-59.27)"/><path class="cls-1" d="M162.72,58.63a4,4,0,0,1-.5-.06A4,4,0,0,0,162.72,58.63Z" transform="translate(-70.45 -10.79)"/><path class="cls-1" d="M157.43,42.06l.14-.12Z" transform="translate(-70.45 -10.79)"/><path class="cls-1" d="M159,41l.14-.08Z" transform="translate(-70.45 -10.79)"/><path class="cls-1" d="M158.22,41.45l.1-.06Z" transform="translate(-70.45 -10.79)"/><path class="cls-1" d="M159.81,40.59l.16-.06Z" transform="translate(-70.45 -10.79)"/><path class="cls-1" d="M160.66,40.28l.1,0Z" transform="translate(-70.45 -10.79)"/><path class="cls-1" d="M161.54,40.05l.18,0Z" transform="translate(-70.45 -10.79)"/><path class="cls-1" d="M154.12,50.28c0-.32-.05-.65-.05-1C154.07,49.63,154.09,50,154.12,50.28Z" transform="translate(-70.45 -10.79)"/><path class="cls-1" d="M161.06,58.36q-.41-.11-.81-.24Q160.66,58.26,161.06,58.36Z" transform="translate(-70.45 -10.79)"/><path class="cls-1" d="M161.89,58.53l-.55-.11Z" transform="translate(-70.45 -10.79)"/><path class="cls-1" d="M218.05,55.54c.16,0,.33.05.49.09C218.38,55.59,218.21,55.57,218.05,55.54Z" transform="translate(-70.45 -10.79)"/><path class="cls-1" d="M217.19,55.46l.5,0Z" transform="translate(-70.45 -10.79)"/><path class="cls-1" d="M218.89,55.7l.47.13Z" transform="translate(-70.45 -10.79)"/><path class="cls-1" d="M219.71,55.94l.46.17Z" transform="translate(-70.45 -10.79)"/><path class="cls-1" d="M221.26,56.62c.17.09.33.19.49.29C221.59,56.81,221.43,56.71,221.26,56.62Z" transform="translate(-70.45 -10.79)"/><path class="cls-1" d="M216.72,55.44c-.22,0-.45,0-.67,0a7,7,0,0,1,.79,0Z" transform="translate(-70.45 -10.79)"/><path class="cls-1" d="M209.79,58.51h0a8.78,8.78,0,0,1,1.32-1.2A8.78,8.78,0,0,0,209.79,58.51Z" transform="translate(-70.45 -10.79)"/><path class="cls-1" d="M222,57.06c.24.16.46.33.68.51C222.45,57.39,222.23,57.22,222,57.06Z" transform="translate(-70.45 -10.79)"/><path class="cls-1" d="M220.5,56.24l.47.23Z" transform="translate(-70.45 -10.79)"/><path class="cls-1" d="M208.67,69.6h0a9.69,9.69,0,0,1-.57-1.11A9.69,9.69,0,0,0,208.67,69.6Z" transform="translate(-70.45 -10.79)"/><path class="cls-1" d="M207.94,61.53a9.3,9.3,0,0,1,1.28-2.33A9.3,9.3,0,0,0,207.94,61.53Z" transform="translate(-70.45 -10.79)"/><path class="cls-1" d="M260.71,105.14a9.47,9.47,0,0,0-1.35-2.65,9.08,9.08,0,0,0-.62-.77,9.69,9.69,0,0,0-1.47-1.31,9.56,9.56,0,0,0-1.73-1h0a9,9,0,0,0-.91-.35l-.32-.08c-.21-.06-.41-.12-.62-.16s-.26,0-.39-.06-.38-.07-.58-.09l-.42,0-.55,0c-.19,0-.38,0-.57,0l-.42,0c-.2,0-.4.06-.59.09l-.4.07c-.22,0-.43.12-.64.18l-.33.09a9.71,9.71,0,0,0-.94.38l-23.59-29.1a9.54,9.54,0,0,0,1.69-3.91,9.06,9.06,0,0,0,.13-1,8.88,8.88,0,0,0,0-.89q0-.45-.06-.9l0-.17a9.29,9.29,0,0,0-.36-1.58,9,9,0,0,0-1.12-2.31,9.37,9.37,0,0,0-1.84-2h0c-.22-.18-.44-.35-.68-.51l-.24-.15c-.16-.1-.32-.2-.49-.29s-.2-.1-.29-.15l-.47-.23-.33-.13-.46-.17-.35-.11-.47-.13-.35-.07c-.16,0-.33-.06-.49-.09l-.36,0-.5,0h-.35a7,7,0,0,0-.79,0h0a9.36,9.36,0,0,0-4.94,1.84,8.78,8.78,0,0,0-1.32,1.2,7.45,7.45,0,0,0-.57.69,9.3,9.3,0,0,0-1.28,2.33c-.1.28-.19.56-.27.85a9.39,9.39,0,0,0-.32,2.65c0,.3,0,.6.06.89a9.39,9.39,0,0,0,.69,2.57,9.69,9.69,0,0,0,.57,1.11c.09.15.18.3.28.45a8.72,8.72,0,0,0,.53.71c.19.23.39.46.6.67h0l-2.26,3.76-6.36,10.59a6.7,6.7,0,0,0-.74-.19l-.24,0-.5-.08-.28,0c-.16,0-.32,0-.48,0h-.67a4.89,4.89,0,0,0-.54,0l-.34,0-.54.09-.34.06-.57.15-.28.08c-.28.1-.55.2-.83.32l-10.28-13.2-2.35-3L170.82,55a9.62,9.62,0,0,0,1.21-2,9.07,9.07,0,0,0,.4-1.1c0-.19.1-.38.14-.57a8.62,8.62,0,0,0,.19-1.15,5.49,5.49,0,0,0,0-.58,9.31,9.31,0,0,0-4.09-8,8.45,8.45,0,0,0-1-.59,9.13,9.13,0,0,0-2.23-.8c-.31-.07-.61-.11-.92-.15l-.15,0c-.29,0-.58,0-.87,0h-.18l-.8,0h0a7.54,7.54,0,0,0-.81.12l-.18,0c-.26.06-.52.12-.78.2l-.1,0-.69.25-.16.06c-.24.1-.48.22-.72.34L159,41l-.63.38-.1.06c-.22.16-.44.32-.65.49l-.14.12a8.37,8.37,0,0,0-.62.57l-3.23-1.92-3.33-2-5-3A9.72,9.72,0,0,0,145.6,34a11.24,11.24,0,0,0,0-1.16h0A9.74,9.74,0,0,0,143.46,27h0a9.89,9.89,0,0,0-.69-.75l-.07-.07a8.54,8.54,0,0,0-.72-.63l-.11-.09c-.25-.19-.51-.37-.77-.53L141,24.8l-.81-.44L140,24.3a8.31,8.31,0,0,0-.87-.35l-.1,0c-.31-.1-.63-.19-1-.27h0c-.33-.07-.66-.12-1-.16l-.09,0c-.32,0-.64-.05-1-.05h-.16c-.23,0-.47,0-.7,0a9.66,9.66,0,0,0-7.6,4.79A9.57,9.57,0,0,0,126.52,31a8.9,8.9,0,0,0-.19,1.15,10,10,0,0,0,0,1.73,9.59,9.59,0,0,0,.9,3.38,11.45,11.45,0,0,0,.56,1l.33.49a9.7,9.7,0,0,0,6.28,3.89c.23,0,.47.07.71.09l.21,0,.53,0H136a7.87,7.87,0,0,0,.84,0l.17,0a8.32,8.32,0,0,0,.85-.13h0c.27-.06.55-.13.82-.21l.15,0c.26-.08.52-.18.78-.28l.15-.07a7.92,7.92,0,0,0,.78-.37h0c.25-.14.49-.29.73-.45l.14-.09c.23-.16.45-.33.67-.51l.13-.1c.22-.2.44-.39.64-.61h0l3.92,2.33,2.95,1.75.38.23,4.3,2.55h0a9.58,9.58,0,0,0-.35,1.74,8.64,8.64,0,0,0,0,.88c0,.33,0,.66.05,1a8.37,8.37,0,0,0,.31,1.63,9.53,9.53,0,0,0,.64,1.65,9.19,9.19,0,0,0,1,1.49,9.37,9.37,0,0,0,2.62,2.32,10.26,10.26,0,0,0,1.61.75h0q.41.14.81.24a2.8,2.8,0,0,0,.28.06l.55.11.33,0a4,4,0,0,0,.5.06h.81l.54,0,.39,0,.55-.09.36-.07a5.25,5.25,0,0,0,.6-.16l.3-.08c.3-.1.59-.21.88-.33l12,15.39,2.35,3,9.95,12.77a9.36,9.36,0,0,0-1.33,2.34c-.1.27-.2.56-.28.84a9.47,9.47,0,0,0-.36,2.65c0,.3,0,.6.05.9a10.28,10.28,0,0,0,.36,1.77,9.37,9.37,0,0,0,1.67,3.13A9,9,0,0,0,192.8,102c.23.19.46.36.69.53l.24.15.49.31.3.15.47.24.33.13a4.52,4.52,0,0,0,.47.18l.35.11a4.12,4.12,0,0,0,.47.13l.37.09.47.08.38.05.49,0,.37,0h.76a9.37,9.37,0,0,0,8.46-6.91,9.16,9.16,0,0,0,.33-2.66A9.43,9.43,0,0,0,207.8,92a9.05,9.05,0,0,0-1.17-2.4,8.87,8.87,0,0,0-1.14-1.39h0l5.63-9.37,3-5h0c.24.08.49.14.74.2l.24,0a4.71,4.71,0,0,0,.52.09l.28,0,.5,0H217a5.63,5.63,0,0,0,.58,0l.35,0,.57-.1.34-.07c.2,0,.4-.1.6-.17l.18,0,.1,0a8.93,8.93,0,0,0,.85-.35l23.59,29.1a9.34,9.34,0,0,0,2.18,13.29h0c.24.16.48.31.73.45l.22.11c.18.1.37.19.56.28l.23.1c.26.1.52.2.78.28h0c.27.08.54.15.82.21l.24,0,.62.1.24,0a7.7,7.7,0,0,0,.83,0h0c.21,0,.43,0,.65,0h.28c.29,0,.58-.08.87-.13h.07a9.36,9.36,0,0,0,5.11-2.83,10,10,0,0,0,1.2-1.6,9.4,9.4,0,0,0,1.31-4.72A9.23,9.23,0,0,0,260.71,105.14ZM140.79,34.54a4.9,4.9,0,0,1-.35.85,3.26,3.26,0,0,1-.24.4,4.49,4.49,0,0,1-.58.71,4.85,4.85,0,0,1-1.1.82,4.48,4.48,0,0,1-.85.35,3.74,3.74,0,0,1-.45.12h0l-.43.07h-.15l-.31,0h0c-.2,0-.4,0-.6,0l-.15,0a3.87,3.87,0,0,1-.59-.13h0a3.83,3.83,0,0,1-.56-.22l-.14-.06a3.6,3.6,0,0,1-.54-.31,4.71,4.71,0,0,1-2-3,4.86,4.86,0,0,1-.09-.92,4.6,4.6,0,0,1,.09-.91,5.24,5.24,0,0,1,.26-.88,4.87,4.87,0,0,1,.44-.81,4.63,4.63,0,0,1,.55-.69l0,0,0,0a5.11,5.11,0,0,1,.68-.55,4.59,4.59,0,0,1,1.69-.7,3.4,3.4,0,0,1,.46-.07h.47a4,4,0,0,1,.6,0l.15,0a5.63,5.63,0,0,1,.59.14h0a3.51,3.51,0,0,1,.57.21l.14.07.54.3.27.21.12.08a4.71,4.71,0,0,1,1.6,2.69A4.59,4.59,0,0,1,140.79,34.54Zm26.53,17.32a3.18,3.18,0,0,1-.27.37,4.44,4.44,0,0,1-.65.65,4.8,4.8,0,0,1-2.06,1l-.45.06h-.15l-.32,0h0a3.83,3.83,0,0,1-.6-.05l-.16,0a4.16,4.16,0,0,1-.59-.13h0a5.59,5.59,0,0,1-.57-.22l-.14-.07a4,4,0,0,1-.53-.3h0a4.68,4.68,0,0,1,1.22-8.38,3.69,3.69,0,0,1,.45-.11,2.44,2.44,0,0,1,.46-.07h.1l.36,0h0a4,4,0,0,1,.6,0l.15,0a3.87,3.87,0,0,1,.59.13h0a3.78,3.78,0,0,1,.56.21.61.61,0,0,1,.14.07,3.55,3.55,0,0,1,.54.3,4.56,4.56,0,0,1,1.3,1.29,4.85,4.85,0,0,1,.7,1.69A4.71,4.71,0,0,1,167.32,51.86Zm36,44.22a4.93,4.93,0,0,1-.59,1.25,4.69,4.69,0,0,1-2.53,1.89l-.45.11-.17,0-.29,0h-.47c-.2,0-.4,0-.6,0l-.15,0a3.87,3.87,0,0,1-.59-.13h0a3.83,3.83,0,0,1-.56-.22l-.14-.06a4.68,4.68,0,0,1-.54-.3,4.54,4.54,0,0,1-.71-.59c-.11-.11-.21-.22-.31-.34a4.64,4.64,0,0,1-1-3.88,5.24,5.24,0,0,1,.26-.88,4.56,4.56,0,0,1,.44-.81,3.28,3.28,0,0,1,.27-.38,5.7,5.7,0,0,1,.65-.65l.37-.27a4.73,4.73,0,0,1,.8-.43,5.1,5.1,0,0,1,.55-.19l.34-.08.1,0,.36-.05h.47a5.65,5.65,0,0,1,.59,0l.16,0c.2,0,.39.08.59.14h0a5.54,5.54,0,0,1,.57.21l.14.07a5.54,5.54,0,0,1,.53.3h0a5,5,0,0,1,1.29,1.29c.09.13.16.26.24.4a4.72,4.72,0,0,1,.46,1.29A4.59,4.59,0,0,1,203.33,96.08Zm17.9-29.88c0,.15-.1.29-.15.43a4.32,4.32,0,0,1-.44.82,4.73,4.73,0,0,1-.92,1A5.6,5.6,0,0,1,219,69a4.9,4.9,0,0,1-.85.35,3,3,0,0,1-.45.12h0a3.11,3.11,0,0,1-.44.06h-.14l-.32,0h0a4,4,0,0,1-.6-.05l-.15,0a3.87,3.87,0,0,1-.59-.13h0a5.59,5.59,0,0,1-.57-.22l-.14-.06a5,5,0,0,1-.54-.31h0a5.62,5.62,0,0,1-.71-.58c-.11-.11-.21-.22-.31-.34a4.22,4.22,0,0,1-.42-.62,4.89,4.89,0,0,1-.44-1c0-.14-.08-.29-.11-.45a5.63,5.63,0,0,1-.1-.92,4.68,4.68,0,0,1,.09-.91,4.89,4.89,0,0,1,.7-1.69c.09-.13.18-.25.28-.37a4.41,4.41,0,0,1,1-.92,4.66,4.66,0,0,1,1.69-.7,3.65,3.65,0,0,1,.46-.07h.15l.31,0h0a4,4,0,0,1,.6,0l.15,0a5.61,5.61,0,0,1,.59.13h0a3.78,3.78,0,0,1,.56.21l.14.07a4.68,4.68,0,0,1,.54.3,4.53,4.53,0,0,1,1.29,1.29,3.84,3.84,0,0,1,.33.59,2.4,2.4,0,0,1,.11.23,4.39,4.39,0,0,1,.27.87A4.71,4.71,0,0,1,221.23,66.2Zm35,43.18a4.12,4.12,0,0,1-.35.85c-.07.13-.15.27-.23.39a4.69,4.69,0,0,1-2.76,1.95l-.22.05-.1,0-.36,0h-.47a4,4,0,0,1-.6,0l-.15,0c-.2,0-.4-.08-.6-.14h0a4.37,4.37,0,0,1-.57-.21l-.13-.07A4.56,4.56,0,0,1,247.1,109a4.93,4.93,0,0,1-.07-1.38,4.53,4.53,0,0,1,.18-.89,4.22,4.22,0,0,1,.35-.85c.07-.14.15-.27.23-.4s.18-.25.28-.37a3.39,3.39,0,0,1,.31-.34,4.69,4.69,0,0,1,1.51-1,4.48,4.48,0,0,1,.88-.27l.15,0,.31,0h.47a4,4,0,0,1,.6,0l.15,0a4.29,4.29,0,0,1,.6.13h0c.19.06.38.14.57.22l.14.06a4.07,4.07,0,0,1,.53.31,4.64,4.64,0,0,1,2,3A4.71,4.71,0,0,1,256.18,109.38Z" transform="translate(-70.45 -10.79)"/><path class="cls-1" d="M217,74.21h0Z" transform="translate(-70.45 -10.79)"/><path class="cls-1" d="M208.67,69.6c.09.15.18.3.28.45-.1-.15-.19-.3-.28-.45Z" transform="translate(-70.45 -10.79)"/><rect class="cls-1" x="183.65" y="69.51" height="3.83" transform="translate(-75.58 117.13) rotate(-37.91)"/><path class="cls-1" d="M219.47,73.8l.18,0h0Z" transform="translate(-70.45 -10.79)"/><polygon class="cls-1" points="140.67 68 140.67 68 143.66 63.02 140.67 68"/><path class="cls-1" d="M231.93,98.81l-5.35-1.41a6.07,6.07,0,0,0-1.76-3.67A6.2,6.2,0,0,0,221.15,92l-3.74-14a6.2,6.2,0,0,0,.48-.43,5.9,5.9,0,0,0,.94-1.23,10.66,10.66,0,0,1-2,.2,11.42,11.42,0,0,1-1.55-.11l-1.73,2.87h.34l3.6,13.43a6.63,6.63,0,0,0-1.28,1,6.1,6.1,0,0,0-1.12,7.08l-9.63,9.63a6.13,6.13,0,0,0-7.08,1.12,6,6,0,0,0-.94,1.22L184,109.17v-.25a6.12,6.12,0,0,0-6.35-6.12l-3.59-13.42a5.08,5.08,0,0,0,1.22-.95,6.09,6.09,0,0,0,1.13-7.08l3.42-3.42-2.36-3-3.79,3.79a6.11,6.11,0,0,0-7.08,1.15,6.38,6.38,0,0,0-1,1.22l-13.42-3.59a6,6,0,0,0-1.78-4.59,6.23,6.23,0,0,0-4.59-1.78l-3.59-13.42a5.81,5.81,0,0,0,1.22-.95,6.1,6.1,0,0,0,1.12-7.08l3.84-3.84-3.32-2L142,47a5.94,5.94,0,0,0-2.75-.67,6.14,6.14,0,0,0-4.33,1.79,6,6,0,0,0-.95,1.22L129.31,48a1.91,1.91,0,0,0-1,3.69l4.84,1.41a6,6,0,0,0,1.76,3.67,6.18,6.18,0,0,0,3.66,1.76l3.75,14c-.15.13-.33.28-.48.43A6.1,6.1,0,0,0,140.72,80l-3.14,3.14a1.94,1.94,0,0,0,0,2.7,1.92,1.92,0,0,0,1.35.56,1.88,1.88,0,0,0,1.35-.56l3.15-3.14a6.12,6.12,0,0,0,7.08-1.12,5,5,0,0,0,.43-.49l2.34.64,11.62,3.11a5.91,5.91,0,0,0,1.76,3.66,6.18,6.18,0,0,0,3.67,1.76l3.74,14a3.34,3.34,0,0,0-.48.44A6.09,6.09,0,0,0,171.8,109a5.94,5.94,0,0,0,.67,2.75l-3.76,3.68a1.91,1.91,0,1,0,2.7,2.7l3.71-3.71a6,6,0,0,0,2.75.67,6.12,6.12,0,0,0,4.33-1.79,4,4,0,0,0,.43-.48l14,3.74a6,6,0,0,0,1.76,3.67A6.18,6.18,0,0,0,202,122l1.41,5.4a1.9,1.9,0,0,0,1.84,1.43,1.61,1.61,0,0,0,.48-.08,1.91,1.91,0,0,0,1.35-2.34l-1.36-5.23a5.45,5.45,0,0,0,1.22-.94,6.1,6.1,0,0,0,1.12-7.08l9.63-9.63a6.22,6.22,0,0,0,2.75.66,6.07,6.07,0,0,0,4.33-1.78,6.38,6.38,0,0,0,1-1.22l5.22,1.36a1.61,1.61,0,0,0,.48.08,1.92,1.92,0,0,0,.49-3.78Zm-55.31,7.66c.15,0-.15,0,0,0Z" transform="translate(-70.45 -10.79)"/><rect class="cls-1" x="151.91" y="37.79" height="3.87" transform="translate(-30.3 139.22) rotate(-59.27)"/><path class="cls-1" d="M242.88,56.17h0l-5.4-1.41a6,6,0,0,0-1.76-3.67,6.18,6.18,0,0,0-3.67-1.76l-3.74-13.94a6.47,6.47,0,0,0,.51-.43,6.14,6.14,0,0,0,1.78-4.33,6,6,0,0,0-.66-2.75l4.24-4.27a1.91,1.91,0,0,0-2.7-2.7l-4.27,4.27a6.13,6.13,0,0,0-7.08,1.12,4.91,4.91,0,0,0-.43.48l-14-3.74A6.07,6.07,0,0,0,204,19.37a6.24,6.24,0,0,0-3.67-1.76l-1.39-5.4a1.91,1.91,0,0,0-3.69,1l1.36,5.23a5.45,5.45,0,0,0-1.22.94,6.1,6.1,0,0,0-1.12,7.08l-9.63,9.63a6.15,6.15,0,0,0-7.08,1.12,4.06,4.06,0,0,0-.44.49l-14-3.75a6,6,0,0,0-1.76-3.67,6.14,6.14,0,0,0-3.66-1.75l-2-7.1a1.92,1.92,0,0,0-3.7,1L154,29.33a5.76,5.76,0,0,0-1.22.94A6.1,6.1,0,0,0,151,34.6a6,6,0,0,0,.36,2.07l5.24,3.11a11.7,11.7,0,0,1,6.88-2.25,11.86,11.86,0,0,1,2.52.27,11.61,11.61,0,0,1,4.53,2.09l5.2,1.39a6,6,0,0,0,1.79,4.58,6.16,6.16,0,0,0,3.66,1.76l3.75,14c-.15.13-.33.28-.49.44a6.13,6.13,0,0,0-1.78,4.31l4.53,5.82a6.11,6.11,0,0,0,6-1.55,4,4,0,0,0,.43-.48l12.57,3.37,1.1-1.83A11.8,11.8,0,0,1,206,69.53l-11.11-3V66.3a6.1,6.1,0,0,0-6.37-6.12L185,46.76a5.28,5.28,0,0,0,1.22-.95,6.09,6.09,0,0,0,1.12-7.08l9.63-9.63a6.22,6.22,0,0,0,2.75.66A6.11,6.11,0,0,0,204,28a6.32,6.32,0,0,0,.94-1.22l13.4,3.59v.26a6.08,6.08,0,0,0,6.11,6.11h.23l3.62,13.42a6.38,6.38,0,0,0-1.22,1h0a6.06,6.06,0,0,0-1.52,6.08A11.75,11.75,0,0,1,228,61.56l.69-.69a6.22,6.22,0,0,0,2.75.66,6.11,6.11,0,0,0,4.33-1.78,6,6,0,0,0,.94-1.22l5.23,1.36a1.59,1.59,0,0,0,.48.07,1.93,1.93,0,0,0,.51-3.79Z" transform="translate(-70.45 -10.79)"/></svg>