<?xml version="1.0" encoding="utf-8"?>
<!-- Generator: Adobe Illustrator 24.0.2, SVG Export Plug-In . SVG Version: 6.00 Build 0)  -->
<svg version="1.1" id="Layer_1" xmlns="http://www.w3.org/2000/svg" xmlns:xlink="http://www.w3.org/1999/xlink" x="0px" y="0px"
	 viewBox="0 0 400 50" style="enable-background:new 0 0 400 50;" xml:space="preserve">
<style type="text/css">
	.st0{fill:#FFFFFF;}
	.st1{fill:#008421;}
	.st2{fill:#99DB25;}
	.st3{fill:#009ADE;}
	.st4{fill:#003764;}
	.st5{fill:#99DB26;}
</style>
<g>
	<g>
		<path class="st1" d="M69.7,44.2L69.7,44.2c-1.2,2.4-2.7,3.5-5.7,3.5c-5.6,0-7.7-4.2-7.7-13.4s2.6-13.4,8.6-13.4
			c6.5,0,7.6,5.1,7.6,7.5v0.5h-3.9v-0.6c0-1.9-0.8-4.2-3.6-4.2c-2.9,0-4.5,2-4.5,10.2c0,8.3,1.4,10.4,4.2,10.4
			c3.1,0,4.3-2.2,4.3-7.9h-4.3v-3.1h8.3v13.6h-3.1V44.2z"/>
		<path class="st1" d="M77.1,21.4h9.1c3.6,0,6.6,1.8,6.6,6.7c0,3.3-1.5,5.9-4.3,6.3v0.1c2.6,0.3,3.9,1.7,4.1,5.3
			c0,1.7,0.1,3.7,0.1,5.2c0.1,1.3,0.7,1.9,1.2,2.2h-4.7c-0.4-0.5-0.6-1.3-0.7-2.3c-0.1-1.6-0.1-3-0.2-4.9c-0.1-2.8-0.9-4.1-3.8-4.1
			h-3.4v11.2h-4.1V21.4z M84.5,32.9c2.6,0,4.1-1.6,4.1-4.2c0-2.8-1.2-4.2-3.9-4.2h-3.5v8.4H84.5z"/>
		<path class="st1" d="M97.1,21.4h4.1v25.8h-4.1V21.4z"/>
		<path class="st1" d="M106,21.4h7.3c8.1,0,9.1,5.3,9.1,12.9s-1,12.9-9.1,12.9H106V21.4z M110.2,44.1h3.4c3.4,0,4.8-2.2,4.8-9.8
			c0-7.3-1.2-9.8-4.8-9.8h-3.4V44.1z"/>
		<path class="st2" d="M133.4,21.4h14v3.5h-9.8V32h9.3v3.5h-9.3v8.3h10.1v3.5h-14.3V21.4z"/>
		<path class="st2" d="M150.1,14.5h4.5l6,12.2l6-12.2h4.2l-8.1,16.1l8.7,16.6h-4.5l-6.5-13.1l-6.6,13.1h-4.2l8.7-16.6L150.1,14.5z"
			/>
		<path class="st2" d="M187.6,37.9v0.5c0,4.7-1.9,9.2-8,9.2c-6.5,0-8.5-4.2-8.5-13.4s2-13.4,8.6-13.4c7.3,0,7.8,5.4,7.8,8.1v0.5
			h-4.1V29c0-2.4-0.7-5.1-3.7-5c-3,0-4.4,1.9-4.4,10.2c0,8.3,1.4,10.4,4.4,10.4c3.4,0,3.8-3.8,3.8-6.2v-0.4H187.6z"/>
		<path class="st2" d="M191.2,21.4h4.1v10.4h7.6V21.4h4.1v25.8h-4.1v-12h-7.6v12h-4.1V21.4z"/>
		<path class="st2" d="M216.9,21.4h5.3l6.8,25.8h-4.3l-1.6-6.3h-7.6l-1.7,6.3h-4.3L216.9,21.4z M222.5,37.6l-3-12.7h-0.1l-3.1,12.7
			H222.5z"/>
		<path class="st2" d="M231.6,21.4h5l7.5,19.3h0.1V21.4h3.9v25.8h-5l-7.5-19.8h-0.1v19.8h-3.9V21.4z"/>
		<path class="st2" d="M265.8,44.2L265.8,44.2c-1.2,2.4-2.7,3.5-5.7,3.5c-5.6,0-7.7-4.2-7.7-13.4s2.6-13.4,8.6-13.4
			c6.5,0,7.6,5.1,7.6,7.5v0.5h-3.9v-0.6c0-1.9-0.8-4.2-3.6-4.2c-2.9,0-4.5,2-4.5,10.2c0,8.3,1.4,10.4,4.2,10.4
			c3.1,0,4.3-2.2,4.3-7.9h-4.3v-3.1h8.3v13.6h-3.1V44.2z"/>
		<path class="st2" d="M273.2,21.4h14v3.5h-9.8V32h9.3v3.5h-9.3v8.3h10.1v3.5h-14.3V21.4z"/>
		<path class="st1" d="M298.6,21.4h13.8v3.5h-9.7V32h9.1v3.5h-9.1v11.7h-4.1V21.4z"/>
		<path class="st1" d="M319.6,21.4h5.3l6.8,25.8h-4.3l-1.6-6.3h-7.6l-1.7,6.3h-4.3L319.6,21.4z M325.1,37.6l-3-12.7h-0.1L319,37.6
			H325.1z"/>
		<path class="st1" d="M334.2,21.4h8.4c3.8,0,6.9,1.7,6.9,6.3c0,3.1-1.2,5.1-3.8,5.9v0.1c2.8,0.5,4.6,2.2,4.6,6.6
			c0,4.3-3.1,7.1-8,7.1h-8.2V21.4z M341.6,32.2c2.5,0,3.8-1.7,3.8-4.1c0-3.1-1.8-3.7-4.2-3.7h-2.9v7.8H341.6z M342.4,44.1
			c2.5,0,3.8-1.6,3.8-4.6c0-2.8-1.7-4.4-4.1-4.4h-3.8v8.9H342.4z"/>
		<path class="st1" d="M354.4,21.4h9.1c3.6,0,6.6,1.8,6.6,6.7c0,3.3-1.5,5.9-4.3,6.3v0.1c2.6,0.3,3.9,1.7,4.1,5.3
			c0,1.7,0.1,3.7,0.1,5.2c0.1,1.3,0.7,1.9,1.2,2.2h-4.7c-0.4-0.5-0.6-1.3-0.7-2.3c-0.1-1.6-0.1-3-0.2-4.9c-0.1-2.8-0.9-4.1-3.8-4.1
			h-3.4v11.2h-4.1V21.4z M361.8,32.9c2.6,0,4.1-1.6,4.1-4.2c0-2.8-1.2-4.2-3.9-4.2h-3.5v8.4H361.8z"/>
		<path class="st1" d="M374.4,21.4h4.1v25.8h-4.1V21.4z"/>
		<path class="st1" d="M399.2,37.9v0.5c0,4.7-1.9,9.2-8,9.2c-6.5,0-8.5-4.2-8.5-13.4s2-13.4,8.6-13.4c7.3,0,7.8,5.4,7.8,8.1v0.5
			h-4.1V29c0-2.4-0.7-5.1-3.7-5c-3,0-4.4,1.9-4.4,10.2c0,8.3,1.4,10.4,4.4,10.4c3.4,0,3.8-3.8,3.8-6.2v-0.4H399.2z"/>
	</g>
	<g>
		<polygon class="st3" points="59.7,11.5 59.7,7.2 57.5,7.2 57.5,13.6 64,13.6 64,11.5 		"/>
		<polygon class="st4" points="68.3,2.9 57.5,2.9 57.5,6.1 59.7,6.1 59.7,5 66.2,5 66.2,11.5 65.1,11.5 65.1,13.6 68.3,13.6 		"/>
		<g>
			<path class="st4" d="M71.2,3h3.3v7.9h4.7v2.7h-8V3z"/>
			<path class="st4" d="M80.6,3h8.3v2.7h-5V7h4.3v2.5h-4.3v4.1h-3.3L80.6,3L80.6,3z"/>
		</g>
		<path class="st3" d="M97.3,13.7h-6V2.9h6v0.7h-5.2v4.1H97v0.7h-4.9V13h5.2V13.7z"/>
		<path class="st3" d="M107.7,13.7h-0.8l-6.5-9.6h0c0.1,1.1,0.1,2,0.1,2.6v7h-0.7V2.9h0.8l6.5,9.5h0.1c-0.1-0.9-0.1-1.7-0.1-2.5v-7
			h0.8L107.7,13.7L107.7,13.7z"/>
		<path class="st3" d="M116.8,13.7h-6V2.9h6v0.7h-5.2v4.1h4.9v0.7h-4.9V13h5.2V13.7z"/>
		<path class="st3" d="M120,9v4.7h-0.8V2.9h2.6c1.3,0,2.3,0.3,3,0.8c0.6,0.5,1,1.2,1,2.2c0,0.7-0.2,1.3-0.6,1.8s-1,0.9-1.8,1.1
			l3,4.9h-0.9L122.7,9L120,9L120,9z M120,8.4h2.1c0.9,0,1.6-0.2,2.1-0.6c0.5-0.4,0.8-1,0.8-1.8c0-0.8-0.3-1.4-0.8-1.8
			c-0.5-0.4-1.3-0.6-2.5-0.6H120L120,8.4L120,8.4z"/>
		<path class="st3" d="M132.5,8.2h3.9v4.8c-1,0.4-2.2,0.6-3.5,0.6c-1.7,0-3-0.5-3.9-1.4s-1.3-2.3-1.3-4c0-1.1,0.2-2,0.7-2.8
			c0.4-0.8,1.1-1.5,1.9-1.9c0.8-0.4,1.8-0.7,2.9-0.7c1.2,0,2.2,0.2,3.2,0.6L136,4.1c-0.9-0.4-1.9-0.6-2.9-0.6
			c-1.4,0-2.5,0.4-3.3,1.3c-0.8,0.9-1.2,2-1.2,3.5c0,1.6,0.4,2.8,1.2,3.6c0.8,0.8,1.9,1.2,3.5,1.2c1,0,1.8-0.1,2.5-0.4V8.8h-3.2
			L132.5,8.2L132.5,8.2z"/>
		<path class="st3" d="M141.7,8.8l3.2-5.9h0.8L142,9.5v4.1h-0.8v-4l-3.6-6.6h0.9L141.7,8.8z"/>
	</g>
	<g>
		<g>
			<g>
				
					<rect x="1.4" y="36" transform="matrix(1.250151e-03 -1 1 1.250151e-03 -34.5578 40.5706)" class="st3" width="3.2" height="3.2"/>
			</g>
			<g>
				
					<rect x="1.4" y="40.2" transform="matrix(1.250151e-03 -1 1 1.250151e-03 -38.7737 44.7708)" class="st3" width="3.2" height="3.2"/>
			</g>
			<g>
				
					<rect x="14.1" y="40.2" transform="matrix(1.250151e-03 -1 1 1.250151e-03 -26.1732 57.4187)" class="st3" width="3.2" height="3.2"/>
			</g>
			<g>
				
					<rect x="9.8" y="40.2" transform="matrix(1.250151e-03 -1 1 1.250151e-03 -30.3733 53.2027)" class="st3" width="3.2" height="3.2"/>
			</g>
			<g>
				
					<rect x="5.6" y="40.2" transform="matrix(1.250151e-03 -1 1 1.250151e-03 -34.5735 48.9868)" class="st3" width="3.2" height="3.2"/>
			</g>
			<g>
				
					<rect x="1.4" y="40.2" transform="matrix(1.250151e-03 -1 1 1.250151e-03 -38.7737 44.7708)" class="st3" width="3.2" height="3.2"/>
			</g>
			<g>
				
					<rect x="1.4" y="44.3" transform="matrix(1.250151e-03 -1 1 1.250151e-03 -42.8881 48.8698)" class="st3" width="3.2" height="3.2"/>
			</g>
			<g>
				
					<rect x="9.8" y="44.3" transform="matrix(1.250151e-03 -1 1 1.250151e-03 -34.4877 57.3017)" class="st3" width="3.2" height="3.2"/>
			</g>
			<g>
				
					<rect x="5.6" y="44.3" transform="matrix(1.250151e-03 -1 1 1.250151e-03 -38.6879 53.0857)" class="st3" width="3.2" height="3.2"/>
			</g>
			<g>
				
					<rect x="1.4" y="44.3" transform="matrix(1.250151e-03 -1 1 1.250151e-03 -42.8881 48.8698)" class="st3" width="3.2" height="3.2"/>
			</g>
			<g>
				
					<rect x="18.3" y="36" transform="matrix(1.250151e-03 -1 1 1.250151e-03 -17.757 57.4345)" class="st3" width="3.2" height="3.2"/>
			</g>
			<g>
				
					<rect x="14.1" y="36" transform="matrix(1.250151e-03 -1 1 1.250151e-03 -21.9572 53.2185)" class="st3" width="3.2" height="3.2"/>
			</g>
			<g>
				
					<rect x="9.9" y="36" transform="matrix(1.250151e-03 -1 1 1.250151e-03 -26.1574 49.0025)" class="st3" width="3.2" height="3.2"/>
			</g>
			<g>
				
					<rect x="5.6" y="36" transform="matrix(1.250151e-03 -1 1 1.250151e-03 -30.3576 44.7866)" class="st3" width="3.2" height="3.2"/>
			</g>
			<g>
				
					<rect x="1.4" y="36" transform="matrix(1.250151e-03 -1 1 1.250151e-03 -34.5578 40.5706)" class="st3" width="3.2" height="3.2"/>
			</g>
			<g>
				
					<rect x="18.3" y="31.8" transform="matrix(1.250151e-03 -1 1 1.250151e-03 -13.541 53.2343)" class="st3" width="3.2" height="3.2"/>
			</g>
			<g>
				
					<rect x="14.1" y="31.8" transform="matrix(1.250151e-03 -1 1 1.250151e-03 -17.7412 49.0183)" class="st3" width="3.2" height="3.2"/>
			</g>
			<g>
				
					<rect x="9.9" y="31.8" transform="matrix(1.250151e-03 -1 1 1.250151e-03 -21.9414 44.8023)" class="st3" width="3.2" height="3.2"/>
			</g>
			<g>
				
					<rect x="5.6" y="31.8" transform="matrix(1.250151e-03 -1 1 1.250151e-03 -26.1416 40.5864)" class="st3" width="3.2" height="3.2"/>
			</g>
			<g>
				
					<rect x="14.1" y="27.6" transform="matrix(1.250151e-03 -1 1 1.250151e-03 -13.5253 44.8181)" class="st3" width="3.2" height="3.2"/>
			</g>
			<g>
				
					<rect x="9.9" y="27.6" transform="matrix(1.250151e-03 -1 1 1.250151e-03 -17.7254 40.6022)" class="st3" width="3.2" height="3.2"/>
			</g>
		</g>
		<g>
			<g>
				
					<rect x="39.3" y="31.8" transform="matrix(1.250151e-03 -1 1 1.250151e-03 7.4599 74.3141)" class="st5" width="3.2" height="3.2"/>
			</g>
			<g>
				
					<rect x="39.3" y="36" transform="matrix(1.250151e-03 -1 1 1.250151e-03 3.2439 78.5143)" class="st5" width="3.2" height="3.2"/>
			</g>
			<g>
				
					<rect x="39.3" y="40.2" transform="matrix(1.250151e-03 -1 1 1.250151e-03 -0.972 82.7145)" class="st5" width="3.2" height="3.2"/>
			</g>
			<g>
				
					<rect x="39.3" y="40.2" transform="matrix(1.250151e-03 -1 1 1.250151e-03 -0.972 82.7145)" class="st5" width="3.2" height="3.2"/>
			</g>
			<g>
				
					<rect x="35.1" y="40.2" transform="matrix(1.250151e-03 -1 1 1.250151e-03 -5.1722 78.4985)" class="st5" width="3.2" height="3.2"/>
			</g>
			<g>
				
					<rect x="30.9" y="40.2" transform="matrix(1.250151e-03 -1 1 1.250151e-03 -9.3724 74.2826)" class="st5" width="3.2" height="3.2"/>
			</g>
			<g>
				
					<rect x="39.3" y="44.4" transform="matrix(1.250151e-03 -1 1 1.250151e-03 -5.0864 86.8135)" class="st5" width="3.2" height="3.2"/>
			</g>
			<g>
				
					<rect x="39.3" y="44.4" transform="matrix(1.250151e-03 -1 1 1.250151e-03 -5.0864 86.8135)" class="st5" width="3.2" height="3.2"/>
			</g>
			<g>
				
					<rect x="35.1" y="44.3" transform="matrix(1.250151e-03 -1 1 1.250151e-03 -9.2866 82.5975)" class="st5" width="3.2" height="3.2"/>
			</g>
			<g>
				
					<rect x="39.3" y="36" transform="matrix(1.250151e-03 -1 1 1.250151e-03 3.2439 78.5143)" class="st5" width="3.2" height="3.2"/>
			</g>
			<g>
				
					<rect x="35.1" y="36" transform="matrix(1.250151e-03 -1 1 1.250151e-03 -0.9563 74.2983)" class="st5" width="3.2" height="3.2"/>
			</g>
			<g>
				
					<rect x="30.9" y="36" transform="matrix(1.250151e-03 -1 1 1.250151e-03 -5.1565 70.0824)" class="st5" width="3.2" height="3.2"/>
			</g>
			<g>
				
					<rect x="26.7" y="36" transform="matrix(1.250151e-03 -1 1 1.250151e-03 -9.3566 65.8664)" class="st5" width="3.2" height="3.2"/>
			</g>
			<g>
				
					<rect x="39.3" y="31.8" transform="matrix(1.250151e-03 -1 1 1.250151e-03 7.4599 74.3141)" class="st5" width="3.2" height="3.2"/>
			</g>
			<g>
				
					<rect x="35.1" y="31.8" transform="matrix(1.250151e-03 -1 1 1.250151e-03 3.2597 70.0982)" class="st5" width="3.2" height="3.2"/>
			</g>
			<g>
				
					<rect x="30.9" y="31.8" transform="matrix(1.250151e-03 -1 1 1.250151e-03 -0.9405 65.8822)" class="st5" width="3.2" height="3.2"/>
			</g>
			<g>
				
					<rect x="26.7" y="31.8" transform="matrix(1.250151e-03 -1 1 1.250151e-03 -5.1407 61.6662)" class="st5" width="3.2" height="3.2"/>
			</g>
			<g>
				
					<rect x="35.1" y="27.6" transform="matrix(1.250151e-03 -1 1 1.250151e-03 7.4757 65.898)" class="st5" width="3.2" height="3.2"/>
			</g>
			<g>
				
					<rect x="30.9" y="27.6" transform="matrix(1.250151e-03 -1 1 1.250151e-03 3.2755 61.682)" class="st5" width="3.2" height="3.2"/>
			</g>
			<g>
				
					<rect x="43.4" y="36" transform="matrix(1.250151e-03 -1 1 1.250151e-03 7.3429 82.6287)" class="st5" width="3.2" height="3.2"/>
			</g>
			<g>
				
					<rect x="43.4" y="40.3" transform="matrix(1.250151e-03 -1 1 1.250151e-03 3.1269 86.8289)" class="st5" width="3.2" height="3.2"/>
			</g>
			<g>
				
					<rect x="43.4" y="40.3" transform="matrix(1.250151e-03 -1 1 1.250151e-03 3.1269 86.8289)" class="st5" width="3.2" height="3.2"/>
			</g>
			<g>
				
					<rect x="43.4" y="44.4" transform="matrix(1.250151e-03 -1 1 1.250151e-03 -0.9874 90.9278)" class="st5" width="3.2" height="3.2"/>
			</g>
			<g>
				
					<rect x="43.4" y="44.4" transform="matrix(1.250151e-03 -1 1 1.250151e-03 -0.9874 90.9278)" class="st5" width="3.2" height="3.2"/>
			</g>
			<g>
				
					<rect x="43.4" y="36" transform="matrix(1.250151e-03 -1 1 1.250151e-03 7.3429 82.6287)" class="st5" width="3.2" height="3.2"/>
			</g>
		</g>
		<g>
			<g>
				
					<rect x="39.4" y="2.3" transform="matrix(1.250151e-03 -1 1 1.250151e-03 36.9717 44.9128)" class="st3" width="3.2" height="3.2"/>
			</g>
			<g>
				
					<rect x="39.4" y="6.6" transform="matrix(1.250151e-03 -1 1 1.250151e-03 32.7557 49.113)" class="st3" width="3.2" height="3.2"/>
			</g>
			<g>
				
					<rect x="39.4" y="10.8" transform="matrix(1.250151e-03 -1 1 1.250151e-03 28.5397 53.3132)" class="st3" width="3.2" height="3.2"/>
			</g>
			<g>
				
					<rect x="39.4" y="15" transform="matrix(1.250151e-03 -1 1 1.250151e-03 24.3238 57.5134)" class="st3" width="3.2" height="3.2"/>
			</g>
			<g>
				
					<rect x="35.1" y="19.2" transform="matrix(1.250151e-03 -1 1 1.250151e-03 15.9076 57.4976)" class="st3" width="3.2" height="3.2"/>
			</g>
			<g>
				
					<rect x="30.9" y="19.2" transform="matrix(1.250151e-03 -1 1 1.250151e-03 11.7074 53.2816)" class="st3" width="3.2" height="3.2"/>
			</g>
			<g>
				
					<rect x="39.4" y="15" transform="matrix(1.250151e-03 -1 1 1.250151e-03 24.3238 57.5134)" class="st3" width="3.2" height="3.2"/>
			</g>
			<g>
				
					<rect x="35.1" y="15" transform="matrix(1.250151e-03 -1 1 1.250151e-03 20.1236 53.2974)" class="st3" width="3.2" height="3.2"/>
			</g>
			<g>
				
					<rect x="30.9" y="15" transform="matrix(1.250151e-03 -1 1 1.250151e-03 15.9234 49.0814)" class="st3" width="3.2" height="3.2"/>
			</g>
			<g>
				
					<rect x="26.7" y="15" transform="matrix(1.250151e-03 -1 1 1.250151e-03 11.7232 44.8655)" class="st3" width="3.2" height="3.2"/>
			</g>
			<g>
				
					<rect x="39.4" y="10.8" transform="matrix(1.250151e-03 -1 1 1.250151e-03 28.5397 53.3132)" class="st3" width="3.2" height="3.2"/>
			</g>
			<g>
				
					<rect x="35.2" y="10.8" transform="matrix(1.250151e-03 -1 1 1.250151e-03 24.3395 49.0972)" class="st3" width="3.2" height="3.2"/>
			</g>
			<g>
				
					<rect x="30.9" y="10.8" transform="matrix(1.250151e-03 -1 1 1.250151e-03 20.1394 44.8813)" class="st3" width="3.2" height="3.2"/>
			</g>
			<g>
				
					<rect x="26.7" y="10.8" transform="matrix(1.250151e-03 -1 1 1.250151e-03 15.9392 40.6653)" class="st3" width="3.2" height="3.2"/>
			</g>
			<g>
				
					<rect x="39.4" y="6.6" transform="matrix(1.250151e-03 -1 1 1.250151e-03 32.7557 49.113)" class="st3" width="3.2" height="3.2"/>
			</g>
			<g>
				
					<rect x="35.2" y="6.6" transform="matrix(1.250151e-03 -1 1 1.250151e-03 28.5555 44.897)" class="st3" width="3.2" height="3.2"/>
			</g>
			<g>
				
					<rect x="30.9" y="6.5" transform="matrix(1.250151e-03 -1 1 1.250151e-03 24.3553 40.6811)" class="st3" width="3.2" height="3.2"/>
			</g>
			<g>
				
					<rect x="39.4" y="2.3" transform="matrix(1.250151e-03 -1 1 1.250151e-03 36.9717 44.9128)" class="st3" width="3.2" height="3.2"/>
			</g>
			<g>
				
					<rect x="43.5" y="2.4" transform="matrix(1.250151e-03 -1 1 1.250151e-03 41.0706 49.0272)" class="st3" width="3.2" height="3.2"/>
			</g>
			<g>
				
					<rect x="43.5" y="6.6" transform="matrix(1.250151e-03 -1 1 1.250151e-03 36.8547 53.2274)" class="st3" width="3.2" height="3.2"/>
			</g>
			<g>
				
					<rect x="43.5" y="10.8" transform="matrix(1.250151e-03 -1 1 1.250151e-03 32.6387 57.4276)" class="st3" width="3.2" height="3.2"/>
			</g>
			<g>
				
					<rect x="43.5" y="10.8" transform="matrix(1.250151e-03 -1 1 1.250151e-03 32.6387 57.4276)" class="st3" width="3.2" height="3.2"/>
			</g>
			<g>
				
					<rect x="43.5" y="6.6" transform="matrix(1.250151e-03 -1 1 1.250151e-03 36.8547 53.2274)" class="st3" width="3.2" height="3.2"/>
			</g>
			<g>
				
					<rect x="43.5" y="2.4" transform="matrix(1.250151e-03 -1 1 1.250151e-03 41.0706 49.0272)" class="st3" width="3.2" height="3.2"/>
			</g>
			<g>
				
					<rect x="35.2" y="2.3" transform="matrix(1.250151e-03 -1 1 1.250151e-03 32.7715 40.6969)" class="st3" width="3.2" height="3.2"/>
			</g>
		</g>
		<g>
			<g>
				<rect x="1.5" y="2.3" transform="matrix(1.250151e-03 -1 1 1.250151e-03 -0.83 6.9691)" class="st5" width="3.2" height="3.2"/>
			</g>
			<g>
				
					<rect x="1.5" y="6.5" transform="matrix(1.250151e-03 -1 1 1.250151e-03 -5.046 11.1693)" class="st5" width="3.2" height="3.2"/>
			</g>
			<g>
				
					<rect x="1.5" y="10.7" transform="matrix(1.250151e-03 -1 1 1.250151e-03 -9.2619 15.3695)" class="st5" width="3.2" height="3.2"/>
			</g>
			<g>
				
					<rect x="14.1" y="19.2" transform="matrix(1.250151e-03 -1 1 1.250151e-03 -5.0933 36.4178)" class="st5" width="3.2" height="3.2"/>
			</g>
			<g>
				
					<rect x="9.9" y="19.2" transform="matrix(1.250151e-03 -1 1 1.250151e-03 -9.2935 32.2018)" class="st5" width="3.2" height="3.2"/>
			</g>
			<g>
				
					<rect x="18.3" y="15" transform="matrix(1.250151e-03 -1 1 1.250151e-03 3.3228 36.4335)" class="st5" width="3.2" height="3.2"/>
			</g>
			<g>
				
					<rect x="14.1" y="14.9" transform="matrix(1.250151e-03 -1 1 1.250151e-03 -0.8774 32.2176)" class="st5" width="3.2" height="3.2"/>
			</g>
			<g>
				
					<rect x="9.9" y="14.9" transform="matrix(1.250151e-03 -1 1 1.250151e-03 -5.0775 28.0016)" class="st5" width="3.2" height="3.2"/>
			</g>
			<g>
				
					<rect x="5.7" y="14.9" transform="matrix(1.250151e-03 -1 1 1.250151e-03 -9.2777 23.7856)" class="st5" width="3.2" height="3.2"/>
			</g>
			<g>
				
					<rect x="18.3" y="10.7" transform="matrix(1.250151e-03 -1 1 1.250151e-03 7.5388 32.2334)" class="st5" width="3.2" height="3.2"/>
			</g>
			<g>
				
					<rect x="14.1" y="10.7" transform="matrix(1.250151e-03 -1 1 1.250151e-03 3.3386 28.0174)" class="st5" width="3.2" height="3.2"/>
			</g>
			<g>
				
					<rect x="9.9" y="10.7" transform="matrix(1.250151e-03 -1 1 1.250151e-03 -0.8616 23.8014)" class="st5" width="3.2" height="3.2"/>
			</g>
			<g>
				
					<rect x="5.7" y="10.7" transform="matrix(1.250151e-03 -1 1 1.250151e-03 -5.0618 19.5855)" class="st5" width="3.2" height="3.2"/>
			</g>
			<g>
				
					<rect x="1.5" y="10.7" transform="matrix(1.250151e-03 -1 1 1.250151e-03 -9.2619 15.3695)" class="st5" width="3.2" height="3.2"/>
			</g>
			<g>
				
					<rect x="14.1" y="6.5" transform="matrix(1.250151e-03 -1 1 1.250151e-03 7.5546 23.8172)" class="st5" width="3.2" height="3.2"/>
			</g>
			<g>
				
					<rect x="9.9" y="6.5" transform="matrix(1.250151e-03 -1 1 1.250151e-03 3.3544 19.6012)" class="st5" width="3.2" height="3.2"/>
			</g>
			<g>
				
					<rect x="5.7" y="6.5" transform="matrix(1.250151e-03 -1 1 1.250151e-03 -0.8458 15.3853)" class="st5" width="3.2" height="3.2"/>
			</g>
			<g>
				
					<rect x="1.5" y="6.5" transform="matrix(1.250151e-03 -1 1 1.250151e-03 -5.046 11.1693)" class="st5" width="3.2" height="3.2"/>
			</g>
			<g>
				
					<rect x="9.9" y="2.3" transform="matrix(1.250151e-03 -1 1 1.250151e-03 7.5704 15.401)" class="st5" width="3.2" height="3.2"/>
			</g>
			<g>
				
					<rect x="5.7" y="2.3" transform="matrix(1.250151e-03 -1 1 1.250151e-03 3.3702 11.1851)" class="st5" width="3.2" height="3.2"/>
			</g>
			<g>
				<rect x="1.5" y="2.3" transform="matrix(1.250151e-03 -1 1 1.250151e-03 -0.83 6.9691)" class="st5" width="3.2" height="3.2"/>
			</g>
		</g>
		<g>
			<g>
				
					<rect x="22.5" y="31.8" transform="matrix(1.250151e-03 -1 1 1.250151e-03 -9.3409 57.4503)" class="st3" width="3.2" height="3.2"/>
			</g>
			<g>
				
					<rect x="22.5" y="27.6" transform="matrix(1.250151e-03 -1 1 1.250151e-03 -5.1249 53.2501)" class="st3" width="3.2" height="3.2"/>
			</g>
			<g>
				
					<rect x="18.3" y="27.6" transform="matrix(1.250151e-03 -1 1 1.250151e-03 -9.3251 49.0341)" class="st3" width="3.2" height="3.2"/>
			</g>
			<g>
				
					<rect x="30.9" y="23.4" transform="matrix(1.250151e-03 -1 1 1.250151e-03 7.4915 57.4818)" class="st3" width="3.2" height="3.2"/>
			</g>
			<g>
				
					<rect x="26.7" y="23.4" transform="matrix(1.250151e-03 -1 1 1.250151e-03 3.2913 53.2659)" class="st3" width="3.2" height="3.2"/>
			</g>
			<g>
				
					<rect x="22.5" y="23.4" transform="matrix(1.250151e-03 -1 1 1.250151e-03 -0.9089 49.0499)" class="st3" width="3.2" height="3.2"/>
			</g>
			<g>
				
					<rect x="18.3" y="23.4" transform="matrix(1.250151e-03 -1 1 1.250151e-03 -5.1091 44.8339)" class="st3" width="3.2" height="3.2"/>
			</g>
			<g>
				
					<rect x="14.1" y="23.4" transform="matrix(1.250151e-03 -1 1 1.250151e-03 -9.3093 40.6179)" class="st3" width="3.2" height="3.2"/>
			</g>
			<g>
				
					<rect x="26.7" y="19.2" transform="matrix(1.250151e-03 -1 1 1.250151e-03 7.5072 49.0657)" class="st3" width="3.2" height="3.2"/>
			</g>
			<g>
				
					<rect x="22.5" y="19.2" transform="matrix(1.250151e-03 -1 1 1.250151e-03 3.307 44.8497)" class="st3" width="3.2" height="3.2"/>
			</g>
			<g>
				
					<rect x="18.3" y="19.2" transform="matrix(1.250151e-03 -1 1 1.250151e-03 -0.8931 40.6337)" class="st3" width="3.2" height="3.2"/>
			</g>
			<g>
				
					<rect x="26.7" y="27.6" transform="matrix(1.250151e-03 -1 1 1.250151e-03 -0.9247 57.466)" class="st3" width="3.2" height="3.2"/>
			</g>
			<g>
				
					<rect x="22.5" y="15" transform="matrix(1.250151e-03 -1 1 1.250151e-03 7.523 40.6495)" class="st3" width="3.2" height="3.2"/>
			</g>
		</g>
		<g>
			<g>
				
					<rect x="22.5" y="31.8" transform="matrix(1.250151e-03 -1 1 1.250151e-03 -9.3409 57.4503)" class="st5" width="3.2" height="3.2"/>
			</g>
			<g>
				
					<rect x="22.5" y="27.6" transform="matrix(1.250151e-03 -1 1 1.250151e-03 -5.1249 53.2501)" class="st5" width="3.2" height="3.2"/>
			</g>
			<g>
				
					<rect x="18.3" y="27.6" transform="matrix(1.250151e-03 -1 1 1.250151e-03 -9.3251 49.0341)" class="st5" width="3.2" height="3.2"/>
			</g>
			<g>
				
					<rect x="30.9" y="23.4" transform="matrix(1.250151e-03 -1 1 1.250151e-03 7.4915 57.4818)" class="st5" width="3.2" height="3.2"/>
			</g>
			<g>
				
					<rect x="26.7" y="23.4" transform="matrix(1.250151e-03 -1 1 1.250151e-03 3.2913 53.2659)" class="st5" width="3.2" height="3.2"/>
			</g>
			<g>
				
					<rect x="22.5" y="23.4" transform="matrix(1.250151e-03 -1 1 1.250151e-03 -0.9089 49.0499)" class="st5" width="3.2" height="3.2"/>
			</g>
			<g>
				
					<rect x="18.3" y="23.4" transform="matrix(1.250151e-03 -1 1 1.250151e-03 -5.1091 44.8339)" class="st5" width="3.2" height="3.2"/>
			</g>
			<g>
				
					<rect x="14.1" y="23.4" transform="matrix(1.250151e-03 -1 1 1.250151e-03 -9.3093 40.6179)" class="st5" width="3.2" height="3.2"/>
			</g>
			<g>
				
					<rect x="26.7" y="19.2" transform="matrix(1.250151e-03 -1 1 1.250151e-03 7.5072 49.0657)" class="st5" width="3.2" height="3.2"/>
			</g>
			<g>
				
					<rect x="22.5" y="19.2" transform="matrix(1.250151e-03 -1 1 1.250151e-03 3.307 44.8497)" class="st5" width="3.2" height="3.2"/>
			</g>
			<g>
				
					<rect x="18.3" y="19.2" transform="matrix(1.250151e-03 -1 1 1.250151e-03 -0.8931 40.6337)" class="st5" width="3.2" height="3.2"/>
			</g>
			<g>
				
					<rect x="26.7" y="27.6" transform="matrix(1.250151e-03 -1 1 1.250151e-03 -0.9247 57.466)" class="st5" width="3.2" height="3.2"/>
			</g>
			<g>
				
					<rect x="22.5" y="15" transform="matrix(1.250151e-03 -1 1 1.250151e-03 7.523 40.6495)" class="st5" width="3.2" height="3.2"/>
			</g>
		</g>
	</g>
</g>
</svg>
