<?xml version="1.0" encoding="UTF-8" standalone="no"?>
<!-- Generator: Adobe Illustrator 24.3.0, SVG Export Plug-In . SVG Version: 6.00 Build 0)  -->

<svg
   version="1.1"
   id="Layer_1"
   x="0px"
   y="0px"
   viewBox="0 0 289 289"
   xml:space="preserve"
   sodipodi:docname="seapath-icon-knockout-white.svg"
   width="289"
   height="289"
   inkscape:export-filename="/Users/johnmertic/Code/lfenergy-artwork/projects/seapath/icon/knockout-white/seapath-icon-knockout-white.png"
   inkscape:export-xdpi="377.10001"
   inkscape:export-ydpi="377.10001"
   inkscape:version="1.1.2 (b8e25be8, 2022-02-05)"
   xmlns:inkscape="http://www.inkscape.org/namespaces/inkscape"
   xmlns:sodipodi="http://sodipodi.sourceforge.net/DTD/sodipodi-0.dtd"
   xmlns="http://www.w3.org/2000/svg"
   xmlns:svg="http://www.w3.org/2000/svg"><defs
   id="defs318" /><sodipodi:namedview
   id="namedview316"
   pagecolor="#ffffff"
   bordercolor="#666666"
   borderopacity="1.0"
   inkscape:pageshadow="2"
   inkscape:pageopacity="0.0"
   inkscape:pagecheckerboard="0"
   showgrid="false"
   inkscape:zoom="0.74642639"
   inkscape:cx="512.44169"
   inkscape:cy="155.40715"
   inkscape:window-width="1391"
   inkscape:window-height="480"
   inkscape:window-x="58"
   inkscape:window-y="25"
   inkscape:window-maximized="0"
   inkscape:current-layer="Layer_1" />
<style
   type="text/css"
   id="style211">
	.st0{fill:#FFFFFF;}
	.st1{opacity:0.5;fill:#FFFFFF;}
	.st2{opacity:0.2;fill:#FFFFFF;}
	.st3{opacity:0.7;fill:#FFFFFF;}
	.st4{opacity:0.2;}
	.st5{opacity:0.7;}
	.st6{opacity:0.5;}
	.st7{fill:none;}
	.st8{fill:#003764;}
	.st9{fill:#009ADE;}
	.st10{fill:#B1E8FC;}
	.st11{fill:#086CB7;}
</style>











<path
   class="st0"
   d="m 112.6,124.2 c 20.6,-14.1 41.7,-28 82.9,-28 3.4,0 6.6,0.1 9.7,0.3 15.1,-10 32.1,-18.7 61.8,-18.7 1.8,0 3.5,0 5.2,0.1 C 248.1,31.9 199.9,0.5 144.4,0.5 87.9,0.5 39,33 15.4,80.3 c 41,8.6 51.7,38.1 97.2,43.9 z"
   id="path251" />
<path
   class="st1"
   d="M 112.6,124.2 C 67.1,118.5 56.4,89 15.3,80.2 5.6,99.6 0,121.5 0,144.7 c 0,2.3 0.1,4.6 0.2,6.9 7.9,1.4 16.8,2.3 26.8,2.3 43,0 64.1,-15 85.6,-29.7 z"
   id="path253" />
<path
   class="st1"
   d="m 205.2,96.5 c 40.7,2.3 60.2,19.2 82.6,34 -1.8,-18.8 -7.3,-36.6 -15.7,-52.6 -1.7,-0.1 -3.4,-0.1 -5.2,-0.1 -29.6,0 -46.5,8.7 -61.7,18.7 z"
   id="path255" />
<path
   class="st2"
   d="m 195.5,96.2 c -41.3,0 -62.3,13.8 -82.9,28 C 91.1,138.9 70,154 27.1,154 c -10,0 -18.9,-0.8 -26.8,-2.3 0.3,7.4 1.2,14.6 2.7,21.6 9.1,-1.5 19.1,-2.3 30.3,-2.3 45.3,0 71.1,13.4 94.2,28.6 30.8,-13.6 44.4,-39 95,-39 29.8,0 46.8,8.8 62,18.9 2.8,-11.1 4.2,-22.8 4.2,-34.7 0,-4.8 -0.2,-9.5 -0.7,-14.2 -22.4,-14.9 -41.9,-31.7 -82.6,-34 -3.3,-0.3 -6.5,-0.4 -9.9,-0.4 z"
   id="path257" />
<path
   class="st1"
   d="m 127.4,199.6 c 30.5,20.1 56.2,43.4 116,43.4 2.3,0 4.4,0 6.6,-0.1 16.4,-17.6 28.4,-39.3 34.3,-63.4 -15.2,-10 -32.2,-18.9 -62,-18.9 -50.6,0 -64.1,25.4 -94.9,39 z"
   id="path259" />
<path
   class="st3"
   d="M 127.4,199.6 C 104.3,184.4 78.5,171 33.2,171 22,171 12,171.8 2.9,173.3 c 5.8,28.7 20,54.3 40.1,74.1 13.2,-7.5 28.8,-13.3 53,-13.3 56.2,0 66.8,31.3 105.8,43 18.4,-8 34.8,-19.7 48.2,-34.2 -2.2,0.1 -4.3,0.1 -6.6,0.1 -59.8,0 -85.6,-23.3 -116,-43.4 z"
   id="path261" />
<path
   class="st2"
   d="m 43,247.3 c 26.1,25.7 61.8,41.6 101.4,41.6 20.4,0 39.8,-4.3 57.4,-11.9 -39.1,-11.7 -49.7,-43 -105.8,-43 -24.2,0.1 -39.9,5.8 -53,13.3 z"
   id="path263" />

















<g
   id="g313"
   transform="translate(-1.3,-5.3)">
	<path
   class="st0"
   d="m 105.9,123 c 0.3,0.1 0.7,0.1 1,0.2 0.9,0.2 1.7,0.3 2.6,0.5 0.6,0.1 1.2,0.2 1.8,0.3 0.4,0.1 0.9,0.1 1.3,0.2 1.1,-0.8 2.2,-1.5 3.3,-2.3 0.1,-0.1 0.2,-0.2 0.4,-0.2 0.4,-0.3 0.9,-0.6 1.3,-0.9 0.2,-0.1 0.4,-0.3 0.6,-0.4 0.4,-0.3 0.8,-0.5 1.2,-0.8 0.3,-0.2 0.5,-0.3 0.8,-0.5 0.4,-0.2 0.8,-0.5 1.1,-0.7 0.3,-0.2 0.6,-0.4 0.8,-0.5 0.4,-0.2 0.7,-0.5 1.1,-0.7 0.3,-0.2 0.6,-0.4 0.9,-0.6 0.4,-0.2 0.7,-0.4 1.1,-0.7 0.3,-0.2 0.6,-0.4 1,-0.6 0.4,-0.2 0.7,-0.4 1.1,-0.6 0.3,-0.2 0.7,-0.4 1,-0.6 0.4,-0.2 0.7,-0.4 1.1,-0.6 0.3,-0.2 0.7,-0.4 1,-0.6 0.4,-0.2 0.7,-0.4 1.1,-0.6 0.4,-0.2 0.7,-0.4 1.1,-0.6 0.4,-0.2 0.7,-0.4 1.1,-0.6 0.4,-0.2 0.7,-0.4 1.1,-0.6 0.4,-0.2 0.7,-0.4 1.1,-0.6 0.4,-0.2 0.8,-0.4 1.2,-0.6 0.4,-0.2 0.8,-0.4 1.1,-0.6 0.4,-0.2 0.8,-0.4 1.2,-0.6 0.4,-0.2 0.8,-0.4 1.2,-0.5 0.4,-0.2 0.8,-0.4 1.2,-0.6 0.4,-0.2 0.8,-0.3 1.2,-0.5 0.4,-0.2 0.8,-0.4 1.3,-0.5 0.4,-0.2 0.8,-0.3 1.2,-0.5 0.4,-0.2 0.9,-0.3 1.3,-0.5 0.4,-0.2 0.8,-0.3 1.2,-0.5 0.4,-0.2 0.9,-0.3 1.4,-0.5 0.4,-0.2 0.8,-0.3 1.3,-0.5 0.5,-0.2 0.9,-0.3 1.4,-0.5 0.4,-0.1 0.9,-0.3 1.3,-0.4 0.5,-0.2 1,-0.3 1.4,-0.5 0.4,-0.1 0.9,-0.3 1.3,-0.4 0.5,-0.1 1,-0.3 1.5,-0.4 0.5,-0.1 0.9,-0.3 1.4,-0.4 0.5,-0.1 1,-0.3 1.5,-0.4 0.5,-0.1 0.9,-0.2 1.4,-0.4 0.5,-0.1 1.1,-0.2 1.6,-0.4 0.5,-0.1 1,-0.2 1.4,-0.3 0.5,-0.1 1.1,-0.2 1.7,-0.3 0.5,-0.1 1,-0.2 1.5,-0.3 0.6,-0.1 1.1,-0.2 1.7,-0.3 0.5,-0.1 1,-0.2 1.5,-0.3 0.6,-0.1 1.2,-0.2 1.8,-0.3 0.5,-0.1 1,-0.2 1.5,-0.2 0.6,-0.1 1.2,-0.2 1.9,-0.2 0.5,-0.1 1,-0.1 1.5,-0.2 0.6,-0.1 1.3,-0.1 2,-0.2 0.5,-0.1 1,-0.1 1.6,-0.2 0.7,-0.1 1.4,-0.1 2.1,-0.2 0.5,0 1,-0.1 1.6,-0.1 0.7,-0.1 1.5,-0.1 2.3,-0.1 0.5,0 1,-0.1 1.5,-0.1 0.8,0 1.7,-0.1 2.6,-0.1 0.4,0 0.9,0 1.3,0 1.3,0 2.6,0 4,0 0.7,0 1.5,0 2.2,0 0.3,0 0.5,0 0.8,0 0.5,0 1,0 1.5,0 0.3,0 0.6,0 1,0 0.5,0 0.9,0 1.4,0.1 0.3,0 0.7,0 1,0 0.2,0 0.3,0 0.5,0 0.9,-0.6 1.8,-1.2 2.8,-1.8 0,0 0.1,-0.1 0.1,-0.1 0.4,-0.3 0.9,-0.5 1.3,-0.8 0.1,-0.1 0.2,-0.1 0.3,-0.2 0.4,-0.2 0.7,-0.4 1.1,-0.7 0.2,-0.1 0.3,-0.2 0.5,-0.3 0.3,-0.2 0.7,-0.4 1,-0.6 0.2,-0.1 0.4,-0.2 0.5,-0.3 0.3,-0.2 0.6,-0.4 1,-0.5 0.2,-0.1 0.4,-0.2 0.6,-0.3 0.3,-0.2 0.6,-0.3 0.9,-0.5 0.2,-0.1 0.4,-0.2 0.7,-0.4 0.3,-0.2 0.6,-0.3 0.9,-0.5 0.2,-0.1 0.5,-0.2 0.7,-0.4 0.3,-0.2 0.6,-0.3 0.9,-0.5 0.2,-0.1 0.5,-0.2 0.7,-0.4 0.3,-0.1 0.6,-0.3 0.9,-0.4 0.3,-0.1 0.5,-0.2 0.8,-0.4 0.3,-0.1 0.6,-0.3 0.9,-0.4 0.3,-0.1 0.5,-0.2 0.8,-0.4 0.3,-0.1 0.6,-0.3 0.9,-0.4 0.3,-0.1 0.5,-0.2 0.8,-0.3 0.3,-0.1 0.6,-0.3 1,-0.4 0.3,-0.1 0.6,-0.2 0.8,-0.3 0.3,-0.1 0.7,-0.3 1,-0.4 0.3,-0.1 0.6,-0.2 0.9,-0.3 0.3,-0.1 0.7,-0.3 1,-0.4 0.3,-0.1 0.6,-0.2 0.9,-0.3 0.3,-0.1 0.7,-0.2 1,-0.4 0.3,-0.1 0.6,-0.2 0.9,-0.3 0.4,-0.1 0.7,-0.2 1.1,-0.3 0.3,-0.1 0.6,-0.2 0.9,-0.3 0.4,-0.1 0.7,-0.2 1.1,-0.3 0.3,-0.1 0.6,-0.2 1,-0.3 0.4,-0.1 0.7,-0.2 1.1,-0.3 0.3,-0.1 0.7,-0.2 1,-0.3 0.4,-0.1 0.8,-0.2 1.1,-0.3 0.3,-0.1 0.7,-0.2 1,-0.2 0.4,-0.1 0.8,-0.2 1.2,-0.3 0.3,-0.1 0.7,-0.2 1,-0.2 0.4,-0.1 0.8,-0.2 1.2,-0.2 0.4,-0.1 0.7,-0.1 1.1,-0.2 0.4,-0.1 0.8,-0.2 1.3,-0.2 0.4,-0.1 0.7,-0.1 1.1,-0.2 0.4,-0.1 0.9,-0.1 1.3,-0.2 0.4,-0.1 0.7,-0.1 1.1,-0.2 0.4,-0.1 0.9,-0.1 1.3,-0.2 0.4,-0.1 0.8,-0.1 1.1,-0.2 0.5,-0.1 0.9,-0.1 1.4,-0.2 0.4,0 0.8,-0.1 1.2,-0.1 0.5,0 1,-0.1 1.5,-0.1 0.4,0 0.8,-0.1 1.2,-0.1 0.5,0 1,-0.1 1.5,-0.1 0.4,0 0.8,-0.1 1.2,-0.1 0.5,0 1.1,-0.1 1.7,-0.1 0.4,0 0.7,0 1.1,-0.1 0.6,0 1.3,0 1.9,-0.1 0.3,0 0.6,0 1,0 1,0 1.9,0 2.9,0 0.5,0 1.3,0 2.3,0 C 246,34.4 199.3,5.3 145.9,5.3 91,5.7 43.5,36.1 19,80.9 c 19.4,4.4 32.3,13.2 44.8,21.7 12.3,8.5 24.1,16.6 42.1,20.4 z"
   id="path299" />
	<path
   class="st0"
   d="m 31.9,154.2 c 0.4,0 0.7,0 1.1,0 0.8,0 1.5,0 2.3,-0.1 0.4,0 0.9,0 1.3,-0.1 0.7,0 1.4,-0.1 2.1,-0.1 0.4,0 0.9,-0.1 1.3,-0.1 0.7,0 1.3,-0.1 2,-0.2 0.4,0 0.8,-0.1 1.2,-0.1 0.7,-0.1 1.4,-0.1 2,-0.2 0.4,0 0.7,-0.1 1.1,-0.1 0.9,-0.1 1.7,-0.2 2.6,-0.3 0.1,0 0.3,0 0.4,-0.1 1,-0.1 1.9,-0.3 2.9,-0.4 0.3,0 0.6,-0.1 0.9,-0.2 0.6,-0.1 1.3,-0.2 1.9,-0.3 0.4,-0.1 0.7,-0.1 1.1,-0.2 0.6,-0.1 1.1,-0.2 1.7,-0.3 0.4,-0.1 0.7,-0.2 1.1,-0.2 0.5,-0.1 1.1,-0.2 1.6,-0.4 0.4,-0.1 0.7,-0.2 1.1,-0.3 0.5,-0.1 1.1,-0.3 1.6,-0.4 0.3,-0.1 0.6,-0.2 0.9,-0.2 0.6,-0.2 1.3,-0.4 1.9,-0.5 0.2,-0.1 0.4,-0.1 0.6,-0.2 0.8,-0.2 1.6,-0.5 2.4,-0.8 0.2,-0.1 0.5,-0.2 0.7,-0.2 0.6,-0.2 1.1,-0.4 1.6,-0.6 0.3,-0.1 0.6,-0.2 0.9,-0.3 0.5,-0.2 1,-0.3 1.4,-0.5 0.3,-0.1 0.6,-0.2 0.9,-0.4 0.5,-0.2 0.9,-0.4 1.4,-0.5 0.3,-0.1 0.6,-0.2 0.9,-0.4 0.5,-0.2 0.9,-0.4 1.4,-0.6 0.3,-0.1 0.6,-0.2 0.8,-0.4 0.5,-0.2 1,-0.5 1.6,-0.7 0.2,-0.1 0.4,-0.2 0.6,-0.3 0.7,-0.3 1.4,-0.7 2.1,-1 0.2,-0.1 0.4,-0.2 0.6,-0.3 0.5,-0.3 1,-0.5 1.5,-0.8 0.3,-0.1 0.5,-0.3 0.8,-0.4 0.4,-0.2 0.8,-0.4 1.3,-0.7 0.3,-0.1 0.5,-0.3 0.8,-0.4 0.4,-0.2 0.8,-0.4 1.2,-0.7 0.3,-0.1 0.5,-0.3 0.8,-0.4 0.4,-0.2 0.8,-0.5 1.2,-0.7 0.2,-0.1 0.5,-0.3 0.7,-0.4 0.5,-0.3 0.9,-0.5 1.4,-0.8 0.2,-0.1 0.4,-0.2 0.6,-0.3 0.6,-0.4 1.3,-0.8 1.9,-1.2 0.1,-0.1 0.3,-0.2 0.4,-0.3 0.5,-0.3 1,-0.6 1.5,-0.9 0.2,-0.1 0.5,-0.3 0.7,-0.4 0.4,-0.3 0.8,-0.5 1.2,-0.8 0.2,-0.2 0.5,-0.3 0.7,-0.5 0.2,-0.1 0.4,-0.3 0.6,-0.4 0,0 0,0 0,0 C 82.6,127.6 69.4,119.1 56.7,110.8 43.9,102.5 31.8,94.7 14.4,90.7 5.9,108.8 1.3,128.9 1.3,150 c 0,0.5 0,1.1 0,1.6 8,1.3 18.8,2.6 27,2.6 1.2,0 2.4,0 3.6,0 z"
   id="path301" />
	<path
   class="st0"
   d="m 273.3,88.2 c -1.6,-0.1 -3.2,-0.1 -5,-0.1 -1.2,0 -2.3,0 -3.4,0 -0.3,0 -0.6,0 -0.9,0 -0.9,0 -1.9,0.1 -2.8,0.1 -0.2,0 -0.4,0 -0.6,0 -1.1,0.1 -2.1,0.1 -3.1,0.2 -0.3,0 -0.5,0 -0.8,0.1 -0.8,0.1 -1.6,0.2 -2.4,0.2 -0.2,0 -0.5,0.1 -0.7,0.1 -1,0.1 -1.9,0.2 -2.9,0.4 -0.2,0 -0.4,0.1 -0.5,0.1 -0.8,0.1 -1.6,0.2 -2.3,0.4 -0.2,0 -0.5,0.1 -0.7,0.1 -0.9,0.2 -1.8,0.3 -2.7,0.5 0,0 -0.1,0 -0.1,0 -0.8,0.2 -1.7,0.4 -2.5,0.6 -0.2,0.1 -0.5,0.1 -0.7,0.2 -0.7,0.2 -1.4,0.4 -2.1,0.6 -0.1,0 -0.3,0.1 -0.4,0.1 -0.8,0.2 -1.6,0.5 -2.4,0.7 -0.2,0.1 -0.4,0.1 -0.6,0.2 -0.6,0.2 -1.2,0.4 -1.8,0.6 -0.2,0.1 -0.4,0.1 -0.5,0.2 -0.7,0.3 -1.5,0.5 -2.2,0.8 -0.2,0.1 -0.3,0.1 -0.4,0.2 -0.6,0.2 -1.2,0.5 -1.7,0.7 -0.2,0.1 -0.4,0.2 -0.6,0.2 -0.7,0.3 -1.4,0.6 -2,0.9 -0.1,0 -0.1,0.1 -0.2,0.1 -0.6,0.3 -1.2,0.6 -1.8,0.9 -0.2,0.1 -0.4,0.2 -0.6,0.3 -0.6,0.3 -1.1,0.5 -1.6,0.8 0,0 -0.1,0 -0.1,0 26.2,4.2 43.1,14.9 59,25.7 2.5,1.7 5,3.4 7.5,5 -2.1,-14.5 -6.4,-28.3 -12.4,-41.1 -1.2,0.1 -2.1,0.1 -3,0.2 z"
   id="path303" />
	<path
   class="st0"
   d="m 278.4,134.5 c -1,-0.7 -2.1,-1.4 -3.1,-2.1 -18.1,-12 -39.1,-23.9 -69,-25.6 v 0 c -2.6,-0.2 -5,-0.2 -7.2,-0.3 -0.7,0 -1.5,0 -2.2,0 -39.9,0 -60,13.3 -79.2,26.5 l -1.8,1.2 -0.7,0.5 v 0 c -21.3,14.6 -43.3,29.6 -86.8,29.6 -9.5,0 -18.2,-0.7 -26.5,-2.1 0.5,5.6 1.5,11.5 1.5,11.5 9.7,-1.6 20.1,-2.4 31.1,-2.4 1.5,0 2.9,0 4.4,0 0.5,0 1,0 1.4,0 1,0 1.9,0 2.8,0.1 0.6,0 1.1,0.1 1.7,0.1 0.8,0 1.7,0.1 2.5,0.1 0.6,0 1.2,0.1 1.7,0.1 0.8,0.1 1.5,0.1 2.3,0.2 0.6,0 1.2,0.1 1.8,0.2 0.7,0.1 1.5,0.1 2.2,0.2 0.6,0.1 1.2,0.1 1.8,0.2 0.7,0.1 1.4,0.2 2.1,0.2 0.6,0.1 1.2,0.2 1.7,0.2 0.7,0.1 1.3,0.2 2,0.3 0.6,0.1 1.1,0.2 1.7,0.3 0.6,0.1 1.3,0.2 1.9,0.3 0.6,0.1 1.1,0.2 1.7,0.3 0.6,0.1 1.2,0.2 1.8,0.3 0.6,0.1 1.1,0.2 1.7,0.3 0.6,0.1 1.2,0.2 1.8,0.4 0.5,0.1 1.1,0.2 1.6,0.4 0.6,0.1 1.2,0.3 1.7,0.4 0.5,0.1 1.1,0.3 1.6,0.4 0.6,0.1 1.1,0.3 1.7,0.4 0.5,0.1 1,0.3 1.5,0.4 0.5,0.1 1.1,0.3 1.6,0.4 0.5,0.1 1,0.3 1.5,0.4 0.5,0.2 1.1,0.3 1.6,0.5 0.5,0.2 1,0.3 1.5,0.5 0.5,0.2 1,0.3 1.5,0.5 0.5,0.2 1,0.3 1.4,0.5 0.5,0.2 1,0.3 1.5,0.5 0.5,0.2 0.9,0.3 1.4,0.5 0.5,0.2 1,0.4 1.5,0.5 0.5,0.2 0.9,0.3 1.4,0.5 0.5,0.2 0.9,0.4 1.4,0.6 0.4,0.2 0.9,0.4 1.3,0.5 0.5,0.2 0.9,0.4 1.4,0.6 0.4,0.2 0.9,0.4 1.3,0.5 0.5,0.2 0.9,0.4 1.4,0.6 0.4,0.2 0.8,0.4 1.2,0.6 0.4,0.2 0.9,0.4 1.3,0.6 0.4,0.2 0.8,0.4 1.2,0.6 0.4,0.2 0.9,0.4 1.3,0.6 0.4,0.2 0.8,0.4 1.2,0.6 0.4,0.2 0.9,0.4 1.3,0.7 0.4,0.2 0.8,0.4 1.1,0.6 0.4,0.2 0.9,0.5 1.3,0.7 0.4,0.2 0.7,0.4 1.1,0.6 0.4,0.2 0.9,0.5 1.3,0.7 0.3,0.2 0.7,0.4 1,0.6 0.5,0.3 0.9,0.5 1.4,0.8 0.3,0.2 0.6,0.3 0.9,0.5 0.6,0.3 1.2,0.7 1.8,1 0.2,0.1 0.4,0.2 0.6,0.3 0.7,0.4 1.4,0.8 2,1.2 0.3,0.2 0.5,0.3 0.8,0.5 0.4,0.3 0.9,0.6 1.3,0.8 0.3,0.2 0.6,0.4 0.8,0.5 0.4,0.3 0.8,0.5 1.3,0.8 0.3,0.2 0.6,0.4 0.8,0.5 0.3,0.2 0.7,0.4 1,0.7 0.2,-0.1 0.4,-0.2 0.6,-0.3 0.4,-0.2 0.9,-0.4 1.3,-0.7 0.6,-0.3 1.2,-0.6 1.9,-1 0.4,-0.2 0.9,-0.5 1.3,-0.7 0.6,-0.3 1.2,-0.6 1.8,-1 0.4,-0.2 0.9,-0.5 1.3,-0.8 0.6,-0.3 1.1,-0.7 1.7,-1 0.4,-0.3 0.8,-0.5 1.3,-0.8 0.6,-0.4 1.1,-0.7 1.7,-1.1 0.4,-0.3 0.8,-0.5 1.2,-0.8 0.6,-0.4 1.2,-0.8 1.8,-1.2 0.4,-0.2 0.7,-0.5 1.1,-0.7 0.7,-0.4 1.3,-0.9 2,-1.3 0.3,-0.2 0.6,-0.4 0.9,-0.6 0.9,-0.6 1.9,-1.3 2.8,-1.9 17.6,-12.1 35.9,-24.6 72,-24.6 31.1,0 49,9.4 63.2,18.7 2,-9.5 3.1,-19.4 3.1,-29.5 0,-2.6 -0.1,-5.2 -0.2,-7.8 -1.1,-0.7 -2.2,-1.5 -3.3,-2.3 -3.2,-1.7 -5.8,-3.5 -8.4,-5.3 z"
   id="path305" />
	<path
   class="st0"
   d="m 157.3,193.7 c -0.9,0.6 -1.8,1.2 -2.6,1.8 -0.2,0.2 -0.5,0.3 -0.7,0.5 -0.8,0.5 -1.5,1 -2.3,1.5 -0.2,0.1 -0.4,0.3 -0.7,0.4 -0.9,0.6 -1.9,1.3 -2.9,1.9 -0.1,0.1 -0.3,0.2 -0.4,0.3 -0.8,0.5 -1.6,1 -2.5,1.6 -0.3,0.2 -0.6,0.3 -0.8,0.5 -0.8,0.5 -1.6,1 -2.5,1.5 -0.2,0.1 -0.4,0.2 -0.6,0.3 -0.9,0.5 -1.8,1 -2.7,1.5 1.3,0.9 2.5,1.7 3.8,2.6 19,13 37.2,25.5 64.8,31.5 10.8,2.3 23.1,3.7 37.5,3.7 1.1,0 4.8,-0.3 7.6,-0.5 1.5,-0.1 2.9,-0.2 4.1,-0.3 12.5,-15 22,-32.5 27.7,-51.7 C 269,181 250.6,171 223.7,171 c -33.1,-0.1 -49.3,11 -66.4,22.7 z"
   id="path307" />
	<path
   class="st0"
   d="m 136.7,216.4 c -3.5,-2.4 -7.2,-4.9 -10.8,-7.3 -21.3,-14.1 -46,-27.8 -91.4,-27.8 -10.3,0 -20.1,0.7 -29.2,2.2 5.9,25 18.4,47.5 35.4,65.6 0.4,-0.2 0.8,-0.4 1.1,-0.6 v -0.1 c 11.4,-6.5 27.9,-13.9 55.4,-13.9 15.1,0 27.1,2.2 37.3,5.6 15.9,5.2 28.3,13.2 40.6,21.1 11.1,7.2 21.7,14 34.4,18.3 13.6,-6.7 26.1,-15.6 36.9,-26.1 -0.5,0 -1.1,0 -1.6,0 -54.2,-0.1 -81.6,-18.9 -108.1,-37 z"
   id="path309" />
	<path
   class="st0"
   d="m 135,250.8 c -10.6,-3.9 -22.8,-6.4 -37.7,-6.4 -16.9,0 -33.4,4 -49,12 25.7,23.5 59.9,37.9 97.4,37.9 17.7,0 34.6,-3.2 50.3,-9 -12.9,-4.8 -22.8,-11.5 -32.3,-18.1 -9.1,-6.2 -17.8,-12.1 -28.7,-16.4 z"
   id="path311" />
</g>
</svg>
