<?xml version="1.0" encoding="UTF-8"?>
<svg id="Layer_1" xmlns="http://www.w3.org/2000/svg" width="784.6" height="253.8" version="1.1" viewBox="0 0 784.6 253.8">
  <!-- Generator: Adobe Illustrator 29.0.0, SVG Export Plug-In . SVG Version: 2.1.0 Build 186)  -->
  <defs>
    <style>
      .st0 {
        fill: #fff;
      }
    </style>
  </defs>
  <g>
    <g>
      <path class="st0" d="M385.3,233.9h-.4c-6.3,13.5-14.7,19.8-31.9,19.8-31.9,0-43.3-23.7-43.3-75.8s14.7-75.8,48.4-75.8,42.7,28.8,42.7,42.1v2.7h-22.1v-3.5c0-10.8-4.5-23.7-20.4-23.7s-25.3,11-25.3,57.6,7.8,58.8,23.5,58.8c17.8.2,24.3-12.7,24.3-44.5h-24.5v-17.6h46.6v76.8h-17.6v-16.9Z"/>
      <path class="st0" d="M427,105.1h78.8v19.6h-55.5v40.4h52.3v19.6h-52.3v46.6h57.2v19.6h-80.5V105.1Z"/>
      <path class="st0" d="M528.3,105.1h23.3v145.8h-23.3V105.1Z"/>
      <path class="st0" d="M596.7,205.8v3.7c0,17.8,7.8,26.8,23.9,26.8s22.1-10.4,22.1-21.2c0-15.3-7.8-22.1-20.8-25.9l-15.9-5.5c-21.2-8.2-30.4-19.2-30.4-40s18-41.3,45.3-41.3,41.3,23.3,41.3,38.4v3.3h-23.3v-3.1c0-13.3-5.9-21-20.4-21s-19.6,5.5-19.6,21,6.3,18.8,21.9,24.7l15.7,5.7c20.6,7.4,29.6,18.6,29.6,38.6,0,31-18.8,43.9-48.2,43.9s-44.3-24.1-44.3-44.5v-3.5h23.3Z"/>
      <path class="st0" d="M716.4,105.1h29.8l38.4,145.8h-24.3l-9-35.7h-42.7l-9.4,35.7h-24.3l41.5-145.8ZM747.4,196.6l-16.7-71.9h-.4l-17.4,71.9h34.5Z"/>
    </g>
    <circle class="st0" cx="126.9" cy="24.9" r="24.9"/>
    <circle class="st0" cx="44.2" cy="74.7" r="24.9"/>
    <circle class="st0" cx="209.7" cy="75.2" r="24.9"/>
    <polygon class="st0" points="116.6 220.3 172.5 147.1 126.9 87.3 0 253.8 34.8 253.8 88.5 183.4 116.6 220.3"/>
    <polygon class="st0" points="251.5 252.6 173.1 149.9 118 222.2 141.3 252.6 251.5 252.6"/>
    <polygon class="st0" points="94.8 252.6 138.5 252.6 116.6 224 94.8 252.6"/>
    <polygon class="st0" points="88.5 187 38.4 252.6 92 252.6 115.2 222.2 88.5 187"/>
    <polygon class="st0" points="116.6 224 115.2 222.2 92 252.6 94.8 252.6 116.6 224"/>
  </g>
  <g>
    <polygon class="st0" points="327.9 41.3 327.9 21.5 318 21.5 318 51.1 347.6 51.1 347.6 41.3 327.9 41.3"/>
    <polygon class="st0" points="367.3 1.8 318 1.8 318 16.6 327.8 16.6 327.8 11.7 357.5 11.7 357.5 41.3 352.5 41.3 352.5 51.1 367.3 51.1 367.3 1.8"/>
    <g>
      <path class="st0" d="M380.5,2.3h15.1v36.4h21.6v12.5h-36.6V2.3Z"/>
      <path class="st0" d="M423.6,2.3h37.8v12.5h-22.7v6.1h19.5v11.6h-19.5v18.6h-15.1V2.3h0Z"/>
    </g>
    <path class="st0" d="M500.1,51.4h-27.3V2.2h27.3v3.2h-23.7v18.6h22.4v3.2h-22.4v21.2h23.7v3.1Z"/>
    <path class="st0" d="M547.7,51.4h-3.6l-29.6-43.7h-.1c.3,5.2.4,9.1.4,11.7v31.9h-3.3V2.2h3.4l29.6,43.6h.3c-.3-4.1-.4-7.9-.4-11.5V2.2h3.4v49.2h-.1Z"/>
    <path class="st0" d="M589.1,51.4h-27.3V2.2h27.3v3.2h-23.7v18.6h22.4v3.2h-22.4v21.2h23.7v3.1Z"/>
    <path class="st0" d="M603.9,30v21.4h-3.4V2.2h11.9c6.1,0,10.7,1.1,13.8,3.4,2.9,2.3,4.5,5.6,4.5,10.2s-.9,6.1-2.7,8.4c-1.8,2.3-4.5,4-8,4.8l13.5,22.4h-4.2l-12.9-21.4h-12.4ZM603.9,27h9.4c4.2,0,7.5-.9,9.8-2.8,2.3-1.9,3.4-4.6,3.4-8.2s-1.1-6.5-3.4-8.2c-2.3-1.8-6-2.6-11.2-2.6h-8.2v21.7h.1Z"/>
    <path class="st0" d="M661.1,26h18v21.9c-4.7,2-10.1,2.9-15.9,2.9s-13.6-2.2-17.7-6.5c-4.1-4.3-6.1-10.3-6.1-18.2s1-9.2,3.1-13c2-3.8,5-6.8,8.8-8.8,3.8-2,8.2-3.1,13.1-3.1s10.1,1,14.4,2.9l-1.4,3.1c-4.2-1.9-8.7-2.9-13.1-2.9-6.5,0-11.6,1.9-15.3,5.9s-5.6,9.2-5.6,15.8,1.8,12.6,5.4,16.3c3.6,3.7,8.8,5.5,15.8,5.5s8.3-.6,11.5-1.9v-16.7h-14.5l-.3-3.2h0Z"/>
    <path class="st0" d="M702.9,28.9l14.5-26.8h3.7l-16.6,30v18.9h-3.6v-18.5l-16.6-30.4h4l14.5,26.8Z"/>
  </g>
</svg>